<svg width="215" height="59" viewBox="0 0 215 59" fill="none" xmlns="http://www.w3.org/2000/svg">
<g clip-path="url(#clip0_67_23)">
<path fill-rule="evenodd" clip-rule="evenodd" d="M168.66 0.671875H172.81L183.09 38.6219H172.66L165.85 13.5219L168.66 0.671875ZM164.91 17.5119L170.46 38.6219H160.19L164.91 17.5119ZM181.24 0.671875H185.39L195.67 38.6219H185.24L178.42 13.5219L181.24 0.671875Z" fill="#8994A5"/>
<path fill-rule="evenodd" clip-rule="evenodd" d="M200.06 0.669375L202.8 10.6794H212.75L214.98 0.669375H200.06ZM212.3 12.6794L210.05 22.7894H206.07L203.34 12.6794H212.3ZM197.94 0.669375L208.22 38.6194H197.79L187.41 0.669375H197.94ZM123.37 0.609375L85.7304 0.629375L84.1504 7.64937H98.0404L91.0504 38.8794H100.69L107.7 7.64937L121.74 7.62937L123.37 0.609375Z" fill="#272A30"/>
<path fill-rule="evenodd" clip-rule="evenodd" d="M157.07 3.45066C151.98 0.210656 147.95 0.100656 144.41 0.0106563C128.45 -0.389344 116.68 10.5307 115.76 22.8107C115.03 32.6207 122.34 39.2007 135.09 39.0007C141.83 38.8907 145.63 37.5807 150.69 35.3707L152.61 26.4507C146.53 29.6207 141.34 31.1107 136.68 31.1107C132.81 31.1107 125.85 28.4907 126.1 22.2207C126.37 15.6107 130.39 8.21066 143.88 8.14066C147.22 8.12066 150.89 8.87066 155.25 12.1107L157.07 3.45066ZM50.75 0.610656H41.2L32.64 38.8707H42.23L50.75 0.610656ZM22.6 0.640656L21.04 7.71066H35.62L37.2 0.640656H22.6ZM19.39 15.5007L17.77 22.6307H30.33L31.95 15.5007H19.39ZM20.48 0.640656H10.5L2.04004 38.8907H11.99L20.48 0.640656ZM44.5 38.9407L65.54 0.550656L68.73 12.2507L62.21 24.3307H72.03L73.84 31.2407H58.51L54.41 38.9407H44.5ZM67.73 0.550656L78.14 38.8007H88.18L77.31 0.550656H67.73Z" fill="#272A30"/>
<path fill-rule="evenodd" clip-rule="evenodd" d="M8.19 46.4626L7.8 48.1126C7.16 47.6826 6.43 47.4726 5.63 47.4726C4.95 47.4726 4.39 47.6426 3.96 47.9726C3.52 48.3026 3.28 48.7426 3.24 49.2926C3.22 49.5626 3.29 49.8426 3.46 50.1426C3.63 50.4426 4.15 50.9526 5.03 51.6626C5.91 52.3826 6.47 53.0026 6.73 53.5526C6.98 54.0926 7.09 54.6326 7.04 55.1726C6.97 56.0326 6.56 56.7826 5.82 57.4126C5.08 58.0426 4.14 58.3526 3 58.3526C1.99 58.3526 0.99 58.0626 0 57.4926L0.42 55.7226C1.51 56.4926 2.47 56.8726 3.3 56.8726C3.75 56.8726 4.19 56.7326 4.62 56.4526C5.05 56.1726 5.28 55.7926 5.32 55.3226C5.35 55.0126 5.27 54.7026 5.1 54.3726C4.92 54.0426 4.4 53.5126 3.52 52.7826C2.64 52.0526 2.08 51.4226 1.84 50.8826C1.6 50.3426 1.5 49.8126 1.55 49.2826C1.63 48.3526 2.1 47.5626 2.97 46.9326C3.84 46.3026 4.82 45.9926 5.93 45.9926C6.67 45.9826 7.43 46.1426 8.19 46.4626Z" fill="#272A30"/>
<path fill-rule="evenodd" clip-rule="evenodd" d="M40.4003 46.1444L40.0703 47.5744H34.9803L34.1003 51.3544H38.5903L38.2603 52.7844H33.7403L32.7903 56.7644H38.0603L37.7103 58.1944H30.7803L33.6703 46.1344H40.4003V46.1444ZM73.3303 52.9744L72.3003 57.3044C70.8603 58.0044 69.4603 58.3544 68.1003 58.3544C66.4703 58.3544 65.2103 57.8444 64.3403 56.8344C63.4603 55.8144 63.0903 54.5644 63.2203 53.0544C63.3903 51.1444 64.2903 49.4844 65.9203 48.0844C67.5603 46.6844 69.7603 45.9844 72.5503 45.9844C73.1003 45.9844 73.8203 46.0344 74.7403 46.1344L74.4103 47.5844C73.4203 47.4844 72.6703 47.4344 72.1703 47.4344C70.0903 47.4344 68.4103 47.9944 67.1403 49.1044C65.8703 50.2144 65.1603 51.5144 65.0403 53.0044C64.9403 54.1544 65.2003 55.0944 65.8203 55.8144C66.4403 56.5344 67.2903 56.9044 68.3703 56.9044C69.1803 56.9044 70.0103 56.7144 70.8603 56.3244L71.3403 54.2344H69.5303L69.8303 52.9644H73.3303V52.9744ZM108.9 46.1444L107.16 53.5844C106.79 55.1544 106.12 56.3344 105.15 57.1444C104.18 57.9544 102.94 58.3544 101.45 58.3544C100.13 58.3544 99.1003 58.0144 98.3703 57.3344C97.6403 56.6544 97.3203 55.7444 97.4203 54.6144C97.4403 54.3744 97.4803 54.1444 97.5403 53.8944L99.3703 46.1344H101.04L99.1803 54.0244C99.1403 54.1944 99.1103 54.3544 99.1003 54.5044C99.0303 55.2444 99.2403 55.8344 99.7203 56.2544C100.2 56.6744 100.85 56.8944 101.67 56.8944C102.38 56.8944 103.02 56.7344 103.59 56.4164C104.16 56.0954 104.57 55.6954 104.82 55.2154C105.07 54.7354 105.3 54.0154 105.53 53.0554L107.16 46.1254H108.9V46.1444ZM135.21 47.5744L134.32 51.4544H135.21C136.17 51.4544 136.92 51.2644 137.46 50.8854C137.99 50.5054 138.29 49.9854 138.35 49.3354C138.45 48.1654 137.74 47.5854 136.21 47.5854H135.21V47.5744ZM133.8 46.1444H136.09C137.77 46.1444 138.88 46.4654 139.43 47.0954C139.98 47.7254 140.21 48.5054 140.13 49.4154C140.077 50.1117 139.779 50.7669 139.29 51.2654C138.79 51.7954 138.12 52.1554 137.27 52.3654C137.63 52.5954 137.94 53.0454 138.21 53.6954L140.09 58.2054H138.27L137.06 55.3354C136.68 54.4354 136.34 53.7954 136.05 53.4354C135.76 53.0654 135.28 52.8854 134.62 52.8854H133.95L132.71 58.2054H130.96L133.8 46.1444ZM167.99 56.9044C169.17 56.9044 170.24 56.3044 171.22 55.1044C172.19 53.9044 172.75 52.4544 172.9 50.7554C172.99 49.7154 172.81 48.9054 172.36 48.3154C171.91 47.7254 171.25 47.4254 170.4 47.4254C169.09 47.4254 167.97 48.0454 167.04 49.2854C166.12 50.5055 165.565 51.962 165.44 53.4854C165.35 54.5354 165.53 55.3654 166 55.9754C166.46 56.6054 167.13 56.9044 167.99 56.9044ZM170.54 45.9854C171.88 45.9854 172.92 46.4454 173.67 47.3754C174.42 48.3054 174.72 49.5254 174.59 51.0454C174.41 53.1354 173.65 54.8854 172.33 56.2754C171 57.6654 169.5 58.3554 167.83 58.3554C166.51 58.3554 165.46 57.8754 164.7 56.9354C163.93 55.9854 163.61 54.7654 163.74 53.2754C163.9 51.4154 164.62 49.7354 165.91 48.2354C167.2 46.7354 168.74 45.9854 170.54 45.9854Z" fill="#272A30"/>
<path fill-rule="evenodd" clip-rule="evenodd" d="M206.33 46.4626L205.94 48.1126C205.3 47.6826 204.57 47.4726 203.77 47.4726C203.09 47.4726 202.53 47.6426 202.1 47.9726C201.66 48.3026 201.42 48.7426 201.38 49.2926C201.36 49.5626 201.43 49.8426 201.6 50.1426C201.77 50.4426 202.29 50.9526 203.17 51.6626C204.05 52.3826 204.61 53.0026 204.87 53.5526C205.12 54.0926 205.23 54.6326 205.18 55.1726C205.11 56.0326 204.7 56.7826 203.96 57.4126C203.22 58.0426 202.28 58.3526 201.14 58.3526C200.13 58.3526 199.13 58.0626 198.14 57.4926L198.56 55.7226C199.65 56.4926 200.61 56.8726 201.44 56.8726C201.89 56.8726 202.33 56.7326 202.76 56.4526C203.19 56.1726 203.42 55.7926 203.46 55.3226C203.49 55.0126 203.41 54.7026 203.24 54.3726C203.06 54.0426 202.54 53.5126 201.66 52.7826C200.78 52.0526 200.22 51.4226 199.98 50.8826C199.74 50.3426 199.64 49.8126 199.69 49.2826C199.77 48.3526 200.24 47.5626 201.11 46.9326C201.98 46.3026 202.96 45.9926 204.07 45.9926C204.82 45.9826 205.58 46.1426 206.33 46.4626Z" fill="#272A30"/>
</g>
<defs>
<clipPath id="clip0_67_23">
<rect width="215" height="59" fill="white"/>
</clipPath>
</defs>
</svg>
