<svg width="24" height="24" viewBox="0 0 24 24" fill="none" xmlns="http://www.w3.org/2000/svg">
<path fill-rule="evenodd" clip-rule="evenodd" d="M16.5919 21.6062C15.9988 22.2481 15.1131 22.6003 14.1248 22.6003L9.83974 22.6003C7.94605 22.6003 6.31383 21.023 6.73898 19.1199L7.33274 16.4783L4.72826 14.1618C3.83464 13.4288 3.2133 12.6439 3.13903 11.6861C3.06569 10.7405 3.54761 9.8637 4.22265 9.00523L4.22348 9.00417L9.41232 2.42977L9.41316 2.4287C10.0814 1.57762 11.0078 1.10713 11.9787 1.10593C12.9502 1.10474 13.8792 1.57354 14.5514 2.42868L14.5519 2.42936L19.7397 9.00246L19.7404 9.00333C20.4224 9.86245 20.8903 10.7271 20.8034 11.6705C20.7168 12.6104 20.1004 13.3946 19.2473 14.1521L19.2463 14.1529L16.6296 16.4684L17.225 19.1173C17.441 20.059 17.1936 20.955 16.5919 21.6062ZM15.5165 15.4505L8.43416 15.4505L5.7137 13.0308C5.70592 13.0239 5.69799 13.0172 5.68993 13.0106C4.88604 12.3534 4.66069 11.9074 4.63454 11.5702C4.60713 11.2167 4.77561 10.7289 5.4011 9.93327L5.40177 9.93241L10.5911 3.35738L10.5924 3.3557C10.7893 3.10481 11.0077 2.92302 11.2327 2.80133L11.2393 6.81841C11.24 7.23262 11.5764 7.56785 11.9906 7.56717C12.4048 7.56649 12.74 7.23015 12.7393 6.81594L12.7327 2.80189C12.9571 2.92347 13.1752 3.10506 13.3724 3.3561L13.3734 3.35738L18.5636 9.93348L18.565 9.93519C19.1908 10.7233 19.3412 11.1913 19.3097 11.5328C19.2779 11.8779 19.0388 12.3311 18.2518 13.03L18.2513 13.0304L15.5165 15.4505ZM15.4902 20.5882C15.7472 20.31 15.8712 19.9233 15.7627 19.4516L15.7619 19.4479L15.2005 16.9505H8.76403L8.20289 19.447C8.03451 20.2025 8.67902 21.1003 9.83974 21.1003H14.1248C14.7629 21.1003 15.2242 20.8761 15.4902 20.5882Z" fill="#424B5A"/>
</svg>
