<svg width="24" height="24" viewBox="0 0 24 24" fill="none" xmlns="http://www.w3.org/2000/svg">
<path fill-rule="evenodd" clip-rule="evenodd" d="M3.90533 3.90533C3.18991 4.62075 2.75 5.67044 2.75 7V9C2.75 9.41421 2.41421 9.75 2 9.75C1.58579 9.75 1.25 9.41421 1.25 9V7C1.25 5.32956 1.81009 3.87925 2.84467 2.84467C3.87925 1.81009 5.32956 1.25 7 1.25H17C18.6704 1.25 20.1207 1.81009 21.1553 2.84467C22.1899 3.87925 22.75 5.32956 22.75 7V9C22.75 9.41421 22.4142 9.75 22 9.75C21.5858 9.75 21.25 9.41421 21.25 9V7C21.25 5.67044 20.8101 4.62075 20.0947 3.90533C19.3793 3.18991 18.3296 2.75 17 2.75H7C5.67044 2.75 4.62075 3.18991 3.90533 3.90533ZM2 14.25C2.41421 14.25 2.75 14.5858 2.75 15V17C2.75 18.3296 3.18991 19.3793 3.90533 20.0947C4.62075 20.8101 5.67044 21.25 7 21.25H17C18.3296 21.25 19.3793 20.8101 20.0947 20.0947C20.8101 19.3793 21.25 18.3296 21.25 17V15C21.25 14.5858 21.5858 14.25 22 14.25C22.4142 14.25 22.75 14.5858 22.75 15V17C22.75 18.6704 22.1899 20.1207 21.1553 21.1553C20.1207 22.1899 18.6704 22.75 17 22.75H7C5.32956 22.75 3.87925 22.1899 2.84467 21.1553C1.81009 20.1207 1.25 18.6704 1.25 17V15C1.25 14.5858 1.58579 14.25 2 14.25ZM6.99012 10.2948C6.99004 10.2999 6.99001 10.305 6.99001 10.31V13.7C6.99001 13.9504 7.08415 14.2802 7.27286 14.6013C7.46167 14.9226 7.70271 15.163 7.9204 15.2823L7.92458 15.2846L11.1259 17.0653C11.1633 17.0862 11.2049 17.106 11.25 17.1243V12.7623L6.99012 10.2948ZM12.75 17.1272C12.7998 17.1077 12.8456 17.0864 12.887 17.0637L12.8882 17.063L16.0854 15.2846C16.3007 15.165 16.5435 14.9227 16.7343 14.5998C16.925 14.2769 17.02 13.9479 17.02 13.7V10.31C17.02 10.3022 17.0199 10.2943 17.0197 10.2863L12.75 12.7621V17.1272ZM16.3638 8.93271C16.272 8.84589 16.1788 8.77665 16.0896 8.72776L16.0854 8.72546L12.8809 6.94293C12.6755 6.8268 12.3581 6.7475 12.0012 6.7475C11.6438 6.7475 11.3312 6.82699 11.1331 6.94059L11.1246 6.94548L7.92458 8.72545C7.83365 8.77596 7.7378 8.84838 7.64304 8.93952L11.9998 11.4632L16.3638 8.93271ZM16.8127 7.41355L13.6166 5.6357C13.1325 5.36282 12.546 5.2475 12.0012 5.2475C11.4579 5.2475 10.8726 5.36226 10.3915 5.63674L7.19541 7.41461C6.69083 7.69504 6.27345 8.15779 5.98427 8.64729C5.695 9.13694 5.49001 9.72785 5.49001 10.31V13.7C5.49001 14.2797 5.69086 14.8699 5.97965 15.3613C6.26791 15.8518 6.68608 16.3157 7.19739 16.5965L7.1996 16.5978L10.3946 18.3749C10.8748 18.6432 11.4592 18.755 12.0012 18.755C12.544 18.755 13.1289 18.6429 13.6118 18.3769L13.6146 18.3754L16.8146 16.5954C17.3192 16.315 17.7365 15.8523 18.0257 15.3628C18.315 14.8731 18.52 14.2822 18.52 13.7V10.31C18.52 9.73039 18.3191 9.14016 18.0304 8.64876C17.7421 8.15829 17.324 7.6944 16.8127 7.41355Z" fill="#424B5A"/>
</svg>
