<svg width="24" height="24" viewBox="0 0 24 24" fill="none" xmlns="http://www.w3.org/2000/svg">
<path fill-rule="evenodd" clip-rule="evenodd" d="M2.75 9C2.75 6.03342 4.8091 3.55436 7.57821 2.91194L7.30689 3.36413C7.09378 3.71932 7.20896 4.18001 7.56414 4.39312C7.91933 4.60623 8.38002 4.49105 8.59313 4.13587L9.64312 2.38587C9.78214 2.15417 9.78578 1.8656 9.65265 1.63047C9.51952 1.39534 9.2702 1.25 9 1.25C4.71579 1.25 1.25 4.71579 1.25 9C1.25 9.41421 1.58579 9.75 2 9.75C2.41421 9.75 2.75 9.41421 2.75 9ZM13.6118 5.62304C13.1288 5.35704 12.5434 5.24475 11.9992 5.24625C11.4574 5.24776 10.8725 5.36233 10.3915 5.63674L7.19542 7.41458C6.69083 7.69501 6.27345 8.15776 5.98426 8.64727C5.69499 9.13691 5.48999 9.72783 5.48999 10.31V13.7C5.48999 14.2796 5.69085 14.8699 5.97964 15.3613C6.26791 15.8518 6.68608 16.3157 7.19738 16.5965L10.3946 18.3749C10.8748 18.6432 11.4592 18.755 12.0013 18.755C12.544 18.755 13.1289 18.6429 13.6118 18.377L13.6146 18.3754L16.8142 16.5956C17.319 16.3152 17.7365 15.8523 18.0257 15.3627C18.315 14.8731 18.52 14.2822 18.52 13.7V10.3C18.52 9.72039 18.3191 9.13016 18.0304 8.63875C17.7421 8.14825 17.3239 7.68434 16.8126 7.40349L13.6146 5.62457L13.6118 5.62304ZM11.1331 6.94059C11.3313 6.82694 11.6444 6.74724 12.0033 6.74625C12.3609 6.74526 12.68 6.82267 12.887 6.9363L12.8882 6.93696L16.0854 8.71544L16.0896 8.71773C16.1809 8.76778 16.2764 8.83916 16.3704 8.92889L11.9998 11.4632L7.64303 8.9395C7.7378 8.84836 7.83365 8.77594 7.92458 8.72543L11.1246 6.94548L11.1331 6.94059ZM6.99011 10.2948L6.98999 10.31V13.7C6.98999 13.9504 7.08414 14.2801 7.27285 14.6012C7.46167 14.9225 7.70271 15.163 7.9204 15.2823L7.92458 15.2846L11.1259 17.0653C11.1633 17.0862 11.2049 17.106 11.25 17.1243V12.7623L6.99011 10.2948ZM12.75 17.1272C12.7998 17.1077 12.8456 17.0864 12.887 17.0637L12.8882 17.063L16.0854 15.2846C16.3007 15.165 16.5435 14.9227 16.7343 14.5998C16.925 14.2769 17.02 13.9478 17.02 13.7V10.3L17.0199 10.2862L12.75 12.7621V17.1272ZM22 14.25C22.4142 14.25 22.75 14.5858 22.75 15C22.75 19.2842 19.2842 22.75 15 22.75C14.7298 22.75 14.4805 22.6047 14.3474 22.3695C14.2142 22.1344 14.2179 21.8458 14.3569 21.6141L15.4069 19.8641C15.62 19.5089 16.0807 19.3938 16.4359 19.6069C16.791 19.82 16.9062 20.2807 16.6931 20.6359L16.4218 21.0881C19.1909 20.4456 21.25 17.9666 21.25 15C21.25 14.5858 21.5858 14.25 22 14.25Z" fill="#424B5A"/>
</svg>
