<svg width="24" height="24" viewBox="0 0 24 24" fill="none" xmlns="http://www.w3.org/2000/svg">
<path fill-rule="evenodd" clip-rule="evenodd" d="M9 1.25C6.42603 1.25 4.42914 1.7602 3.09467 3.09467C1.7602 4.42914 1.25 6.42603 1.25 9V15C1.25 17.574 1.7602 19.5709 3.09467 20.9053C4.42914 22.2398 6.42603 22.75 9 22.75H15C17.574 22.75 19.5709 22.2398 20.9053 20.9053C22.2398 19.5709 22.75 17.574 22.75 15V9C22.75 6.42603 22.2398 4.42914 20.9053 3.09467C19.5709 1.7602 17.574 1.25 15 1.25H9ZM2.75 9C2.75 6.57397 3.2398 5.07086 4.15533 4.15533C5.07086 3.2398 6.57397 2.75 9 2.75H15C17.426 2.75 18.9291 3.2398 19.8447 4.15533C20.7602 5.07086 21.25 6.57397 21.25 9V15C21.25 17.426 20.7602 18.9291 19.8447 19.8447C18.9291 20.7602 17.426 21.25 15 21.25H9C6.57397 21.25 5.07086 20.7602 4.15533 19.8447C3.2398 18.9291 2.75 17.426 2.75 15V9ZM6.99011 10.2948C6.99003 10.2999 6.98999 10.305 6.98999 10.31V13.7C6.98999 13.9504 7.08414 14.2801 7.27285 14.6012C7.46167 14.9225 7.70271 15.163 7.9204 15.2823L7.92458 15.2846L11.1259 17.0653C11.1633 17.0862 11.2049 17.106 11.25 17.1243V12.7623L6.99011 10.2948ZM12.75 17.1272C12.7998 17.1077 12.8456 17.0864 12.887 17.0637L12.8882 17.063L16.0854 15.2846C16.3007 15.165 16.5435 14.9227 16.7343 14.5998C16.925 14.2769 17.02 13.9478 17.02 13.7V10.3C17.02 10.2954 17.02 10.2908 17.0199 10.2862L12.75 12.7621V17.1272ZM16.3704 8.92889C16.2764 8.83916 16.1809 8.76778 16.0896 8.71773L16.0854 8.71544L12.8882 6.93696L12.887 6.9363C12.68 6.82267 12.3609 6.74526 12.0033 6.74625C11.6444 6.74724 11.3313 6.82694 11.1331 6.94059L11.1246 6.94548L7.92458 8.72543C7.83365 8.77594 7.7378 8.84836 7.64303 8.9395L11.9998 11.4632L16.3704 8.92889ZM13.6118 5.62304C13.1288 5.35704 12.5434 5.24475 11.9992 5.24625C11.4574 5.24776 10.8725 5.36233 10.3915 5.63674L7.19542 7.41458C6.69083 7.69501 6.27345 8.15776 5.98426 8.64727C5.69499 9.13691 5.48999 9.72783 5.48999 10.31V13.7C5.48999 14.2796 5.69085 14.8699 5.97964 15.3613C6.26791 15.8518 6.68608 16.3157 7.19738 16.5965L10.3946 18.3749C10.8748 18.6432 11.4592 18.755 12.0013 18.755C12.544 18.755 13.1289 18.6429 13.6118 18.377L13.6146 18.3754L16.8142 16.5956C17.319 16.3152 17.7365 15.8523 18.0257 15.3627C18.315 14.8731 18.52 14.2822 18.52 13.7V10.3C18.52 9.72039 18.3191 9.13016 18.0304 8.63875C17.7421 8.14825 17.3239 7.68434 16.8126 7.40349L13.6146 5.62457L13.6118 5.62304Z" fill="#424B5A"/>
</svg>
