<svg width="24" height="24" viewBox="0 0 24 24" fill="none" xmlns="http://www.w3.org/2000/svg">
<path fill-rule="evenodd" clip-rule="evenodd" d="M11.4346 2.92072L11.4336 2.92129L4.92612 6.42992C4.82616 6.48385 4.75003 6.60029 4.75003 6.76484C4.75003 6.9294 4.82616 7.04584 4.92612 7.09977L11.4336 10.6084L11.4347 10.609C11.7932 10.8001 12.2069 10.8001 12.5653 10.609L12.5665 10.6084L19.0739 7.09977C19.1738 7.0458 19.25 6.92931 19.25 6.76484C19.25 6.60037 19.174 6.48397 19.0741 6.43L12.5665 2.92129L12.5654 2.9207C12.2069 2.72955 11.7931 2.72956 11.4346 2.92072ZM10.7265 1.5984C11.5274 1.17033 12.4727 1.17033 13.2736 1.5984L13.276 1.59968L19.786 5.10969C21.0712 5.80302 21.0713 7.72658 19.7861 8.41992L13.276 11.93L13.2736 11.9313C12.4727 12.3594 11.5274 12.3594 10.7265 11.9313L10.7241 11.93L4.21409 8.42C2.92888 7.72666 2.92873 5.80311 4.21394 5.10977L10.7265 1.5984ZM20.0547 9.45887C21.287 8.8427 22.7501 9.72509 22.7501 11.1197V16.8397C22.7501 17.9667 22.1072 18.993 21.1091 19.4987L21.1059 19.5003L15.0559 22.5303C13.8236 23.1465 12.3601 22.2643 12.3601 20.8697V15.1497C12.3601 14.0226 13.0029 12.9964 14.0011 12.4907L14.0042 12.4891L20.0547 9.45887ZM20.7255 10.8005L14.6777 13.8294C14.1767 14.0839 13.8601 14.5973 13.8601 15.1497V20.8697C13.8601 21.1349 14.1367 21.3125 14.3842 21.1891L20.4311 18.1607L20.4327 18.1599C20.9336 17.9054 21.2501 17.3921 21.2501 16.8397V11.1197C21.2501 10.8544 20.9731 10.6769 20.7255 10.8005ZM1.30005 10.9335C1.30005 9.48411 2.76312 8.56706 3.99546 9.20744L10.0459 12.3567L10.049 12.3584C11.0472 12.884 11.69 13.9506 11.69 15.1219V21.0667C11.69 22.5161 10.2265 23.4329 8.99419 22.7925L2.94419 19.6435L2.94108 19.6418C1.9429 19.1162 1.30005 18.0496 1.30005 16.8783V10.9335ZM9.37246 13.7497L3.32464 10.6018C3.07703 10.4733 2.80005 10.6578 2.80005 10.9335V16.8783C2.80005 17.4524 3.11655 17.9859 3.61749 18.2504L3.61902 18.2512L9.6659 21.3986C9.91345 21.5269 10.19 21.3423 10.19 21.0667V15.1219C10.19 14.5477 9.87349 14.0142 9.37246 13.7497Z" fill="#424B5A"/>
</svg>
