<svg width="24" height="24" viewBox="0 0 24 24" fill="none" xmlns="http://www.w3.org/2000/svg">
<path fill-rule="evenodd" clip-rule="evenodd" d="M2.75 10C2.75 7.99464 3.01884 7.04182 3.53033 6.53033C4.04182 6.01884 4.99464 5.75 7 5.75H13C15.0054 5.75 15.9582 6.01884 16.4697 6.53033C16.9812 7.04182 17.25 7.99464 17.25 10V14C17.25 16.0054 16.9812 16.9582 16.4697 17.4697C15.9582 17.9812 15.0054 18.25 13 18.25H7C4.99464 18.25 4.04182 17.9812 3.53033 17.4697C3.01884 16.9582 2.75 16.0054 2.75 14V10ZM7 4.25C5.00536 4.25 3.45818 4.48116 2.46967 5.46967C1.48116 6.45818 1.25 8.00536 1.25 10V14C1.25 15.9946 1.48116 17.5418 2.46967 18.5303C3.45818 19.5188 5.00536 19.75 7 19.75H13C14.9946 19.75 16.5418 19.5188 17.5303 18.5303C18.5188 17.5418 18.75 15.9946 18.75 14V10C18.75 8.00536 18.5188 6.45818 17.5303 5.46967C16.5418 4.48116 14.9946 4.25 13 4.25H7ZM20.5 8.75C20.0858 8.75 19.75 9.08579 19.75 9.5C19.75 9.91421 20.0858 10.25 20.5 10.25C20.8433 10.25 21.0426 10.2798 21.1541 10.3128C21.182 10.3211 21.2008 10.3284 21.2129 10.3339C21.2181 10.3517 21.2257 10.3839 21.2324 10.4368C21.2488 10.5682 21.25 10.7356 21.25 11V13C21.25 13.2644 21.2488 13.4318 21.2324 13.5632C21.2257 13.6161 21.2181 13.6483 21.2129 13.6661C21.2008 13.6716 21.182 13.6789 21.1541 13.6872C21.0426 13.7202 20.8433 13.75 20.5 13.75C20.0858 13.75 19.75 14.0858 19.75 14.5C19.75 14.9142 20.0858 15.25 20.5 15.25C21.2564 15.25 21.9868 15.1426 22.4125 14.575C22.6168 14.3026 22.6895 13.9997 22.7208 13.7493C22.7501 13.5147 22.75 13.2554 22.75 13.0261V13.0261L22.75 13V11L22.75 10.9739V10.9739C22.75 10.7446 22.7501 10.4853 22.7208 10.2507C22.6895 10.0003 22.6168 9.69744 22.4125 9.425C21.9868 8.8574 21.2564 8.75 20.5 8.75ZM21.2311 10.3439C21.231 10.3439 21.2299 10.3432 21.2279 10.3417C21.2303 10.3431 21.2312 10.3439 21.2311 10.3439ZM21.2279 13.6583C21.2303 13.6569 21.2312 13.6561 21.2311 13.6561L21.2297 13.6569L21.2279 13.6583ZM7.10728 9.81697C7.0061 9.41531 6.59846 9.17172 6.19679 9.2729C5.79513 9.37408 5.55154 9.78172 5.65272 10.1834C5.95243 11.3731 5.95243 12.6272 5.65272 13.817C5.55154 14.2186 5.79513 14.6263 6.19679 14.7275C6.59846 14.8286 7.0061 14.5851 7.10728 14.1834C7.46757 12.7531 7.46757 11.2472 7.10728 9.81697ZM9.69679 9.2729C10.0985 9.17172 10.5061 9.41531 10.6073 9.81697C10.9676 11.2472 10.9676 12.7531 10.6073 14.1834C10.5061 14.5851 10.0985 14.8286 9.69679 14.7275C9.29513 14.6263 9.05154 14.2186 9.15272 13.817C9.45243 12.6272 9.45243 11.3731 9.15272 10.1834C9.05154 9.78172 9.29513 9.37408 9.69679 9.2729Z" fill="#424B5A"/>
</svg>
