<svg width="24" height="24" viewBox="0 0 24 24" fill="none" xmlns="http://www.w3.org/2000/svg">
<path fill-rule="evenodd" clip-rule="evenodd" d="M9 1.25C6.42603 1.25 4.42914 1.7602 3.09467 3.09467C1.7602 4.42914 1.25 6.42603 1.25 9V15C1.25 17.574 1.7602 19.5709 3.09467 20.9053C4.42914 22.2398 6.42603 22.75 9 22.75H15C17.574 22.75 19.5709 22.2398 20.9053 20.9053C22.2398 19.5709 22.75 17.574 22.75 15V9C22.75 6.42603 22.2398 4.42914 20.9053 3.09467C19.5709 1.7602 17.574 1.25 15 1.25H9ZM2.75 9C2.75 6.57397 3.2398 5.07086 4.15533 4.15533C5.07086 3.2398 6.57397 2.75 9 2.75H15C17.426 2.75 18.9291 3.2398 19.8447 4.15533C20.7602 5.07086 21.25 6.57397 21.25 9V15C21.25 17.426 20.7602 18.9291 19.8447 19.8447C18.9291 20.7602 17.426 21.25 15 21.25H9C6.57397 21.25 5.07086 20.7602 4.15533 19.8447C3.2398 18.9291 2.75 17.426 2.75 15V9ZM17.2628 9.96949C17.5165 9.64212 17.4569 9.17101 17.1295 8.91724C16.8021 8.66347 16.331 8.72314 16.0772 9.05051L13.7702 12.0267C13.6851 12.1322 13.5244 12.1545 13.4104 12.0679L11.5838 10.6306L11.5786 10.6265C10.8117 10.0339 9.71045 10.1728 9.11654 10.9414L6.73582 14.0323C6.48306 14.3605 6.54419 14.8314 6.87234 15.0842C7.2005 15.3369 7.67143 15.2758 7.92418 14.9477L10.3037 11.8583C10.3894 11.7477 10.5468 11.7264 10.6596 11.8121L12.4862 13.2494L12.4914 13.2535C13.2566 13.8447 14.3535 13.7075 14.9483 12.9552L17.2628 9.96949Z" fill="#424B5A"/>
</svg>
