<svg width="24" height="24" viewBox="0 0 24 24" fill="none" xmlns="http://www.w3.org/2000/svg">
<path fill-rule="evenodd" clip-rule="evenodd" d="M2.75 5.43C2.75 4.39978 3.006 3.76716 3.38658 3.38658C3.76716 3.006 4.39978 2.75 5.43 2.75H10C11.0302 2.75 11.6628 3.006 12.0434 3.38658C12.424 3.76716 12.68 4.39978 12.68 5.43C12.68 5.84421 13.0158 6.18 13.43 6.18C13.8442 6.18 14.18 5.84421 14.18 5.43C14.18 4.17022 13.866 3.08784 13.1041 2.32592C12.3422 1.564 11.2598 1.25 10 1.25H5.43C4.17022 1.25 3.08784 1.564 2.32592 2.32592C1.564 3.08784 1.25 4.17022 1.25 5.43V12.57C1.25 13.8298 1.564 14.9122 2.32592 15.6741C3.08784 16.436 4.17022 16.75 5.43 16.75H8C8.41421 16.75 8.75 16.4142 8.75 16C8.75 15.5858 8.41421 15.25 8 15.25H5.43C4.39978 15.25 3.76716 14.994 3.38658 14.6134C3.006 14.2328 2.75 13.6002 2.75 12.57V5.43ZM11.32 11.43C11.32 10.3998 11.576 9.76716 11.9566 9.38658C12.3372 9.006 12.9698 8.75 14 8.75H18.57C19.6002 8.75 20.2328 9.006 20.6134 9.38658C20.994 9.76716 21.25 10.3998 21.25 11.43V18.57C21.25 19.6002 20.994 20.2328 20.6134 20.6134C20.2328 20.994 19.6002 21.25 18.57 21.25H14C12.9698 21.25 12.3372 20.994 11.9566 20.6134C11.576 20.2328 11.32 19.6002 11.32 18.57V11.43ZM14 7.25C12.7402 7.25 11.6578 7.564 10.8959 8.32592C10.134 9.08784 9.82 10.1702 9.82 11.43V18.57C9.82 19.8298 10.134 20.9122 10.8959 21.6741C11.6578 22.436 12.7402 22.75 14 22.75H18.57C19.8298 22.75 20.9122 22.436 21.6741 21.6741C22.436 20.9122 22.75 19.8298 22.75 18.57V11.43C22.75 10.1702 22.436 9.08784 21.6741 8.32592C20.9122 7.564 19.8298 7.25 18.57 7.25H14ZM14.12 15C14.12 14.5858 14.4558 14.25 14.87 14.25H15.75V13.37C15.75 12.9558 16.0858 12.62 16.5 12.62C16.9142 12.62 17.25 12.9558 17.25 13.37V14.25H18.13C18.5442 14.25 18.88 14.5858 18.88 15C18.88 15.4142 18.5442 15.75 18.13 15.75H17.25V16.63C17.25 17.0442 16.9142 17.38 16.5 17.38C16.0858 17.38 15.75 17.0442 15.75 16.63V15.75H14.87C14.4558 15.75 14.12 15.4142 14.12 15Z" fill="#424B5A"/>
</svg>
