<svg width="24" height="24" viewBox="0 0 24 24" fill="none" xmlns="http://www.w3.org/2000/svg">
<path fill-rule="evenodd" clip-rule="evenodd" d="M12 1.25C6.73574 1.25 2.45996 5.52576 2.45996 10.79C2.45996 13.5471 3.63321 16.0342 5.51072 17.7706C5.81482 18.0518 6.28933 18.0333 6.57057 17.7292C6.85182 17.4251 6.83329 16.9506 6.5292 16.6694C4.94671 15.2058 3.95996 13.1129 3.95996 10.79C3.95996 6.35419 7.56417 2.75 12 2.75C16.4363 2.75 20.0399 6.34475 20.0399 10.79C20.0399 13.1031 19.0629 15.1777 17.4975 16.6424C17.1951 16.9254 17.1793 17.4 17.4623 17.7024C17.7453 18.0049 18.2199 18.0207 18.5224 17.7377C20.377 16.0023 21.5399 13.5368 21.5399 10.79C21.5399 5.51521 17.2636 1.25 12 1.25ZM14.8599 11.5122C15.378 9.32929 13.4595 7.41118 11.2764 7.93031L11.2764 7.93029L11.2703 7.93181C10.2297 8.18856 9.38854 9.02982 9.13179 10.0703L9.13176 10.0703L9.1303 10.0765C8.61106 12.2599 10.53 14.1789 12.7135 13.6596L12.7135 13.6596L12.7174 13.6587C13.7663 13.4032 14.6139 12.5621 14.8599 11.5122ZM13.4003 11.1665C13.6608 10.071 12.7218 9.13067 11.6266 9.38887C11.1295 9.5128 10.7128 9.92949 10.5889 10.4267C10.3308 11.5212 11.2698 12.4597 12.3644 12.2008C12.8741 12.0758 13.2854 11.658 13.3996 11.1693L13.4003 11.1665ZM12 6.04999C9.38416 6.04999 7.25995 8.17419 7.25995 10.79C7.25995 12.0504 7.7511 13.1891 8.54676 14.0367C8.83026 14.3387 8.81527 14.8133 8.51328 15.0968C8.21129 15.3803 7.73665 15.3653 7.45315 15.0633C6.40881 13.9509 5.75995 12.4496 5.75995 10.79C5.75995 7.34576 8.55574 4.54999 12 4.54999C15.4442 4.54999 18.24 7.34576 18.24 10.79C18.24 12.4516 17.5897 13.941 16.5494 15.0605C16.2674 15.364 15.7928 15.3814 15.4894 15.0994C15.186 14.8174 15.1686 14.3429 15.4506 14.0394C16.2502 13.179 16.74 12.0483 16.74 10.79C16.74 8.17419 14.6157 6.04999 12 6.04999ZM15.7128 17.978L14.2764 16.1924C13.1141 14.723 10.8827 14.7291 9.71474 16.1909L8.27558 17.9799L8.27351 17.9825C6.74423 19.9008 8.09788 22.74 10.56 22.74H13.43C15.8836 22.74 17.2637 19.8947 15.7136 17.979L15.7128 17.978ZM10.8861 17.1278C11.4576 16.4118 12.5432 16.4173 13.1012 17.1245L14.5456 18.9201L14.5471 18.922C15.2957 19.8464 14.6358 21.24 13.43 21.24H10.56C9.36254 21.24 8.69625 19.8604 9.44547 18.9187L10.8843 17.1301L10.8861 17.1278Z" fill="#424B5A"/>
</svg>
