<svg width="24" height="24" viewBox="0 0 24 24" fill="none" xmlns="http://www.w3.org/2000/svg">
<path fill-rule="evenodd" clip-rule="evenodd" d="M11.1846 1.63917C11.6957 1.3836 12.2943 1.3836 12.8054 1.63917L12.8118 1.64235C13.3801 1.9333 13.8559 2.4275 14.1879 2.96428C14.5196 3.50066 14.75 4.14832 14.75 4.78999V7.62727L20.1839 9.96998C20.6601 10.1708 21.046 10.5429 21.3096 10.9449C21.5742 11.3483 21.76 11.849 21.76 12.36V13.65C21.76 14.2555 21.5258 14.838 21.0098 15.1761C20.4948 15.5135 19.8683 15.4967 19.3146 15.2594L19.3127 15.2586L14.75 13.2885V15.7559C14.7502 15.7581 14.7512 15.7655 14.754 15.7781C14.7588 15.7989 14.7669 15.8249 14.7783 15.8523C14.7898 15.8798 14.802 15.9024 14.8121 15.9181C14.8158 15.9239 14.8186 15.9276 14.8201 15.9296C14.8239 15.9333 14.8277 15.9371 14.8315 15.9408L17.1003 18.2197C17.1001 18.2195 17.1005 18.2199 17.1003 18.2197C17.3428 18.4625 17.4848 18.7782 17.5516 19.0646C17.6181 19.3495 17.6313 19.694 17.5209 20.0189L17.0791 21.3545C16.7332 22.3576 15.5852 22.8361 14.6346 22.3608C14.5818 22.3344 14.5323 22.3019 14.4872 22.2639L12.1519 20.2995C12.0827 20.2402 11.9172 20.2402 11.8481 20.2994L11.8428 20.304L9.51279 22.2639C9.46903 22.3007 9.42121 22.3324 9.37025 22.3584C8.41144 22.8465 7.24825 22.3621 6.92605 21.3398L6.48848 20.0172C6.48839 20.0169 6.48856 20.0174 6.48848 20.0172C6.38032 19.6921 6.39075 19.3486 6.45861 19.0597C6.52632 18.7715 6.66887 18.4607 6.90914 18.2202C6.90897 18.2204 6.90931 18.22 6.90914 18.2202L9.1748 15.9445C9.17645 15.9423 9.17995 15.9375 9.18492 15.9294C9.19585 15.9118 9.20863 15.8872 9.22051 15.8581C9.23237 15.829 9.24075 15.8017 9.24571 15.7798C9.24881 15.7661 9.24975 15.7582 9.24999 15.756V13.2885L4.68729 15.2586L4.68543 15.2594C4.13172 15.4967 3.50519 15.5135 2.99022 15.1761C2.47414 14.838 2.23999 14.2555 2.23999 13.65V12.36C2.23999 11.8491 2.42572 11.348 2.69111 10.945C2.95437 10.5452 3.34086 10.1743 3.82007 9.97825L9.23999 7.63739V4.79999C9.23999 4.15886 9.47006 3.50922 9.80113 2.97087C10.1323 2.43226 10.6082 1.9342 11.1782 1.64238L11.1846 1.63917ZM11.858 2.97952C11.5891 3.11834 11.3016 3.3944 11.0789 3.75662C10.8549 4.12077 10.74 4.50113 10.74 4.79999V7.79999C10.74 8.07186 10.6402 8.31047 10.5269 8.48294C10.414 8.65479 10.2361 8.83969 9.9906 8.94711L9.98737 8.94853L4.40736 11.3585L4.39047 11.3656C4.25404 11.4206 4.08388 11.5574 3.94387 11.77C3.80426 11.982 3.73999 12.2009 3.73999 12.36V13.65C3.73999 13.7672 3.76197 13.8387 3.77934 13.8758C3.79568 13.9105 3.80959 13.9197 3.81226 13.9214C3.81504 13.9232 3.8297 13.9327 3.86949 13.9339C3.91151 13.9352 3.98643 13.9268 4.0937 13.881C4.09341 13.8811 4.09398 13.8809 4.0937 13.881L8.99905 11.763C9.36479 11.6011 9.81748 11.5778 10.2043 11.8319C10.5912 12.0861 10.75 12.5113 10.75 12.91V15.76C10.75 15.9996 10.6866 16.2353 10.6095 16.4244C10.5329 16.6122 10.4129 16.8274 10.2413 16.9994C10.241 16.9997 10.2406 17 10.2403 17.0003L7.97148 19.2792C7.97152 19.2792 7.96322 19.2885 7.95222 19.3098C7.93977 19.3339 7.92753 19.3659 7.91887 19.4028C7.91021 19.4396 7.90682 19.4741 7.90725 19.5023C7.90764 19.5283 7.91114 19.5414 7.9115 19.5428C7.91154 19.5429 7.91154 19.5429 7.9115 19.5428L7.91204 19.5444L8.35641 20.8877C8.39221 21.003 8.51285 21.0725 8.63505 21.0422L10.8749 19.158C11.5049 18.6207 12.4951 18.6207 13.1251 19.158L15.361 21.0388C15.4791 21.0649 15.6123 21.0017 15.6599 20.8686L16.0999 19.5384C16.1004 19.5363 16.1024 19.5259 16.1027 19.5064C16.1031 19.479 16.0998 19.4438 16.0909 19.4054C16.0819 19.3671 16.0693 19.3337 16.0564 19.3086C16.0462 19.2886 16.0389 19.2798 16.0383 19.279C16.0383 19.279 16.0383 19.279 16.0383 19.279L13.7753 17.006C13.5961 16.8336 13.4726 16.6181 13.3941 16.4302C13.3136 16.2373 13.25 16.0001 13.25 15.76V12.91C13.25 12.5178 13.402 12.0905 13.7935 11.8347C14.1809 11.5815 14.629 11.6102 14.9847 11.7561L14.9973 11.7613L19.9054 13.8806C19.9057 13.8808 19.9061 13.8809 19.9064 13.881C20.0136 13.9269 20.0885 13.9352 20.1305 13.9339C20.1703 13.9327 20.1849 13.9232 20.1877 13.9214C20.1904 13.9197 20.2043 13.9105 20.2206 13.8758C20.238 13.8387 20.26 13.7672 20.26 13.65V12.36C20.26 12.201 20.1958 11.9817 20.0553 11.7676C19.9147 11.5532 19.7419 11.4112 19.5999 11.3516L19.5931 11.3487L13.9994 8.93712C13.7538 8.8297 13.5759 8.64479 13.4631 8.47294C13.3498 8.30047 13.25 8.06186 13.25 7.78999V4.78999C13.25 4.49167 13.1354 4.11433 12.9121 3.7532C12.6901 3.39413 12.4025 3.11919 12.132 2.97952C12.0446 2.93682 11.9454 2.93682 11.858 2.97952Z" fill="#424B5A"/>
</svg>
