<svg width="24" height="24" viewBox="0 0 24 24" fill="none" xmlns="http://www.w3.org/2000/svg">
<path fill-rule="evenodd" clip-rule="evenodd" d="M3.4753 6.26382C3.64916 4.71783 4.07627 3.9394 4.76995 3.48266C5.53062 2.9818 6.77267 2.75 8.88 2.75H15.13C17.2321 2.75 18.4743 2.98175 19.235 3.48266C19.9284 3.93918 20.3554 4.71713 20.5244 6.26158C20.5255 6.2709 20.5267 6.2802 20.528 6.28947C20.6067 6.82251 20.6285 7.44065 20.6299 8.17H17.7764C17.6441 7.70267 17.3911 7.28378 17.0504 6.94963C16.5424 6.43179 15.8328 6.12 15.07 6.12H8.92C7.63547 6.12 6.55052 6.98893 6.22194 8.17H3.37011C3.37215 7.45005 3.40218 6.82228 3.47363 6.27753L3.47375 6.27754L3.4753 6.26382ZM6.22139 9.67H3.37V15.75C3.37 16.5042 3.39966 17.1536 3.48222 17.7223C3.48347 17.7309 3.48457 17.7395 3.48552 17.7482C3.65441 19.287 4.08106 20.0626 4.77438 20.5182C5.53538 21.0183 6.77799 21.25 8.88 21.25H15.12C17.2272 21.25 18.4697 21.0183 19.2306 20.5182C19.9243 20.0624 20.351 19.2863 20.5247 17.7459L20.5261 17.734L20.5262 17.734C20.6005 17.158 20.63 16.5031 20.63 15.75V9.67H17.778C17.4495 10.8511 16.3645 11.72 15.08 11.72H8.92C8.15718 11.72 7.44762 11.4082 6.93971 10.8904C6.6023 10.5597 6.35179 10.1403 6.22139 9.67ZM16.38 8.92C16.38 9.63579 15.7958 10.22 15.08 10.22H8.92C8.56636 10.22 8.23897 10.0747 8.00735 9.83679L7.99301 9.82246C7.76589 9.60148 7.62 9.28443 7.62 8.92C7.62 8.20421 8.20421 7.62 8.92 7.62H15.07C15.4236 7.62 15.751 7.76533 15.9826 8.00321L15.9968 8.01735C16.2376 8.25181 16.38 8.57032 16.38 8.92ZM8.88 1.25C6.75732 1.25 5.10938 1.4632 3.94504 2.22984C2.71534 3.03953 2.18222 4.34874 1.98547 6.08934C1.90023 6.7427 1.87 7.4663 1.87 8.25V15.75C1.87 16.5307 1.89994 17.257 1.9959 17.9247C2.18823 19.6595 2.72198 20.9644 3.95061 21.7718C5.11461 22.5367 6.76201 22.75 8.88 22.75H15.12C17.2428 22.75 18.8903 22.5367 20.0544 21.7718C21.2843 20.9635 21.8178 19.6567 22.0146 17.92C22.0997 17.2577 22.13 16.5346 22.13 15.75V8.25C22.13 7.47972 22.1107 6.74842 22.014 6.08456C21.8217 4.34592 21.2883 3.03867 20.0599 2.22984C18.8957 1.46325 17.2479 1.25 15.13 1.25H8.88Z" fill="#424B5A"/>
</svg>
