<svg width="24" height="24" viewBox="0 0 24 24" fill="none" xmlns="http://www.w3.org/2000/svg">
<path fill-rule="evenodd" clip-rule="evenodd" d="M12.75 2C12.75 1.58579 12.4142 1.25 12 1.25C11.5858 1.25 11.25 1.58579 11.25 2V3C11.25 3.41421 11.5858 3.75 12 3.75C12.4142 3.75 12.75 3.41421 12.75 3V2ZM2.25 15C2.25 9.61579 6.61579 5.25 12 5.25C17.3842 5.25 21.75 9.61579 21.75 15V21.25H22C22.4142 21.25 22.75 21.5858 22.75 22C22.75 22.4142 22.4142 22.75 22 22.75H21H3H2C1.58579 22.75 1.25 22.4142 1.25 22C1.25 21.5858 1.58579 21.25 2 21.25H2.25V15ZM20.25 15V21.25H3.75V15C3.75 10.4442 7.44421 6.75 12 6.75C16.5558 6.75 20.25 10.4442 20.25 15ZM3.46967 3.46967C3.76256 3.17678 4.23744 3.17678 4.53033 3.46967L5.53033 4.46967C5.82322 4.76256 5.82322 5.23744 5.53033 5.53033C5.23744 5.82322 4.76256 5.82322 4.46967 5.53033L3.46967 4.53033C3.17678 4.23744 3.17678 3.76256 3.46967 3.46967ZM20.5303 4.53033C20.8232 4.23744 20.8232 3.76256 20.5303 3.46967C20.2374 3.17678 19.7626 3.17678 19.4697 3.46967L18.4697 4.46967C18.1768 4.76256 18.1768 5.23744 18.4697 5.53033C18.7626 5.82322 19.2374 5.82322 19.5303 5.53033L20.5303 4.53033Z" fill="#424B5A"/>
</svg>
