<svg width="24" height="24" viewBox="0 0 24 24" fill="none" xmlns="http://www.w3.org/2000/svg">
<path fill-rule="evenodd" clip-rule="evenodd" d="M3.28033 3.28033C2.97059 3.59007 2.75 4.11561 2.75 5V7C2.75 7.88439 2.97059 8.40993 3.28033 8.71967C3.59007 9.02941 4.11561 9.25 5 9.25H19C19.8844 9.25 20.4099 9.02941 20.7197 8.71967C21.0294 8.40993 21.25 7.88439 21.25 7V5C21.25 4.11561 21.0294 3.59007 20.7197 3.28033C20.4099 2.97059 19.8844 2.75 19 2.75H5C4.11561 2.75 3.59007 2.97059 3.28033 3.28033ZM2.21967 2.21967C2.90993 1.52941 3.88439 1.25 5 1.25H19C20.1156 1.25 21.0901 1.52941 21.7803 2.21967C22.4706 2.90993 22.75 3.88439 22.75 5V7C22.75 8.11561 22.4706 9.09007 21.7803 9.78033C21.3634 10.1973 20.8428 10.4643 20.25 10.6104V19C20.25 20.0133 20.1363 21.0189 19.5019 21.7439C18.8459 22.4937 17.8147 22.75 16.5 22.75H7.5C6.18533 22.75 5.15413 22.4937 4.49807 21.7439C3.86368 21.0189 3.75 20.0133 3.75 19V10.6104C3.15722 10.4643 2.6366 10.1973 2.21967 9.78033C1.52941 9.09007 1.25 8.11561 1.25 7V5C1.25 3.88439 1.52941 2.90993 2.21967 2.21967ZM5.25 10.75H18.75V19C18.75 19.9867 18.6137 20.4811 18.3731 20.7561C18.1541 21.0063 17.6853 21.25 16.5 21.25H7.5C6.31467 21.25 5.84587 21.0063 5.62693 20.7561C5.38632 20.4811 5.25 19.9867 5.25 19V10.75ZM10.18 13.25C9.76579 13.25 9.43 13.5858 9.43 14C9.43 14.4142 9.76579 14.75 10.18 14.75H13.82C14.2342 14.75 14.57 14.4142 14.57 14C14.57 13.5858 14.2342 13.25 13.82 13.25H10.18Z" fill="#424B5A"/>
</svg>
