<svg width="24" height="24" viewBox="0 0 24 24" fill="none" xmlns="http://www.w3.org/2000/svg">
<path fill-rule="evenodd" clip-rule="evenodd" d="M3.09467 3.09467C4.42914 1.7602 6.42603 1.25 9 1.25H15C17.574 1.25 19.5709 1.7602 20.9053 3.09467C22.2398 4.42914 22.75 6.42603 22.75 9V15C22.75 17.574 22.2398 19.5709 20.9053 20.9053C19.5709 22.2398 17.574 22.75 15 22.75H9C6.42603 22.75 4.42914 22.2398 3.09467 20.9053C1.7602 19.5709 1.25 17.574 1.25 15V9C1.25 6.42603 1.7602 4.42914 3.09467 3.09467ZM4.15533 4.15533C3.2398 5.07086 2.75 6.57397 2.75 9V15C2.75 17.426 3.2398 18.9291 4.15533 19.8447C5.07086 20.7602 6.57397 21.25 9 21.25H15C17.426 21.25 18.9291 20.7602 19.8447 19.8447C20.7602 18.9291 21.25 17.426 21.25 15V9C21.25 6.57397 20.7602 5.07086 19.8447 4.15533C18.9291 3.2398 17.426 2.75 15 2.75H9C6.57397 2.75 5.07086 3.2398 4.15533 4.15533ZM6.60967 13.5797C6.90256 13.2868 7.37744 13.2868 7.67033 13.5797L9.43 15.3393V6.85C9.43 6.43578 9.76579 6.1 10.18 6.1C10.5942 6.1 10.93 6.43578 10.93 6.85V17.15C10.93 17.2517 10.9098 17.3487 10.8731 17.4371C10.8365 17.5255 10.7822 17.6084 10.7103 17.6803C10.5639 17.8268 10.3719 17.9 10.18 17.9C10.0783 17.9 9.98134 17.8798 9.89291 17.8431C9.80445 17.8065 9.72158 17.7522 9.64967 17.6803L6.60967 14.6403C6.31678 14.3474 6.31678 13.8726 6.60967 13.5797ZM14.1071 6.15691C14.1949 6.19324 14.2772 6.24696 14.3487 6.31808C14.3493 6.31861 14.3498 6.31914 14.3503 6.31967M14.57 8.66066L16.3297 10.4203C16.6226 10.7132 17.0974 10.7132 17.3903 10.4203C17.6832 10.1274 17.6832 9.65256 17.3903 9.35967L14.3506 6.31997M13.1269 6.56291C13.0902 6.65134 13.07 6.74831 13.07 6.85V17.15C13.07 17.5642 13.4058 17.9 13.82 17.9C14.2342 17.9 14.57 17.5642 14.57 17.15V8.66066M13.2881 6.32126C13.217 6.3928 13.1632 6.4751 13.1269 6.56291L13.2881 6.32126ZM13.2913 6.31808C13.2907 6.31861 13.2902 6.31914 13.2897 6.31967C13.2891 6.3202 13.2886 6.32073 13.2881 6.32126M13.5329 6.15691C13.4451 6.19324 13.3628 6.24696 13.2913 6.31808L13.5329 6.15691ZM14.1071 6.15691C14.0187 6.12024 13.9217 6.1 13.82 6.1C13.7183 6.1 13.6213 6.12024 13.5329 6.15691" fill="#424B5A"/>
</svg>
