<svg width="24" height="24" viewBox="0 0 24 24" fill="none" xmlns="http://www.w3.org/2000/svg">
<path fill-rule="evenodd" clip-rule="evenodd" d="M3.09467 3.09467C4.42914 1.7602 6.42603 1.25 9 1.25H15C17.574 1.25 19.5709 1.7602 20.9053 3.09467C22.2398 4.42914 22.75 6.42603 22.75 9V15C22.75 17.574 22.2398 19.5709 20.9053 20.9053C19.5709 22.2398 17.574 22.75 15 22.75H9C6.42603 22.75 4.42914 22.2398 3.09467 20.9053C1.7602 19.5709 1.25 17.574 1.25 15V9C1.25 6.42603 1.7602 4.42914 3.09467 3.09467ZM4.15533 4.15533C3.2398 5.07086 2.75 6.57397 2.75 9V15C2.75 17.426 3.2398 18.9291 4.15533 19.8447C5.07086 20.7602 6.57397 21.25 9 21.25H15C17.426 21.25 18.9291 20.7602 19.8447 19.8447C20.7602 18.9291 21.25 17.426 21.25 15V9C21.25 6.57397 20.7602 5.07086 19.8447 4.15533C18.9291 3.2398 17.426 2.75 15 2.75H9C6.57397 2.75 5.07086 3.2398 4.15533 4.15533ZM17.8431 14.1071C17.8065 14.1955 17.7522 14.2784 17.6803 14.3503L14.6403 17.3903C14.3474 17.6832 13.8726 17.6832 13.5797 17.3903C13.2868 17.0974 13.2868 16.6226 13.5797 16.3297L15.3393 14.57H6.85C6.43579 14.57 6.1 14.2342 6.1 13.82C6.1 13.4058 6.43579 13.07 6.85 13.07H17.15C17.2517 13.07 17.3487 13.0902 17.4371 13.1269C17.5255 13.1635 17.6084 13.2178 17.6803 13.2897C17.8268 13.4361 17.9 13.6281 17.9 13.82C17.9 13.9217 17.8798 14.0187 17.8431 14.1071ZM10.4203 6.60967C10.7132 6.90256 10.7132 7.37744 10.4203 7.67033L8.66066 9.43H17.15C17.5642 9.43 17.9 9.76579 17.9 10.18C17.9 10.5942 17.5642 10.93 17.15 10.93H6.85C6.74831 10.93 6.65134 10.9098 6.56291 10.8731C6.47445 10.8365 6.39158 10.7822 6.31967 10.7103C6.24776 10.6384 6.19351 10.5555 6.15691 10.4671C6.12024 10.3787 6.1 10.2817 6.1 10.18C6.1 10.0783 6.12024 9.98134 6.15691 9.89291C6.19324 9.80511 6.24696 9.7228 6.31808 9.65126C6.31861 9.65073 6.31914 9.6502 6.31967 9.64967M6.31997 9.64937L9.35967 6.60967C9.65256 6.31678 10.1274 6.31678 10.4203 6.60967" fill="#424B5A"/>
</svg>
