<svg width="24" height="24" viewBox="0 0 24 24" fill="none" xmlns="http://www.w3.org/2000/svg">
<path fill-rule="evenodd" clip-rule="evenodd" d="M17.8104 2.47944C17.5175 2.18654 17.0426 2.18654 16.7497 2.47944C16.4568 2.77233 16.4568 3.2472 16.7497 3.5401L19.1893 5.97974H3C2.58579 5.97974 2.25 6.31552 2.25 6.72974C2.25 7.14395 2.58579 7.47974 3 7.47974H19.1894L16.7497 9.91944C16.4568 10.2123 16.4568 10.6872 16.7497 10.9801C17.0426 11.273 17.5175 11.273 17.8104 10.9801L21.5303 7.26006C21.7513 7.03908 21.8056 6.7145 21.6931 6.44265L17.8104 2.47944ZM7.2503 13.0194C7.54319 13.3123 7.5432 13.7872 7.25031 14.0801L4.81064 16.5198H21C21.4142 16.5198 21.75 16.8556 21.75 17.2698C21.75 17.684 21.4142 18.0198 21 18.0198H4.81066L7.2503 20.4594C7.54319 20.7523 7.54319 21.2272 7.2503 21.5201C6.95741 21.813 6.48253 21.813 6.18964 21.5201L2.46967 17.8001C2.39776 17.7282 2.34351 17.6453 2.30691 17.5569C2.27024 17.4684 2.25 17.3715 2.25 17.2698C2.25 17.1681 2.27024 17.0711 2.30691 16.9827C2.34351 16.8942 2.39776 16.8114 2.46967 16.7394L6.18964 13.0194C6.48253 12.7265 6.9574 12.7265 7.2503 13.0194Z" fill="#424B5A"/>
</svg>
