<svg width="24" height="24" viewBox="0 0 24 24" fill="none" xmlns="http://www.w3.org/2000/svg">
<path fill-rule="evenodd" clip-rule="evenodd" d="M7.01707 2.30691C6.92864 2.27024 6.83167 2.25 6.72998 2.25C6.62829 2.25 6.53132 2.27024 6.44289 2.30691C6.35443 2.34351 6.27156 2.39776 6.19965 2.46967L2.47968 6.18964C2.18679 6.48253 2.18679 6.95741 2.47968 7.2503C2.77257 7.54319 3.24745 7.54319 3.54034 7.2503L5.97998 4.81066V21C5.97998 21.4142 6.31577 21.75 6.72998 21.75C7.14419 21.75 7.47998 21.4142 7.47998 21V4.81064L9.91969 7.25031C10.2126 7.5432 10.6875 7.54319 10.9803 7.2503C11.2732 6.9574 11.2732 6.48253 10.9803 6.18964L7.26031 2.46967C7.1884 2.39776 7.10552 2.34351 7.01707 2.30691ZM13.0197 16.7497C13.3125 16.4568 13.7874 16.4568 14.0803 16.7497L16.52 19.1894V3C16.52 2.58579 16.8558 2.25 17.27 2.25C17.6842 2.25 18.02 2.58579 18.02 3V19.1893L20.4597 16.7497C20.7526 16.4568 21.2274 16.4568 21.5203 16.7497C21.8132 17.0426 21.8132 17.5175 21.5203 17.8104L17.8004 21.5303C17.6631 21.6676 17.4858 21.7406 17.306 21.7491C17.294 21.7497 17.282 21.75 17.27 21.75C17.1683 21.75 17.0714 21.7298 16.9829 21.6931C16.8945 21.6565 16.8116 21.6022 16.7397 21.5303L13.0197 17.8104C12.7268 17.5175 12.7268 17.0426 13.0197 16.7497Z" fill="#424B5A"/>
</svg>
