<svg width="24" height="24" viewBox="0 0 24 24" fill="none" xmlns="http://www.w3.org/2000/svg">
<path fill-rule="evenodd" clip-rule="evenodd" d="M12.0152 17.25C12.7475 17.25 13.6312 16.7682 14.381 15.472L17.061 10.852C17.061 10.8519 17.0609 10.8521 17.061 10.852C17.8101 9.55668 17.7855 8.55045 17.4194 7.91621C17.0531 7.28171 16.1941 6.7575 14.7002 6.7575L9.33019 6.7575C7.83629 6.7575 6.97726 7.28171 6.61098 7.91621C6.24488 8.55039 6.22013 9.55621 6.96905 10.8514C6.96917 10.8516 6.96893 10.8512 6.96905 10.8514L9.64894 15.4712C10.3987 16.7674 11.2828 17.25 12.0152 17.25ZM8.35144 16.2238C9.26168 17.7971 10.5628 18.75 12.0152 18.75C13.4677 18.75 14.7689 17.797 15.6791 16.2235C15.6792 16.2233 15.679 16.2236 15.6791 16.2235L18.3589 11.6038C19.2696 10.0293 19.4448 8.4245 18.7185 7.16628C17.9923 5.90829 16.5163 5.2575 14.7002 5.2575L9.33019 5.2575C7.51408 5.2575 6.03811 5.90828 5.3119 7.16628C4.58556 8.4245 4.76025 10.0285 5.67096 11.603L8.35144 16.2238C8.35128 16.2236 8.3516 16.2241 8.35144 16.2238Z" fill="#424B5A"/>
</svg>
