<svg width="24" height="24" viewBox="0 0 24 24" fill="none" xmlns="http://www.w3.org/2000/svg">
<path fill-rule="evenodd" clip-rule="evenodd" d="M2.75 12C2.75 6.89137 6.89137 2.75 12 2.75C17.1086 2.75 21.25 6.89137 21.25 12C21.25 17.1086 17.1086 21.25 12 21.25C6.89137 21.25 2.75 17.1086 2.75 12ZM12 1.25C6.06294 1.25 1.25 6.06294 1.25 12C1.25 17.9371 6.06294 22.75 12 22.75C17.9371 22.75 22.75 17.9371 22.75 12C22.75 6.06294 17.9371 1.25 12 1.25ZM11.2711 7.94042C10.9786 7.64711 10.5037 7.64644 10.2104 7.93892C9.91711 8.2314 9.91644 8.70627 10.2089 8.99958L13.2008 12L10.2089 15.0004C9.91644 15.2937 9.91711 15.7686 10.2104 16.0611C10.5037 16.3536 10.9786 16.3529 11.2711 16.0596L14.7911 12.5296C15.083 12.2369 15.083 11.7631 14.7911 11.4704L11.2711 7.94042Z" fill="#424B5A"/>
</svg>
