<svg width="24" height="24" viewBox="0 0 24 24" fill="none" xmlns="http://www.w3.org/2000/svg">
<path fill-rule="evenodd" clip-rule="evenodd" d="M7.90872 6.611C7.27421 6.97728 6.75 7.83631 6.75 9.33021V14.6702C6.75 16.1691 7.27432 17.029 7.91 17.3977C8.54616 17.7666 9.55264 17.7938 10.8467 17.0597L15.4637 14.3815C16.7599 13.6317 17.2425 12.7476 17.2425 12.0152C17.2425 11.2829 16.7607 10.3992 15.4645 9.64943L10.8445 6.96943C10.8444 6.96938 10.8446 6.96949 10.8445 6.96943C9.54918 6.22032 8.54295 6.24487 7.90872 6.611ZM7.15879 5.31192C8.41701 4.58558 10.021 4.76027 11.5955 5.67098L16.2155 8.35098C16.2153 8.35088 16.2157 8.35109 16.2155 8.35098C17.7889 9.26123 18.7425 10.5627 18.7425 12.0152C18.7425 13.4676 17.7896 14.7687 16.2163 15.679M16.2163 15.679L11.5904 18.3624C10.0159 19.2566 8.41336 19.4236 7.1575 18.6953C5.90068 17.9664 5.25 16.4913 5.25 14.6702V9.33021C5.25 7.5141 5.90079 6.03813 7.15879 5.31192" fill="#424B5A"/>
</svg>
