<svg width="24" height="24" viewBox="0 0 24 24" fill="none" xmlns="http://www.w3.org/2000/svg">
<path fill-rule="evenodd" clip-rule="evenodd" d="M20.5 9.76023C20.9142 9.76023 21.25 9.42445 21.25 9.01023C21.25 8.59602 20.9142 8.26023 20.5 8.26023L5.30811 8.26023L9.04086 4.52003C9.33346 4.22685 9.33299 3.75198 9.0398 3.45938C8.74662 3.16677 8.27174 3.16725 7.97914 3.46043L2.96914 8.48043C2.8974 8.55232 2.84328 8.63513 2.80677 8.72349C2.77485 8.80057 2.75541 8.88413 2.75098 8.97164C2.75033 8.98442 2.75 8.99729 2.75 9.01023L2.75001 9.01303C2.75075 9.21661 2.8326 9.40108 2.96494 9.53579L2.97486 9.5457C3.04565 9.61516 3.12679 9.66774 3.21326 9.70347C3.29034 9.73539 3.37389 9.75482 3.4614 9.75926C3.47419 9.75991 3.48706 9.76023 3.5 9.76023L20.5 9.76023ZM21.1932 15.277C21.1567 15.3653 21.1026 15.4482 21.0309 15.52L16.0209 20.54C15.7283 20.8332 15.2534 20.8337 14.9602 20.5411C14.667 20.2485 14.6665 19.7736 14.9591 19.4804L18.6919 15.7402L3.5 15.7402C3.08579 15.7402 2.75 15.4044 2.75 14.9902C2.75 14.576 3.08579 14.2402 3.5 14.2402L20.4994 14.2402C20.5018 14.2402 20.5042 14.2402 20.5065 14.2403C20.6019 14.2411 20.6972 14.26 20.7867 14.297C20.7003 14.2612 20.6057 14.2411 20.5065 14.2403M21.25 14.9902C21.25 14.8924 21.231 14.7946 21.1929 14.7028L21.25 14.9902ZM21.1929 14.7028C21.2297 14.7913 21.25 14.8884 21.25 14.9902L21.1929 14.7028ZM21.25 14.9903C21.25 15.0919 21.2298 15.1887 21.1932 15.277L21.25 14.9903Z" fill="#424B5A"/>
</svg>
