<svg width="24" height="24" viewBox="0 0 24 24" fill="none" xmlns="http://www.w3.org/2000/svg">
<path fill-rule="evenodd" clip-rule="evenodd" d="M9 1.25C6.42603 1.25 4.42914 1.7602 3.09467 3.09467C1.7602 4.42914 1.25 6.42603 1.25 9V15C1.25 17.574 1.7602 19.5709 3.09467 20.9053C4.42914 22.2398 6.42603 22.75 9 22.75H15C17.574 22.75 19.5709 22.2398 20.9053 20.9053C22.2398 19.5709 22.75 17.574 22.75 15V9C22.75 6.42603 22.2398 4.42914 20.9053 3.09467C19.5709 1.7602 17.574 1.25 15 1.25H9ZM2.75 9C2.75 6.57397 3.2398 5.07086 4.15533 4.15533C5.07086 3.2398 6.57397 2.75 9 2.75H15C17.426 2.75 18.9291 3.2398 19.8447 4.15533C20.7602 5.07086 21.25 6.57397 21.25 9V15C21.25 17.426 20.7602 18.9291 19.8447 19.8447C18.9291 20.7602 17.426 21.25 15 21.25H9C6.57397 21.25 5.07086 20.7602 4.15533 19.8447C3.2398 18.9291 2.75 17.426 2.75 15V9ZM7.67035 7.28033C7.96324 6.98743 7.96324 6.51256 7.67034 6.21967C7.37745 5.92678 6.90257 5.92678 6.60968 6.21967L4.80969 8.01968C4.5168 8.31257 4.5168 8.78744 4.80969 9.08033L6.60968 10.8803C6.90257 11.1732 7.37745 11.1732 7.67034 10.8803C7.96324 10.5874 7.96324 10.1126 7.67035 9.81968L7.15068 9.3H7.58002C9.61427 9.3 11.2815 10.8898 11.394 12.9029C11.3913 12.9716 11.39 13.0406 11.39 13.11V15.07C11.39 15.1118 11.3934 15.1529 11.4 15.1928V17.25C11.4 17.6642 11.7358 18 12.15 18C12.5642 18 12.9 17.6642 12.9 17.25V13.12C12.9 13.0467 12.8985 12.9738 12.8956 12.9012C13.0038 10.8911 14.6656 9.28999 16.71 9.28999H16.8593L16.3297 9.81968C16.0368 10.1126 16.0368 10.5874 16.3297 10.8803C16.6226 11.1732 17.0974 11.1732 17.3903 10.8803L19.1903 9.08033L19.1953 9.07528C19.334 8.93918 19.42 8.74963 19.42 8.53999C19.42 8.28031 19.288 8.05146 19.0875 7.91684L17.3903 6.21967C17.0974 5.92678 16.6226 5.92678 16.3297 6.21967C16.0368 6.51256 16.0368 6.98743 16.3297 7.28033L16.8393 7.78999H16.71C14.7658 7.78999 13.0703 8.83002 12.1422 10.3807C11.2109 8.83268 9.51426 7.8 7.58002 7.8H7.15068L7.67035 7.28033Z" fill="#424B5A"/>
</svg>
