<svg width="24" height="24" viewBox="0 0 24 24" fill="none" xmlns="http://www.w3.org/2000/svg">
<path fill-rule="evenodd" clip-rule="evenodd" d="M12 2.75C6.89137 2.75 2.75 6.89137 2.75 12C2.75 17.1086 6.89137 21.25 12 21.25C17.1086 21.25 21.25 17.1086 21.25 12C21.25 6.89137 17.1086 2.75 12 2.75ZM1.25 12C1.25 6.06294 6.06294 1.25 12 1.25C17.9371 1.25 22.75 6.06294 22.75 12C22.75 17.9371 17.9371 22.75 12 22.75C6.06294 22.75 1.25 17.9371 1.25 12ZM12 7.75C12.4142 7.75 12.75 8.08579 12.75 8.5V13.6893L14.4697 11.9697C14.7626 11.6768 15.2374 11.6768 15.5303 11.9697C15.8232 12.2626 15.8232 12.7374 15.5303 13.0303L12.5303 16.0303C12.2374 16.3232 11.7626 16.3232 11.4697 16.0303L8.46967 13.0303C8.17678 12.7374 8.17678 12.2626 8.46967 11.9697C8.76256 11.6768 9.23744 11.6768 9.53033 11.9697L11.25 13.6893V8.5C11.25 8.08579 11.5858 7.75 12 7.75Z" fill="#424B5A"/>
</svg>
