<svg width="24" height="24" viewBox="0 0 24 24" fill="none" xmlns="http://www.w3.org/2000/svg">
<path fill-rule="evenodd" clip-rule="evenodd" d="M13.1533 6.94057L8.53634 9.61881C7.24011 10.3685 6.75751 11.2527 6.75751 11.9851C6.75751 12.7174 7.23929 13.6011 8.53552 14.3508L13.1555 17.0308C14.4506 17.7796 15.4571 17.7554 16.0913 17.3893C16.7258 17.023 17.25 16.164 17.25 14.6701V9.33006C17.25 7.83115 16.7257 6.97125 16.09 6.60261C15.4538 6.23368 14.4474 6.20651 13.1533 6.94057ZM16.8425 5.30502C18.0993 6.03387 18.75 7.50897 18.75 9.33006V14.6701C18.75 16.4862 18.0992 17.9621 16.8412 18.6884C15.583 19.4147 13.979 19.24 12.4045 18.3293L7.7845 15.6493C6.21122 14.739 5.25751 13.4375 5.25751 11.9851C5.25751 10.5326 6.21054 9.23136 7.78403 8.32111C7.78387 8.3212 7.78418 8.32102 7.78403 8.32111L12.4096 5.63787C13.9841 4.74362 15.5866 4.57672 16.8425 5.30502Z" fill="#424B5A"/>
</svg>
