<svg width="24" height="24" viewBox="0 0 24 24" fill="none" xmlns="http://www.w3.org/2000/svg">
<path fill-rule="evenodd" clip-rule="evenodd" d="M2.75 12C2.75 6.89137 6.89137 2.75 12 2.75C17.1086 2.75 21.25 6.89137 21.25 12C21.25 17.1086 17.1086 21.25 12 21.25C6.89137 21.25 2.75 17.1086 2.75 12ZM12 1.25C6.06294 1.25 1.25 6.06294 1.25 12C1.25 17.9371 6.06294 22.75 12 22.75C17.9371 22.75 22.75 17.9371 22.75 12C22.75 6.06294 17.9371 1.25 12 1.25ZM13.7911 8.99958C14.0836 8.70627 14.0829 8.2314 13.7896 7.93892C13.4963 7.64644 13.0214 7.64711 12.7289 7.94042L9.20892 11.4704C8.91703 11.7631 8.91703 12.2369 9.20892 12.5296L12.7289 16.0596C13.0214 16.3529 13.4963 16.3536 13.7896 16.0611C14.0829 15.7686 14.0836 15.2937 13.7911 15.0004L10.7992 12L13.7911 8.99958Z" fill="#424B5A"/>
</svg>
