<svg width="24" height="24" viewBox="0 0 24 24" fill="none" xmlns="http://www.w3.org/2000/svg">
<path fill-rule="evenodd" clip-rule="evenodd" d="M12.015 6.75732C11.2827 6.75732 10.399 7.2391 9.64925 8.53533L6.96925 13.1553C6.96919 13.1554 6.96931 13.1552 6.96925 13.1553C6.22014 14.4506 6.24469 15.4569 6.61082 16.0911C6.9771 16.7256 7.83613 17.2498 9.33003 17.2498H14.7C16.1939 17.2498 17.053 16.7256 17.4192 16.0911C17.7853 15.4569 17.8101 14.4511 17.0612 13.156C17.061 13.1558 17.0613 13.1562 17.0612 13.156L14.3813 8.53615C13.6315 7.23992 12.7474 6.75732 12.015 6.75732ZM15.6788 7.78349C14.7685 6.21021 13.4674 5.25732 12.015 5.25732C10.5625 5.25732 9.26132 6.21036 8.35107 7.78384C8.35098 7.784 8.35117 7.78369 8.35107 7.78384L5.67128 12.4035C4.76057 13.978 4.58539 15.5828 5.31174 16.841C6.03795 18.099 7.51392 18.7498 9.33003 18.7498H14.7C16.5161 18.7498 17.9921 18.099 18.7183 16.841C19.4447 15.5828 19.27 13.9789 18.3593 12.4043L15.6788 7.78349C15.6789 7.78377 15.6786 7.78322 15.6788 7.78349Z" fill="#424B5A"/>
</svg>
