<svg width="24" height="24" viewBox="0 0 24 24" fill="none" xmlns="http://www.w3.org/2000/svg">
<path fill-rule="evenodd" clip-rule="evenodd" d="M4.53033 1.46967C4.82322 1.76256 4.82322 2.23744 4.53033 2.53033L1.46967 3.46967L3.46967 1.46967C3.76256 1.17678 4.23744 1.17678 4.53033 1.46967ZM1.25 4C1.25 3.80806 1.32322 3.61612 1.46967 3.46967C1.33395 3.60539 1.25 3.79289 1.25 4ZM5 4.75H3.81066L3.06066 4L3.81066 3.25H5C8.09045 3.25 10.755 5.05344 12 7.6666C13.245 5.05344 15.9096 3.25 19 3.25H20.1893L19.4697 2.53033C19.1768 2.23744 19.1768 1.76256 19.4697 1.46967C19.7626 1.17678 20.2374 1.17678 20.5303 1.46967L22.5303 3.46967C22.6022 3.54158 22.6565 3.62445 22.6931 3.71291C22.7251 3.79009 22.7446 3.87376 22.749 3.96141C22.7497 3.97419 22.75 3.98706 22.75 4C22.75 4.19194 22.6768 4.38388 22.5303 4.53033L20.5303 6.53033C20.2374 6.82322 19.7626 6.82322 19.4697 6.53033C19.1768 6.23744 19.1768 5.76256 19.4697 5.46967L20.1893 4.75H19C15.5442 4.75 12.75 7.54421 12.75 11V14C12.75 14.4142 12.4142 14.75 12 14.75C11.5858 14.75 11.25 14.4142 11.25 14V11C11.25 7.54421 8.45579 4.75 5 4.75ZM12.75 16C12.75 15.5858 12.4142 15.25 12 15.25C11.5858 15.25 11.25 15.5858 11.25 16V18C11.25 18.4142 11.5858 18.75 12 18.75C12.4142 18.75 12.75 18.4142 12.75 18V16ZM12.75 20C12.75 19.5858 12.4142 19.25 12 19.25C11.5858 19.25 11.25 19.5858 11.25 20V22C11.25 22.4142 11.5858 22.75 12 22.75C12.4142 22.75 12.75 22.4142 12.75 22V20Z" fill="#424B5A"/>
</svg>
