<svg width="24" height="24" viewBox="0 0 24 24" fill="none" xmlns="http://www.w3.org/2000/svg">
<path fill-rule="evenodd" clip-rule="evenodd" d="M9 1.25C6.42603 1.25 4.42914 1.7602 3.09467 3.09467C1.7602 4.42914 1.25 6.42603 1.25 9V15C1.25 17.574 1.7602 19.5709 3.09467 20.9053C4.42914 22.2398 6.42603 22.75 9 22.75H15C17.574 22.75 19.5709 22.2398 20.9053 20.9053C22.2398 19.5709 22.75 17.574 22.75 15V9C22.75 6.42603 22.2398 4.42914 20.9053 3.09467C19.5709 1.7602 17.574 1.25 15 1.25H9ZM2.75 9C2.75 6.57397 3.2398 5.07086 4.15533 4.15533C5.07086 3.2398 6.57397 2.75 9 2.75H15C17.426 2.75 18.9291 3.2398 19.8447 4.15533C20.7602 5.07086 21.25 6.57397 21.25 9V15C21.25 17.426 20.7602 18.9291 19.8447 19.8447C18.9291 20.7602 17.426 21.25 15 21.25H9C6.57397 21.25 5.07086 20.7602 4.15533 19.8447C3.2398 18.9291 2.75 17.426 2.75 15V9ZM16.3704 7.62966C14.5165 5.77584 11.5129 5.77826 9.65135 7.62797L7.22967 10.0496C5.59678 11.6825 5.59678 14.3274 7.22967 15.9603C7.52257 16.2532 7.99744 16.2532 8.29033 15.9603C8.58323 15.6674 8.58323 15.1925 8.29033 14.8996C7.24323 13.8525 7.24323 12.1574 8.29033 11.1103L10.7086 8.69201L10.7094 8.69122C11.9876 7.42201 14.0428 7.42441 15.3088 8.68945C16.5783 9.96795 16.5756 12.0238 15.3097 13.2897L13.0897 15.5097C12.6026 15.9968 11.8074 15.9968 11.3203 15.5097C10.8332 15.0226 10.8332 14.2274 11.3203 13.7403L12.7303 12.3303C13.0232 12.0374 13.0232 11.5625 12.7303 11.2696C12.4375 10.9768 11.9626 10.9767 11.6697 11.2696L10.2596 12.6796C9.18675 13.7525 9.18675 15.4974 10.2596 16.5703C11.3325 17.6432 13.0774 17.6432 14.1503 16.5703L16.3704 14.3503C18.2242 12.4965 18.2217 9.49292 16.372 7.63135L16.3704 7.62966Z" fill="#424B5A"/>
</svg>
