<svg width="24" height="24" viewBox="0 0 24 24" fill="none" xmlns="http://www.w3.org/2000/svg">
<path fill-rule="evenodd" clip-rule="evenodd" d="M11.2352 3.02177L9.64018 4.38604C9.40558 4.58154 9.1079 4.73385 8.8266 4.8374C8.54569 4.94081 8.21522 5.01982 7.9 5.01982H6.17C5.52422 5.01982 4.99 5.55404 4.99 6.19982V7.88982C4.99 8.19664 4.91503 8.52245 4.81462 8.80206C4.71433 9.08133 4.56441 9.38208 4.36617 9.61996L4.36175 9.62527L3.01412 11.2124L3.01308 11.2137C2.66898 11.6244 2.66898 12.3352 3.01307 12.746L3.01412 12.7472L4.36013 14.3325C4.56498 14.571 4.71582 14.8772 4.81506 15.1551C4.91542 15.4361 4.99 15.7639 4.99 16.0698V17.7798C4.99 18.4256 5.52422 18.9598 6.17 18.9598H7.92C8.2312 18.9598 8.56174 19.0393 8.84161 19.1418C9.12203 19.2445 9.42365 19.3966 9.66014 19.5937L9.66724 19.5996L11.2472 20.9496L11.2515 20.9533C11.645 21.2947 12.3599 21.3044 12.785 20.9478L12.7867 20.9464L14.3698 19.5936C14.6044 19.3981 14.9021 19.2458 15.1834 19.1423C15.4643 19.0388 15.7948 18.9598 16.11 18.9598H17.81C18.4558 18.9598 18.99 18.4256 18.99 17.7798V16.0798C18.99 15.7646 19.069 15.4341 19.1724 15.1532C19.276 14.8719 19.4283 14.5743 19.6238 14.3397L19.6298 14.3326L20.9798 12.7526L20.9835 12.7483C21.3249 12.3548 21.3346 11.6399 20.9779 11.2148L20.9765 11.2132L19.6238 9.63C19.4283 9.3954 19.276 9.09772 19.1724 8.81642C19.069 8.53551 18.99 8.20504 18.99 7.88982V6.18982C18.99 5.54404 18.4558 5.00982 17.81 5.00982H16.11C15.7956 5.00982 15.4634 4.93117 15.1809 4.82831C14.8985 4.72548 14.5966 4.57323 14.3599 4.37599L14.3528 4.37007L12.7685 3.01633C12.375 2.67498 11.6603 2.66522 11.2352 3.02177ZM13.7492 1.88128C12.783 1.04519 11.241 1.05513 10.2667 1.87635L8.67705 3.23599C8.61071 3.29036 8.47966 3.36671 8.3084 3.42975C8.13432 3.49384 7.98479 3.51982 7.9 3.51982H6.17C4.69579 3.51982 3.49 4.72561 3.49 6.19982V7.88982C3.49 7.97301 3.46498 8.1222 3.40289 8.29509C3.34133 8.46651 3.26717 8.59487 3.21547 8.65772L1.86828 10.2444L1.86589 10.2472C1.05138 11.2162 1.05138 12.7434 1.86589 13.7124L3.21828 15.3052L3.22195 15.3095C3.26604 15.3607 3.33952 15.4834 3.40245 15.6596C3.46459 15.8336 3.49 15.9858 3.49 16.0698V17.7798C3.49 19.254 4.69579 20.4598 6.17 20.4598H7.92C7.99881 20.4598 8.14827 20.4853 8.3259 20.5504C8.50057 20.6143 8.63271 20.6909 8.69723 20.7438L10.2685 22.0863L10.2708 22.0883C11.237 22.9245 12.779 22.9145 13.7534 22.0933L15.3328 20.7438C15.3991 20.6894 15.5303 20.613 15.7016 20.5499C15.8757 20.4858 16.0252 20.4598 16.11 20.4598H17.81C19.2842 20.4598 20.49 19.254 20.49 17.7798V16.0798C20.49 15.995 20.516 15.8455 20.5801 15.6714C20.6432 15.5001 20.7196 15.3689 20.774 15.3026L22.1165 13.7313L22.1184 13.7291C22.9546 12.7629 22.9447 11.2208 22.1235 10.2465L20.774 8.66702C20.7196 8.60073 20.6432 8.4696 20.5801 8.29822C20.516 8.12414 20.49 7.97461 20.49 7.88982V6.18982C20.49 4.71561 19.2842 3.50982 17.81 3.50982H16.11C16.0244 3.50982 15.8716 3.48348 15.6941 3.41884C15.519 3.35507 15.3872 3.27858 15.3228 3.22587L13.7492 1.88128ZM10.1582 14.0543L9.18543 16.2443L7.81457 15.6354L11.3146 7.75538H12.6854L16.1854 15.6354L14.8146 16.2443L13.8419 14.0543C13.8118 14.0579 13.7811 14.0598 13.75 14.0598H10.25C10.2189 14.0598 10.1883 14.0579 10.1582 14.0543ZM10.8219 12.5598H13.1781L12 9.90746L10.8219 12.5598Z" fill="#424B5A"/>
</svg>
