<svg width="24" height="24" viewBox="0 0 24 24" fill="none" xmlns="http://www.w3.org/2000/svg">
<path fill-rule="evenodd" clip-rule="evenodd" d="M6.71968 2.21967C7.40994 1.52941 8.3844 1.25 9.50001 1.25H14.5C15.6156 1.25 16.5901 1.52941 17.2803 2.21967C17.9706 2.90993 18.25 3.88439 18.25 5V7.30679L18.3949 7.39043C18.4101 7.39916 18.4249 7.40843 18.4394 7.4182L18.4631 7.43423L18.4632 7.43426L18.4632 7.43427C18.8729 7.7106 19.2155 7.94161 19.48 8.15112C19.7547 8.36868 19.9991 8.60352 20.1746 8.90758C20.3543 9.21898 20.4267 9.54137 20.4596 9.87649C20.4901 10.1874 20.49 10.5601 20.49 10.9866V10.9866V10.9866V16.0234V16.0234V16.0234C20.49 16.4499 20.4901 16.8226 20.4596 17.1335C20.4267 17.4686 20.3543 17.791 20.1746 18.1024C19.9991 18.4065 19.7547 18.6413 19.48 18.8589C19.2156 19.0683 18.8731 19.2993 18.4635 19.5755L18.4633 19.5757L18.4632 19.5758L18.4394 19.5918C18.4249 19.6016 18.4101 19.6108 18.3949 19.6196L13.6651 22.3495C13.1686 22.6361 12.5633 22.7575 12 22.7575C11.4368 22.7575 10.8316 22.6362 10.3351 22.3496L5.6051 19.6196C5.58997 19.6108 5.57514 19.6016 5.56066 19.5918L5.53687 19.5758C5.12711 19.2994 4.78455 19.0684 4.51999 18.8589C4.24529 18.6413 4.00095 18.4065 3.82545 18.1024C3.64572 17.791 3.57333 17.4686 3.54047 17.1335C3.50997 16.8225 3.50999 16.4499 3.51001 16.0234V16.0233V10.9867V10.9866C3.50999 10.5601 3.50997 10.1875 3.54047 9.87649C3.57333 9.54137 3.64572 9.21898 3.82545 8.90758C4.00095 8.60352 4.24529 8.36868 4.51999 8.15112C4.78454 7.9416 5.1271 7.71058 5.53687 7.43424L5.5369 7.43422L5.56066 7.4182C5.57514 7.40843 5.58997 7.39916 5.6051 7.39043L5.75001 7.30679V5C5.75001 3.88439 6.02942 2.90993 6.71968 2.21967ZM16.75 5V6.44104L13.6651 4.66051C13.1686 4.37385 12.5633 4.2525 12 4.2525C11.4368 4.2525 10.8314 4.37385 10.335 4.66051L7.25001 6.44104V5C7.25001 4.11561 7.4706 3.59007 7.78034 3.28033C8.09008 2.97059 8.61562 2.75 9.50001 2.75H14.5C15.3844 2.75 15.9099 2.97059 16.2197 3.28033C16.5294 3.59007 16.75 4.11561 16.75 5ZM12 5.7525C11.6283 5.7525 11.2986 5.83621 11.0851 5.95949L6.37764 8.67646C5.94995 8.96493 5.66183 9.16025 5.45128 9.327C5.24223 9.49257 5.16408 9.58898 5.12458 9.65742C5.08931 9.71852 5.05419 9.80989 5.03331 10.0229C5.01084 10.252 5.01001 10.5505 5.01001 11.02V15.99C5.01001 16.4595 5.01084 16.758 5.03331 16.9871C5.05419 17.2001 5.08931 17.2915 5.12458 17.3526C5.16408 17.421 5.24223 17.5174 5.45128 17.683C5.66183 17.8497 5.94995 18.0451 6.37764 18.3335L11.0849 21.0504C11.2984 21.1737 11.6283 21.2575 12 21.2575C12.3717 21.2575 12.7015 21.1738 12.915 21.0505L17.6224 18.3335C18.0501 18.0451 18.3382 17.8497 18.5487 17.683C18.7578 17.5174 18.8359 17.421 18.8754 17.3526C18.9107 17.2915 18.9458 17.2001 18.9667 16.9871C18.9892 16.758 18.99 16.4595 18.99 15.99V11.02C18.99 10.5505 18.9892 10.252 18.9667 10.0229C18.9458 9.80989 18.9107 9.71852 18.8754 9.65742C18.8359 9.58898 18.7578 9.49257 18.5487 9.327C18.3382 9.16025 18.0501 8.96493 17.6224 8.67646L12.9151 5.95957C12.7016 5.83629 12.3717 5.7525 12 5.7525ZM11.4242 12.2803L11.9871 11.4015L11.9953 11.3898L11.9998 11.3966L12.5691 12.2856C12.6806 12.459 12.8305 12.5936 12.9598 12.6865C13.0889 12.7793 13.2587 12.8746 13.4468 12.9247L14.4693 13.1854L13.8021 13.992C13.7965 13.9988 13.7909 14.0057 13.7855 14.0127C13.6725 14.1596 13.5929 14.3295 13.5423 14.4816C13.493 14.6294 13.4488 14.8268 13.4613 15.0343L13.5211 16.0807L12.5479 15.6934C12.3571 15.6172 12.1554 15.595 11.995 15.595C11.8346 15.595 11.6323 15.6174 11.4415 15.6936L10.4689 16.0807L10.5287 15.0343C10.5411 14.8283 10.4977 14.6296 10.4487 14.4806C10.3997 14.3318 10.3172 14.1476 10.1873 13.9912L9.52074 13.1854L10.534 12.9271C10.7377 12.8757 10.9155 12.7726 11.0439 12.6783C11.17 12.5857 11.3174 12.451 11.4242 12.2803ZM13.2594 10.5821C12.9877 10.1629 12.5497 9.835 11.9988 9.835L9.14511 11.7332C8.65535 11.8576 8.20135 12.1736 8.03108 12.7027C7.86169 13.229 8.04315 13.7491 8.36006 14.1356L9.01599 14.9286L9.01723 14.9315C9.01941 14.9368 9.02167 14.9428 9.02382 14.9494C9.02596 14.9559 9.02773 14.9621 9.0291 14.9676L9.02988 14.9708L8.97133 15.9955C8.94058 16.4968 9.10349 17.0215 9.54791 17.3458C9.99453 17.6718 10.5471 17.6648 11.0186 17.4764L11.9746 17.0959L11.9774 17.0956C11.9826 17.0952 11.9886 17.095 11.995 17.095C12.0014 17.095 12.0074 17.0952 12.0126 17.0956L12.0154 17.0959L12.972 17.4766C13.4378 17.6627 13.9898 17.6766 14.4394 17.3515C14.8889 17.0266 15.0492 16.498 15.0187 15.9958L15.0186 15.9939L14.9603 14.9729C14.961 14.9698 14.962 14.9664 14.9631 14.9627C14.9638 14.9605 14.9645 14.9583 14.9653 14.9559C14.9674 14.9495 14.9698 14.943 14.9724 14.937C14.9747 14.9313 14.9769 14.9266 14.9787 14.9229L15.6279 14.138L15.63 14.1356C15.9469 13.7491 16.1283 13.229 15.9589 12.7027C15.7887 12.1737 15.3344 11.8575 14.8446 11.7331L13.8536 11.4805L13.85 11.4783C13.8454 11.4755 13.8404 11.4722 13.8352 11.4685C13.8301 11.4648 13.8255 11.4612 13.8215 11.4578L13.8188 11.4555L13.2616 10.5855L13.2594 10.5821ZM10.1337 11.4836C10.1349 11.4829 10.1376 11.4815 10.1413 11.4792L10.1589 11.4749C10.1489 11.4777 10.142 11.4802 10.1385 11.4816C10.1339 11.4834 10.1323 11.4843 10.1337 11.4836ZM10.1589 11.4749L10.1691 11.4589C10.1728 11.4557 10.1751 11.4535 10.1759 11.4527C10.1768 11.4518 10.1751 11.4534 10.1715 11.4579C10.169 11.4609 10.1644 11.4667 10.1589 11.4749ZM10.1589 11.4749C10.1577 11.4766 10.1565 11.4785 10.1551 11.4806C10.1539 11.4827 10.1525 11.4848 10.1513 11.4869L10.1589 11.4749Z" fill="#424B5A"/>
</svg>
