<svg width="24" height="24" viewBox="0 0 24 24" fill="none" xmlns="http://www.w3.org/2000/svg">
<path fill-rule="evenodd" clip-rule="evenodd" d="M14.2616 3.26158C13.9648 3.55836 13.75 4.09897 13.75 5.14999V6.62V7.85001C13.75 8.90103 13.9648 9.44164 14.2616 9.73842C14.5584 10.0352 15.099 10.25 16.15 10.25H17.38H18.85C19.901 10.25 20.4416 10.0352 20.7384 9.73842C21.0352 9.44164 21.25 8.90103 21.25 7.85001V5.14999C21.25 4.09897 21.0352 3.55836 20.7384 3.26158C20.4416 2.9648 19.901 2.75 18.85 2.75H16.15C15.099 2.75 14.5584 2.9648 14.2616 3.26158ZM18.13 11.75H18.85C20.049 11.75 21.0834 11.5148 21.7991 10.7991C22.5148 10.0834 22.75 9.04898 22.75 7.85001V5.14999C22.75 3.95102 22.5148 2.91663 21.7991 2.20092C21.0834 1.4852 20.049 1.25 18.85 1.25H16.15C14.951 1.25 13.9166 1.4852 13.2009 2.20092C12.4852 2.91663 12.25 3.95102 12.25 5.14999V5.87H10.38C8.96204 5.87 7.77457 6.14727 6.96092 6.96092C6.14727 7.77458 5.87 8.96205 5.87 10.38V12.25H5.15C3.95103 12.25 2.91664 12.4852 2.20092 13.2009C1.4852 13.9166 1.25 14.951 1.25 16.15V18.85C1.25 20.049 1.4852 21.0834 2.20092 21.7991C2.91664 22.5148 3.95103 22.75 5.15 22.75H7.85C9.04897 22.75 10.0834 22.5148 10.7991 21.7991C11.5148 21.0834 11.75 20.049 11.75 18.85V18.13H13.62C15.038 18.13 16.2254 17.8527 17.0391 17.0391C17.8527 16.2254 18.13 15.0379 18.13 13.62V11.75ZM16.63 11.75H16.15C14.951 11.75 13.9166 11.5148 13.2009 10.7991C12.4852 10.0834 12.25 9.04898 12.25 7.85001V7.37H10.38C9.10795 7.37 8.41543 7.62773 8.02158 8.02158C7.62773 8.41543 7.37 9.10796 7.37 10.38V12.25H7.85C9.04897 12.25 10.0834 12.4852 10.7991 13.2009C11.5148 13.9166 11.75 14.951 11.75 16.15V16.63H13.62C14.892 16.63 15.5846 16.3723 15.9784 15.9784C16.3723 15.5846 16.63 14.892 16.63 13.62V11.75ZM10.25 17.38V16.15C10.25 15.099 10.0352 14.5584 9.73842 14.2616C9.44164 13.9648 8.90103 13.75 7.85 13.75H6.62H5.15C4.09897 13.75 3.55836 13.9648 3.26158 14.2616C2.9648 14.5584 2.75 15.099 2.75 16.15V18.85C2.75 19.901 2.9648 20.4416 3.26158 20.7384C3.55836 21.0352 4.09897 21.25 5.15 21.25H7.85C8.90103 21.25 9.44164 21.0352 9.73842 20.7384C10.0352 20.4416 10.25 19.901 10.25 18.85V17.38Z" fill="#424B5A"/>
</svg>
