<svg width="24" height="24" viewBox="0 0 24 24" fill="none" xmlns="http://www.w3.org/2000/svg">
<path fill-rule="evenodd" clip-rule="evenodd" d="M21.25 8.3399C21.25 7.41729 20.2491 6.84322 19.4522 7.31522L19.4435 7.32041L16.275 9.13943L16.2734 9.14032L13.1109 10.966C13.0651 10.9937 13.0251 11.0203 12.99 11.0462V12.9736C13.0251 12.9995 13.0651 13.0261 13.1109 13.0538L16.2734 14.8795L16.275 14.8804L19.4448 16.7003C20.2459 17.1624 21.25 16.5815 21.25 15.6599V8.3399ZM18.6925 6.02183C20.4949 4.9589 22.75 6.26433 22.75 8.3399V15.6599C22.75 17.7381 20.4947 19.0371 18.6959 17.9999C18.6957 17.9998 18.6961 18.0001 18.6959 17.9999L15.5266 16.1803L15.525 16.1794L12.3441 14.3431C12.0889 14.19 11.8557 14.0063 11.6579 13.7629C11.5493 13.6292 11.49 13.4622 11.49 13.2899V10.7299C11.49 10.5577 11.5493 10.3907 11.6579 10.257C11.8557 10.0135 12.089 9.82991 12.3441 9.6768L12.355 9.67029L15.5266 7.83947L18.6925 6.02183Z" fill="#424B5A"/>
<path fill-rule="evenodd" clip-rule="evenodd" d="M11.49 8.3399C11.49 7.41729 10.4891 6.84322 9.69221 7.31522L9.68346 7.32041L6.51498 9.13943L6.51344 9.14032L3.34691 10.9683C2.54054 11.4413 2.54889 12.5911 3.34479 13.0503L6.51344 14.8795L6.51498 14.8804L9.68343 16.6995L9.68479 16.7003C10.4858 17.1624 11.49 16.5815 11.49 15.6599V8.3399ZM8.93251 6.02183C10.7348 4.9589 12.99 6.26433 12.99 8.3399V15.6599C12.99 17.738 10.7349 19.037 8.93605 18C8.93577 17.9999 8.93634 18.0002 8.93605 18L5.76658 16.1803L5.76505 16.1794L2.59521 14.3496C2.59515 14.3495 2.59527 14.3496 2.59521 14.3496C0.791809 13.309 0.799528 10.72 2.59148 9.67244L2.59502 9.67037L5.76659 7.83947L8.93251 6.02183Z" fill="#424B5A"/>
</svg>
