<svg width="24" height="24" viewBox="0 0 24 24" fill="none" xmlns="http://www.w3.org/2000/svg">
<path fill-rule="evenodd" clip-rule="evenodd" d="M3.09467 3.09467C4.42914 1.7602 6.42603 1.25 9 1.25H15C17.574 1.25 19.5709 1.7602 20.9053 3.09467C22.2398 4.42914 22.75 6.42603 22.75 9V15C22.75 17.574 22.2398 19.5709 20.9053 20.9053C19.5709 22.2398 17.574 22.75 15 22.75H9C6.42603 22.75 4.42914 22.2398 3.09467 20.9053C1.7602 19.5709 1.25 17.574 1.25 15V9C1.25 6.42603 1.7602 4.42914 3.09467 3.09467ZM4.15533 4.15533C3.2398 5.07086 2.75 6.57397 2.75 9V15C2.75 17.426 3.2398 18.9291 4.15533 19.8447C5.07086 20.7602 6.57397 21.25 9 21.25H15C17.426 21.25 18.9291 20.7602 19.8447 19.8447C20.7602 18.9291 21.25 17.426 21.25 15V9C21.25 6.57397 20.7602 5.07086 19.8447 4.15533C18.9291 3.2398 17.426 2.75 15 2.75H9C6.57397 2.75 5.07086 3.2398 4.15533 4.15533ZM8.78066 8.47L9.10033 8.15033C9.39322 7.85744 9.39322 7.38257 9.10033 7.08967C8.80744 6.79678 8.33256 6.79678 8.03967 7.08967L6.46967 8.65967C6.17743 8.95191 6.17668 9.42549 6.46799 9.71865L8.03799 11.2986C8.32995 11.5925 8.80482 11.594 9.09864 11.302C9.39247 11.01 9.39397 10.5352 9.10201 10.2414L8.83238 9.97H13.92C15.2058 9.97 16.25 11.0142 16.25 12.3C16.25 13.5858 15.2058 14.63 13.92 14.63H9C8.58579 14.63 8.25 14.9658 8.25 15.38C8.25 15.7942 8.58579 16.13 9 16.13H13.92C16.0342 16.13 17.75 14.4142 17.75 12.3C17.75 10.1858 16.0342 8.47 13.92 8.47H8.78066Z" fill="#424B5A"/>
</svg>
