<svg width="24" height="24" viewBox="0 0 24 24" fill="none" xmlns="http://www.w3.org/2000/svg">
<path fill-rule="evenodd" clip-rule="evenodd" d="M9.80836 9.8797C10.0985 9.99086 10.29 10.2694 10.29 10.58V15.92C10.29 16.3342 9.95422 16.67 9.54001 16.67C9.12579 16.67 8.79001 16.3342 8.79001 15.92V12.5374L8.59797 12.7512C8.32119 13.0594 7.84699 13.0848 7.53884 12.808C7.23068 12.5312 7.20525 12.057 7.48204 11.7489L8.98204 10.0789C9.18964 9.84774 9.51825 9.76854 9.80836 9.8797Z" fill="#424B5A"/>
<path fill-rule="evenodd" clip-rule="evenodd" d="M12.4691 1.41484C12.7923 1.67392 12.8443 2.14594 12.5852 2.46913L10.6052 4.9391C10.3461 5.26229 9.87407 5.31426 9.55089 5.05518C9.2277 4.7961 9.17573 4.32408 9.4348 4.00089L11.4148 1.53092C11.6739 1.20773 12.1459 1.15576 12.4691 1.41484Z" fill="#424B5A"/>
<path fill-rule="evenodd" clip-rule="evenodd" d="M9.84885 3.72984C10.5355 3.56891 11.2534 3.47 12 3.47C17.3242 3.47 21.64 7.7858 21.64 13.11C21.64 18.4342 17.3242 22.75 12 22.75C6.67579 22.75 2.35999 18.4342 2.35999 13.11C2.35999 10.9335 3.11155 8.94795 4.31 7.35001C4.55853 7.01864 5.02863 6.95149 5.36 7.20002C5.69137 7.44854 5.75853 7.91864 5.51 8.25001C4.48846 9.61208 3.85999 11.2865 3.85999 13.11C3.85999 17.6058 7.50421 21.25 12 21.25C16.4958 21.25 20.14 17.6058 20.14 13.11C20.14 8.61423 16.4958 4.97 12 4.97C11.3866 4.97 10.7845 5.05119 10.1911 5.19026C9.78785 5.28478 9.3843 5.03448 9.28978 4.63119C9.19526 4.22791 9.44556 3.82436 9.84885 3.72984Z" fill="#424B5A"/>
<path fill-rule="evenodd" clip-rule="evenodd" d="M14 11.33C13.3118 11.33 12.75 11.8867 12.75 12.58V13.93C12.75 14.6158 13.3142 15.18 14 15.18C14.6858 15.18 15.25 14.6158 15.25 13.93V12.58C15.25 11.8943 14.6858 11.33 14 11.33ZM11.25 12.58C11.25 11.0534 12.4882 9.83004 14 9.83004C15.5142 9.83004 16.75 11.0658 16.75 12.58V13.93C16.75 15.4442 15.5142 16.68 14 16.68C12.4858 16.68 11.25 15.4442 11.25 13.93V12.58Z" fill="#424B5A"/>
</svg>
