<svg width="24" height="24" viewBox="0 0 24 24" fill="none" xmlns="http://www.w3.org/2000/svg">
<path fill-rule="evenodd" clip-rule="evenodd" d="M10.1382 10.5938C10.24 10.2871 10.5268 10.08 10.85 10.08H13.91C14.3242 10.08 14.66 10.4158 14.66 10.83C14.66 11.2443 14.3242 11.58 13.91 11.58H11.3913L11.1291 12.37H12.38C13.631 12.37 14.66 13.3827 14.66 14.6501C14.66 15.9011 13.6474 16.93 12.38 16.93H10.09C9.67578 16.93 9.34 16.5942 9.34 16.18C9.34 15.7658 9.67578 15.43 10.09 15.43H12.38C12.8126 15.43 13.16 15.079 13.16 14.6501C13.16 14.2174 12.809 13.87 12.38 13.87H10.09C9.84909 13.87 9.62284 13.7543 9.48185 13.559C9.34086 13.3636 9.30229 13.1124 9.37817 12.8838L10.1382 10.5938Z" fill="#424B5A"/>
<path fill-rule="evenodd" clip-rule="evenodd" d="M12.4691 1.41484C12.7923 1.67392 12.8443 2.14594 12.5852 2.46913L10.6052 4.9391C10.3461 5.26229 9.87407 5.31426 9.55089 5.05518C9.2277 4.7961 9.17573 4.32408 9.4348 4.00089L11.4148 1.53092C11.6739 1.20773 12.1459 1.15576 12.4691 1.41484Z" fill="#424B5A"/>
<path fill-rule="evenodd" clip-rule="evenodd" d="M9.84885 3.72984C10.5355 3.56891 11.2534 3.47 12 3.47C17.3242 3.47 21.64 7.7858 21.64 13.11C21.64 18.4342 17.3242 22.75 12 22.75C6.67579 22.75 2.35999 18.4342 2.35999 13.11C2.35999 10.9335 3.11155 8.94795 4.31 7.35001C4.55853 7.01864 5.02863 6.95149 5.36 7.20002C5.69137 7.44854 5.75853 7.91864 5.51 8.25001C4.48846 9.61208 3.85999 11.2865 3.85999 13.11C3.85999 17.6058 7.50421 21.25 12 21.25C16.4958 21.25 20.14 17.6058 20.14 13.11C20.14 8.61423 16.4958 4.97 12 4.97C11.3866 4.97 10.7845 5.05119 10.1911 5.19026C9.78785 5.28478 9.3843 5.03448 9.28978 4.63119C9.19526 4.22791 9.44556 3.82436 9.84885 3.72984Z" fill="#424B5A"/>
</svg>
