<svg width="24" height="24" viewBox="0 0 24 24" fill="none" xmlns="http://www.w3.org/2000/svg">
<path fill-rule="evenodd" clip-rule="evenodd" d="M11.6324 2.77612C13.8655 2.55947 15.75 4.31627 15.75 6.50962V7.24962H8.24997V6.69962C8.24997 4.79207 9.80822 2.94638 11.6297 2.77638L11.6324 2.77612ZM6.74997 7.31158V6.69962C6.74997 4.10762 8.81103 1.53374 11.4889 1.283C14.6152 0.980488 17.25 3.44342 17.25 6.50962V7.31158C18.805 7.47702 19.9181 7.97476 20.6264 8.81685C21.5047 9.86102 21.5869 11.2333 21.4454 12.5121L21.4443 12.5227L20.695 18.5163C20.5844 19.5425 20.3255 20.6666 19.4096 21.5033C18.4984 22.3357 17.0868 22.7496 15 22.7496H8.99997C6.91312 22.7496 5.5015 22.3357 4.59036 21.5033C3.67441 20.6665 3.41551 19.5425 3.30496 18.5162L2.55445 12.5121C2.41294 11.2333 2.49524 9.86102 3.37351 8.81685C4.08181 7.97476 5.19494 7.47702 6.74997 7.31158ZM4.04485 12.342L4.79582 18.3497C4.89567 19.2816 5.10252 19.9395 5.60209 20.3959C6.10844 20.8585 7.06682 21.2496 8.99997 21.2496H15C16.9331 21.2496 17.8915 20.8585 18.3979 20.3959C18.8974 19.9395 19.1044 19.2816 19.2042 18.3497L19.2057 18.3366L19.9551 12.3418C20.0826 11.1834 19.9495 10.3424 19.4785 9.7824C19.0139 9.23005 18.0469 8.74962 16 8.74962H7.99997C5.95301 8.74962 4.98602 9.23005 4.52143 9.7824C4.05041 10.3424 3.91732 11.1834 4.04485 12.342ZM8.74997 14.9996C8.74997 13.2047 10.205 11.7496 12 11.7496C13.7949 11.7496 15.25 13.2047 15.25 14.9996C15.25 16.7945 13.7949 18.2496 12 18.2496C10.205 18.2496 8.74997 16.7945 8.74997 14.9996ZM12 10.2496C9.37662 10.2496 7.24997 12.3763 7.24997 14.9996C7.24997 17.623 9.37662 19.7496 12 19.7496C14.6233 19.7496 16.75 17.623 16.75 14.9996C16.75 12.3763 14.6233 10.2496 12 10.2496ZM13 13.7496C13 13.3354 12.6642 12.9996 12.25 12.9996C11.8358 12.9996 11.5 13.3354 11.5 13.7496V14.6796C11.5 14.7735 11.4527 14.8506 11.3833 14.8909L10.6116 15.358C10.2573 15.5725 10.1439 16.0336 10.3583 16.388C10.5728 16.7423 11.034 16.8557 11.3883 16.6412L12.1433 16.1843C12.6897 15.8638 13 15.2833 13 14.6796V13.7496Z" fill="#424B5A"/>
</svg>
