<svg width="24" height="24" viewBox="0 0 24 24" fill="none" xmlns="http://www.w3.org/2000/svg">
<path fill-rule="evenodd" clip-rule="evenodd" d="M11.6324 2.77612C13.8655 2.55947 15.75 4.31627 15.75 6.50962V7.24962H8.24997V6.69962C8.24997 4.79207 9.80822 2.94638 11.6297 2.77638L11.6324 2.77612ZM6.74997 7.31158V6.69962C6.74997 4.10762 8.81103 1.53374 11.4889 1.283C14.6152 0.980488 17.25 3.44342 17.25 6.50962V7.31158C18.805 7.47702 19.9181 7.97476 20.6264 8.81685C21.5047 9.86102 21.5869 11.2333 21.4454 12.5121L21.4443 12.5227L20.695 18.5163C20.5844 19.5425 20.3255 20.6666 19.4096 21.5033C18.4984 22.3357 17.0868 22.7496 15 22.7496H8.99997C6.91312 22.7496 5.5015 22.3357 4.59036 21.5033C3.67441 20.6665 3.41551 19.5425 3.30496 18.5162L2.55445 12.5121C2.41294 11.2333 2.49524 9.86102 3.37351 8.81685C4.08181 7.97476 5.19494 7.47702 6.74997 7.31158ZM4.79582 18.3497L4.04485 12.342C3.91732 11.1834 4.05041 10.3424 4.52143 9.7824C4.98602 9.23005 5.95301 8.74962 7.99997 8.74962H16C18.0469 8.74962 19.0139 9.23005 19.4785 9.7824C19.9495 10.3424 20.0826 11.1834 19.9551 12.3418L19.2057 18.3366L19.2042 18.3497C19.1044 19.2816 18.8974 19.9395 18.3979 20.3959C17.8915 20.8585 16.9331 21.2496 15 21.2496H8.99997C7.06682 21.2496 6.10844 20.8585 5.60209 20.3959C5.10252 19.9395 4.89567 19.2816 4.79582 18.3497ZM14.4955 11.9996C14.4955 11.4473 14.9432 10.9996 15.4955 10.9996H15.5044C16.0567 10.9996 16.5044 11.4473 16.5044 11.9996C16.5044 12.5519 16.0567 12.9996 15.5044 12.9996H15.4955C14.9432 12.9996 14.4955 12.5519 14.4955 11.9996ZM8.49448 10.9996C7.9422 10.9996 7.49448 11.4473 7.49448 11.9996C7.49448 12.5519 7.9422 12.9996 8.49448 12.9996H8.50346C9.05575 12.9996 9.50346 12.5519 9.50346 11.9996C9.50346 11.4473 9.05575 10.9996 8.50346 10.9996H8.49448Z" fill="#424B5A"/>
</svg>
