<svg width="24" height="24" viewBox="0 0 24 24" fill="none" xmlns="http://www.w3.org/2000/svg">
<path fill-rule="evenodd" clip-rule="evenodd" d="M11.9072 2.84503C11.9668 2.82119 12.0332 2.82119 12.0928 2.84503L21.0928 6.44503C21.1878 6.483 21.25 6.57492 21.25 6.67715V10.0001C21.25 10.1382 21.1381 10.2501 21 10.2501H20.0133C20.0089 10.25 20.0044 10.25 20 10.25C19.9956 10.25 19.9911 10.25 19.9867 10.2501H16.0133C16.0089 10.25 16.0044 10.25 16 10.25C15.9956 10.25 15.9911 10.25 15.9867 10.2501H12.0133C12.0089 10.25 12.0044 10.25 12 10.25C11.9956 10.25 11.9911 10.25 11.9867 10.2501H8.01329C8.00887 10.25 8.00444 10.25 8 10.25C7.99556 10.25 7.99113 10.25 7.98671 10.2501H4.01329C4.00887 10.25 4.00444 10.25 4 10.25C3.99556 10.25 3.99113 10.25 3.98671 10.2501H3C2.86193 10.2501 2.75 10.1382 2.75 10.0001V6.67715C2.75 6.57492 2.81224 6.483 2.90715 6.44503L11.9072 2.84503ZM3.25 11.7501H3C2.0335 11.7501 1.25 10.9666 1.25 10.0001V6.67715C1.25 5.96157 1.68566 5.31808 2.35007 5.05231L11.3501 1.45231C11.7673 1.28543 12.2327 1.28543 12.6499 1.45231L21.6499 5.05231C22.3143 5.31807 22.75 5.96156 22.75 6.67715V10.0001C22.75 10.9666 21.9665 11.7501 21 11.7501H20.75V17.25H21C21.9642 17.25 22.75 18.0358 22.75 19V21.25H23C23.4142 21.25 23.75 21.5858 23.75 22C23.75 22.4142 23.4142 22.75 23 22.75H22H2H1C0.585786 22.75 0.25 22.4142 0.25 22C0.25 21.5858 0.585786 21.25 1 21.25H1.25V19C1.25 18.0358 2.03579 17.25 3 17.25H3.25V11.7501ZM4.75 11.7501V17.25H7.25V11.7501H4.75ZM8.75 11.7501V17.25H11.25V11.7501H8.75ZM12.75 11.7501V17.25H15.25V11.7501H12.75ZM16.75 11.7501V17.25H19.25V11.7501H16.75ZM12 6.25C11.5858 6.25 11.25 6.58579 11.25 7C11.25 7.41421 11.5858 7.75 12 7.75C12.4142 7.75 12.75 7.41421 12.75 7C12.75 6.58579 12.4142 6.25 12 6.25ZM9.75 7C9.75 5.75736 10.7574 4.75 12 4.75C13.2426 4.75 14.25 5.75736 14.25 7C14.25 8.24264 13.2426 9.25 12 9.25C10.7574 9.25 9.75 8.24264 9.75 7ZM21.25 21.25V19C21.25 18.8642 21.1358 18.75 21 18.75H20H16H12H8H4H3C2.86421 18.75 2.75 18.8642 2.75 19V21.25H21.25Z" fill="#424B5A"/>
</svg>
