<svg width="24" height="24" viewBox="0 0 24 24" fill="none" xmlns="http://www.w3.org/2000/svg">
<path fill-rule="evenodd" clip-rule="evenodd" d="M2.75 8.5C2.75 6.89295 3.20538 5.86848 3.88534 5.2371C4.57535 4.59637 5.61497 4.25 7 4.25H17C18.385 4.25 19.4246 4.59637 20.1147 5.2371C20.7946 5.86848 21.25 6.89295 21.25 8.5V15.5C21.25 17.107 20.7946 18.1315 20.1147 18.7629C19.4246 19.4036 18.385 19.75 17 19.75H7C5.61497 19.75 4.57535 19.4036 3.88534 18.7629C3.20538 18.1315 2.75 17.107 2.75 15.5V8.5ZM7 2.75C5.38503 2.75 3.92465 3.15363 2.86466 4.1379C1.79462 5.13152 1.25 6.60705 1.25 8.5V15.5C1.25 17.393 1.79462 18.8685 2.86466 19.8621C3.92465 20.8464 5.38503 21.25 7 21.25H17C18.615 21.25 20.0754 20.8464 21.1353 19.8621C22.2054 18.8685 22.75 17.393 22.75 15.5V8.5C22.75 6.60705 22.2054 5.13152 21.1353 4.1379C20.0754 3.15363 18.615 2.75 17 2.75H7ZM6.75 8C6.75 7.58579 6.41421 7.25 6 7.25C5.58579 7.25 5.25 7.58579 5.25 8V16C5.25 16.4142 5.58579 16.75 6 16.75C6.41421 16.75 6.75 16.4142 6.75 16V8ZM9 7.25C9.41421 7.25 9.75 7.58579 9.75 8V12C9.75 12.4142 9.41421 12.75 9 12.75C8.58579 12.75 8.25 12.4142 8.25 12V8C8.25 7.58579 8.58579 7.25 9 7.25ZM9.75 15C9.75 14.5858 9.41421 14.25 9 14.25C8.58579 14.25 8.25 14.5858 8.25 15V16C8.25 16.4142 8.58579 16.75 9 16.75C9.41421 16.75 9.75 16.4142 9.75 16V15ZM15 7.25C15.4142 7.25 15.75 7.58579 15.75 8V9C15.75 9.41421 15.4142 9.75 15 9.75C14.5858 9.75 14.25 9.41421 14.25 9V8C14.25 7.58579 14.5858 7.25 15 7.25ZM12.75 8C12.75 7.58579 12.4142 7.25 12 7.25C11.5858 7.25 11.25 7.58579 11.25 8V16C11.25 16.4142 11.5858 16.75 12 16.75C12.4142 16.75 12.75 16.4142 12.75 16V8ZM15 11.25C15.4142 11.25 15.75 11.5858 15.75 12V16C15.75 16.4142 15.4142 16.75 15 16.75C14.5858 16.75 14.25 16.4142 14.25 16V12C14.25 11.5858 14.5858 11.25 15 11.25ZM18.75 8C18.75 7.58579 18.4142 7.25 18 7.25C17.5858 7.25 17.25 7.58579 17.25 8V16C17.25 16.4142 17.5858 16.75 18 16.75C18.4142 16.75 18.75 16.4142 18.75 16V8Z" fill="#424B5A"/>
</svg>
