<svg width="24" height="24" viewBox="0 0 24 24" fill="none" xmlns="http://www.w3.org/2000/svg">
<path fill-rule="evenodd" clip-rule="evenodd" d="M16.6341 2.90059C16.8553 2.55038 16.7507 2.08717 16.4005 1.86598C16.0503 1.64479 15.5871 1.74939 15.3659 2.0996L5.23196 18.145C4.15443 17.995 3.62913 17.6762 3.31732 17.2096C2.93959 16.6444 2.75 15.6928 2.75 14.0001V10.0001C2.75 7.99474 3.01884 7.04192 3.53033 6.53043C4.04182 6.01893 4.99464 5.7501 7 5.7501C7.41421 5.7501 7.75 5.41431 7.75 5.0001C7.75 4.58588 7.41421 4.2501 7 4.2501C5.00536 4.2501 3.45818 4.48126 2.46967 5.46977C1.48116 6.45827 1.25 8.00546 1.25 10.0001V14.0001C1.25 15.7074 1.42041 17.0708 2.07018 18.0431C2.60343 18.841 3.38649 19.2794 4.36982 19.51L3.36588 21.0996C3.1447 21.4498 3.24929 21.913 3.59951 22.1342C3.94972 22.3554 4.41293 22.2508 4.63412 21.9006L14.7695 5.85292C15.8462 6.00171 16.3717 6.32213 16.6839 6.79245C17.0607 7.35989 17.25 8.31315 17.25 10.0001V14.0001C17.25 16.0055 16.9812 16.9583 16.4697 17.4698C15.9582 17.9813 15.0054 18.2501 13 18.2501C12.5858 18.2501 12.25 18.5859 12.25 19.0001C12.25 19.4143 12.5858 19.7501 13 19.7501C14.9946 19.7501 16.5418 19.5189 17.5303 18.5304C18.5188 17.5419 18.75 15.9947 18.75 14.0001V10.0001C18.75 8.29704 18.5793 6.93531 17.9336 5.96274C17.4007 5.1602 16.6169 4.71869 15.6318 4.48763L16.6341 2.90059ZM20.5 8.7501C20.0858 8.7501 19.75 9.08588 19.75 9.5001C19.75 9.91431 20.0858 10.2501 20.5 10.2501C20.8433 10.2501 21.0426 10.2799 21.1541 10.3129C21.182 10.3212 21.2008 10.3285 21.2129 10.334C21.2181 10.3518 21.2257 10.384 21.2324 10.4369C21.2488 10.5683 21.25 10.7357 21.25 11.0001V13.0001C21.25 13.2645 21.2488 13.4319 21.2324 13.5633C21.2257 13.6162 21.2181 13.6484 21.2129 13.6662C21.2008 13.6716 21.182 13.679 21.1541 13.6872C21.0426 13.7203 20.8433 13.7501 20.5 13.7501C20.0858 13.7501 19.75 14.0859 19.75 14.5001C19.75 14.9143 20.0858 15.2501 20.5 15.2501C21.2564 15.2501 21.9868 15.1427 22.4125 14.5751C22.6168 14.3027 22.6895 13.9998 22.7208 13.7494C22.7501 13.5148 22.75 13.2555 22.75 13.0262V13.0262L22.75 13.0001V11.0001L22.75 10.974V10.974C22.75 10.7447 22.7501 10.4854 22.7208 10.2508C22.6895 10.0004 22.6168 9.69753 22.4125 9.4251C21.9868 8.8575 21.2564 8.7501 20.5 8.7501ZM21.2311 10.344C21.231 10.344 21.2299 10.3433 21.2279 10.3418C21.2303 10.3432 21.2312 10.344 21.2311 10.344ZM21.2311 13.6562C21.2312 13.6562 21.2303 13.657 21.2279 13.6584C21.2299 13.6569 21.231 13.6562 21.2311 13.6562Z" fill="#424B5A"/>
</svg>
