<svg width="24" height="24" viewBox="0 0 24 24" fill="none" xmlns="http://www.w3.org/2000/svg">
<path fill-rule="evenodd" clip-rule="evenodd" d="M5 5H19C19.8284 5 20.5 5.67157 20.5 6.5V11H20H19.4719C19.5095 10.5867 19.5065 10.1475 19.5039 9.76632V9.76602C19.5033 9.67352 19.5027 9.58445 19.5027 9.5C19.5027 8.39543 18.6072 7.5 17.5027 7.5H14.5027C13.3981 7.5 12.5027 8.39543 12.5027 9.5C12.5027 9.58454 12.502 9.67372 12.5014 9.76632V9.76634C12.4988 10.1475 12.4958 10.5867 12.5334 11H11.4719C11.5095 10.5867 11.5065 10.1475 11.5039 9.76632C11.5033 9.67372 11.5027 9.58454 11.5027 9.5C11.5027 8.39543 10.6072 7.5 9.50265 7.5H6.50265C5.39808 7.5 4.50265 8.39543 4.50265 9.5C4.50265 9.58454 4.50204 9.67372 4.5014 9.76632C4.49878 10.1475 4.49577 10.5867 4.53342 11H4H3.5V6.5C3.5 5.67157 4.17157 5 5 5ZM6.00266 11H10.0027L10.0027 9.5C10.0027 9.22386 9.77879 9 9.50265 9H6.50265C6.22651 9 6.00265 9.22386 6.00265 9.5L6.00266 11ZM5.50265 12.5H4C3.17157 12.5 2.5 13.1716 2.5 14V17C2.5 17.8284 3.17157 18.5 4 18.5H20C20.8284 18.5 21.5 17.8284 21.5 17V14C21.5 13.1716 20.8284 12.5 20 12.5H18.5027H13.5027H10.5027H5.50265ZM18.0027 9.5L18.0027 11H14.0027L14.0027 9.5C14.0027 9.22386 14.2265 9 14.5027 9H17.5027C17.7788 9 18.0027 9.22386 18.0027 9.5ZM2 11.7639V6.5C2 4.84315 3.34315 3.5 5 3.5H19C20.6569 3.5 22 4.84315 22 6.5V11.7639C22.6137 12.3132 23 13.1115 23 14V17C23 18.6569 21.6569 20 20 20H19.75V21C19.75 21.4142 19.4142 21.75 19 21.75C18.5858 21.75 18.25 21.4142 18.25 21V20H5.75V21C5.75 21.4142 5.41421 21.75 5 21.75C4.58579 21.75 4.25 21.4142 4.25 21V20H4C2.34315 20 1 18.6569 1 17V14C1 13.1115 1.38625 12.3132 2 11.7639Z" fill="#424B5A"/>
<path fill-rule="evenodd" clip-rule="evenodd" d="M23 16.25C23 16.6642 22.6642 17 22.25 17L2.25 17C1.83579 17 1.5 16.6642 1.5 16.25C1.5 15.8358 1.83579 15.5 2.25 15.5L22.25 15.5C22.6642 15.5 23 15.8358 23 16.25Z" fill="#424B5A"/>
</svg>
