<svg width="24" height="24" viewBox="0 0 24 24" fill="none" xmlns="http://www.w3.org/2000/svg">
<path fill-rule="evenodd" clip-rule="evenodd" d="M9.75 5.5C9.75 5.09421 10.0942 4.75 10.5 4.75H13.5C13.9058 4.75 14.25 5.09421 14.25 5.5V7V7.71385C14.2498 7.72422 14.2498 7.73458 14.25 7.74492V8.5C14.25 8.90579 13.9058 9.25 13.5 9.25H10.5C10.0942 9.25 9.75 8.90579 9.75 8.5V7.7449C9.75021 7.73457 9.75022 7.72423 9.75 7.71387V7V5.5ZM7.54947 7.75H5.64648C5.32002 8.90425 4.25878 9.75 3 9.75C1.48122 9.75 0.25 8.51878 0.25 7C0.25 5.48122 1.48122 4.25 3 4.25C4.25878 4.25 5.32002 5.09575 5.64648 6.25H8.25V5.5C8.25 4.26579 9.26579 3.25 10.5 3.25H13.5C14.7342 3.25 15.75 4.26579 15.75 5.5V6.25H18.3535C18.68 5.09575 19.7412 4.25 21 4.25C22.5188 4.25 23.75 5.48122 23.75 7C23.75 8.51878 22.5188 9.75 21 9.75C19.7412 9.75 18.68 8.90425 18.3535 7.75H16.4505C18.3987 9.20134 19.6717 11.5737 19.7465 14.25H20C21.2442 14.25 22.25 15.2558 22.25 16.5V18.5C22.25 19.7442 21.2442 20.75 20 20.75H18C17.6653 20.75 17.3609 20.6738 17.083 20.5444C16.2965 20.2047 15.75 19.4089 15.75 18.5V16.5C15.75 15.2558 16.7558 14.25 18 14.25H18.2458C18.1736 12.0998 17.174 10.223 15.6811 9.05011C15.433 10.0222 14.5447 10.75 13.5 10.75H10.5C9.45527 10.75 8.56704 10.0222 8.31894 9.05011C6.82604 10.223 5.82638 12.0998 5.75419 14.25H6C7.24421 14.25 8.25 15.2558 8.25 16.5V18.5C8.25 19.4089 7.70351 20.2047 6.91696 20.5444C6.63914 20.6738 6.33466 20.75 6 20.75H4C2.75579 20.75 1.75 19.7442 1.75 18.5V16.5C1.75 15.2558 2.75579 14.25 4 14.25H4.25349C4.32835 11.5737 5.60127 9.20134 7.54947 7.75ZM5.0186 15.75H4C3.58421 15.75 3.25 16.0842 3.25 16.5V18.5C3.25 18.9158 3.58421 19.25 4 19.25H6C6.09967 19.25 6.19055 19.2288 6.28894 19.1822C6.29846 19.1777 6.30807 19.1734 6.31777 19.1693C6.56332 19.0654 6.75 18.8054 6.75 18.5V16.5C6.75 16.0842 6.41579 15.75 6 15.75H5.03953C5.03254 15.7501 5.02556 15.7501 5.0186 15.75ZM18.9814 15.75H18.9605H18C17.5842 15.75 17.25 16.0842 17.25 16.5V18.5C17.25 18.8054 17.4367 19.0654 17.6822 19.1693C17.6919 19.1734 17.7015 19.1777 17.7111 19.1822C17.8095 19.2288 17.9003 19.25 18 19.25H20C20.4158 19.25 20.75 18.9158 20.75 18.5V16.5C20.75 16.0842 20.4158 15.75 20 15.75H18.9814ZM3 5.75C2.30964 5.75 1.75 6.30964 1.75 7C1.75 7.69036 2.30964 8.25 3 8.25C3.69036 8.25 4.25 7.69036 4.25 7C4.25 6.30964 3.69036 5.75 3 5.75ZM21 5.75C20.3096 5.75 19.75 6.30964 19.75 7C19.75 7.69036 20.3096 8.25 21 8.25C21.6904 8.25 22.25 7.69036 22.25 7C22.25 6.30964 21.6904 5.75 21 5.75Z" fill="#424B5A"/>
</svg>
