<svg width="24" height="24" viewBox="0 0 24 24" fill="none" xmlns="http://www.w3.org/2000/svg">
<path fill-rule="evenodd" clip-rule="evenodd" d="M2 1.75C1.58579 1.75 1.25 2.08579 1.25 2.5C1.25 2.91421 1.58579 3.25 2 3.25H2.92001V14.47C2.92001 15.684 3.48996 16.8379 4.47123 17.5709L9.68087 21.4706C11.0572 22.4998 12.9531 22.4995 14.3295 21.4704L19.5392 17.5706C20.5205 16.8375 21.09 15.684 21.09 14.47V3.25H22C22.4142 3.25 22.75 2.91421 22.75 2.5C22.75 2.08579 22.4142 1.75 22 1.75H21.09H2.92001H2ZM19.59 3.25H4.42001V14.47C4.42001 15.2158 4.77032 15.9221 5.3688 16.3691L10.5791 20.2693C11.4228 20.9002 12.5872 20.9002 13.4309 20.2693L18.6405 16.3696C19.239 15.9226 19.59 15.2158 19.59 14.47V3.25ZM7.25 8C7.25 7.58579 7.58579 7.25 8 7.25H16C16.4142 7.25 16.75 7.58579 16.75 8C16.75 8.41421 16.4142 8.75 16 8.75H8C7.58579 8.75 7.25 8.41421 7.25 8ZM8 12.25C7.58579 12.25 7.25 12.5858 7.25 13C7.25 13.4142 7.58579 13.75 8 13.75H16C16.4142 13.75 16.75 13.4142 16.75 13C16.75 12.5858 16.4142 12.25 16 12.25H8Z" fill="#424B5A"/>
</svg>
