<svg width="24" height="24" viewBox="0 0 24 24" fill="none" xmlns="http://www.w3.org/2000/svg">
<path fill-rule="evenodd" clip-rule="evenodd" d="M2.71997 12C2.71997 9.10421 5.07418 6.75 7.96997 6.75C9.31736 6.75 10.5395 7.25637 11.4665 8.0959L11.4665 8.09594L11.4725 8.10129C11.4725 8.1013 11.4725 8.1013 11.4725 8.10131C12.5468 9.05329 13.22 10.4511 13.22 12C13.22 13.5489 12.5468 14.9467 11.4725 15.8987L11.4725 15.8987L11.4665 15.9041L11.4665 15.9041C10.5395 16.7436 9.31736 17.25 7.96997 17.25C5.07418 17.25 2.71997 14.8958 2.71997 12ZM11.97 17.4295C10.8517 18.2609 9.46876 18.75 7.96997 18.75C4.24576 18.75 1.21997 15.7242 1.21997 12C1.21997 8.27579 4.24576 5.25 7.96997 5.25C9.46876 5.25 10.8517 5.73912 11.97 6.57054C13.0882 5.73912 14.4712 5.25 15.97 5.25C19.6942 5.25 22.72 8.27579 22.72 12C22.72 15.7242 19.6942 18.75 15.97 18.75C14.4712 18.75 13.0882 18.2609 11.97 17.4295ZM13.0937 16.3865C13.9183 16.9337 14.905 17.25 15.97 17.25C18.8658 17.25 21.22 14.8958 21.22 12C21.22 9.10421 18.8658 6.75 15.97 6.75C14.905 6.75 13.9183 7.06633 13.0937 7.61348C14.1093 8.79071 14.72 10.3288 14.72 12C14.72 13.4922 14.2331 14.8783 13.4058 15.9962C13.3066 16.1302 13.2025 16.2604 13.0937 16.3865Z" fill="#424B5A"/>
</svg>
