<svg width="24" height="24" viewBox="0 0 24 24" fill="none" xmlns="http://www.w3.org/2000/svg">
<path fill-rule="evenodd" clip-rule="evenodd" d="M12.4983 1.38652C13.2276 1.04672 14.0016 1.38376 14.579 1.86299L14.5803 1.86406L18.4302 5.07393C18.4301 5.07389 18.4302 5.07397 18.4302 5.07393C19.3232 5.81828 19.3367 7.09892 18.4983 7.87162L18.4968 7.87299L13.9941 12.0001L18.4983 16.1286C19.3367 16.9013 19.3234 18.1818 18.4303 18.9261C18.4303 18.9262 18.4304 18.9261 18.4303 18.9261L14.5803 22.1361L14.579 22.1372C14.0016 22.6164 13.2276 22.9535 12.4983 22.6137C11.7669 22.2729 11.53 21.4617 11.53 20.7101V14.2587L6.14679 19.193C5.84144 19.4729 5.36702 19.4522 5.08714 19.1469C4.80725 18.8415 4.8279 18.3671 5.13325 18.0872L11.53 12.224V11.7762L5.13325 5.91297C4.8279 5.63308 4.80725 5.15866 5.08714 4.85331C5.36702 4.54796 5.84144 4.52732 6.14679 4.8072L11.53 9.74146V3.29011C11.53 2.53852 11.7669 1.72728 12.4983 1.38652ZM13.03 13.1511L17.4817 17.2316C17.4815 17.2314 17.4819 17.2318 17.4817 17.2316C17.6626 17.3988 17.6565 17.6184 17.4699 17.7739L13.621 20.983C13.6208 20.9832 13.6212 20.9828 13.621 20.983C13.4271 21.1438 13.2802 21.2133 13.1919 21.2379C13.1653 21.2454 13.1466 21.2483 13.1344 21.2492C13.1276 21.2396 13.1184 21.224 13.1076 21.2002C13.0706 21.1179 13.03 20.9623 13.03 20.7101V13.1511ZM13.03 10.849V3.29011C13.03 3.03786 13.0706 2.88228 13.1076 2.80002C13.1184 2.77616 13.1276 2.76064 13.1344 2.75098C13.1466 2.75195 13.1653 2.75483 13.1919 2.76227C13.2802 2.78694 13.4265 2.85586 13.6204 3.01672C13.6202 3.01656 13.6206 3.01689 13.6204 3.01672L17.4697 6.22614C17.6563 6.38163 17.6632 6.60085 17.4823 6.76803C17.4821 6.76822 17.4825 6.76785 17.4823 6.76803L13.03 10.849Z" fill="#424B5A"/>
</svg>
