<svg width="24" height="24" viewBox="0 0 24 24" fill="none" xmlns="http://www.w3.org/2000/svg">
<path fill-rule="evenodd" clip-rule="evenodd" d="M2.75 12C2.75 6.89137 6.89137 2.75 12 2.75C17.1086 2.75 21.25 6.89137 21.25 12C21.25 17.1086 17.1086 21.25 12 21.25C6.89137 21.25 2.75 17.1086 2.75 12ZM12 1.25C6.06294 1.25 1.25 6.06294 1.25 12C1.25 17.9371 6.06294 22.75 12 22.75C17.9371 22.75 22.75 17.9371 22.75 12C22.75 6.06294 17.9371 1.25 12 1.25ZM13.6101 6.30401C13.2668 6.01794 12.6994 5.72451 12.1187 6.0024C11.544 6.27745 11.41 6.89723 11.41 7.34017V10.0183L9.09684 7.89739C8.79154 7.61745 8.31711 7.63802 8.03717 7.94332C7.75724 8.24862 7.7778 8.72305 8.0831 9.00298L11.3573 12.0052L8.0831 15.0074C7.7778 15.2873 7.75724 15.7617 8.03717 16.067C8.31711 16.3723 8.79154 16.3929 9.09684 16.113L11.41 13.992V16.6702C11.41 17.1212 11.5514 17.737 12.1283 18.007C12.7037 18.2763 13.2658 17.9922 13.609 17.7072L13.6107 17.7059L15.6682 15.988L15.6697 15.9867C16.3051 15.4594 16.3364 14.5249 15.7138 13.9646L13.5768 12.0052L15.7138 10.0457C16.3364 9.48542 16.3051 8.55094 15.6697 8.02365L15.6682 8.02238L13.6101 6.30401ZM14.5699 14.9508L12.91 13.4288V16.3368L14.5699 14.9508ZM12.91 7.67355V10.5815L14.5699 9.0595L12.91 7.67355Z" fill="#424B5A"/>
</svg>
