<svg width="24" height="24" viewBox="0 0 24 24" fill="none" xmlns="http://www.w3.org/2000/svg">
<path fill-rule="evenodd" clip-rule="evenodd" d="M4.75 7C4.75 5.67044 5.18991 4.62075 5.90533 3.90533C6.62075 3.18991 7.67044 2.75 9 2.75H15C16.3296 2.75 17.3793 3.18991 18.0947 3.90533C18.8101 4.62075 19.25 5.67044 19.25 7V17C19.25 18.3296 18.8101 19.3793 18.0947 20.0947C17.3793 20.8101 16.3296 21.25 15 21.25H9C7.67044 21.25 6.62075 20.8101 5.90533 20.0947C5.18991 19.3793 4.75 18.3296 4.75 17V7ZM9 1.25C7.32956 1.25 5.87925 1.81009 4.84467 2.84467C3.81009 3.87925 3.25 5.32956 3.25 7V17C3.25 18.6704 3.81009 20.1207 4.84467 21.1553C5.87925 22.1899 7.32956 22.75 9 22.75H15C16.6704 22.75 18.1207 22.1899 19.1553 21.1553C20.1899 20.1207 20.75 18.6704 20.75 17V7C20.75 5.32956 20.1899 3.87925 19.1553 2.84467C18.1207 1.81009 16.6704 1.25 15 1.25H9ZM13.6101 6.30401C13.2668 6.01794 12.6994 5.72451 12.1187 6.0024C11.544 6.27745 11.41 6.89723 11.41 7.34017V10.0183L9.09684 7.89739C8.79154 7.61745 8.31711 7.63802 8.03717 7.94332C7.75724 8.24862 7.7778 8.72305 8.0831 9.00298L11.3573 12.0052L8.0831 15.0074C7.7778 15.2873 7.75724 15.7617 8.03717 16.067C8.31711 16.3723 8.79154 16.3929 9.09684 16.113L11.41 13.992V16.6702C11.41 17.1212 11.5514 17.737 12.1283 18.007C12.7037 18.2763 13.2658 17.9922 13.609 17.7072L13.6107 17.7059L15.6682 15.988L15.6697 15.9867C16.3051 15.4594 16.3364 14.5249 15.7138 13.9646L13.5768 12.0052L15.7138 10.0457C16.3364 9.48542 16.3051 8.55094 15.6697 8.02365L15.6682 8.02238L13.6101 6.30401ZM14.5699 14.9508L12.91 13.4288V16.3368L14.5699 14.9508ZM12.91 7.67355V10.5815L14.5699 9.0595L12.91 7.67355Z" fill="#424B5A"/>
</svg>
