<svg width="24" height="24" viewBox="0 0 24 24" fill="none" xmlns="http://www.w3.org/2000/svg">
<path fill-rule="evenodd" clip-rule="evenodd" d="M11.4983 1.38652C12.2276 1.04672 13.0016 1.38376 13.579 1.86299L13.5803 1.86406L17.4302 5.07393C18.3232 5.81828 18.3367 7.09892 17.4983 7.87162L17.4968 7.87299L12.9941 12.0001L17.4983 16.1286C18.3367 16.9013 18.3234 18.1818 17.4303 18.9261L13.5803 22.1361L13.579 22.1372C13.0016 22.6164 12.2276 22.9535 11.4983 22.6137C10.7669 22.2729 10.53 21.4617 10.53 20.7101V14.2587L5.14679 19.193C4.84144 19.4729 4.36702 19.4522 4.08714 19.1469C3.80725 18.8415 3.8279 18.3671 4.13325 18.0872L10.53 12.224V11.7762L4.13325 5.91297C3.8279 5.63308 3.80725 5.15866 4.08714 4.85331C4.36702 4.54796 4.84144 4.52732 5.14679 4.8072L10.53 9.74146V3.29011C10.53 2.53852 10.7669 1.72728 11.4983 1.38652ZM12.03 13.1511L16.4817 17.2316C16.6626 17.3988 16.6565 17.6184 16.4699 17.7739L12.621 20.983C12.4271 21.1438 12.2802 21.2133 12.1919 21.2379C12.1653 21.2454 12.1466 21.2483 12.1344 21.2492C12.1276 21.2396 12.1184 21.224 12.1076 21.2002C12.0706 21.1179 12.03 20.9623 12.03 20.7101V13.1511ZM12.03 10.849V3.29011C12.03 3.03786 12.0706 2.88228 12.1076 2.80002C12.1184 2.77616 12.1276 2.76064 12.1344 2.75098C12.1466 2.75195 12.1653 2.75483 12.1919 2.76227C12.2802 2.78694 12.4265 2.85586 12.6204 3.01672L16.4697 6.22614C16.6563 6.38163 16.6632 6.60085 16.4823 6.76803L12.03 10.849ZM5 11.75C4.86193 11.75 4.75 11.8619 4.75 12C4.75 12.1381 4.86193 12.25 5 12.25C5.13807 12.25 5.25 12.1381 5.25 12C5.25 11.8619 5.13807 11.75 5 11.75ZM3.25 12C3.25 11.0335 4.0335 10.25 5 10.25C5.9665 10.25 6.75 11.0335 6.75 12C6.75 12.9665 5.9665 13.75 5 13.75C4.0335 13.75 3.25 12.9665 3.25 12ZM18.75 12C18.75 11.8619 18.8619 11.75 19 11.75C19.1381 11.75 19.25 11.8619 19.25 12C19.25 12.1381 19.1381 12.25 19 12.25C18.8619 12.25 18.75 12.1381 18.75 12ZM19 10.25C18.0335 10.25 17.25 11.0335 17.25 12C17.25 12.9665 18.0335 13.75 19 13.75C19.9665 13.75 20.75 12.9665 20.75 12C20.75 11.0335 19.9665 10.25 19 10.25Z" fill="#424B5A"/>
</svg>
