<svg width="24" height="24" viewBox="0 0 24 24" fill="none" xmlns="http://www.w3.org/2000/svg">
<path fill-rule="evenodd" clip-rule="evenodd" d="M7.75 5.03C7.75 4.13374 7.97158 3.59968 8.28296 3.28519C8.59298 2.97207 9.11751 2.75 10 2.75H14C14.8825 2.75 15.407 2.97207 15.717 3.28519C16.0284 3.59968 16.25 4.13374 16.25 5.03V12.08C16.25 12.9163 15.9604 13.2861 15.7187 13.4183C15.4708 13.554 14.9834 13.5999 14.2475 13.1579L14.2464 13.1572L12.9287 12.3586L12.9259 12.3569C12.634 12.1818 12.2981 12.115 12 12.115C11.7019 12.115 11.366 12.1818 11.0741 12.3569L9.75358 13.1572L9.75247 13.1579C9.01657 13.5999 8.52921 13.554 8.2813 13.4183C8.03962 13.2861 7.75 12.9163 7.75 12.08V5.03ZM10 1.25C8.88249 1.25 7.90702 1.53293 7.21704 2.22982C6.67638 2.77588 6.38858 3.4979 6.28987 4.32683C4.64448 4.67322 3.37057 5.40393 2.51436 6.6422C1.60955 7.95076 1.25 9.71582 1.25 11.9V14.93C1.25 17.5274 1.75953 19.5406 3.09204 20.8864C4.42637 22.2341 6.42443 22.75 9 22.75H15C17.5756 22.75 19.5736 22.2341 20.908 20.8864C22.2405 19.5406 22.75 17.5274 22.75 14.93V11.9C22.75 9.67999 22.3778 7.88963 21.4379 6.57301C20.581 5.37257 19.3234 4.66231 17.7098 4.32441C17.6109 3.49649 17.3231 2.77535 16.783 2.22982C16.093 1.53293 15.1175 1.25 14 1.25H10ZM17.75 5.87369V12.08C17.75 13.2337 17.3346 14.2439 16.4388 14.7342C15.5493 15.2209 14.4671 15.04 13.4736 14.4428L13.4713 14.4414L12.1541 13.6431C12.1532 13.6426 12.1494 13.6405 12.1426 13.6378C12.1345 13.6346 12.1231 13.6308 12.1085 13.6272C12.0784 13.6199 12.041 13.615 12 13.615C11.959 13.615 11.9216 13.6199 11.8915 13.6272C11.8769 13.6308 11.8655 13.6346 11.8574 13.6378C11.8506 13.6405 11.847 13.6425 11.8461 13.643L10.5287 14.4414L10.5264 14.4428C9.53295 15.04 8.45066 15.2209 7.5612 14.7342C6.66538 14.2439 6.25 13.2337 6.25 12.08V5.87653C5.07414 6.18386 4.28141 6.72408 3.74814 7.4953C3.09545 8.43924 2.75 9.84418 2.75 11.9V14.93C2.75 17.3826 3.24047 18.9044 4.15796 19.8311C5.07363 20.7559 6.57557 21.25 9 21.25H15C17.4244 21.25 18.9264 20.7559 19.842 19.8311C20.7595 18.9044 21.25 17.3826 21.25 14.93V11.9C21.25 9.81001 20.8922 8.39037 20.2171 7.44449C19.6854 6.69967 18.902 6.17367 17.75 5.87369Z" fill="#424B5A"/>
</svg>
