<svg width="24" height="24" viewBox="0 0 24 24" fill="none" xmlns="http://www.w3.org/2000/svg">
<path fill-rule="evenodd" clip-rule="evenodd" d="M4.22166 1.9223C2.59168 1.78596 1.25 3.03422 1.25 4.65976V16.7398C1.25 18.0705 2.30319 19.2932 3.64189 19.4633L3.92752 19.5027L3.93065 19.5032C6.00894 19.7809 9.27067 20.8518 11.1101 21.8578C11.1182 21.8622 11.1264 21.8665 11.1346 21.8706L11.1626 21.8846C11.4301 22.0286 11.7305 22.0823 11.9938 22.0823C12.2587 22.0823 12.5663 22.0278 12.8374 21.8736C14.6756 20.8601 17.9391 19.7821 20.0246 19.5038L20.3503 19.4643L20.353 19.464C21.6941 19.2963 22.75 18.0721 22.75 16.7398V4.66976C22.75 3.03797 21.4092 1.81303 19.8008 1.92976H19.77C19.7486 1.92976 19.7273 1.93068 19.7059 1.9325C17.4869 2.12271 14.1818 3.23119 12.3005 4.41492L12.1345 4.52235C12.1313 4.52385 12.1208 4.52845 12.1015 4.53326C12.0743 4.54004 12.0391 4.54476 12 4.54476C11.9609 4.54476 11.9257 4.54004 11.8985 4.53326C11.8782 4.52819 11.8676 4.52334 11.865 4.52213L11.6113 4.36989C9.73026 3.19878 6.44026 2.10219 4.22166 1.9223ZM2.75 4.65976C2.75 3.90569 3.34769 3.35415 4.0972 3.41713L4.09948 3.41732C6.07868 3.57754 9.14349 4.59887 10.8231 5.64626L11.0801 5.80049C11.1353 5.83439 11.1921 5.86422 11.25 5.89031V20.2429C9.21388 19.2493 6.18684 18.2916 4.13096 18.0166L4.12935 18.0164L3.84249 17.9767L3.83303 17.9756C3.25414 17.9032 2.75 17.3274 2.75 16.7398V4.65976ZM12.75 20.2308C14.7882 19.2382 17.786 18.2884 19.8311 18.0163L19.8397 18.0152L20.167 17.9756L20.1681 17.9754C20.7465 17.9024 21.25 17.327 21.25 16.7398V4.66976C21.25 3.91292 20.6495 3.36354 19.8928 3.42713C19.8719 3.42888 19.851 3.42976 19.83 3.42976H19.8028C17.8225 3.60749 14.7741 4.63221 13.1033 5.68209L12.9256 5.79711C12.8686 5.83246 12.8099 5.86346 12.75 5.89044V20.2308ZM4.75 8.48976C4.75 8.07555 5.08579 7.73976 5.5 7.73976H7.75C8.16421 7.73976 8.5 8.07555 8.5 8.48976C8.5 8.90398 8.16421 9.23976 7.75 9.23976H5.5C5.08579 9.23976 4.75 8.90398 4.75 8.48976ZM5.5 10.7398C5.08579 10.7398 4.75 11.0756 4.75 11.4898C4.75 11.904 5.08579 12.2398 5.5 12.2398H8.5C8.91421 12.2398 9.25 11.904 9.25 11.4898C9.25 11.0756 8.91421 10.7398 8.5 10.7398H5.5Z" fill="#424B5A"/>
</svg>
