<svg width="24" height="24" viewBox="0 0 24 24" fill="none" xmlns="http://www.w3.org/2000/svg">
<path fill-rule="evenodd" clip-rule="evenodd" d="M10.2972 3.13399C10.7275 2.89241 11.3428 2.75 12 2.75C12.6572 2.75 13.2725 2.89242 13.7029 3.134L19.0467 6.09615C19.3976 6.29042 19.7496 6.61399 20.0518 7.01928L11.9998 11.6834L3.9459 7.02248C4.2487 6.61564 4.60185 6.29077 4.95362 6.09599L10.2936 3.13597L10.2972 3.13399ZM3.26742 8.36291C3.18383 8.64598 3.14001 8.92051 3.14001 9.17V14.83C3.14001 15.354 3.33324 15.9883 3.68231 16.5803C4.03135 17.1723 4.49336 17.6492 4.95332 17.9039L10.2972 20.866C10.5576 21.0123 10.8858 21.1221 11.25 21.1861V12.9825L3.26742 8.36291ZM12.75 21.1861C13.1142 21.1221 13.4424 21.0123 13.7029 20.8661L13.7076 20.8634L14.8222 20.2483C14.4548 19.5773 14.25 18.807 14.25 18C14.25 17.4397 14.3468 16.9006 14.5256 16.3997C14.8235 15.5647 15.3491 14.836 16.0332 14.293C16.849 13.6429 17.8818 13.25 19 13.25C19.6625 13.25 20.29 13.3838 20.86 13.6284V9.17C20.86 8.91937 20.8158 8.64348 20.7315 8.35904L12.75 12.9823V21.1861ZM22.36 14.6434V9.17C22.36 8.31395 22.0582 7.41831 21.6098 6.65782C21.1614 5.89736 20.5235 5.19939 19.7736 4.78406L14.4372 1.82601L14.4353 1.82498C13.726 1.42729 12.8421 1.25 12 1.25C11.158 1.25 10.2741 1.42729 9.5647 1.82498L4.2267 4.78389C3.47679 5.19922 2.83862 5.89736 2.39021 6.65782C1.94179 7.41831 1.64001 8.31395 1.64001 9.17V14.83C1.64001 15.6861 1.94179 16.5817 2.39021 17.3422C2.83862 18.1027 3.47649 18.8007 4.2264 19.216L9.56286 22.174L9.56467 22.175C10.274 22.5727 11.1579 22.75 12 22.75C12.8419 22.75 13.7255 22.5728 14.4348 22.1754L14.4372 22.174L15.7493 21.4499C16.5908 22.254 17.7378 22.75 19 22.75C20.1927 22.75 21.2871 22.3134 22.1221 21.5662C22.4925 21.2534 22.8131 20.8725 23.0632 20.4459C23.5023 19.7306 23.75 18.8874 23.75 18C23.75 16.7499 23.261 15.6227 22.4839 14.7744C22.4462 14.7329 22.4048 14.6887 22.36 14.6434ZM15.9383 16.904C16.1418 16.3334 16.5005 15.8371 16.9662 15.4675L16.9662 15.4675L16.9675 15.4665C17.5316 15.0169 18.2385 14.75 19 14.75C19.8139 14.75 20.54 15.0411 21.1073 15.5354C21.1222 15.5484 21.1375 15.5607 21.1532 15.5724C21.2176 15.6212 21.29 15.691 21.375 15.7845L21.3771 15.7868C21.9194 16.3784 22.25 17.1507 22.25 18C22.25 18.6094 22.0795 19.1833 21.7816 19.6663L21.7722 19.6821C21.6052 19.9684 21.391 20.2216 21.1481 20.4254C21.1414 20.431 21.1348 20.4367 21.1283 20.4425C20.5645 20.9499 19.8227 21.25 19 21.25C18.0178 21.25 17.1418 20.8116 16.5592 20.1253C16.5406 20.1011 16.5235 20.0812 16.5096 20.0659C16.4987 20.0539 16.4881 20.0427 16.4799 20.0344L16.4791 20.0335L16.4702 20.0229L16.4695 20.0219V20.0219C16.3736 19.9101 16.2944 19.8002 16.2337 19.6923V19.6923L16.2333 19.6915L16.2302 19.6861L16.2266 19.68L16.2261 19.6791L16.2256 19.6782L16.2184 19.6663V19.6663C15.9205 19.1833 15.75 18.6094 15.75 18C15.75 17.6155 15.8162 17.2464 15.9383 16.904ZM17.4184 16.4006C17.7106 16.107 18.1855 16.1059 18.4791 16.3981L19.0151 16.9316L19.5209 16.4281C19.8145 16.1359 20.2894 16.1371 20.5816 16.4306C20.8738 16.7242 20.8726 17.1991 20.5791 17.4913L20.0783 17.9897L20.5991 18.5081C20.8927 18.8003 20.8938 19.2752 20.6016 19.5687C20.3094 19.8623 19.8345 19.8635 19.5409 19.5713L19.0151 19.0479L18.4591 19.6013C18.1655 19.8935 17.6906 19.8924 17.3984 19.5988C17.1062 19.3052 17.1073 18.8303 17.4009 18.5381L17.9519 17.9897L17.4209 17.4613C17.1274 17.1691 17.1262 16.6942 17.4184 16.4006Z" fill="#424B5A"/>
</svg>
