<svg width="24" height="24" viewBox="0 0 24 24" fill="none" xmlns="http://www.w3.org/2000/svg">
<path fill-rule="evenodd" clip-rule="evenodd" d="M10.2971 3.13399C10.7275 2.89241 11.3428 2.75 12 2.75C12.6572 2.75 13.2725 2.89242 13.7029 3.134L19.0467 6.09615C19.3975 6.29042 19.7496 6.61399 20.0517 7.01927L11.9998 11.6834L3.94589 7.02247C4.24869 6.61564 4.60183 6.29077 4.9536 6.09599L10.2936 3.13597L10.2971 3.13399ZM3.26742 8.36291C3.18383 8.64598 3.14001 8.92051 3.14001 9.17V14.83C3.14001 15.354 3.33324 15.9883 3.68231 16.5803C4.03134 17.1723 4.49335 17.6492 4.95331 17.9039L10.2971 20.866C10.5576 21.0123 10.8858 21.1221 11.25 21.1861V12.9825L3.26742 8.36291ZM12.75 21.1861C13.1142 21.1221 13.4424 21.0123 13.7029 20.8661L13.7076 20.8634L14.8193 20.2498C14.4692 19.6094 14.2611 18.8707 14.2501 18.094C14.2157 16.5977 14.882 15.2437 15.9498 14.3538L15.9532 14.351L15.9532 14.3511C16.7541 13.6915 17.774 13.2741 18.8935 13.2502C19.5914 13.2345 20.2573 13.3699 20.86 13.6265V9.17C20.86 8.91937 20.8158 8.64348 20.7314 8.35904L12.75 12.9823V21.1861ZM22.36 14.6404V9.17C22.36 8.31395 22.0582 7.41831 21.6098 6.65782C21.1614 5.89736 20.5235 5.19939 19.7736 4.78406L14.4372 1.82601L14.4353 1.82498C13.7259 1.42729 12.8421 1.25 12 1.25C11.1579 1.25 10.2741 1.42729 9.56468 1.82498L4.22669 4.78389C3.47677 5.19922 2.8386 5.89736 2.3902 6.65782C1.94178 7.41831 1.64001 8.31395 1.64001 9.17V14.83C1.64001 15.6861 1.94178 16.5817 2.3902 17.3422C2.8386 18.1027 3.47648 18.8007 4.22639 19.216L9.56284 22.174L9.56465 22.175C10.274 22.5727 11.1579 22.75 12 22.75C12.8418 22.75 13.7255 22.5728 14.4347 22.1754L14.4372 22.174L15.7387 21.4557C16.6087 22.2824 17.7969 22.7765 19.0954 22.7498V22.7499L19.1022 22.7497C20.2938 22.7143 21.3749 22.2534 22.1959 21.4937C22.549 21.1751 22.8692 20.7853 23.1108 20.3528C23.5354 19.63 23.7733 18.7854 23.7498 17.8915C23.7206 16.6188 23.1941 15.4745 22.36 14.6404ZM16.5485 20.1333C16.5258 20.0942 16.4994 20.0569 16.4694 20.0219C16.3736 19.9101 16.2943 19.8002 16.2337 19.6923C16.2287 19.6836 16.2236 19.6749 16.2184 19.6663C15.9205 19.1833 15.75 18.6094 15.75 18C15.75 16.9746 16.221 16.0588 16.9662 15.4675L16.9675 15.4665C17.5316 15.0169 18.2385 14.75 19 14.75C19.8138 14.75 20.54 15.0411 21.1073 15.5354C21.1351 15.5597 21.1645 15.5817 21.1951 15.6013C21.826 16.1789 22.2293 17.0034 22.2502 17.9269L22.2503 17.93C22.2663 18.532 22.1062 19.1039 21.8141 19.5988L21.8044 19.6158C21.6475 19.8981 21.4312 20.1639 21.1883 20.3825L21.1882 20.3825L21.18 20.3901C20.6222 20.9074 19.8862 21.2249 19.0611 21.2502C18.0534 21.2699 17.1494 20.8339 16.5485 20.1333ZM19.25 16C19.6642 16 20 16.3358 20 16.75V18.25C20 18.5134 19.8618 18.7576 19.6359 18.8931L18.3859 19.6431C18.0307 19.8562 17.57 19.7411 17.3569 19.3859C17.1438 19.0307 17.2589 18.57 17.6141 18.3569L18.5 17.8254V16.75C18.5 16.3358 18.8358 16 19.25 16Z" fill="#424B5A"/>
</svg>
