<svg width="24" height="24" viewBox="0 0 24 24" fill="none" xmlns="http://www.w3.org/2000/svg">
<path fill-rule="evenodd" clip-rule="evenodd" d="M14.4372 1.82601L14.4353 1.82498C13.7259 1.42729 12.8421 1.25 12 1.25C11.1579 1.25 10.2741 1.42729 9.56468 1.82498L4.22639 4.78406C3.47648 5.19939 2.8386 5.89736 2.3902 6.65782C1.94178 7.41831 1.64001 8.31395 1.64001 9.17V14.83C1.64001 15.6861 1.94178 16.5817 2.3902 17.3422C2.8386 18.1027 3.47677 18.8008 4.22669 19.2161L9.56284 22.174L9.56465 22.175C10.274 22.5728 11.1579 22.75 12 22.75C12.8428 22.75 13.7275 22.5725 14.4372 22.174C14.7983 21.9713 14.9268 21.5141 14.724 21.1529C14.5212 20.7917 14.064 20.6633 13.7029 20.8661C13.4424 21.0123 13.1142 21.1221 12.75 21.1861V12.9823L20.7314 8.35904C20.8158 8.64348 20.86 8.91937 20.86 9.17V12.83C20.86 13.2442 21.1958 13.58 21.61 13.58C22.0242 13.58 22.36 13.2442 22.36 12.83V9.17C22.36 8.31395 22.0582 7.41831 21.6098 6.65782C21.1614 5.89736 20.5232 5.19922 19.7733 4.78389L14.4372 1.82601ZM20.0517 7.01927C19.7496 6.61399 19.3975 6.29042 19.0467 6.09615L13.7029 3.134C13.2725 2.89242 12.6572 2.75 12 2.75C11.3428 2.75 10.7275 2.89241 10.2971 3.13399L10.2936 3.13597L4.9536 6.09599C4.60183 6.29077 4.24869 6.61564 3.94589 7.02247L11.9998 11.6834L20.0517 7.01927ZM3.26742 8.36291C3.18383 8.64598 3.14001 8.92051 3.14001 9.17V14.83C3.14001 15.354 3.33324 15.9883 3.68231 16.5803C4.03134 17.1723 4.49335 17.6492 4.95331 17.9039L10.2971 20.866C10.5576 21.0123 10.8858 21.1221 11.25 21.1861V12.9825L3.26742 8.36291ZM19.2 15.75C17.8469 15.75 16.75 16.8469 16.75 18.2C16.75 19.5531 17.8469 20.65 19.2 20.65C20.5531 20.65 21.65 19.5531 21.65 18.2C21.65 16.8469 20.5531 15.75 19.2 15.75ZM15.25 18.2C15.25 16.0185 17.0185 14.25 19.2 14.25C21.3815 14.25 23.15 16.0185 23.15 18.2C23.15 19.0212 22.8994 19.784 22.4704 20.4158C22.4911 20.4325 22.5111 20.4505 22.5303 20.4697L23.5303 21.4697C23.8232 21.7626 23.8232 22.2374 23.5303 22.5303C23.2374 22.8232 22.7626 22.8232 22.4697 22.5303L21.4697 21.5303C21.4505 21.5111 21.4325 21.4911 21.4158 21.4705C20.784 21.8994 20.0213 22.15 19.2 22.15C17.0185 22.15 15.25 20.3815 15.25 18.2Z" fill="#424B5A"/>
</svg>
