<svg width="24" height="24" viewBox="0 0 24 24" fill="none" xmlns="http://www.w3.org/2000/svg">
<path fill-rule="evenodd" clip-rule="evenodd" d="M11.6646 1.32918C11.8758 1.22361 12.1243 1.22361 12.3354 1.32918L14.5554 2.43918C14.8665 2.59474 15.0299 2.94379 14.95 3.28232C14.87 3.62084 14.5679 3.86 14.22 3.86H9.78003C9.43219 3.86 9.13 3.62084 9.05009 3.28232C8.97017 2.94379 9.1335 2.59474 9.44462 2.43918L11.6646 1.32918ZM6.00085 4.99459C6.18609 5.36508 6.03592 5.81558 5.66544 6.00082L4.78708 6.44L5.66544 6.87918C6.03592 7.06442 6.18609 7.51493 6.00085 7.88541C5.81561 8.2559 5.3651 8.40607 4.99462 8.22082L3.86003 7.65353V9.22C3.86003 9.63421 3.52424 9.97 3.11003 9.97C2.69581 9.97 2.36003 9.63421 2.36003 9.22V6.45625C2.35991 6.45083 2.35986 6.44542 2.35986 6.44C2.35982 6.38263 2.36638 6.32481 2.37993 6.26765C2.40072 6.17921 2.43717 6.09681 2.4862 6.02352C2.51388 5.98195 2.54522 5.94388 2.57955 5.90953C2.61391 5.87518 2.652 5.84383 2.69359 5.81615C2.72395 5.79584 2.75588 5.77769 2.78915 5.76192L4.99462 4.65918C5.3651 4.47394 5.81561 4.62411 6.00085 4.99459ZM2.78139 5.7658C2.70738 5.80181 2.63897 5.85009 2.57955 5.90953C2.51202 5.97704 2.45889 6.05615 2.4218 6.14189C2.42723 6.12938 2.43303 6.11694 2.43921 6.10459M17.9992 4.99459C18.1844 4.62411 18.635 4.47394 19.0054 4.65918L21.2109 5.76193C21.2362 5.77391 21.2607 5.78727 21.2843 5.8019C21.3327 5.83171 21.3779 5.86717 21.4189 5.9079C21.461 5.94977 21.4976 5.99614 21.5282 6.04581C21.57 6.11341 21.6014 6.18814 21.6202 6.26776C21.6337 6.32488 21.6402 6.38267 21.6402 6.44C21.6402 6.44541 21.6401 6.45083 21.64 6.45624V9.22C21.64 9.63421 21.3042 9.97 20.89 9.97C20.4758 9.97 20.14 9.63421 20.14 9.22V7.65353L19.0054 8.22082C18.635 8.40607 18.1844 8.2559 17.9992 7.88541C17.814 7.51493 17.9641 7.06442 18.3346 6.87918L19.213 6.44L18.3346 6.00082C17.9641 5.81558 17.814 5.36508 17.9992 4.99459ZM9.10921 9.44459C9.29445 9.0741 9.74495 8.92394 10.1154 9.10918L12 10.0515L13.8846 9.10918C14.2551 8.92394 14.7056 9.0741 14.8908 9.44459C15.0761 9.81507 14.9259 10.2656 14.5554 10.4508L12.75 11.3535V13.67C12.75 14.0842 12.4142 14.42 12 14.42C11.5858 14.42 11.25 14.0842 11.25 13.67V11.3535L9.44462 10.4508C9.07413 10.2656 8.92396 9.81507 9.10921 9.44459ZM2.91773 14.0551C3.24651 13.9679 3.59282 14.1128 3.76142 14.4083L5.98142 18.2983C6.14519 18.5852 6.10187 18.9456 5.87473 19.1856C5.64759 19.4255 5.29016 19.4886 4.99462 19.3408L2.77462 18.2308C2.52053 18.1038 2.36003 17.8441 2.36003 17.56V14.78C2.36003 14.4398 2.58895 14.1423 2.91773 14.0551ZM20.14 14.78C20.14 14.3658 20.4758 14.03 20.89 14.03C21.3042 14.03 21.64 14.3658 21.64 14.78V17.56C21.64 17.8441 21.4795 18.1038 21.2254 18.2308L19.0054 19.3408C18.635 19.5261 18.1844 19.3759 17.9992 19.0054C17.814 18.6349 17.9641 18.1844 18.3346 17.9992L20.14 17.0965V14.78ZM12 18.47C12.4142 18.47 12.75 18.8058 12.75 19.22V20.7865L13.8846 20.2192C14.2551 20.0339 14.7056 20.1841 14.8908 20.5546C15.0761 20.9251 14.9259 21.3756 14.5554 21.5608L12.3489 22.6641C12.3342 22.6716 12.3133 22.6817 12.2981 22.6882C12.2569 22.7061 12.2148 22.7201 12.1723 22.7301C12.1152 22.7437 12.0574 22.7502 12 22.7502C11.9427 22.7502 11.8849 22.7437 11.8277 22.7301C11.7655 22.7155 11.7063 22.6931 11.6511 22.6641L9.44462 21.5608C9.07413 21.3756 8.92396 20.9251 9.10921 20.5546C9.29445 20.1841 9.74495 20.0339 10.1154 20.2192L11.25 20.7865V19.22C11.25 18.8058 11.5858 18.47 12 18.47Z" fill="#424B5A"/>
</svg>
