<svg width="24" height="24" viewBox="0 0 24 24" fill="none" xmlns="http://www.w3.org/2000/svg">
<path fill-rule="evenodd" clip-rule="evenodd" d="M13.6944 3.15138L19.0867 6.13491C19.4845 6.35501 19.8284 6.64605 20.1062 6.98727L17.063 8.75008L8.80512 3.98154L10.3055 3.15138C11.3598 2.56803 12.6401 2.56803 13.6944 3.15138ZM7.27328 4.8291L4.91321 6.13491C4.5142 6.35568 4.1694 6.64783 3.89116 6.99039L11.9998 11.6829L15.5655 9.61749L7.27328 4.8291ZM3.21605 8.33277C3.14491 8.61177 3.10767 8.90188 3.10767 9.1974V14.8017C3.10767 16.075 3.79912 17.2478 4.91321 17.8642L10.3055 20.8477C10.6055 21.0137 10.9238 21.1325 11.25 21.204V12.9821L3.21605 8.33277ZM12.75 21.204C13.0762 21.1325 13.3944 21.0137 13.6944 20.8477L19.0867 17.8642C20.2008 17.2478 20.8923 16.075 20.8923 14.8017V9.1974C20.8923 8.90048 20.8547 8.60902 20.7829 8.3288L17.75 10.0856V13.2397C17.75 13.654 17.4142 13.9897 17 13.9897C16.5858 13.9897 16.25 13.654 16.25 13.2397V10.9545L12.75 12.9818V21.204ZM9.57932 1.83889C11.0855 1.00553 12.9144 1.00553 14.4206 1.83889L19.8129 4.82242C21.4045 5.70302 22.3923 7.37846 22.3923 9.1974V14.8017C22.3923 16.6206 21.4045 18.2961 19.8129 19.1767L14.4206 22.1602C12.9144 22.9936 11.0855 22.9936 9.57932 22.1602L4.18701 19.1767C2.59545 18.2961 1.60767 16.6206 1.60767 14.8017V9.1974C1.60767 7.37846 2.59546 5.70302 4.18702 4.82242L9.57932 1.83889Z" fill="#424B5A"/>
</svg>
