<svg width="24" height="24" viewBox="0 0 24 24" fill="none" xmlns="http://www.w3.org/2000/svg">
<path fill-rule="evenodd" clip-rule="evenodd" d="M8.79369 4.05038C8.75121 4.37577 8.75 4.74554 8.75 5.2V5.25H15.25V5.2C15.25 4.74554 15.2488 4.37577 15.2063 4.05038C15.1647 3.73174 15.0899 3.51724 14.983 3.36267C14.7998 3.09751 14.3295 2.75 12.8 2.75H11.2C9.67049 2.75 9.20025 3.09751 9.01698 3.36267C8.91015 3.51724 8.83529 3.73174 8.79369 4.05038ZM7.25 5.17401V5.25H7C4.77696 5.25 3.25895 5.76457 2.37354 6.81723C1.49672 7.85967 1.41332 9.22917 1.55385 10.5061L2.30321 18.5L2.30427 18.5099C2.41442 19.538 2.67245 20.6651 3.59039 21.5037C4.50153 22.3361 5.91315 22.75 8 22.75H16C18.0869 22.75 19.4985 22.3361 20.4096 21.5037C21.3275 20.6651 21.5856 19.538 21.6958 18.5099L22.3866 11.141C22.3956 11.0939 22.4002 11.0459 22.4001 10.9979L22.4462 10.5061C22.5867 9.22916 22.5033 7.85966 21.6265 6.81723C20.7411 5.76457 19.223 5.25 17 5.25H16.75V5.17402V5.174C16.75 4.75047 16.7501 4.28788 16.6937 3.85619C16.6353 3.40889 16.5101 2.93401 16.217 2.50983C15.6002 1.61749 14.4705 1.25 12.8 1.25H11.2C9.52951 1.25 8.39975 1.61749 7.78302 2.50983C7.48985 2.93401 7.36471 3.40889 7.30631 3.85619C7.24995 4.28789 7.24998 4.75048 7.25 5.17401ZM20.9544 10.3475L20.9317 10.5905C19.0387 11.9054 16.9259 12.7538 14.75 13.1467V13L14.75 12.9671V12.9671V12.9671V12.9671C14.7501 12.746 14.7501 12.5219 14.7298 12.3391C14.7091 12.1527 14.6537 11.843 14.4053 11.5947C14.157 11.3463 13.8473 11.2909 13.661 11.2702C13.4781 11.2499 13.254 11.2499 13.0329 11.25H13.0329H13.0329H13.0329L13 11.25H11L10.9672 11.25H10.9671H10.9671H10.9671C10.746 11.2499 10.5219 11.2499 10.3391 11.2702C10.1527 11.2909 9.84304 11.3463 9.59467 11.5947C9.3463 11.843 9.29092 12.1527 9.27021 12.3391C9.2499 12.5219 9.24995 12.746 9.25 12.9671V12.9672L9.25 13V13.1678C7.08469 12.8029 4.97417 11.9655 3.0762 10.6733L3.04683 10.36L3.04545 10.3475C2.91695 9.18629 3.04973 8.3436 3.52146 7.78277C3.98605 7.23043 4.95304 6.75 7 6.75H8H16H17C19.047 6.75 20.014 7.23043 20.4785 7.78277C20.9503 8.3436 21.0829 9.18628 20.9544 10.3475ZM3.25283 12.5576L3.79625 18.3549C3.8963 19.2843 4.10342 19.9407 4.60212 20.3963C5.10847 20.8589 6.06685 21.25 8 21.25H16C17.9332 21.25 18.8915 20.8589 19.3979 20.3963C19.8966 19.9407 20.1037 19.2843 20.2037 18.3549L20.7539 12.4868C18.8703 13.6042 16.8244 14.3294 14.7332 14.6716C14.7277 14.7446 14.7203 14.8177 14.7106 14.8898C14.6696 15.1923 14.58 15.5357 14.3606 15.849C13.8926 16.5172 13.0664 16.75 12 16.75C10.9394 16.75 10.1153 16.5202 9.64561 15.8574C9.42475 15.5458 9.33334 15.2037 9.29122 14.901C9.28151 14.8312 9.27409 14.7606 9.26841 14.6899C7.17957 14.3726 5.13585 13.6566 3.25283 12.5576ZM10.75 14.039C10.7501 14.0323 10.7501 14.0257 10.75 14.0191V13C10.75 12.9036 10.75 12.8222 10.7508 12.7508C10.8222 12.75 10.9036 12.75 11 12.75H13C13.0964 12.75 13.1778 12.75 13.2492 12.7508C13.25 12.8222 13.25 12.9036 13.25 13V14.008C13.2499 14.0128 13.2499 14.0176 13.2499 14.0224C13.2499 14.0249 13.25 14.0275 13.25 14.03C13.25 14.3079 13.2479 14.5131 13.2241 14.6887C13.201 14.8596 13.1638 14.9431 13.1319 14.9885C13.0974 15.0378 12.9236 15.25 12 15.25C11.0806 15.25 10.9047 15.0398 10.8694 14.9901C10.8377 14.9454 10.8004 14.8632 10.7769 14.6943C10.7527 14.5205 10.7501 14.3159 10.75 14.039Z" fill="#424B5A"/>
</svg>
