<svg width="24" height="24" viewBox="0 0 24 24" fill="none" xmlns="http://www.w3.org/2000/svg">
<path fill-rule="evenodd" clip-rule="evenodd" d="M8.74997 5.2C8.74997 4.74554 8.75118 4.37577 8.79366 4.05038C8.83526 3.73174 8.91012 3.51724 9.01695 3.36267C9.20022 3.09751 9.67046 2.75 11.2 2.75H12.8C14.3295 2.75 14.7997 3.09751 14.983 3.36267C15.0898 3.51724 15.1647 3.73174 15.2063 4.05038C15.2488 4.37577 15.25 4.74554 15.25 5.2V5.25H8.74997V5.2ZM7.24997 5.25V5.17401C7.24995 4.75048 7.24992 4.28789 7.30628 3.85619C7.36468 3.40889 7.48982 2.93401 7.78299 2.50983C8.39972 1.61749 9.52948 1.25 11.2 1.25H12.8C14.4705 1.25 15.6002 1.61749 16.217 2.50983C16.5101 2.93401 16.6353 3.40889 16.6937 3.85619C16.75 4.28788 16.75 4.75047 16.75 5.174V5.17402V5.25H17C19.223 5.25 20.741 5.76457 21.6264 6.81723C22.5032 7.85966 22.5866 9.22916 22.4461 10.5061L22.4 10.9979C22.4001 11.0459 22.3956 11.0939 22.3866 11.141L21.6958 18.5099C21.5856 19.538 21.3275 20.6651 20.4096 21.5037C19.4984 22.3361 18.0868 22.75 16 22.75H7.99997C5.91312 22.75 4.5015 22.3361 3.59036 21.5037C2.67242 20.6651 2.41439 19.538 2.30424 18.5099L2.30318 18.5L1.55382 10.5061C1.41329 9.22917 1.49669 7.85967 2.37351 6.81723C3.25892 5.76457 4.77693 5.25 6.99997 5.25H7.24997ZM20.9544 10.3475L20.9316 10.5908C19.5569 11.547 18.0637 12.2577 16.5158 12.7228C15.8946 10.8227 14.1076 9.45 12 9.45C9.87808 9.45 8.08115 10.8413 7.4717 12.7615C5.9355 12.3084 4.45396 11.6088 3.07617 10.6733L3.0468 10.36L3.04542 10.3475C2.91692 9.18629 3.0497 8.3436 3.52143 7.78277C3.98602 7.23043 4.95301 6.75 6.99997 6.75H7.99997H16H17C19.0469 6.75 20.0139 7.23043 20.4785 7.78277C20.9502 8.3436 21.0829 9.18628 20.9544 10.3475ZM3.25274 12.557L3.79622 18.3549C3.89627 19.2843 4.10339 19.9407 4.60208 20.3963C5.10844 20.8589 6.06682 21.25 7.99997 21.25H16C17.9331 21.25 18.8915 20.8589 19.3979 20.3963C19.8966 19.9407 20.1037 19.2843 20.2037 18.3549L20.7538 12.4878C19.4822 13.2428 18.135 13.8193 16.7499 14.2174C16.7406 16.8327 14.6175 18.95 12 18.95C9.39619 18.95 7.28174 16.855 7.25033 14.2586C5.86608 13.8693 4.52383 13.2994 3.25274 12.557ZM12 10.95C10.205 10.95 8.74997 12.4051 8.74997 14.2C8.74997 15.9949 10.205 17.45 12 17.45C13.7949 17.45 15.25 15.9949 15.25 14.2C15.25 12.4051 13.7949 10.95 12 10.95ZM10.4184 12.6709C10.7106 12.3773 11.1855 12.3762 11.479 12.6684L12.0112 13.1981L12.5196 12.6897C12.8125 12.3968 13.2874 12.3968 13.5803 12.6897C13.8732 12.9826 13.8732 13.4574 13.5803 13.7503L13.0744 14.2562L13.599 14.7784C13.8926 15.0706 13.8938 15.5455 13.6016 15.8391C13.3094 16.1327 12.8345 16.1338 12.5409 15.8416L12.0137 15.3169L11.4603 15.8703C11.1674 16.1632 10.6925 16.1632 10.3996 15.8703C10.1067 15.5774 10.1067 15.1026 10.3996 14.8097L10.9506 14.2587L10.4209 13.7316C10.1273 13.4394 10.1262 12.9645 10.4184 12.6709Z" fill="#424B5A"/>
</svg>
