<svg width="24" height="24" viewBox="0 0 24 24" fill="none" xmlns="http://www.w3.org/2000/svg">
<path fill-rule="evenodd" clip-rule="evenodd" d="M8.75 5.2C8.75 4.74554 8.75121 4.37577 8.79369 4.05038C8.83529 3.73174 8.91015 3.51724 9.01698 3.36267C9.20025 3.09751 9.67049 2.75 11.2 2.75H12.8C14.3295 2.75 14.7998 3.09751 14.983 3.36267C15.0899 3.51724 15.1647 3.73174 15.2063 4.05038C15.2488 4.37577 15.25 4.74554 15.25 5.2V5.25H8.75V5.2ZM7.25 5.25V5.17401C7.24998 4.75048 7.24995 4.28789 7.30631 3.85619C7.36471 3.40889 7.48985 2.93401 7.78302 2.50983C8.39975 1.61749 9.52951 1.25 11.2 1.25H12.8C14.4705 1.25 15.6002 1.61749 16.217 2.50983C16.5101 2.93401 16.6353 3.40889 16.6937 3.85619C16.7501 4.28788 16.75 4.75047 16.75 5.174V5.17402V5.25H17C19.223 5.25 20.7411 5.76457 21.6265 6.81723C22.5033 7.85966 22.5867 9.22916 22.4462 10.5061L22.4001 10.9979C22.4001 11.0459 22.3956 11.0939 22.3866 11.141L21.6958 18.5099C21.5856 19.538 21.3275 20.6651 20.4096 21.5037C19.4985 22.3361 18.0869 22.75 16 22.75H8C5.91315 22.75 4.50153 22.3361 3.59039 21.5037C2.67245 20.6651 2.41442 19.538 2.30427 18.5099L2.30321 18.5L1.55385 10.5061C1.41332 9.22917 1.49672 7.85967 2.37354 6.81723C3.25895 5.76457 4.77696 5.25 7 5.25H7.25ZM20.9544 10.3475L20.9316 10.5908C19.5569 11.547 18.0638 12.2577 16.5158 12.7228C15.8946 10.8227 14.1076 9.45 12 9.45C9.87811 9.45 8.08118 10.8413 7.47174 12.7615C5.93553 12.3084 4.45399 11.6088 3.0762 10.6733L3.04683 10.36L3.04545 10.3475C2.91695 9.18629 3.04973 8.3436 3.52146 7.78277C3.98605 7.23043 4.95304 6.75 7 6.75H8H16H17C19.047 6.75 20.014 7.23043 20.4785 7.78277C20.9503 8.3436 21.0829 9.18628 20.9544 10.3475ZM3.25277 12.557L3.79625 18.3549C3.8963 19.2843 4.10342 19.9407 4.60212 20.3963C5.10847 20.8589 6.06685 21.25 8 21.25H16C17.9332 21.25 18.8915 20.8589 19.3979 20.3963C19.8966 19.9407 20.1037 19.2843 20.2037 18.3549L20.7538 12.4878C19.4822 13.2428 18.135 13.8193 16.75 14.2174C16.7406 16.8327 14.6176 18.95 12 18.95C9.39622 18.95 7.28177 16.855 7.25036 14.2586C5.86611 13.8693 4.52386 13.2994 3.25277 12.557ZM8.75 14.2C8.75 12.4051 10.2051 10.95 12 10.95C13.7949 10.95 15.25 12.4051 15.25 14.2C15.25 15.9949 13.7949 17.45 12 17.45C10.2051 17.45 8.75 15.9949 8.75 14.2ZM13 12.95C13 12.5358 12.6642 12.2 12.25 12.2C11.8358 12.2 11.5 12.5358 11.5 12.95V13.88C11.5 13.9739 11.4527 14.051 11.3833 14.0913L10.6116 14.5584C10.2573 14.7729 10.1439 15.234 10.3584 15.5884C10.5729 15.9427 11.034 16.0561 11.3884 15.8416L12.1433 15.3847C12.6898 15.0641 13 14.4837 13 13.88V12.95Z" fill="#424B5A"/>
</svg>
