<svg width="24" height="24" viewBox="0 0 24 24" fill="none" xmlns="http://www.w3.org/2000/svg">
<path fill-rule="evenodd" clip-rule="evenodd" d="M5.94897 3.08145C6.53699 2.72488 7.31489 2.9154 7.66879 3.49901L8.82497 5.39635L6.68727 6.69809L5.53103 4.80065C5.17497 4.21271 5.36555 3.43523 5.94897 3.08145ZM8.9514 2.72125L10.1061 4.61619L10.3667 4.45754C10.7204 4.24211 11.1819 4.35426 11.3973 4.70804L13.3137 7.85504C14.9968 7.64232 16.6842 8.3652 17.7128 9.75373L20.4843 13.4958C21.6313 15.0553 21.2313 17.1895 19.5592 18.2013L19.5582 18.2019L18.9749 18.5566C18.9543 18.5723 18.9327 18.587 18.9101 18.6008C18.8873 18.6147 18.864 18.6272 18.8404 18.6384L16.4335 20.102C16.4074 20.1232 16.3796 20.1428 16.3501 20.1608C16.3204 20.1789 16.2899 20.1947 16.2588 20.2082L13.8882 21.6498C13.8579 21.6756 13.8252 21.6994 13.7901 21.7208C13.7548 21.7423 13.7184 21.7605 13.6812 21.7756L13.1317 22.1098C11.4719 23.1324 9.37929 22.5139 8.52645 20.7698L6.47778 16.5926L6.47721 16.5914C5.69568 15.0097 5.85733 13.1246 6.88199 11.7132L4.99156 8.60879C4.77613 8.25501 4.88828 7.79357 5.24206 7.57814L5.40612 7.47824L4.24879 5.57902C3.46535 4.28704 3.87483 2.58494 5.17121 1.79884C6.46289 1.01559 8.16451 1.42467 8.95086 2.72036L8.9514 2.72125ZM18.7688 16.9264L17.5107 14.8601C17.2953 14.5063 16.8338 14.3941 16.48 14.6095C16.1263 14.825 16.0141 15.2864 16.2295 15.6402L17.4871 17.7058L16.2073 18.484L14.9507 16.4201C14.7353 16.0663 14.2738 15.9541 13.9201 16.1695C13.5663 16.385 13.4541 16.8464 13.6695 17.2002L14.9256 19.2633L13.6458 20.0416L12.3907 17.9801C12.1753 17.6263 11.7139 17.5141 11.3601 17.7295C11.0063 17.9449 10.8941 18.4064 11.1095 18.7602L12.3642 20.8209L12.3504 20.8293L12.3462 20.8319C11.4464 21.3872 10.3403 21.0648 9.87347 20.1099L7.82347 15.9299L7.8224 15.9277C7.09809 14.4628 7.5551 12.631 9.05006 11.7208L12.2101 9.80076C13.7034 8.89177 15.5274 9.32362 16.5074 10.6465L19.2759 14.3845L19.2767 14.3855C19.9085 15.2456 19.6887 16.3701 18.782 16.9183L18.7804 16.9193L18.7688 16.9264ZM6.83982 8.39094C6.78314 8.42541 6.7237 8.45148 6.66296 8.46949L7.96304 10.6045L11.8065 8.26402L10.5062 6.12877L10.4175 6.18279C10.3714 6.23203 10.3185 6.27525 10.2598 6.31092L6.83982 8.39094Z" fill="#424B5A"/>
</svg>
