<svg width="24" height="24" viewBox="0 0 24 24" fill="none" xmlns="http://www.w3.org/2000/svg">
<path fill-rule="evenodd" clip-rule="evenodd" d="M7 1.25C5.88439 1.25 4.90993 1.52941 4.21967 2.21967C3.52941 2.90993 3.25 3.88439 3.25 5C3.25 6.11561 3.52941 7.09007 4.21967 7.78033C4.90993 8.47059 5.88439 8.75 7 8.75H8H12H13C14.1156 8.75 15.0901 8.47059 15.7803 7.78033C16.3109 7.24979 16.5987 6.55137 16.7035 5.75H17C18.4936 5.75 18.8882 6.0176 19.025 6.2C19.1019 6.30256 19.1699 6.46848 19.2089 6.78053C19.2488 7.09949 19.25 7.48556 19.25 8V10C19.25 10.5144 19.2488 10.9005 19.2089 11.2195C19.1699 11.5315 19.1019 11.6974 19.025 11.8C18.8882 11.9824 18.4936 12.25 17 12.25H13C11.4296 12.25 10.3498 12.5949 9.75805 13.451C9.47735 13.8571 9.35846 14.3105 9.30319 14.7339C9.28083 14.9051 9.26787 15.0813 9.26035 15.2575C8.45316 15.3095 7.87274 15.6294 7.54438 16.1766C7.24771 16.6711 7.24927 17.2278 7.24994 17.4696L7.25 17.5V20.5L7.24994 20.5304C7.24927 20.7722 7.24771 21.3289 7.54438 21.8234C7.90438 22.4234 8.56736 22.75 9.5 22.75H10.5C11.4326 22.75 12.0956 22.4234 12.4556 21.8234C12.7523 21.3289 12.7507 20.7722 12.7501 20.5304L12.75 20.5V17.5L12.7501 17.4696C12.7507 17.2278 12.7523 16.6711 12.4556 16.1766C12.1303 15.6344 11.5575 15.3154 10.7618 15.259C10.7678 15.1425 10.7769 15.0327 10.7906 14.928C10.829 14.6333 10.8976 14.4404 10.992 14.304C11.1502 14.0751 11.5704 13.75 13 13.75H17C18.5064 13.75 19.6118 13.5176 20.225 12.7C20.5231 12.3026 20.6426 11.8435 20.6973 11.4055C20.7501 10.9838 20.75 10.5066 20.75 10.0314V10.0314V7.96862V7.96857C20.75 7.49337 20.7501 7.01621 20.6973 6.59447C20.6426 6.15652 20.5231 5.69744 20.225 5.3C19.6118 4.4824 18.5064 4.25 17 4.25H16.7035C16.5987 3.44863 16.3109 2.75021 15.7803 2.21967C15.0901 1.52941 14.1156 1.25 13 1.25H12H8H7ZM10 16.75H9.5C9.20535 16.75 9.04205 16.7994 8.95817 16.8398C8.88311 16.876 8.8513 16.9139 8.83062 16.9484C8.76553 17.0569 8.75 17.2224 8.75 17.5V20.5C8.75 20.7776 8.76553 20.9431 8.83062 21.0516C8.8513 21.0861 8.88311 21.124 8.95817 21.1602C9.04205 21.2006 9.20535 21.25 9.5 21.25H10.5C10.7947 21.25 10.958 21.2006 11.0418 21.1602C11.1169 21.124 11.1487 21.0861 11.1694 21.0516C11.2345 20.9431 11.25 20.7776 11.25 20.5V17.5C11.25 17.2224 11.2345 17.0569 11.1694 16.9484C11.1487 16.9139 11.1169 16.876 11.0418 16.8398C10.958 16.7994 10.7947 16.75 10.5 16.75H10ZM14.7197 3.28033C15.0294 3.59007 15.25 4.11561 15.25 5C15.25 5.88439 15.0294 6.40993 14.7197 6.71967C14.4247 7.01461 13.9341 7.22872 13.1243 7.2485C13.6252 5.7533 13.6252 4.2467 13.1243 2.7515C13.9341 2.77128 14.4247 2.98539 14.7197 3.28033ZM4.75 5C4.75 4.11561 4.97059 3.59007 5.28033 3.28033C5.57527 2.98539 6.06588 2.77128 6.87567 2.7515C6.37478 4.2467 6.37478 5.7533 6.87567 7.2485C6.06588 7.22872 5.57527 7.01461 5.28033 6.71967C4.97059 6.40993 4.75 5.88439 4.75 5ZM11.4422 2.75H8.55777C8.16408 4.22556 8.16408 5.77444 8.55777 7.25H11.4422C11.8359 5.77444 11.8359 4.22556 11.4422 2.75Z" fill="#424B5A"/>
</svg>
