<svg width="24" height="24" viewBox="0 0 24 24" fill="none" xmlns="http://www.w3.org/2000/svg">
<path fill-rule="evenodd" clip-rule="evenodd" d="M15.8258 5.636C17.4804 4.40761 19.2331 3.36253 20.6828 2.77873C20.8544 2.71489 21.0042 2.76493 21.0996 2.8604C21.1563 2.91707 21.1927 2.9838 21.2079 3.04996C21.2222 3.11188 21.2217 3.18733 21.1846 3.27897L21.1838 3.28113C20.6002 4.73766 19.5584 6.49341 18.3333 8.14893C17.6963 9.00986 17.0189 9.83111 16.3434 10.5592C15.8889 9.17721 14.7891 8.08674 13.3961 7.64865C14.1293 6.96606 14.9576 6.28058 15.8258 5.636ZM12.1225 8.94144C11.9637 9.11968 11.8144 9.29567 11.6756 9.46856L11.675 9.46942L10.7228 10.6634C11.3127 10.8543 11.8694 11.1888 12.3503 11.6697C12.8173 12.1367 13.1439 12.6641 13.3331 13.2341L14.5106 12.2951L14.5115 12.2944C14.6933 12.1485 14.8785 11.9909 15.066 11.8229C14.986 10.2491 13.7113 8.98871 12.1225 8.94144ZM13.85 14.7401C13.7388 14.8235 13.6236 14.902 13.5016 14.9743C13.3958 15.8721 12.9966 16.7137 12.3445 17.3762L12.3403 17.3804C11.7317 17.989 10.9179 18.4034 9.96416 18.5241L9.94947 18.5258L7.98134 18.7356C6.43351 18.9078 5.11293 17.5942 5.28432 16.0294L5.28448 16.028L5.49435 14.0591C5.70914 12.0808 7.2394 10.7679 8.94897 10.5288C9.0357 10.3771 9.13755 10.2318 9.25566 10.0973L10.5036 8.53245L10.505 8.53071C11.5931 7.17453 13.2113 5.70883 14.9316 4.43163C16.6519 3.15447 18.5213 2.03091 20.1303 1.38418L20.1417 1.37958L20.1417 1.37967C20.9082 1.08613 21.6766 1.31605 22.1603 1.79973C22.6503 2.28972 22.8894 3.06283 22.5757 3.84008C21.9292 5.45331 20.8112 7.32211 19.5391 9.0412C18.2668 10.7606 16.8059 12.3767 15.4493 13.4651L15.4476 13.4664L13.8676 14.7264C13.8618 14.7311 13.8559 14.7356 13.85 14.7401ZM9.48675 11.9986C9.4406 12.0015 9.39476 12.0001 9.34972 11.9946C8.17237 12.0686 7.12641 12.927 6.98566 14.2203L6.77575 16.1896L6.77547 16.1921C6.70788 16.806 7.22564 17.311 7.81638 17.2447L7.82047 17.2443L9.78272 17.0351C10.4047 16.9549 10.9078 16.6907 11.2776 16.3218C11.7402 15.8508 11.9995 15.2457 12.0275 14.6058C12.0225 14.571 12.02 14.5357 12.02 14.5001C12.02 14.3854 12.0125 14.2677 11.9962 14.1366C11.9278 13.6326 11.7043 13.1572 11.2846 12.7453L11.2796 12.7404L11.2796 12.7404C10.8527 12.3134 10.3534 12.0793 9.84569 12.0069C9.69275 11.9975 9.58631 11.9924 9.48675 11.9986ZM8.96997 1.25007C6.396 1.25007 4.39911 1.76027 3.06464 3.09474C1.73017 4.4292 1.21997 6.42609 1.21997 9.00006V15.0001C1.21997 17.574 1.73017 19.5709 3.06464 20.9054C4.39911 22.2399 6.396 22.7501 8.96997 22.7501H14.97C17.5439 22.7501 19.5408 22.2399 20.8753 20.9054C22.2098 19.5709 22.72 17.574 22.72 15.0001V13.0001C22.72 12.5859 22.3842 12.2501 21.97 12.2501C21.5558 12.2501 21.22 12.5859 21.22 13.0001V15.0001C21.22 17.4261 20.7302 18.9292 19.8146 19.8447C18.8991 20.7603 17.396 21.2501 14.97 21.2501H8.96997C6.54394 21.2501 5.04083 20.7603 4.1253 19.8447C3.20977 18.9292 2.71997 17.4261 2.71997 15.0001V9.00006C2.71997 6.57404 3.20977 5.07093 4.1253 4.1554C5.04083 3.23986 6.54394 2.75007 8.96997 2.75007H10.97C11.3842 2.75007 11.72 2.41428 11.72 2.00007C11.72 1.58585 11.3842 1.25007 10.97 1.25007H8.96997Z" fill="#424B5A"/>
</svg>
