<svg width="24" height="24" viewBox="0 0 24 24" fill="none" xmlns="http://www.w3.org/2000/svg">
<path fill-rule="evenodd" clip-rule="evenodd" d="M20.2391 2.81003C18.4052 3.54405 16.1988 4.85611 14.1229 6.39491C12.9368 7.27408 11.8088 8.21585 10.829 9.15001C12.761 9.62825 14.2903 11.1327 14.804 13.0505C17.3692 10.3477 19.9445 6.57646 21.1139 3.66073L21.1169 3.65311L21.117 3.65313C21.2254 3.39117 21.1549 3.14042 20.9668 2.95725L20.9524 2.94291C20.8008 2.78711 20.5472 2.69791 20.2391 2.81003ZM13.4879 14.341C13.4199 12.2092 11.6701 10.4972 9.52369 10.4899C9.30355 10.7357 9.09739 10.9784 8.90698 11.2167L8.90599 11.218L7.54554 12.936C8.35491 13.145 9.12475 13.5752 9.77224 14.2315C10.3965 14.8564 10.815 15.5763 11.0252 16.3567L12.7107 15.0048L12.7108 15.0048C12.966 14.8001 13.2256 14.5781 13.4879 14.341ZM6.18266 12.2408C6.02408 12.4244 5.88449 12.6283 5.76815 12.8457C3.68053 13.1027 1.78899 14.6948 1.52445 17.1082L1.25476 19.5654C1.04024 21.4055 2.59717 22.948 4.41342 22.7452L6.87181 22.4754L6.88763 22.4735C8.03435 22.3229 9.01858 21.832 9.75033 21.1002L9.75364 21.0969C10.5687 20.2715 11.0501 19.2178 11.1572 18.0992C11.3358 17.9972 11.4986 17.8863 11.6482 17.7785C11.6588 17.771 11.6691 17.7631 11.6792 17.755L13.6492 16.175C16.9796 13.5045 20.9161 8.18109 22.5047 4.22245C22.8721 3.32961 22.5866 2.44597 22.0204 1.88958C21.4529 1.31195 20.573 1.08459 19.7079 1.40716L19.6918 1.41341C17.6974 2.21009 15.3728 3.60124 13.2296 5.18988C11.0865 6.77848 9.07761 8.59968 7.73398 10.2818L7.73201 10.2843L6.18266 12.2408ZM6.31744 14.309C6.43957 14.3029 6.5723 14.3061 6.71659 14.3127L6.80098 14.3173C7.47199 14.4103 8.14034 14.7309 8.69966 15.2902C9.25818 15.8487 9.55876 16.4786 9.64633 17.1473L9.64916 17.1669C9.65378 17.1961 9.65782 17.2262 9.66132 17.257L9.66628 17.3269C9.67394 17.4333 9.67999 17.5174 9.67999 17.6199C9.67999 18.5247 9.33633 19.3838 8.688 20.0412C8.20135 20.5271 7.52877 20.8749 6.69991 20.9853L4.24816 21.2544L4.24655 21.2545C3.38421 21.3511 2.64155 20.6158 2.74487 19.7375L3.01552 17.2716C3.2102 15.4952 4.69132 14.3428 6.29545 14.3097C6.30278 14.3096 6.31011 14.3093 6.31744 14.309Z" fill="#424B5A"/>
</svg>
