<svg width="24" height="24" viewBox="0 0 24 24" fill="none" xmlns="http://www.w3.org/2000/svg">
<path fill-rule="evenodd" clip-rule="evenodd" d="M15.59 2.75C13.171 2.75 11.21 4.711 11.21 7.13C11.21 9.54901 13.171 11.51 15.59 11.51C18.009 11.51 19.97 9.54901 19.97 7.13C19.97 4.711 18.009 2.75 15.59 2.75ZM9.71002 7.13C9.71002 3.88257 12.3426 1.25 15.59 1.25C18.8375 1.25 21.47 3.88257 21.47 7.13C21.47 10.3774 18.8375 13.01 15.59 13.01C12.3426 13.01 9.71002 10.3774 9.71002 7.13ZM6.36002 14.03C5.0732 14.03 4.03003 15.0732 4.03003 16.36C4.03003 17.6468 5.0732 18.69 6.36002 18.69C7.64684 18.69 8.69003 17.6468 8.69003 16.36C8.69003 15.0732 7.64684 14.03 6.36002 14.03ZM2.53003 16.36C2.53003 14.2448 4.24476 12.53 6.36002 12.53C8.47526 12.53 10.19 14.2447 10.19 16.36C10.19 18.4753 8.47526 20.19 6.36002 20.19C4.24476 20.19 2.53003 18.4752 2.53003 16.36ZM14.81 19.44C14.81 18.4404 15.6204 17.63 16.62 17.63C17.6197 17.63 18.43 18.4404 18.43 19.44C18.43 20.4396 17.6197 21.25 16.62 21.25C15.6204 21.25 14.81 20.4396 14.81 19.44ZM16.62 16.13C14.792 16.13 13.31 17.6119 13.31 19.44C13.31 21.2681 14.792 22.75 16.62 22.75C18.4481 22.75 19.93 21.2681 19.93 19.44C19.93 17.6119 18.4481 16.13 16.62 16.13Z" fill="#424B5A"/>
</svg>
