<svg width="24" height="24" viewBox="0 0 24 24" fill="none" xmlns="http://www.w3.org/2000/svg">
<path fill-rule="evenodd" clip-rule="evenodd" d="M2.75 12C2.75 6.89137 6.89137 2.75 12 2.75C17.1086 2.75 21.25 6.89137 21.25 12C21.25 17.1086 17.1086 21.25 12 21.25C6.89137 21.25 2.75 17.1086 2.75 12ZM12 1.25C6.06294 1.25 1.25 6.06294 1.25 12C1.25 17.9371 6.06294 22.75 12 22.75C17.9371 22.75 22.75 17.9371 22.75 12C22.75 6.06294 17.9371 1.25 12 1.25ZM9.67965 5.84968C9.97254 5.55679 10.4474 5.55678 10.7403 5.84966L11.5403 6.64965L11.5422 6.6515L15.9303 11.0397C16.4432 11.5526 16.4432 12.3874 15.9303 12.9003L12.337 16.4936C11.8545 16.9701 11.275 17.3033 10.6076 17.3012C9.94031 17.2991 9.3617 16.9623 8.87968 16.4803L6.48967 14.0904C6.00819 13.6089 5.66998 13.0294 5.66998 12.3613C5.66998 11.6928 6.00849 11.1154 6.49124 10.6381L9.94933 7.18L9.67967 6.91035C9.38677 6.61746 9.38676 6.14258 9.67965 5.84968ZM7.72604 11.5246L14.022 11.2527L11.01 8.24065L7.72604 11.5246ZM13.9522 12.7571L7.554 13.0334L9.94031 15.4196C10.2583 15.7376 10.4797 15.8008 10.6123 15.8012C10.7448 15.8016 10.9648 15.74 11.2814 15.4279L13.9522 12.7571ZM16.47 14.17L17.0184 13.6585C17.0183 13.6584 17.0184 13.6585 16.47 14.17ZM15.9172 13.6632L16.47 14.17C15.9172 13.6632 15.9172 13.6631 15.9172 13.6632ZM15.9172 13.6632L15.9151 13.6654L15.9115 13.6694L15.8998 13.6824C15.8899 13.6934 15.8763 13.7087 15.8593 13.728C15.8254 13.7666 15.778 13.8215 15.7217 13.8891C15.6097 14.0237 15.4589 14.2131 15.3064 14.43C15.1557 14.6444 14.9931 14.9002 14.8655 15.1663C14.7448 15.4181 14.62 15.7508 14.62 16.1C14.62 17.1286 15.4603 17.95 16.47 17.95C17.497 17.95 18.3174 17.1125 18.32 16.1048C18.3235 15.7519 18.2002 15.4173 18.0795 15.1638C17.9517 14.8953 17.7877 14.6385 17.6358 14.424C17.482 14.207 17.3296 14.0179 17.2164 13.8838C17.1595 13.8163 17.1116 13.7617 17.0772 13.7232C17.06 13.7039 17.0461 13.6886 17.0362 13.6777L17.0242 13.6647L17.0205 13.6607L17.0184 13.6585M15.9172 13.6632C16.0584 13.5091 16.2577 13.421 16.4667 13.4201C16.6758 13.4191 16.8758 13.5056 17.0184 13.6585M16.4734 15.38C16.5727 15.5265 16.6608 15.6734 16.7252 15.8086C16.7635 15.8891 16.789 15.9564 16.8042 16.0098C16.8116 16.0358 16.8158 16.0559 16.818 16.0702C16.8199 16.0827 16.8201 16.089 16.8201 16.0898L16.82 16.1C16.82 16.2902 16.6614 16.45 16.47 16.45C16.2797 16.45 16.12 16.2913 16.12 16.1L16.12 16.0999C16.12 16.0994 16.1202 16.0931 16.1224 16.08C16.1248 16.0653 16.1292 16.0449 16.137 16.0183C16.1529 15.9641 16.1792 15.8959 16.2182 15.8146C16.284 15.6774 16.3733 15.5284 16.4734 15.38Z" fill="#424B5A"/>
</svg>
