<svg width="24" height="24" viewBox="0 0 24 24" fill="none" xmlns="http://www.w3.org/2000/svg">
<path fill-rule="evenodd" clip-rule="evenodd" d="M2.71293 5.07244C2.71293 3.94807 3.12376 3.28529 3.62245 2.98164C4.12476 2.67578 4.92266 2.60859 5.95787 3.11528L10.377 5.28504C10.7031 5.44469 11.0427 5.76307 11.3029 6.17589C11.5634 6.58918 11.7006 7.02761 11.7006 7.38155V10.3767L11.7006 10.3779L11.7006 21.1566H4.06655C3.31026 21.1566 2.71293 20.5513 2.71293 19.8428V5.07244ZM12.4211 22.6496H4.06655C2.51373 22.6496 1.21997 21.4036 1.21997 19.8428V5.07244C1.21997 3.5891 1.77957 2.35582 2.846 1.70647C3.90876 1.05935 5.27086 1.11671 6.6143 1.77437L11.0335 3.94415C11.6628 4.25232 12.1942 4.78998 12.566 5.37984C12.9375 5.96932 13.1935 6.68047 13.1935 7.38155V9.77485L17.5553 10.7539L17.5572 10.7543L19.5744 11.2015C20.2974 11.3604 21.0548 11.6458 21.6388 12.2348C22.2323 12.8333 22.566 13.6618 22.6073 14.7429C22.6194 14.8429 22.6192 14.9325 22.6191 14.9839L22.6191 14.9961V18.7584C22.6191 19.9339 22.348 20.951 21.634 21.665C20.9201 22.3789 19.9029 22.65 18.7274 22.65H12.447C12.4406 22.65 12.4341 22.6499 12.4277 22.6498C12.4255 22.6497 12.4233 22.6496 12.4211 22.6496ZM13.1935 21.157H18.7274C19.7018 21.157 20.2572 20.9305 20.5784 20.6093C20.8995 20.2881 21.1261 19.7327 21.1261 18.7584V14.9961L21.126 14.9527C21.1259 14.9409 21.1257 14.9331 21.1255 14.9276L21.1252 14.9231C21.1204 14.8924 21.1175 14.8614 21.1165 14.8303C21.0912 14.0204 20.8585 13.5683 20.5786 13.286C20.282 12.9868 19.8445 12.7894 19.254 12.6596L19.2526 12.6593L17.2322 12.2114L17.2302 12.211L13.1935 11.305V21.157ZM4.7334 8.96363C4.7334 8.55136 5.06761 8.21715 5.47988 8.21715H8.9336C9.34587 8.21715 9.68008 8.55136 9.68008 8.96363C9.68008 9.3759 9.34587 9.71011 8.9336 9.71011H5.47988C5.06761 9.71011 4.7334 9.3759 4.7334 8.96363ZM5.47988 12.1984C5.06761 12.1984 4.7334 12.5326 4.7334 12.9449C4.7334 13.3571 5.06761 13.6913 5.47988 13.6913H8.9336C9.34587 13.6913 9.68008 13.3571 9.68008 12.9449C9.68008 12.5326 9.34587 12.1984 8.9336 12.1984H5.47988Z" fill="#424B5A"/>
<path fill-rule="evenodd" clip-rule="evenodd" d="M14.5 18.5C14.5 17.2558 15.4144 16.25 16.5455 16.25H17.4545C18.5856 16.25 19.5 17.2558 19.5 18.5V22C19.5 22.4142 19.1947 21.75 18.8182 21.75H15.1818C14.8053 21.75 14.5 22.4142 14.5 22V18.5ZM16.5455 17.75C16.1675 17.75 15.8636 18.0842 15.8636 18.5V21.25H18.1364V18.5C18.1364 18.0842 17.8325 17.75 17.4545 17.75H16.5455Z" fill="#424B5A"/>
</svg>
