<svg width="24" height="24" viewBox="0 0 24 24" fill="none" xmlns="http://www.w3.org/2000/svg">
<path fill-rule="evenodd" clip-rule="evenodd" d="M9.69182 3.36245C9.27472 3.08231 8.72528 3.08231 8.30818 3.36245L8.3064 3.36364L4.30865 6.03212L4.30766 6.03278C3.96033 6.26691 3.75007 6.65588 3.75 7.06965L3.75414 13.2499H14.2541L14.25 7.07036C14.25 6.64979 14.0444 6.2654 13.6965 6.03558L13.6936 6.03363L9.6936 3.36364L9.69182 3.36245ZM14.2552 14.7499H3.75515L3.7595 21.2499H8.25V18.2499C8.25 17.8357 8.58579 17.4999 9 17.4999C9.41421 17.4999 9.75 17.8357 9.75 18.2499V21.2486L14.2595 21.2411L14.2552 14.7499ZM19.8571 22.7499H9H8.99525L3.01126 22.7599C2.9697 22.7599 2.92849 22.7565 2.88802 22.7499H2C1.58579 22.7499 1.25 22.4141 1.25 21.9999C1.25 21.5857 1.58579 21.2499 2 21.2499H2.2595L2.2547 14.0843C2.25159 14.0566 2.25 14.0284 2.25 13.9999C2.25 13.9717 2.25156 13.9438 2.25459 13.9165L2.25 7.06986C2.25 6.1441 2.71936 5.29344 3.47138 4.78754L3.47363 4.78603L7.47185 2.11724L7.47283 2.11658C8.39528 1.4976 9.60472 1.4976 10.5272 2.11658L10.5282 2.11724L14.5234 4.78408L14.525 4.78512C15.2961 5.29533 15.7498 6.15125 15.75 7.06986L15.7595 21.2499H19.23V18.6398C18.0883 18.3053 17.25 17.247 17.25 15.9999V13.9999C17.25 12.4857 18.4858 11.2499 20 11.2499C21.5142 11.2499 22.75 12.4857 22.75 13.9999V15.9999C22.75 17.2615 21.8921 18.3299 20.73 18.6512V21.2499H22C22.4142 21.2499 22.75 21.5857 22.75 21.9999C22.75 22.4141 22.4142 22.7499 22 22.7499H20.1028C20.0628 22.7565 20.0218 22.7599 19.98 22.7599C19.9381 22.7599 19.8971 22.7565 19.8571 22.7499ZM20 12.7499C19.3142 12.7499 18.75 13.3141 18.75 13.9999V15.9999C18.75 16.6857 19.3142 17.2499 20 17.2499C20.6858 17.2499 21.25 16.6857 21.25 15.9999V13.9999C21.25 13.3141 20.6858 12.7499 20 12.7499ZM8.25 8.99988C8.25 8.58566 8.58579 8.24988 9 8.24988C9.41421 8.24988 9.75 8.58566 9.75 8.99988C9.75 9.41409 9.41421 9.74988 9 9.74988C8.58579 9.74988 8.25 9.41409 8.25 8.99988ZM9 6.74988C7.75736 6.74988 6.75 7.75724 6.75 8.99988C6.75 10.2425 7.75736 11.2499 9 11.2499C10.2426 11.2499 11.25 10.2425 11.25 8.99988C11.25 7.75724 10.2426 6.74988 9 6.74988Z" fill="#424B5A"/>
</svg>
