<svg width="24" height="24" viewBox="0 0 24 24" fill="none" xmlns="http://www.w3.org/2000/svg">
<path fill-rule="evenodd" clip-rule="evenodd" d="M3.38172 4.29371C3.0711 4.60743 2.84998 5.13947 2.84998 6.02979V21.2498H7.5V18.2498C7.5 17.8355 7.83579 17.4998 8.25 17.4998C8.66421 17.4998 9 17.8355 9 18.2498V21.2498H13.55V6.02979C13.55 5.13758 13.3304 4.60548 13.0219 4.29236C12.7155 3.98131 12.1965 3.75977 11.32 3.75977H5.09003C4.21349 3.75977 3.69098 3.98135 3.38172 4.29371ZM8.25 22.7498H14.3H19.6572C19.6972 22.7563 19.7382 22.7598 19.78 22.7598C19.8219 22.7598 19.8629 22.7563 19.9029 22.7498H23C23.4142 22.7498 23.75 22.414 23.75 21.9998C23.75 21.5855 23.4142 21.2498 23 21.2498H20.53V18.2194C21.8089 17.8961 22.75 16.7418 22.75 15.3597V13.0898C22.75 11.4556 21.4342 10.1398 19.8 10.1398C18.1658 10.1398 16.85 11.4556 16.85 13.0898V15.3597C16.85 16.7274 17.7715 17.872 19.03 18.2091V21.2498H15.05V6.02979C15.05 4.91199 14.7746 3.93408 14.0905 3.23969C13.4045 2.54323 12.4335 2.25977 11.32 2.25977H5.09003C3.97656 2.25977 3.00405 2.54319 2.31579 3.23834C1.62887 3.93213 1.34998 4.9101 1.34998 6.02979V21.2498H1C0.585786 21.2498 0.25 21.5855 0.25 21.9998C0.25 22.414 0.585786 22.7498 1 22.7498H2.09998H8.25ZM19.8866 16.8073C20.6514 16.763 21.25 16.1364 21.25 15.3597V13.0898C21.25 12.284 20.6058 11.6398 19.8 11.6398C18.9942 11.6398 18.35 12.284 18.35 13.0898V15.3597C18.35 16.1274 18.9347 16.7485 19.6868 16.8055C19.7174 16.8017 19.7485 16.7997 19.78 16.7997C19.8162 16.7997 19.8518 16.8023 19.8866 16.8073ZM5.79999 7.49976C5.38577 7.49976 5.04999 7.83554 5.04999 8.24976C5.04999 8.66397 5.38577 8.99976 5.79999 8.99976H10.75C11.1642 8.99976 11.5 8.66397 11.5 8.24976C11.5 7.83554 11.1642 7.49976 10.75 7.49976H5.79999ZM5.04999 11.9998C5.04999 11.5855 5.38577 11.2498 5.79999 11.2498H10.75C11.1642 11.2498 11.5 11.5855 11.5 11.9998C11.5 12.414 11.1642 12.7498 10.75 12.7498H5.79999C5.38577 12.7498 5.04999 12.414 5.04999 11.9998Z" fill="#424B5A"/>
</svg>
