<svg width="24" height="24" viewBox="0 0 24 24" fill="none" xmlns="http://www.w3.org/2000/svg">
<path fill-rule="evenodd" clip-rule="evenodd" d="M2.75 4.15002C2.75 3.55196 2.89993 3.23825 3.06909 3.06909C3.23825 2.89993 3.55196 2.75 4.15002 2.75H8.45001C9.04807 2.75 9.36176 2.89993 9.5309 3.06908C9.70005 3.23824 9.84998 3.55195 9.84998 4.15002V5.25H9.12C8.19822 5.25 7.36934 5.48249 6.77592 6.07591C6.18251 6.66933 5.95001 7.4982 5.95001 8.41998V17.25H4.15002C3.55196 17.25 3.23825 17.1001 3.06909 16.9309C2.89993 16.7617 2.75 16.448 2.75 15.85V4.15002ZM5.95001 18.75H4.15002C3.31809 18.75 2.55678 18.5399 2.00843 17.9916C1.46008 17.4432 1.25 16.6819 1.25 15.85V4.15002C1.25 3.31809 1.46008 2.55678 2.00843 2.00843C2.55678 1.46008 3.31809 1.25 4.15002 1.25H8.45001C9.28195 1.25 10.0432 1.46008 10.5916 2.00844C11.1399 2.5568 11.35 3.3181 11.35 4.15002V5.25H12.65V4.15002C12.65 3.3181 12.8601 2.5568 13.4084 2.00844C13.9568 1.46008 14.7181 1.25 15.55 1.25H19.85C20.6819 1.25 21.4432 1.46008 21.9916 2.00843C22.5399 2.55678 22.75 3.31809 22.75 4.15002V15.85C22.75 16.6819 22.5399 17.4432 21.9916 17.9916C21.4432 18.5399 20.6819 18.75 19.85 18.75H18.12V19.58C18.12 20.4994 17.8912 21.3283 17.3007 21.9224C16.7094 22.5175 15.8818 22.75 14.96 22.75H12H9.12C8.19822 22.75 7.36934 22.5175 6.77592 21.9241C6.18251 21.3307 5.95001 20.5018 5.95001 19.58V18.75ZM12.75 21.25V19C12.75 18.5858 12.4142 18.25 12 18.25C11.5858 18.25 11.25 18.5858 11.25 19V21.25H9.12C8.43178 21.25 8.05066 21.0775 7.83658 20.8634C7.62251 20.6494 7.45001 20.2682 7.45001 19.58V18V8.41998C7.45001 7.73176 7.62251 7.35064 7.83658 7.13657C8.05066 6.9225 8.43178 6.75 9.12 6.75H10.6H13.4H14.96C15.6482 6.75 16.0256 6.92245 16.2368 7.13492C16.4488 7.34824 16.62 7.72941 16.62 8.41998V18V19.58C16.62 20.2706 16.4488 20.6518 16.2368 20.8651C16.0256 21.0775 15.6482 21.25 14.96 21.25H12.75ZM14.15 4.15002V5.25H14.96C15.8818 5.25 16.7094 5.48254 17.3007 6.07756C17.8912 6.67173 18.12 7.50055 18.12 8.41998V17.25H19.85C20.448 17.25 20.7617 17.1001 20.9309 16.9309C21.1001 16.7617 21.25 16.448 21.25 15.85V4.15002C21.25 3.55196 21.1001 3.23825 20.9309 3.06909C20.7617 2.89993 20.448 2.75 19.85 2.75H15.55C14.9519 2.75 14.6382 2.89993 14.4691 3.06908C14.2999 3.23824 14.15 3.55195 14.15 4.15002ZM10 10.25C9.58579 10.25 9.25 10.5858 9.25 11C9.25 11.4142 9.58579 11.75 10 11.75H14C14.4142 11.75 14.75 11.4142 14.75 11C14.75 10.5858 14.4142 10.25 14 10.25H10ZM9.25 14C9.25 13.5858 9.58579 13.25 10 13.25H14C14.4142 13.25 14.75 13.5858 14.75 14C14.75 14.4142 14.4142 14.75 14 14.75H10C9.58579 14.75 9.25 14.4142 9.25 14Z" fill="#424B5A"/>
</svg>
