<svg width="24" height="24" viewBox="0 0 24 24" fill="none" xmlns="http://www.w3.org/2000/svg">
<path fill-rule="evenodd" clip-rule="evenodd" d="M7 1.25C5.34646 1.25 4.11215 1.74912 3.30736 2.68106C2.52033 3.59244 2.25 4.79713 2.25 6V21.25H2C1.58579 21.25 1.25 21.5858 1.25 22C1.25 22.4142 1.58579 22.75 2 22.75H3H21H22C22.4142 22.75 22.75 22.4142 22.75 22C22.75 21.5858 22.4142 21.25 22 21.25H21.75V6C21.75 4.79713 21.4797 3.59244 20.6926 2.68106C19.8879 1.74912 18.6535 1.25 17 1.25H7ZM20.25 21.25V6C20.25 4.99287 20.0203 4.19756 19.5574 3.66144C19.1121 3.14588 18.3465 2.75 17 2.75H7C5.65354 2.75 4.88785 3.14588 4.44264 3.66144C3.97967 4.19756 3.75 4.99287 3.75 6V21.25H20.25ZM6.25 16.5C6.25 16.0858 6.58579 15.75 7 15.75H10C10.4142 15.75 10.75 16.0858 10.75 16.5C10.75 16.9142 10.4142 17.25 10 17.25H7C6.58579 17.25 6.25 16.9142 6.25 16.5ZM14 15.75C13.5858 15.75 13.25 16.0858 13.25 16.5C13.25 16.9142 13.5858 17.25 14 17.25H17C17.4142 17.25 17.75 16.9142 17.75 16.5C17.75 16.0858 17.4142 15.75 17 15.75H14ZM6.25 12C6.25 11.5858 6.58579 11.25 7 11.25H10C10.4142 11.25 10.75 11.5858 10.75 12C10.75 12.4142 10.4142 12.75 10 12.75H7C6.58579 12.75 6.25 12.4142 6.25 12ZM14 11.25C13.5858 11.25 13.25 11.5858 13.25 12C13.25 12.4142 13.5858 12.75 14 12.75H17C17.4142 12.75 17.75 12.4142 17.75 12C17.75 11.5858 17.4142 11.25 17 11.25H14ZM6.25 7.5C6.25 7.08579 6.58579 6.75 7 6.75H10C10.4142 6.75 10.75 7.08579 10.75 7.5C10.75 7.91421 10.4142 8.25 10 8.25H7C6.58579 8.25 6.25 7.91421 6.25 7.5ZM14 6.75C13.5858 6.75 13.25 7.08579 13.25 7.5C13.25 7.91421 13.5858 8.25 14 8.25H17C17.4142 8.25 17.75 7.91421 17.75 7.5C17.75 7.08579 17.4142 6.75 17 6.75H14Z" fill="#424B5A"/>
</svg>
