<svg width="24" height="24" viewBox="0 0 24 24" fill="none" xmlns="http://www.w3.org/2000/svg">
<path fill-rule="evenodd" clip-rule="evenodd" d="M7.10001 2.75C5.80579 2.75 4.75 3.81265 4.75 5.10001V7.37764C4.9845 7.29497 5.23692 7.25 5.5 7.25H18.5C18.7631 7.25 19.0155 7.29497 19.25 7.37764V5.10001C19.25 3.80579 18.1874 2.75 16.9 2.75H7.10001ZM4.75 11.5V9.5C4.75 9.08421 5.08421 8.75 5.5 8.75H18.5C18.9158 8.75 19.25 9.08421 19.25 9.5V11.5C19.25 11.9158 18.9158 12.25 18.5 12.25H5.5C5.08421 12.25 4.75 11.9158 4.75 11.5ZM18.5 13.75C18.7631 13.75 19.0155 13.705 19.25 13.6224V18.9C19.25 20.1958 18.1958 21.25 16.9 21.25H7.10001C5.81265 21.25 4.75 20.1942 4.75 18.9V13.6224C4.9845 13.705 5.23692 13.75 5.5 13.75H18.5ZM3.25 9.5V11.5V18.9C3.25 21.0258 4.98737 22.75 7.10001 22.75H16.9C19.0242 22.75 20.75 21.0242 20.75 18.9V11.5V9.5V5.10001C20.75 2.97422 19.0126 1.25 16.9 1.25H7.10001C4.97422 1.25 3.25 2.98737 3.25 5.10001V9.5ZM8.49451 16.45C7.80415 16.45 7.24451 17.0097 7.24451 17.7C7.24451 18.3904 7.80415 18.95 8.49451 18.95H8.50349C9.19385 18.95 9.75349 18.3904 9.75349 17.7C9.75349 17.0097 9.19385 16.45 8.50349 16.45H8.49451ZM14.2445 17.7C14.2445 17.0097 14.8042 16.45 15.4945 16.45H15.5035C16.1938 16.45 16.7535 17.0097 16.7535 17.7C16.7535 18.3904 16.1938 18.95 15.5035 18.95H15.4945C14.8042 18.95 14.2445 18.3904 14.2445 17.7ZM9.5 4.25C9.08579 4.25 8.75 4.58579 8.75 5C8.75 5.41421 9.08579 5.75 9.5 5.75H14.5C14.9142 5.75 15.25 5.41421 15.25 5C15.25 4.58579 14.9142 4.25 14.5 4.25H9.5Z" fill="#424B5A"/>
</svg>
