<svg width="24" height="24" viewBox="0 0 24 24" fill="none" xmlns="http://www.w3.org/2000/svg">
<path fill-rule="evenodd" clip-rule="evenodd" d="M8 1.25C8.41421 1.25 8.75 1.58579 8.75 2V2.75H15.25V2C15.25 1.58579 15.5858 1.25 16 1.25C16.4142 1.25 16.75 1.58579 16.75 2V2.80835C18.1785 2.96604 19.4152 3.38705 20.3065 4.37861C21.3291 5.51622 21.75 7.24345 21.75 9.65V15.83C21.75 17.9008 21.5117 19.6968 20.4466 20.9506C19.3544 22.2362 17.57 22.76 15 22.76H9C6.42996 22.76 4.64561 22.2362 3.55341 20.9506C2.48827 19.6968 2.25 17.9008 2.25 15.83V9.65C2.25 7.24339 2.67087 5.51842 3.69382 4.38198C4.5852 3.3917 5.82197 2.97093 7.25 2.81014V2C7.25 1.58579 7.58579 1.25 8 1.25ZM7.25 4.32119C6.09847 4.47237 5.32927 4.80717 4.80868 5.38552C4.16413 6.10158 3.75 7.35661 3.75 9.65V15.83C3.75 16.1932 3.75822 16.5327 3.77557 16.85H20.2244C20.2418 16.5327 20.25 16.1932 20.25 15.83V9.65C20.25 7.35655 19.8359 6.09878 19.191 5.38139C18.6705 4.80233 17.9013 4.46735 16.75 4.31897V5C16.75 5.41421 16.4142 5.75 16 5.75C15.5858 5.75 15.25 5.41421 15.25 5V4.25H8.75V5C8.75 5.41421 8.41421 5.75 8 5.75C7.58579 5.75 7.25 5.41421 7.25 5V4.32119ZM4.69659 19.9794C4.35067 19.5722 4.1127 19.0406 3.96188 18.35H20.0381C19.8873 19.0406 19.6493 19.5722 19.3034 19.9794C18.6456 20.7538 17.43 21.26 15 21.26H9C6.57004 21.26 5.35439 20.7538 4.69659 19.9794ZM9.73 10.22C9.73 8.92 10.77 8.25 12 8.25C13.23 8.25 14.26 8.92 14.26 10.22C14.26 10.84 13.98 11.3 13.53 11.61C14.15 11.96 14.5 12.55 14.5 13.23C14.5 14.47 13.54 15.24 12 15.24C10.45 15.24 9.5 14.47 9.5 13.23C9.5 12.55 9.85 11.97 10.46 11.61C10.02 11.31 9.73 10.84 9.73 10.22ZM11.1 10.29C11.1 10.78 11.48 11.09 12 11.09C12.52 11.09 12.9 10.78 12.9 10.29C12.9 9.79 12.52 9.5 12 9.5C11.48 9.5 11.1 9.79 11.1 10.29ZM10.86 13.07C10.86 13.67 11.34 14 12 14C12.66 14 13.14 13.67 13.14 13.07C13.14 12.48 12.66 12.15 12 12.15C11.34 12.15 10.86 12.47 10.86 13.07Z" fill="#424B5A"/>
</svg>
