<svg width="24" height="24" viewBox="0 0 24 24" fill="none" xmlns="http://www.w3.org/2000/svg">
<path fill-rule="evenodd" clip-rule="evenodd" d="M8 1.25C8.41421 1.25 8.75 1.58579 8.75 2V2.75H15.25V2C15.25 1.58579 15.5858 1.25 16 1.25C16.4142 1.25 16.75 1.58579 16.75 2V2.78025C18.2859 2.90808 19.5038 3.44034 20.3621 4.36466C21.3464 5.42465 21.75 6.88503 21.75 8.5V16.0917C22.3722 16.896 22.75 17.9021 22.75 19C22.75 19.8885 22.5017 20.7327 22.0615 21.4486C21.2406 22.8246 19.732 23.75 18 23.75C16.9087 23.75 15.8998 23.3845 15.0965 22.75H8C6.10705 22.75 4.63152 22.2054 3.6379 21.1353C2.65363 20.0754 2.25 18.615 2.25 17V8.5C2.25 6.88503 2.65363 5.42465 3.6379 4.36466C4.4962 3.44034 5.71409 2.90808 7.25 2.78025V2C7.25 1.58579 7.58579 1.25 8 1.25ZM7.25 5V4.28628C6.06502 4.40668 5.26412 4.81778 4.7371 5.38534C4.12128 6.04852 3.77738 7.03465 3.75157 8.34H20.2484C20.2226 7.03465 19.8787 6.04852 19.2629 5.38534C18.7359 4.81778 17.935 4.40668 16.75 4.28628V5C16.75 5.41421 16.4142 5.75 16 5.75C15.5858 5.75 15.25 5.41421 15.25 5V4.25H8.75V5C8.75 5.41421 8.41421 5.75 8 5.75C7.58579 5.75 7.25 5.41421 7.25 5ZM3.75 17V9.84H20.25V14.818L20.2154 14.7995C19.5558 14.4497 18.8024 14.25 18 14.25C15.3758 14.25 13.25 16.3758 13.25 19C13.25 19.8077 13.4552 20.5787 13.8231 21.25H8C6.39295 21.25 5.36848 20.7946 4.7371 20.1147C4.09637 19.4246 3.75 18.385 3.75 17ZM18 15.75C18.973 15.75 19.841 16.1784 20.4359 16.8543L20.4368 16.8553C20.9442 17.4373 21.25 18.1838 21.25 19C21.25 19.6094 21.0795 20.1833 20.7816 20.6663L20.7815 20.6663L20.7754 20.6766C20.2156 21.6177 19.1859 22.25 18 22.25C17.1779 22.25 16.4366 21.9504 15.8729 21.4436C15.8661 21.4374 15.8591 21.4313 15.852 21.4254C15.609 21.2216 15.3948 20.9684 15.2278 20.6821L15.2184 20.6663C14.9205 20.1833 14.75 19.6094 14.75 19C14.75 17.2042 16.2042 15.75 18 15.75ZM20.0692 18.5706C20.3733 18.2893 20.3919 17.8148 20.1106 17.5107C19.8294 17.2067 19.3548 17.1881 19.0508 17.4694L17.4503 18.9496L16.9703 18.4697C16.6774 18.1768 16.2026 18.1768 15.9097 18.4697C15.6168 18.7626 15.6168 19.2374 15.9097 19.5303L16.8997 20.5203C17.1845 20.8052 17.6435 20.8141 17.9392 20.5406L20.0692 18.5706ZM11.9955 12.7C11.4432 12.7 10.9955 13.1477 10.9955 13.7C10.9955 14.2523 11.4432 14.7 11.9955 14.7H12.0045C12.5568 14.7 13.0045 14.2523 13.0045 13.7C13.0045 13.1477 12.5568 12.7 12.0045 12.7H11.9955ZM7.29431 13.7C7.29431 13.1477 7.74203 12.7 8.29431 12.7H8.30329C8.85558 12.7 9.30329 13.1477 9.30329 13.7C9.30329 14.2523 8.85558 14.7 8.30329 14.7H8.29431C7.74203 14.7 7.29431 14.2523 7.29431 13.7ZM8.29431 15.7C7.74203 15.7 7.29431 16.1477 7.29431 16.7C7.29431 17.2523 7.74203 17.7 8.29431 17.7H8.30329C8.85558 17.7 9.30329 17.2523 9.30329 16.7C9.30329 16.1477 8.85558 15.7 8.30329 15.7H8.29431Z" fill="#424B5A"/>
</svg>
