<svg width="24" height="24" viewBox="0 0 24 24" fill="none" xmlns="http://www.w3.org/2000/svg">
<path fill-rule="evenodd" clip-rule="evenodd" d="M8 1.25C8.41421 1.25 8.75 1.58579 8.75 2V2.75H15.25V2C15.25 1.58579 15.5858 1.25 16 1.25C16.4142 1.25 16.75 1.58579 16.75 2V2.78025C18.2859 2.90808 19.5038 3.44034 20.3621 4.36466C21.3464 5.42465 21.75 6.88503 21.75 8.5V12C21.75 12.4142 21.4142 12.75 21 12.75C20.5858 12.75 20.25 12.4142 20.25 12V9.84H3.75V17C3.75 18.385 4.09637 19.4246 4.7371 20.1147C5.36848 20.7946 6.39295 21.25 8 21.25H12C12.4142 21.25 12.75 21.5858 12.75 22C12.75 22.4142 12.4142 22.75 12 22.75H8C6.10705 22.75 4.63152 22.2054 3.6379 21.1353C2.65363 20.0754 2.25 18.615 2.25 17V8.5C2.25 6.88503 2.65363 5.42465 3.6379 4.36466C4.4962 3.44034 5.71409 2.90808 7.25 2.78025V2C7.25 1.58579 7.58579 1.25 8 1.25ZM7.25 5V4.28628C6.06502 4.40668 5.26412 4.81778 4.7371 5.38534C4.12128 6.04852 3.77738 7.03465 3.75157 8.34H20.2484C20.2226 7.03465 19.8787 6.04852 19.2629 5.38534C18.7359 4.81778 17.935 4.40668 16.75 4.28628V5C16.75 5.41421 16.4142 5.75 16 5.75C15.5858 5.75 15.25 5.41421 15.25 5V4.25H8.75V5C8.75 5.41421 8.41421 5.75 8 5.75C7.58579 5.75 7.25 5.41421 7.25 5ZM20.1333 14.4564C20.7966 14.3883 21.4068 14.6862 21.9503 15.2297C22.4969 15.7763 22.7984 16.3878 22.7326 17.0526C22.6707 17.6778 22.2979 18.1627 21.9503 18.5103L21.5434 18.9172C21.4884 18.9994 21.4182 19.0689 21.3379 19.1228L18.4179 22.0427C18.2714 22.1963 18.091 22.308 17.9429 22.3821C17.7871 22.46 17.5976 22.5307 17.407 22.5608L17.3945 22.5628L16.046 22.7525C15.6045 22.8153 15.1486 22.6992 14.8196 22.3703C14.4907 22.0414 14.3745 21.5863 14.4374 21.1448L14.629 19.783C14.6596 19.5893 14.7319 19.401 14.8095 19.2477C14.8871 19.0943 14.9973 18.922 15.1397 18.7797L18.1596 15.7597C18.1665 15.7526 18.1735 15.7456 18.1806 15.7387L18.6796 15.2397C19.0273 14.892 19.5112 14.5203 20.1333 14.4564ZM18.4685 17.5721L16.2017 19.839L16.2014 19.8393C16.2002 19.8407 16.1948 19.8471 16.1862 19.8595C16.1744 19.8768 16.1609 19.8992 16.148 19.9248C16.135 19.9505 16.1248 19.9747 16.1179 19.9945C16.1136 20.0069 16.1116 20.0146 16.1108 20.0176L15.9369 21.2531L17.173 21.0791C17.1762 21.0783 17.1853 21.076 17.2001 21.0709C17.2215 21.0636 17.2466 21.0532 17.272 21.0404C17.2977 21.0276 17.3182 21.0152 17.3318 21.0058L17.339 21.0005L17.3497 20.9897L19.6158 18.7236C19.1574 18.4238 18.7666 18.0316 18.4685 17.5721ZM20.7146 17.6248C20.2117 17.3831 19.8075 16.9765 19.5687 16.4719L19.7403 16.3003C20.0026 16.038 20.1787 15.9597 20.2866 15.9486C20.3534 15.9417 20.5432 15.9438 20.8897 16.2903C21.2431 16.6438 21.2466 16.8372 21.2399 16.9049C21.2293 17.0123 21.152 17.1873 20.8897 17.4497L20.7146 17.6248ZM11.9955 12.7C11.4432 12.7 10.9955 13.1477 10.9955 13.7C10.9955 14.2523 11.4432 14.7 11.9955 14.7H12.0045C12.5568 14.7 13.0045 14.2523 13.0045 13.7C13.0045 13.1477 12.5568 12.7 12.0045 12.7H11.9955ZM7.29431 13.7C7.29431 13.1477 7.74203 12.7 8.29431 12.7H8.30329C8.85558 12.7 9.30329 13.1477 9.30329 13.7C9.30329 14.2523 8.85558 14.7 8.30329 14.7H8.29431C7.74203 14.7 7.29431 14.2523 7.29431 13.7ZM8.29431 15.7C7.74203 15.7 7.29431 16.1477 7.29431 16.7C7.29431 17.2523 7.74203 17.7 8.29431 17.7H8.30329C8.85558 17.7 9.30329 17.2523 9.30329 16.7C9.30329 16.1477 8.85558 15.7 8.30329 15.7H8.29431Z" fill="#424B5A"/>
</svg>
