<svg width="24" height="24" viewBox="0 0 24 24" fill="none" xmlns="http://www.w3.org/2000/svg">
<path fill-rule="evenodd" clip-rule="evenodd" d="M12 2.75C6.89137 2.75 2.75 6.89137 2.75 12C2.75 17.1086 6.89137 21.25 12 21.25C17.1086 21.25 21.25 17.1086 21.25 12C21.25 6.89137 17.1086 2.75 12 2.75ZM1.25 12C1.25 6.06294 6.06294 1.25 12 1.25C17.9371 1.25 22.75 6.06294 22.75 12C22.75 17.9371 17.9371 22.75 12 22.75C6.06294 22.75 1.25 17.9371 1.25 12ZM9.89001 5.07999C10.3042 5.07999 10.64 5.41577 10.64 5.82999V5.92001H13.36V5.82999C13.36 5.41577 13.6958 5.07999 14.11 5.07999C14.5242 5.07999 14.86 5.41577 14.86 5.82999V6.08955C15.7032 6.31051 16.4227 6.73946 16.9817 7.32894C17.8158 8.20847 18.25 9.39999 18.25 10.67V13.67C18.25 14.94 17.8158 16.1316 16.9817 17.0111C16.1419 17.8967 14.9397 18.42 13.5 18.42H10.5C9.0603 18.42 7.85813 17.8967 7.01828 17.0111C6.18425 16.1316 5.75 14.94 5.75 13.67V10.67C5.75 9.39999 6.18425 8.20847 7.01828 7.32894C7.57728 6.73946 8.29679 6.31051 9.14001 6.08955V5.82999C9.14001 5.41577 9.4758 5.07999 9.89001 5.07999ZM9.14001 7.66528C8.72621 7.83053 8.38177 8.07103 8.10672 8.36108C7.83356 8.64914 7.61783 8.99787 7.47118 9.39229C7.49059 9.39078 7.5102 9.39001 7.53 9.39001H16.47C16.4898 9.39001 16.5094 9.39078 16.5288 9.39229C16.3822 8.99787 16.1664 8.64914 15.8933 8.36108C15.6182 8.07103 15.2738 7.83053 14.86 7.66528V7.82999C14.86 8.2442 14.5242 8.57999 14.11 8.57999C13.6958 8.57999 13.36 8.2442 13.36 7.82999V7.42001H10.64V7.82999C10.64 8.2442 10.3042 8.57999 9.89001 8.57999C9.4758 8.57999 9.14001 8.2442 9.14001 7.82999V7.66528ZM16.75 10.836C16.6635 10.8708 16.569 10.89 16.47 10.89H7.53C7.43102 10.89 7.33651 10.8708 7.25 10.836V13.67C7.25 14.6 7.56575 15.4085 8.10672 15.9789C8.64187 16.5433 9.4397 16.92 10.5 16.92H13.5C14.5603 16.92 15.3581 16.5433 15.8933 15.9789C16.4343 15.4085 16.75 14.6 16.75 13.67V10.836Z" fill="#424B5A"/>
</svg>
