<svg width="24" height="24" viewBox="0 0 24 24" fill="none" xmlns="http://www.w3.org/2000/svg">
<path fill-rule="evenodd" clip-rule="evenodd" d="M8.75 2C8.75 1.58579 8.41421 1.25 8 1.25C7.58579 1.25 7.25 1.58579 7.25 2V2.78025C5.71409 2.90808 4.4962 3.44034 3.6379 4.36466C2.65363 5.42465 2.25 6.88503 2.25 8.5V17C2.25 18.615 2.65363 20.0754 3.6379 21.1353C4.63152 22.2054 6.10705 22.75 8 22.75H15.0842C15.889 23.3767 16.9009 23.75 18 23.75C20.6234 23.75 22.75 21.6234 22.75 19C22.75 17.9009 22.3767 16.889 21.75 16.0842V8.5C21.75 6.88503 21.3464 5.42465 20.3621 4.36466C19.5038 3.44034 18.2859 2.90808 16.75 2.78025V2C16.75 1.58579 16.4142 1.25 16 1.25C15.5858 1.25 15.25 1.58579 15.25 2V2.75H8.75V2ZM4.7371 5.38534C5.26412 4.81778 6.06502 4.40668 7.25 4.28628V5C7.25 5.41421 7.58579 5.75 8 5.75C8.41421 5.75 8.75 5.41421 8.75 5V4.25H15.25V5C15.25 5.41421 15.5858 5.75 16 5.75C16.4142 5.75 16.75 5.41421 16.75 5V4.28628C17.935 4.40668 18.7359 4.81778 19.2629 5.38534C19.8787 6.04852 20.2226 7.03465 20.2484 8.34H3.75157C3.77738 7.03465 4.12128 6.04852 4.7371 5.38534ZM3.75 9.84H20.25V14.8157C19.6178 14.475 18.8995 14.2734 18.1362 14.2519C18.091 14.2506 18.0456 14.25 18 14.25C15.3758 14.25 13.25 16.3758 13.25 19C13.25 19.8141 13.4548 20.5803 13.8157 21.25H8C6.39295 21.25 5.36848 20.7946 4.7371 20.1147C4.09637 19.4246 3.75 18.385 3.75 17V9.84ZM18 22.25C17.2199 22.25 16.5039 21.9751 15.9438 21.5169C15.9162 21.4842 15.8855 21.4535 15.852 21.4254C15.609 21.2216 15.3949 20.9684 15.2278 20.6821L15.2184 20.6663C14.9205 20.1833 14.75 19.6094 14.75 19C14.75 17.2051 16.2051 15.75 18 15.75C18.0421 15.75 18.084 15.7508 18.1256 15.7524C19.0481 15.7875 19.8676 16.2081 20.4368 16.8553C20.4521 16.8727 20.4681 16.8893 20.4847 16.905C20.9622 17.4707 21.25 18.2017 21.25 19C21.25 20.7949 19.7949 22.25 18 22.25ZM16.4184 17.4709C16.7106 17.1773 17.1855 17.1762 17.4791 17.4684L18.0113 17.9981L18.5197 17.4897C18.8126 17.1968 19.2874 17.1968 19.5803 17.4897C19.8732 17.7825 19.8732 18.2574 19.5803 18.5503L19.0744 19.0562L19.5991 19.5784C19.8927 19.8706 19.8938 20.3455 19.6016 20.6391C19.3094 20.9326 18.8345 20.9338 18.5409 20.6416L18.0138 20.1169L17.4603 20.6703C17.1674 20.9632 16.6926 20.9632 16.3997 20.6703C16.1068 20.3775 16.1068 19.9026 16.3997 19.6097L16.9506 19.0588L16.4209 18.5316C16.1273 18.2394 16.1262 17.7645 16.4184 17.4709ZM11.9955 12.7C11.4432 12.7 10.9955 13.1477 10.9955 13.7C10.9955 14.2523 11.4432 14.7 11.9955 14.7H12.0045C12.5568 14.7 13.0045 14.2523 13.0045 13.7C13.0045 13.1477 12.5568 12.7 12.0045 12.7H11.9955ZM7.29431 13.7C7.29431 13.1477 7.74203 12.7 8.29431 12.7H8.30329C8.85558 12.7 9.30329 13.1477 9.30329 13.7C9.30329 14.2523 8.85558 14.7 8.30329 14.7H8.29431C7.74203 14.7 7.29431 14.2523 7.29431 13.7ZM8.29431 15.7C7.74203 15.7 7.29431 16.1477 7.29431 16.7C7.29431 17.2523 7.74203 17.7 8.29431 17.7H8.30329C8.85558 17.7 9.30329 17.2523 9.30329 16.7C9.30329 16.1477 8.85558 15.7 8.30329 15.7H8.29431Z" fill="#424B5A"/>
</svg>
