<svg width="24" height="24" viewBox="0 0 24 24" fill="none" xmlns="http://www.w3.org/2000/svg">
<path fill-rule="evenodd" clip-rule="evenodd" d="M5.59 1.25C4.62059 1.25 3.74153 1.66198 2.98958 2.39989C2.38783 2.96904 1.94487 3.61753 1.66286 4.33342C1.3856 5.02732 1.25 5.77184 1.25 6.54C1.25 7.69701 1.51719 8.88605 2.02877 10.101L2.0297 10.1032C2.5351 11.293 3.22474 12.4813 4.07114 13.658L4.07368 13.6614C4.92677 14.8332 5.8815 15.9519 6.93711 17.0178C7.06361 17.1455 8.5 18.5 10 19.7C10.0984 19.7666 10.1856 19.8204 10.2631 19.8632L10.3065 19.8948L10.3085 19.8964C11.4894 20.7561 12.6885 21.4455 13.896 21.96C15.1213 22.4821 16.3114 22.75 17.45 22.75C18.2444 22.75 18.9921 22.6022 19.6864 22.3132C20.4106 22.016 21.0402 21.5559 21.5957 20.9437C21.9381 20.5659 22.1984 20.1633 22.3982 19.7403C22.6147 19.2817 22.72 18.8025 22.72 18.33C22.72 17.9352 22.6337 17.59 22.5063 17.2715C22.5032 17.2636 22.4999 17.2558 22.4965 17.248C22.3233 16.8545 22.0454 16.5425 21.6908 16.2961L18.3842 13.9485L18.3717 13.9398C18.0939 13.7509 17.8169 13.5916 17.534 13.4759C17.2362 13.3541 16.9399 13.29 16.64 13.29C16.2447 13.29 15.8882 13.4019 15.5612 13.5967C15.2481 13.7639 14.9549 14.0047 14.6815 14.2779L13.9918 14.9585C13.9751 14.9508 13.9544 14.9415 13.9322 14.9319C13.8151 14.8685 13.6759 14.7818 13.5189 14.6698C13.5128 14.6632 13.5065 14.6566 13.5 14.65C13.3 14.4462 12.7561 13.9361 12.1444 13.3624C11.2098 12.4858 10.1168 11.4607 9.84989 11.1524C9.44802 10.6772 9.183 10.3079 9.03333 10.0455C9.02321 10.0197 9.01385 9.99743 9.00688 9.98096L9.69563 9.26502C9.96427 8.99567 10.1968 8.70784 10.367 8.40939C10.5673 8.07663 10.68 7.70687 10.68 7.32C10.68 7.00644 10.5997 6.6971 10.4818 6.42035C10.3657 6.13796 10.2053 5.85906 10.0003 5.574L7.68396 2.30922C7.42309 1.93393 7.08755 1.67229 6.71941 1.5014C6.36311 1.33138 5.97318 1.25 5.59 1.25ZM12.1806 15.4558C11.9057 15.1912 11.4916 14.8019 11.0425 14.3798L11.0424 14.3798L11.0424 14.3798C10.0938 13.4883 8.98938 12.4503 8.71287 12.1308L8.70742 12.1245C8.25416 11.5888 7.90702 11.1141 7.69158 10.7191C7.6703 10.6801 7.65254 10.6393 7.63849 10.5972C7.63849 10.5972 7.63602 10.5904 7.62302 10.5597L7.61951 10.5514C7.60704 10.522 7.58736 10.4756 7.56775 10.4233C7.55776 10.3967 7.54929 10.3695 7.54239 10.3419C7.51008 10.2127 7.49 10.081 7.49 9.93C7.49 9.59078 7.6056 9.26699 7.86359 9.00579L8.61951 8.22003L8.62967 8.20967C8.83569 8.00365 8.97896 7.81685 9.06708 7.66096C9.07106 7.65392 9.07515 7.64695 9.07935 7.64004C9.15514 7.51553 9.18 7.40903 9.18 7.32C9.18 7.25575 9.16141 7.14722 9.10064 7.00544L9.09574 6.99401C9.03236 6.83908 8.93418 6.66049 8.78135 6.44823L8.7783 6.44399L6.45332 3.16694C6.35577 3.02604 6.23429 2.92955 6.08571 2.86097L6.07541 2.85622C5.9331 2.78791 5.76498 2.75 5.59 2.75C5.08187 2.75 4.56293 2.95593 4.03614 3.47449L4.02467 3.48555C3.56991 3.91456 3.25506 4.38355 3.05792 4.88459L3.05637 4.88855C2.85415 5.39409 2.75 5.94888 2.75 6.54C2.75 7.46267 2.96266 8.45326 3.41075 9.51784C3.86507 10.5871 4.49483 11.6779 5.28758 12.7803C6.09417 13.8879 6.99902 14.9486 8.00289 15.9622C8.10702 16.0674 9.63843 17.5096 10.6732 18.3083C10.7113 18.3287 10.7482 18.3527 10.7833 18.3803C10.882 18.4578 10.9784 18.5282 11.0915 18.6107L11.1924 18.6845C12.2912 19.4843 13.3918 20.1147 14.484 20.5801C15.5587 21.038 16.5486 21.25 17.45 21.25C18.0548 21.25 18.6064 21.1382 19.1115 20.9277L19.1156 20.926C19.6104 20.7233 20.0604 20.4034 20.4842 19.9364C20.7217 19.6743 20.9016 19.3966 21.0418 19.0998C21.1652 18.8383 21.22 18.5776 21.22 18.33C21.22 18.169 21.1878 18.0176 21.1189 17.8418C21.0719 17.74 20.9913 17.6362 20.8331 17.5267L20.8258 17.5216L17.5222 15.1761C17.3028 15.0273 17.1216 14.9279 16.966 14.8642C16.8238 14.806 16.7201 14.79 16.64 14.79C16.5951 14.79 16.5502 14.7951 16.5021 14.8083C16.447 14.8235 16.3878 14.8494 16.3199 14.8907C16.3059 14.8993 16.2915 14.9074 16.2769 14.915C16.1388 14.987 15.96 15.1207 15.7403 15.3404L15.7368 15.3439L14.9782 16.0924C14.7356 16.3341 14.4185 16.48 14.04 16.48C13.8919 16.48 13.7162 16.4634 13.5266 16.3923C13.5158 16.3882 13.5051 16.3839 13.4945 16.3794C13.4533 16.3617 13.4149 16.3441 13.3878 16.3317L13.38 16.3281C13.3476 16.3132 13.3366 16.3084 13.3314 16.3064C13.3073 16.2967 13.2837 16.2858 13.2607 16.2737C13.0288 16.1517 12.7751 15.9889 12.51 15.79C12.4278 15.7284 12.309 15.6076 12.1806 15.4558ZM14.75 6C14.75 5.58579 15.0858 5.25 15.5 5.25H17.25V3.5C17.25 3.08579 17.5858 2.75 18 2.75C18.4142 2.75 18.75 3.08579 18.75 3.5V5.25H20.5C20.9142 5.25 21.25 5.58579 21.25 6C21.25 6.41421 20.9142 6.75 20.5 6.75H18.75V8.5C18.75 8.91421 18.4142 9.25 18 9.25C17.5858 9.25 17.25 8.91421 17.25 8.5V6.75H15.5C15.0858 6.75 14.75 6.41421 14.75 6Z" fill="#424B5A"/>
</svg>
