<svg width="24" height="24" viewBox="0 0 24 24" fill="none" xmlns="http://www.w3.org/2000/svg">
<path fill-rule="evenodd" clip-rule="evenodd" d="M2.98958 2.39989C3.74153 1.66198 4.62059 1.25 5.59 1.25C5.97318 1.25 6.36311 1.33138 6.71941 1.5014C7.08755 1.67229 7.42309 1.93393 7.68396 2.30922L10.0003 5.574C10.2053 5.85906 10.3657 6.13796 10.4818 6.42035C10.5997 6.6971 10.68 7.00644 10.68 7.32C10.68 7.70687 10.5673 8.07663 10.367 8.40939C10.1968 8.70784 9.96427 8.99567 9.69563 9.26502L9.00688 9.98096C9.01385 9.99743 9.02321 10.0197 9.03333 10.0455C9.183 10.3079 9.44802 10.6772 9.84989 11.1524C10.1168 11.4607 11.2098 12.4858 12.1444 13.3624C12.7561 13.9361 13.3 14.4462 13.5 14.65C13.5065 14.6566 13.5128 14.6632 13.5189 14.6698C13.6759 14.7818 13.8151 14.8685 13.9322 14.9319C13.9544 14.9415 13.9751 14.9508 13.9918 14.9585L14.6815 14.2779C14.9549 14.0047 15.2481 13.7639 15.5612 13.5967C15.8882 13.4019 16.2447 13.29 16.64 13.29C16.9399 13.29 17.2362 13.3541 17.534 13.4759C17.8169 13.5916 18.0939 13.7509 18.3717 13.9398L18.3842 13.9485L21.6908 16.2961C22.0454 16.5425 22.3233 16.8545 22.4965 17.248C22.4999 17.2558 22.5032 17.2636 22.5063 17.2715C22.6337 17.59 22.72 17.9352 22.72 18.33C22.72 18.8025 22.6147 19.2817 22.3982 19.7403C22.1984 20.1633 21.9381 20.5659 21.5957 20.9437C21.0402 21.5559 20.4106 22.016 19.6864 22.3132C18.9921 22.6022 18.2444 22.75 17.45 22.75C16.3114 22.75 15.1213 22.4821 13.896 21.96C12.6885 21.4455 11.4894 20.7561 10.3085 19.8964L10.3065 19.8948L10.2631 19.8632C10.1856 19.8204 10.0984 19.7666 10 19.7C8.5 18.5 7.06361 17.1455 6.93711 17.0178C5.8815 15.9519 4.92677 14.8332 4.07368 13.6614L4.07114 13.658C3.22474 12.4813 2.5351 11.293 2.0297 10.1032L2.02877 10.101C1.51719 8.88605 1.25 7.69701 1.25 6.54C1.25 5.77184 1.3856 5.02732 1.66286 4.33342C1.94487 3.61753 2.38783 2.96904 2.98958 2.39989ZM11.0425 14.3798C11.4916 14.8019 11.9057 15.1912 12.1806 15.4558C12.309 15.6076 12.4278 15.7284 12.51 15.79C12.7751 15.9889 13.0288 16.1517 13.2607 16.2737C13.2837 16.2858 13.3073 16.2967 13.3314 16.3064C13.3366 16.3084 13.3476 16.3132 13.38 16.3281L13.3878 16.3317C13.4149 16.3441 13.4533 16.3617 13.4945 16.3794C13.5051 16.3839 13.5158 16.3882 13.5266 16.3923C13.7162 16.4634 13.8919 16.48 14.04 16.48C14.4185 16.48 14.7356 16.3341 14.9782 16.0924L15.7368 15.3439L15.7403 15.3404C15.96 15.1207 16.1388 14.987 16.2769 14.915C16.2915 14.9074 16.3059 14.8993 16.3199 14.8907C16.3878 14.8494 16.447 14.8235 16.5021 14.8083C16.5502 14.7951 16.5951 14.79 16.64 14.79C16.7201 14.79 16.8238 14.806 16.966 14.8642C17.1216 14.9279 17.3028 15.0273 17.5222 15.1761L20.8258 17.5216L20.8331 17.5267C20.9913 17.6362 21.0719 17.74 21.1189 17.8418C21.1878 18.0176 21.22 18.169 21.22 18.33C21.22 18.5776 21.1652 18.8383 21.0418 19.0998C20.9016 19.3966 20.7217 19.6743 20.4842 19.9364C20.0604 20.4034 19.6104 20.7233 19.1156 20.926L19.1115 20.9277C18.6064 21.1382 18.0548 21.25 17.45 21.25C16.5486 21.25 15.5587 21.038 14.484 20.5801C13.3918 20.1147 12.2912 19.4843 11.1924 18.6845L11.0915 18.6107C10.9784 18.5282 10.882 18.4578 10.7833 18.3803C10.7482 18.3527 10.7113 18.3287 10.6732 18.3083C9.63843 17.5096 8.10702 16.0674 8.00289 15.9622C6.99902 14.9486 6.09417 13.8879 5.28758 12.7803C4.49483 11.6779 3.86507 10.5871 3.41075 9.51784C2.96266 8.45326 2.75 7.46267 2.75 6.54C2.75 5.94888 2.85415 5.39409 3.05637 4.88855L3.05792 4.88459C3.25506 4.38355 3.56991 3.91456 4.02467 3.48555L4.03614 3.47449C4.56293 2.95593 5.08187 2.75 5.59 2.75C5.76498 2.75 5.9331 2.78791 6.07541 2.85622L6.08571 2.86097C6.23429 2.92955 6.35577 3.02604 6.45332 3.16694L8.7783 6.44399L8.78135 6.44823C8.93418 6.66049 9.03236 6.83908 9.09574 6.99401L9.10064 7.00544C9.16141 7.14722 9.18 7.25575 9.18 7.32C9.18 7.40903 9.15514 7.51553 9.07935 7.64004C9.07515 7.64695 9.07106 7.65392 9.06708 7.66096C8.97896 7.81685 8.83569 8.00365 8.62967 8.20967L8.61951 8.22003L7.86359 9.00579C7.6056 9.26699 7.49 9.59078 7.49 9.93C7.49 10.081 7.51008 10.2127 7.54239 10.3419C7.54929 10.3695 7.55776 10.3967 7.56775 10.4233C7.58736 10.4756 7.60704 10.522 7.61951 10.5514L7.62302 10.5597C7.63602 10.5904 7.63849 10.5972 7.63849 10.5972C7.65254 10.6393 7.6703 10.6801 7.69158 10.7191C7.90702 11.1141 8.25416 11.5888 8.70742 12.1245L8.71287 12.1308C8.98939 12.4503 10.0939 13.4883 11.0424 14.3798L11.0425 14.3798ZM16.95 3C16.95 2.58579 16.6142 2.25 16.2 2.25C15.7858 2.25 15.45 2.58579 15.45 3V7.8C15.45 8.21421 15.7858 8.55 16.2 8.55H21C21.4142 8.55 21.75 8.21421 21.75 7.8C21.75 7.38579 21.4142 7.05 21 7.05H16.95V3Z" fill="#424B5A"/>
</svg>
