<svg width="24" height="24" viewBox="0 0 24 24" fill="none" xmlns="http://www.w3.org/2000/svg">
<path fill-rule="evenodd" clip-rule="evenodd" d="M8.90623 1.85119C9.48129 1.49492 10.1741 1.25 10.86 1.25H13.15C13.8321 1.25 14.5227 1.49572 15.0957 1.85165C15.669 2.20774 16.1936 2.71694 16.4993 3.32165L16.5017 3.32644L17.2184 4.76968C17.3738 5.06498 17.6795 5.25 18 5.25C20.6013 5.25 22.6666 7.44412 22.4984 10.0385L21.9785 18.2971C21.9065 19.4372 21.5613 20.563 20.7689 21.4099C19.962 22.2722 18.7813 22.75 17.24 22.75H6.75998C5.21896 22.75 4.03594 22.2724 3.22782 21.4105C2.43393 20.5636 2.08818 19.4376 2.02135 18.2954C2.02132 18.2948 2.02128 18.2942 2.02124 18.2936L1.50155 10.0385C1.50153 10.0383 1.50156 10.0387 1.50155 10.0385C1.33382 7.44443 3.39892 5.25 5.99998 5.25C6.32047 5.25 6.62615 5.06499 6.78158 4.7697L7.50062 3.32164C7.80636 2.71681 8.3312 2.20745 8.90623 1.85119ZM8.84039 3.99623L8.11589 5.45529C7.7105 6.23713 6.8977 6.75 5.99998 6.75C4.26127 6.75 2.88656 8.21588 2.99841 9.94149L2.9985 9.94288L3.51871 18.2064C3.57214 19.1236 3.84144 19.8718 4.32213 20.3845C4.78901 20.8826 5.54099 21.25 6.75998 21.25H17.24C18.4587 21.25 19.2079 20.8828 19.6736 20.3851C20.1536 19.872 20.4234 19.1228 20.4815 18.2029C20.4815 18.2028 20.4815 18.2029 20.4815 18.2029L21.0015 9.94149C21.1134 8.21588 19.7387 6.75 18 6.75C17.1023 6.75 16.2896 6.23707 15.8842 5.45524L15.8781 5.44361L15.1596 3.99624C15.0049 3.69158 14.7 3.37169 14.3042 3.12585C13.9073 2.87928 13.4879 2.75 13.15 2.75H10.86C10.5159 2.75 10.0937 2.88008 9.69622 3.12631C9.29967 3.37198 8.99499 3.6917 8.84039 3.99623Z" fill="#424B5A"/>
<path fill-rule="evenodd" clip-rule="evenodd" d="M9.74998 8C9.74998 7.58579 10.0858 7.25 10.5 7.25H13.5C13.9142 7.25 14.25 7.58579 14.25 8C14.25 8.41421 13.9142 8.75 13.5 8.75H10.5C10.0858 8.75 9.74998 8.41421 9.74998 8Z" fill="#424B5A"/>
<path fill-rule="evenodd" clip-rule="evenodd" d="M7.99998 14.75C7.99998 12.5458 9.79576 10.75 12 10.75C14.2042 10.75 16 12.5458 16 14.75C16 16.9542 14.2042 18.75 12 18.75C9.79576 18.75 7.99998 16.9542 7.99998 14.75ZM12 12.25C10.6242 12.25 9.49998 13.3742 9.49998 14.75C9.49998 16.1258 10.6242 17.25 12 17.25C13.3758 17.25 14.5 16.1258 14.5 14.75C14.5 13.3742 13.3758 12.25 12 12.25Z" fill="#424B5A"/>
</svg>
