<svg width="24" height="24" viewBox="0 0 24 24" fill="none" xmlns="http://www.w3.org/2000/svg">
<path fill-rule="evenodd" clip-rule="evenodd" d="M8.49001 2.08008C7.1214 2.08008 6.13644 2.42373 5.45993 3.11582C4.81074 3.77994 4.56002 4.65695 4.3961 5.43557L4.01706 7.25027L4.00001 7.25008H3.00001C2.5858 7.25008 2.25001 7.58586 2.25001 8.00008C2.25001 8.41429 2.5858 8.75008 3.00001 8.75008H3.70379L3.28752 10.743C3.01823 10.8966 2.78672 11.0878 2.5917 11.319C2.00458 12.0151 1.89169 12.9271 1.82325 13.6604L1.26322 19.7507C1.11085 21.3768 2.41503 22.7501 4.04001 22.7501H5.92001C6.55643 22.7501 7.08779 22.6151 7.48005 22.2428C7.81534 21.9246 7.95348 21.5049 8.03618 21.2537L8.05152 21.2072L8.25152 20.6073C8.38889 20.1952 8.45554 20.0464 8.55835 19.9494C8.62763 19.8841 8.81867 19.7501 9.44001 19.7501H14.56C15.2025 19.7501 15.3791 19.8759 15.4363 19.9287C15.5292 20.0145 15.5928 20.1516 15.7494 20.61L15.9485 21.2072L15.9638 21.2537C16.0465 21.5049 16.1847 21.9246 16.52 22.2428C16.9122 22.6151 17.4436 22.7501 18.08 22.7501H19.96C21.5851 22.7501 22.8894 21.3762 22.7367 19.7499L22.1769 13.6614L22.1768 13.6604C22.1083 12.9271 21.9954 12.0151 21.4083 11.319C21.2133 11.0878 20.9818 10.8966 20.7125 10.743L20.2962 8.75008H21C21.4142 8.75008 21.75 8.41429 21.75 8.00008C21.75 7.58586 21.4142 7.25008 21 7.25008H20L19.983 7.25027L19.6042 5.43673L19.6039 5.43557C19.44 4.65695 19.1893 3.77994 18.5401 3.11582C17.8636 2.42373 16.8786 2.08008 15.51 2.08008H8.49001ZM20.2617 12.2861C20.0497 12.0348 19.5902 11.7501 18.38 11.7501H5.62001C4.4098 11.7501 3.95027 12.0348 3.73832 12.2861C3.4905 12.58 3.38832 13.0334 3.31676 13.7998L2.75686 19.8888L2.75672 19.8903C2.68963 20.6038 3.26527 21.2501 4.04001 21.2501H5.92001C6.3599 21.2501 6.44581 21.1566 6.44745 21.1548C6.48305 21.1211 6.51955 21.0597 6.6285 20.7329L6.8285 20.1329L6.84462 20.0843C6.95695 19.7452 7.1243 19.2401 7.52917 18.8582C7.98739 18.4261 8.62135 18.2501 9.44001 18.2501H14.56C15.3575 18.2501 15.9909 18.3992 16.4537 18.8265C16.8549 19.1968 17.026 19.7028 17.1471 20.0609L17.1698 20.1277L17.1715 20.1329L17.3715 20.7329C17.4805 21.0597 17.5169 21.121 17.5525 21.1548L17.5526 21.1548C17.5542 21.1566 17.6401 21.2501 18.08 21.2501H19.96C20.7347 21.2501 21.3104 20.6038 21.2433 19.8903L20.6833 13.7998L20.6832 13.7988C20.6116 13.0326 20.5095 12.5799 20.2617 12.2861ZM18.38 10.2501H19.0772L18.1361 5.74459C17.98 5.0036 17.7956 4.5001 17.4674 4.16434C17.1664 3.85643 16.6314 3.58008 15.51 3.58008H12.75V4.25008H13.5C13.9142 4.25008 14.25 4.58586 14.25 5.00008C14.25 5.41429 13.9142 5.75008 13.5 5.75008H12H10.5C10.0858 5.75008 9.75001 5.41429 9.75001 5.00008C9.75001 4.58586 10.0858 4.25008 10.5 4.25008H11.25V3.58008H8.49001C7.36862 3.58008 6.83358 3.85642 6.53259 4.16434C6.20435 4.50013 6.01998 5.0035 5.86392 5.74459L4.92285 10.2501H5.62001H18.38ZM5.25001 15.0001C5.25001 14.5859 5.5858 14.2501 6.00001 14.2501H9.00001C9.41422 14.2501 9.75001 14.5859 9.75001 15.0001C9.75001 15.4143 9.41422 15.7501 9.00001 15.7501H6.00001C5.5858 15.7501 5.25001 15.4143 5.25001 15.0001ZM15 14.2501C14.5858 14.2501 14.25 14.5859 14.25 15.0001C14.25 15.4143 14.5858 15.7501 15 15.7501H18C18.4142 15.7501 18.75 15.4143 18.75 15.0001C18.75 14.5859 18.4142 14.2501 18 14.2501H15Z" fill="#424B5A"/>
</svg>
