<svg width="24" height="24" viewBox="0 0 24 24" fill="none" xmlns="http://www.w3.org/2000/svg">
<path fill-rule="evenodd" clip-rule="evenodd" d="M2.75052 7.75C2.76311 6.08843 3.00245 5.32103 3.41607 4.91207C3.84409 4.48887 4.659 4.25 6.44 4.25H14.5C14.9142 4.25 15.25 3.91421 15.25 3.5C15.25 3.08579 14.9142 2.75 14.5 2.75H6.44C4.671 2.75 3.26591 2.95113 2.36143 3.84543C1.45399 4.74265 1.25 6.13883 1.25 7.89V8.5V16.11C1.25 17.8612 1.45399 19.2574 2.36143 20.1546C3.26591 21.0489 4.671 21.25 6.44 21.25H17.56C19.329 21.25 20.7341 21.0489 21.6386 20.1546C22.546 19.2574 22.75 17.8612 22.75 16.11V14.03C22.75 13.6158 22.4142 13.28 22 13.28C21.5858 13.28 21.25 13.6158 21.25 14.03V16.11C21.25 17.8688 21.009 18.6676 20.5839 19.0879C20.1559 19.5111 19.341 19.75 17.56 19.75H6.44C4.659 19.75 3.84409 19.5111 3.41607 19.0879C2.99101 18.6676 2.75 17.8688 2.75 16.11V9.25H14.5C14.9142 9.25 15.25 8.91421 15.25 8.5C15.25 8.08579 14.9142 7.75 14.5 7.75H2.75052ZM6 15.75C5.58579 15.75 5.25 16.0858 5.25 16.5C5.25 16.9142 5.58579 17.25 6 17.25H8C8.41421 17.25 8.75 16.9142 8.75 16.5C8.75 16.0858 8.41421 15.75 8 15.75H6ZM9.75 16.5C9.75 16.0858 10.0858 15.75 10.5 15.75H14.5C14.9142 15.75 15.25 16.0858 15.25 16.5C15.25 16.9142 14.9142 17.25 14.5 17.25H10.5C10.0858 17.25 9.75 16.9142 9.75 16.5ZM20 2.75C20.4142 2.75 20.75 3.08579 20.75 3.5V7.68934L21.4697 6.96967C21.7626 6.67678 22.2374 6.67678 22.5303 6.96967C22.8232 7.26256 22.8232 7.73744 22.5303 8.03033L20.5303 10.0303C20.2506 10.3101 19.8048 10.3226 19.5101 10.068C19.4948 10.0547 19.48 10.0409 19.4658 10.0265L17.4697 8.03033C17.1768 7.73744 17.1768 7.26256 17.4697 6.96967C17.7626 6.67678 18.2374 6.67678 18.5303 6.96967L19.25 7.68934V3.5C19.25 3.08579 19.5858 2.75 20 2.75Z" fill="#424B5A"/>
</svg>
