<svg width="24" height="24" viewBox="0 0 24 24" fill="none" xmlns="http://www.w3.org/2000/svg">
<path fill-rule="evenodd" clip-rule="evenodd" d="M6.34839 4.29004C6.03575 4.29004 5.73985 4.29942 5.46338 4.30927C4.12505 4.38698 3.52931 4.6647 3.20463 5.07379C2.84603 5.52563 2.64844 6.33475 2.64844 7.92004V9.28027H21.1584V7.93004C21.1584 6.17259 20.9153 5.37366 20.4883 4.95309C20.0576 4.52875 19.2391 4.29004 17.4584 4.29004H6.34839ZM21.1584 10.7803V12.34C21.1584 12.7543 21.4942 13.09 21.9084 13.09C22.3226 13.09 22.6584 12.7543 22.6584 12.34V7.93004C22.6584 6.17749 22.4515 4.78142 21.541 3.88448C20.6343 2.99133 19.2278 2.79004 17.4584 2.79004H6.34839C6.00412 2.79004 5.68282 2.80048 5.40164 2.81052L5.38547 2.81127C3.9394 2.8942 2.77187 3.20619 2.02971 4.14129C1.32083 5.03446 1.14844 6.32534 1.14844 7.92004V10.0303V16.14C1.14844 17.8926 1.35531 19.2887 2.26584 20.1856C3.17254 21.0788 4.57903 21.28 6.34839 21.28H11.4584C11.8726 21.28 12.2084 20.9443 12.2084 20.53C12.2084 20.1158 11.8726 19.78 11.4584 19.78H6.34839C4.56775 19.78 3.74927 19.5413 3.31849 19.117C2.89154 18.6964 2.64844 17.8975 2.64844 16.14V10.7803H21.1584ZM17.8984 14.7803C16.1035 14.7803 14.6484 16.2353 14.6484 18.0303C14.6484 19.8252 16.1035 21.2803 17.8984 21.2803C19.6934 21.2803 21.1484 19.8252 21.1484 18.0303C21.1484 16.2353 19.6934 14.7803 17.8984 14.7803ZM13.1484 18.0303C13.1484 15.4069 15.2751 13.2803 17.8984 13.2803C20.5218 13.2803 22.6484 15.4069 22.6484 18.0303C22.6484 20.6536 20.5218 22.7803 17.8984 22.7803C15.2751 22.7803 13.1484 20.6536 13.1484 18.0303ZM17.391 16.5012C17.0988 16.2076 16.6239 16.2065 16.3303 16.4987C16.0367 16.7909 16.0356 17.2658 16.3278 17.5593L16.8532 18.0872L16.299 18.6387C16.0055 18.9309 16.0043 19.4058 16.2965 19.6993C16.5887 19.9929 17.0636 19.9941 17.3572 19.7019L17.9113 19.1504L18.4378 19.6793C18.73 19.9729 19.2048 19.9741 19.4984 19.6819C19.792 19.3897 19.7931 18.9148 19.5009 18.6212L18.9745 18.0922L19.4772 17.5919C19.7708 17.2997 19.7719 16.8248 19.4797 16.5312C19.1875 16.2376 18.7126 16.2365 18.419 16.5287L17.9163 17.029L17.391 16.5012ZM5.89844 15.2803C5.48422 15.2803 5.14844 15.6161 5.14844 16.0303C5.14844 16.4445 5.48422 16.7803 5.89844 16.7803H9.89844C10.3127 16.7803 10.6484 16.4445 10.6484 16.0303C10.6484 15.6161 10.3127 15.2803 9.89844 15.2803H5.89844Z" fill="#424B5A"/>
</svg>
