<svg width="24" height="24" viewBox="0 0 24 24" fill="none" xmlns="http://www.w3.org/2000/svg">
<path fill-rule="evenodd" clip-rule="evenodd" d="M12.8935 2.75149C12.4357 2.75437 11.8358 3.06512 10.7716 4.12933L4.1316 10.7693C3.06155 11.8394 2.75217 12.4385 2.75001 12.8938C2.74799 13.3202 3.01502 13.8692 3.93192 14.8163L14.8186 3.92968C13.8728 3.01456 13.3214 2.74879 12.8935 2.75149ZM7.95094 20.9593L3.43124 16.4396C3.42039 16.43 3.40976 16.4199 3.39936 16.4095C3.38895 16.3991 3.37892 16.3885 3.36926 16.3776L3.04094 16.0493C1.99498 15.0034 1.24467 14.0175 1.25003 12.8867C1.25537 11.7595 2.01099 10.7686 3.07094 9.70867L9.71094 3.06867C10.7667 2.01288 11.7568 1.25863 12.884 1.25152C14.0158 1.24438 15.0039 1.99099 16.0516 3.03867L20.9616 7.94867C22.0093 8.99635 22.7559 9.98451 22.7488 11.1162C22.7416 12.2434 21.9874 13.2335 20.9316 14.2893L14.2916 20.9293C14.1818 21.0392 14.0726 21.1457 13.964 21.2485H22C22.4142 21.2485 22.75 21.5843 22.75 21.9985C22.75 22.4127 22.4142 22.7485 22 22.7485H2C1.58579 22.7485 1.25 22.4127 1.25 21.9985C1.25 21.5843 1.58579 21.2485 2 21.2485H8.2472C8.14887 21.1551 8.05017 21.0586 7.95094 20.9593ZM15.8806 4.98897L4.99124 15.8783L9.0116 19.8987C10.0639 20.951 10.6558 21.2494 11.109 21.2465C11.5668 21.2436 12.1667 20.9329 13.2309 19.8687L19.8709 13.2287C20.9351 12.1645 21.2459 11.5646 21.2488 11.1068C21.2516 10.6535 20.9533 10.0617 19.9009 9.00933L15.8806 4.98897ZM12.8316 16.5487C13.1245 16.8416 13.1245 17.3164 12.8316 17.6093L11.6316 18.8093C11.3387 19.1022 10.8638 19.1022 10.5709 18.8093C10.278 18.5164 10.278 18.0416 10.5709 17.7487L11.7709 16.5487C12.0638 16.2558 12.5387 16.2558 12.8316 16.5487ZM16.7133 13.7291C17.0062 13.4362 17.0062 12.9613 16.7133 12.6684C16.4204 12.3755 15.9455 12.3755 15.6526 12.6684L13.2626 15.0584C12.9697 15.3513 12.9697 15.8262 13.2626 16.1191C13.5555 16.412 14.0304 16.412 14.3233 16.1191L16.7133 13.7291Z" fill="#424B5A"/>
</svg>
