<svg width="24" height="24" viewBox="0 0 24 24" fill="none" xmlns="http://www.w3.org/2000/svg">
<path fill-rule="evenodd" clip-rule="evenodd" d="M3.41607 4.91207C3.00245 5.32103 2.76311 6.08843 2.75052 7.75H13.5C13.9142 7.75 14.25 8.08579 14.25 8.5C14.25 8.91421 13.9142 9.25 13.5 9.25H2.75V16.11C2.75 17.8688 2.99101 18.6676 3.41607 19.0879C3.84409 19.5111 4.659 19.75 6.44 19.75H17.56C19.341 19.75 20.1559 19.5111 20.5839 19.0879C21.009 18.6676 21.25 17.8688 21.25 16.11V11.03C21.25 10.6158 21.5858 10.28 22 10.28C22.4142 10.28 22.75 10.6158 22.75 11.03V16.11C22.75 17.8612 22.546 19.2574 21.6386 20.1546C20.7341 21.0489 19.329 21.25 17.56 21.25H6.44C4.671 21.25 3.26591 21.0489 2.36143 20.1546C1.45399 19.2574 1.25 17.8612 1.25 16.11V8.5V7.89C1.25 6.13883 1.45399 4.74265 2.36143 3.84543C3.26591 2.95113 4.671 2.75 6.44 2.75H13.5C13.9142 2.75 14.25 3.08579 14.25 3.5C14.25 3.91421 13.9142 4.25 13.5 4.25H6.44C4.659 4.25 3.84409 4.48887 3.41607 4.91207ZM5.25 16.5C5.25 16.0858 5.58579 15.75 6 15.75H8C8.41421 15.75 8.75 16.0858 8.75 16.5C8.75 16.9142 8.41421 17.25 8 17.25H6C5.58579 17.25 5.25 16.9142 5.25 16.5ZM10.5 15.75C10.0858 15.75 9.75 16.0858 9.75 16.5C9.75 16.9142 10.0858 17.25 10.5 17.25H14.5C14.9142 17.25 15.25 16.9142 15.25 16.5C15.25 16.0858 14.9142 15.75 14.5 15.75H10.5ZM18.5303 8.03033L22.5303 4.03033C22.8232 3.73744 22.8232 3.26256 22.5303 2.96967C22.2374 2.67678 21.7626 2.67678 21.4697 2.96967L18 6.43934L17.0303 5.46967C16.7374 5.17678 16.2626 5.17678 15.9697 5.46967C15.6768 5.76256 15.6768 6.23744 15.9697 6.53033L17.4697 8.03033C17.7626 8.32322 18.2374 8.32322 18.5303 8.03033Z" fill="#424B5A"/>
</svg>
