<svg width="24" height="24" viewBox="0 0 24 24" fill="none" xmlns="http://www.w3.org/2000/svg">
<path fill-rule="evenodd" clip-rule="evenodd" d="M22.5303 2.53033C22.8232 2.23744 22.8232 1.76256 22.5303 1.46967C22.2374 1.17678 21.7626 1.17678 21.4697 1.46967L19.9702 2.96917C19.292 2.80616 18.485 2.75 17.56 2.75H6.44C4.671 2.75 3.26591 2.95113 2.36143 3.84543C1.45399 4.74265 1.25 6.13883 1.25 7.89V8.5V16.1C1.25 17.2895 1.34549 18.2882 1.66457 19.0783C1.87717 19.6048 2.18355 20.0255 2.59055 20.3488L1.46967 21.4697C1.17678 21.7626 1.17678 22.2374 1.46967 22.5303C1.76256 22.8232 2.23744 22.8232 2.53033 22.5303L22.5303 2.53033ZM3.66526 19.2741L5.73682 17.2025C5.45243 17.0959 5.25 16.8216 5.25 16.5C5.25 16.0858 5.58579 15.75 6 15.75H7.18934L13.6893 9.25H2.75V16.1C2.75 17.2505 2.84951 18.0068 3.05543 18.5167C3.19359 18.8588 3.38192 19.0977 3.66526 19.2741ZM15.1893 7.75L18.6526 4.28677C18.3317 4.26203 17.9693 4.25 17.56 4.25H6.44C4.659 4.25 3.84409 4.48887 3.41607 4.91207C3.00245 5.32103 2.76311 6.08843 2.75052 7.75H15.1893ZM22.75 6.89C22.75 6.47579 22.4142 6.14 22 6.14C21.5858 6.14 21.25 6.47579 21.25 6.89V16.11C21.25 17.8703 21.0111 18.6685 20.5872 19.0884C20.1607 19.5109 19.3467 19.75 17.56 19.75H7.98C7.56579 19.75 7.23 20.0858 7.23 20.5C7.23 20.9142 7.56579 21.25 7.98 21.25H17.56C19.3333 21.25 20.7393 21.0491 21.6428 20.1541C22.5489 19.2565 22.75 17.8597 22.75 16.11V6.89ZM10.25 16.5C10.25 16.0858 10.5858 15.75 11 15.75H14.5C14.9142 15.75 15.25 16.0858 15.25 16.5C15.25 16.9142 14.9142 17.25 14.5 17.25H11C10.5858 17.25 10.25 16.9142 10.25 16.5Z" fill="#424B5A"/>
</svg>
