<svg width="24" height="24" viewBox="0 0 24 24" fill="none" xmlns="http://www.w3.org/2000/svg">
<path fill-rule="evenodd" clip-rule="evenodd" d="M2.75052 7.75C2.76311 6.08843 3.00245 5.32103 3.41607 4.91207C3.84409 4.48887 4.659 4.25 6.44 4.25H13.5C13.9142 4.25 14.25 3.91421 14.25 3.5C14.25 3.08579 13.9142 2.75 13.5 2.75H6.44C4.671 2.75 3.26591 2.95113 2.36143 3.84543C1.45399 4.74265 1.25 6.13883 1.25 7.89V8.5V16.11C1.25 17.8612 1.45399 19.2574 2.36143 20.1546C3.26591 21.0489 4.671 21.25 6.44 21.25H17.56C19.329 21.25 20.7341 21.0489 21.6386 20.1546C22.546 19.2574 22.75 17.8612 22.75 16.11V12.03C22.75 11.6158 22.4142 11.28 22 11.28C21.5858 11.28 21.25 11.6158 21.25 12.03V16.11C21.25 17.8688 21.009 18.6676 20.5839 19.0879C20.1559 19.5111 19.341 19.75 17.56 19.75H6.44C4.659 19.75 3.84409 19.5111 3.41607 19.0879C2.99101 18.6676 2.75 17.8688 2.75 16.11V9.25H13.5C13.9142 9.25 14.25 8.91421 14.25 8.5C14.25 8.08579 13.9142 7.75 13.5 7.75H2.75052ZM6 15.75C5.58579 15.75 5.25 16.0858 5.25 16.5C5.25 16.9142 5.58579 17.25 6 17.25H8C8.41421 17.25 8.75 16.9142 8.75 16.5C8.75 16.0858 8.41421 15.75 8 15.75H6ZM9.75 16.5C9.75 16.0858 10.0858 15.75 10.5 15.75H14.5C14.9142 15.75 15.25 16.0858 15.25 16.5C15.25 16.9142 14.9142 17.25 14.5 17.25H10.5C10.0858 17.25 9.75 16.9142 9.75 16.5ZM15.75 6.25C15.75 5.83579 16.0858 5.5 16.5 5.5H18.5V3.5C18.5 3.08579 18.8358 2.75 19.25 2.75C19.6642 2.75 20 3.08579 20 3.5V5.5H22C22.4142 5.5 22.75 5.83579 22.75 6.25C22.75 6.66421 22.4142 7 22 7H20V9C20 9.41421 19.6642 9.75 19.25 9.75C18.8358 9.75 18.5 9.41421 18.5 9V7H16.5C16.0858 7 15.75 6.66421 15.75 6.25Z" fill="#424B5A"/>
</svg>
