<svg width="24" height="24" viewBox="0 0 24 24" fill="none" xmlns="http://www.w3.org/2000/svg">
<path fill-rule="evenodd" clip-rule="evenodd" d="M5.55329 4.279C5.82976 4.26915 6.12566 4.25977 6.43829 4.25977H17.5483C19.3289 4.25977 20.1474 4.49848 20.5782 4.92283C21.0052 5.34339 21.2483 6.14232 21.2483 7.89977V9.25H2.73828V7.88977C2.73828 6.30448 2.93589 5.49536 3.2945 5.04353C3.6192 4.63443 4.21495 4.35671 5.55329 4.279ZM22.7483 7.89977V9.94897C22.7494 9.96583 22.75 9.98285 22.75 10C22.75 10.0172 22.7494 10.0342 22.7483 10.051V12.3098C22.7483 12.724 22.4125 13.0598 21.9983 13.0598C21.5841 13.0598 21.2483 12.724 21.2483 12.3098V10.75H2.73828V16.1098C2.73828 17.8672 2.9814 18.6661 3.40836 19.0867C3.83915 19.5111 4.65766 19.7498 6.43829 19.7498H11.5483C11.9625 19.7498 12.2983 20.0856 12.2983 20.4998C12.2983 20.914 11.9625 21.2498 11.5483 21.2498H6.43829C4.66893 21.2498 3.26243 21.0485 2.35572 20.1553C1.44517 19.2584 1.23828 17.8623 1.23828 16.1098V7.88977C1.23828 6.29506 1.41069 5.00418 2.11959 4.11101C2.86176 3.17592 4.0293 2.86393 5.47537 2.781L5.49154 2.78025C5.77272 2.77021 6.09402 2.75977 6.43829 2.75977H17.5483C19.3176 2.75977 20.7241 2.96106 21.6309 3.8542C22.5414 4.75114 22.7483 6.14721 22.7483 7.89977ZM6 15.25C5.58579 15.25 5.25 15.5858 5.25 16C5.25 16.4142 5.58579 16.75 6 16.75H10C10.4142 16.75 10.75 16.4142 10.75 16C10.75 15.5858 10.4142 15.25 10 15.25H6ZM18 14.75C16.2042 14.75 14.75 16.2042 14.75 18C14.75 18.6094 14.9205 19.1833 15.2184 19.6663L15.2247 19.6765L15.2246 19.6766C15.7844 20.6177 16.8141 21.25 18 21.25C19.1859 21.25 20.2156 20.6177 20.7754 19.6766L20.7815 19.6663L20.7816 19.6663C21.0795 19.1833 21.25 18.6094 21.25 18C21.25 16.2042 19.7958 14.75 18 14.75ZM13.25 18C13.25 15.3758 15.3758 13.25 18 13.25C20.6242 13.25 22.75 15.3758 22.75 18C22.75 18.8885 22.5017 19.7327 22.0615 20.4486C21.2406 21.8246 19.732 22.75 18 22.75C16.268 22.75 14.7594 21.8246 13.9385 20.4486C13.4983 19.7327 13.25 18.8885 13.25 18ZM20.0706 17.5701C20.3747 17.2889 20.3933 16.8144 20.112 16.5103C19.8308 16.2062 19.3562 16.1877 19.0522 16.4689L17.4517 17.9492L16.9717 17.4692C16.6788 17.1763 16.204 17.1763 15.9111 17.4692C15.6182 17.7621 15.6182 18.237 15.9111 18.5299L16.9011 19.5199C17.1859 19.8047 17.6449 19.8137 17.9406 19.5401L20.0706 17.5701Z" fill="#424B5A"/>
</svg>
