<svg width="24" height="24" viewBox="0 0 24 24" fill="none" xmlns="http://www.w3.org/2000/svg">
<path fill-rule="evenodd" clip-rule="evenodd" d="M18.7693 6.76365C17.9637 5.96878 16.7244 5.8 15.22 5.8H5.78396C5.8582 4.9261 6.04629 4.50253 6.30142 4.26251C6.63589 3.94785 7.29005 3.75 8.78003 3.75H18.22C19.7356 3.75 20.3862 3.95622 20.7157 4.28135C21.0417 4.60305 21.25 5.23697 21.25 6.73V13.72C21.25 15.0647 21.0801 15.717 20.801 16.0691C20.6227 16.294 20.3291 16.4792 19.75 16.5897V12.61V10.28C19.75 8.79303 19.5783 7.56195 18.7693 6.76365ZM19.727 18.113C20.661 17.9824 21.4409 17.6766 21.9765 17.0009C22.6049 16.208 22.75 15.0753 22.75 13.72V6.73C22.75 5.24303 22.5783 4.01195 21.7693 3.21365C20.9637 2.41878 19.7244 2.25 18.22 2.25H8.78003C7.30001 2.25 6.07915 2.41215 5.27361 3.16999C4.58755 3.81542 4.34306 4.75664 4.27302 5.88695C3.339 6.01762 2.55908 6.32337 2.02348 6.99914C1.39508 7.792 1.25 8.92473 1.25 10.28V12.61V17.27C1.25 18.757 1.42172 19.988 2.23073 20.7864C3.03626 21.5812 4.27563 21.75 5.78003 21.75H15.22C16.7 21.75 17.9208 21.5879 18.7264 20.83C19.4125 20.1846 19.657 19.2434 19.727 18.113ZM18.25 17.426V13.36H2.75V17.27C2.75 18.763 2.95829 19.397 3.2843 19.7187C3.61379 20.0438 4.26443 20.25 5.78003 20.25H15.22C16.71 20.25 17.3641 20.0522 17.6986 19.7375C18.0198 19.4353 18.2347 18.8423 18.25 17.426ZM18.25 11.86V10.28C18.25 8.78696 18.0417 8.15305 17.7157 7.83135C17.3862 7.50622 16.7356 7.3 15.22 7.3H5.78003C5.5498 7.3 5.33227 7.30719 5.12127 7.31566L5.03784 7.31907C3.90924 7.38652 3.44461 7.621 3.19902 7.93086C2.91992 8.283 2.75 8.93527 2.75 10.28V11.86H18.25ZM4.5 17.81C4.5 17.3958 4.83579 17.06 5.25 17.06H6.96997C7.38418 17.06 7.71997 17.3958 7.71997 17.81C7.71997 18.2242 7.38418 18.56 6.96997 18.56H5.25C4.83579 18.56 4.5 18.2242 4.5 17.81ZM9.10999 17.06C8.69577 17.06 8.35999 17.3958 8.35999 17.81C8.35999 18.2242 8.69577 18.56 9.10999 18.56H12.55C12.9642 18.56 13.3 18.2242 13.3 17.81C13.3 17.3958 12.9642 17.06 12.55 17.06H9.10999Z" fill="#424B5A"/>
</svg>
