<svg width="24" height="24" viewBox="0 0 24 24" fill="none" xmlns="http://www.w3.org/2000/svg">
<path fill-rule="evenodd" clip-rule="evenodd" d="M20.5244 2.96379C20.5264 2.96574 20.5283 2.96771 20.5303 2.96969L22.5303 4.96969C22.8232 5.26259 22.8232 5.73746 22.5303 6.03035C22.2374 6.32325 21.7626 6.32325 21.4697 6.03035L20.75 5.31068V9.50002C20.75 9.91424 20.4142 10.25 20 10.25C19.5858 10.25 19.25 9.91424 19.25 9.50002V5.31068L18.5303 6.03035C18.2374 6.32325 17.7626 6.32325 17.4697 6.03035C17.1768 5.73746 17.1768 5.26259 17.4697 4.96969L19.4657 2.97365C19.4799 2.95921 19.4947 2.94533 19.5101 2.93205C19.6245 2.8332 19.7617 2.77461 19.903 2.75628C20.1276 2.727 20.3576 2.80073 20.5244 2.96379ZM2.75052 7.75002C2.76311 6.08845 3.00245 5.32106 3.41607 4.9121C3.84409 4.4889 4.659 4.25002 6.44 4.25002H14.5C14.9142 4.25002 15.25 3.91424 15.25 3.50002C15.25 3.08581 14.9142 2.75002 14.5 2.75002H6.44C4.671 2.75002 3.26591 2.95115 2.36143 3.84545C1.45399 4.74267 1.25 6.13885 1.25 7.89002V8.50002V16.11C1.25 17.8612 1.45399 19.2574 2.36143 20.1546C3.26591 21.0489 4.671 21.25 6.44 21.25H17.56C19.329 21.25 20.7341 21.0489 21.6386 20.1546C22.546 19.2574 22.75 17.8612 22.75 16.11V14.03C22.75 13.6158 22.4142 13.28 22 13.28C21.5858 13.28 21.25 13.6158 21.25 14.03V16.11C21.25 17.8688 21.009 18.6677 20.5839 19.0879C20.1559 19.5111 19.341 19.75 17.56 19.75H6.44C4.659 19.75 3.84409 19.5111 3.41607 19.0879C2.99101 18.6677 2.75 17.8688 2.75 16.11V9.25002H14.5C14.9142 9.25002 15.25 8.91424 15.25 8.50002C15.25 8.08581 14.9142 7.75002 14.5 7.75002H2.75052ZM6 15.75C5.58579 15.75 5.25 16.0858 5.25 16.5C5.25 16.9142 5.58579 17.25 6 17.25H8C8.41421 17.25 8.75 16.9142 8.75 16.5C8.75 16.0858 8.41421 15.75 8 15.75H6ZM9.75 16.5C9.75 16.0858 10.0858 15.75 10.5 15.75H14.5C14.9142 15.75 15.25 16.0858 15.25 16.5C15.25 16.9142 14.9142 17.25 14.5 17.25H10.5C10.0858 17.25 9.75 16.9142 9.75 16.5Z" fill="#424B5A"/>
</svg>
