<svg width="24" height="24" viewBox="0 0 24 24" fill="none" xmlns="http://www.w3.org/2000/svg">
<path fill-rule="evenodd" clip-rule="evenodd" d="M2.75052 7.75488C2.76311 6.09331 3.00245 5.32592 3.41607 4.91696C3.84409 4.49376 4.659 4.25488 6.44 4.25488H17.55C19.3363 4.25488 20.1539 4.49384 20.5832 4.91745C20.9975 5.32632 21.2369 6.09327 21.2495 7.75488H2.75052ZM1.25 8.50488V7.89488C1.25 6.14371 1.45399 4.74753 2.36143 3.85031C3.26591 2.95601 4.671 2.75488 6.44 2.75488H17.55C19.3237 2.75488 20.7311 2.95593 21.6368 3.84982C22.5461 4.74713 22.75 6.14378 22.75 7.89488V8.50488V16.1049C22.75 17.8561 22.546 19.2522 21.6386 20.1495C20.7341 21.0438 19.329 21.2449 17.56 21.2449H6.44074C4.67249 21.2498 3.26704 21.0519 2.36194 20.1587C1.45385 19.2626 1.25 17.8657 1.25 16.1149V8.50488ZM21.25 9.25488V16.1049C21.25 17.8637 21.009 18.6625 20.5839 19.0828C20.1559 19.506 19.341 19.7449 17.56 19.7449L6.44 19.7449L6.43789 19.7449C4.65679 19.7499 3.84272 19.5126 3.41556 19.0911C2.99115 18.6722 2.75 17.8741 2.75 16.1149V9.25488H21.25ZM6 15.7549C5.58579 15.7549 5.25 16.0907 5.25 16.5049C5.25 16.9191 5.58579 17.2549 6 17.2549H8C8.41421 17.2549 8.75 16.9191 8.75 16.5049C8.75 16.0907 8.41421 15.7549 8 15.7549H6ZM9.75 16.5049C9.75 16.0907 10.0858 15.7549 10.5 15.7549H14.5C14.9142 15.7549 15.25 16.0907 15.25 16.5049C15.25 16.9191 14.9142 17.2549 14.5 17.2549H10.5C10.0858 17.2549 9.75 16.9191 9.75 16.5049Z" fill="#424B5A"/>
</svg>
