<svg width="24" height="24" viewBox="0 0 24 24" fill="none" xmlns="http://www.w3.org/2000/svg">
<path fill-rule="evenodd" clip-rule="evenodd" d="M3.43032 5.1146C2.85537 5.64847 2.45999 6.52293 2.45999 7.91998V13.07C2.45999 14.0802 2.66702 14.8141 2.99075 15.3386C3.30884 15.8541 3.77035 16.2183 4.37929 16.4463C4.56474 16.5135 4.7538 16.5677 4.94099 16.5982C4.95928 16.6009 4.97754 16.6043 4.99573 16.6084C5.15135 16.6435 5.3152 16.67 5.48682 16.6884C5.68447 16.7096 5.89242 16.72 6.10999 16.72H14.9C16.105 16.72 16.9946 16.4186 17.5797 15.8754C18.1546 15.3415 18.55 14.4671 18.55 13.07V7.91998C18.55 7.50905 18.5069 7.14665 18.4427 6.77771C18.26 5.86441 17.8473 5.26676 17.2924 4.88329C16.7195 4.48741 15.9216 4.27002 14.9 4.27002H6.10999C4.90495 4.27002 4.01534 4.57138 3.43032 5.1146ZM3.86369 17.8549C3.97351 17.8948 4.09025 17.9335 4.21273 17.9686C4.62923 19.4027 5.55389 20.3694 6.85805 20.8525C7.54417 21.1122 8.30817 21.2201 9.1111 21.2201H17.9011C19.3361 21.2201 20.6465 20.8615 21.6014 19.9747C22.5665 19.0786 23.0511 17.7531 23.0511 16.0701V10.9201C23.0511 9.53169 22.7167 8.38619 22.0472 7.51921C21.4725 6.77506 20.6943 6.29226 19.802 6.02466C19.5061 5.00005 18.943 4.20056 18.1451 3.64925C17.2455 3.02762 16.1184 2.77002 14.9 2.77002H6.10999C4.67502 2.77002 3.36464 3.12864 2.40965 4.0154C1.4446 4.91151 0.959991 6.23703 0.959991 7.91998V13.07C0.959991 14.2798 1.20796 15.306 1.71424 16.1264C2.22562 16.9551 2.96811 17.5205 3.85768 17.8527L3.85767 17.8527L3.86369 17.8549ZM20.0493 7.74384C20.0505 7.80205 20.0511 7.8608 20.0511 7.9201V13.0701C20.0511 14.7531 19.5665 16.0786 18.6014 16.9747C17.6465 17.8615 16.3361 18.2201 14.9011 18.2201H6.1111C6.04853 18.2201 5.98607 18.2194 5.92375 18.2179C6.25407 18.8227 6.75065 19.2135 7.38121 19.4467L7.38711 19.4489L7.3871 19.4489C7.86022 19.6284 8.43517 19.7201 9.1111 19.7201H17.9011C19.1061 19.7201 19.9958 19.4187 20.5808 18.8755C21.1557 18.3416 21.5511 17.4672 21.5511 16.0701V10.9201C21.5511 9.76851 21.2755 8.97403 20.86 8.43603C20.644 8.15632 20.3742 7.92516 20.0493 7.74384ZM8.60843 10.4999C8.60843 9.45606 9.45463 8.60986 10.4984 8.60986C11.5423 8.60986 12.3885 9.45606 12.3885 10.4999C12.3885 11.5437 11.5423 12.3899 10.4984 12.3899C9.45463 12.3899 8.60843 11.5437 8.60843 10.4999ZM10.4984 7.10986C8.6262 7.10986 7.10843 8.62763 7.10843 10.4999C7.10843 12.3721 8.6262 13.8899 10.4984 13.8899C12.3707 13.8899 13.8885 12.3721 13.8885 10.4999C13.8885 8.62763 12.3707 7.10986 10.4984 7.10986ZM4.78 7.54999C5.19421 7.54999 5.53 7.88577 5.53 8.29999V12.7C5.53 13.1142 5.19421 13.45 4.78 13.45C4.36579 13.45 4.03 13.1142 4.03 12.7V8.29999C4.03 7.88577 4.36579 7.54999 4.78 7.54999ZM16.9717 8.30029C16.9717 7.88608 16.6359 7.55029 16.2217 7.55029C15.8075 7.55029 15.4717 7.88608 15.4717 8.30029V12.7003C15.4717 13.1145 15.8075 13.4503 16.2217 13.4503C16.6359 13.4503 16.9717 13.1145 16.9717 12.7003V8.30029Z" fill="#424B5A"/>
</svg>
