<svg width="22" height="22" viewBox="0 0 22 22" fill="none" xmlns="http://www.w3.org/2000/svg">
<path fill-rule="evenodd" clip-rule="evenodd" d="M1.5 10.75C1.5 5.64137 5.64137 1.5 10.75 1.5C15.8586 1.5 20 5.64137 20 10.75C20 15.8586 15.8586 20 10.75 20C5.64137 20 1.5 15.8586 1.5 10.75ZM10.75 0C4.81294 0 0 4.81294 0 10.75C0 16.6871 4.81294 21.5 10.75 21.5C16.6871 21.5 21.5 16.6871 21.5 10.75C21.5 4.81294 16.6871 0 10.75 0ZM9.5 10.75C9.5 10.0596 10.0596 9.5 10.75 9.5C11.4404 9.5 12 10.0596 12 10.75C12 11.4404 11.4404 12 10.75 12C10.0596 12 9.5 11.4404 9.5 10.75ZM10.75 8C9.23122 8 8 9.23122 8 10.75C8 12.2688 9.23122 13.5 10.75 13.5C12.2688 13.5 13.5 12.2688 13.5 10.75C13.5 9.23122 12.2688 8 10.75 8Z" fill="#424B5A"/>
</svg>
