<svg width="24" height="24" viewBox="0 0 24 24" fill="none" xmlns="http://www.w3.org/2000/svg">
<path fill-rule="evenodd" clip-rule="evenodd" d="M11.55 1.25C10.6931 1.25 10.0025 1.54608 9.55119 2.12775C9.12661 2.67498 9 3.36648 9 4V21.25H7.75V10C7.75 9.3804 7.64103 8.70345 7.26741 8.1617C6.86119 7.57267 6.21655 7.25 5.4 7.25H4.6C3.78345 7.25 3.13881 7.57267 2.73259 8.1617C2.35897 8.70345 2.25 9.3804 2.25 10V21.25H2C1.58579 21.25 1.25 21.5858 1.25 22C1.25 22.4142 1.58579 22.75 2 22.75H3H7H9.75H14.25H17H21H22C22.4142 22.75 22.75 22.4142 22.75 22C22.75 21.5858 22.4142 21.25 22 21.25H21.75V15C21.75 14.3804 21.641 13.7035 21.2674 13.1617C20.8612 12.5727 20.2165 12.25 19.4 12.25H18.6C17.7835 12.25 17.1388 12.5727 16.7326 13.1617C16.359 13.7035 16.25 14.3804 16.25 15V21.25H15V4C15 3.36648 14.8734 2.67498 14.4488 2.12775C13.9975 1.54608 13.3069 1.25 12.45 1.25H11.55ZM17.75 21.25H20.25V15C20.25 14.5196 20.159 14.1965 20.0326 14.0133C19.9388 13.8773 19.7835 13.75 19.4 13.75H18.6C18.2165 13.75 18.0612 13.8773 17.9674 14.0133C17.841 14.1965 17.75 14.5196 17.75 15V21.25ZM6.25 10V21.25H3.75V10C3.75 9.5196 3.84103 9.19655 3.96741 9.0133C4.06119 8.87733 4.21655 8.75 4.6 8.75H5.4C5.78345 8.75 5.93882 8.87733 6.03259 9.0133C6.15897 9.19655 6.25 9.5196 6.25 10ZM13.5 21.25V4C13.5 3.53352 13.4016 3.22502 13.2637 3.04725C13.1525 2.90392 12.9431 2.75 12.45 2.75H11.55C11.0569 2.75 10.8475 2.90392 10.7363 3.04725C10.5984 3.22502 10.5 3.53352 10.5 4V21.25H13.5Z" fill="#424B5A"/>
</svg>
