<svg width="24" height="24" viewBox="0 0 24 24" fill="none" xmlns="http://www.w3.org/2000/svg">
<path fill-rule="evenodd" clip-rule="evenodd" d="M9 1.25C6.42603 1.25 4.42914 1.7602 3.09467 3.09467C1.7602 4.42914 1.25 6.42603 1.25 9V15C1.25 17.574 1.7602 19.5709 3.09467 20.9053C4.42914 22.2398 6.42603 22.75 9 22.75H15C17.574 22.75 19.5709 22.2398 20.9053 20.9053C22.2398 19.5709 22.75 17.574 22.75 15V9C22.75 6.42603 22.2398 4.42914 20.9053 3.09467C19.5709 1.7602 17.574 1.25 15 1.25H9ZM2.75 9C2.75 6.57397 3.2398 5.07086 4.15533 4.15533C5.07086 3.2398 6.57397 2.75 9 2.75H15C17.426 2.75 18.9291 3.2398 19.8447 4.15533C20.7602 5.07086 21.25 6.57397 21.25 9V15C21.25 17.426 20.7602 18.9291 19.8447 19.8447C18.9291 20.7602 17.426 21.25 15 21.25H9C6.57397 21.25 5.07086 20.7602 4.15533 19.8447C3.2398 18.9291 2.75 17.426 2.75 15V9ZM11.2412 5.84998C10.197 5.84998 9.35126 6.6958 9.35126 7.73999V10.4H7.45999C6.4158 10.4 5.57001 11.2457 5.57001 12.29V17.41C5.57001 17.8242 5.90579 18.16 6.32001 18.16H10.11C10.1517 18.16 10.1926 18.1566 10.2324 18.15H13.8913L13.8947 18.15L13.8981 18.15H17.6881C18.1024 18.15 18.4381 17.8142 18.4381 17.4V13.99H18.4382L18.438 13.9781C18.4217 12.9497 17.5888 12.1 16.5481 12.1H14.6413V7.73999C14.6413 6.70443 13.8141 5.84998 12.7613 5.84998H11.2412ZM9.35126 11.9V16.66H7.07001V12.29C7.07001 12.0742 7.24418 11.9 7.45999 11.9H9.35126ZM10.86 16.65H13.1413V7.73999C13.1413 7.51555 12.9684 7.34998 12.7613 7.34998H11.2412C11.0255 7.34998 10.8513 7.52418 10.8513 7.73999V11.15H10.86V16.65ZM14.6481 13.6V16.65H16.9381V13.9974C16.9321 13.768 16.7462 13.6 16.5481 13.6H14.6481Z" fill="#424B5A"/>
</svg>
