<svg width="24" height="24" viewBox="0 0 24 24" fill="none" xmlns="http://www.w3.org/2000/svg">
<path fill-rule="evenodd" clip-rule="evenodd" d="M3.09467 3.09467C4.42914 1.7602 6.42603 1.25 9 1.25H15C17.574 1.25 19.5709 1.7602 20.9053 3.09467C22.2398 4.42914 22.75 6.42603 22.75 9V13C22.75 13.4142 22.4142 13.75 22 13.75C21.5858 13.75 21.25 13.4142 21.25 13V9C21.25 6.57397 20.7602 5.07086 19.8447 4.15533C18.9291 3.2398 17.426 2.75 15 2.75H9C6.57397 2.75 5.07086 3.2398 4.15533 4.15533C3.2398 5.07086 2.75 6.57397 2.75 9V15C2.75 17.426 3.2398 18.9291 4.15533 19.8447C5.07086 20.7602 6.57397 21.25 9 21.25H13C13.4142 21.25 13.75 21.5858 13.75 22C13.75 22.4142 13.4142 22.75 13 22.75H9C6.42603 22.75 4.42914 22.2398 3.09467 20.9053C1.7602 19.5709 1.25 17.574 1.25 15V9C1.25 6.42603 1.7602 4.42914 3.09467 3.09467ZM21.4874 16.43C21.8022 16.6991 21.8392 17.1726 21.57 17.4874L18.15 21.4874C18.0145 21.646 17.8189 21.7409 17.6104 21.7494C17.402 21.7579 17.1994 21.6791 17.0514 21.532L15.4714 19.962C15.1775 19.67 15.176 19.1952 15.468 18.9014C15.76 18.6075 16.2348 18.606 16.5286 18.898L17.5353 19.8982L20.43 16.5126C20.6991 16.1978 21.1726 16.1608 21.4874 16.43ZM7.75 10.5C7.75 10.0858 7.41421 9.75 7 9.75C6.58579 9.75 6.25 10.0858 6.25 10.5V13.5C6.25 13.9142 6.58579 14.25 7 14.25C7.41421 14.25 7.75 13.9142 7.75 13.5V10.5ZM12 9.75C12.4142 9.75 12.75 10.0858 12.75 10.5V13.5C12.75 13.9142 12.4142 14.25 12 14.25C11.5858 14.25 11.25 13.9142 11.25 13.5V10.5C11.25 10.0858 11.5858 9.75 12 9.75ZM17.75 10.5C17.75 10.0858 17.4142 9.75 17 9.75C16.5858 9.75 16.25 10.0858 16.25 10.5V13.5C16.25 13.9142 16.5858 14.25 17 14.25C17.4142 14.25 17.75 13.9142 17.75 13.5V10.5Z" fill="#424B5A"/>
</svg>
