<svg width="24" height="24" viewBox="0 0 24 24" fill="none" xmlns="http://www.w3.org/2000/svg">
<path fill-rule="evenodd" clip-rule="evenodd" d="M15 1.25C15.4142 1.25 15.75 1.58579 15.75 2V3.75H16.5C17.1264 3.75 17.7143 3.76967 18.2541 3.84583C19.6627 4.00291 20.7609 4.43847 21.4426 5.47376C22.0819 6.44445 22.25 7.80259 22.25 9.5V14.5C22.25 16.1974 22.0819 17.5555 21.4426 18.5262C20.7609 19.5615 19.6627 19.9971 18.2541 20.1542C17.7143 20.2303 17.1264 20.25 16.5 20.25H15.75V22C15.75 22.4142 15.4142 22.75 15 22.75C14.5858 22.75 14.25 22.4142 14.25 22V2C14.25 1.58579 14.5858 1.25 15 1.25ZM15.75 18.75V5.25H16.5C17.109 5.25 17.617 5.27004 18.0539 5.33246C18.0619 5.3336 18.0698 5.3346 18.0778 5.33548C19.2934 5.46953 19.8611 5.79944 20.1899 6.29874C20.5631 6.86555 20.75 7.81741 20.75 9.5V14.5C20.75 16.1826 20.5631 17.1345 20.1899 17.7013C19.8611 18.2006 19.2934 18.5305 18.0778 18.6645C18.0698 18.6654 18.0619 18.6664 18.0539 18.6675C17.617 18.73 17.109 18.75 16.5 18.75H15.75ZM5.94607 5.33246C6.38302 5.27004 6.89105 5.25 7.5 5.25H10.96C11.3742 5.25 11.71 4.91421 11.71 4.5C11.71 4.08579 11.3742 3.75 10.96 3.75H7.5C6.8736 3.75 6.2857 3.76967 5.74594 3.84583C4.33727 4.00291 3.23915 4.43847 2.55737 5.47376C1.91813 6.44445 1.75 7.80259 1.75 9.5V14.5C1.75 16.1974 1.91813 17.5555 2.55737 18.5262C3.23915 19.5615 4.33727 19.9971 5.74593 20.1542C6.28569 20.2303 6.8736 20.25 7.5 20.25H11.02C11.4342 20.25 11.77 19.9142 11.77 19.5C11.77 19.0858 11.4342 18.75 11.02 18.75H7.5C6.89105 18.75 6.38302 18.73 5.94607 18.6675C5.93813 18.6664 5.93017 18.6654 5.9222 18.6645C4.70657 18.5305 4.13894 18.2006 3.81013 17.7013C3.43687 17.1345 3.25 16.1826 3.25 14.5V9.5C3.25 7.81741 3.43687 6.86555 3.81013 6.29874C4.13894 5.79944 4.70657 5.46953 5.9222 5.33548C5.93017 5.3346 5.93813 5.3336 5.94607 5.33246ZM8.75 8.5C8.75 8.08579 8.41421 7.75 8 7.75C7.58579 7.75 7.25 8.08579 7.25 8.5V15.5C7.25 15.9142 7.58579 16.25 8 16.25C8.41421 16.25 8.75 15.9142 8.75 15.5V8.5Z" fill="#424B5A"/>
</svg>
