<svg width="24" height="24" viewBox="0 0 24 24" fill="none" xmlns="http://www.w3.org/2000/svg">
<path fill-rule="evenodd" clip-rule="evenodd" d="M1.25 12C1.25 9.64274 2.0099 7.46196 3.29795 5.68941C3.32767 5.63708 3.36368 5.58824 3.40537 5.54416C5.36747 2.93689 8.48785 1.25 12 1.25C16.3829 1.25 20.1556 3.87698 21.8287 7.64133C21.8495 7.67958 21.8671 7.71966 21.8811 7.76117C22.4403 9.06197 22.75 10.495 22.75 12C22.75 17.9342 17.9342 22.75 12 22.75C11.613 22.75 11.2307 22.7295 10.8542 22.6896C10.8156 22.6883 10.777 22.684 10.7388 22.6767C5.39821 22.0518 1.25 17.5076 1.25 12ZM12.4536 21.2391C17.349 21.0023 21.25 16.9537 21.25 12C21.25 10.8196 21.0285 9.69065 20.6249 8.65239C18.7705 8.2839 16.8772 8.17168 14.999 8.31573C16.0677 9.18658 16.75 10.5133 16.75 12C16.75 12.8523 16.5258 13.652 16.133 14.3434C15.3216 16.8421 14.0754 19.1761 12.4536 21.2391ZM13.6809 16.4442C12.8689 18.1386 11.8289 19.7198 10.586 21.1424C6.15054 20.4611 2.75 16.625 2.75 12C2.75 10.4645 3.1248 9.01603 3.78783 7.74106C4.79931 10.1672 6.18956 12.4253 7.91114 14.4195C8.73835 15.8149 10.2596 16.75 12 16.75C12.5919 16.75 13.1584 16.6419 13.6809 16.4442ZM14.8516 13.5611C14.823 13.6008 14.7979 13.6439 14.7771 13.6899C14.2067 14.6256 13.1767 15.25 12 15.25C10.8238 15.25 9.79415 14.6262 9.22365 13.6911C9.20342 13.6464 9.17854 13.6032 9.14895 13.5621C8.89461 13.0986 8.75 12.5663 8.75 12C8.75 10.209 10.1964 8.75782 11.9855 8.75003L12.0133 8.75003C13.803 8.75719 15.25 10.2087 15.25 12C15.25 12.5659 15.1056 13.0979 14.8516 13.5611ZM4.79534 6.20048C5.43761 7.95447 6.28622 9.62504 7.3216 11.1734C7.70789 8.97013 9.61155 7.29048 11.9164 7.25072C14.5013 6.69534 17.1627 6.60663 19.7721 6.98458C18.1239 4.43708 15.2577 2.75 12 2.75C9.08947 2.75 6.4914 4.09667 4.79534 6.20048Z" fill="#424B5A"/>
</svg>
