<svg width="24" height="24" viewBox="0 0 24 24" fill="none" xmlns="http://www.w3.org/2000/svg">
<path fill-rule="evenodd" clip-rule="evenodd" d="M9.92882 1.24966L10 1.2498H14L14.0712 1.24966C14.5142 1.24841 15.222 1.24639 15.791 1.62576C16.3265 1.98273 16.6111 2.5617 16.7096 3.32323C18.1504 3.47451 19.3992 3.88132 20.2993 4.85424C21.3278 5.96601 21.75 7.65452 21.75 9.9998V15.9998C21.75 18.0131 21.5113 19.7687 20.4394 20.9937C19.3459 22.2435 17.5647 22.7498 15 22.7498H9C6.43533 22.7498 4.65413 22.2435 3.56057 20.9937C2.48868 19.7687 2.25 18.0131 2.25 15.9998V9.9998C2.25 7.65901 2.6724 5.97108 3.70035 4.85837C4.60012 3.8844 5.84867 3.47525 7.29036 3.32335C7.38884 2.56176 7.67349 1.98275 8.20897 1.62576C8.77803 1.24639 9.48584 1.24841 9.92882 1.24966ZM7.31325 4.83024C6.12269 4.9727 5.33207 5.30261 4.80215 5.87623C4.1626 6.56852 3.75 7.78059 3.75 9.9998V15.9998C3.75 17.9865 4.01132 19.2309 4.68943 20.0059C5.34587 20.7561 6.56467 21.2498 9 21.2498H15C17.4353 21.2498 18.6541 20.7561 19.3106 20.0059C19.9887 19.2309 20.25 17.9865 20.25 15.9998V9.9998C20.25 7.77508 19.8372 6.5636 19.1982 5.87286C18.6723 5.30442 17.8895 4.97674 16.7122 4.83313C16.6683 5.15145 16.5743 5.49047 16.374 5.79083C15.9178 6.47514 15.099 6.7498 14 6.7498H10L9.92882 6.74994C9.48584 6.7512 8.77803 6.75321 8.20897 6.37384C7.71019 6.04131 7.42903 5.51615 7.31325 4.83024ZM15.25 4.01598C15.25 4.01843 15.25 4.02089 15.25 4.02334C15.2493 4.5714 15.2242 4.81148 15.126 4.95878C15.0822 5.02447 14.901 5.2498 14 5.2498H10C9.43524 5.2498 9.19042 5.22536 9.04103 5.12576C8.97533 5.08197 8.75 4.90075 8.75 3.9998C8.75 3.09885 8.97533 2.91763 9.04103 2.87384C9.19042 2.77424 9.43524 2.7498 10 2.7498H14C14.5648 2.7498 14.8096 2.77424 14.959 2.87384C15.0247 2.91763 15.25 3.09885 15.25 3.9998C15.25 4.00522 15.25 4.01061 15.25 4.01598ZM8 11.4498C7.58579 11.4498 7.25 11.7856 7.25 12.1998C7.25 12.614 7.58579 12.9498 8 12.9498H15C15.4142 12.9498 15.75 12.614 15.75 12.1998C15.75 11.7856 15.4142 11.4498 15 11.4498H8ZM8 15.4498C7.58579 15.4498 7.25 15.7856 7.25 16.1998C7.25 16.614 7.58579 16.9498 8 16.9498H12.38C12.7942 16.9498 13.13 16.614 13.13 16.1998C13.13 15.7856 12.7942 15.4498 12.38 15.4498H8Z" fill="#424B5A"/>
</svg>
