<svg width="24" height="24" viewBox="0 0 24 24" fill="none" xmlns="http://www.w3.org/2000/svg">
<path fill-rule="evenodd" clip-rule="evenodd" d="M3.60076 6.87748L2.86103 11.5658C2.4782 14.0165 2.92079 15.2993 4.01777 16.064L4.01869 16.0646L4.01963 16.0653L4.02444 16.0686C4.4448 16.3673 4.99224 16.6152 5.6944 16.8066C6.04227 16.9015 6.42812 16.9825 6.8553 17.0489L6.85691 17.0492L11.5456 17.789C13.427 18.0824 14.6123 17.8772 15.392 17.3089C16.1719 16.7406 16.7307 15.6749 17.0291 13.7934L17.7589 9.10468C17.8739 8.36675 17.9168 7.73542 17.8816 7.1991L17.8815 7.19743L17.881 7.18898C17.8239 6.09072 17.4838 5.35206 16.889 4.82049C16.2676 4.2651 15.28 3.85602 13.7744 3.62106L9.08441 2.88106C7.20314 2.58766 6.0177 2.79286 5.23802 3.36113C4.4581 3.92955 3.89919 4.9957 3.60076 6.87748ZM1.37901 11.3342C0.980185 13.8867 1.32616 15.8621 2.93462 17.1276C3.46632 18.8655 4.99782 19.9597 7.24473 20.7022L11.7534 22.2017C13.7031 22.8499 15.3807 22.9809 16.772 22.2844C18.1634 21.5879 19.0635 20.1665 19.7117 18.2166L21.2118 13.7065C21.7522 12.0801 21.9318 10.6454 21.5716 9.4036C21.2363 8.24777 20.4673 7.36949 19.3448 6.69303C19.2079 5.4792 18.7493 4.47133 17.8885 3.70206C16.9576 2.87006 15.6397 2.39406 14.0057 2.13899L9.31691 1.39919L9.31563 1.39899C7.28728 1.08255 5.61224 1.23225 4.35452 2.14892C3.09697 3.06547 2.44076 4.6151 2.11918 6.64314L1.37901 11.3342ZM5.71164 18.3571L5.73528 18.3624C6.01959 18.4271 6.31584 18.483 6.62367 18.5309L6.62386 18.531L6.62474 18.5311L11.3131 19.2709L11.3144 19.2711C13.3428 19.5875 15.0178 19.4378 16.2755 18.5211C17.5331 17.6046 18.1892 16.0555 18.5108 14.0275L18.5111 14.0254L19.2411 9.33537C19.2826 9.06875 19.3167 8.808 19.342 8.55359C19.7462 8.93704 19.9963 9.35703 20.131 9.82145C20.3683 10.6397 20.2879 11.7299 19.7883 13.2335L18.2883 17.7434C17.6866 19.5535 16.9616 20.5121 16.1006 20.9431C15.2394 21.3742 14.0369 21.3801 12.2266 20.7783L7.71672 19.2784L7.71531 19.2779C6.8749 19.0002 6.21755 18.694 5.71164 18.3571ZM7.25002 7.24002C7.25002 6.69326 7.69326 6.25002 8.24002 6.25002C8.78678 6.25002 9.23002 6.69326 9.23002 7.24002C9.23002 7.78679 8.78678 8.23002 8.24002 8.23002C7.69326 8.23002 7.25002 7.78679 7.25002 7.24002ZM8.24002 4.75003C6.86483 4.75003 5.75002 5.86484 5.75002 7.24002C5.75002 8.61521 6.86483 9.73002 8.24002 9.73002C9.61521 9.73002 10.73 8.61521 10.73 7.24002C10.73 5.86484 9.61521 4.75003 8.24002 4.75003Z" fill="#424B5A"/>
</svg>
