<svg width="24" height="24" viewBox="0 0 24 24" fill="none" xmlns="http://www.w3.org/2000/svg">
<path fill-rule="evenodd" clip-rule="evenodd" d="M9.92882 1.24966L10 1.2498H14L14.0712 1.24966C14.5142 1.24841 15.222 1.24639 15.791 1.62576C16.3265 1.98273 16.6111 2.5617 16.7096 3.32323C18.1504 3.47451 19.3992 3.88132 20.2993 4.85424C21.3278 5.96601 21.75 7.65452 21.75 9.9998V14.9998C21.75 15.414 21.4142 15.7498 21 15.7498C20.5858 15.7498 20.25 15.414 20.25 14.9998V9.9998C20.25 7.77508 19.8372 6.5636 19.1982 5.87286C18.6723 5.30442 17.8895 4.97674 16.7122 4.83313C16.6683 5.15145 16.5743 5.49047 16.374 5.79083C15.9178 6.47514 15.099 6.7498 14 6.7498H10L9.92882 6.74994C9.48584 6.7512 8.77803 6.75321 8.20897 6.37384C7.71019 6.04131 7.42903 5.51615 7.31325 4.83024C6.12269 4.9727 5.33207 5.30261 4.80215 5.87623C4.1626 6.56852 3.75 7.78059 3.75 9.9998V15.9998C3.75 17.9865 4.01132 19.2309 4.68943 20.0059C5.34587 20.7561 6.56467 21.2498 9 21.2498H14C14.4142 21.2498 14.75 21.5856 14.75 21.9998C14.75 22.414 14.4142 22.7498 14 22.7498H9C6.43533 22.7498 4.65413 22.2435 3.56057 20.9937C2.48868 19.7687 2.25 18.0131 2.25 15.9998V9.9998C2.25 7.65901 2.6724 5.97108 3.70035 4.85837C4.60012 3.8844 5.84867 3.47525 7.29036 3.32335C7.38884 2.56176 7.67349 1.98275 8.20897 1.62576C8.77803 1.24639 9.48584 1.24841 9.92882 1.24966ZM15.25 4.01598L15.25 4.02334C15.2493 4.5714 15.2242 4.81148 15.126 4.95878C15.0822 5.02447 14.901 5.2498 14 5.2498H10C9.43524 5.2498 9.19042 5.22536 9.04103 5.12576C8.97533 5.08197 8.75 4.90075 8.75 3.9998C8.75 3.09885 8.97533 2.91763 9.04103 2.87384C9.19042 2.77424 9.43524 2.7498 10 2.7498H14C14.5648 2.7498 14.8096 2.77424 14.959 2.87384C15.0247 2.91763 15.25 3.09885 15.25 3.9998L15.25 4.01598ZM21 18.2498C21.4142 18.2498 21.75 18.5856 21.75 18.9998V21.9998C21.75 22.414 21.4142 22.7498 21 22.7498H18C17.5858 22.7498 17.25 22.414 17.25 21.9998C17.25 21.5856 17.5858 21.2498 18 21.2498H19.1893L14.4697 16.5301C14.1768 16.2372 14.1768 15.7624 14.4697 15.4695C14.7626 15.1766 15.2374 15.1766 15.5303 15.4695L20.25 20.1891V18.9998C20.25 18.5856 20.5858 18.2498 21 18.2498Z" fill="#424B5A"/>
</svg>
