<svg width="24" height="24" viewBox="0 0 24 24" fill="none" xmlns="http://www.w3.org/2000/svg">
<path fill-rule="evenodd" clip-rule="evenodd" d="M11.46 1.25C10.6997 1.25 9.90783 1.38983 9.22609 1.87967C8.53661 2.37507 8.0623 3.154 7.79259 4.2272C7.78967 4.23885 7.78702 4.25056 7.78466 4.26233L7.34745 6.43943C5.75966 7.76934 4.75 9.76671 4.75 12C4.75 14.2389 5.76023 16.2341 7.34813 17.5638L7.78466 19.7376C7.78702 19.7493 7.78967 19.761 7.79259 19.7727C8.0623 20.8459 8.53661 21.6248 9.22609 22.1202C9.90783 22.6101 10.6997 22.7499 11.46 22.7499H12.55C13.3106 22.7499 14.0996 22.6099 14.7798 22.1217C15.467 21.6284 15.9412 20.8535 16.2162 19.7872C16.2193 19.7754 16.222 19.7635 16.2245 19.7515L16.6805 17.5428C18.2496 16.2129 19.25 14.2189 19.25 12C19.25 9.78055 18.2528 7.79411 16.682 6.46425L16.2245 4.24834C16.222 4.2364 16.2193 4.22452 16.2162 4.21271C15.9412 3.14638 15.467 2.37151 14.7798 1.87822C14.0996 1.38996 13.3106 1.25 12.55 1.25H11.46ZM14.9885 7.08657C15.1756 7.20108 15.3557 7.32611 15.528 7.46086C15.5396 7.46988 15.5513 7.47854 15.5633 7.48683C16.8953 8.5399 17.75 10.1701 17.75 12C17.75 13.8097 16.9119 15.4316 15.6035 16.4871C15.5774 16.5028 15.5522 16.5201 15.528 16.539C14.5558 17.2992 13.3373 17.7499 12 17.7499C10.6813 17.7499 9.47156 17.3083 8.49856 16.5564C8.47428 16.5377 8.44898 16.5205 8.42281 16.505C7.09642 15.4492 6.25 13.8279 6.25 12C6.25 10.1692 7.10553 8.53829 8.43864 7.48527C8.45921 7.47236 8.47921 7.45842 8.49856 7.44346C9.08687 6.98886 9.76173 6.64769 10.4949 6.44897C10.9746 6.31923 11.4792 6.25 12 6.25C13.1003 6.25 14.12 6.55508 14.9885 7.08657ZM11.3166 4.78179C10.5332 4.85503 9.78603 5.05289 9.0951 5.35536L9.25163 4.5759C9.46198 3.75026 9.78052 3.32836 10.1014 3.09783C10.4321 2.86017 10.8703 2.75 11.46 2.75H12.55C13.1393 2.75 13.5753 2.86004 13.9051 3.09678C14.2257 3.32689 14.5443 3.74778 14.7593 4.57016L14.9229 5.36262C14.0301 4.96836 13.0421 4.75 12 4.75C11.7695 4.75 11.5415 4.76075 11.3166 4.78179ZM14.9229 18.6374C14.0301 19.0317 13.0421 19.25 12 19.25C10.9671 19.25 9.98495 19.0342 9.0948 18.643L9.25163 19.424C9.46198 20.2496 9.78052 20.6715 10.1014 20.9021C10.4321 21.1397 10.8703 21.2499 11.46 21.2499H12.55C13.1393 21.2499 13.5753 21.1398 13.9051 20.9031C14.2257 20.673 14.5443 20.2521 14.7593 19.4297L14.9229 18.6374ZM12.75 9.66016C12.75 9.24594 12.4142 8.91016 12 8.91016C11.5858 8.91016 11.25 9.24594 11.25 9.66016V12.4502C11.25 12.6491 11.329 12.8398 11.4697 12.9805L12.8697 14.3805C13.1626 14.6734 13.6374 14.6734 13.9303 14.3805C14.2232 14.0876 14.2232 13.6127 13.9303 13.3198L12.75 12.1395V9.66016Z" fill="#424B5A"/>
</svg>
