<svg width="24" height="24" viewBox="0 0 24 24" fill="none" xmlns="http://www.w3.org/2000/svg">
<path fill-rule="evenodd" clip-rule="evenodd" d="M6.14708 11.8917C5.69362 10.3593 5.79952 9.05995 6.22608 8.01685C6.6975 6.86407 7.58512 5.96441 8.67558 5.39309C10.8619 4.24761 13.6925 4.4866 15.3678 6.44356C15.3833 6.46771 15.4001 6.49105 15.4183 6.51345C15.9097 7.1171 16.3177 7.89416 16.5732 8.87184C16.2076 8.95394 15.8522 9.08038 15.5146 9.24918C15.1441 9.43442 14.9939 9.88492 15.1792 10.2554C15.3644 10.6259 15.8149 10.7761 16.1854 10.5908C16.6055 10.3808 17.0653 10.2679 17.5329 10.2599L17.548 10.2595C18.5995 10.4357 19.4524 10.9676 20.0749 11.7114L20.0773 11.7142M16.065 4.9995C13.827 2.85329 10.48 2.75426 7.97944 4.06441C6.6149 4.77933 5.45878 5.9303 4.83769 7.44908C4.30326 8.75596 4.18282 10.2916 4.61711 11.9854C-0.112571 13.127 0.203379 20.4434 5.48555 20.828C5.50367 20.8293 5.52184 20.83 5.54001 20.83H16.6274C18.1625 20.8406 19.6422 20.2728 20.7711 19.2381C23.2008 17.1006 23.2027 13.6586 21.6493 11.3149C22.3187 10.564 22.72 9.57468 22.72 8.5C22.72 6.15578 20.8142 4.25 18.47 4.25C17.5829 4.25 16.7505 4.52453 16.065 4.9995ZM17.0184 6.16694C17.4391 5.90204 17.9382 5.75 18.47 5.75C19.9858 5.75 21.22 6.98421 21.22 8.5C21.22 9.12225 21.0126 9.69878 20.6592 10.1602C20.6362 10.1395 20.6131 10.1189 20.5898 10.0985C19.9048 9.49928 19.0698 9.05621 18.1084 8.84115C17.8798 7.80735 17.5046 6.91683 17.0184 6.16694ZM20.0776 11.7146C21.6127 13.5309 21.6934 16.4338 19.7754 18.1162L19.7625 18.1278C18.9129 18.9087 17.7965 19.3386 16.6356 19.33H5.56848C1.84996 19.0343 1.8611 13.6443 5.56842 13.35H5.58316C6.04868 13.3589 6.50635 13.4717 6.9246 13.6808C7.29508 13.8661 7.74559 13.7159 7.93083 13.3454C8.11607 12.9749 7.96591 12.5244 7.59542 12.3392C7.13891 12.1109 6.64974 11.9601 6.14708 11.8917" fill="#424B5A"/>
</svg>
