<svg width="24" height="24" viewBox="0 0 24 24" fill="none" xmlns="http://www.w3.org/2000/svg">
<path fill-rule="evenodd" clip-rule="evenodd" d="M5.22589 6.42572C4.50635 7.65799 4.26282 9.32108 4.99597 11.367C5.1357 11.757 4.93287 12.1863 4.54294 12.3261C4.15301 12.4658 3.72363 12.263 3.5839 11.873C2.71705 9.454 2.96477 7.32333 3.93055 5.66936C4.88603 4.03301 6.50303 2.93355 8.258 2.47219C10.0129 2.01084 11.9591 2.17362 13.5899 3.13223C15.1215 4.03257 16.3106 5.59739 16.8082 7.84992C18.76 8.28341 20.1753 9.66896 20.8887 11.323C21.0527 11.7034 20.8773 12.1447 20.497 12.3087C20.1166 12.4728 19.6753 12.2974 19.5113 11.917C18.9308 10.571 17.7878 9.52304 16.2486 9.26906C16.2401 9.26949 16.2315 9.26978 16.2229 9.26993C15.7553 9.27799 15.2954 9.39083 14.8754 9.60086C14.5049 9.78611 14.0544 9.63594 13.8691 9.26545C13.6839 8.89497 13.8341 8.44447 14.2046 8.25922C14.5452 8.08892 14.9039 7.96173 15.273 7.8797C14.8252 6.16261 13.9061 5.05813 12.8297 4.42535C11.5876 3.69521 10.0607 3.54924 8.63938 3.92289C7.2181 4.29653 5.95572 5.17582 5.22589 6.42572ZM3.99998 14.2801C3.58577 14.2801 3.24998 14.6158 3.24998 15.0301C3.24998 15.4443 3.58577 15.7801 3.99998 15.7801H20C20.4142 15.7801 20.75 15.4443 20.75 15.0301C20.75 14.6158 20.4142 14.2801 20 14.2801H3.99998ZM5.24998 18.0301C5.24998 17.6158 5.58577 17.2801 5.99998 17.2801H18C18.4142 17.2801 18.75 17.6158 18.75 18.0301C18.75 18.4443 18.4142 18.7801 18 18.7801H5.99998C5.58577 18.7801 5.24998 18.4443 5.24998 18.0301ZM8.99998 20.2801C8.58577 20.2801 8.24998 20.6158 8.24998 21.0301C8.24998 21.4443 8.58577 21.7801 8.99998 21.7801H15C15.4142 21.7801 15.75 21.4443 15.75 21.0301C15.75 20.6158 15.4142 20.2801 15 20.2801H8.99998Z" fill="#424B5A"/>
</svg>
