<svg width="24" height="24" viewBox="0 0 24 24" fill="none" xmlns="http://www.w3.org/2000/svg">
<path fill-rule="evenodd" clip-rule="evenodd" d="M15 1.25C14.7298 1.25 14.4805 1.39534 14.3474 1.63047C14.2142 1.8656 14.2179 2.15417 14.3569 2.38587L15.4069 4.13587C15.62 4.49105 16.0807 4.60623 16.4359 4.39312C16.791 4.18001 16.9062 3.71932 16.6931 3.36413L16.4218 2.91194C19.1909 3.55436 21.25 6.03342 21.25 9C21.25 9.41421 21.5858 9.75 22 9.75C22.4142 9.75 22.75 9.41421 22.75 9C22.75 4.71579 19.2842 1.25 15 1.25ZM15.9232 9.34416C15.5855 8.0099 14.8472 7.05475 13.8893 6.49134C12.8304 5.86852 11.5753 5.76659 10.4524 6.0609C9.32941 6.35522 8.28497 7.0598 7.66472 8.12087C7.15108 8.99956 6.95663 10.0746 7.19911 11.2695C4.32252 12.2388 4.64401 16.8554 8.05675 17.0983C8.07447 17.0995 8.09223 17.1001 8.10999 17.1001H14.7756C15.7802 17.1113 16.7366 16.7274 17.4676 16.0713C18.7127 14.9804 18.978 13.3585 18.565 12.0017C18.1985 10.798 17.2722 9.7188 15.9232 9.34416ZM8.13641 12.6003C8.22179 12.6008 8.30868 12.5865 8.39369 12.5559C8.78349 12.4158 8.98592 11.9863 8.84582 11.5965C8.43044 10.4407 8.57596 9.53433 8.9597 8.87785C9.35383 8.20361 10.0431 7.71882 10.8327 7.51189C11.6222 7.30496 12.4583 7.3899 13.1288 7.78427C13.7815 8.16816 14.3497 8.88742 14.55 10.1022C14.604 10.4295 14.8665 10.6824 15.1956 10.7242C16.1542 10.8459 16.8584 11.5465 17.13 12.4386C17.4015 13.3304 17.208 14.3063 16.4765 14.9454L16.4683 14.9527C16.001 15.3733 15.4011 15.6078 14.7893 15.6002L8.13879 15.6001C6.27345 15.4441 6.29811 12.7564 8.13641 12.6003ZM2 14.25C2.41421 14.25 2.75 14.5858 2.75 15C2.75 17.9666 4.8091 20.4456 7.57821 21.0881L7.30689 20.6359C7.09378 20.2807 7.20896 19.82 7.56414 19.6069C7.91933 19.3938 8.38002 19.5089 8.59313 19.8641L9.64312 21.6141C9.78214 21.8458 9.78578 22.1344 9.65265 22.3695C9.51952 22.6047 9.2702 22.75 9 22.75C4.71579 22.75 1.25 19.2842 1.25 15C1.25 14.5858 1.58579 14.25 2 14.25Z" fill="#424B5A"/>
</svg>
