<svg width="24" height="24" viewBox="0 0 24 24" fill="none" xmlns="http://www.w3.org/2000/svg">
<path fill-rule="evenodd" clip-rule="evenodd" d="M17.3969 6.15408C16.9502 4.20437 15.9064 2.84038 14.5603 2.05117C13.1147 1.20368 11.3925 1.06097 9.84243 1.46704C8.29233 1.87312 6.86037 2.84211 6.01308 4.28925C5.27282 5.55358 5.01067 7.12893 5.44429 8.90397C1.31844 9.99093 1.63817 16.4148 6.31668 16.7482C6.33442 16.7494 6.3522 16.7501 6.36998 16.7501H11.25V18.3536C10.3341 18.6126 9.61253 19.3342 9.3535 20.2501H5.99998C5.58577 20.2501 5.24998 20.5859 5.24998 21.0001C5.24998 21.4143 5.58577 21.7501 5.99998 21.7501H9.3535C9.67996 22.9043 10.7412 23.7501 12 23.7501C13.2588 23.7501 14.32 22.9043 14.6465 21.7501H18C18.4142 21.7501 18.75 21.4143 18.75 21.0001C18.75 20.5859 18.4142 20.2501 18 20.2501H14.6465C14.3874 19.3342 13.6658 18.6126 12.75 18.3536V16.7501H16.0269C17.3863 16.7608 18.694 16.2502 19.6989 15.3401C22.8999 12.5346 21.4023 7.0997 17.3969 6.15408ZM10.75 21.0001C10.75 21.6904 11.3096 22.2501 12 22.2501C12.6903 22.2501 13.25 21.6904 13.25 21.0001C13.25 20.3097 12.6903 19.7501 12 19.7501C11.3096 19.7501 10.75 20.3097 10.75 21.0001ZM6.39803 15.2501L12 15.2501L16.0364 15.2501C17.0134 15.2584 17.9622 14.891 18.6958 14.2248L18.7064 14.2154C21.0776 12.1427 19.796 7.94265 16.6653 7.54404C16.3366 7.5022 16.0743 7.24963 16.0201 6.92276C15.7151 5.08355 14.8412 3.95467 13.8016 3.34519C12.7441 2.72518 11.44 2.59915 10.2226 2.91808C9.00515 3.237 7.92837 3.98677 7.30753 5.04714C6.69716 6.08963 6.48548 7.5033 7.11576 9.25632C7.2559 9.64611 7.05353 10.0757 6.66374 10.2158C6.57555 10.2475 6.48533 10.2617 6.39688 10.2602C3.29302 10.506 3.27862 15.0036 6.39803 15.2501Z" fill="#424B5A"/>
</svg>
