<svg width="24" height="24" viewBox="0 0 24 24" fill="none" xmlns="http://www.w3.org/2000/svg">
<path fill-rule="evenodd" clip-rule="evenodd" d="M6.29576 10.8663C5.56033 8.82042 5.80279 7.15687 6.52188 5.924C7.25128 4.67346 8.51393 3.79331 9.93583 3.41909C11.3578 3.04487 12.8855 3.19058 14.1283 3.92113C15.3533 4.64124 16.3747 5.97231 16.7299 8.12232C16.784 8.44946 17.0465 8.70228 17.3754 8.74407C19.1991 8.97571 20.5083 10.3064 21.0061 11.9433C21.5041 13.5805 21.1577 15.4167 19.7761 16.6256L19.7652 16.6353C19.1514 17.1938 18.4131 17.5719 17.6206 17.7404C17.7062 17.3495 17.7499 16.9441 17.7499 16.5301C17.7499 13.3558 15.1742 10.7801 11.9999 10.7801C8.82573 10.7801 6.24994 13.3558 6.24994 16.5301C6.24994 16.9794 6.30144 17.4185 6.40204 17.84H5.56748C1.85027 17.5537 1.85072 12.1551 5.56882 11.8699C5.65982 11.8725 5.75283 11.8585 5.84367 11.8258C6.23347 11.6857 6.43587 11.2561 6.29576 10.8663ZM20.7694 17.7496C19.7267 18.6962 18.4044 19.2538 17.0053 19.331C16.9747 19.3847 16.9432 19.4378 16.9106 19.4901C15.92 21.1545 14.0922 22.2801 11.9999 22.2801C9.90766 22.2801 8.07988 21.1545 7.08926 19.4901C7.05855 19.4407 7.02871 19.3907 6.99975 19.34H5.53991C5.52231 19.34 5.50471 19.3394 5.48715 19.3382C0.184792 18.9643 -0.105675 11.6398 4.61576 10.5044C4.08514 8.44335 4.37827 6.62198 5.22617 5.16826C6.18113 3.531 7.79847 2.43052 9.55406 1.96849C11.3096 1.50646 13.2568 1.66888 14.8884 2.62801C16.4212 3.52907 17.6111 5.09563 18.1086 7.35115C20.3212 7.84693 21.849 9.55953 22.4412 11.5068C23.0802 13.6075 22.663 16.0886 20.7694 17.7496ZM15.8482 18.2997C15.8552 18.283 15.8628 18.2666 15.871 18.2506C16.1158 17.7394 16.2499 17.1562 16.2499 16.5301C16.2499 14.1843 14.3457 12.2801 11.9999 12.2801C9.65415 12.2801 7.74994 14.1843 7.74994 16.5301C7.74994 17.1563 7.8841 17.7397 8.1291 18.2509C8.13712 18.2668 8.14461 18.2829 8.15152 18.2993C8.2163 18.4435 8.28788 18.5777 8.36592 18.7026L8.37499 18.7175C9.1054 19.949 10.4553 20.7801 11.9999 20.7801C13.5445 20.7801 14.8945 19.949 15.6249 18.7175L15.634 18.7026C15.7119 18.5778 15.7835 18.4437 15.8482 18.2997ZM14.0692 16.1007C14.3733 15.8194 14.3918 15.3449 14.1105 15.0408C13.8293 14.7367 13.3548 14.7182 13.0507 14.9994L11.4502 16.4797L10.9703 15.9997C10.6774 15.7068 10.2025 15.7068 9.90962 15.9997C9.61672 16.2926 9.61672 16.7675 9.90961 17.0604L10.8996 18.0504C11.1844 18.3352 11.6434 18.3442 11.9392 18.0707L14.0692 16.1007Z" fill="#424B5A"/>
</svg>
