<svg width="24" height="24" viewBox="0 0 24 24" fill="none" xmlns="http://www.w3.org/2000/svg">
<path fill-rule="evenodd" clip-rule="evenodd" d="M14.894 4.11207C16.427 5.01243 17.6182 6.57755 18.118 8.83098C20.3309 9.32647 21.8613 11.0388 22.4549 12.9863C23.0952 15.0869 22.6783 17.5677 20.7804 19.2288C19.6515 20.263 18.1721 20.8307 16.6374 20.82H5.54998C5.53238 20.82 5.51478 20.8194 5.49722 20.8182C0.194897 20.4443 -0.0956002 13.1199 4.62574 11.9844C4.09504 9.92367 4.38748 8.10288 5.23472 6.64976C6.18896 5.0131 7.80552 3.91354 9.56054 3.45217C11.3155 2.9908 13.2622 3.15366 14.894 4.11207ZM6.53055 7.40529C5.86642 8.54437 5.60945 10.0519 6.15588 11.8901C6.66177 11.9575 7.154 12.1092 7.61042 12.3417C7.9795 12.5298 8.12628 12.9814 7.93826 13.3505C7.75024 13.7195 7.29861 13.8663 6.92953 13.6783C6.51428 13.4668 6.05058 13.3541 5.57613 13.3501C1.86079 13.6377 1.86126 19.0337 5.57755 19.32L16.6455 19.32C17.8065 19.3286 18.9229 18.8988 19.7724 18.1179L19.787 18.1048C21.1728 16.8959 21.519 15.0605 21.0201 13.4237C20.5406 11.8507 19.3107 10.5601 17.5966 10.2561C17.5756 10.2583 17.5544 10.2595 17.5329 10.2599C17.0653 10.268 16.6055 10.3808 16.1854 10.5908C15.8149 10.7761 15.3644 10.6259 15.1792 10.2554C14.9939 9.88495 15.1441 9.43444 15.5146 9.2492C15.8557 9.07864 16.215 8.95132 16.5846 8.86931C16.1358 7.14704 15.214 6.03955 14.1344 5.40548C12.8909 4.67514 11.3632 4.52924 9.94192 4.90288C8.52069 5.2765 7.25912 6.15569 6.53055 7.40529Z" fill="#424B5A"/>
</svg>
