<svg width="24" height="24" viewBox="0 0 24 24" fill="none" xmlns="http://www.w3.org/2000/svg">
<path fill-rule="evenodd" clip-rule="evenodd" d="M14.8757 4.11621C16.4004 5.01496 17.5837 6.57538 18.0786 8.82026C22.6269 9.83274 24.3368 16.0068 20.7292 19.1698C19.6022 20.1919 18.1329 20.7614 16.6044 20.7499C16.1902 20.7469 15.8569 20.4086 15.86 19.9944C15.8631 19.5802 16.2014 19.2469 16.6156 19.25C17.7647 19.2586 18.8732 18.8299 19.7255 18.055L19.7362 18.0454C22.4906 15.6365 21.0442 10.7792 17.4641 10.2305C17.0089 10.2425 16.5687 10.3542 16.1554 10.5608C15.7849 10.746 15.3344 10.5959 15.1492 10.2254C14.9639 9.8549 15.1141 9.40439 15.4846 9.21915C15.8227 9.05009 16.1764 8.92321 16.5411 8.841C16.095 7.13577 15.1823 6.03815 14.114 5.40842C12.8787 4.68025 11.36 4.53362 9.94644 4.9042C8.53288 5.27478 7.27762 6.14868 6.55225 7.39134C5.89083 8.52445 5.63428 10.0247 6.17767 11.8548C6.67972 11.9194 7.16895 12.0717 7.62044 12.3017C7.98952 12.4897 8.1363 12.9413 7.94827 13.3104C7.76025 13.6795 7.30863 13.8263 6.93955 13.6382C6.52164 13.4253 6.05987 13.3152 5.60254 13.3196C1.90322 13.6014 1.89822 18.9975 5.62309 19.2619C6.03626 19.2912 6.34744 19.6499 6.31811 20.0631C6.28879 20.4762 5.93008 20.7874 5.5169 20.7581C0.25307 20.3845 -0.0632274 13.0859 4.64888 11.9539C4.1194 9.89899 4.41137 8.0835 5.2568 6.63516C6.20799 5.00563 7.81836 3.91141 9.56605 3.45323C11.3137 2.99507 13.2519 3.15906 14.8757 4.11621ZM12.9955 17.5C12.4432 17.5 11.9955 17.9477 11.9955 18.5C11.9955 19.0523 12.4432 19.5 12.9955 19.5H13.0045C13.5568 19.5 14.0045 19.0523 14.0045 18.5C14.0045 17.9477 13.5568 17.5 13.0045 17.5H12.9955ZM7.99549 18.5C7.99549 17.9477 8.44321 17.5 8.99549 17.5H9.00449C9.55678 17.5 10.0045 17.9477 10.0045 18.5C10.0045 19.0523 9.55678 19.5 9.00449 19.5H8.99549C8.44321 19.5 7.99549 19.0523 7.99549 18.5ZM10.9955 20.5C10.4432 20.5 9.99549 20.9477 9.99549 21.5C9.99549 22.0523 10.4432 22.5 10.9955 22.5H11.0045C11.5568 22.5 12.0045 22.0523 12.0045 21.5C12.0045 20.9477 11.5568 20.5 11.0045 20.5H10.9955Z" fill="#424B5A"/>
</svg>
