<svg width="24" height="24" viewBox="0 0 24 24" fill="none" xmlns="http://www.w3.org/2000/svg">
<path fill-rule="evenodd" clip-rule="evenodd" d="M6.52194 5.92401C5.80285 7.15687 5.56039 8.82042 6.29582 10.8663C6.43593 11.2561 6.23353 11.6857 5.84373 11.8258C5.7529 11.8585 5.65991 11.8725 5.56893 11.8699C1.85084 12.1551 1.8504 17.5537 5.5676 17.84H6.40212C6.30153 17.4185 6.25003 16.9794 6.25003 16.53C6.25003 13.3558 8.82582 10.78 12 10.78C15.1742 10.78 17.75 13.3558 17.75 16.53C17.75 16.9441 17.7063 17.3495 17.6207 17.7404C18.4132 17.5719 19.1515 17.1938 19.7652 16.6353L19.7762 16.6256C21.1578 15.4167 21.5042 13.5805 21.0062 11.9433C20.5084 10.3064 19.1992 8.97571 17.3755 8.74407C17.0466 8.70228 16.7841 8.44946 16.7301 8.12232C16.3748 5.97231 15.3534 4.64124 14.1284 3.92114C12.8856 3.19058 11.3579 3.04487 9.93591 3.41909C8.51401 3.79331 7.25135 4.67346 6.52194 5.92401ZM17.0054 19.331C18.4044 19.2538 19.7268 18.6962 20.7694 17.7496C22.6631 16.0886 23.0802 13.6075 22.4413 11.5068C21.8491 9.55954 20.3213 7.84693 18.1087 7.35115C17.6113 5.09563 16.4214 3.52907 14.8885 2.62801C13.2569 1.66888 11.3097 1.50646 9.55415 1.96849C7.79855 2.43052 6.18121 3.531 5.22624 5.16826C4.37833 6.62198 4.0852 8.44336 4.61582 10.5044C-0.105551 11.6399 0.184935 18.9643 5.48728 19.3382C5.50483 19.3394 5.52243 19.34 5.54003 19.34H6.99985C7.02882 19.3907 7.05866 19.4407 7.08937 19.4901C8.07999 21.1545 9.90774 22.28 12 22.28C14.0923 22.28 15.9201 21.1545 16.9107 19.4901C16.9432 19.4378 16.9748 19.3847 17.0054 19.331ZM15.8711 18.2505C15.8629 18.2666 15.8553 18.283 15.8483 18.2998C15.7836 18.4437 15.712 18.5777 15.634 18.7026L15.625 18.7175C14.8946 19.949 13.5446 20.78 12 20.78C10.4554 20.78 9.10551 19.949 8.3751 18.7175L8.36603 18.7026C8.288 18.5777 8.21645 18.4436 8.15174 18.2996C8.14474 18.283 8.13715 18.2666 8.12901 18.2506C7.88412 17.7395 7.75003 17.1562 7.75003 16.53C7.75003 14.1843 9.65424 12.28 12 12.28C14.3458 12.28 16.25 14.1843 16.25 16.53C16.25 17.1562 16.116 17.7394 15.8711 18.2505ZM10.3297 14.9697C10.6226 14.6768 11.0975 14.6768 11.3904 14.9697L11.915 15.4944L12.4197 14.9897C12.7126 14.6968 13.1875 14.6968 13.4804 14.9897C13.7733 15.2826 13.7733 15.7575 13.4804 16.0504L12.9757 16.5551L13.5004 17.0797C13.7933 17.3726 13.7933 17.8475 13.5004 18.1404C13.2075 18.4333 12.7326 18.4333 12.4397 18.1404L11.915 17.6157L11.3604 18.1704C11.0675 18.4633 10.5926 18.4633 10.2997 18.1704C10.0068 17.8775 10.0068 17.4026 10.2997 17.1097L10.8544 16.5551L10.3297 16.0304C10.0368 15.7375 10.0368 15.2626 10.3297 14.9697Z" fill="#424B5A"/>
</svg>
