<svg width="24" height="24" viewBox="0 0 24 24" fill="none" xmlns="http://www.w3.org/2000/svg">
<path fill-rule="evenodd" clip-rule="evenodd" d="M18.0786 8.82026C17.5837 6.57538 16.4004 5.01496 14.8757 4.11621C13.2519 3.15906 11.3137 2.99507 9.56605 3.45323C7.81836 3.91141 6.20799 5.00563 5.2568 6.63516C4.41137 8.0835 4.1194 9.89899 4.64888 11.9539C-0.0632274 13.0859 0.25307 20.3845 5.5169 20.7581C5.93008 20.7874 6.28879 20.4762 6.31811 20.0631C6.34744 19.6499 6.03626 19.2912 5.62309 19.2619C1.89822 18.9975 1.90322 13.6014 5.60254 13.3196C6.05987 13.3152 6.52164 13.4253 6.93955 13.6382C7.30863 13.8263 7.76025 13.6795 7.94827 13.3104C8.1363 12.9413 7.98952 12.4897 7.62044 12.3017C7.16895 12.0717 6.67972 11.9194 6.17767 11.8548C5.63428 10.0247 5.89083 8.52445 6.55225 7.39134C7.27762 6.14868 8.53288 5.27478 9.94644 4.9042C11.36 4.53362 12.8787 4.68025 14.114 5.40842C15.1823 6.03815 16.095 7.13577 16.5411 8.841C16.1764 8.92321 15.8227 9.05009 15.4846 9.21915C15.1141 9.40439 14.9639 9.8549 15.1492 10.2254C15.3344 10.5959 15.7849 10.746 16.1554 10.5608C16.5687 10.3542 17.0089 10.2425 17.4641 10.2305C21.0442 10.7792 22.4906 15.6365 19.7362 18.0454L19.7255 18.055C18.8732 18.8299 17.7647 19.2586 16.6156 19.25C16.2014 19.2469 15.8631 19.5802 15.86 19.9944C15.8569 20.4086 16.1902 20.7469 16.6044 20.7499C18.1329 20.7614 19.6022 20.1919 20.7292 19.1698C24.3368 16.0068 22.6269 9.83274 18.0786 8.82026ZM8.21999 20C8.21999 19.5858 8.55578 19.25 8.96999 19.25H10.22V18C10.22 17.5858 10.5558 17.25 10.97 17.25C11.3842 17.25 11.72 17.5858 11.72 18V19.25H12.97C13.3842 19.25 13.72 19.5858 13.72 20C13.72 20.4142 13.3842 20.75 12.97 20.75H11.72V22C11.72 22.4142 11.3842 22.75 10.97 22.75C10.5558 22.75 10.22 22.4142 10.22 22V20.75H8.96999C8.55578 20.75 8.21999 20.4142 8.21999 20Z" fill="#424B5A"/>
</svg>
