<svg width="24" height="24" viewBox="0 0 24 24" fill="none" xmlns="http://www.w3.org/2000/svg">
<path fill-rule="evenodd" clip-rule="evenodd" d="M18.0786 8.82026C17.5837 6.57538 16.4004 5.01496 14.8757 4.11621C13.2519 3.15906 11.3137 2.99507 9.56605 3.45323C7.81836 3.91141 6.20799 5.00563 5.2568 6.63516C4.41137 8.0835 4.1194 9.89899 4.64888 11.9539C-0.0632274 13.0859 0.25307 20.3845 5.5169 20.7581C5.93008 20.7874 6.28879 20.4762 6.31811 20.0631C6.34744 19.6499 6.03626 19.2912 5.62309 19.2619C1.89822 18.9975 1.90322 13.6014 5.60254 13.3196C6.05987 13.3152 6.52164 13.4253 6.93955 13.6382C7.30863 13.8263 7.76025 13.6795 7.94827 13.3104C8.1363 12.9413 7.98952 12.4897 7.62044 12.3017C7.16895 12.0717 6.67972 11.9194 6.17767 11.8548C5.63428 10.0247 5.89083 8.52445 6.55225 7.39134C7.27762 6.14868 8.53288 5.27478 9.94644 4.9042C11.36 4.53362 12.8787 4.68025 14.114 5.40842C15.1823 6.03815 16.095 7.13577 16.5411 8.841C16.1764 8.92321 15.8227 9.05009 15.4846 9.21915C15.1141 9.40439 14.9639 9.8549 15.1492 10.2254C15.3344 10.5959 15.7849 10.746 16.1554 10.5608C16.5687 10.3542 17.0089 10.2425 17.4641 10.2305C21.0442 10.7792 22.4906 15.6365 19.7362 18.0454L19.7255 18.055C18.8732 18.8299 17.7647 19.2586 16.6156 19.25C16.2014 19.2469 15.8631 19.5802 15.86 19.9944C15.8569 20.4086 16.1902 20.7469 16.6044 20.7499C18.1329 20.7614 19.6022 20.1919 20.7292 19.1698C24.3368 16.0068 22.6269 9.83274 18.0786 8.82026ZM10.5003 19.4696C10.7932 19.7625 10.7932 20.2374 10.5003 20.5303L8.50032 22.5303C8.20743 22.8232 7.73256 22.8232 7.43966 22.5303C7.14677 22.2374 7.14677 21.7625 7.43966 21.4696L9.43966 19.4696C9.73256 19.1767 10.2074 19.1767 10.5003 19.4696ZM14.5003 20.5303C14.7932 20.2374 14.7932 19.7625 14.5003 19.4696C14.2074 19.1767 13.7326 19.1767 13.4397 19.4696L11.4397 21.4696C11.1468 21.7625 11.1468 22.2374 11.4397 22.5303C11.7326 22.8232 12.2074 22.8232 12.5003 22.5303L14.5003 20.5303ZM14.5003 15.4696C14.7932 15.7625 14.7932 16.2374 14.5003 16.5303L12.5003 18.5303C12.2074 18.8232 11.7326 18.8232 11.4397 18.5303C11.1468 18.2374 11.1468 17.7625 11.4397 17.4696L13.4397 15.4696C13.7326 15.1767 14.2074 15.1767 14.5003 15.4696ZM10.5003 16.5303C10.7932 16.2374 10.7932 15.7625 10.5003 15.4696C10.2074 15.1767 9.73256 15.1767 9.43966 15.4696L7.43966 17.4696C7.14677 17.7625 7.14677 18.2374 7.43966 18.5303C7.73256 18.8232 8.20743 18.8232 8.50032 18.5303L10.5003 16.5303Z" fill="#424B5A"/>
</svg>
