<svg width="24" height="24" viewBox="0 0 24 24" fill="none" xmlns="http://www.w3.org/2000/svg">
<path fill-rule="evenodd" clip-rule="evenodd" d="M7.55253 6.16992C6.18381 7.38329 5.39188 9.33145 6.14747 11.8917C6.65 11.9601 7.13903 12.1109 7.59542 12.3391C7.9659 12.5244 8.11607 12.9749 7.93083 13.3454C7.74559 13.7158 7.29508 13.866 6.9246 13.6808C6.50635 13.4716 6.04867 13.3589 5.58315 13.3499H5.56842C1.8611 13.6443 1.84996 19.0342 5.56847 19.3299H16.6356C17.7965 19.3385 18.9129 18.9087 19.7625 18.1278L19.7742 18.1172C20.9842 17.0511 21.3945 15.5325 21.1596 14.0796C21.0935 13.6707 21.3714 13.2857 21.7803 13.2196C22.1892 13.1534 22.5743 13.4313 22.6404 13.8402C22.9451 15.7251 22.4171 17.7838 20.7718 19.2374C19.6428 20.2725 18.1628 20.8406 16.6274 20.8299H5.54001C5.52184 20.8299 5.50367 20.8293 5.48555 20.828C0.203144 20.4434 -0.112598 13.1263 4.61774 11.9852C3.86279 9.03172 4.80504 6.60102 6.55749 5.04747C8.43511 3.38296 11.2051 2.76247 13.6097 3.53597C14.004 3.66282 14.2208 4.0853 14.094 4.47961C13.9671 4.87393 13.5447 5.09075 13.1503 4.96391C11.2649 4.35741 9.04491 4.84693 7.55253 6.16992ZM16.5261 6.57443C16.551 6.54994 16.574 6.52389 16.595 6.4965C17.0825 6.03177 17.746 5.74994 18.47 5.74994C19.9858 5.74994 21.22 6.98416 21.22 8.49994C21.22 9.36375 20.8204 10.1395 20.185 10.6415L20.185 10.6414L20.1767 10.6482C19.7176 11.0217 19.1139 11.2499 18.47 11.2499C16.9542 11.2499 15.72 10.0157 15.72 8.49994C15.72 7.74783 16.0243 7.06839 16.5261 6.57443ZM18.47 4.24994C17.3044 4.24994 16.2332 4.72392 15.4655 5.5038C15.4418 5.52789 15.4199 5.5534 15.3999 5.58015C14.6656 6.33971 14.22 7.36955 14.22 8.49994C14.22 10.8442 16.1258 12.7499 18.47 12.7499C19.4642 12.7499 20.3989 12.3995 21.1192 11.8151C22.1014 11.037 22.72 9.83424 22.72 8.49994C22.72 6.15573 20.8142 4.24994 18.47 4.24994Z" fill="#424B5A"/>
</svg>
