<svg width="24" height="24" viewBox="0 0 24 24" fill="none" xmlns="http://www.w3.org/2000/svg">
<path fill-rule="evenodd" clip-rule="evenodd" d="M6.25 2.25C6.25 1.83579 5.91421 1.5 5.5 1.5C5.08579 1.5 4.75 1.83579 4.75 2.25V4C4.75 4.41421 5.08579 4.75 5.5 4.75C5.91421 4.75 6.25 4.41421 6.25 4V2.25ZM2.75 10.47C2.75 8.55537 4.30305 7.01 6.21 7.01H13.58C15.4858 7.01 17.04 8.56421 17.04 10.47V11.25H2.75V10.47ZM1.25 12V17.79C1.25 20.5242 3.47579 22.75 6.21 22.75H13.58C16.2213 22.75 18.39 20.6815 18.5325 18.0645C20.916 17.7049 22.75 15.6419 22.75 13.16C22.75 10.4823 20.6315 8.30951 17.9912 8.20401C17.1665 6.60573 15.4984 5.51 13.58 5.51H6.21C3.47695 5.51 1.25 7.72463 1.25 10.47V12ZM2.75 12.75H17.04V17.37V17.79C17.04 19.7046 15.4869 21.25 13.58 21.25H6.21C4.30421 21.25 2.75 19.6958 2.75 17.79V12.75ZM18.54 16.5379V10.47V9.7816C20.088 10.124 21.25 11.5038 21.25 13.16C21.25 14.8084 20.0873 16.1938 18.54 16.5379ZM9.5 1.5C9.91421 1.5 10.25 1.83579 10.25 2.25V4C10.25 4.41421 9.91421 4.75 9.5 4.75C9.08579 4.75 8.75 4.41421 8.75 4V2.25C8.75 1.83579 9.08579 1.5 9.5 1.5ZM14.25 2.25C14.25 1.83579 13.9142 1.5 13.5 1.5C13.0858 1.5 12.75 1.83579 12.75 2.25V4C12.75 4.41421 13.0858 4.75 13.5 4.75C13.9142 4.75 14.25 4.41421 14.25 4V2.25Z" fill="#424B5A"/>
</svg>
