<svg width="24" height="24" viewBox="0 0 24 24" fill="none" xmlns="http://www.w3.org/2000/svg">
<path fill-rule="evenodd" clip-rule="evenodd" d="M9.99 2.75C5.99146 2.75 2.75 5.99146 2.75 9.99C2.75 13.9885 5.99146 17.23 9.99 17.23C13.9885 17.23 17.23 13.9885 17.23 9.99C17.23 5.99146 13.9885 2.75 9.99 2.75ZM1.25 9.99C1.25 5.16303 5.16303 1.25 9.99 1.25C14.817 1.25 18.73 5.16303 18.73 9.99C18.73 14.817 14.817 18.73 9.99 18.73C5.16303 18.73 1.25 14.817 1.25 9.99ZM10.75 6.41C10.75 5.99579 10.4142 5.66 10 5.66C9.58579 5.66 9.25 5.99579 9.25 6.41V6.45H9.16C8.06939 6.45 7.25 7.37315 7.25 8.42C7.25 8.89386 7.355 9.32438 7.63113 9.67447C7.89956 10.0148 8.25596 10.183 8.54961 10.287L10.9483 11.1265C11.1263 11.1913 11.1688 11.2371 11.1806 11.2522C11.1866 11.2598 11.24 11.3276 11.24 11.58C11.24 11.8731 11.0194 12.05 10.83 12.05H9.33C9.04946 12.05 8.75 11.7919 8.75 11.4C8.75 10.9858 8.41421 10.65 8 10.65C7.58579 10.65 7.25 10.9858 7.25 11.4C7.25 12.522 8.11006 13.5044 9.25 13.5485V13.59C9.25 14.0042 9.58579 14.34 10 14.34C10.4142 14.34 10.75 14.0042 10.75 13.59V13.55H10.83C11.9206 13.55 12.74 12.6269 12.74 11.58C12.74 11.106 12.6349 10.6771 12.3621 10.3281C12.0965 9.98832 11.7443 9.81926 11.4551 9.71468L9.04919 8.87261C8.86385 8.80683 8.82018 8.75988 8.80864 8.74525C8.80322 8.73847 8.75 8.67196 8.75 8.42C8.75 8.12685 8.97061 7.95 9.16 7.95H10.6539C10.9634 7.95643 11.25 8.22287 11.25 8.6C11.25 9.01421 11.5858 9.35 12 9.35C12.4142 9.35 12.75 9.01421 12.75 8.6C12.75 7.46533 11.8803 6.51044 10.75 6.45258V6.41ZM20.3482 12.3913C20.0121 12.1493 19.5434 12.2256 19.3013 12.5618C19.0593 12.8979 19.1356 13.3666 19.4718 13.6086C20.5356 14.3746 21.23 15.6228 21.23 17.03C21.23 19.3458 19.3458 21.23 17.03 21.23C15.6053 21.23 14.3584 20.528 13.5919 19.4464C13.3524 19.1084 12.8843 19.0286 12.5463 19.2681C12.2084 19.5076 12.1286 19.9757 12.3681 20.3136C13.4016 21.772 15.0947 22.73 17.03 22.73C20.1742 22.73 22.73 20.1742 22.73 17.03C22.73 15.1172 21.7844 13.4254 20.3482 12.3913Z" fill="#424B5A"/>
</svg>
