<svg width="24" height="24" viewBox="0 0 24 24" fill="none" xmlns="http://www.w3.org/2000/svg">
<path fill-rule="evenodd" clip-rule="evenodd" d="M7.89319 4.22503C8.93174 3.3185 10.3748 2.75 12 2.75C13.624 2.75 15.0675 3.31774 16.107 4.21517C17.1375 5.12348 17.75 6.33635 17.75 7.65C17.75 8.41948 17.5394 9.1245 17.17 9.72891L17.1691 9.73038C16.2632 11.2206 14.3369 12.25 12 12.25C9.66309 12.25 7.73683 11.2206 6.83086 9.73038L6.82996 9.72891C6.4606 9.1245 6.25 8.41948 6.25 7.65C6.25 6.33483 6.86379 5.12245 7.89285 4.22533L7.89319 4.22503ZM12 1.25C10.0253 1.25 8.22857 1.94138 6.90714 3.09467L6.90679 3.09497C5.63295 4.20566 4.798 5.75519 4.752 7.49806C4.75131 7.49872 4.75062 7.49941 4.74994 7.50013L4.74998 16.3499C4.74998 19.9793 8.09786 22.7499 12 22.7499C15.9021 22.7499 19.25 19.9793 19.25 16.3499V7.66549C19.25 7.66033 19.25 7.65517 19.25 7.65C19.25 5.84473 18.4035 4.2385 17.0956 3.08706L17.0956 3.08704L17.0905 3.0826C15.7702 1.94132 13.9747 1.25 12 1.25ZM17.7616 11.4256C16.4124 12.8982 14.301 13.75 12 13.75C9.67775 13.75 7.54855 12.8824 6.20115 11.3846C6.2327 12.0024 6.24998 12.556 6.24998 12.6499C6.24998 15.2124 8.66461 17.2499 12 17.2499C15.3353 17.2499 17.75 15.2124 17.75 12.6499C17.75 12.6047 17.754 12.0542 17.7616 11.4256ZM12 21.2499C8.76292 21.2499 6.31168 19.0172 6.25113 16.4473C7.60395 17.9018 9.72507 18.7499 12 18.7499C14.2749 18.7499 16.396 17.9018 17.7488 16.4473C17.6883 19.0172 15.237 21.2499 12 21.2499Z" fill="#424B5A"/>
</svg>
