<svg width="24" height="24" viewBox="0 0 24 24" fill="none" xmlns="http://www.w3.org/2000/svg">
<path fill-rule="evenodd" clip-rule="evenodd" d="M3.06464 3.09467C4.39911 1.7602 6.396 1.25 8.96997 1.25H14.97C17.5439 1.25 19.5408 1.7602 20.8753 3.09467C22.2098 4.42914 22.72 6.42603 22.72 9V15C22.72 17.574 22.2098 19.5709 20.8753 20.9053C19.5408 22.2398 17.5439 22.75 14.97 22.75H8.96997C6.396 22.75 4.39911 22.2398 3.06464 20.9053C1.73017 19.5709 1.21997 17.574 1.21997 15V9C1.21997 6.42603 1.73017 4.42914 3.06464 3.09467ZM4.1253 4.15533C3.20977 5.07086 2.71997 6.57397 2.71997 9V15C2.71997 16.5496 2.9198 17.7226 3.30276 18.6065L18.5765 3.33279C17.6926 2.94983 16.5196 2.75 14.97 2.75H8.96997C6.54394 2.75 5.04083 3.2398 4.1253 4.15533ZM8.96997 21.25C6.57071 21.25 5.07411 20.7709 4.15582 19.8748L19.8448 4.18585C20.7409 5.10414 21.22 6.60074 21.22 9V15C21.22 17.426 20.7302 18.9291 19.8146 19.8447C18.8991 20.7602 17.396 21.25 14.97 21.25H8.96997ZM16.81 13C16.81 12.5858 16.4742 12.25 16.06 12.25C15.6458 12.25 15.31 12.5858 15.31 13V14.75H13.5C13.0858 14.75 12.75 15.0858 12.75 15.5C12.75 15.9142 13.0858 16.25 13.5 16.25H15.31V18C15.31 18.4142 15.6458 18.75 16.06 18.75C16.4742 18.75 16.81 18.4142 16.81 18V16.25H18.5C18.9142 16.25 19.25 15.9142 19.25 15.5C19.25 15.0858 18.9142 14.75 18.5 14.75H16.81V13ZM5.49997 6.75C5.08576 6.75 4.74997 7.08579 4.74997 7.5C4.74997 7.91421 5.08576 8.25 5.49997 8.25H10.5C10.9142 8.25 11.25 7.91421 11.25 7.5C11.25 7.08579 10.9142 6.75 10.5 6.75H5.49997Z" fill="#424B5A"/>
</svg>
