<svg width="24" height="24" viewBox="0 0 24 24" fill="none" xmlns="http://www.w3.org/2000/svg">
<path fill-rule="evenodd" clip-rule="evenodd" d="M14.0307 3.58139C12.9121 2.47156 11.0862 2.47453 9.98036 3.58033L3.59222 9.96845C3.59193 9.96875 3.59164 9.96905 3.59134 9.96934C2.48157 11.088 2.48456 12.9139 3.59034 14.0197L9.97846 20.4078C9.97882 20.4082 9.97917 20.4085 9.97953 20.4089C11.0982 21.5185 12.924 21.5154 14.0297 20.4097L20.4197 14.0197C21.5254 12.914 21.5285 11.0882 20.4189 9.96952C20.4185 9.96916 20.4182 9.96881 20.4178 9.96845L14.0316 3.58221C14.0313 3.58194 14.031 3.58167 14.0307 3.58139ZM8.91969 2.51967C10.6136 0.825739 13.387 0.828443 15.0884 2.51779L15.0903 2.51967L21.4822 8.91157C23.1716 10.613 23.1743 13.3864 21.4804 15.0803L15.0903 21.4703C13.3964 23.1643 10.623 23.1616 8.92159 21.4722L8.91969 21.4703L2.52968 15.0803C0.835749 13.3864 0.838452 10.613 2.5278 8.91158L2.52968 8.90968L8.91969 2.51967Z" fill="#424B5A"/>
</svg>
