<svg width="24" height="24" viewBox="0 0 24 24" fill="none" xmlns="http://www.w3.org/2000/svg">
<path fill-rule="evenodd" clip-rule="evenodd" d="M2.75 9C2.75 6.03342 4.8091 3.55437 7.57819 2.91194L7.30688 3.36413C7.09377 3.71931 7.20894 4.18001 7.56412 4.39312C7.91931 4.60623 8.38 4.49106 8.59312 4.13587L9.64312 2.38587C9.78214 2.15417 9.78578 1.86561 9.65265 1.63048C9.51952 1.39534 9.2702 1.25 9 1.25C4.71579 1.25 1.25 4.71579 1.25 9C1.25 9.41421 1.58579 9.75 2 9.75C2.41421 9.75 2.75 9.41421 2.75 9ZM22.75 15C22.75 14.5858 22.4142 14.25 22 14.25C21.5858 14.25 21.25 14.5858 21.25 15C21.25 17.9666 19.1909 20.4456 16.4218 21.0881L16.6931 20.6359C16.9062 20.2807 16.7911 19.82 16.4359 19.6069C16.0807 19.3938 15.62 19.5089 15.4069 19.8641L14.3569 21.6141C14.2179 21.8458 14.2142 22.1344 14.3474 22.3695C14.4805 22.6047 14.7298 22.75 15 22.75C19.2842 22.75 22.75 19.2842 22.75 15ZM14.1 7.75999V5.5474L16.93 7.18281V10.0178L14.7035 8.78396L14.6991 8.78156C14.5728 8.71268 14.4147 8.56071 14.2858 8.34076C14.157 8.121 14.1 7.90595 14.1 7.75999ZM20.6458 8.78436L18.43 10.0123V7.18157L21.25 5.54255V7.75999C21.25 7.90255 21.1927 8.11669 21.0616 8.33879C20.9306 8.56073 20.7704 8.71502 20.6458 8.78436ZM18.2491 2.86743L20.6133 4.17763L17.6789 5.88315L14.732 4.18018L17.0988 2.86866C17.2231 2.80269 17.4318 2.75 17.6788 2.75C17.9278 2.75 18.1321 2.80355 18.2481 2.86689L18.2491 2.86743ZM17.6788 1.25C18.1065 1.25 18.5767 1.33614 18.9709 1.55257L18.9735 1.55399L21.3716 2.88286C21.7941 3.11409 22.1301 3.49142 22.3583 3.88073C22.587 4.27096 22.75 4.74591 22.75 5.21995V7.75999C22.75 8.23743 22.5823 8.71329 22.3534 9.10118C22.1245 9.48909 21.7895 9.86488 21.3742 10.0956L18.9753 11.425L18.9742 11.4257C18.5761 11.6473 18.1031 11.7375 17.6713 11.7375C17.2412 11.7375 16.7689 11.648 16.3733 11.4242L13.9784 10.097C13.5558 9.86581 13.2198 9.48849 12.9917 9.0992C12.763 8.70897 12.6 8.23403 12.6 7.75999V5.21995C12.6 4.74251 12.7677 4.26666 12.9966 3.87876C13.2255 3.49085 13.5605 3.11506 13.9758 2.88434L16.3844 1.5496C16.7804 1.33636 17.2503 1.25 17.6788 1.25ZM2.75 16.5485V18.76C2.75 18.9059 2.80702 19.121 2.93581 19.3408C3.06472 19.5607 3.22286 19.7127 3.34914 19.7816L3.35355 19.784L5.57001 21.0123V18.1823L2.75 16.5485ZM7.07001 21.0178L9.29577 19.7844C9.42045 19.715 9.5806 19.5608 9.71159 19.3388C9.84267 19.1167 9.89999 18.9026 9.89999 18.76V16.5415L7.07001 18.1821V21.0178ZM9.26253 15.1772L6.90126 13.8687C6.77688 13.8027 6.56818 13.75 6.32125 13.75C6.07219 13.75 5.86794 13.8035 5.75196 13.8669L3.38118 15.1806L6.31988 16.8832L9.26253 15.1772ZM7.61557 12.5496C7.21955 12.3364 6.74971 12.25 6.32125 12.25C5.89354 12.25 5.42326 12.3361 5.02905 12.5526L2.62577 13.8843C2.21048 14.1151 1.87554 14.4908 1.6466 14.8788C1.41768 15.2667 1.25 15.7425 1.25 16.2199V18.76C1.25 19.234 1.41299 19.709 1.64169 20.0992C1.86984 20.4885 2.20584 20.8658 2.62838 21.097L5.02324 22.4242C5.41887 22.648 5.89115 22.7375 6.32125 22.7375C6.75313 22.7375 7.22616 22.6473 7.62419 22.4256L7.6253 22.425L10.0242 21.0956C10.4395 20.8649 10.7745 20.4891 11.0034 20.1012C11.2323 19.7133 11.4 19.2374 11.4 18.76V16.2199C11.4 15.7459 11.237 15.271 11.0083 14.8807C10.7802 14.4914 10.4441 14.1141 10.0215 13.8828L7.62355 12.5539L7.61557 12.5496Z" fill="#424B5A"/>
</svg>
