<svg width="24" height="24" viewBox="0 0 24 24" fill="none" xmlns="http://www.w3.org/2000/svg">
<path fill-rule="evenodd" clip-rule="evenodd" d="M12.005 2.77588C10.2704 2.77588 8.64756 3.2544 7.26132 4.08664L13.5581 10.3988L13.5702 7.66084C13.572 7.24663 13.9092 6.91232 14.3234 6.91414C14.7376 6.91596 15.072 7.25322 15.0701 7.66743L15.0502 12.208C15.0488 12.5109 14.8654 12.7833 14.5853 12.8984C14.3051 13.0135 13.9831 12.9488 13.7692 12.7344L6.02706 4.97328C4.03769 6.66614 2.77576 9.18824 2.77576 12.0051C2.77576 17.1022 6.90782 21.2343 12.005 21.2343C13.7394 21.2343 15.362 20.7559 16.7482 19.9238L10.4418 13.6098L10.4298 16.3394C10.428 16.7536 10.0907 17.0879 9.67651 17.0861C9.2623 17.0842 8.92799 16.747 8.92982 16.3328L8.94978 11.8022C8.95111 11.4994 9.13443 11.2271 9.4145 11.1119C9.69456 10.9967 10.0164 11.0612 10.2304 11.2755L17.9826 19.0371C19.9721 17.3443 21.2342 14.8221 21.2342 12.0051C21.2342 6.90794 17.1021 2.77588 12.005 2.77588ZM1.27576 12.0051C1.27576 6.07951 6.07939 1.27588 12.005 1.27588C17.9305 1.27588 22.7342 6.07951 22.7342 12.0051C22.7342 17.9307 17.9305 22.7343 12.005 22.7343C6.07939 22.7343 1.27576 17.9307 1.27576 12.0051Z" fill="#424B5A"/>
</svg>
