<svg width="24" height="24" viewBox="0 0 24 24" fill="none" xmlns="http://www.w3.org/2000/svg">
<path fill-rule="evenodd" clip-rule="evenodd" d="M2.75 12C2.75 6.89421 6.89421 2.75 12 2.75C17.1058 2.75 21.25 6.89421 21.25 12C21.25 17.1058 17.1058 21.25 12 21.25C6.89421 21.25 2.75 17.1058 2.75 12ZM12 1.25C6.06579 1.25 1.25 6.06579 1.25 12C1.25 17.9342 6.06579 22.75 12 22.75C17.9342 22.75 22.75 17.9342 22.75 12C22.75 6.06579 17.9342 1.25 12 1.25ZM8.98999 12C8.98999 10.2042 10.4442 8.75 12.24 8.75C13.0571 8.75 13.8044 9.05649 14.3867 9.56493C14.6987 9.83738 15.1725 9.80531 15.4449 9.49331C15.7174 9.18132 15.6853 8.70753 15.3733 8.43507C14.5356 7.70351 13.4429 7.25 12.24 7.25C9.61578 7.25 7.48999 9.37579 7.48999 12C7.48999 14.6242 9.61578 16.75 12.24 16.75C13.4429 16.75 14.5356 16.2965 15.3733 15.5649C15.6853 15.2925 15.7174 14.8187 15.4449 14.5067C15.1725 14.1947 14.6987 14.1626 14.3867 14.4351C13.8044 14.9435 13.0571 15.25 12.24 15.25C10.4442 15.25 8.98999 13.7958 8.98999 12Z" fill="#424B5A"/>
</svg>
