<svg width="24" height="24" viewBox="0 0 24 24" fill="none" xmlns="http://www.w3.org/2000/svg">
<path fill-rule="evenodd" clip-rule="evenodd" d="M8.76 2C8.76 1.58579 8.42421 1.25 8.01 1.25C7.59579 1.25 7.26 1.58579 7.26 2V3.47951C6.25923 3.70719 5.42165 4.11769 4.76967 4.76967C4.11986 5.41948 3.70993 6.25365 3.48179 7.25H2C1.58579 7.25 1.25 7.58579 1.25 8C1.25 8.41421 1.58579 8.75 2 8.75H3.27518C3.25813 9.02467 3.25 9.3081 3.25 9.6V11.25H2C1.58579 11.25 1.25 11.5858 1.25 12C1.25 12.4142 1.58579 12.75 2 12.75H3.25V14.4C3.25 14.6919 3.25813 14.9753 3.27518 15.25H2C1.58579 15.25 1.25 15.5858 1.25 16C1.25 16.4142 1.58579 16.75 2 16.75H3.48179C3.70993 17.7464 4.11986 18.5805 4.76967 19.2303C5.42165 19.8823 6.25923 20.2928 7.26 20.5205V22C7.26 22.4142 7.59579 22.75 8.01 22.75C8.42421 22.75 8.76 22.4142 8.76 22V20.7254C9.03155 20.7421 9.31165 20.75 9.6 20.75H11.26V22C11.26 22.4142 11.5958 22.75 12.01 22.75C12.4242 22.75 12.76 22.4142 12.76 22V20.75H14.4C14.6919 20.75 14.9753 20.7419 15.25 20.7248V22C15.25 22.4142 15.5858 22.75 16 22.75C16.4142 22.75 16.75 22.4142 16.75 22V20.5182C17.7464 20.2901 18.5805 19.8801 19.2303 19.2303C19.8801 18.5805 20.2901 17.7464 20.5182 16.75H22C22.4142 16.75 22.75 16.4142 22.75 16C22.75 15.5858 22.4142 15.25 22 15.25H20.7248C20.7419 14.9753 20.75 14.6919 20.75 14.4V12.75H22C22.4142 12.75 22.75 12.4142 22.75 12C22.75 11.5858 22.4142 11.25 22 11.25H20.75V9.6C20.75 9.3081 20.7419 9.02467 20.7248 8.75H22C22.4142 8.75 22.75 8.41421 22.75 8C22.75 7.58579 22.4142 7.25 22 7.25H20.5182C20.2901 6.25365 19.8801 5.41948 19.2303 4.76967C18.5805 4.11986 17.7464 3.70993 16.75 3.48179V2C16.75 1.58579 16.4142 1.25 16 1.25C15.5858 1.25 15.25 1.58579 15.25 2V3.27518C14.9753 3.25813 14.6919 3.25 14.4 3.25H12.75V2C12.75 1.58579 12.4142 1.25 12 1.25C11.5858 1.25 11.25 1.58579 11.25 2V3.25H9.6C9.31165 3.25 9.03155 3.25793 8.76 3.27457V2ZM4.75 12V14.4C4.75 16.326 5.1398 17.4791 5.83033 18.1697C6.52086 18.8602 7.67397 19.25 9.6 19.25H12.01H14.4C16.326 19.25 17.4791 18.8602 18.1697 18.1697C18.8602 17.4791 19.25 16.326 19.25 14.4V12V9.6C19.25 7.67397 18.8602 6.52086 18.1697 5.83033C17.4791 5.1398 16.326 4.75 14.4 4.75H12H9.6C7.67397 4.75 6.52086 5.1398 5.83033 5.83033C5.1398 6.52086 4.75 7.67397 4.75 9.6V12ZM7.28217 7.28217C8.05414 6.5102 9.17603 6.25 10.5 6.25H13.5C14.824 6.25 15.9459 6.5102 16.7178 7.28217C17.4898 8.05414 17.75 9.17603 17.75 10.5V13.5C17.75 14.824 17.4898 15.9459 16.7178 16.7178C15.9459 17.4898 14.824 17.75 13.5 17.75H10.5C9.17603 17.75 8.05414 17.4898 7.28217 16.7178C6.5102 15.9459 6.25 14.824 6.25 13.5V10.5C6.25 9.17603 6.5102 8.05414 7.28217 7.28217ZM8.34283 8.34283C7.9898 8.69586 7.75 9.32397 7.75 10.5V13.5C7.75 14.676 7.9898 15.3041 8.34283 15.6572C8.69586 16.0102 9.32397 16.25 10.5 16.25H13.5C14.676 16.25 15.3041 16.0102 15.6572 15.6572C16.0102 15.3041 16.25 14.676 16.25 13.5V10.5C16.25 9.32397 16.0102 8.69586 15.6572 8.34283C15.3041 7.9898 14.676 7.75 13.5 7.75H10.5C9.32397 7.75 8.69586 7.9898 8.34283 8.34283ZM12.6507 10.073C12.8567 9.71359 12.7323 9.25529 12.373 9.04931C12.0136 8.84333 11.5553 8.96767 11.3493 9.32704L10.4105 10.965C10.2245 11.2855 10.1164 11.7474 10.363 12.1778C10.6108 12.6104 11.067 12.75 11.44 12.75H12.024L11.3493 13.927C11.1433 14.2864 11.2677 14.7447 11.627 14.9507C11.9864 15.1567 12.4447 15.0323 12.6507 14.673L13.5895 13.035C13.7755 12.7145 13.8836 12.2526 13.637 11.8222C13.3892 11.3896 12.933 11.25 12.56 11.25H11.976L12.6507 10.073Z" fill="#424B5A"/>
</svg>
