<svg width="24" height="24" viewBox="0 0 24 24" fill="none" xmlns="http://www.w3.org/2000/svg">
<path fill-rule="evenodd" clip-rule="evenodd" d="M8.01 1.25C8.42421 1.25 8.76 1.58579 8.76 2V3.27457C9.03155 3.25793 9.31165 3.25 9.6 3.25H11.25V2C11.25 1.58579 11.5858 1.25 12 1.25C12.4142 1.25 12.75 1.58579 12.75 2V3.25H14.4C14.6919 3.25 14.9753 3.25813 15.25 3.27518V2C15.25 1.58579 15.5858 1.25 16 1.25C16.4142 1.25 16.75 1.58579 16.75 2V3.48179C17.7464 3.70993 18.5805 4.11986 19.2303 4.76967C19.8801 5.41948 20.2901 6.25365 20.5182 7.25H22C22.4142 7.25 22.75 7.58579 22.75 8C22.75 8.41421 22.4142 8.75 22 8.75H20.7248C20.7419 9.02467 20.75 9.3081 20.75 9.6C20.75 10.0142 20.4142 10.35 20 10.35C19.5858 10.35 19.25 10.0142 19.25 9.6C19.25 7.67397 18.8602 6.52086 18.1697 5.83033C17.4791 5.1398 16.326 4.75 14.4 4.75H12H9.6C7.67397 4.75 6.52086 5.1398 5.83033 5.83033C5.1398 6.52086 4.75 7.67397 4.75 9.6V12V14.4C4.75 16.326 5.1398 17.4791 5.83033 18.1697C6.52086 18.8602 7.67397 19.25 9.6 19.25C10.0142 19.25 10.35 19.5858 10.35 20C10.35 20.4142 10.0142 20.75 9.6 20.75C9.31165 20.75 9.03155 20.7421 8.76 20.7254V22C8.76 22.4142 8.42421 22.75 8.01 22.75C7.59579 22.75 7.26 22.4142 7.26 22V20.5205C6.25923 20.2928 5.42165 19.8823 4.76967 19.2303C4.11986 18.5805 3.70993 17.7464 3.48179 16.75H2C1.58579 16.75 1.25 16.4142 1.25 16C1.25 15.5858 1.58579 15.25 2 15.25H3.27518C3.25813 14.9753 3.25 14.6919 3.25 14.4V12.75H2C1.58579 12.75 1.25 12.4142 1.25 12C1.25 11.5858 1.58579 11.25 2 11.25H3.25V9.6C3.25 9.3081 3.25813 9.02467 3.27518 8.75H2C1.58579 8.75 1.25 8.41421 1.25 8C1.25 7.58579 1.58579 7.25 2 7.25H3.48179C3.70993 6.25365 4.11986 5.41948 4.76967 4.76967C5.42165 4.11769 6.25923 3.70719 7.26 3.47951V2C7.26 1.58579 7.59579 1.25 8.01 1.25ZM10.5 6.25C9.17603 6.25 8.05414 6.5102 7.28217 7.28217C6.5102 8.05414 6.25 9.17603 6.25 10.5V13.5C6.25 14.9599 6.56354 16.1721 7.52252 16.9365C7.84642 17.1947 8.3183 17.1414 8.57648 16.8175C8.83466 16.4936 8.78139 16.0217 8.45748 15.7635C8.03646 15.4279 7.75 14.8001 7.75 13.5V10.5C7.75 9.32397 7.9898 8.69586 8.34283 8.34283C8.69586 7.9898 9.32397 7.75 10.5 7.75H13.5C14.7999 7.75 15.4247 8.03629 15.7603 8.46337C16.0162 8.78907 16.4877 8.84565 16.8134 8.58974C17.1391 8.33383 17.1956 7.86234 16.9397 7.53663C16.1753 6.56371 14.9601 6.25 13.5 6.25H10.5ZM16.71 16.16C16.2461 16.16 15.87 16.5361 15.87 17C15.87 17.4639 16.2461 17.84 16.71 17.84C17.1739 17.84 17.55 17.4639 17.55 17C17.55 16.5361 17.1739 16.16 16.71 16.16ZM14.37 17C14.37 15.7077 15.4177 14.66 16.71 14.66C18.0023 14.66 19.05 15.7077 19.05 17C19.05 18.2923 18.0023 19.34 16.71 19.34C15.4177 19.34 14.37 18.2923 14.37 17ZM14.9436 12.7645C14.9909 12.7363 15.0773 12.7425 15.1255 12.8236L15.184 12.9211C15.5039 13.471 16.0261 13.9125 16.7 13.9125C17.3739 13.9125 17.8961 13.471 18.216 12.9211L18.2731 12.8259L18.2745 12.8236C18.3147 12.756 18.4013 12.7342 18.4664 12.7703L19.3723 13.2979C19.5053 13.3756 19.5371 13.5308 19.4722 13.6421L19.4708 13.6445C19.1507 14.198 19.0277 14.8741 19.3649 15.4603C19.7025 16.047 20.3495 16.28 20.99 16.28C21.1258 16.28 21.24 16.3942 21.24 16.53V17.46C21.24 17.5958 21.1258 17.71 20.99 17.71C20.3495 17.71 19.7025 17.943 19.3649 18.5297C19.0277 19.1159 19.1507 19.792 19.4708 20.3455L19.4722 20.3479C19.5413 20.4664 19.497 20.6217 19.3823 20.6862L18.4625 21.2219L18.4564 21.2255C18.4091 21.2537 18.3227 21.2475 18.2745 21.1664L18.216 21.0689C17.8962 20.519 17.3739 20.0775 16.7 20.0775C16.0261 20.0775 15.5039 20.519 15.184 21.0689L15.1269 21.1641L15.1255 21.1664C15.0853 21.234 14.9987 21.2558 14.9336 21.2197L14.0276 20.692C13.8947 20.6142 13.8629 20.4592 13.9278 20.3479L13.9292 20.3455C14.2493 19.792 14.3723 19.1159 14.0351 18.5297C13.6975 17.943 13.0505 17.7099 12.41 17.7099L12.3964 17.7101C12.2788 17.7123 12.16 17.6135 12.16 17.46V16.53C12.16 16.3942 12.2742 16.28 12.41 16.28C13.0505 16.28 13.6975 16.047 14.0351 15.4603C14.3723 14.8741 14.2493 14.1979 13.9293 13.6445L13.9278 13.6421C13.8587 13.5236 13.903 13.3683 14.0177 13.3038L14.9375 12.7681L14.9436 12.7645ZM14.1799 11.4734C14.9716 11.0048 15.9623 11.2983 16.4137 12.0551L16.4145 12.0564L16.4792 12.1645C16.5875 12.3517 16.6712 12.3992 16.7 12.4103C16.7288 12.3992 16.8125 12.3517 16.9208 12.1645L16.9269 12.1541L16.9855 12.0564L16.9863 12.0551C17.446 11.2842 18.4378 11.0264 19.2121 11.4688L19.2175 11.4719L20.1279 12.0022C20.9542 12.4842 21.2625 13.5479 20.7687 14.3963C20.6598 14.585 20.6618 14.6814 20.6668 14.7112C20.6902 14.7305 20.7727 14.78 20.99 14.78C21.9542 14.78 22.74 15.5658 22.74 16.53V17.46C22.74 18.4242 21.9542 19.21 20.99 19.21C20.7727 19.21 20.6902 19.2595 20.6668 19.2788C20.6618 19.3086 20.6598 19.405 20.7687 19.5936C21.2573 20.4331 20.9637 21.5137 20.1233 21.9905L19.22 22.5166C18.4284 22.9852 17.4377 22.6917 16.9863 21.9349L16.9855 21.9336L16.9208 21.8255C16.8125 21.6383 16.7288 21.5908 16.7 21.5797C16.6712 21.5908 16.5875 21.6383 16.4792 21.8255L16.4731 21.8359L16.4145 21.9336L16.4137 21.9349C15.9539 22.7058 14.9622 22.9636 14.1879 22.5212L14.1825 22.5181L13.2721 21.9878C12.4457 21.5058 12.1375 20.442 12.6313 19.5936C12.7402 19.405 12.7382 19.3086 12.7332 19.2788C12.71 19.2597 12.6287 19.2108 12.4152 19.21C11.4368 19.2231 10.66 18.4237 10.66 17.46V16.53C10.66 15.5658 11.4458 14.78 12.41 14.78C12.6273 14.78 12.7098 14.7305 12.7332 14.7112C12.7382 14.6814 12.7402 14.585 12.6313 14.3964C12.1427 13.5569 12.4362 12.4763 13.2767 11.9995L14.1799 11.4734Z" fill="#424B5A"/>
</svg>
