<svg width="24" height="24" viewBox="0 0 24 24" fill="none" xmlns="http://www.w3.org/2000/svg">
<path fill-rule="evenodd" clip-rule="evenodd" d="M8.01 1.25C8.42421 1.25 8.76 1.58579 8.76 2V3.27457C9.03155 3.25793 9.31165 3.25 9.6 3.25H11.25V2C11.25 1.58579 11.5858 1.25 12 1.25C12.4142 1.25 12.75 1.58579 12.75 2V3.25H14.4C14.6919 3.25 14.9753 3.25813 15.25 3.27518V2C15.25 1.58579 15.5858 1.25 16 1.25C16.4142 1.25 16.75 1.58579 16.75 2V3.48179C17.7464 3.70993 18.5805 4.11986 19.2303 4.76967C19.8801 5.41948 20.2901 6.25365 20.5182 7.25H22C22.4142 7.25 22.75 7.58579 22.75 8C22.75 8.41421 22.4142 8.75 22 8.75H20.7248C20.7419 9.02467 20.75 9.3081 20.75 9.6V11.25H22C22.4142 11.25 22.75 11.5858 22.75 12C22.75 12.4142 22.4142 12.75 22 12.75H20.75V14.4C20.75 14.6919 20.7419 14.9753 20.7248 15.25H22C22.4142 15.25 22.75 15.5858 22.75 16C22.75 16.4142 22.4142 16.75 22 16.75H20.5182C20.2901 17.7464 19.8801 18.5805 19.2303 19.2303C18.5805 19.8801 17.7464 20.2901 16.75 20.5182V22C16.75 22.4142 16.4142 22.75 16 22.75C15.5858 22.75 15.25 22.4142 15.25 22V20.7248C14.9753 20.7419 14.6919 20.75 14.4 20.75H12.76V22C12.76 22.4142 12.4242 22.75 12.01 22.75C11.5958 22.75 11.26 22.4142 11.26 22V20.75H9.6C9.31165 20.75 9.03155 20.7421 8.76 20.7254V22C8.76 22.4142 8.42421 22.75 8.01 22.75C7.59579 22.75 7.26 22.4142 7.26 22V20.5205C6.25923 20.2928 5.42165 19.8823 4.76967 19.2303C4.11986 18.5805 3.70993 17.7464 3.48179 16.75H2C1.58579 16.75 1.25 16.4142 1.25 16C1.25 15.5858 1.58579 15.25 2 15.25H3.27518C3.25813 14.9753 3.25 14.6919 3.25 14.4V12.75H2C1.58579 12.75 1.25 12.4142 1.25 12C1.25 11.5858 1.58579 11.25 2 11.25H3.25V9.6C3.25 9.3081 3.25813 9.02467 3.27518 8.75H2C1.58579 8.75 1.25 8.41421 1.25 8C1.25 7.58579 1.58579 7.25 2 7.25H3.48179C3.70993 6.25365 4.11986 5.41948 4.76967 4.76967C5.42165 4.11769 6.25923 3.70719 7.26 3.47951V2C7.26 1.58579 7.59579 1.25 8.01 1.25ZM4.75 14.4V12V9.6C4.75 7.67397 5.1398 6.52086 5.83033 5.83033C6.52086 5.1398 7.67397 4.75 9.6 4.75H12H14.4C16.326 4.75 17.4791 5.1398 18.1697 5.83033C18.8602 6.52086 19.25 7.67397 19.25 9.6V12V14.4C19.25 16.326 18.8602 17.4791 18.1697 18.1697C17.4791 18.8602 16.326 19.25 14.4 19.25H12.01H9.6C7.67397 19.25 6.52086 18.8602 5.83033 18.1697C5.1398 17.4791 4.75 16.326 4.75 14.4ZM10.5 6.25C9.17603 6.25 8.05414 6.5102 7.28217 7.28217C6.5102 8.05414 6.25 9.17603 6.25 10.5V13.5C6.25 14.824 6.5102 15.9459 7.28217 16.7178C8.05414 17.4898 9.17603 17.75 10.5 17.75H13.5C14.824 17.75 15.9459 17.4898 16.7178 16.7178C17.4898 15.9459 17.75 14.824 17.75 13.5V10.5C17.75 9.17603 17.4898 8.05414 16.7178 7.28217C15.9459 6.5102 14.824 6.25 13.5 6.25H10.5ZM7.75 10.5C7.75 9.32397 7.9898 8.69586 8.34283 8.34283C8.69586 7.9898 9.32397 7.75 10.5 7.75H13.5C14.676 7.75 15.3041 7.9898 15.6572 8.34283C16.0102 8.69586 16.25 9.32397 16.25 10.5V13.5C16.25 14.676 16.0102 15.3041 15.6572 15.6572C15.3041 16.0102 14.676 16.25 13.5 16.25H10.5C9.32397 16.25 8.69586 16.0102 8.34283 15.6572C7.9898 15.3041 7.75 14.676 7.75 13.5V10.5Z" fill="#424B5A"/>
</svg>
