<svg width="24" height="24" viewBox="0 0 24 24" fill="none" xmlns="http://www.w3.org/2000/svg">
<path fill-rule="evenodd" clip-rule="evenodd" d="M12 2.75C6.89421 2.75 2.75 6.89421 2.75 12C2.75 17.1058 6.89421 21.25 12 21.25C17.1058 21.25 21.25 17.1058 21.25 12C21.25 6.89421 17.1058 2.75 12 2.75ZM1.25 12C1.25 6.06579 6.06579 1.25 12 1.25C17.9342 1.25 22.75 6.06579 22.75 12C22.75 17.9342 17.9342 22.75 12 22.75C6.06579 22.75 1.25 17.9342 1.25 12ZM8.98999 9.88C7.8142 9.88 6.87 10.8242 6.87 12C6.87 13.1741 7.8225 14.12 8.98999 14.12C9.51161 14.12 10.0016 13.9173 10.3901 13.5822C10.7037 13.3116 11.1773 13.3465 11.4479 13.6601C11.7185 13.9737 11.6836 14.4473 11.3699 14.7179C10.7384 15.2627 9.90837 15.62 8.98999 15.62C6.99748 15.62 5.37 14.0059 5.37 12C5.37 9.99579 6.98578 8.38 8.98999 8.38C9.90942 8.38 10.7471 8.72136 11.3817 9.29251C11.6896 9.5696 11.7146 10.0438 11.4375 10.3517C11.1604 10.6596 10.6862 10.6845 10.3783 10.4074C10.0129 10.0786 9.53056 9.88 8.98999 9.88ZM13.87 12C13.87 10.8242 14.8142 9.88 15.99 9.88C16.5306 9.88 17.0129 10.0786 17.3783 10.4074C17.6862 10.6845 18.1604 10.6596 18.4375 10.3517C18.7146 10.0438 18.6896 9.5696 18.3817 9.29251C17.7471 8.72136 16.9094 8.38 15.99 8.38C13.9858 8.38 12.37 9.99579 12.37 12C12.37 14.0059 13.9975 15.62 15.99 15.62C16.9084 15.62 17.7384 15.2627 18.3699 14.7179C18.6836 14.4473 18.7185 13.9737 18.4479 13.6601C18.1773 13.3465 17.7037 13.3116 17.3901 13.5822C17.0016 13.9173 16.5116 14.12 15.99 14.12C14.8225 14.12 13.87 13.1741 13.87 12Z" fill="#424B5A"/>
</svg>
