<svg width="24" height="24" viewBox="0 0 24 24" fill="none" xmlns="http://www.w3.org/2000/svg">
<path fill-rule="evenodd" clip-rule="evenodd" d="M11.8203 4.53035C11.8202 4.53043 11.8204 4.53027 11.8203 4.53035L8.2437 8.11698C7.5652 8.80938 6.44754 8.79822 5.76967 8.12035L3.17967 5.53035C3.01863 5.36931 2.89231 5.28383 2.80883 5.24222C2.77904 5.33098 2.75 5.48134 2.75 5.71002V15.29C2.75 17.6349 4.6536 19.5408 7.00145 19.55H17C18.3296 19.55 19.3793 19.1101 20.0947 18.3947C20.8101 17.6793 21.25 16.6296 21.25 15.3V5.71002C21.25 5.48134 21.221 5.33099 21.1912 5.24222C21.1077 5.28384 20.9814 5.36931 20.8203 5.53035L18.2333 8.11742C17.5547 8.80938 16.4374 8.79808 15.7597 8.12035L12.1628 4.52346C12.081 4.43953 11.9213 4.42964 11.8203 4.53035ZM21.2765 5.21009C21.2765 5.21011 21.276 5.21021 21.275 5.21028L21.2765 5.21009ZM21.1544 5.16035C21.1537 5.1596 21.1534 5.15919 21.1535 5.15916L21.1544 5.16035ZM2.84655 5.15916C2.84656 5.15918 2.84627 5.15958 2.84567 5.16029L2.84655 5.15916ZM2.72483 5.21026C2.72395 5.21018 2.72349 5.21011 2.72349 5.21009L2.72483 5.21026ZM13.2333 3.47268C12.5548 2.78066 11.4374 2.79195 10.7597 3.46969L7.17893 7.06043L7.17283 7.06662C7.09098 7.15062 6.9313 7.16066 6.83033 7.05969L4.24033 4.46969C3.73189 3.96125 2.97981 3.49342 2.21483 3.81113C1.45061 4.12853 1.25 4.99085 1.25 5.71002V15.29C1.25 18.4648 3.82572 21.0385 6.99728 21.05L7 21.05H17C18.6704 21.05 20.1207 20.4899 21.1553 19.4553C22.1899 18.4208 22.75 16.9705 22.75 15.3V5.71002C22.75 4.99085 22.5494 4.12853 21.7852 3.81113C21.0202 3.49342 20.2681 3.96125 19.7597 4.46969L17.1697 7.05969L17.1628 7.06662C17.081 7.15062 16.9213 7.16066 16.8203 7.05969L13.2333 3.47268Z" fill="#424B5A"/>
</svg>
