<svg width="24" height="24" viewBox="0 0 24 24" fill="none" xmlns="http://www.w3.org/2000/svg">
<path fill-rule="evenodd" clip-rule="evenodd" d="M12.005 2.77904C11.9202 2.87074 11.8013 3.05413 11.6826 3.37218L11.6821 3.37337L9.92023 8.06846C9.70865 8.62009 9.29336 9.0456 8.74385 9.21433C8.19434 9.38305 7.61094 9.26428 7.12305 8.92651L7.11353 8.91992L3.2124 6.129C2.99027 5.96944 2.81233 5.87011 2.67894 5.8122C2.69755 5.95734 2.74387 6.15752 2.83639 6.41797L6.97786 18.0021C6.98563 18.0243 7.02338 18.0892 7.11279 18.1524C7.20235 18.2157 7.27672 18.2299 7.29995 18.2299H16.7C16.7236 18.2299 16.8005 18.2153 16.8958 18.1497C16.9848 18.0884 17.0278 18.0252 17.0401 17.9996L21.0729 6.70984L21.0733 6.70846C21.2019 6.34458 21.2507 6.08205 21.2577 5.91116C21.0966 5.96547 20.8595 6.08502 20.5474 6.30911L20.5454 6.3105L16.8813 8.9234C16.396 9.26463 15.8128 9.38329 15.264 9.21407C14.716 9.04512 14.3011 8.61972 14.0897 8.06846L14.0878 8.06338L12.3278 3.37337L12.3273 3.37218C12.2086 3.05413 12.0898 2.87074 12.005 2.77904ZM13.7323 2.84668C13.5718 2.41704 13.3652 2.03855 13.1009 1.75486C12.8339 1.46829 12.4623 1.23486 12.005 1.23486C11.5476 1.23486 11.176 1.46829 10.909 1.75486C10.6447 2.03855 10.4381 2.41705 10.2776 2.8467L8.5189 7.53335C8.45054 7.71007 8.35634 7.76419 8.30356 7.7804C8.251 7.79654 8.14081 7.8053 7.98087 7.69598L4.0875 4.91072C3.6944 4.62842 3.30213 4.41447 2.92802 4.3123C2.5623 4.21241 2.0861 4.18949 1.68577 4.49019C1.28522 4.79106 1.17454 5.25519 1.16894 5.63539C1.16322 6.02428 1.26004 6.46179 1.42326 6.92104L1.42373 6.92235L5.56206 18.4976L5.56301 18.5003C5.69557 18.8769 5.96222 19.176 6.24712 19.3774C6.53256 19.5791 6.90319 19.7299 7.29995 19.7299H16.7C17.0963 19.7299 17.4644 19.5794 17.7466 19.385C18.0285 19.1909 18.296 18.9039 18.4376 18.5452C18.4406 18.5376 18.4435 18.5299 18.4462 18.5222L22.4862 7.21216L22.4871 7.20989C22.6628 6.71284 22.765 6.24356 22.7583 5.82979C22.7518 5.4248 22.6338 4.94408 22.2223 4.6329C21.8099 4.32099 21.3146 4.33966 20.9229 4.44581C20.5237 4.55397 20.1017 4.78264 19.6736 5.08983L19.6726 5.09062L16.0186 7.69634L16.0168 7.69755C15.8631 7.80504 15.7569 7.79638 15.7059 7.78066C15.6541 7.76467 15.5595 7.71044 15.491 7.53341L13.7323 2.84668ZM5.74995 21.9999C5.74995 21.5856 6.08574 21.2499 6.49995 21.2499H17.5C17.9142 21.2499 18.25 21.5856 18.25 21.9999C18.25 22.4141 17.9142 22.7499 17.5 22.7499H6.49995C6.08574 22.7499 5.74995 22.4141 5.74995 21.9999ZM9.49995 13.2499C9.08574 13.2499 8.74995 13.5857 8.74995 13.9999C8.74995 14.4141 9.08574 14.7499 9.49995 14.7499H14.5C14.9142 14.7499 15.25 14.4141 15.25 13.9999C15.25 13.5857 14.9142 13.2499 14.5 13.2499H9.49995Z" fill="#424B5A"/>
</svg>
