<svg width="24" height="24" viewBox="0 0 24 24" fill="none" xmlns="http://www.w3.org/2000/svg">
<path fill-rule="evenodd" clip-rule="evenodd" d="M5.75004 6C5.75004 4.20421 7.20425 2.75 9.00004 2.75H15C16.7958 2.75 18.25 4.20421 18.25 6V9C18.25 12.4558 15.4558 15.25 12 15.25C8.54425 15.25 5.75004 12.4558 5.75004 9V6ZM9.00004 1.25C7.25148 1.25 5.7242 2.19381 4.89965 3.6H4.54004C2.72583 3.6 1.29004 5.03579 1.29004 6.85C1.29004 8.48158 1.99355 9.85281 2.98257 10.9517C2.99136 10.9615 3.00041 10.971 3.00971 10.9803C3.53961 11.5102 4.20459 11.9751 4.96958 12.2687C6.12138 14.7452 8.54253 16.509 11.4 16.7272V18.25H9.15004C7.63583 18.25 6.40004 19.4858 6.40004 21V21.25H6.15004C5.73583 21.25 5.40004 21.5858 5.40004 22C5.40004 22.4142 5.73583 22.75 6.15004 22.75H6.40004H17.9H18.15C18.5643 22.75 18.9 22.4142 18.9 22C18.9 21.5858 18.5643 21.25 18.15 21.25H17.9V21C17.9 19.4858 16.6643 18.25 15.15 18.25H12.9V16.6984C15.6264 16.384 17.9192 14.658 19.0305 12.2687C19.7955 11.9751 20.4605 11.5102 20.9904 10.9803C20.9997 10.971 21.0087 10.9615 21.0175 10.9517C22.0065 9.85281 22.71 8.48158 22.71 6.85C22.71 5.03579 21.2743 3.6 19.46 3.6H19.1004C18.2759 2.19381 16.7486 1.25 15 1.25H9.00004ZM16.4 21.25H7.90004V21C7.90004 20.3142 8.46425 19.75 9.15004 19.75H15.15C15.8358 19.75 16.4 20.3142 16.4 21V21.25ZM4.19352 5.13248C3.38081 5.28782 2.79004 5.98327 2.79004 6.85C2.79004 8.01199 3.28109 9.03587 4.08417 9.93341C4.13384 9.98265 4.18485 10.0309 4.23715 10.0781C4.17345 9.67917 4.14004 9.26935 4.14004 8.85V5.85C4.14004 5.60841 4.15769 5.36847 4.19352 5.13248ZM19.86 5.85C19.86 5.60841 19.8424 5.36847 19.8066 5.13248C20.6193 5.28783 21.21 5.98327 21.21 6.85C21.21 8.01199 20.719 9.03588 19.9159 9.93341C19.8662 9.98265 19.8152 10.0309 19.7629 10.0781C19.8266 9.67917 19.86 9.26935 19.86 8.85V5.85Z" fill="#424B5A"/>
</svg>
