<svg width="24" height="24" viewBox="0 0 24 24" fill="none" xmlns="http://www.w3.org/2000/svg">
<path fill-rule="evenodd" clip-rule="evenodd" d="M12 3.34229C11.2001 3.34229 10.2323 3.89118 9.41588 5.3635L3.3559 16.2635C2.5954 17.6351 2.62792 18.717 3.03553 19.4114C3.44271 20.1051 4.36973 20.6598 5.93997 20.6598H12C12.0418 20.6598 12.0828 20.6632 12.1227 20.6698H18.06C19.6244 20.6698 20.5523 20.1155 20.961 19.4208C21.3698 18.7258 21.404 17.644 20.644 16.2735L14.5844 5.36412C13.768 3.8918 12.7998 3.34229 12 3.34229ZM11.8772 22.1598H5.93997C4.04021 22.1598 2.50723 21.4745 1.74192 20.1707C0.977026 18.8676 1.12454 17.1945 2.04405 15.5361L8.10407 4.63607C9.06762 2.89878 10.45 1.84229 12 1.84229C13.5499 1.84229 14.932 2.89814 15.8955 4.63545L18.8355 9.92545L21.9557 15.5458C22.8758 17.2052 23.0201 18.8787 22.2539 20.1813C21.4876 21.4841 19.9555 22.1698 18.06 22.1698H12C11.9582 22.1698 11.9171 22.1664 11.8772 22.1598ZM12 8.24979C12.4142 8.24979 12.75 8.58557 12.75 8.99979V13.9998C12.75 14.414 12.4142 14.7498 12 14.7498C11.5858 14.7498 11.25 14.414 11.25 13.9998V8.99979C11.25 8.58557 11.5858 8.24979 12 8.24979ZM11.9945 15.9998C11.4422 15.9998 10.9945 16.4475 10.9945 16.9998C10.9945 17.5521 11.4422 17.9998 11.9945 17.9998H12.0035C12.5557 17.9998 13.0035 17.5521 13.0035 16.9998C13.0035 16.4475 12.5557 15.9998 12.0035 15.9998H11.9945Z" fill="#424B5A"/>
</svg>
