<svg width="24" height="24" viewBox="0 0 24 24" fill="none" xmlns="http://www.w3.org/2000/svg">
<path fill-rule="evenodd" clip-rule="evenodd" d="M6.60032 3.63039C7.25175 2.97895 7.81223 2.74756 8.28499 2.74756C8.75774 2.74756 9.31822 2.97895 9.96966 3.63039L10.1893 3.85006L7.01966 7.01973C6.72676 7.31262 6.72676 7.7875 7.01966 8.08039C7.31255 8.37328 7.78742 8.37328 8.08032 8.08039L11.7803 4.38039C12.0732 4.0875 12.0732 3.61262 11.7803 3.31973L11.7753 3.31474L11.7703 3.30973L11.0303 2.56973C10.2118 1.75117 9.29223 1.24756 8.28499 1.24756C7.27774 1.24756 6.35822 1.75117 5.53966 2.56973L2.57966 5.52973L2.57964 5.52972L2.57608 5.53332C1.76109 6.35941 1.25749 7.27791 1.25749 8.28506C1.25749 9.29221 1.76109 10.2107 2.57608 11.0368C2.86699 11.3317 3.34185 11.3349 3.63672 11.044C3.93159 10.7531 3.93479 10.2782 3.64389 9.98333C2.98888 9.31941 2.75749 8.75791 2.75749 8.28506C2.75749 7.81263 2.98848 7.25169 3.64216 6.58854L6.60032 3.63039ZM20.2391 2.81019C18.4052 3.54421 16.1988 4.85627 14.1229 6.39507C12.9368 7.27425 11.8088 8.21601 10.829 9.15017C12.761 9.62841 14.2903 11.1329 14.804 13.0506C17.3692 10.3479 19.9445 6.57663 21.1139 3.66089L21.1169 3.65328L21.117 3.6533C21.2254 3.39134 21.1549 3.14059 20.9668 2.95741L20.9524 2.94307C20.8008 2.78727 20.5472 2.69808 20.2391 2.81019ZM13.4879 14.3411C13.4199 12.2094 11.6701 10.4973 9.52369 10.4901C9.30355 10.7358 9.09739 10.9786 8.90698 11.2169L8.90599 11.2181L7.54554 12.9362C8.35491 13.1452 9.12475 13.5753 9.77224 14.2316C10.3965 14.8566 10.815 15.5765 11.0252 16.3569L12.7107 15.005L12.7108 15.0049C12.966 14.8003 13.2256 14.5783 13.4879 14.3411ZM6.18266 12.241C6.02408 12.4245 5.88449 12.6285 5.76815 12.8459C3.68053 13.1029 1.78899 14.695 1.52445 17.1084L1.25476 19.5655C1.04024 21.4056 2.59717 22.9482 4.41342 22.7454L6.87181 22.4756L6.88763 22.4737C8.03435 22.3231 9.01858 21.8321 9.75033 21.1004L9.75364 21.097C10.5687 20.2717 11.0501 19.218 11.1572 18.0993C11.3358 17.9973 11.4986 17.8865 11.6482 17.7787C11.6588 17.7711 11.6691 17.7633 11.6792 17.7551L13.6492 16.1752C16.9796 13.5046 20.9161 8.18125 22.5047 4.22261C22.8721 3.32978 22.5866 2.44614 22.0204 1.88975C21.4529 1.31212 20.573 1.08475 19.7079 1.40732L19.6918 1.41358C17.6975 2.21026 15.3728 3.6014 13.2296 5.19004C11.0865 6.77864 9.07761 8.59984 7.73398 10.282L7.73201 10.2845L6.18266 12.241ZM6.31744 14.3091C6.43959 14.303 6.57233 14.3063 6.71663 14.3129L6.80098 14.3175C7.47199 14.4105 8.14034 14.7311 8.69966 15.2904C9.25818 15.8489 9.55877 16.4787 9.64634 17.1474L9.64916 17.167C9.65378 17.1963 9.65782 17.2264 9.66132 17.2571L9.66628 17.327C9.67394 17.4335 9.67999 17.5175 9.67999 17.6201C9.67999 18.5248 9.33633 19.384 8.688 20.0414C8.20135 20.5273 7.52877 20.875 6.69991 20.9854L4.24816 21.2545L4.24655 21.2547C3.38421 21.3512 2.64155 20.6159 2.74487 19.7377L3.01552 17.2718C3.2102 15.4954 4.69132 14.343 6.29545 14.3099L6.30353 14.3097L6.31744 14.3091ZM19.7031 12.1064C19.9929 11.9123 20.3887 11.9416 20.6467 12.1961C20.6469 12.1963 20.647 12.1965 20.6472 12.1966C20.6486 12.198 20.6499 12.1993 20.6512 12.2006L21.3903 12.9297C22.2153 13.7547 22.7275 14.6742 22.7275 15.6851C22.7275 16.6959 22.2153 17.6155 21.3903 18.4404L18.4303 21.4004C17.6118 22.219 16.6922 22.7226 15.685 22.7226C14.6777 22.7226 13.7582 22.219 12.9397 21.4004C12.6468 21.1075 12.6468 20.6326 12.9397 20.3397C13.2325 20.0468 13.7074 20.0468 14.0003 20.3397C14.6518 20.9912 15.2122 21.2226 15.685 21.2226C16.1577 21.2226 16.7182 20.9912 17.3697 20.3397L20.3297 17.3797C20.9947 16.7147 21.2275 16.1542 21.2275 15.6851C21.2275 15.2163 20.9951 14.6564 20.3314 13.9921L20.1227 13.7862L17.6894 16.2113C17.396 16.5037 16.9212 16.5029 16.6288 16.2095C16.3364 15.9161 16.3372 15.4412 16.6306 15.1488L19.5861 12.2033L19.5906 12.1988C19.6257 12.1638 19.6634 12.133 19.7031 12.1064Z" fill="#424B5A"/>
</svg>
