<svg width="24" height="24" viewBox="0 0 24 24" fill="none" xmlns="http://www.w3.org/2000/svg">
<path fill-rule="evenodd" clip-rule="evenodd" d="M3.33033 3.33033C2.96884 3.69182 2.75 4.39464 2.75 6V11.15H11.27V10.59C11.27 9.47928 11.4444 8.49991 12.1122 7.83218C12.7799 7.16445 13.7592 6.98999 14.87 6.98999H19.15C19.1835 6.98999 19.2169 6.9902 19.25 6.99062V6C19.25 4.39464 19.0312 3.69182 18.6697 3.33033C18.3082 2.96884 17.6054 2.75 16 2.75H6C4.39464 2.75 3.69182 2.96884 3.33033 3.33033ZM11.27 12.65H2.78214C2.8553 13.6034 3.04988 14.0892 3.33033 14.3697C3.69182 14.7312 4.39464 14.95 6 14.95H9H11.27V12.65ZM1.25157 11.949C1.27086 13.4297 1.47523 14.6359 2.26967 15.4303C3.10818 16.2688 4.40536 16.45 6 16.45H8.25V19.25H5.95001C5.5358 19.25 5.20001 19.5858 5.20001 20C5.20001 20.4142 5.5358 20.75 5.95001 20.75H9H11.456C11.5845 21.1946 11.7914 21.5873 12.1122 21.9081C12.7799 22.5758 13.7593 22.7502 14.87 22.7502H19.15C20.2608 22.7502 21.2401 22.5758 21.9079 21.9081C22.5756 21.2404 22.75 20.261 22.75 19.1503V10.5903C22.75 9.63429 22.6207 8.78621 22.1683 8.14355C21.815 7.64157 21.3244 7.34447 20.75 7.17852V6C20.75 4.40536 20.5688 3.10818 19.7303 2.26967C18.8918 1.43116 17.5946 1.25 16 1.25H6C4.40536 1.25 3.10818 1.43116 2.26967 2.26967C1.43116 3.10818 1.25 4.40536 1.25 6V11.7C1.25 11.7562 1.25022 11.812 1.2507 11.8674C1.25023 11.8782 1.25 11.8891 1.25 11.9C1.25 11.9165 1.25053 11.9328 1.25157 11.949ZM11.27 16.45H9.75V19.25H11.2705C11.2702 19.2169 11.27 19.1836 11.27 19.1503V16.45ZM12.77 10.5903C12.77 9.56101 12.9506 9.11537 13.1729 8.89308C13.3951 8.67079 13.8408 8.49023 14.87 8.49023H19.15C19.4273 8.49023 19.6863 8.50808 19.9076 8.53451C20.5297 8.61486 20.7933 8.79601 20.9417 9.00694C21.1194 9.25931 21.25 9.71625 21.25 10.5903V19.1503C21.25 20.1795 21.0695 20.6252 20.8472 20.8474C20.6249 21.0697 20.1793 21.2502 19.15 21.2502H14.87C13.8408 21.2502 13.3951 21.0697 13.1728 20.8474C12.9506 20.6252 12.77 20.1795 12.77 19.1503V10.5903ZM16.69 11.6602C16.69 11.4845 16.8342 11.3403 17.01 11.3403C17.1859 11.3403 17.33 11.4845 17.33 11.6602C17.33 11.836 17.1858 11.9802 17.01 11.9802C16.8343 11.9802 16.69 11.836 16.69 11.6602ZM17.01 9.84027C16.0059 9.84027 15.19 10.6559 15.19 11.6602C15.19 12.6644 16.0058 13.4802 17.01 13.4802C18.0143 13.4802 18.83 12.6644 18.83 11.6602C18.83 10.656 18.0142 9.84027 17.01 9.84027ZM15.9117 16.1611C16.1686 15.8321 16.5655 15.6202 17.01 15.6202C17.3601 15.6202 17.6762 15.7487 17.9156 15.9542C18.2164 16.2234 18.4 16.6032 18.4 17.0103C18.4 17.7761 17.7758 18.4003 17.01 18.4003C16.2443 18.4003 15.62 17.776 15.62 17.0103C15.62 16.6939 15.7301 16.3948 15.9117 16.1611ZM17.01 14.1202C16.0747 14.1202 15.2518 14.5683 14.7287 15.239L14.728 15.2398C14.3498 15.726 14.12 16.3468 14.12 17.0103C14.12 18.6045 15.4158 19.9003 17.01 19.9003C18.6043 19.9003 19.9 18.6045 19.9 17.0103C19.9 16.139 19.5053 15.3603 18.9083 14.8297L18.9084 14.8296L18.9006 14.823C18.4005 14.3904 17.7381 14.1202 17.01 14.1202Z" fill="#424B5A"/>
</svg>
