<svg width="24" height="24" viewBox="0 0 24 24" fill="none" xmlns="http://www.w3.org/2000/svg">
<path fill-rule="evenodd" clip-rule="evenodd" d="M9.90824 4.24682C9.8073 4.5434 9.75 4.87963 9.75 5.25V9.15002C9.75 9.85326 9.95096 10.4144 10.2744 10.8169C10.3206 10.8744 10.3693 10.9287 10.4203 10.9797C10.8282 11.3875 11.4463 11.65 12.25 11.65C12.6642 11.65 13 11.9858 13 12.4V13.6017L15.7335 11.7763L15.7335 11.7763C15.8568 11.694 16.0017 11.65 16.15 11.65H18.75C19.1203 11.65 19.4565 11.5927 19.7532 11.4917C20.6576 11.169 21.25 10.3585 21.25 9.15002V5.25C21.25 4.44544 20.9851 3.83325 20.5759 3.42408C20.1668 3.01491 19.5546 2.75 18.75 2.75H12.25C11.0415 2.75 10.2309 3.34244 9.90824 4.24682ZM20.75 13.9V12.6896C22.0181 12.0274 22.75 10.7235 22.75 9.15002V5.25C22.75 4.10456 22.3649 3.09175 21.6366 2.36342C20.9082 1.63509 19.8954 1.25 18.75 1.25H12.25C10.6765 1.25 9.37258 1.98186 8.71032 3.25H6.5C5.03503 3.25 3.69965 3.61613 2.72716 4.51915C1.74462 5.43152 1.25 6.78205 1.25 8.5V13.9C1.25 15.618 1.74462 16.9685 2.72716 17.8809C3.69965 18.7839 5.03503 19.15 6.5 19.15H10.25V21.25H7.40002C6.98581 21.25 6.65002 21.5858 6.65002 22C6.65002 22.4142 6.98581 22.75 7.40002 22.75H11H14.6C15.0142 22.75 15.35 22.4142 15.35 22C15.35 21.5858 15.0142 21.25 14.6 21.25H11.75V19.15H15.5C16.965 19.15 18.3004 18.7839 19.2728 17.8809C20.2554 16.9685 20.75 15.618 20.75 13.9ZM15.5 17.65H11H6.5C5.26497 17.65 4.35035 17.3412 3.74784 16.7817C3.15538 16.2315 2.75 15.3321 2.75 13.9V8.5C2.75 7.06795 3.15538 6.16848 3.74784 5.61835C4.35035 5.05887 5.26497 4.75 6.5 4.75H8.2752L8.27389 4.76298C8.25803 4.92253 8.25 5.08502 8.25 5.25V9.15002C8.25 10.2863 8.62752 11.3082 9.35967 12.0403C9.92654 12.6072 10.6671 12.9615 11.5 13.0926V13.79C11.5 14.9079 12.7508 15.5565 13.6693 14.9585L16.3774 13.15H18.75C18.9195 13.15 19.0863 13.1416 19.25 13.1248L19.25 13.1248V13.9C19.25 15.3321 18.8446 16.2315 18.2522 16.7817C17.6496 17.3412 16.735 17.65 15.5 17.65ZM18.4955 6.5C18.0813 6.5 17.7455 6.83579 17.7455 7.25C17.7455 7.66421 18.0813 8 18.4955 8H18.5045C18.9187 8 19.2545 7.66421 19.2545 7.25C19.2545 6.83579 18.9187 6.5 18.5045 6.5H18.4955ZM14.9457 7.25C14.9457 6.83579 15.2815 6.5 15.6957 6.5H15.7047C16.1189 6.5 16.4547 6.83579 16.4547 7.25C16.4547 7.66421 16.1189 8 15.7047 8H15.6957C15.2815 8 14.9457 7.66421 14.9457 7.25ZM12.8954 6.5C12.4812 6.5 12.1454 6.83579 12.1454 7.25C12.1454 7.66421 12.4812 8 12.8954 8H12.9044C13.3186 8 13.6544 7.66421 13.6544 7.25C13.6544 6.83579 13.3186 6.5 12.9044 6.5H12.8954Z" fill="#424B5A"/>
</svg>
