<svg width="24" height="24" viewBox="0 0 24 24" fill="none" xmlns="http://www.w3.org/2000/svg">
<path fill-rule="evenodd" clip-rule="evenodd" d="M2.75 2C2.75 1.58579 2.41421 1.25 2 1.25C1.58579 1.25 1.25 1.58579 1.25 2V19C1.25 21.0742 2.92579 22.75 5 22.75H22C22.4142 22.75 22.75 22.4142 22.75 22C22.75 21.5858 22.4142 21.25 22 21.25H5C3.75421 21.25 2.75 20.2458 2.75 19V2ZM21.5696 7.48792C21.8391 7.17334 21.8025 6.69988 21.4879 6.43041C21.1733 6.16094 20.6999 6.1975 20.4304 6.51208L15.8324 11.8798L15.8316 11.8807C15.3554 12.431 14.511 12.4604 14.0003 11.9497L13.0535 11.0029L13.0518 11.0011C11.9177 9.85521 10.0619 9.9462 9.02238 11.1498L9.02033 11.1522L4.43033 16.5122C4.16091 16.8268 4.19755 17.3002 4.51217 17.5697C4.82679 17.8391 5.30024 17.8025 5.56967 17.4878L10.1576 12.1302L10.1585 12.1292C10.6387 11.5744 11.4807 11.5452 11.9865 12.0571L12.9397 13.0103C14.0687 14.1394 15.9236 14.0691 16.9676 12.8602L16.9696 12.8579L21.5696 7.48792Z" fill="#424B5A"/>
</svg>
