<svg width="24" height="24" viewBox="0 0 24 24" fill="none" xmlns="http://www.w3.org/2000/svg">
<path fill-rule="evenodd" clip-rule="evenodd" d="M12 1.25C12.4142 1.25 12.75 1.58579 12.75 2V6.18934L13.4697 5.46967C13.7626 5.17678 14.2374 5.17678 14.5303 5.46967C14.8232 5.76256 14.8232 6.23744 14.5303 6.53033L12.531 8.52961L12.5303 8.53033C12.3968 8.66389 12.2254 8.73655 12.0506 8.7483C12.0018 8.75161 11.9526 8.75016 11.9036 8.74381C11.762 8.72556 11.6247 8.66695 11.5102 8.56797C11.4948 8.55471 11.48 8.54086 11.4658 8.52645L9.46967 6.53033C9.17678 6.23744 9.17678 5.76256 9.46967 5.46967C9.76256 5.17678 10.2374 5.17678 10.5303 5.46967L11.25 6.18934V2C11.25 1.58579 11.5858 1.25 12 1.25ZM7 11.25C6.54854 11.25 6.1323 11.2718 5.74997 11.3165V7.99997C5.74997 6.93449 5.76831 6.23076 6.0366 5.72816C6.24792 5.3323 6.70772 4.91838 8.07213 4.78649C8.48443 4.74664 8.78635 4.3801 8.74649 3.96781C8.70664 3.55551 8.3401 3.2536 7.92781 3.29345C6.29222 3.45156 5.25202 4.01264 4.71334 5.02178C4.24856 5.89246 4.2493 6.97618 4.24992 7.89967L4.24997 7.99997V11.6792C3.65995 11.9226 3.20827 12.274 2.88294 12.745C2.53985 13.2416 2.38972 13.8026 2.31882 14.3455C2.24996 14.8728 2.24998 15.4402 2.25 15.973V15.973V17.0278V17.0279C2.24999 17.6975 2.24997 18.396 2.33444 19.0428C2.42097 19.7052 2.60235 20.374 3.00787 20.9612C3.84938 22.1797 5.4289 22.75 8 22.75H16C18.1387 22.75 19.6386 22.1465 20.5775 21.0136C21.4926 19.9093 21.75 18.4466 21.75 17V15.973C21.75 15.4402 21.75 14.8728 21.6812 14.3455C21.6103 13.8026 21.4601 13.2416 21.1171 12.745C20.7917 12.274 20.34 11.9226 19.75 11.6792V7.99997L19.75 7.89967C19.7507 6.97618 19.7514 5.89246 19.2866 5.02178C18.7479 4.01264 17.7077 3.45156 16.0722 3.29345C15.6599 3.2536 15.2933 3.55551 15.2535 3.96781C15.2136 4.3801 15.5155 4.74664 15.9278 4.78649C17.2922 4.91838 17.752 5.3323 17.9634 5.72816C18.2317 6.23076 18.25 6.93449 18.25 7.99997V11.3165C17.8677 11.2718 17.4514 11.25 17 11.25C16.4512 11.25 16.028 11.3068 15.6478 11.4549C15.2909 11.5939 15.0183 11.7986 14.7787 11.9784L14.75 12C14.7159 12.0256 14.684 12.054 14.6547 12.085L13.6347 13.165L13.6326 13.1673C12.7506 14.1091 11.2519 14.113 10.3564 13.1663L9.34779 12.0877C9.31782 12.0557 9.2851 12.0263 9.25 12L9.22126 11.9784C8.98172 11.7986 8.70915 11.5939 8.35216 11.4549C7.97197 11.3068 7.54882 11.25 7 11.25ZM3.75 16C3.75 15.4356 3.75121 14.9608 3.80619 14.5398C3.86029 14.1255 3.96015 13.8247 4.11707 13.5975C4.40046 13.1873 5.07083 12.75 7 12.75C7.45119 12.75 7.66804 12.7982 7.80784 12.8526C7.94663 12.9067 8.06044 12.9838 8.29752 13.1607L9.26221 14.1923L9.26474 14.195C10.749 15.7666 13.2484 15.7704 14.7262 14.194L14.7274 14.1927L15.701 13.1618C15.9391 12.9841 16.0531 12.9068 16.1922 12.8526C16.332 12.7982 16.5488 12.75 17 12.75C18.9292 12.75 19.5995 13.1873 19.8829 13.5975C20.0399 13.8247 20.1397 14.1255 20.1938 14.5398C20.2488 14.9608 20.25 15.4356 20.25 16V17C20.25 18.3134 20.0074 19.3507 19.4225 20.0564C18.8614 20.7335 17.8613 21.25 16 21.25H8C5.57111 21.25 4.65062 20.7003 4.24214 20.1088C4.02265 19.791 3.89153 19.3823 3.82181 18.8485C3.75121 18.308 3.75 17.7019 3.75 17V16Z" fill="#424B5A"/>
</svg>
