<svg width="24" height="24" viewBox="0 0 24 24" fill="none" xmlns="http://www.w3.org/2000/svg">
<path fill-rule="evenodd" clip-rule="evenodd" d="M8.50628 4.36069C9.98746 1.54644 14.0125 1.54644 15.4937 4.36069L21.5944 15.9521C23.3696 19.3422 19.7704 23.0388 16.3346 21.3208L13.0946 19.7008C12.4057 19.3564 11.5942 19.3564 10.9054 19.7008L7.66538 21.3208C4.23488 23.0361 0.616176 19.3467 2.40628 15.9507L8.50628 4.36069ZM14.1663 5.05931C13.2475 3.31356 10.7525 3.31356 9.83366 5.05931L3.73366 16.6493C2.62437 18.7531 4.86522 21.0438 6.99456 19.9792L10.2346 18.3592C11.3457 17.8036 12.6542 17.8036 13.7654 18.3592L17.0054 19.9792C19.1293 21.0411 21.3699 18.7583 20.2659 16.6486C20.2658 16.6484 20.266 16.6488 20.2659 16.6486L14.1663 5.05931Z" fill="#424B5A"/>
</svg>
