<svg width="24" height="24" viewBox="0 0 24 24" fill="none" xmlns="http://www.w3.org/2000/svg">
<path fill-rule="evenodd" clip-rule="evenodd" d="M8.04976 2.40655L19.6393 8.50628C22.4535 9.98747 22.4535 14.0125 19.6393 15.4937L8.04787 21.5944C4.6578 23.3696 0.961203 19.7704 2.67914 16.3346L4.29914 13.0946C4.64356 12.4057 4.64356 11.5942 4.29914 10.9054L2.67914 7.66538C0.963887 4.23489 4.65371 0.616443 8.04976 2.40655ZM7.35015 3.7334C5.24634 2.62412 2.95611 4.86523 4.02078 6.99456L5.64078 10.2346C6.19635 11.3457 6.19635 12.6542 5.64078 13.7654L4.02078 17.0054C2.95881 19.1293 5.24169 21.37 7.35145 20.2659C7.35126 20.266 7.35165 20.2658 7.35145 20.2659L18.9406 14.1663C20.6864 13.2475 20.6864 10.7525 18.9406 9.83366L7.35015 3.7334Z" fill="#424B5A"/>
</svg>
