<svg width="24" height="24" viewBox="0 0 24 24" fill="none" xmlns="http://www.w3.org/2000/svg">
<path fill-rule="evenodd" clip-rule="evenodd" d="M20.2659 7.35158C21.37 5.24181 19.1293 2.95893 17.0054 4.0209L13.7654 5.6409C12.6542 6.19647 11.3457 6.19647 10.2346 5.6409L6.99456 4.0209C4.86523 2.95623 2.62412 5.24646 3.7334 7.35027L9.83366 18.9408C10.7525 20.6865 13.2475 20.6865 14.1663 18.9408L20.2659 7.35158C20.266 7.35138 20.2658 7.35177 20.2659 7.35158ZM16.3346 2.67926C19.7704 0.961325 23.3696 4.65792 21.5944 8.04799L15.4937 19.6394C14.0125 22.4536 9.98747 22.4536 8.50628 19.6394L2.40655 8.04988C0.616443 4.65383 4.23489 0.964009 7.66538 2.67926L10.9054 4.29926C11.5942 4.64368 12.4057 4.64368 13.0946 4.29926L16.3346 2.67926Z" fill="#424B5A"/>
</svg>
