<svg width="24" height="24" viewBox="0 0 24 24" fill="none" xmlns="http://www.w3.org/2000/svg">
<path fill-rule="evenodd" clip-rule="evenodd" d="M9 1.25C6.42603 1.25 4.42914 1.7602 3.09467 3.09467C1.7602 4.42914 1.25 6.42603 1.25 9V13V15C1.25 17.574 1.7602 19.5709 3.09467 20.9053C4.42914 22.2398 6.42603 22.75 9 22.75H15C17.574 22.75 19.5709 22.2398 20.9053 20.9053C22.2398 19.5709 22.75 17.574 22.75 15V9C22.75 6.42603 22.2398 4.42914 20.9053 3.09467C19.5709 1.7602 17.574 1.25 15 1.25H9ZM2.75 13.75V15C2.75 17.426 3.2398 18.9291 4.15533 19.8447C5.07086 20.7602 6.57397 21.25 9 21.25H15C17.426 21.25 18.9291 20.7602 19.8447 19.8447C20.7602 18.9291 21.25 17.426 21.25 15V13.74H18.24C17.7668 13.74 17.335 14.0076 17.1208 14.4354L16.2316 16.2239L16.2308 16.2254C15.7649 17.1573 14.8166 17.75 13.77 17.75H10.24C9.95224 17.75 8.53924 17.7481 7.77163 16.2403L7.7684 16.2339L6.87918 14.4454C6.66498 14.0177 6.23316 13.75 5.76 13.75H2.75ZM21.25 12.24H18.24C17.1934 12.24 16.2451 12.8327 15.7792 13.7646L15.7784 13.7661L14.8888 15.5553C14.6746 15.983 14.2432 16.25 13.77 16.25H10.2384C10.0448 16.25 9.46144 16.25 9.10986 15.5626L8.22157 13.7761L8.22082 13.7746C7.75489 12.8427 6.80657 12.25 5.76 12.25H2.75V9C2.75 6.57397 3.2398 5.07086 4.15533 4.15533C5.07086 3.2398 6.57397 2.75 9 2.75H15C17.426 2.75 18.9291 3.2398 19.8447 4.15533C20.7602 5.07086 21.25 6.57397 21.25 9V12.24ZM9.59003 7C9.59003 6.58579 9.92581 6.25 10.34 6.25H13.67C14.0842 6.25 14.42 6.58579 14.42 7C14.42 7.41421 14.0842 7.75 13.67 7.75H10.34C9.92581 7.75 9.59003 7.41421 9.59003 7ZM9.5 9.25C9.08579 9.25 8.75 9.58579 8.75 10C8.75 10.4142 9.08579 10.75 9.5 10.75H14.5C14.9142 10.75 15.25 10.4142 15.25 10C15.25 9.58579 14.9142 9.25 14.5 9.25H9.5Z" fill="#424B5A"/>
</svg>
