<svg width="24" height="24" viewBox="0 0 24 24" fill="none" xmlns="http://www.w3.org/2000/svg">
<path fill-rule="evenodd" clip-rule="evenodd" d="M12.5073 1.44754C12.213 1.17697 11.755 1.18435 11.4697 1.46967L11.4663 1.47305L9.46967 3.46969C9.17678 3.76259 9.17678 4.23746 9.46967 4.53035C9.76256 4.82325 10.2374 4.82325 10.5303 4.53035L11.25 3.81068V9.00002C11.25 9.41424 11.5858 9.75002 12 9.75002C12.4142 9.75002 12.75 9.41424 12.75 9.00002V3.81066L13.4697 4.53033C13.7626 4.82322 14.2374 4.82322 14.5303 4.53033C14.8232 4.23744 14.8232 3.76256 14.5303 3.46967L12.5324 1.47179C12.5242 1.46352 12.5158 1.45543 12.5073 1.44754ZM2.75 12.25V12C2.75 9.93099 3.10743 8.53036 3.78063 7.59768C4.434 6.69247 5.47019 6.11275 7.109 5.87202C7.51882 5.81182 7.80224 5.4308 7.74204 5.02098C7.68184 4.61117 7.30082 4.32775 6.891 4.38794C4.98981 4.66722 3.526 5.38749 2.56437 6.71979C1.62257 8.0246 1.25 9.79898 1.25 12V12.8271C1.23691 12.8826 1.22998 12.9405 1.22998 13C1.22998 13.0595 1.23691 13.1174 1.25 13.1729V15C1.25 17.574 1.7602 19.5708 3.09467 20.9053C4.42914 22.2398 6.42603 22.75 9 22.75H15C17.574 22.75 19.5709 22.2398 20.9053 20.9053C22.2398 19.5708 22.75 17.574 22.75 15V12C22.75 9.79898 22.3774 8.0246 21.4356 6.71979C20.474 5.38749 19.0102 4.66722 17.109 4.38794C16.6992 4.32775 16.3182 4.61117 16.258 5.02098C16.1978 5.4308 16.4812 5.81182 16.891 5.87202C18.5298 6.11275 19.566 6.69247 20.2194 7.59768C20.8926 8.53036 21.25 9.93099 21.25 12V12.25H17.62C16.9703 12.25 16.3582 12.6166 16.0592 13.2146L14.8892 15.5546C14.6751 15.9827 14.2434 16.25 13.77 16.25H10.24C9.76655 16.25 9.33487 15.9827 9.1208 15.5546L7.9508 13.2146C7.6537 12.6204 7.05393 12.25 6.38998 12.25H2.75ZM2.75 13.75V15C2.75 17.426 3.2398 18.9291 4.15533 19.8447C5.07086 20.7602 6.57397 21.25 9 21.25H15C17.426 21.25 18.9291 20.7602 19.8447 19.8447C20.7602 18.9291 21.25 17.426 21.25 15V13.75H17.62C17.5297 13.75 17.4418 13.8034 17.4008 13.8854L16.2308 16.2254C15.7649 17.1573 14.8165 17.75 13.77 17.75H10.24C9.19341 17.75 8.24509 17.1573 7.77916 16.2254L6.60916 13.8854C6.56626 13.7996 6.48603 13.75 6.38998 13.75H2.75Z" fill="#424B5A"/>
</svg>
