<svg width="24" height="24" viewBox="0 0 24 24" fill="none" xmlns="http://www.w3.org/2000/svg">
<path fill-rule="evenodd" clip-rule="evenodd" d="M9 1.25C6.92917 1.25 5.59955 1.70766 4.88294 2.74495C4.53985 3.24156 4.38972 3.80261 4.31882 4.34554C4.24996 4.8728 4.24998 5.44024 4.25 5.97301L4.25 11.6792C3.65997 11.9226 3.20828 12.274 2.88294 12.745C2.53985 13.2416 2.38972 13.8026 2.31882 14.3455C2.24996 14.8728 2.24998 15.4402 2.25 15.973V15.973V17.0278V17.0279C2.24999 17.6975 2.24997 18.396 2.33444 19.0428C2.42097 19.7052 2.60235 20.374 3.00787 20.9612C3.84938 22.1797 5.4289 22.75 8 22.75H16C18.1387 22.75 19.6386 22.1465 20.5775 21.0136C21.4926 19.9093 21.75 18.4466 21.75 17V15.973C21.75 15.4402 21.75 14.8728 21.6812 14.3455C21.6103 13.8026 21.4601 13.2416 21.1171 12.745C20.7917 12.274 20.34 11.9226 19.75 11.6792V5.97301C19.75 5.44024 19.75 4.8728 19.6812 4.34554C19.6103 3.80261 19.4601 3.24156 19.1171 2.74495C18.4005 1.70766 17.0708 1.25 15 1.25H9ZM18.25 11.3165V6C18.25 5.43556 18.2488 4.96078 18.1938 4.53977C18.1397 4.12552 18.0399 3.82469 17.8829 3.59755C17.5995 3.18734 16.9292 2.75 15 2.75H9C7.07083 2.75 6.40046 3.18734 6.11707 3.59755C5.96015 3.82469 5.86029 4.12552 5.80619 4.53977C5.75121 4.96078 5.75 5.43556 5.75 6V11.3165C6.13233 11.2718 6.54855 11.25 7 11.25C7.54882 11.25 7.97197 11.3068 8.35216 11.4549C8.70915 11.5939 8.98172 11.7986 9.22126 11.9784L9.25 12C9.2851 12.0263 9.31782 12.0557 9.34779 12.0877L10.3564 13.1663C11.2519 14.113 12.7506 14.1091 13.6326 13.1673L13.6347 13.165L14.6547 12.085C14.684 12.054 14.7159 12.0256 14.75 12L14.7787 11.9784C15.0183 11.7986 15.2909 11.5939 15.6478 11.4549C16.028 11.3068 16.4512 11.25 17 11.25C17.4515 11.25 17.8677 11.2718 18.25 11.3165ZM3.75 16C3.75 15.4356 3.75121 14.9608 3.80619 14.5398C3.86029 14.1255 3.96015 13.8247 4.11707 13.5975C4.40046 13.1873 5.07083 12.75 7 12.75C7.45119 12.75 7.66804 12.7982 7.80784 12.8526C7.94663 12.9067 8.06044 12.9838 8.29752 13.1607L9.26221 14.1923L9.26474 14.195C10.749 15.7666 13.2484 15.7704 14.7262 14.194L14.7274 14.1927L15.701 13.1618C15.9391 12.9841 16.0531 12.9068 16.1922 12.8526C16.332 12.7982 16.5488 12.75 17 12.75C18.9292 12.75 19.5995 13.1873 19.8829 13.5975C20.0399 13.8247 20.1397 14.1255 20.1938 14.5398C20.2488 14.9608 20.25 15.4356 20.25 16V17C20.25 18.3134 20.0074 19.3507 19.4225 20.0564C18.8614 20.7335 17.8613 21.25 16 21.25H8C5.57111 21.25 4.65062 20.7003 4.24214 20.1088C4.02265 19.791 3.89153 19.3823 3.82181 18.8485C3.75121 18.308 3.75 17.7019 3.75 17V16ZM9.79999 9.22998C9.79999 8.81577 10.1358 8.47998 10.55 8.47998H13.88C14.2942 8.47998 14.63 8.81577 14.63 9.22998C14.63 9.64419 14.2942 9.97998 13.88 9.97998H10.55C10.1358 9.97998 9.79999 9.64419 9.79999 9.22998ZM9.71997 5.47998C9.30576 5.47998 8.96997 5.81577 8.96997 6.22998C8.96997 6.64419 9.30576 6.97998 9.71997 6.97998H14.72C15.1342 6.97998 15.47 6.64419 15.47 6.22998C15.47 5.81577 15.1342 5.47998 14.72 5.47998H9.71997Z" fill="#424B5A"/>
</svg>
