<svg width="24" height="24" viewBox="0 0 24 24" fill="none" xmlns="http://www.w3.org/2000/svg">
<path fill-rule="evenodd" clip-rule="evenodd" d="M19 2.75C17.7574 2.75 16.75 3.75736 16.75 5C16.75 6.24264 17.7574 7.25 19 7.25C20.2426 7.25 21.25 6.24264 21.25 5C21.25 3.75736 20.2426 2.75 19 2.75ZM15.25 5C15.25 2.92893 16.9289 1.25 19 1.25C21.0711 1.25 22.75 2.92893 22.75 5C22.75 7.07107 21.0711 8.75 19 8.75C16.9289 8.75 15.25 7.07107 15.25 5ZM17.1208 14.4354L16.2315 16.2239L16.2308 16.2254C15.7649 17.1573 14.8165 17.75 13.77 17.75H10.24C9.95414 17.75 8.53586 17.7488 7.77916 16.2354L7.77841 16.2339L6.88916 14.4454C6.67498 14.0176 6.24318 13.75 5.76998 13.75H2.75V15C2.75 17.426 3.2398 18.9291 4.15533 19.8447C5.07086 20.7602 6.57397 21.25 9 21.25H15C17.426 21.25 18.9291 20.7602 19.8447 19.8447C20.7602 18.9291 21.25 17.426 21.25 15V13.74H18.24C17.7668 13.74 17.335 14.0077 17.1208 14.4354ZM21.25 12.24H18.24C17.1934 12.24 16.2451 12.8327 15.7792 13.7646L15.7784 13.7661L14.8888 15.5553C14.6746 15.983 14.2431 16.25 13.77 16.25H10.239C10.0439 16.25 9.46355 16.2493 9.1208 15.5646L8.23155 13.7761L8.2308 13.7746C7.76487 12.8427 6.81655 12.25 5.76998 12.25H2.75V9C2.75 6.57397 3.2398 5.07086 4.15533 4.15533C5.07086 3.2398 6.57397 2.75 9 2.75H14C14.4142 2.75 14.75 2.41421 14.75 2C14.75 1.58579 14.4142 1.25 14 1.25H9C6.42603 1.25 4.42914 1.7602 3.09467 3.09467C1.7602 4.42914 1.25 6.42603 1.25 9V12.8271C1.23691 12.8826 1.22998 12.9405 1.22998 13C1.22998 13.0595 1.23691 13.1174 1.25 13.1729V15C1.25 17.574 1.7602 19.5709 3.09467 20.9053C4.42914 22.2398 6.42603 22.75 9 22.75H15C17.574 22.75 19.5709 22.2398 20.9053 20.9053C22.2398 19.5709 22.75 17.574 22.75 15V10C22.75 9.58579 22.4142 9.25 22 9.25C21.5858 9.25 21.25 9.58579 21.25 10V12.24Z" fill="#424B5A"/>
</svg>
