<svg width="24" height="24" viewBox="0 0 24 24" fill="none" xmlns="http://www.w3.org/2000/svg">
<path fill-rule="evenodd" clip-rule="evenodd" d="M22.6276 6.38208C23.044 4.71671 22.7741 3.20112 21.7866 2.2136C20.7991 1.22608 19.283 0.956358 17.6176 1.3727L7.68838 3.8625C6.80127 4.08298 5.95626 4.62576 5.29092 5.2911C4.62558 5.95644 4.08258 6.80234 3.8621 7.68946L1.3724 17.6183C0.956377 19.2823 1.22273 20.7982 2.20923 21.7863C3.19598 22.7747 4.71253 23.0437 6.38173 22.6278L16.3119 20.1478C17.1951 19.927 18.04 19.3809 18.7053 18.7155C19.3707 18.0502 19.9168 17.2053 20.1376 16.3221L22.6276 6.38208ZM20.7259 3.27426C20.226 2.77435 19.3168 2.4942 17.9824 2.82766L8.05242 5.31766L8.05072 5.31808C7.48817 5.45775 6.87352 5.82982 6.35158 6.35176C5.82965 6.87369 5.45757 7.48834 5.3179 8.0509L5.31748 8.0526L2.82756 17.9823C2.49365 19.3181 2.7723 20.2272 3.27078 20.7265C3.76902 21.2256 4.67787 21.5065 6.01867 21.1724L15.9481 18.6926C16.5049 18.5534 17.12 18.1795 17.6447 17.6548C18.1693 17.1302 18.5433 16.5147 18.6825 15.9579L21.1724 6.01828C21.5061 4.68365 21.2259 3.77424 20.7259 3.27426ZM9.25 12.0002C9.25 10.4814 10.4812 9.25018 12 9.25018C13.5188 9.25018 14.75 10.4814 14.75 12.0002C14.75 13.519 13.5188 14.7502 12 14.7502C10.4812 14.7502 9.25 13.519 9.25 12.0002ZM12 7.75018C9.65279 7.75018 7.75 9.65297 7.75 12.0002C7.75 14.3474 9.65279 16.2502 12 16.2502C14.3472 16.2502 16.25 14.3474 16.25 12.0002C16.25 9.65297 14.3472 7.75018 12 7.75018Z" fill="#424B5A"/>
</svg>
