<svg width="24" height="24" viewBox="0 0 24 24" fill="none" xmlns="http://www.w3.org/2000/svg">
<path fill-rule="evenodd" clip-rule="evenodd" d="M2.75 12C2.75 6.89137 6.89137 2.75 12 2.75C17.1086 2.75 21.25 6.89137 21.25 12C21.25 17.1086 17.1086 21.25 12 21.25C6.89137 21.25 2.75 17.1086 2.75 12ZM12 1.25C6.06294 1.25 1.25 6.06294 1.25 12C1.25 17.9371 6.06294 22.75 12 22.75C17.9371 22.75 22.75 17.9371 22.75 12C22.75 6.06294 17.9371 1.25 12 1.25ZM15.5303 9.53033C15.8232 9.23744 15.8232 8.76256 15.5303 8.46967C15.2374 8.17678 14.7626 8.17678 14.4697 8.46967L8.46967 14.4697C8.17678 14.7626 8.17678 15.2374 8.46967 15.5303C8.76256 15.8232 9.23744 15.8232 9.53033 15.5303L15.5303 9.53033ZM13.4945 14.5C13.4945 13.9477 13.9422 13.5 14.4945 13.5H14.5035C15.0558 13.5 15.5035 13.9477 15.5035 14.5C15.5035 15.0523 15.0558 15.5 14.5035 15.5H14.4945C13.9422 15.5 13.4945 15.0523 13.4945 14.5ZM9.49451 8.5C8.94222 8.5 8.49451 8.94772 8.49451 9.5C8.49451 10.0523 8.94222 10.5 9.49451 10.5H9.50349C10.0558 10.5 10.5035 10.0523 10.5035 9.5C10.5035 8.94772 10.0558 8.5 9.50349 8.5H9.49451Z" fill="#424B5A"/>
</svg>
