<svg width="24" height="24" viewBox="0 0 24 24" fill="none" xmlns="http://www.w3.org/2000/svg">
<path fill-rule="evenodd" clip-rule="evenodd" d="M7.71997 1.8999C6.94021 1.8999 6.163 2.18848 5.53959 2.64463C4.92299 3.0958 4.40543 3.74942 4.19959 4.53968L1.81028 11.8072C1.49043 12.7113 1.60333 13.6238 2.11618 14.3198C2.6273 15.0135 3.46706 15.3999 4.41997 15.3999H8.41997C8.50982 15.3999 8.57826 15.4362 8.62009 15.4836C8.65616 15.5245 8.69694 15.6011 8.67805 15.7399L8.1823 18.9128C7.91055 20.2023 8.74696 21.5419 9.96973 21.957C10.5629 22.1753 11.1908 22.1265 11.7138 21.9467C12.2351 21.7675 12.734 21.4302 13.0432 20.9672L13.044 20.9659L16.0149 16.5458C16.1245 16.8989 16.3052 17.2165 16.5863 17.476C17.1228 17.9713 17.8625 18.0999 18.62 18.0999H19.62C20.3775 18.0999 21.1171 17.9713 21.6537 17.476C22.205 16.9671 22.37 16.2344 22.37 15.4499V5.6499C22.37 4.86539 22.205 4.13268 21.6537 3.6238C21.1171 3.12853 20.3775 2.9999 19.62 2.9999H18.62C17.8625 2.9999 17.1228 3.12853 16.5863 3.6238C16.3569 3.83555 16.1944 4.08606 16.0828 4.36293L13.9114 2.68184C13.581 2.37144 13.1318 2.18755 12.751 2.07876C12.3367 1.96038 11.8924 1.8999 11.52 1.8999H7.71997ZM15.87 6.09518L12.9233 3.81385L12.8896 3.78023C12.823 3.71359 12.643 3.60792 12.3389 3.52105C12.0532 3.43942 11.7475 3.3999 11.52 3.3999H7.71997C7.29974 3.3999 6.82694 3.56133 6.42535 3.85518C6.0243 4.14863 5.74684 4.53477 5.64758 4.9318L5.64097 4.95825L3.22948 12.2932L3.22628 12.3022C3.0503 12.7949 3.13841 13.1785 3.32376 13.43C3.51264 13.6863 3.87289 13.8999 4.41997 13.8999H8.41997C9.46332 13.8999 10.3288 14.7913 10.1624 15.956L10.161 15.9657L9.65729 19.1893L9.65211 19.2126C9.54144 19.7106 9.89511 20.351 10.4571 20.5384L10.4703 20.5428L10.4833 20.5477C10.6863 20.6238 10.953 20.622 11.2262 20.5281C11.5043 20.4325 11.705 20.2702 11.7959 20.1339L11.7975 20.1315L15.87 14.0725V6.09518ZM17.37 5.6499C17.37 5.03441 17.505 4.81713 17.6037 4.726C17.7171 4.62128 17.9775 4.4999 18.62 4.4999H19.62C20.2625 4.4999 20.5228 4.62128 20.6363 4.726C20.735 4.81713 20.87 5.03441 20.87 5.6499V15.4499C20.87 16.0654 20.735 16.2827 20.6363 16.3738C20.5228 16.4785 20.2625 16.5999 19.62 16.5999H18.62C17.9775 16.5999 17.7171 16.4785 17.6037 16.3738C17.505 16.2827 17.37 16.0654 17.37 15.4499V5.6499Z" fill="#424B5A"/>
</svg>
