<svg width="24" height="24" viewBox="0 0 24 24" fill="none" xmlns="http://www.w3.org/2000/svg">
<path fill-rule="evenodd" clip-rule="evenodd" d="M2.75995 3.40063C2.75497 3.00216 3.04399 2.75 3.34997 2.75H12.25C12.5758 2.75 12.85 3.0242 12.85 3.35001V4.82999C12.85 4.95728 12.8055 5.15083 12.7061 5.36942C12.6136 5.57255 12.4996 5.74057 12.4085 5.83996L9.53831 8.37365C9.22837 8.63922 9.0025 8.99776 8.85438 9.34754C8.70406 9.70252 8.60998 10.1044 8.60998 10.49V13.39C8.60998 13.4394 8.58731 13.5554 8.51727 13.6899C8.44558 13.8276 8.37335 13.8911 8.35588 13.9019L8.34174 13.9109L7.41116 14.5147C6.99633 14.7626 6.46997 14.4501 6.46997 14V10.43C6.46997 10.0667 6.36954 9.69836 6.24783 9.39331C6.12438 9.08391 5.9552 8.78018 5.76732 8.5436C5.7537 8.52644 5.73932 8.50988 5.72425 8.49398L3.16425 5.79397L3.15032 5.77967C3.05795 5.68729 2.95263 5.53338 2.87112 5.35275C2.78675 5.16578 2.76001 5.02195 2.76001 4.95999L2.76007 3.41L2.75995 3.40063ZM3.34997 1.25C2.17764 1.25 1.24771 2.21508 1.26001 3.41423V4.95999C1.26001 5.30803 1.36826 5.6692 1.50388 5.96974C1.64092 6.2734 1.83787 6.58609 2.08191 6.83253L4.60998 9.49887C4.68864 9.60369 4.78107 9.76482 4.85463 9.94919C4.93541 10.1516 4.96997 10.3233 4.96997 10.43V14C4.96997 15.7076 6.85808 16.6141 8.20226 15.7892L8.21826 15.7791L9.15244 15.1729C9.47065 14.9735 9.70069 14.665 9.84771 14.3826C9.99767 14.0946 10.11 13.7406 10.11 13.39V10.49C10.11 10.3356 10.1509 10.1325 10.2356 9.93246C10.3216 9.72948 10.4289 9.58549 10.5159 9.51156L13.4263 6.94227C13.4408 6.92951 13.4547 6.9162 13.4682 6.90236C13.7046 6.65874 13.9171 6.32985 14.0714 5.99057C14.2245 5.65415 14.35 5.24269 14.35 4.82999V3.35001C14.35 2.19581 13.4042 1.25 12.25 1.25H3.34997ZM17.0694 1.49956C16.6605 1.4336 16.2755 1.71164 16.2096 2.12057C16.1436 2.52949 16.4217 2.91446 16.8306 2.98042C17.2837 3.0535 17.7477 3.14196 18.1536 3.2446C18.5748 3.35112 18.8759 3.45908 19.0392 3.55196L19.0418 3.55339C20.4975 4.37375 21.25 5.97996 21.25 9V15C21.25 17.426 20.7602 18.9291 19.8447 19.8447C18.9291 20.7602 17.426 21.25 15 21.25H9C6.57397 21.25 5.07086 20.7602 4.15533 19.8447C3.2398 18.9291 2.75 17.426 2.75 15V12C2.75 11.5858 2.41421 11.25 2 11.25C1.58579 11.25 1.25 11.5858 1.25 12V15C1.25 17.574 1.7602 19.5709 3.09467 20.9053C4.42914 22.2398 6.42603 22.75 9 22.75H15C17.574 22.75 19.5709 22.2398 20.9053 20.9053C22.2398 19.5709 22.75 17.574 22.75 15V9C22.75 5.7807 21.9428 3.46719 19.7795 2.24736C19.433 2.05057 18.9696 1.90374 18.5214 1.79038C18.0573 1.67302 17.5463 1.57648 17.0694 1.49956ZM12.25 13C12.25 12.5858 12.5858 12.25 13 12.25H18C18.4142 12.25 18.75 12.5858 18.75 13C18.75 13.4142 18.4142 13.75 18 13.75H13C12.5858 13.75 12.25 13.4142 12.25 13ZM11 16.25C10.5858 16.25 10.25 16.5858 10.25 17C10.25 17.4142 10.5858 17.75 11 17.75H18C18.4142 17.75 18.75 17.4142 18.75 17C18.75 16.5858 18.4142 16.25 18 16.25H11Z" fill="#424B5A"/>
</svg>
