<svg width="24" height="24" viewBox="0 0 24 24" fill="none" xmlns="http://www.w3.org/2000/svg">
<path fill-rule="evenodd" clip-rule="evenodd" d="M15.25 2.75H12.62H11.6H10C8.75421 2.75 7.75 3.75421 7.75 5C7.75 5.41421 7.41421 5.75 7 5.75C6.58579 5.75 6.25 5.41421 6.25 5C6.25 2.92579 7.92579 1.25 10 1.25H11.6H12.62H15.6C15.6694 1.25 15.7366 1.25942 15.8003 1.27706C16.0582 1.20576 16.3378 1.27718 16.5303 1.46969L22.5303 7.46969C22.5631 7.50247 22.5924 7.53778 22.618 7.57508C22.687 7.67525 22.7323 7.79302 22.7458 7.92029C22.749 7.95041 22.7504 7.98076 22.7499 8.01118V14.19C22.7499 16.1542 21.1542 17.75 19.1899 17.75C18.7757 17.75 18.4399 17.4142 18.4399 17C18.4399 16.5858 18.7757 16.25 19.1899 16.25C20.3257 16.25 21.2499 15.3258 21.2499 14.19V8.75002H19C17.8335 8.75002 16.8171 8.56527 16.1259 7.8741C15.4347 7.18293 15.25 6.16657 15.25 5.00002V2.75ZM2.75 12.6C2.75 10.674 3.1398 9.52086 3.83033 8.83033C4.52086 8.1398 5.67397 7.75 7.6 7.75H9.84998V10.2C9.84998 11.4416 10.0472 12.5079 10.7696 13.2304C11.4921 13.9528 12.5584 14.15 13.8 14.15H16.25V16.4C16.25 18.326 15.8602 19.4791 15.1697 20.1697C14.4791 20.8602 13.326 21.25 11.4 21.25H7.6C5.67397 21.25 4.52086 20.8602 3.83033 20.1697C3.1398 19.4791 2.75 18.326 2.75 16.4V12.6ZM17.5253 12.8647C17.664 13.0008 17.75 13.1904 17.75 13.4V16.4C17.75 18.474 17.3398 20.1209 16.2303 21.2303C15.1209 22.3398 13.474 22.75 11.4 22.75H7.6C5.52603 22.75 3.87914 22.3398 2.76967 21.2303C1.6602 20.1209 1.25 18.474 1.25 16.4V12.6C1.25 10.526 1.6602 8.87914 2.76967 7.76967C3.87914 6.6602 5.52603 6.25 7.6 6.25H10.5998H10.6C10.8097 6.25 10.9992 6.33602 11.1353 6.4747L17.5253 12.8647ZM11.35 10.2V8.81068L15.1893 12.65H13.8C12.6415 12.65 12.1079 12.4473 11.8303 12.1697C11.5527 11.8921 11.35 11.3585 11.35 10.2ZM16.75 5.00002V3.81068L20.1893 7.25002H19C17.9165 7.25002 17.4329 7.05977 17.1866 6.81344C16.9403 6.56711 16.75 6.08347 16.75 5.00002Z" fill="#424B5A"/>
</svg>
