<svg width="24" height="24" viewBox="0 0 24 24" fill="none" xmlns="http://www.w3.org/2000/svg">
<path fill-rule="evenodd" clip-rule="evenodd" d="M13.25 2.75H9C6.57397 2.75 5.07086 3.2398 4.15533 4.15533C3.2398 5.07086 2.75 6.57397 2.75 9V15C2.75 17.426 3.2398 18.9291 4.15533 19.8447C5.07086 20.7602 6.57397 21.25 9 21.25H15C17.426 21.25 18.9291 20.7602 19.8447 19.8447C20.7602 18.9291 21.25 17.426 21.25 15V10.75H18C16.4585 10.75 15.1921 10.5028 14.3447 9.65533C13.4972 8.80791 13.25 7.54155 13.25 6V2.75ZM22.5303 9.46967C22.5437 9.48308 22.5566 9.49691 22.5688 9.51112C22.6801 9.64051 22.7421 9.80184 22.7493 9.96741C22.7499 9.98018 22.7501 9.99297 22.75 10.0058M22.75 10.0058V15C22.75 17.574 22.2398 19.5709 20.9053 20.9053C19.5709 22.2398 17.574 22.75 15 22.75H9C6.42603 22.75 4.42914 22.2398 3.09467 20.9053C1.7602 19.5709 1.25 17.574 1.25 15V9C1.25 6.42603 1.7602 4.42914 3.09467 3.09467C4.42914 1.7602 6.42603 1.25 9 1.25H13.9941H14C14.0115 1.25 14.023 1.25026 14.0343 1.25077M14.5307 1.47004L22.5303 9.46967L14.5307 1.47004ZM14.75 6V3.81066L20.1893 9.25H18C16.5415 9.25 15.8079 8.99725 15.4053 8.59467C15.0028 8.19209 14.75 7.45845 14.75 6ZM10.4697 12.4697C10.7626 12.1768 11.2374 12.1768 11.5303 12.4697L13.5303 14.4697C13.6639 14.6032 13.7365 14.7746 13.7483 14.9494C13.7516 14.9982 13.7502 15.0474 13.7438 15.0964C13.7256 15.238 13.667 15.3753 13.568 15.4899C13.5547 15.5052 13.5408 15.52 13.5264 15.5343L11.5303 17.5303C11.2374 17.8232 10.7626 17.8232 10.4697 17.5303C10.1768 17.2374 10.1768 16.7626 10.4697 16.4697L11.1893 15.75H7C6.58579 15.75 6.25 15.4142 6.25 15C6.25 14.5858 6.58579 14.25 7 14.25H11.1893L10.4697 13.5303C10.1768 13.2374 10.1768 12.7626 10.4697 12.4697Z" fill="#424B5A"/>
</svg>
