<svg width="24" height="24" viewBox="0 0 24 24" fill="none" xmlns="http://www.w3.org/2000/svg">
<path fill-rule="evenodd" clip-rule="evenodd" d="M10 1.2498L9.92882 1.24966C9.48584 1.24841 8.77803 1.24639 8.20897 1.62576C7.67349 1.98275 7.38884 2.56176 7.29036 3.32335C5.84867 3.47525 4.60012 3.8844 3.70035 4.85837C2.6724 5.97108 2.25 7.65901 2.25 9.9998V15.9998C2.25 18.0131 2.48868 19.7687 3.56057 20.9937C4.65413 22.2435 6.43533 22.7498 9 22.7498H15C17.5647 22.7498 19.3459 22.2435 20.4394 20.9937C21.5113 19.7687 21.75 18.0131 21.75 15.9998V9.9998C21.75 7.65452 21.3278 5.96601 20.2993 4.85424C19.3992 3.88132 18.1504 3.47451 16.7096 3.32323C16.6111 2.5617 16.3265 1.98273 15.791 1.62576C15.222 1.24639 14.5142 1.24841 14.0712 1.24966L14 1.2498H10ZM15.25 4.01598C15.25 4.01843 15.25 4.02089 15.25 4.02334C15.2493 4.5714 15.2242 4.81148 15.126 4.95878C15.0822 5.02447 14.901 5.2498 14 5.2498H10C9.43524 5.2498 9.19042 5.22536 9.04103 5.12576C8.97533 5.08197 8.75 4.90075 8.75 3.9998C8.75 3.09885 8.97533 2.91763 9.04103 2.87384C9.19042 2.77424 9.43524 2.7498 10 2.7498H14C14.5648 2.7498 14.8096 2.77424 14.959 2.87384C15.0247 2.91763 15.25 3.09885 15.25 3.9998C15.25 4.00522 15.25 4.01061 15.25 4.01598ZM16.7122 4.83313C17.8895 4.97674 18.6723 5.30442 19.1982 5.87286C19.8372 6.5636 20.25 7.77508 20.25 9.9998V15.9998C20.25 17.9865 19.9887 19.2309 19.3106 20.0059C18.6541 20.7561 17.4353 21.2498 15 21.2498H9C6.56467 21.2498 5.34587 20.7561 4.68943 20.0059C4.01132 19.2309 3.75 17.9865 3.75 15.9998V9.9998C3.75 7.78059 4.1626 6.56852 4.80215 5.87623C5.33207 5.30261 6.12269 4.9727 7.31325 4.83024C7.42903 5.51615 7.71019 6.04131 8.20897 6.37384C8.77803 6.75321 9.48584 6.7512 9.92882 6.74994L10 6.7498H14C15.099 6.7498 15.9178 6.47514 16.374 5.79083C16.5743 5.49047 16.6683 5.15145 16.7122 4.83313Z" fill="#424B5A"/>
</svg>
