<svg width="24" height="24" viewBox="0 0 24 24" fill="none" xmlns="http://www.w3.org/2000/svg">
<path fill-rule="evenodd" clip-rule="evenodd" d="M4.7371 3.88534C4.09637 4.57535 3.75 5.61497 3.75 7V17C3.75 18.385 4.09637 19.4246 4.7371 20.1147C5.36848 20.7946 6.39295 21.25 8 21.25H16C17.607 21.25 18.6315 20.7946 19.2629 20.1147C19.9036 19.4246 20.25 18.385 20.25 17V7C20.25 5.61497 19.9036 4.57535 19.2629 3.88534C18.6315 3.20538 17.607 2.75 16 2.75H8C6.39295 2.75 5.36848 3.20538 4.7371 3.88534ZM3.6379 2.86466C4.63152 1.79462 6.10705 1.25 8 1.25H16C17.893 1.25 19.3685 1.79462 20.3621 2.86466C21.3464 3.92465 21.75 5.38503 21.75 7V17C21.75 18.615 21.3464 20.0754 20.3621 21.1353C19.3685 22.2054 17.893 22.75 16 22.75H8C6.10705 22.75 4.63152 22.2054 3.6379 21.1353C2.65363 20.0754 2.25 18.615 2.25 17V7C2.25 5.38503 2.65363 3.92465 3.6379 2.86466ZM14.5 3.75C14.9142 3.75 15.25 4.08579 15.25 4.5V6.5C15.25 7.18579 15.8142 7.75 16.5 7.75H18.5C18.9142 7.75 19.25 8.08579 19.25 8.5C19.25 8.91421 18.9142 9.25 18.5 9.25H16.5C14.9858 9.25 13.75 8.01421 13.75 6.5V4.5C13.75 4.08579 14.0858 3.75 14.5 3.75ZM10.8991 13.7683C11.0348 13.5592 11.3661 13.4469 11.6996 13.5537C12.2519 13.7334 12.5991 14.4768 12.354 15.2668C12.1621 15.8793 11.7165 16.3781 11.2258 16.7341C10.984 16.9096 10.7462 17.039 10.552 17.122C10.398 17.1878 10.3067 17.2095 10.2761 17.2166C10.2438 17.2089 10.1516 17.186 9.99886 17.1202C9.8064 17.0372 9.57081 16.9086 9.33058 16.7342C8.84414 16.3812 8.39547 15.8829 8.19397 15.2602C7.94467 14.4807 8.29373 13.7354 8.83951 13.554C9.15557 13.4558 9.49017 13.5568 9.6582 13.7938C9.80197 13.9965 10.0369 14.1149 10.2854 14.1098C10.5339 14.1047 10.7637 13.9768 10.8991 13.7683ZM12.1595 12.126C11.5953 11.9446 10.8549 11.9694 10.2585 12.3419C9.67858 11.9875 8.97032 11.9397 8.38414 12.1248L8.38413 12.1248L8.37682 12.1272C6.7849 12.6479 6.35618 14.4404 6.76578 15.7188L6.76636 15.7206C7.095 16.7375 7.79612 17.4739 8.44943 17.9482C8.77919 18.1875 9.1111 18.3709 9.40489 18.4975C9.67465 18.6139 9.98484 18.7143 10.2547 18.7198L10.27 18.7199C10.55 18.7199 10.8691 18.6177 11.1414 18.5013C11.4394 18.374 11.7748 18.189 12.1067 17.9483C12.7633 17.4719 13.4675 16.7311 13.7858 15.7139L13.7862 15.7125C14.1806 14.4432 13.7683 12.6474 12.1612 12.1265L12.1595 12.126Z" fill="#424B5A"/>
</svg>
