<svg width="24" height="24" viewBox="0 0 24 24" fill="none" xmlns="http://www.w3.org/2000/svg">
<path fill-rule="evenodd" clip-rule="evenodd" d="M13.25 2.75H9C6.57397 2.75 5.07086 3.2398 4.15533 4.15533C3.2398 5.07086 2.75 6.57397 2.75 9V15C2.75 17.426 3.2398 18.9291 4.15533 19.8447C5.07086 20.7602 6.57397 21.25 9 21.25H15C17.426 21.25 18.9291 20.7602 19.8447 19.8447C20.7602 18.9291 21.25 17.426 21.25 15V10.75H18C16.4585 10.75 15.1921 10.5028 14.3447 9.65533C13.4972 8.80791 13.25 7.54155 13.25 6V2.75ZM22.5303 9.46967C22.5437 9.48308 22.5566 9.49691 22.5688 9.51112C22.6801 9.64051 22.7421 9.80184 22.7493 9.96741C22.7499 9.98018 22.7501 9.99297 22.75 10.0058M22.75 10.0058V15C22.75 17.574 22.2398 19.5709 20.9053 20.9053C19.5709 22.2398 17.574 22.75 15 22.75H9C6.42603 22.75 4.42914 22.2398 3.09467 20.9053C1.7602 19.5709 1.25 17.574 1.25 15V9C1.25 6.42603 1.7602 4.42914 3.09467 3.09467C4.42914 1.7602 6.42603 1.25 9 1.25H13.9941H14C14.0115 1.25 14.023 1.25026 14.0343 1.25077M14.5307 1.47004L22.5303 9.46967L14.5307 1.47004ZM14.75 6V3.81066L20.1893 9.25H18C16.5415 9.25 15.8079 8.99725 15.4053 8.59467C15.0028 8.19209 14.75 7.45845 14.75 6ZM9.75 11C9.75 10.5858 9.41421 10.25 9 10.25C8.58579 10.25 8.25 10.5858 8.25 11V15.1893L7.53033 14.4697C7.23744 14.1768 6.76256 14.1768 6.46967 14.4697C6.17678 14.7626 6.17678 15.2374 6.46967 15.5303L8.46578 17.5264C8.47997 17.5408 8.49477 17.5547 8.51015 17.568C8.62467 17.6669 8.76201 17.7256 8.90357 17.7438C8.95257 17.7502 9.00184 17.7516 9.05064 17.7483C9.22537 17.7365 9.39677 17.6639 9.53033 17.5303L9.53105 17.5296L11.5303 15.5303C11.8232 15.2374 11.8232 14.7626 11.5303 14.4697C11.2374 14.1768 10.7626 14.1768 10.4697 14.4697L9.75 15.1893V11Z" fill="#424B5A"/>
</svg>
