<svg width="24" height="24" viewBox="0 0 24 24" fill="none" xmlns="http://www.w3.org/2000/svg">
<path fill-rule="evenodd" clip-rule="evenodd" d="M9.44999 1.25C8.42565 1.25 7.65005 1.50908 7.10857 2.06587C6.59499 2.59397 6.40456 3.2839 6.2856 3.85784L6.04667 5H5.47C5.05578 5 4.72 5.33579 4.72 5.75C4.72 6.16421 5.05578 6.5 5.47 6.5H5.73289L5.5033 7.59754C5.31958 7.71187 5.15711 7.85116 5.01661 8.01779C4.54424 8.57801 4.4616 9.30322 4.41313 9.8315L4.00324 14.2503C3.88063 15.5563 4.9247 16.65 6.21999 16.65H7.57999C8.07112 16.65 8.51653 16.5429 8.8533 16.2209C9.13173 15.9546 9.2479 15.6071 9.30722 15.4296L9.31902 15.3945L9.46821 14.967L9.47149 14.9571C9.57209 14.6553 9.60881 14.5992 9.63972 14.5703C9.64544 14.565 9.66625 14.5457 9.73206 14.5254C9.80461 14.503 9.93084 14.48 10.14 14.48H13.85C14.0693 14.48 14.1996 14.5014 14.2738 14.5227C14.3091 14.5328 14.3287 14.542 14.3381 14.5471C14.3467 14.5518 14.3498 14.5546 14.3508 14.5555L14.3508 14.5556C14.3523 14.5569 14.3691 14.5722 14.3991 14.6359C14.434 14.7101 14.4658 14.8018 14.5197 14.9608L14.67 15.3919L14.6802 15.4227C14.74 15.6055 14.8555 15.9582 15.1392 16.227C15.478 16.548 15.9246 16.65 16.41 16.65H17.77C19.0654 16.65 20.1095 15.5559 19.9867 14.2497L19.5768 9.83118C19.5283 9.30289 19.4458 8.57803 18.9734 8.01779C18.8358 7.85465 18.6772 7.71772 18.4982 7.60476L18.2671 6.5H18.53C18.9442 6.5 19.28 6.16421 19.28 5.75C19.28 5.33579 18.9442 5 18.53 5H17.9533L17.7142 3.85708C17.5953 3.28315 17.405 2.59396 16.8914 2.06587C16.3499 1.50908 15.5743 1.25 14.55 1.25H9.44999ZM7.05995 8.67999H16.93C17.5371 8.72186 17.7428 8.88534 17.8266 8.98472C17.9591 9.14188 18.0317 9.40762 18.0832 9.9693L18.4933 14.3903C18.5303 14.784 18.2145 15.15 17.77 15.15H16.41C16.2778 15.15 16.2053 15.1373 16.1703 15.128L16.1694 15.1261C16.1492 15.083 16.1296 15.027 16.0916 14.9128L15.9393 14.4762L15.9228 14.4271C15.8383 14.1738 15.6996 13.7584 15.3667 13.4519C14.975 13.0914 14.4518 12.98 13.85 12.98H10.14C9.52007 12.98 9.00095 13.114 8.61524 13.4747C8.27762 13.7903 8.14075 14.204 8.05992 14.4483L8.05007 14.478L7.90181 14.903L7.90023 14.9077C7.86148 15.0211 7.84203 15.0763 7.82122 15.1205L7.81801 15.1272C7.78449 15.1365 7.7121 15.15 7.57999 15.15H6.21999C5.77546 15.15 5.45963 14.784 5.49669 14.3903L5.90685 9.96854C5.95838 9.40686 6.03085 9.14188 6.16337 8.98471C6.24716 8.88534 6.45291 8.72186 7.05995 8.67999ZM16.8759 7.17511L16.2456 4.16218C16.1345 3.62626 16.0098 3.31082 15.8161 3.11164C15.6501 2.94093 15.3257 2.75 14.55 2.75H9.44999C8.67433 2.75 8.34993 2.94093 8.18392 3.11164C7.99021 3.31082 7.86545 3.62626 7.7544 4.16218L7.12422 7.1747C7.20453 7.17154 7.28645 7.16998 7.36998 7.16998H16.62C16.707 7.16998 16.7923 7.17167 16.8759 7.17511ZM6.89999 10.83C6.89999 10.4158 7.23577 10.08 7.64999 10.08H9.82C10.2342 10.08 10.57 10.4158 10.57 10.83C10.57 11.2442 10.2342 11.58 9.82 11.58H7.64999C7.23577 11.58 6.89999 11.2442 6.89999 10.83ZM14.18 10.08C13.7658 10.08 13.43 10.4158 13.43 10.83C13.43 11.2442 13.7658 11.58 14.18 11.58H16.35C16.7642 11.58 17.1 11.2442 17.1 10.83C17.1 10.4158 16.7642 10.08 16.35 10.08H14.18ZM12 16.25C12.4142 16.25 12.75 16.5858 12.75 17V18C12.75 18.4142 12.4142 18.75 12 18.75C11.5858 18.75 11.25 18.4142 11.25 18V17C11.25 16.5858 11.5858 16.25 12 16.25ZM12.75 21C12.75 20.5858 12.4142 20.25 12 20.25C11.5858 20.25 11.25 20.5858 11.25 21V22C11.25 22.4142 11.5858 22.75 12 22.75C12.4142 22.75 12.75 22.4142 12.75 22V21ZM3.1819 17.2724C3.58374 17.3729 3.82806 17.7801 3.7276 18.1819L2.7276 22.1819C2.62714 22.5837 2.21994 22.8281 1.81809 22.7276C1.41625 22.6271 1.17193 22.2199 1.27239 21.8181L2.27239 17.8181C2.37285 17.4163 2.78005 17.1719 3.1819 17.2724ZM21.7276 17.8181C21.6271 17.4163 21.2199 17.1719 20.8181 17.2724C20.4162 17.3729 20.1719 17.7801 20.2724 18.1819L21.2724 22.1819C21.3728 22.5837 21.7801 22.8281 22.1819 22.7276C22.5837 22.6271 22.8281 22.2199 22.7276 21.8181L21.7276 17.8181Z" fill="#424B5A"/>
</svg>
