<svg width="24" height="24" viewBox="0 0 24 24" fill="none" xmlns="http://www.w3.org/2000/svg">
<path fill-rule="evenodd" clip-rule="evenodd" d="M3.09467 3.09467C4.42914 1.7602 6.42603 1.25 9 1.25H15C17.574 1.25 19.5709 1.7602 20.9053 3.09467C22.2398 4.42914 22.75 6.42603 22.75 9V12V15C22.75 17.574 22.2398 19.5709 20.9053 20.9053C19.5709 22.2398 17.574 22.75 15 22.75H9C6.42603 22.75 4.42914 22.2398 3.09467 20.9053C1.7602 19.5709 1.25 17.574 1.25 15V12V9C1.25 6.42603 1.7602 4.42914 3.09467 3.09467ZM2.75 12.75V15C2.75 17.426 3.2398 18.9291 4.15533 19.8447C5.07086 20.7602 6.57397 21.25 9 21.25H15C17.426 21.25 18.9291 20.7602 19.8447 19.8447C20.7602 18.9291 21.25 17.426 21.25 15V12.75H2.75ZM21.25 11.25H2.75V9C2.75 6.57397 3.2398 5.07086 4.15533 4.15533C5.07086 3.2398 6.57397 2.75 9 2.75H15C17.426 2.75 18.9291 3.2398 19.8447 4.15533C20.7602 5.07086 21.25 6.57397 21.25 9V11.25ZM6.75 6.25C6.75 5.83579 6.41421 5.5 6 5.5C5.58579 5.5 5.25 5.83579 5.25 6.25V8.25C5.25 8.66421 5.58579 9 6 9C6.41421 9 6.75 8.66421 6.75 8.25V6.25ZM10.75 6.25C10.75 5.83579 10.4142 5.5 10 5.5C9.58579 5.5 9.25 5.83579 9.25 6.25V8.25C9.25 8.66421 9.58579 9 10 9C10.4142 9 10.75 8.66421 10.75 8.25V6.25ZM6.75 16C6.75 15.5858 6.41421 15.25 6 15.25C5.58579 15.25 5.25 15.5858 5.25 16V18C5.25 18.4142 5.58579 18.75 6 18.75C6.41421 18.75 6.75 18.4142 6.75 18V16ZM10 15.25C10.4142 15.25 10.75 15.5858 10.75 16V18C10.75 18.4142 10.4142 18.75 10 18.75C9.58579 18.75 9.25 18.4142 9.25 18V16C9.25 15.5858 9.58579 15.25 10 15.25ZM14 6.5C13.5858 6.5 13.25 6.83579 13.25 7.25C13.25 7.66421 13.5858 8 14 8H18C18.4142 8 18.75 7.66421 18.75 7.25C18.75 6.83579 18.4142 6.5 18 6.5H14ZM13.25 17C13.25 16.5858 13.5858 16.25 14 16.25H18C18.4142 16.25 18.75 16.5858 18.75 17C18.75 17.4142 18.4142 17.75 18 17.75H14C13.5858 17.75 13.25 17.4142 13.25 17Z" fill="#424B5A"/>
</svg>
