<svg width="24" height="24" viewBox="0 0 24 24" fill="none" xmlns="http://www.w3.org/2000/svg">
<path fill-rule="evenodd" clip-rule="evenodd" d="M2.76001 4.68977C2.76001 3.62581 3.63241 2.75977 4.69002 2.75977H19.32C20.384 2.75977 21.25 3.63216 21.25 4.68977V7.31978C21.25 8.37557 20.3758 9.24977 19.32 9.24977H4.69002C3.62604 9.24977 2.76001 8.37738 2.76001 7.31978V4.68977ZM4.69002 1.25977C2.80763 1.25977 1.26001 2.79374 1.26001 4.68977V7.31978C1.26001 9.20218 2.79399 10.7498 4.69002 10.7498H19.32C21.2042 10.7498 22.75 9.20399 22.75 7.31978V4.68977C22.75 2.80739 21.2161 1.25977 19.32 1.25977H4.69002ZM2.76001 16.6898C2.76001 15.6258 3.63241 14.7598 4.69002 14.7598H19.32C20.384 14.7598 21.25 15.6322 21.25 16.6898V19.3198C21.25 20.3756 20.3758 21.2498 19.32 21.2498H4.69002C3.62604 21.2498 2.76001 20.3774 2.76001 19.3198V16.6898ZM4.69002 13.2598C2.80763 13.2598 1.26001 14.7937 1.26001 16.6898V19.3198C1.26001 21.2022 2.79399 22.7498 4.69002 22.7498H19.32C21.2042 22.7498 22.75 21.204 22.75 19.3198V16.6898C22.75 14.8074 21.2161 13.2598 19.32 13.2598H4.69002ZM6.00002 4.24977C6.41423 4.24977 6.75002 4.58556 6.75002 4.99977V6.99977C6.75002 7.41398 6.41423 7.74977 6.00002 7.74977C5.5858 7.74977 5.25002 7.41398 5.25002 6.99977V4.99977C5.25002 4.58556 5.5858 4.24977 6.00002 4.24977ZM10.75 4.99977C10.75 4.58556 10.4142 4.24977 10 4.24977C9.5858 4.24977 9.25002 4.58556 9.25002 4.99977V6.99977C9.25002 7.41398 9.5858 7.74977 10 7.74977C10.4142 7.74977 10.75 7.41398 10.75 6.99977V4.99977ZM6.00002 16.2498C6.41423 16.2498 6.75002 16.5856 6.75002 16.9998V18.9998C6.75002 19.414 6.41423 19.7498 6.00002 19.7498C5.5858 19.7498 5.25002 19.414 5.25002 18.9998V16.9998C5.25002 16.5856 5.5858 16.2498 6.00002 16.2498ZM10.75 16.9998C10.75 16.5856 10.4142 16.2498 10 16.2498C9.5858 16.2498 9.25002 16.5856 9.25002 16.9998V18.9998C9.25002 19.414 9.5858 19.7498 10 19.7498C10.4142 19.7498 10.75 19.414 10.75 18.9998V16.9998ZM13.25 5.99977C13.25 5.58556 13.5858 5.24977 14 5.24977H18C18.4142 5.24977 18.75 5.58556 18.75 5.99977C18.75 6.41398 18.4142 6.74977 18 6.74977H14C13.5858 6.74977 13.25 6.41398 13.25 5.99977ZM14 17.2498C13.5858 17.2498 13.25 17.5856 13.25 17.9998C13.25 18.414 13.5858 18.7498 14 18.7498H18C18.4142 18.7498 18.75 18.414 18.75 17.9998C18.75 17.5856 18.4142 17.2498 18 17.2498H14Z" fill="#424B5A"/>
</svg>
