<svg width="24" height="24" viewBox="0 0 24 24" fill="none" xmlns="http://www.w3.org/2000/svg">
<path fill-rule="evenodd" clip-rule="evenodd" d="M2.79113 4.04861C2.78529 4.05919 2.77735 4.07583 2.76946 4.09709C2.76121 4.11936 2.75543 4.14018 2.75211 4.15619C2.75097 4.16174 2.75033 4.16565 2.75 4.16795V6.49547C2.75027 6.49763 2.75104 6.50318 2.75304 6.51206C2.75688 6.52918 2.76338 6.55019 2.7723 6.57161C2.77989 6.58982 2.78722 6.6035 2.79241 6.61202C3.38365 7.13265 3.93653 7.27702 4.36762 7.24467C4.80599 7.21177 5.18888 6.99243 5.44455 6.65724L5.45188 6.64739C5.63506 6.40533 5.74994 6.0837 5.74994 5.75V4.84998C5.74994 4.51627 5.63506 4.19464 5.45188 3.95258C5.43662 3.93242 5.42249 3.91164 5.4095 3.89033C5.37413 3.84798 5.3408 3.81156 5.30967 3.78043C4.79057 3.26133 3.76464 3.04504 2.79113 4.04861ZM4.47987 8.74047C5.23062 8.68413 5.89886 8.35382 6.39232 7.84998H7.75V11.3776C6.87542 11.686 6.25 12.5189 6.25 13.5V17.5C6.25 18.4811 6.87542 19.314 7.75 19.6224V22C7.75 22.4142 8.08579 22.75 8.5 22.75C8.91421 22.75 9.25 22.4142 9.25 22V19.6224C10.1246 19.314 10.75 18.4811 10.75 17.5V13.5C10.75 12.5189 10.1246 11.686 9.25 11.3776V7.6679C9.57113 7.539 9.86033 7.34559 10.1003 7.10036C10.5719 6.63873 10.8499 5.98768 10.8499 5.29999C10.8499 3.89576 9.70413 2.75 8.29993 2.75H6.40012C6.39024 2.73982 6.38031 2.72975 6.37033 2.71977C5.23273 1.58217 3.22847 1.41787 1.68749 3.03223L1.68744 3.03218L1.68042 3.03974C1.52499 3.20713 1.42424 3.41054 1.36305 3.57556C1.30086 3.74327 1.25 3.95122 1.25 4.16007V6.5001C1.25 6.73161 1.30934 6.9605 1.3877 7.14856C1.46387 7.33135 1.58965 7.55154 1.78335 7.72207C2.63639 8.48024 3.58249 8.80781 4.47987 8.74047ZM8.48636 12.7501C8.49089 12.7502 8.49544 12.7502 8.5 12.7502C8.50456 12.7502 8.50911 12.7502 8.51364 12.7501C8.92307 12.7573 9.25 13.0888 9.25 13.5V17.5C9.25 17.9158 8.91579 18.25 8.5 18.25C8.08421 18.25 7.75 17.9158 7.75 17.5V13.5C7.75 13.0888 8.07693 12.7573 8.48636 12.7501ZM8.29993 6.34998H7.18901C7.22897 6.15477 7.25 5.95374 7.25 5.7501V4.85007C7.25 4.64599 7.2289 4.44503 7.18904 4.25H8.29993C8.87573 4.25 9.34995 4.72422 9.34995 5.29999C9.34995 5.58827 9.23131 5.85367 9.04784 6.03158C9.04232 6.03694 9.03688 6.04238 9.03153 6.0479C8.85207 6.23297 8.59599 6.34998 8.29993 6.34998ZM16.25 7.84998H17.6077C18.1011 8.35382 18.7694 8.68413 19.5201 8.74047C20.4173 8.8078 21.3632 8.48036 22.2162 7.7225C22.4101 7.55191 22.5361 7.33151 22.6123 7.14856C22.6907 6.9605 22.75 6.73161 22.75 6.5001V4.16007C22.75 3.95122 22.6991 3.74327 22.637 3.57556C22.5758 3.41054 22.475 3.20713 22.3196 3.03974L22.3196 3.0397L22.3125 3.03223C20.7715 1.41787 18.7673 1.58217 17.6297 2.71977C17.6197 2.72975 17.6098 2.73982 17.5999 2.75H15.7C14.2958 2.75 13.15 3.89576 13.15 5.29999C13.15 5.98768 13.4281 6.63873 13.8996 7.10036C14.1397 7.34559 14.4289 7.53901 14.75 7.66791V22.0002C14.75 22.4145 15.0858 22.7502 15.5 22.7502C15.9142 22.7502 16.25 22.4145 16.25 22.0002V7.84998ZM19.6324 7.24467C19.1936 7.21175 18.8105 6.99205 18.5548 6.65637L18.5481 6.64739C18.3649 6.40533 18.25 6.0837 18.25 5.75V4.84998C18.25 4.51627 18.3649 4.19464 18.5481 3.95258C18.5633 3.93245 18.5774 3.91171 18.5904 3.89045C18.6258 3.84805 18.6592 3.81159 18.6903 3.78043C19.2094 3.26133 20.2354 3.04504 21.2089 4.04861C21.2147 4.05919 21.2227 4.07583 21.2305 4.09709C21.2388 4.11936 21.2446 4.14018 21.2479 4.15619C21.249 4.16174 21.2497 4.16565 21.25 4.16795V6.49547C21.2497 6.49763 21.249 6.50318 21.247 6.51206C21.2431 6.52918 21.2366 6.55019 21.2277 6.57161C21.2201 6.58982 21.2128 6.6035 21.2076 6.61202C20.6164 7.13265 20.0635 7.27702 19.6324 7.24467ZM14.65 5.29999C14.65 4.72422 15.1242 4.25 15.7 4.25H16.811C16.7711 4.44503 16.75 4.64599 16.75 4.85007V5.7501C16.75 5.95374 16.771 6.15477 16.811 6.34998H15.7C15.404 6.34998 15.1479 6.23297 14.9684 6.0479C14.9631 6.04238 14.9577 6.03694 14.9521 6.03158C14.7687 5.85367 14.65 5.58827 14.65 5.29999Z" fill="#424B5A"/>
</svg>
