<svg width="24" height="24" viewBox="0 0 24 24" fill="none" xmlns="http://www.w3.org/2000/svg">
<path fill-rule="evenodd" clip-rule="evenodd" d="M15.5174 1.43726C16.6841 1.28806 17.8645 1.76518 19.0639 2.89373L19.0653 2.89503C20.2688 4.03312 20.8166 5.18762 20.7344 6.3635C20.655 7.49975 19.9963 8.46146 19.2452 9.25501L17.9748 10.5996C17.9225 10.6825 17.8546 10.7541 17.7756 10.8105L11.0392 17.9407C10.8079 18.1926 10.4964 18.406 10.2011 18.5639C9.90203 18.7238 9.55607 18.8606 9.23128 18.9184L9.22628 18.9193L6.00743 19.469C5.22687 19.6036 4.47837 19.4086 3.94516 18.9029C3.41271 18.398 3.17742 17.6616 3.26459 16.8771L3.26484 16.8749L3.63645 13.6208C3.67961 13.2971 3.79982 12.9468 3.94153 12.643C4.08273 12.3402 4.27538 12.0191 4.50336 11.7764L4.50483 11.7749L11.3367 4.54356C11.3423 4.53746 11.348 4.53146 11.3537 4.52555L12.7148 3.08489C13.4664 2.29102 14.3899 1.58143 15.5174 1.43726ZM18.1548 8.22489L17.0417 9.40307C14.8919 9.03545 13.175 7.41154 12.698 5.28693L13.8047 4.11556C14.473 3.40968 15.0952 3.00345 15.7076 2.92514C15.8679 2.90465 16.0423 2.90496 16.2323 2.93661C16.7219 3.01816 17.3149 3.30776 18.0355 3.98564C19.0414 4.93718 19.2784 5.68244 19.2381 6.2589C19.2042 6.74338 18.9672 7.24497 18.5422 7.78071C18.4268 7.92614 18.2976 8.07409 18.1548 8.22489ZM5.59664 12.8035L11.5121 6.54216C12.2545 8.50379 13.8601 10.0197 15.8585 10.6554L9.94474 16.9148L9.93578 16.9246C9.85762 17.0104 9.70146 17.1301 9.49388 17.241C9.28912 17.3505 9.09611 17.4185 8.97083 17.4412L5.75372 17.9907L5.75257 17.9909C5.37313 18.0563 5.12163 17.9513 4.97734 17.8145C4.83242 17.6771 4.71279 17.4287 4.7553 17.0438L4.75541 17.0428L5.12422 13.8133C5.14209 13.6867 5.20171 13.4898 5.30097 13.2769C5.40206 13.0602 5.51466 12.8909 5.59664 12.8035ZM3 21.25C2.58579 21.25 2.25 21.5857 2.25 22C2.25 22.4142 2.58579 22.75 3 22.75H21C21.4142 22.75 21.75 22.4142 21.75 22C21.75 21.5857 21.4142 21.25 21 21.25H3Z" fill="#424B5A"/>
</svg>
