<svg width="24" height="24" viewBox="0 0 24 24" fill="none" xmlns="http://www.w3.org/2000/svg">
<path fill-rule="evenodd" clip-rule="evenodd" d="M10.25 2C10.25 1.58579 9.91421 1.25 9.5 1.25C9.08579 1.25 8.75 1.58579 8.75 2V4.25H8.42006C6.95585 4.25 5.76006 5.44579 5.76006 6.91V11.9984C5.75469 13.2688 6.18631 14.4607 7.01912 15.3406C7.85798 16.2268 9.0605 16.75 10.5 16.75H11.25V22C11.25 22.4142 11.5858 22.75 12 22.75C12.4142 22.75 12.75 22.4142 12.75 22V16.75H13.5C14.9397 16.75 16.1419 16.2267 16.9818 15.3411C17.8158 14.4615 18.25 13.27 18.25 12V6.91C18.25 5.44579 17.0543 4.25 15.59 4.25H15.25V2C15.25 1.58579 14.9142 1.25 14.5 1.25C14.0858 1.25 13.75 1.58579 13.75 2V4.25H10.25V2ZM12 15.25H13.5C14.5604 15.25 15.3582 14.8733 15.8933 14.3089C16.4343 13.7385 16.75 12.93 16.75 12V6.91C16.75 6.27422 16.2258 5.75 15.59 5.75H14.5H9.5H8.42006C7.78428 5.75 7.26006 6.27422 7.26006 6.91V12.0034C7.25584 12.9323 7.56919 13.7397 8.10849 14.3094C8.64213 14.8732 9.4396 15.25 10.5 15.25H12Z" fill="#424B5A"/>
</svg>
