<svg width="24" height="24" viewBox="0 0 24 24" fill="none" xmlns="http://www.w3.org/2000/svg">
<path fill-rule="evenodd" clip-rule="evenodd" d="M9 1.25C6.42603 1.25 4.42914 1.7602 3.09467 3.09467C1.7602 4.42914 1.25 6.42603 1.25 9V15C1.25 17.574 1.7602 19.5709 3.09467 20.9053C4.42914 22.2398 6.42603 22.75 9 22.75H15C17.574 22.75 19.5709 22.2398 20.9053 20.9053C22.2398 19.5709 22.75 17.574 22.75 15V9C22.75 6.42603 22.2398 4.42914 20.9053 3.09467C19.5709 1.7602 17.574 1.25 15 1.25H9ZM2.75 9C2.75 6.57397 3.2398 5.07086 4.15533 4.15533C5.07086 3.2398 6.57397 2.75 9 2.75H15C17.426 2.75 18.9291 3.2398 19.8447 4.15533C20.7602 5.07086 21.25 6.57397 21.25 9V15C21.25 17.426 20.7602 18.9291 19.8447 19.8447C18.9291 20.7602 17.426 21.25 15 21.25H9C6.57397 21.25 5.07086 20.7602 4.15533 19.8447C3.2398 18.9291 2.75 17.426 2.75 15V9ZM14.75 8.25C14.75 7.83579 15.0858 7.5 15.5 7.5C15.9142 7.5 16.25 7.83579 16.25 8.25C16.25 8.66421 15.9142 9 15.5 9C15.0858 9 14.75 8.66421 14.75 8.25ZM15.5 6C14.2574 6 13.25 7.00736 13.25 8.25C13.25 9.49264 14.2574 10.5 15.5 10.5C16.7426 10.5 17.75 9.49264 17.75 8.25C17.75 7.00736 16.7426 6 15.5 6ZM8.5 7.5C8.08579 7.5 7.75 7.83579 7.75 8.25C7.75 8.66421 8.08579 9 8.5 9C8.91421 9 9.25 8.66421 9.25 8.25C9.25 7.83579 8.91421 7.5 8.5 7.5ZM6.25 8.25C6.25 7.00736 7.25736 6 8.5 6C9.74264 6 10.75 7.00736 10.75 8.25C10.75 9.49264 9.74264 10.5 8.5 10.5C7.25736 10.5 6.25 9.49264 6.25 8.25ZM8.25 14.2C8.25 14.1142 8.31421 14.05 8.4 14.05H15.6C15.6858 14.05 15.75 14.1142 15.75 14.2C15.75 16.2758 14.0758 17.95 12 17.95C9.92421 17.95 8.25 16.2758 8.25 14.2ZM8.4 12.55C7.48579 12.55 6.75 13.2858 6.75 14.2C6.75 17.1042 9.09579 19.45 12 19.45C14.9042 19.45 17.25 17.1042 17.25 14.2C17.25 13.2858 16.5142 12.55 15.6 12.55H8.4Z" fill="#424B5A"/>
</svg>
