<svg width="24" height="24" viewBox="0 0 24 24" fill="none" xmlns="http://www.w3.org/2000/svg">
<path fill-rule="evenodd" clip-rule="evenodd" d="M9 1.25C6.42603 1.25 4.42914 1.7602 3.09467 3.09467C1.7602 4.42914 1.25 6.42603 1.25 9V15C1.25 17.574 1.7602 19.5709 3.09467 20.9053C4.42914 22.2398 6.42603 22.75 9 22.75H15C17.574 22.75 19.5709 22.2398 20.9053 20.9053C22.2398 19.5709 22.75 17.574 22.75 15V9C22.75 6.42603 22.2398 4.42914 20.9053 3.09467C19.5709 1.7602 17.574 1.25 15 1.25H9ZM2.75 9C2.75 6.57397 3.2398 5.07086 4.15533 4.15533C5.07086 3.2398 6.57397 2.75 9 2.75H15C17.426 2.75 18.9291 3.2398 19.8447 4.15533C20.7602 5.07086 21.25 6.57397 21.25 9V15C21.25 17.426 20.7602 18.9291 19.8447 19.8447C18.9291 20.7602 17.426 21.25 15 21.25H9C6.57397 21.25 5.07086 20.7602 4.15533 19.8447C3.2398 18.9291 2.75 17.426 2.75 15V9ZM11.1677 8.78296C11.462 8.49153 11.4644 8.01666 11.173 7.72231C10.8815 7.42797 10.4067 7.42561 10.1123 7.71704C9.39313 8.4291 8.23599 8.42533 7.53033 7.71967C7.23744 7.42678 6.76256 7.42678 6.46967 7.71967C6.17678 8.01256 6.17678 8.48744 6.46967 8.78033C7.76401 10.0747 9.86687 10.0709 11.1677 8.78296ZM17.533 7.72231C17.8244 8.01666 17.822 8.49153 17.5277 8.78296C16.2269 10.0709 14.124 10.0747 12.8297 8.78033C12.5368 8.48744 12.5368 8.01256 12.8297 7.71967C13.1226 7.42678 13.5974 7.42678 13.8903 7.71967C14.596 8.42533 15.7531 8.4291 16.4723 7.71704C16.7667 7.42561 17.2415 7.42797 17.533 7.72231ZM8.25 13.9C8.25 13.8142 8.31421 13.75 8.4 13.75H15.6C15.6858 13.75 15.75 13.8142 15.75 13.9C15.75 15.9758 14.0758 17.65 12 17.65C9.92421 17.65 8.25 15.9758 8.25 13.9ZM8.4 12.25C7.48579 12.25 6.75 12.9858 6.75 13.9C6.75 16.8042 9.09579 19.15 12 19.15C14.9042 19.15 17.25 16.8042 17.25 13.9C17.25 12.9858 16.5142 12.25 15.6 12.25H8.4Z" fill="#424B5A"/>
</svg>
