<svg width="24" height="24" viewBox="0 0 24 24" fill="none" xmlns="http://www.w3.org/2000/svg">
<path fill-rule="evenodd" clip-rule="evenodd" d="M9 1.25C6.42603 1.25 4.42914 1.7602 3.09467 3.09467C1.7602 4.42914 1.25 6.42603 1.25 9V15C1.25 17.574 1.7602 19.5709 3.09467 20.9053C4.42914 22.2398 6.42603 22.75 9 22.75H15C17.574 22.75 19.5709 22.2398 20.9053 20.9053C22.2398 19.5709 22.75 17.574 22.75 15V9C22.75 6.42603 22.2398 4.42914 20.9053 3.09467C19.5709 1.7602 17.574 1.25 15 1.25H9ZM2.75 9C2.75 6.57397 3.2398 5.07086 4.15533 4.15533C5.07086 3.2398 6.57397 2.75 9 2.75H15C17.426 2.75 18.9291 3.2398 19.8447 4.15533C20.7602 5.07086 21.25 6.57397 21.25 9V15C21.25 17.426 20.7602 18.9291 19.8447 19.8447C18.9291 20.7602 17.426 21.25 15 21.25H9C6.57397 21.25 5.07086 20.7602 4.15533 19.8447C3.2398 18.9291 2.75 17.426 2.75 15V9ZM7.53033 9.28033C8.23599 8.57467 9.39313 8.5709 10.1123 9.28296C10.4067 9.57439 10.8815 9.57203 11.173 9.27769C11.4644 8.98334 11.462 8.50847 11.1677 8.21704C9.86687 6.9291 7.76401 6.92533 6.46967 8.21967C6.17678 8.51256 6.17678 8.98744 6.46967 9.28033C6.76256 9.57322 7.23744 9.57322 7.53033 9.28033ZM16.4723 9.28296C15.7531 8.5709 14.596 8.57467 13.8903 9.28033C13.5974 9.57322 13.1226 9.57322 12.8297 9.28033C12.5368 8.98744 12.5368 8.51256 12.8297 8.21967C14.124 6.92533 16.2269 6.9291 17.5277 8.21704C17.822 8.50847 17.8244 8.98334 17.533 9.27769C17.2415 9.57203 16.7667 9.57439 16.4723 9.28296ZM12 11.55C9.09579 11.55 6.75 13.8958 6.75 16.8C6.75 17.7142 7.48578 18.45 8.4 18.45H15.6C16.5142 18.45 17.25 17.7142 17.25 16.8C17.25 13.8958 14.9042 11.55 12 11.55ZM8.25 16.8C8.25 14.7242 9.92421 13.05 12 13.05C14.0758 13.05 15.75 14.7242 15.75 16.8C15.75 16.8858 15.6858 16.95 15.6 16.95H8.4C8.31422 16.95 8.25 16.8858 8.25 16.8Z" fill="#424B5A"/>
</svg>
