<svg width="24" height="24" viewBox="0 0 24 24" fill="none" xmlns="http://www.w3.org/2000/svg">
<path fill-rule="evenodd" clip-rule="evenodd" d="M14.1 3.95016C14.1 3.14263 13.293 2.58825 12.5458 2.87144L4.60542 5.87159C3.78865 6.1808 3.25 6.96061 3.25 7.84017V8.15615C4.04926 7.43796 5.10509 7.00012 6.26 7.00012H14.1V3.95016ZM3.25 12.4101V11.5101C3.25 9.85434 4.60422 8.50012 6.26 8.50012H14.8441L14.85 8.50014L14.8559 8.50012H17.74C19.3958 8.50012 20.75 9.85434 20.75 11.5101V12.2001H19.48C19.3333 12.2001 19.1887 12.2113 19.0472 12.2331C18.4574 12.3238 17.9209 12.5992 17.5081 13.0203C16.9393 13.5793 16.611 14.3848 16.6918 15.247C16.8211 16.7696 18.1893 17.8003 19.5988 17.8003H20.75V18.2401C20.75 19.8959 19.3958 21.2501 17.74 21.2501H9.17688C9.54483 20.5788 9.75 19.8078 9.75 19.0001C9.75 16.3759 7.62421 14.2501 5 14.2501C4.38335 14.2501 3.79266 14.3696 3.25 14.5859V12.4101ZM1.75 15.5369V12.4101V11.5101V7.84017C1.75 6.33985 2.67153 4.99955 4.07458 4.46866L12.0142 1.46882C13.747 0.812004 15.6 2.09768 15.6 3.95016V7.00012H17.74C20.2242 7.00012 22.25 9.02592 22.25 11.5101V12.353C22.8723 12.6279 23.3088 13.2444 23.3088 13.9703V16.0303C23.3088 16.7562 22.8723 17.3727 22.25 17.6476V18.2401C22.25 20.7243 20.2242 22.7501 17.74 22.7501H7.90347C7.1002 23.3847 6.09126 23.7501 5 23.7501C3.26803 23.7501 1.75937 22.8247 0.938481 21.4487C0.498304 20.7328 0.25 19.8886 0.25 19.0001C0.25 17.6392 0.821261 16.403 1.75 15.5369ZM2.96746 16.4666L2.96618 16.4676C2.221 17.0589 1.75 17.9747 1.75 19.0001C1.75 19.6095 1.92052 20.1834 2.21838 20.6665L2.22467 20.6767L2.22459 20.6767C2.7844 21.6178 3.81412 22.2501 5 22.2501C5.82187 22.2501 6.56301 21.9507 7.1266 21.4442C7.13361 21.4378 7.14075 21.4316 7.14804 21.4255C7.39099 21.2217 7.60515 20.9685 7.77216 20.6822L7.78162 20.6665C7.81885 20.6061 7.8541 20.5443 7.88726 20.4812C8.11945 20.0394 8.25 19.5333 8.25 19.0001C8.25 17.2043 6.79579 15.7501 5 15.7501C4.23847 15.7501 3.53157 16.017 2.96748 16.4666L2.96746 16.4666ZM21.5167 16.3003H21.5416C21.7032 16.2899 21.8088 16.1635 21.8088 16.0303V13.9703C21.8088 13.8372 21.7032 13.7107 21.5416 13.7003H19.4788C19.4103 13.7003 19.3434 13.7054 19.2783 13.7152C19.0029 13.7571 18.7614 13.8843 18.5774 14.0733L18.5639 14.0868C18.2978 14.3465 18.1492 14.7163 18.1866 15.109L18.1875 15.1178L18.1874 15.1178C18.2403 15.7528 18.8509 16.3001 19.6 16.3001H21.5L21.5167 16.3003ZM6.25 12.0001C6.25 11.5859 6.58579 11.2501 7 11.2501H14C14.4142 11.2501 14.75 11.5859 14.75 12.0001C14.75 12.4143 14.4142 12.7501 14 12.7501H7C6.58579 12.7501 6.25 12.4143 6.25 12.0001ZM2.76172 18.9796C2.76172 18.5654 3.09751 18.2296 3.51172 18.2296H4.25V17.5197C4.25 17.1054 4.58579 16.7697 5 16.7697C5.41421 16.7697 5.75 17.1054 5.75 17.5197V18.2296H6.49171C6.90593 18.2296 7.24171 18.5654 7.24171 18.9796C7.24171 19.3938 6.90593 19.7296 6.49171 19.7296H5.75V20.5096C5.75 20.9239 5.41421 21.2596 5 21.2596C4.58579 21.2596 4.25 20.9239 4.25 20.5096V19.7296H3.51172C3.09751 19.7296 2.76172 19.3938 2.76172 18.9796Z" fill="#424B5A"/>
</svg>
