<svg width="24" height="24" viewBox="0 0 24 24" fill="none" xmlns="http://www.w3.org/2000/svg">
<path fill-rule="evenodd" clip-rule="evenodd" d="M12.5458 2.87144C13.293 2.58825 14.1 3.14264 14.1 3.95016V7.00012H6.25999C5.10509 7.00012 4.04926 7.43796 3.25 8.15615V7.84017C3.25 6.96061 3.78865 6.1808 4.60542 5.87159L12.5458 2.87144ZM3.25 11.5101V12.4101V13.2401C3.25 13.6543 2.91421 13.9901 2.5 13.9901C2.08579 13.9901 1.75 13.6543 1.75 13.2401V12.4101V11.5101V7.84017C1.75 6.33985 2.67153 4.99954 4.07458 4.46866L12.0142 1.46882C13.747 0.812005 15.6 2.09768 15.6 3.95016V7.00012H17.74C20.2242 7.00012 22.25 9.02592 22.25 11.5101V12.353C22.8723 12.6279 23.3088 13.2444 23.3088 13.9703V16.0303C23.3088 16.7562 22.8723 17.3727 22.25 17.6476V18.2401C22.25 20.7243 20.2242 22.7501 17.74 22.7501H12.26C11.8458 22.7501 11.51 22.4143 11.51 22.0001C11.51 21.5859 11.8458 21.2501 12.26 21.2501H17.74C19.3958 21.2501 20.75 19.8959 20.75 18.2401V17.8003H19.5988C18.1893 17.8003 16.8211 16.7696 16.6918 15.247C16.611 14.3848 16.9393 13.5793 17.5081 13.0203C17.9136 12.6067 18.4383 12.3337 19.0157 12.2382C19.0364 12.2347 19.057 12.2315 19.0778 12.2286C19.2095 12.2098 19.3439 12.2001 19.48 12.2001H20.75V11.5101C20.75 9.85434 19.3958 8.50012 17.74 8.50012H14.8559L14.85 8.50014L14.8441 8.50012H6.25999C4.60421 8.50012 3.25 9.85434 3.25 11.5101ZM21.5 16.3001L21.5167 16.3003H21.5416C21.7032 16.2899 21.8088 16.1635 21.8088 16.0303V13.9703C21.8088 13.8372 21.7032 13.7107 21.5416 13.7003H19.4788C19.4103 13.7003 19.3433 13.7054 19.2783 13.7152C19.0029 13.7571 18.7614 13.8843 18.5773 14.0733L18.5639 14.0868C18.2978 14.3465 18.1492 14.7163 18.1866 15.109L18.1875 15.1178L18.1874 15.1178C18.2403 15.7528 18.8509 16.3001 19.6 16.3001H21.5ZM7 11.2501C6.58579 11.2501 6.25 11.5859 6.25 12.0001C6.25 12.4143 6.58579 12.7501 7 12.7501H14C14.4142 12.7501 14.75 12.4143 14.75 12.0001C14.75 11.5859 14.4142 11.2501 14 11.2501H7ZM4.80457 15.7501C5.04194 15.4556 5.02387 15.0234 4.75034 14.7498C4.45745 14.4569 3.98257 14.4569 3.68968 14.7498L2.46997 15.9695L2.46968 15.9698C2.32902 16.1104 2.25 16.3012 2.25 16.5001C2.25 16.699 2.32902 16.8898 2.46968 17.0305L2.46997 17.0308C2.60567 17.1663 2.79305 17.2501 3 17.2501H4.80457C4.78777 17.2293 4.76969 17.2091 4.75032 17.1898L4.06067 16.5001L4.75032 15.8105C4.76969 15.7911 4.78777 15.771 4.80457 15.7501ZM3 18.5901C3.41421 18.5901 3.75 18.9259 3.75 19.3401V20.6201C3.75 20.8459 3.93424 21.0302 4.16 21.0302H7.69648C7.45931 20.7356 7.47746 20.3035 7.75093 20.0301C8.04382 19.7372 8.5187 19.7372 8.81159 20.0301L10.0316 21.2501C10.1722 21.3908 10.2513 21.5816 10.2513 21.7805C10.2512 21.9794 10.1722 22.1701 10.0316 22.3108L8.81157 23.5308C8.51868 23.8237 8.0438 23.8236 7.75091 23.5308C7.47729 23.2571 7.4593 22.8247 7.69693 22.5302H4.16C3.10576 22.5302 2.25 21.6743 2.25 20.6201V19.3401C2.25 18.9259 2.58579 18.5901 3 18.5901Z" fill="#424B5A"/>
</svg>
