<svg width="24" height="24" viewBox="0 0 24 24" fill="none" xmlns="http://www.w3.org/2000/svg">
<path fill-rule="evenodd" clip-rule="evenodd" d="M12.5409 2.87313L12.5427 2.87244C13.2988 2.59336 14.1 3.1501 14.1 3.94999V6.99998H6.25999C5.10509 6.99998 4.04926 7.43782 3.25 8.15601V7.84C3.25 6.96044 3.78865 6.18063 4.60542 5.87142L12.5409 2.87313ZM1.75 11.51V7.84C1.75 6.33968 2.67153 4.99937 4.07458 4.46849L12.0191 1.46677C13.7425 0.827449 15.6 2.09052 15.6 3.94999V6.99998H17.74C20.2242 6.99998 22.25 9.02578 22.25 11.51V12.3528C22.8723 12.6278 23.3088 13.2443 23.3088 13.9701V16.0302C23.3088 16.7561 22.8723 17.3725 22.25 17.6475V18.24C22.25 20.7242 20.2242 22.75 17.74 22.75H7.90824C7.10399 23.3722 6.09789 23.75 5 23.75C2.37579 23.75 0.25 21.6242 0.25 19C0.25 17.6391 0.821261 16.4029 1.75 15.5367V11.51V11.51ZM5 22.25C5.81619 22.25 6.56273 21.9442 7.14468 21.4368L7.1457 21.4359C7.82158 20.841 8.25 19.973 8.25 19C8.25 17.2042 6.79579 15.75 5 15.75C4.23847 15.75 3.53157 16.0168 2.96748 16.4665L2.96746 16.4665L2.96618 16.4675C2.221 17.0588 1.75 17.9745 1.75 19C1.75 20.7958 3.20421 22.25 5 22.25ZM17.74 21.25H9.18199C9.54324 20.5822 9.75 19.8164 9.75 19C9.75 16.3758 7.62421 14.25 5 14.25C4.38335 14.25 3.79266 14.3695 3.25 14.5857V11.51C3.25 9.8542 4.60421 8.49998 6.25999 8.49998H17.74C19.3958 8.49998 20.75 9.8542 20.75 11.51V12.2H19.48C19.3444 12.2 19.2107 12.2095 19.0795 12.2282C19.0617 12.2307 19.044 12.2334 19.0264 12.2363C18.4448 12.3302 17.9161 12.604 17.5081 13.0201C16.9393 13.5792 16.611 14.3847 16.6918 15.2469C16.8211 16.7695 18.1893 17.8002 19.5988 17.8002H20.75V18.24C20.75 19.8958 19.3958 21.25 17.74 21.25ZM21.5 16.3L21.5167 16.3002H21.5416C21.7032 16.2897 21.8088 16.1633 21.8088 16.0302V13.9701C21.8088 13.837 21.7032 13.7106 21.5416 13.7002H19.4788C19.4103 13.7002 19.3433 13.7052 19.2783 13.7151C19.0029 13.7569 18.7614 13.8841 18.5773 14.0732L18.5639 14.0867C18.2978 14.3464 18.1492 14.7162 18.1866 15.1089L18.1875 15.1177L18.1874 15.1177C18.2403 15.7527 18.8509 16.3 19.6 16.3H21.5ZM7 11.25C6.58579 11.25 6.25 11.5858 6.25 12C6.25 12.4142 6.58579 12.75 7 12.75H14C14.4142 12.75 14.75 12.4142 14.75 12C14.75 11.5858 14.4142 11.25 14 11.25H7ZM6.00001 17.75C6.00001 17.3358 5.66422 17 5.25001 17C4.83579 17 4.50001 17.3358 4.50001 17.75V18.8253L3.61413 19.3569C3.25895 19.57 3.14378 20.0307 3.35689 20.3859C3.57 20.741 4.03069 20.8562 4.38588 20.6431L5.63588 19.8931C5.86178 19.7576 6.00001 19.5134 6.00001 19.25V17.75Z" fill="#424B5A"/>
</svg>
