<svg width="24" height="24" viewBox="0 0 24 24" fill="none" xmlns="http://www.w3.org/2000/svg">
<path fill-rule="evenodd" clip-rule="evenodd" d="M12.5458 2.87129C13.293 2.5881 14.1 3.14248 14.1 3.95001V6.99998H6.26C5.10509 6.99998 4.04926 7.43782 3.25 8.15601V7.84002C3.25 6.96046 3.78865 6.18065 4.60542 5.87144L12.5458 2.87129ZM3.25 11.51V12.41V18.24C3.25 19.8958 4.60422 21.25 6.26 21.25H17.74C19.3958 21.25 20.75 19.8958 20.75 18.24V17.8002H19.5988C18.1893 17.8002 16.8211 16.7695 16.6918 15.2469C16.611 14.3847 16.9393 13.5792 17.5081 13.0201C17.9131 12.6071 18.4371 12.3342 19.0137 12.2384C19.035 12.2348 19.0564 12.2315 19.0778 12.2284C19.2095 12.2096 19.3439 12.2 19.48 12.2H20.75V11.51C20.75 9.85421 19.3958 8.49998 17.74 8.49998H14.8538L14.85 8.49999L14.8462 8.49998H6.26C4.60422 8.49998 3.25 9.85421 3.25 11.51ZM22.25 18.24V17.6475C22.8723 17.3725 23.3088 16.7561 23.3088 16.0302V13.9701C23.3088 13.2443 22.8723 12.6278 22.25 12.3528V11.51C22.25 9.02578 20.2242 6.99998 17.74 6.99998H15.6V3.95001C15.6 2.09768 13.7469 0.812233 12.0142 1.46866L4.07458 4.46851C2.67154 4.99939 1.75 6.3397 1.75 7.84002V11.51V12.41V18.24C1.75 20.7242 3.77578 22.75 6.26 22.75H17.74C20.2242 22.75 22.25 20.7242 22.25 18.24ZM21.5416 16.3002H21.5167L21.5 16.3H19.6C18.8509 16.3 18.2403 15.7527 18.1874 15.1177L18.1875 15.1177L18.1866 15.1089C18.1492 14.7162 18.2978 14.3464 18.5639 14.0867L18.5774 14.0732C18.7606 13.885 19.0008 13.758 19.2747 13.7156C19.3409 13.7054 19.409 13.7002 19.4788 13.7002H21.5416C21.7032 13.7106 21.8088 13.837 21.8088 13.9701V16.0302C21.8088 16.1633 21.7032 16.2897 21.5416 16.3002ZM7 11.25C6.58579 11.25 6.25 11.5858 6.25 12C6.25 12.4142 6.58579 12.75 7 12.75H14C14.4142 12.75 14.75 12.4142 14.75 12C14.75 11.5858 14.4142 11.25 14 11.25H7Z" fill="#424B5A"/>
</svg>
