<svg width="24" height="24" viewBox="0 0 24 24" fill="none" xmlns="http://www.w3.org/2000/svg">
<path fill-rule="evenodd" clip-rule="evenodd" d="M14.1 3.95001C14.1 3.14248 13.293 2.5881 12.5458 2.87129L4.60542 5.87144C3.78865 6.18065 3.25 6.96046 3.25 7.84002V8.15601C4.04926 7.43782 5.10509 6.99998 6.26 6.99998H14.1V3.95001ZM3.25 12.41V11.51C3.25 9.85421 4.60421 8.49998 6.26 8.49998H14.8462L14.85 8.49999L14.8538 8.49998H17.74C19.3958 8.49998 20.75 9.85421 20.75 11.51V12.2H19.48C19.3439 12.2 19.2095 12.2096 19.0778 12.2284C19.0564 12.2315 19.0351 12.2348 19.0139 12.2383C18.4372 12.3341 17.9132 12.607 17.5081 13.0201C16.9393 13.5792 16.611 14.3847 16.6918 15.2469C16.8211 16.7695 18.1893 17.8002 19.5988 17.8002H20.75V18.24C20.75 19.8958 19.3958 21.25 17.74 21.25H9.17688C9.54483 20.5787 9.75 19.8076 9.75 19C9.75 16.3758 7.62421 14.25 5 14.25C4.38335 14.25 3.79266 14.3695 3.25 14.5857V12.41ZM1.75 15.5367V12.41V11.51V7.84002C1.75 6.3397 2.67154 4.99939 4.07458 4.46851L12.0142 1.46866C13.7469 0.812233 15.6 2.09768 15.6 3.95001V6.99998H17.74C20.2242 6.99998 22.25 9.02578 22.25 11.51V12.3528C22.8723 12.6278 23.3088 13.2443 23.3088 13.9701V16.0302C23.3088 16.7561 22.8723 17.3725 22.25 17.6475V18.24C22.25 20.7242 20.2242 22.75 17.74 22.75H7.90348C7.1002 23.3845 6.09126 23.75 5 23.75C3.26803 23.75 1.75937 22.8246 0.938481 21.4485C0.498304 20.7327 0.25 19.8885 0.25 19C0.25 17.6391 0.821261 16.4029 1.75 15.5367ZM2.96746 16.4665L2.96618 16.4675C2.221 17.0588 1.75 17.9745 1.75 19C1.75 19.6094 1.92052 20.1833 2.21838 20.6663L2.22467 20.6765L2.22459 20.6766C2.7844 21.6177 3.81412 22.25 5 22.25C5.82187 22.25 6.56301 21.9505 7.1266 21.444C7.13361 21.4377 7.14076 21.4315 7.14804 21.4253C7.39099 21.2216 7.60515 20.9684 7.77216 20.6821L7.78162 20.6663C7.81885 20.6059 7.8541 20.5441 7.88726 20.481C8.11945 20.0393 8.25 19.5332 8.25 19C8.25 17.2042 6.79579 15.75 5 15.75C4.23847 15.75 3.53157 16.0168 2.96748 16.4665L2.96746 16.4665ZM21.5167 16.3002H21.5416C21.7032 16.2897 21.8088 16.1633 21.8088 16.0302V13.9701C21.8088 13.837 21.7032 13.7106 21.5416 13.7002H19.4788C19.4103 13.7002 19.3434 13.7052 19.2783 13.7151C19.0029 13.7569 18.7614 13.8841 18.5774 14.0732L18.5639 14.0867C18.2978 14.3464 18.1492 14.7162 18.1866 15.1089L18.1875 15.1177L18.1874 15.1177C18.2403 15.7527 18.8509 16.3 19.6 16.3H21.5L21.5167 16.3002ZM6.25 12C6.25 11.5858 6.58579 11.25 7 11.25H14C14.4142 11.25 14.75 11.5858 14.75 12C14.75 12.4142 14.4142 12.75 14 12.75H7C6.58579 12.75 6.25 12.4142 6.25 12ZM3.41842 17.4009C3.71062 17.1073 4.18549 17.1062 4.47907 17.3984L5.01509 17.9319L5.52093 17.4284C5.81451 17.1362 6.28938 17.1373 6.58158 17.4309C6.87378 17.7245 6.87266 18.1994 6.57907 18.4916L6.07827 18.99L6.59907 19.5084C6.89266 19.8006 6.89378 20.2754 6.60158 20.569C6.30938 20.8626 5.83451 20.8637 5.54093 20.5715L5.01509 20.0482L4.45907 20.6016C4.16549 20.8938 3.69062 20.8927 3.39842 20.5991C3.10622 20.3055 3.10734 19.8306 3.40093 19.5384L3.95191 18.99L3.42093 18.4616C3.12734 18.1694 3.12622 17.6945 3.41842 17.4009Z" fill="#424B5A"/>
</svg>
