<svg width="24" height="24" viewBox="0 0 24 24" fill="none" xmlns="http://www.w3.org/2000/svg">
<path fill-rule="evenodd" clip-rule="evenodd" d="M12.5458 2.87144C13.293 2.58825 14.1 3.14264 14.1 3.95016V7.00012H6.25999C5.10509 7.00012 4.04926 7.43796 3.25 8.15615V7.84017C3.25 6.96061 3.78865 6.1808 4.60542 5.87159L12.5458 2.87144ZM3.25 11.5101V12.4101V14.5859C3.79266 14.3696 4.38335 14.2501 5 14.2501C7.62421 14.2501 9.75 16.3759 9.75 19.0001C9.75 19.8078 9.54483 20.5788 9.17688 21.2501H17.74C19.3958 21.2501 20.75 19.8959 20.75 18.2401V17.8003H19.5988C18.1893 17.8003 16.8211 16.7696 16.6918 15.247C16.611 14.3848 16.9393 13.5793 17.5081 13.0203C17.9132 12.6071 18.4373 12.3342 19.0141 12.2384C19.0352 12.2349 19.0565 12.2316 19.0778 12.2286C19.2095 12.2098 19.3439 12.2001 19.48 12.2001H20.75V11.5101C20.75 9.85434 19.3958 8.50012 17.74 8.50012H14.8559L14.85 8.50014L14.8441 8.50012H6.25999C4.60421 8.50012 3.25 9.85434 3.25 11.5101ZM1.75 12.4101V15.5369C0.821261 16.403 0.25 17.6392 0.25 19.0001C0.25 19.8886 0.498304 20.7328 0.938481 21.4487C1.75937 22.8247 3.26803 23.7501 5 23.7501C6.09126 23.7501 7.1002 23.3847 7.90348 22.7501H17.74C20.2242 22.7501 22.25 20.7243 22.25 18.2401V17.6476C22.8723 17.3727 23.3088 16.7562 23.3088 16.0303V13.9703C23.3088 13.2444 22.8723 12.6279 22.25 12.353V11.5101C22.25 9.02592 20.2242 7.00012 17.74 7.00012H15.6V3.95016C15.6 2.09768 13.747 0.812005 12.0142 1.46882L4.07458 4.46866C2.67153 4.99954 1.75 6.33985 1.75 7.84017V11.5101V12.4101ZM2.96618 16.4676L2.96746 16.4666L2.96748 16.4666C3.53157 16.017 4.23847 15.7501 5 15.7501C6.79579 15.7501 8.25 17.2043 8.25 19.0001C8.25 19.5333 8.11945 20.0394 7.88726 20.4812C7.8541 20.5443 7.81885 20.6061 7.78162 20.6665L7.77216 20.6822C7.60515 20.9685 7.39099 21.2217 7.14805 21.4255C7.14076 21.4316 7.13361 21.4378 7.12661 21.4442C6.56302 21.9507 5.82187 22.2501 5 22.2501C3.81412 22.2501 2.7844 21.6178 2.22459 20.6767L2.22467 20.6767L2.21838 20.6665C1.92052 20.1834 1.75 19.6095 1.75 19.0001C1.75 17.9747 2.221 17.0589 2.96618 16.4676ZM21.5416 16.3003H21.5167L21.5 16.3001H19.6C18.8509 16.3001 18.2403 15.7528 18.1874 15.1178L18.1875 15.1178L18.1866 15.109C18.1492 14.7163 18.2978 14.3465 18.5639 14.0868L18.5773 14.0733C18.7614 13.8843 19.0029 13.7571 19.2783 13.7152C19.3433 13.7054 19.4103 13.7003 19.4788 13.7003H21.5416C21.7032 13.7107 21.8088 13.8372 21.8088 13.9703V16.0303C21.8088 16.1635 21.7032 16.2899 21.5416 16.3003ZM7 11.2501C6.58579 11.2501 6.25 11.5859 6.25 12.0001C6.25 12.4143 6.58579 12.7501 7 12.7501H14C14.4142 12.7501 14.75 12.4143 14.75 12.0001C14.75 11.5859 14.4142 11.2501 14 11.2501H7ZM7.07064 18.5703C7.37474 18.289 7.39326 17.8145 7.11201 17.5104C6.83077 17.2063 6.35625 17.1878 6.05216 17.469L4.45169 18.9493L3.97174 18.4693C3.67884 18.1764 3.20397 18.1764 2.91108 18.4693C2.61818 18.7622 2.61818 19.2371 2.91108 19.53L3.90107 20.52C4.18591 20.8048 4.6449 20.8138 4.94064 20.5402L7.07064 18.5703Z" fill="#424B5A"/>
</svg>
