<svg width="24" height="24" viewBox="0 0 24 24" fill="none" xmlns="http://www.w3.org/2000/svg">
<path fill-rule="evenodd" clip-rule="evenodd" d="M12.8086 2.38094C14.2634 0.91497 16.6491 0.918661 18.1103 2.37988L21.6181 5.88761L21.6192 5.88874C23.0853 7.34351 23.0816 9.72929 21.6204 11.1905L15.4025 17.4084L15.4003 17.4105L15.3982 17.4127L11.5606 21.2502H21C21.4142 21.2502 21.75 21.586 21.75 22.0002C21.75 22.4144 21.4142 22.7502 21 22.7502H9C8.91659 22.7502 8.83638 22.7366 8.76143 22.7115C7.7292 22.7708 6.67567 22.4066 5.88965 21.6205L2.37964 18.1105L2.77223 17.718L2.37964 18.1105C0.918406 16.6493 0.914726 14.2636 2.38073 12.8088L2.38192 12.8076L6.58783 8.60173L6.58966 8.59988L6.59151 8.59804L12.8074 2.38217L12.8086 2.38094ZM6.08 19.6896L4.31542 17.925L9.5801 12.651L11.3493 14.4202L6.08 19.6896ZM7.15203 20.7389C8.03581 21.4331 9.32547 21.371 10.1274 20.5622L10.1296 20.5599L13.8093 16.8802L12.41 15.4809L7.15203 20.7389ZM3.26554 16.8535L8.51944 11.5903L7.11999 10.1909L3.4403 13.8705L3.43802 13.8728C2.62757 14.6763 2.56684 15.9696 3.26554 16.8535ZM14.87 15.8196L8.18066 9.13021L13.8704 3.44055L13.8726 3.43826C14.738 2.56546 16.1713 2.56217 17.0497 3.44054L20.5597 6.95054L20.562 6.95281C21.4348 7.81815 21.4381 9.25151 20.5597 10.1299L14.87 15.8196Z" fill="#424B5A"/>
</svg>
