<svg width="24" height="24" viewBox="0 0 24 24" fill="none" xmlns="http://www.w3.org/2000/svg">
<path fill-rule="evenodd" clip-rule="evenodd" d="M9 1.25C6.42603 1.25 4.42914 1.7602 3.09467 3.09467C1.7602 4.42914 1.25 6.42603 1.25 9V15C1.25 17.574 1.7602 19.5709 3.09467 20.9053C4.42914 22.2398 6.42603 22.75 9 22.75H15C17.574 22.75 19.5709 22.2398 20.9053 20.9053C22.2398 19.5709 22.75 17.574 22.75 15V13C22.75 12.5858 22.4142 12.25 22 12.25C21.5858 12.25 21.25 12.5858 21.25 13V15C21.25 17.426 20.7602 18.9291 19.8447 19.8447C18.9291 20.7602 17.426 21.25 15 21.25H9C6.57397 21.25 5.07086 20.7602 4.15533 19.8447C3.2398 18.9291 2.75 17.426 2.75 15V9C2.75 6.57397 3.2398 5.07086 4.15533 4.15533C5.07086 3.2398 6.57397 2.75 9 2.75H11C11.4142 2.75 11.75 2.41421 11.75 2C11.75 1.58579 11.4142 1.25 11 1.25H9ZM16.45 2C16.45 1.58579 16.7858 1.25 17.2 1.25H22C22.4142 1.25 22.75 1.58579 22.75 2V6.8C22.75 7.21421 22.4142 7.55 22 7.55C21.5858 7.55 21.25 7.21421 21.25 6.8V3.81066L13.5303 11.5303C13.2374 11.8232 12.7626 11.8232 12.4697 11.5303C12.1768 11.2374 12.1768 10.7626 12.4697 10.4697L20.1893 2.75H17.2C16.7858 2.75 16.45 2.41421 16.45 2Z" fill="#424B5A"/>
</svg>
