<svg width="24" height="24" viewBox="0 0 24 24" fill="none" xmlns="http://www.w3.org/2000/svg">
<path fill-rule="evenodd" clip-rule="evenodd" d="M1.25 12C1.25 6.06579 6.06579 1.25 12 1.25C12.4142 1.25 12.75 1.58579 12.75 2C12.75 2.41421 12.4142 2.75 12 2.75C6.89421 2.75 2.75 6.89421 2.75 12C2.75 17.1058 6.89421 21.25 12 21.25C17.1058 21.25 21.25 17.1058 21.25 12C21.25 11.5858 21.5858 11.25 22 11.25C22.4142 11.25 22.75 11.5858 22.75 12C22.75 17.9342 17.9342 22.75 12 22.75C6.06579 22.75 1.25 17.9342 1.25 12ZM20.1893 2.75L12.4697 10.4697C12.1768 10.7626 12.1768 11.2374 12.4697 11.5303C12.7626 11.8232 13.2374 11.8232 13.5303 11.5303L21.25 3.81066V6.83C21.25 7.24421 21.5858 7.58 22 7.58C22.4142 7.58 22.75 7.24421 22.75 6.83V2C22.75 1.58579 22.4142 1.25 22 1.25H17.17C16.7558 1.25 16.42 1.58579 16.42 2C16.42 2.41421 16.7558 2.75 17.17 2.75H20.1893Z" fill="#424B5A"/>
</svg>
