<svg width="24" height="24" viewBox="0 0 24 24" fill="none" xmlns="http://www.w3.org/2000/svg">
<path fill-rule="evenodd" clip-rule="evenodd" d="M11.88 3.18994C12.0789 3.18994 12.2697 3.26896 12.4103 3.40961L14.9703 5.96961C15.2632 6.2625 15.2632 6.73738 14.9703 7.03027C14.6774 7.32316 14.2026 7.32316 13.9097 7.03027L12.63 5.7506V14.1799C12.63 14.5942 12.2942 14.9299 11.88 14.9299C11.4658 14.9299 11.13 14.5942 11.13 14.1799V5.7506L9.85033 7.03027C9.55744 7.32316 9.08256 7.32316 8.78967 7.03027C8.49678 6.73738 8.49678 6.2625 8.78967 5.96961L11.3497 3.40961C11.4903 3.26896 11.6811 3.18994 11.88 3.18994ZM4.75 11.9999C4.75 11.5857 4.41421 11.2499 4 11.2499C3.58579 11.2499 3.25 11.5857 3.25 11.9999C3.25 14.3793 4.05888 16.5714 5.58123 18.174C7.10922 19.7825 9.31157 20.7499 12 20.7499C14.6884 20.7499 16.8908 19.7825 18.4188 18.174C19.9411 16.5714 20.75 14.3793 20.75 11.9999C20.75 11.5857 20.4142 11.2499 20 11.2499C19.5858 11.2499 19.25 11.5857 19.25 11.9999C19.25 14.0406 18.5589 15.8485 17.3312 17.1409C16.1092 18.4273 14.3116 19.2499 12 19.2499C9.68843 19.2499 7.89078 18.4273 6.66877 17.1409C5.44112 15.8485 4.75 14.0406 4.75 11.9999Z" fill="#424B5A"/>
</svg>
