<svg width="24" height="24" viewBox="0 0 24 24" fill="none" xmlns="http://www.w3.org/2000/svg">
<path fill-rule="evenodd" clip-rule="evenodd" d="M4.75 7C4.75 5.67044 5.18991 4.62075 5.90533 3.90533C6.62075 3.18991 7.67044 2.75 9 2.75H16C17.3296 2.75 18.3793 3.18991 19.0947 3.90533C19.8101 4.62075 20.25 5.67044 20.25 7V14.25H4.75V7ZM3.25 15V7C3.25 5.32956 3.81009 3.87925 4.84467 2.84467C5.87925 1.81009 7.32956 1.25 9 1.25H16C17.6704 1.25 19.1207 1.81009 20.1553 2.84467C21.1899 3.87925 21.75 5.32956 21.75 7V15V17C21.75 18.6704 21.1899 20.1207 20.1553 21.1553C19.1207 22.1899 17.6704 22.75 16 22.75H9C7.32956 22.75 5.87925 22.1899 4.84467 21.1553C3.81009 20.1207 3.25 18.6704 3.25 17V15ZM20.25 15.75V17C20.25 18.3296 19.8101 19.3793 19.0947 20.0947C18.3793 20.8101 17.3296 21.25 16 21.25H9C7.67044 21.25 6.62075 20.8101 5.90533 20.0947C5.18991 19.3793 4.75 18.3296 4.75 17V15.75H20.25ZM6.25 12C6.25 11.5858 6.58579 11.25 7 11.25H8C8.41421 11.25 8.75 11.5858 8.75 12C8.75 12.4142 8.41421 12.75 8 12.75H7C6.58579 12.75 6.25 12.4142 6.25 12ZM7 8.75C6.58579 8.75 6.25 9.08579 6.25 9.5C6.25 9.91421 6.58579 10.25 7 10.25H8C8.41421 10.25 8.75 9.91421 8.75 9.5C8.75 9.08579 8.41421 8.75 8 8.75H7ZM6.25 7C6.25 6.58579 6.58579 6.25 7 6.25H8C8.41421 6.25 8.75 6.58579 8.75 7C8.75 7.41421 8.41421 7.75 8 7.75H7C6.58579 7.75 6.25 7.41421 6.25 7ZM16.4945 17.25C15.9422 17.25 15.4945 17.6977 15.4945 18.25C15.4945 18.8023 15.9422 19.25 16.4945 19.25H16.5035C17.0558 19.25 17.5035 18.8023 17.5035 18.25C17.5035 17.6977 17.0558 17.25 16.5035 17.25H16.4945Z" fill="#424B5A"/>
</svg>
