<svg width="24" height="24" viewBox="0 0 24 24" fill="none" xmlns="http://www.w3.org/2000/svg">
<path fill-rule="evenodd" clip-rule="evenodd" d="M22.5303 2.53033C22.8232 2.23744 22.8232 1.76256 22.5303 1.46967C22.2374 1.17678 21.7626 1.17678 21.4697 1.46967L17.9808 4.95856C16.183 3.68491 14.1337 2.98 12 2.98C8.15202 2.98 4.64841 5.2486 2.25749 9.00696C1.7123 9.86138 1.465 10.956 1.465 12.005C1.465 13.054 1.71229 14.1486 2.25746 15.003C3.01279 16.1886 3.88593 17.2323 4.84014 18.0992L1.46967 21.4697C1.17678 21.7626 1.17678 22.2374 1.46967 22.5303C1.76256 22.8232 2.23744 22.8232 2.53033 22.5303L9.99931 15.0613L10.0003 15.0603L15.0603 10.0003C15.0607 9.99999 15.061 9.99965 15.0613 9.99931L22.5303 2.53033ZM14.4843 8.45502L16.9025 6.03681C15.3877 5.01887 13.7128 4.48 12 4.48C8.78815 4.48 5.71189 6.3712 3.52282 9.81254L3.52219 9.81353C3.16761 10.369 2.965 11.1642 2.965 12.005C2.965 12.8458 3.16761 13.641 3.52219 14.1965L3.52254 14.197C4.22611 15.3014 5.0334 16.2574 5.90217 17.0372L8.45502 14.4843C7.96047 13.7816 7.67 12.9266 7.67 12C7.67 9.60579 9.60579 7.67 12 7.67C12.9266 7.67 13.7816 7.96047 14.4843 8.45502ZM9.17 12C9.17 10.4342 10.4342 9.17 12 9.17C12.5104 9.17 12.9865 9.30393 13.399 9.54029L9.54029 13.399C9.30393 12.9865 9.17 12.5104 9.17 12ZM19.5799 7.34559C19.9027 7.08598 20.3748 7.13717 20.6344 7.45993C21.0183 7.9372 21.3954 8.45005 21.7432 8.99813C22.2879 9.85237 22.535 10.9464 22.535 11.995C22.535 13.044 22.2877 14.1386 21.7425 14.993C19.3516 18.7514 15.848 21.02 12 21.02C10.6635 21.02 9.35483 20.7374 8.12896 20.2212C7.7472 20.0605 7.56804 19.6207 7.72877 19.239C7.88951 18.8572 8.32929 18.678 8.71104 18.8388C9.76517 19.2826 10.8765 19.52 12 19.52C15.2119 19.52 18.2881 17.6288 20.4772 14.1875L20.4778 14.1865C20.8324 13.631 21.035 12.8358 21.035 11.995C21.035 11.1542 20.8324 10.359 20.4778 9.80353L20.4768 9.80187C20.1646 9.30995 19.8217 8.8428 19.4656 8.40007C19.206 8.07731 19.2572 7.6052 19.5799 7.34559ZM16.2476 12.836C16.3227 12.4287 16.0534 12.0375 15.646 11.9624C15.2387 11.8873 14.8475 12.1566 14.7724 12.564C14.5688 13.6681 13.6581 14.5788 12.554 14.7824C12.1466 14.8575 11.8773 15.2487 11.9524 15.656C12.0275 16.0634 12.4187 16.3327 12.826 16.2576C14.5419 15.9412 15.9312 14.5519 16.2476 12.836Z" fill="#424B5A"/>
</svg>
