<svg width="24" height="24" viewBox="0 0 24 24" fill="none" xmlns="http://www.w3.org/2000/svg">
<path fill-rule="evenodd" clip-rule="evenodd" d="M12 9.16973C10.4342 9.16973 9.17 10.4339 9.17 11.9997C9.17 13.5655 10.4342 14.8297 12 14.8297C13.5658 14.8297 14.83 13.5655 14.83 11.9997C14.83 10.4339 13.5658 9.16973 12 9.16973ZM7.67 11.9997C7.67 9.60551 9.60578 7.66973 12 7.66973C14.3942 7.66973 16.33 9.60551 16.33 11.9997C16.33 14.3939 14.3942 16.3297 12 16.3297C9.60578 16.3297 7.67 14.3939 7.67 11.9997Z" fill="#424B5A"/>
<path fill-rule="evenodd" clip-rule="evenodd" d="M2.25749 8.99669C4.64841 5.23833 8.15202 2.96973 12 2.96973C15.8481 2.96973 19.3519 5.23852 21.7428 8.99718C22.2878 9.85152 22.535 10.9459 22.535 11.9947C22.535 13.0436 22.2878 14.1379 21.7428 14.9923C19.3519 18.7509 15.8481 21.0197 12 21.0197C8.15185 21.0197 4.6481 18.7509 2.25718 14.9923C1.7122 14.1379 1.465 13.0436 1.465 11.9947C1.465 10.9457 1.71229 9.8511 2.25749 8.99669ZM12 4.46973C8.78814 4.46973 5.71189 6.36093 3.52281 9.80227L3.52219 9.80325C3.1676 10.3588 2.965 11.154 2.965 11.9947C2.965 12.8355 3.1676 13.6307 3.52219 14.1862L3.52282 14.1872C5.71189 17.6285 8.78814 19.5197 12 19.5197C15.2118 19.5197 18.2881 17.6285 20.4772 14.1872L20.4778 14.1862C20.8324 13.6307 21.035 12.8355 21.035 11.9947C21.035 11.154 20.8324 10.3588 20.4778 9.80325L20.4772 9.80227C18.2881 6.36093 15.2118 4.46973 12 4.46973Z" fill="#424B5A"/>
</svg>
