<svg width="24" height="24" viewBox="0 0 24 24" fill="none" xmlns="http://www.w3.org/2000/svg">
<path fill-rule="evenodd" clip-rule="evenodd" d="M3.09467 3.09467C4.42914 1.7602 6.42603 1.25 9 1.25H15C17.574 1.25 19.5709 1.7602 20.9053 3.09467C22.2398 4.42914 22.75 6.42603 22.75 9V13C22.75 13.4142 22.4142 13.75 22 13.75C21.5858 13.75 21.25 13.4142 21.25 13V9C21.25 6.57397 20.7602 5.07086 19.8447 4.15533C18.9291 3.2398 17.426 2.75 15 2.75H9C6.57397 2.75 5.07086 3.2398 4.15533 4.15533C3.2398 5.07086 2.75 6.57397 2.75 9V15C2.75 17.426 3.2398 18.9291 4.15533 19.8447C5.07086 20.7602 6.57397 21.25 9 21.25H13C13.4142 21.25 13.75 21.5858 13.75 22C13.75 22.4142 13.4142 22.75 13 22.75H9C6.42603 22.75 4.42914 22.2398 3.09467 20.9053C1.7602 19.5709 1.25 17.574 1.25 15V9C1.25 6.42603 1.7602 4.42914 3.09467 3.09467ZM17.1295 8.91723C17.4569 9.171 17.5165 9.64211 17.2628 9.96949L14.9483 12.9552C14.3534 13.7075 13.2566 13.8448 12.4914 13.2535L12.4862 13.2494L10.6596 11.8121C10.5468 11.7264 10.3894 11.7477 10.3037 11.8583L7.92417 14.9477C7.67141 15.2758 7.20049 15.3369 6.87233 15.0842C6.54417 14.8314 6.48305 14.3605 6.7358 14.0324L9.11653 10.9414C9.71045 10.1728 10.8117 10.0339 11.5786 10.6265L11.5838 10.6306L13.4104 12.0679C13.5244 12.1545 13.6851 12.1322 13.7702 12.0267L16.0773 9.0505C16.331 8.72313 16.8021 8.66346 17.1295 8.91723ZM17.9108 16.7254L18.1926 16.1519C18.2937 15.948 18.3896 15.8391 18.4524 15.7878C18.4745 15.7698 18.4903 15.7604 18.5 15.7557C18.5097 15.7604 18.5255 15.7698 18.5475 15.7878C18.6103 15.8391 18.7063 15.948 18.8074 16.1519L18.808 16.1529L19.0868 16.7207L19.0892 16.7254C19.224 16.995 19.4352 17.2147 19.6471 17.3731C19.8596 17.532 20.1272 17.6702 20.4175 17.7263C20.4218 17.7272 20.4261 17.728 20.4305 17.7287C20.4346 17.7295 20.4388 17.7302 20.443 17.7308L20.8196 17.7903C21.1414 17.8444 21.2335 17.9411 21.2536 17.9685C21.2533 18.0023 21.2361 18.1398 20.9979 18.3814L20.6497 18.7296L20.6385 18.7411C20.417 18.9721 20.2772 19.2668 20.201 19.5353C20.125 19.8032 20.0888 20.1277 20.1572 20.4403L20.2092 20.6588C20.2713 20.9372 20.2683 21.1197 20.2493 21.2212C20.2471 21.2325 20.245 21.2422 20.2428 21.2505C20.2358 21.25 20.2279 21.2492 20.219 21.248C20.1203 21.2353 19.9489 21.1826 19.7059 21.0368L19.4366 20.8814L19.4355 20.8807C19.14 20.7095 18.8002 20.645 18.5 20.645C18.1998 20.645 17.86 20.7095 17.5646 20.8807L17.5634 20.8814L17.3052 21.0303L17.2926 21.0378C17.047 21.1859 16.8739 21.2394 16.7744 21.2524C16.766 21.2535 16.7585 21.2543 16.7518 21.2548C16.7498 21.2468 16.7478 21.2375 16.7459 21.2268C16.7274 21.1248 16.7255 20.941 16.7901 20.6614L16.8397 20.4537L16.8427 20.4403C16.911 20.1277 16.875 19.8032 16.799 19.5353C16.7228 19.2668 16.5829 18.9721 16.3615 18.7411L16.3503 18.7296L16.002 18.3814C15.7639 18.1398 15.7467 18.0023 15.7464 17.9685C15.7665 17.9411 15.8586 17.8444 16.1804 17.7903L16.557 17.7309L16.5633 17.7298C16.8648 17.6795 17.1398 17.5339 17.35 17.3762C17.5614 17.2177 17.7756 16.9958 17.9108 16.7254ZM20.1521 15.4871C19.8299 14.8368 19.276 14.2525 18.5 14.2525C17.724 14.2525 17.1701 14.8368 16.8479 15.4871L16.569 16.0549C16.5683 16.0561 16.5662 16.0599 16.5619 16.066C16.5564 16.074 16.5483 16.0845 16.5373 16.0969C16.5147 16.1223 16.4848 16.1501 16.45 16.1763C16.4151 16.2024 16.3812 16.2225 16.3528 16.2358C16.3302 16.2464 16.3175 16.2498 16.3155 16.2504L15.943 16.3091L15.9367 16.3102C15.2315 16.4277 14.5447 16.7925 14.3154 17.5124C14.0869 18.2297 14.4322 18.9267 14.9365 19.4371L15.2801 19.7807C15.2816 19.7826 15.2843 19.7859 15.2878 19.7909C15.2938 19.7995 15.3013 19.8114 15.3096 19.8271C15.3266 19.8591 15.3431 19.8995 15.356 19.9447C15.3688 19.99 15.3758 20.0325 15.3781 20.0677C15.38 20.097 15.3781 20.1137 15.3775 20.1184L15.3304 20.3163L15.3294 20.3206C15.1549 21.0728 15.1714 21.9795 15.8516 22.4802C16.5341 22.9826 17.4006 22.7227 18.0608 22.3262L18.3148 22.1796L18.3166 22.1786C18.3309 22.1703 18.3956 22.145 18.5 22.145C18.6044 22.145 18.6691 22.1703 18.6834 22.1786L18.6852 22.1796L18.9399 22.3266C19.5962 22.7188 20.4582 22.9761 21.1392 22.4777C21.8183 21.9807 21.8409 21.0784 21.6718 20.3256L21.6225 20.1184C21.6218 20.1137 21.62 20.097 21.6219 20.0677C21.6242 20.0325 21.6312 19.99 21.644 19.9447C21.6568 19.8995 21.6734 19.8591 21.6903 19.8271C21.6986 19.8114 21.7062 19.7995 21.7122 19.7909C21.7146 19.7875 21.7166 19.7849 21.7181 19.7829C21.7188 19.7821 21.7194 19.7813 21.7199 19.7807L22.0603 19.4403L22.0635 19.4371C22.5678 18.9267 22.9131 18.2297 22.6846 17.5124C22.4553 16.7925 21.7685 16.4277 21.0633 16.3102L20.6964 16.2522C20.6718 16.2458 20.6139 16.2231 20.5454 16.1719C20.5114 16.1465 20.483 16.1199 20.4617 16.0959C20.4513 16.0842 20.4436 16.0742 20.4383 16.0666C20.4357 16.0628 20.4339 16.0598 20.4326 16.0577L20.4311 16.0551L20.1532 15.4893L20.1521 15.4871Z" fill="#424B5A"/>
</svg>
