<svg width="24" height="24" viewBox="0 0 24 24" fill="none" xmlns="http://www.w3.org/2000/svg">
<path fill-rule="evenodd" clip-rule="evenodd" d="M5.33008 2.75977C4.65781 2.75977 4.06006 3.31006 4.06006 4.12976V6.44977C4.06006 6.61266 4.11982 6.88206 4.25809 7.19028C4.39356 7.49224 4.5738 7.76286 4.75036 7.93943L4.76365 7.95305L8.60367 11.9931C8.61628 12.0063 8.6284 12.0201 8.64001 12.0342C8.90276 12.3546 9.14136 12.7772 9.31532 13.2129C9.48804 13.6454 9.62006 14.1481 9.62006 14.6298V19.9798C9.62006 20.9691 10.7551 21.5821 11.6002 21.0652L13.0033 20.1596L13.0205 20.1489C13.1208 20.0879 13.2665 19.9356 13.3909 19.6963C13.5132 19.4609 13.5701 19.2269 13.5701 19.0698C13.5701 18.6556 13.9059 18.3198 14.3201 18.3198C14.7343 18.3198 15.0701 18.6556 15.0701 19.0698C15.0701 19.5226 14.9269 19.9936 14.7218 20.3882C14.5202 20.7759 14.2142 21.1753 13.8093 21.4247L12.4068 22.3299L12.3945 22.3377C10.6202 23.4348 8.12006 22.2283 8.12006 19.9798V14.6298C8.12006 14.4014 8.05207 14.0941 7.92229 13.7692C7.79829 13.4586 7.63905 13.1849 7.49575 13.0047L3.68249 8.99285C3.3523 8.66038 3.08013 8.22919 2.8895 7.80425C2.70028 7.38247 2.56006 6.89688 2.56006 6.44977V4.12976C2.56006 2.52946 3.78235 1.25977 5.33008 1.25977H18.67C20.1942 1.25977 21.4401 2.50553 21.4401 4.02975V6.24976C21.4401 6.79727 21.2722 7.36133 21.0548 7.83744C20.8366 8.31561 20.5373 8.7732 20.2104 9.10009C19.9175 9.39299 19.4426 9.39299 19.1497 9.10009C18.8568 8.8072 18.8568 8.33233 19.1497 8.03943C19.3228 7.86633 19.5285 7.56891 19.6903 7.21457C19.853 6.85818 19.9401 6.51224 19.9401 6.24976V4.02975C19.9401 3.33398 19.3658 2.75977 18.67 2.75977H5.33008ZM16.0701 10.8698C14.717 10.8698 13.6201 11.9667 13.6201 13.3198C13.6201 14.6729 14.717 15.7697 16.0701 15.7697C17.4232 15.7697 18.5201 14.6729 18.5201 13.3198C18.5201 11.9667 17.4232 10.8698 16.0701 10.8698ZM12.1201 13.3198C12.1201 11.1382 13.8885 9.36975 16.0701 9.36975C18.2516 9.36975 20.0201 11.1382 20.0201 13.3198C20.0201 14.141 19.7695 14.9037 19.3405 15.5356C19.3612 15.5523 19.3812 15.5702 19.4004 15.5894L20.4004 16.5894C20.6933 16.8823 20.6933 17.3572 20.4004 17.6501C20.1075 17.943 19.6326 17.943 19.3397 17.6501L18.3397 16.6501C18.3205 16.6309 18.3026 16.6109 18.2859 16.5902C17.654 17.0191 16.8913 17.2697 16.0701 17.2697C13.8886 17.2697 12.1201 15.5013 12.1201 13.3198Z" fill="#424B5A"/>
</svg>
