<svg width="24" height="24" viewBox="0 0 24 24" fill="none" xmlns="http://www.w3.org/2000/svg">
<path fill-rule="evenodd" clip-rule="evenodd" d="M5.33 2.75C4.65774 2.75 4.06 3.30029 4.06 4.12V6.45001C4.06 6.60419 4.12005 6.87213 4.2613 7.18567C4.3991 7.49153 4.58111 7.76699 4.75555 7.94492L4.76368 7.95321L4.76362 7.95327L8.60362 11.9933C8.61831 12.0088 8.63233 12.0248 8.64565 12.0415C8.89874 12.3578 9.13572 12.7765 9.31072 13.2111C9.48402 13.6416 9.62 14.1456 9.62 14.63V19.98C9.62 20.9693 10.755 21.5824 11.6001 21.0655L13.0033 20.1598C13.012 20.1542 13.0208 20.1488 13.0297 20.1435C13.1215 20.0895 13.265 19.9431 13.3902 19.7014C13.4967 19.4958 13.5539 19.29 13.567 19.136C13.3083 18.9395 13.0677 18.7209 12.8484 18.4831C12.5943 18.2092 12.3703 17.9092 12.1792 17.5897C11.7103 16.831 11.4294 15.9401 11.3859 15.0052C11.382 14.9206 11.38 14.8355 11.38 14.75C11.38 11.7158 13.8458 9.25 16.88 9.25C16.9321 9.25 16.984 9.25072 17.0359 9.25218C17.262 9.25849 17.4848 9.2785 17.7033 9.31141L19.1616 8.02713C19.3344 7.84521 19.5332 7.55101 19.6899 7.20684C19.8529 6.84853 19.94 6.50245 19.94 6.23999V4.02002C19.94 3.32423 19.3658 2.75 18.67 2.75H5.33ZM14.7223 20.3911C14.8031 20.2351 14.8742 20.067 14.9307 19.893C15.5358 20.1234 16.1929 20.25 16.88 20.25C18.8807 20.25 20.6307 19.1856 21.5824 17.5871C22.0907 16.7538 22.38 15.7805 22.38 14.75C22.38 12.6106 21.1541 10.7538 19.3674 9.84467L20.1757 9.13285C20.1894 9.12075 20.2027 9.10814 20.2156 9.09506C20.5389 8.76523 20.837 8.30752 21.0551 7.82816C21.2721 7.35145 21.44 6.78753 21.44 6.23999V4.02002C21.44 2.49581 20.1942 1.25 18.67 1.25H5.33C3.78226 1.25 2.56 2.5197 2.56 4.12V6.45001C2.56 6.89583 2.70495 7.38287 2.89369 7.80181C3.08503 8.22653 3.35645 8.65908 3.68009 8.99058L7.49241 13.0015C7.63489 13.1856 7.79457 13.4617 7.91927 13.7714C8.05097 14.0985 8.12 14.4044 8.12 14.63V19.98C8.12 22.2285 10.6201 23.435 12.3944 22.3379L12.4067 22.3302L13.8054 21.4274C14.216 21.1805 14.5224 20.7771 14.7223 20.3911ZM16.88 18.75C16.1326 18.75 15.4337 18.5437 14.8372 18.1868L13.464 16.8157L13.4635 16.8148L13.4636 16.8148L13.46 16.8089L13.4588 16.807C13.1124 16.2395 12.9068 15.5848 12.8824 14.8897C12.8808 14.8433 12.88 14.7967 12.88 14.75C12.88 12.5442 14.6742 10.75 16.88 10.75C16.9492 10.75 17.0177 10.7517 17.0854 10.7552C17.3156 10.767 17.5362 10.7987 17.7433 10.8489C17.7737 10.8563 17.8043 10.8617 17.835 10.8652C19.5811 11.2944 20.88 12.8732 20.88 14.75C20.88 15.4979 20.6703 16.2031 20.3 16.8089L20.3 16.8089L20.2952 16.8169C19.6064 17.9762 18.3376 18.75 16.88 18.75ZM14.7531 18.1176C14.7829 18.1388 14.811 18.1619 14.8372 18.1868L14.7531 18.1176ZM14.7531 18.1176C14.7397 18.1082 14.726 18.0991 14.7119 18.0905C14.4184 17.9106 14.1531 17.6889 13.9214 17.4339L14.7531 18.1176ZM15.1097 12.9496C15.4026 12.6568 15.8775 12.6568 16.1703 12.9497L16.8999 13.6792L17.5997 12.9794C17.8926 12.6865 18.3674 12.6865 18.6603 12.9794C18.9532 13.2723 18.9532 13.7472 18.6603 14.0401L17.9606 14.7399L18.6803 15.4597C18.9732 15.7526 18.9732 16.2274 18.6803 16.5203C18.3874 16.8132 17.9126 16.8132 17.6197 16.5203L16.8999 15.8005L16.1503 16.5501C15.8574 16.843 15.3826 16.843 15.0897 16.5501C14.7968 16.2572 14.7968 15.7823 15.0897 15.4894L15.8392 14.7399L15.1097 14.0103C14.8168 13.7174 14.8168 13.2425 15.1097 12.9496Z" fill="#424B5A"/>
</svg>
