<svg width="24" height="24" viewBox="0 0 24 24" fill="none" xmlns="http://www.w3.org/2000/svg">
<path fill-rule="evenodd" clip-rule="evenodd" d="M10.943 1.3502H18.6C20.1142 1.3502 21.35 2.58598 21.35 4.1002V6.3002C21.35 6.84172 21.1852 7.40028 20.9703 7.87305C20.7545 8.34784 20.4576 8.80332 20.1304 9.13053C20.1195 9.14143 20.1082 9.15199 20.0967 9.1622L15.7967 12.9622C15.7912 12.967 15.7857 12.9717 15.7802 12.9764C15.5971 13.1289 15.4087 13.3929 15.2655 13.7306C15.1236 14.065 15.05 14.4155 15.05 14.7002V19.0002C15.05 19.4494 14.906 19.9181 14.7029 20.3087C14.5041 20.6911 14.2005 21.0905 13.7971 21.3365L12.4056 22.2311L12.3931 22.2389C10.6316 23.323 8.15002 22.1312 8.15002 19.9002V14.6002C8.15002 14.3783 8.08282 14.0766 7.95367 13.7537C7.83132 13.4479 7.67417 13.1748 7.53237 12.9916L3.7624 9.02321C3.43627 8.69473 3.16685 8.26546 2.97814 7.84449C2.79093 7.42686 2.65002 6.94343 2.65002 6.5002V4.2002C2.65002 2.61015 3.86205 1.3502 5.40002 1.3502H10.9184C10.9266 1.35006 10.9348 1.35006 10.943 1.3502ZM6.83469 10.0793L11.346 2.8502H18.6C19.2858 2.8502 19.85 3.41441 19.85 4.1002V6.3002C19.85 6.55868 19.7649 6.90012 19.6047 7.25235C19.45 7.59279 19.2538 7.88062 19.0842 8.05514L14.8108 11.8316C14.3984 12.1785 14.0898 12.661 13.8846 13.1448C13.6765 13.6354 13.55 14.1848 13.55 14.7002V19.0002C13.55 19.151 13.494 19.3823 13.3721 19.6167C13.2478 19.8557 13.1052 20.0025 13.0142 20.0571C13.0075 20.0611 13.001 20.0651 12.9945 20.0693L11.6014 20.9649C10.7635 21.4747 9.65002 20.867 9.65002 19.9002V14.6002C9.65002 14.1221 9.51722 13.6238 9.34638 13.1967C9.17393 12.7655 8.9393 12.3487 8.68568 12.0317C8.6724 12.0151 8.65842 11.999 8.64377 11.9836L6.83469 10.0793ZM5.76757 8.95605L4.84377 7.98364L4.83035 7.96987C4.65976 7.79928 4.48179 7.5318 4.34691 7.23091C4.20912 6.92353 4.15002 6.65696 4.15002 6.5002V4.2002C4.15002 3.39024 4.738 2.8502 5.40002 2.8502H9.57793L5.76757 8.95605Z" fill="#424B5A"/>
</svg>
