<svg width="24" height="24" viewBox="0 0 24 24" fill="none" xmlns="http://www.w3.org/2000/svg">
<path fill-rule="evenodd" clip-rule="evenodd" d="M9 1.25C6.42603 1.25 4.42914 1.7602 3.09467 3.09467C1.7602 4.42914 1.25 6.42603 1.25 9V15C1.25 17.574 1.7602 19.5709 3.09467 20.9053C4.42914 22.2398 6.42603 22.75 9 22.75H15C17.574 22.75 19.5709 22.2398 20.9053 20.9053C22.2398 19.5709 22.75 17.574 22.75 15V9C22.75 6.42603 22.2398 4.42914 20.9053 3.09467C19.5709 1.7602 17.574 1.25 15 1.25H9ZM2.75 9C2.75 6.57397 3.2398 5.07086 4.15533 4.15533C5.07086 3.2398 6.57397 2.75 9 2.75H15C17.426 2.75 18.9291 3.2398 19.8447 4.15533C20.7602 5.07086 21.25 6.57397 21.25 9V15C21.25 17.426 20.7602 18.9291 19.8447 19.8447C18.9291 20.7602 17.426 21.25 15 21.25H9C6.57397 21.25 5.07086 20.7602 4.15533 19.8447C3.2398 18.9291 2.75 17.426 2.75 15V9ZM7.75 7.87C7.75 7.55919 7.9588 7.4 8.16 7.4H15.83C16.0558 7.4 16.24 7.58421 16.24 7.81V9.09C16.24 9.18467 16.2067 9.3391 16.1256 9.51795C16.0502 9.68446 15.9591 9.81529 15.8923 9.88664L13.421 12.0712C13.1332 12.3134 12.9294 12.639 12.7977 12.951C12.663 13.2703 12.58 13.6317 12.58 13.98V16.48C12.58 16.5071 12.5658 16.5914 12.5126 16.6942C12.4886 16.7406 12.4629 16.7782 12.4403 16.805C12.4242 16.8241 12.414 16.8326 12.4119 16.8343L12.4117 16.8345L11.6035 17.3434C11.3136 17.5206 10.95 17.297 10.95 16.99V13.91C10.95 13.5783 10.8605 13.2476 10.7508 12.9751C10.6399 12.6995 10.4857 12.4268 10.3078 12.2118C10.297 12.1988 10.2858 12.1861 10.2742 12.1739L8.06416 9.84387C8.05659 9.83589 8.04885 9.82808 8.04095 9.82045C7.98405 9.76551 7.9034 9.65214 7.83678 9.50202C7.76806 9.34719 7.75 9.23432 7.75 9.2V7.87ZM8.16 5.9C7.0812 5.9 6.25 6.78081 6.25 7.87V9.2C6.25 9.51568 6.34694 9.84281 6.46572 10.1105C6.58429 10.3776 6.75911 10.6633 6.98573 10.8866L9.16519 13.1844C9.22527 13.2614 9.29946 13.3864 9.3592 13.5349C9.42455 13.6974 9.45 13.8317 9.45 13.91V16.99C9.45 18.5423 11.1648 19.3784 12.3945 18.6179L13.2081 18.1056C13.5035 17.9214 13.7129 17.6386 13.8449 17.3833C13.9792 17.1236 14.08 16.8029 14.08 16.48V13.98C14.08 13.8583 14.112 13.6947 14.1798 13.534C14.2491 13.3698 14.3318 13.2645 14.3885 13.2175C14.3947 13.2124 14.4007 13.2072 14.4067 13.2019L16.9067 10.9919C16.9183 10.9817 16.9295 10.9712 16.9403 10.9603C17.1626 10.738 17.3547 10.4398 17.4919 10.137C17.6283 9.8359 17.74 9.46533 17.74 9.09V7.81C17.74 6.75579 16.8842 5.9 15.83 5.9H8.16Z" fill="#424B5A"/>
</svg>
