<svg width="24" height="24" viewBox="0 0 24 24" fill="none" xmlns="http://www.w3.org/2000/svg">
<path fill-rule="evenodd" clip-rule="evenodd" d="M4.06 4.12C4.06 3.30029 4.65774 2.75 5.33 2.75H18.67C19.3658 2.75 19.94 3.32423 19.94 4.02002V6.23999C19.94 6.50245 19.8529 6.84853 19.6899 7.20684C19.5332 7.55101 19.3344 7.84521 19.1616 8.02713L17.7033 9.31141C17.4848 9.2785 17.262 9.25849 17.0359 9.25218C16.984 9.25072 16.9321 9.25 16.88 9.25C13.8458 9.25 11.38 11.7158 11.38 14.75C11.38 14.8355 11.382 14.9206 11.3859 15.0052C11.4294 15.9401 11.7103 16.831 12.1792 17.5897C12.3703 17.9092 12.5943 18.2092 12.8484 18.4831C13.0677 18.7209 13.3083 18.9395 13.567 19.136C13.5539 19.29 13.4967 19.4958 13.3902 19.7014C13.265 19.9431 13.1215 20.0895 13.0297 20.1435C13.0208 20.1488 13.012 20.1542 13.0033 20.1598L11.6001 21.0655C10.755 21.5824 9.62 20.9693 9.62 19.98V14.63C9.62 14.1456 9.48402 13.6416 9.31072 13.2111C9.13572 12.7765 8.89874 12.3578 8.64565 12.0415C8.63233 12.0248 8.61831 12.0088 8.60362 11.9933L4.76362 7.95327L4.76368 7.95321L4.75555 7.94492C4.58111 7.76699 4.3991 7.49153 4.2613 7.18567C4.12005 6.87213 4.06 6.60419 4.06 6.45001V4.12ZM14.9307 19.893C14.8742 20.067 14.8031 20.2351 14.7223 20.3911C14.5224 20.7771 14.216 21.1805 13.8054 21.4274L12.4067 22.3302L12.3944 22.3379C10.6201 23.435 8.12 22.2285 8.12 19.98V14.63C8.12 14.4044 8.05097 14.0985 7.91927 13.7714C7.79457 13.4617 7.63489 13.1856 7.49241 13.0015L3.68009 8.99058C3.35645 8.65908 3.08503 8.22653 2.89369 7.80181C2.70495 7.38287 2.56 6.89583 2.56 6.45001V4.12C2.56 2.5197 3.78226 1.25 5.33 1.25H18.67C20.1942 1.25 21.44 2.49581 21.44 4.02002V6.23999C21.44 6.78753 21.2721 7.35145 21.0551 7.82816C20.837 8.30752 20.5389 8.76523 20.2156 9.09506C20.2027 9.10814 20.1894 9.12075 20.1757 9.13285L19.3674 9.84467C21.1541 10.7538 22.38 12.6106 22.38 14.75C22.38 15.7805 22.0907 16.7538 21.5824 17.5871C20.6307 19.1856 18.8807 20.25 16.88 20.25C16.1929 20.25 15.5358 20.1234 14.9307 19.893ZM14.8372 18.1868C15.4337 18.5437 16.1326 18.75 16.88 18.75C18.3376 18.75 19.6064 17.9762 20.2952 16.8169L20.3 16.8089L20.3 16.8089C20.6703 16.2031 20.88 15.4979 20.88 14.75C20.88 12.8732 19.5811 11.2944 17.835 10.8652C17.8043 10.8617 17.7737 10.8563 17.7433 10.8489C17.5362 10.7987 17.3156 10.767 17.0854 10.7552C17.0177 10.7517 16.9492 10.75 16.88 10.75C14.6742 10.75 12.88 12.5442 12.88 14.75C12.88 14.7967 12.8808 14.8433 12.8824 14.8897C12.9068 15.5848 13.1124 16.2395 13.4588 16.807C13.4592 16.8077 13.4596 16.8083 13.46 16.8089L13.4636 16.8148L13.4635 16.8148C13.4637 16.8151 13.4639 16.8154 13.464 16.8157M13.9214 17.4339C14.1531 17.6889 14.4184 17.9106 14.7119 18.0905C14.7574 18.1184 14.7993 18.1508 14.8372 18.1868M15.11 13.98C14.6958 13.98 14.36 14.3158 14.36 14.73C14.36 15.1442 14.6958 15.48 15.11 15.48H16.13V16.55C16.13 16.9642 16.4658 17.3 16.88 17.3C17.2942 17.3 17.63 16.9642 17.63 16.55V15.48H18.66C19.0742 15.48 19.41 15.1442 19.41 14.73C19.41 14.3158 19.0742 13.98 18.66 13.98H17.63V13C17.63 12.5858 17.2942 12.25 16.88 12.25C16.4658 12.25 16.13 12.5858 16.13 13V13.98H15.11Z" fill="#424B5A"/>
</svg>
