<svg width="24" height="24" viewBox="0 0 24 24" fill="none" xmlns="http://www.w3.org/2000/svg">
<path fill-rule="evenodd" clip-rule="evenodd" d="M5.33008 2.75977C4.65781 2.75977 4.06006 3.31006 4.06006 4.12976V6.44977C4.06006 6.61266 4.11982 6.88206 4.25809 7.19028C4.39356 7.49224 4.5738 7.76286 4.75036 7.93943L4.76365 7.95305L8.60367 11.9931C8.61628 12.0063 8.6284 12.0201 8.64001 12.0342C8.90276 12.3546 9.14136 12.7772 9.31532 13.2129C9.48804 13.6454 9.62006 14.1481 9.62006 14.6298V19.9798C9.62006 20.9691 10.7551 21.5821 11.6002 21.0652L13.0033 20.1596C13.3514 19.935 13.8156 20.035 14.0402 20.3831C14.2648 20.7311 14.1648 21.1953 13.8167 21.4199L12.4068 22.3299L12.3945 22.3377C10.6202 23.4348 8.12006 22.2283 8.12006 19.9798V14.6298C8.12006 14.4014 8.05207 14.0941 7.92229 13.7692C7.79829 13.4586 7.63905 13.1849 7.49575 13.0047L3.68249 8.99285C3.3523 8.66038 3.08013 8.22919 2.8895 7.80425C2.70028 7.38247 2.56006 6.89688 2.56006 6.44977V4.12976C2.56006 2.52946 3.78235 1.25977 5.33008 1.25977H18.67C20.1942 1.25977 21.4401 2.50553 21.4401 4.02975V6.24976C21.4401 6.79727 21.2722 7.36133 21.0548 7.83744C20.8366 8.31561 20.5373 8.7732 20.2104 9.10009C19.9175 9.39299 19.4426 9.39299 19.1497 9.10009C18.8568 8.8072 18.8568 8.33233 19.1497 8.03943C19.3228 7.86633 19.5285 7.56891 19.6903 7.21457C19.853 6.85818 19.9401 6.51224 19.9401 6.24976V4.02975C19.9401 3.33398 19.3658 2.75977 18.67 2.75977H5.33008ZM18.0034 10.5762C18.6666 10.508 19.2769 10.8059 19.8203 11.3494C20.3669 11.896 20.6684 12.5076 20.6026 13.1724C20.5407 13.7975 20.168 14.2825 19.8203 14.6301L19.4236 15.0268C19.3686 15.1091 19.2983 15.1787 19.2178 15.2326L16.288 18.1625C16.1414 18.3161 15.961 18.4278 15.8129 18.5019C15.657 18.5798 15.4676 18.6505 15.277 18.6806L15.2646 18.6825L13.9161 18.8722C13.4746 18.9351 13.0186 18.819 12.6897 18.4901C12.3608 18.1612 12.2446 17.7061 12.3074 17.2645L12.4991 15.9028C12.5297 15.7091 12.602 15.5208 12.6795 15.3675C12.7571 15.2141 12.8674 15.0418 13.0097 14.8994L16.0412 11.8679C16.0471 11.8618 16.0531 11.8558 16.0592 11.8499L16.5497 11.3594C16.8974 11.0118 17.3813 10.6401 18.0034 10.5762ZM16.3486 13.6818L14.0717 15.9587C14.0712 15.9594 14.0656 15.9657 14.0563 15.9793C14.0444 15.9965 14.031 16.0189 14.018 16.0445C14.005 16.0702 13.9949 16.0944 13.988 16.1142C13.9837 16.1266 13.9816 16.1344 13.9809 16.1374L13.807 17.3728L15.043 17.1988C15.0462 17.1981 15.0554 17.1958 15.0702 17.1907C15.0915 17.1833 15.1167 17.1729 15.1421 17.1602C15.1678 17.1473 15.1883 17.1349 15.2019 17.1255L15.2091 17.1203L15.2197 17.1094L17.4958 14.8333C17.0375 14.5336 16.6467 14.1414 16.3486 13.6818ZM18.5946 13.7345C18.0917 13.4928 17.6876 13.0863 17.4488 12.5817L17.6104 12.4201C17.8727 12.1577 18.0488 12.0794 18.1567 12.0683C18.2235 12.0615 18.4132 12.0636 18.7597 12.4101C19.1131 12.7635 19.1166 12.9569 19.1099 13.0246C19.0993 13.132 19.0221 13.3071 18.7597 13.5694L18.5946 13.7345Z" fill="#424B5A"/>
</svg>
