<svg width="24" height="24" viewBox="0 0 24 24" fill="none" xmlns="http://www.w3.org/2000/svg">
<path fill-rule="evenodd" clip-rule="evenodd" d="M2.75 7C2.75 5.67044 3.18991 4.62075 3.90533 3.90533C4.62075 3.18991 5.67044 2.75 7 2.75H9C9.41421 2.75 9.75 2.41421 9.75 2C9.75 1.58579 9.41421 1.25 9 1.25H7C5.32956 1.25 3.87925 1.81009 2.84467 2.84467C1.81009 3.87925 1.25 5.32956 1.25 7V9C1.25 9.41421 1.58579 9.75 2 9.75C2.41421 9.75 2.75 9.41421 2.75 9V7ZM14.25 2C14.25 1.58579 14.5858 1.25 15 1.25H17C18.6704 1.25 20.1207 1.81009 21.1553 2.84467C22.1899 3.87925 22.75 5.32956 22.75 7V9C22.75 9.41421 22.4142 9.75 22 9.75C21.5858 9.75 21.25 9.41421 21.25 9V7C21.25 5.67044 20.8101 4.62075 20.0947 3.90533C19.3793 3.18991 18.3296 2.75 17 2.75H15C14.5858 2.75 14.25 2.41421 14.25 2ZM7.75 10.93C7.75 8.58421 9.65421 6.67999 12 6.67999C14.2014 6.67999 16.0114 8.35462 16.2237 10.494C16.2646 10.9062 16.6319 11.2072 17.044 11.1663C17.4562 11.1254 17.7572 10.7581 17.7163 10.3459C17.4286 7.44535 14.9786 5.17999 12 5.17999C8.82579 5.17999 6.25 7.75578 6.25 10.93V13.07C6.25 16.2442 8.82579 18.82 12 18.82C15.013 18.82 17.4976 16.4973 17.7278 13.5279C17.7598 13.115 17.4509 12.7542 17.038 12.7222C16.625 12.6902 16.2643 12.999 16.2322 13.412C16.0624 15.6027 14.227 17.32 12 17.32C9.65421 17.32 7.75 15.4158 7.75 13.07V10.93ZM11.1 10.76C11.1 10.2642 11.5042 9.85999 12 9.85999C12.4958 9.85999 12.9 10.2642 12.9 10.76V13.23C12.9 13.7258 12.4958 14.13 12 14.13C11.5042 14.13 11.1 13.7258 11.1 13.23V10.76ZM12 8.35999C10.6758 8.35999 9.6 9.43581 9.6 10.76V13.23C9.6 14.5542 10.6758 15.63 12 15.63C13.3242 15.63 14.4 14.5542 14.4 13.23V10.76C14.4 9.43581 13.3242 8.35999 12 8.35999ZM22 14.25C22.4142 14.25 22.75 14.5858 22.75 15V17C22.75 18.6704 22.1899 20.1207 21.1553 21.1553C20.1207 22.1899 18.6704 22.75 17 22.75H15C14.5858 22.75 14.25 22.4142 14.25 22C14.25 21.5858 14.5858 21.25 15 21.25H17C18.3296 21.25 19.3793 20.8101 20.0947 20.0947C20.8101 19.3793 21.25 18.3296 21.25 17V15C21.25 14.5858 21.5858 14.25 22 14.25ZM2.75 15C2.75 14.5858 2.41421 14.25 2 14.25C1.58579 14.25 1.25 14.5858 1.25 15V17C1.25 18.6704 1.81009 20.1207 2.84467 21.1553C3.87925 22.1899 5.32956 22.75 7 22.75H9C9.41421 22.75 9.75 22.4142 9.75 22C9.75 21.5858 9.41421 21.25 9 21.25H7C5.67044 21.25 4.62075 20.8101 3.90533 20.0947C3.18991 19.3793 2.75 18.3296 2.75 17V15Z" fill="#424B5A"/>
</svg>
