<svg width="24" height="24" viewBox="0 0 24 24" fill="none" xmlns="http://www.w3.org/2000/svg">
<path fill-rule="evenodd" clip-rule="evenodd" d="M12 2.75C6.89137 2.75 2.75 6.89137 2.75 12C2.75 17.1086 6.89137 21.25 12 21.25C17.1086 21.25 21.25 17.1086 21.25 12C21.25 6.89137 17.1086 2.75 12 2.75ZM1.25 12C1.25 6.06294 6.06294 1.25 12 1.25C17.9371 1.25 22.75 6.06294 22.75 12C22.75 17.9371 17.9371 22.75 12 22.75C6.06294 22.75 1.25 17.9371 1.25 12ZM12 9.85999C11.5042 9.85999 11.1 10.2642 11.1 10.76V13.23C11.1 13.7258 11.5042 14.13 12 14.13C12.4958 14.13 12.9 13.7258 12.9 13.23V10.76C12.9 10.2642 12.4958 9.85999 12 9.85999ZM9.60001 10.76C9.60001 9.43581 10.6758 8.35999 12 8.35999C13.3242 8.35999 14.4 9.43581 14.4 10.76V13.23C14.4 14.5542 13.3242 15.63 12 15.63C10.6758 15.63 9.60001 14.5542 9.60001 13.23V10.76ZM7.75 10.93C7.75 8.58421 9.65421 6.67999 12 6.67999C14.2014 6.67999 16.0114 8.35462 16.2237 10.494C16.2646 10.9062 16.6319 11.2072 17.044 11.1663C17.4562 11.1254 17.7572 10.7581 17.7163 10.3459C17.4286 7.44535 14.9786 5.17999 12 5.17999C8.82579 5.17999 6.25 7.75578 6.25 10.93V13.07C6.25 16.2442 8.82579 18.82 12 18.82C15.013 18.82 17.4976 16.4973 17.7278 13.5279C17.7598 13.115 17.4509 12.7542 17.038 12.7222C16.625 12.6902 16.2643 12.999 16.2322 13.412C16.0624 15.6027 14.227 17.32 12 17.32C9.65421 17.32 7.75 15.4158 7.75 13.07V10.93Z" fill="#424B5A"/>
</svg>
