<svg width="24" height="24" viewBox="0 0 24 24" fill="none" xmlns="http://www.w3.org/2000/svg">
<path fill-rule="evenodd" clip-rule="evenodd" d="M5.07 3.25C4.43521 3.25 3.79629 3.37305 3.33467 3.83467C2.87305 4.29629 2.75 4.93521 2.75 5.57V8.42C2.75 9.05824 2.87239 9.69951 3.33336 10.1628C3.79528 10.627 4.43528 10.75 5.07 10.75H7.92C8.55824 10.75 9.19951 10.6276 9.66277 10.1666C10.127 9.70472 10.25 9.06472 10.25 8.43V5.57C10.25 4.93528 10.127 4.29528 9.66277 3.83336C9.19951 3.37239 8.55824 3.25 7.92 3.25H5.07ZM4.25 5.57C4.25 5.08479 4.35195 4.93871 4.39533 4.89533C4.43871 4.85195 4.58479 4.75 5.07 4.75H7.92C8.41176 4.75 8.56049 4.85261 8.60473 4.89664C8.64802 4.93972 8.75 5.08472 8.75 5.57V8.43C8.75 8.91528 8.64802 9.06028 8.60473 9.10336C8.56049 9.14739 8.41176 9.25 7.92 9.25H5.07C4.58472 9.25 4.43972 9.14802 4.39664 9.10473C4.35261 9.06049 4.25 8.91176 4.25 8.42V5.57ZM13.25 4.5C13.25 4.08579 13.5858 3.75 14 3.75H21C21.4142 3.75 21.75 4.08579 21.75 4.5C21.75 4.91421 21.4142 5.25 21 5.25H14C13.5858 5.25 13.25 4.91421 13.25 4.5ZM13.25 9.5C13.25 9.08579 13.5858 8.75 14 8.75H21C21.4142 8.75 21.75 9.08579 21.75 9.5C21.75 9.91421 21.4142 10.25 21 10.25H14C13.5858 10.25 13.25 9.91421 13.25 9.5ZM3 13.75C2.58579 13.75 2.25 14.0858 2.25 14.5C2.25 14.9142 2.58579 15.25 3 15.25H21C21.4142 15.25 21.75 14.9142 21.75 14.5C21.75 14.0858 21.4142 13.75 21 13.75H3ZM2.25 19.5C2.25 19.0858 2.58579 18.75 3 18.75H21C21.4142 18.75 21.75 19.0858 21.75 19.5C21.75 19.9142 21.4142 20.25 21 20.25H3C2.58579 20.25 2.25 19.9142 2.25 19.5Z" fill="#424B5A"/>
</svg>
