<svg width="24" height="24" viewBox="0 0 24 24" fill="none" xmlns="http://www.w3.org/2000/svg">
<path fill-rule="evenodd" clip-rule="evenodd" d="M7.19995 2C7.19995 1.58579 6.86416 1.25 6.44995 1.25C6.03574 1.25 5.69995 1.58579 5.69995 2V22C5.69995 22.4142 6.03574 22.75 6.44995 22.75C6.86416 22.75 7.19995 22.4142 7.19995 22V17.7072C7.22767 17.6973 7.2551 17.6858 7.28212 17.6724L15.5821 13.5724L15.5822 13.5725L15.5939 13.5665C17.2249 12.7247 18.336 11.5227 18.2997 10.1058C18.2631 8.67913 17.0798 7.54702 15.3452 6.81057L7.24744 3.31152C7.23171 3.30473 7.21587 3.29851 7.19995 3.29286V2ZM7.19995 4.92505V16.04L14.9117 12.2306C16.3761 11.4733 16.8138 10.6766 16.8002 10.1442C16.7868 9.62152 16.3212 8.85401 14.757 8.19044L14.7525 8.18849L14.7525 8.18848L7.19995 4.92505Z" fill="#424B5A"/>
</svg>
