<svg width="24" height="24" viewBox="0 0 24 24" fill="none" xmlns="http://www.w3.org/2000/svg">
<path fill-rule="evenodd" clip-rule="evenodd" d="M2.71997 12C2.71997 6.89137 6.86134 2.75 11.97 2.75C17.0786 2.75 21.22 6.89137 21.22 12C21.22 17.1086 17.0786 21.25 11.97 21.25C6.86134 21.25 2.71997 17.1086 2.71997 12ZM11.97 1.25C6.03291 1.25 1.21997 6.06294 1.21997 12C1.21997 17.9371 6.03291 22.75 11.97 22.75C17.907 22.75 22.72 17.9371 22.72 12C22.72 6.06294 17.907 1.25 11.97 1.25ZM14.34 7.23C14.34 5.93411 12.7434 5.34096 11.8894 6.30173L7.62698 11.1445C6.82755 12.0523 7.47912 13.47 8.67997 13.47H9.66997V16.77C9.66997 18.0659 11.2665 18.659 12.1205 17.6983L12.123 17.6955L16.3827 12.8558C17.1825 11.9479 16.5309 10.53 15.33 10.53H14.34V7.23ZM9.66997 13.47V12.72H10.42V13.47H9.66997ZM8.89865 11.97L12.84 7.49206V11.28C12.84 11.6942 13.1758 12.03 13.59 12.03H15.1113L11.17 16.5079V12.72C11.17 12.3058 10.8342 11.97 10.42 11.97H8.89865Z" fill="#424B5A"/>
</svg>
