<svg width="24" height="24" viewBox="0 0 24 24" fill="none" xmlns="http://www.w3.org/2000/svg">
<path fill-rule="evenodd" clip-rule="evenodd" d="M15.3536 2.22904C15.5065 2.59908 15.57 3.04179 15.57 3.52015V7.36949L21.4697 1.46982C21.7626 1.17692 22.2374 1.17692 22.5303 1.46982C22.8232 1.76271 22.8232 2.23758 22.5303 2.53048L2.53033 22.5305C2.23744 22.8234 1.76256 22.8234 1.46967 22.5305C1.17678 22.2376 1.17678 21.7627 1.46967 21.4698L8.44096 14.4985C8.44032 14.4858 8.44 14.473 8.44 14.4601V14.0301H6.1C5.30592 14.0301 4.44929 13.7872 4.10397 13.0226C3.75852 12.2577 4.14362 11.4559 4.66778 10.8638L4.66856 10.8629L12.237 2.2646C12.5531 1.90587 12.8933 1.61545 13.2522 1.43845C13.6142 1.25987 14.0538 1.17179 14.4899 1.3355C14.9263 1.49936 15.1992 1.85538 15.3536 2.22904ZM9.90041 13.0391C9.80002 12.7431 9.51988 12.5301 9.19 12.5301H6.1C5.81802 12.5301 5.6404 12.4857 5.54318 12.4425C5.50678 12.4263 5.48589 12.4126 5.47475 12.4037C5.47551 12.3897 5.47901 12.3654 5.49068 12.3284C5.52228 12.2281 5.60589 12.0669 5.79144 11.8574L5.79297 11.8557L13.363 3.25569C13.6019 2.98457 13.7918 2.84483 13.9157 2.78372C13.9293 2.77701 13.9413 2.77159 13.9518 2.76721C13.9566 2.77706 13.9618 2.78854 13.9673 2.80188C14.0197 2.92872 14.07 3.1585 14.07 3.52015V8.84015C14.07 8.84979 14.0702 8.85939 14.0705 8.86894L9.90041 13.0391ZM16.22 10.7201C16.22 10.3059 16.5558 9.97015 16.97 9.97015H17.9C18.6941 9.97015 19.5507 10.2131 19.896 10.9777C20.2415 11.7427 19.8564 12.5444 19.3322 13.1366L19.3314 13.1374L11.763 21.7357L11.7628 21.7359C11.4467 22.0947 11.1067 22.3848 10.7478 22.5618C10.3858 22.7404 9.9462 22.8285 9.51015 22.6648C9.07368 22.5009 8.80078 22.1449 8.64638 21.7713C8.49347 21.4012 8.43 20.9585 8.43 20.4801V18.0401C8.43 17.6259 8.76579 17.2901 9.18 17.2901C9.59421 17.2901 9.93 17.6259 9.93 18.0401V20.4801C9.93 20.8418 9.98028 21.0716 10.0327 21.1984C10.0382 21.2118 10.0434 21.2232 10.0482 21.2331C10.0587 21.2287 10.0707 21.2233 10.0843 21.2166C10.2083 21.1554 10.3983 21.0156 10.6372 20.7444L18.207 12.1446L18.2086 12.1429C18.3941 11.9334 18.4777 11.7722 18.5093 11.6719C18.521 11.6349 18.5245 11.6106 18.5252 11.5966C18.5141 11.5877 18.4932 11.574 18.4568 11.5578C18.3596 11.5146 18.182 11.4701 17.9 11.4701H16.97C16.5558 11.4701 16.22 11.1344 16.22 10.7201ZM18.5363 11.6073C18.5362 11.6073 18.5353 11.6064 18.534 11.6045C18.5357 11.6063 18.5364 11.6072 18.5363 11.6073ZM18.5252 11.5849C18.5246 11.5826 18.5245 11.5813 18.5246 11.5813L18.5247 11.5815C18.5249 11.582 18.5251 11.5831 18.5252 11.5849ZM9.98847 21.251C9.98851 21.2509 9.98994 21.2507 9.99264 21.2507C9.98979 21.2511 9.98844 21.2511 9.98847 21.251ZM10.0781 21.283C10.0802 21.2848 10.0811 21.2859 10.0811 21.286C10.081 21.2861 10.0808 21.2859 10.0803 21.2854L10.0781 21.283Z" fill="#424B5A"/>
</svg>
