<svg width="24" height="24" viewBox="0 0 24 24" fill="none" xmlns="http://www.w3.org/2000/svg">
<path fill-rule="evenodd" clip-rule="evenodd" d="M2.75 12C2.75 6.89137 6.89137 2.75 12 2.75C17.1086 2.75 21.25 6.89137 21.25 12C21.25 17.1086 17.1086 21.25 12 21.25C6.89137 21.25 2.75 17.1086 2.75 12ZM12 1.25C6.06294 1.25 1.25 6.06294 1.25 12C1.25 17.9371 6.06294 22.75 12 22.75C17.9371 22.75 22.75 17.9371 22.75 12C22.75 6.06294 17.9371 1.25 12 1.25ZM15.3586 8.02809C15.4273 7.74687 15.4599 7.45479 15.4181 7.17871C15.3757 6.89895 15.2436 6.57331 14.9305 6.35944C14.6177 6.14578 14.2666 6.141 13.9911 6.20261C13.7192 6.26339 13.4591 6.3989 13.222 6.56415L13.221 6.56483L8.04278 10.1536L8.04056 10.1552C7.65407 10.4251 7.20075 10.9143 7.31959 11.5679C7.43862 12.2226 8.03647 12.5207 8.49581 12.637L9.42201 12.8672L8.65195 15.9799L8.65145 15.982C8.58272 16.2632 8.55007 16.5552 8.5919 16.8313C8.6343 17.1111 8.76637 17.4367 9.07949 17.6506C9.39231 17.8643 9.74338 17.869 10.019 17.8074C10.2908 17.7466 10.5509 17.6111 10.788 17.4458L10.789 17.4452L15.9672 13.8564L15.9694 13.8549C16.356 13.5849 16.8093 13.0957 16.6904 12.4421C16.5714 11.7875 15.9736 11.4893 15.5142 11.373L14.588 11.1428L15.3581 8.03011L15.3586 8.02809ZM12.9519 11.5099L13.8279 7.96923L9.10465 11.2427L10.5108 11.5921C10.9125 11.6919 11.1574 12.0983 11.058 12.5001L10.1821 16.0407L14.9054 12.7673L13.4991 12.4179C13.0974 12.3181 12.8525 11.9117 12.9519 11.5099Z" fill="#424B5A"/>
</svg>
