<svg width="24" height="24" viewBox="0 0 24 24" fill="none" xmlns="http://www.w3.org/2000/svg">
<path fill-rule="evenodd" clip-rule="evenodd" d="M15.3436 2.22904C15.4965 2.59908 15.56 3.04179 15.56 3.52015V9.97015H17.9C18.6941 9.97015 19.5507 10.2131 19.896 10.9777C20.2415 11.7427 19.8564 12.5444 19.3322 13.1366C19.3319 13.1369 19.3317 13.1371 19.3315 13.1374L11.763 21.7357C11.447 22.0944 11.1067 22.3848 10.7479 22.5618C10.3858 22.7404 9.9462 22.8285 9.51015 22.6648C9.07369 22.5009 8.80079 22.1449 8.64638 21.7713C8.49348 21.4012 8.43001 20.9585 8.43001 20.4801V14.0301H6.09001C5.30151 14.0301 4.44765 13.7901 4.1019 13.0273C3.75691 12.2661 4.13618 11.4647 4.65359 10.8685L4.65702 10.8646L12.227 2.2646C12.5431 1.90587 12.8833 1.61545 13.2422 1.43845C13.6042 1.25987 14.0438 1.17179 14.4799 1.3355C14.9163 1.49936 15.1892 1.85538 15.3436 2.22904ZM13.353 3.25569C13.5919 2.98457 13.7818 2.84483 13.9057 2.78372C13.9193 2.77701 13.9313 2.77159 13.9418 2.76721C13.9466 2.77705 13.9518 2.78854 13.9573 2.80188C14.0097 2.92872 14.06 3.1585 14.06 3.52015V10.7201C14.06 11.1344 14.3958 11.4701 14.81 11.4701H17.9C18.182 11.4701 18.3596 11.5146 18.4568 11.5578C18.4932 11.574 18.5141 11.5877 18.5253 11.5966C18.5245 11.6106 18.521 11.6349 18.5093 11.6719C18.4777 11.7722 18.3941 11.9334 18.2086 12.1429L18.207 12.1446L10.6372 20.7444C10.3983 21.0156 10.2083 21.1554 10.0844 21.2166C10.0707 21.2233 10.0587 21.2287 10.0482 21.2331C10.0434 21.2232 10.0382 21.2118 10.0327 21.1984C9.98029 21.0716 9.93001 20.8418 9.93001 20.4801V13.2801C9.93001 12.8659 9.59422 12.5301 9.18001 12.5301H6.09001C5.81013 12.5301 5.63423 12.4862 5.53822 12.4436C5.50303 12.428 5.48266 12.4148 5.47168 12.4061C5.47233 12.3918 5.47573 12.3669 5.48755 12.3287C5.51891 12.2271 5.60171 12.0649 5.78484 11.8536L13.353 3.25569C13.353 3.25562 13.3529 3.25577 13.353 3.25569Z" fill="#424B5A"/>
</svg>
