<svg width="24" height="24" viewBox="0 0 24 24" fill="none" xmlns="http://www.w3.org/2000/svg">
<path fill-rule="evenodd" clip-rule="evenodd" d="M12.246 11.603C13.2836 10.8138 14.7643 11.0072 15.5757 12.0215C16.3866 13.0351 16.2553 14.489 15.2857 15.3429L15.2842 15.3442L12.7087 17.6002C12.3044 17.9633 11.6856 17.9633 11.2813 17.6002L8.70731 15.3455C7.73364 14.5009 7.60301 13.0334 8.416 12.0294C9.22892 11.0155 10.6956 10.8273 11.7392 11.6094C11.739 11.6093 11.7395 11.6096 11.7392 11.6094L11.9925 11.7985L12.246 11.603ZM13.1558 12.7956L12.4581 13.3338C12.1917 13.5394 11.821 13.5423 11.5514 13.341L10.8414 12.811L10.84 12.81C10.4444 12.5133 9.89287 12.5845 9.58565 12.9685L9.58234 12.9726C9.27767 13.348 9.32686 13.8978 9.69088 14.213L9.6942 14.2158L11.995 16.2313L14.2943 14.2171C14.2941 14.2173 14.2946 14.2169 14.2943 14.2171C14.6641 13.8909 14.7132 13.3446 14.4043 12.9585C14.0962 12.5733 13.5381 12.5064 13.1558 12.7956ZM11.7032 16.4871C11.7057 16.4848 11.7083 16.4826 11.7108 16.4803L11.7032 16.4871ZM12.2792 16.4803C12.2817 16.4825 12.2843 16.4848 12.2868 16.4871L12.2792 16.4803Z" fill="#424B5A"/>
<path fill-rule="evenodd" clip-rule="evenodd" d="M3.53033 3.53033C3.01884 4.04182 2.75 4.99464 2.75 7V17C2.75 19.0054 3.01884 19.9582 3.53033 20.4697C4.04182 20.9812 4.99464 21.25 7 21.25H17C19.0054 21.25 19.9582 20.9812 20.4697 20.4697C20.9812 19.9582 21.25 19.0054 21.25 17V11C21.25 8.99464 20.9812 8.04182 20.4697 7.53033C19.9582 7.01884 19.0054 6.75 17 6.75H14C13.4323 6.75 12.9717 6.66638 12.5796 6.42937C12.2295 6.21777 12.0015 5.91639 11.8342 5.6952C11.8235 5.68106 11.8131 5.66725 11.8029 5.65381L11.8 5.65001L10.3 3.65C9.9971 3.24613 9.85612 3.07421 9.66253 2.95791C9.48669 2.85228 9.18507 2.75 8.5 2.75H7C4.99464 2.75 4.04182 3.01884 3.53033 3.53033ZM2.46967 2.46967C3.45818 1.48116 5.00536 1.25 7 1.25H8.5C9.31493 1.25 9.92831 1.36772 10.435 1.67209C10.9039 1.9538 11.2074 2.35915 11.4671 2.70605C11.4781 2.72081 11.4891 2.73546 11.5 2.75L12.9986 4.74816C13.2074 5.02285 13.2731 5.09587 13.3554 5.14563C13.4183 5.18362 13.5677 5.25 14 5.25H17C18.9946 5.25 20.5418 5.48116 21.5303 6.46967C22.5188 7.45818 22.75 9.00536 22.75 11V17C22.75 18.9946 22.5188 20.5418 21.5303 21.5303C20.5418 22.5188 18.9946 22.75 17 22.75H7C5.00536 22.75 3.45818 22.5188 2.46967 21.5303C1.48116 20.5418 1.25 18.9946 1.25 17V7C1.25 5.00536 1.48116 3.45818 2.46967 2.46967Z" fill="#424B5A"/>
</svg>
