<svg width="24" height="24" viewBox="0 0 24 24" fill="none" xmlns="http://www.w3.org/2000/svg">
<path fill-rule="evenodd" clip-rule="evenodd" d="M3.53033 3.53033C3.01884 4.04182 2.75 4.99464 2.75 7V17C2.75 19.0054 3.01884 19.9582 3.53033 20.4697C4.04182 20.9812 4.99464 21.25 7 21.25H9C9.41421 21.25 9.75 21.5858 9.75 22C9.75 22.4142 9.41421 22.75 9 22.75H7C5.00536 22.75 3.45818 22.5188 2.46967 21.5303C1.48116 20.5418 1.25 18.9946 1.25 17V7C1.25 5.00536 1.48116 3.45818 2.46967 2.46967C3.45818 1.48116 5.00536 1.25 7 1.25H8.5C9.31493 1.25 9.92832 1.36773 10.435 1.67209C10.9039 1.95382 11.2074 2.35917 11.4671 2.70608C11.4782 2.72083 11.4891 2.73548 11.5 2.75001L12.9986 4.74817C13.2075 5.02287 13.2731 5.09588 13.3555 5.14564C13.4183 5.18362 13.5677 5.25 14 5.25H17C18.9946 5.25 20.5418 5.48116 21.5303 6.46967C22.5188 7.45818 22.75 9.00536 22.75 11V13C22.75 13.4142 22.4142 13.75 22 13.75C21.5858 13.75 21.25 13.4142 21.25 13V11C21.25 8.99464 20.9812 8.04182 20.4697 7.53033C19.9582 7.01884 19.0054 6.75 17 6.75H14C13.4323 6.75 12.9717 6.66638 12.5796 6.42938C12.2295 6.21778 12.0015 5.91641 11.8343 5.69522C11.8236 5.68108 11.8131 5.66727 11.8029 5.65382L11.8 5.65002L10.3 3.65001C9.99713 3.24615 9.85614 3.07422 9.66255 2.95792C9.48669 2.85228 9.18507 2.75 8.5 2.75H7C4.99464 2.75 4.04182 3.01884 3.53033 3.53033Z" fill="#424B5A"/>
<path fill-rule="evenodd" clip-rule="evenodd" d="M20.3695 16.1378C20.0714 15.0356 19.4463 14.2364 18.6343 13.7598C17.72 13.223 16.6401 13.1371 15.6773 13.3895C14.7145 13.6419 13.8152 14.2467 13.2793 15.162C12.8509 15.8939 12.6809 16.7797 12.8529 17.7572C10.4582 18.6813 10.7426 22.5937 13.7059 22.8081C13.7239 22.8094 13.7419 22.81 13.76 22.81H19.32C20.1687 22.81 21.0083 22.4959 21.6403 21.9188C23.6267 20.1756 22.7789 16.8554 20.3695 16.1378ZM13.7207 19.0778C13.8234 19.086 13.9295 19.0731 14.0328 19.0361C14.4228 18.8965 14.6257 18.4672 14.4861 18.0772C14.153 17.1466 14.2744 16.4312 14.5738 15.9199C14.8836 15.3908 15.428 15.0056 16.0577 14.8405C16.6874 14.6754 17.3488 14.7445 17.875 15.0534C18.3835 15.3518 18.8376 15.9158 19.0001 16.893C19.0546 17.2205 19.3179 17.4733 19.6474 17.5143C21.1727 17.704 21.8097 19.7801 20.6469 20.7949L20.6327 20.8076C20.2855 21.1265 19.8082 21.31 19.32 21.31H13.7898C12.4235 21.1886 12.4004 19.2601 13.7207 19.0778Z" fill="#424B5A"/>
</svg>
