<svg width="24" height="24" viewBox="0 0 24 24" fill="none" xmlns="http://www.w3.org/2000/svg">
<path fill-rule="evenodd" clip-rule="evenodd" d="M5.30997 11.75C4.61166 11.75 3.99182 12.0638 3.57967 12.5659L3.55632 12.5943L3.54231 12.6084C3.20222 13.0503 3.01759 13.6167 3.07651 14.2281L3.07768 14.2402L3.47705 19.2335C3.55824 20.0603 3.62537 20.4803 3.84533 20.7549C4.01716 20.9694 4.43139 21.25 5.70997 21.25H18.29C19.5686 21.25 19.9828 20.9694 20.1546 20.7549C20.3746 20.4803 20.4417 20.0603 20.5229 19.2335L20.9232 14.2302L20.9242 14.2201C20.9911 13.5958 20.7929 13.0246 20.423 12.5792L20.3178 12.4525C19.9161 12.0226 19.3406 11.75 18.69 11.75H5.30997ZM20.4496 12.6004C20.4555 12.6063 20.4533 12.6044 20.4464 12.5971L20.4496 12.6004ZM2.44508 11.5843C3.133 10.7637 4.16216 10.25 5.30997 10.25H18.69C19.8416 10.25 20.8622 10.767 21.5392 11.5696C21.552 11.5835 21.572 11.6061 21.5937 11.635C21.6013 11.6451 21.6126 11.6605 21.6257 11.6808C22.2031 12.4053 22.5236 13.3462 22.4168 14.3693L22.0165 19.3732C22.0136 19.4029 22.0106 19.433 22.0076 19.4635C21.9412 20.1505 21.8562 21.0299 21.3253 21.6927C20.7222 22.4457 19.7214 22.75 18.29 22.75H5.70997C4.27856 22.75 3.27778 22.4457 2.67462 21.6927C2.14374 21.0299 2.05873 20.1505 1.99233 19.4635C1.98938 19.433 1.98647 19.4029 1.98355 19.3732L1.98224 19.3598L1.58282 14.3656C1.48509 13.3338 1.8101 12.3749 2.39335 11.6427L2.41972 11.6096L2.44508 11.5843Z" fill="#424B5A"/>
<path fill-rule="evenodd" clip-rule="evenodd" d="M4.8803 3.41036C4.48131 3.80935 4.24997 4.57467 4.24997 6.28003V11.43C4.24997 11.8442 3.91419 12.18 3.49997 12.18C3.08576 12.18 2.74997 11.8442 2.74997 11.43V6.28003C2.74997 4.58539 2.94364 3.2257 3.81964 2.3497C4.69565 1.47369 6.05533 1.28003 7.74997 1.28003H9.01997C9.72238 1.28003 10.2672 1.38357 10.7225 1.65715C11.1434 1.91005 11.4143 2.2719 11.6335 2.56462C11.6424 2.57654 11.6512 2.58835 11.66 2.60003L11.6608 2.60116L12.9287 4.29828C13.1068 4.53203 13.1504 4.57608 13.2001 4.60624C13.2301 4.62442 13.335 4.68003 13.69 4.68003H16.24C17.9346 4.68003 19.2943 4.87369 20.1703 5.7497C21.0463 6.62571 21.24 7.98539 21.24 9.68003V11.47C21.24 11.8842 20.9042 12.22 20.49 12.22C20.0758 12.22 19.74 11.8842 19.74 11.47V9.68003C19.74 7.97467 19.5086 7.20935 19.1096 6.81036C18.7106 6.41137 17.9453 6.18003 16.24 6.18003H13.69C13.195 6.18003 12.7798 6.10564 12.4223 5.88882C12.1066 5.69733 11.9013 5.42622 11.7615 5.24155C11.7518 5.22879 11.7425 5.21644 11.7334 5.20456L11.7291 5.19892L10.46 3.50003C10.4598 3.49984 10.4601 3.50022 10.46 3.50003C10.2041 3.15893 10.0943 3.02966 9.94995 2.94291C9.82277 2.86649 9.58757 2.78003 9.01997 2.78003H7.74997C6.04461 2.78003 5.2793 3.01136 4.8803 3.41036Z" fill="#424B5A"/>
<path fill-rule="evenodd" clip-rule="evenodd" d="M8.67997 17C8.67997 16.5858 9.01576 16.25 9.42997 16.25H14.57C14.9842 16.25 15.32 16.5858 15.32 17C15.32 17.4142 14.9842 17.75 14.57 17.75H9.42997C9.01576 17.75 8.67997 17.4142 8.67997 17Z" fill="#424B5A"/>
</svg>
