<svg width="24" height="24" viewBox="0 0 24 24" fill="none" xmlns="http://www.w3.org/2000/svg">
<path fill-rule="evenodd" clip-rule="evenodd" d="M5.75 5.5C5.75 4.09464 5.94384 3.51682 6.23033 3.23033C6.51682 2.94384 7.09464 2.75 8.5 2.75H9.54999C10.0093 2.75 10.1734 2.81951 10.2469 2.86377C10.339 2.9192 10.4122 3.00143 10.6307 3.29089L10.6313 3.29177L11.68 4.69L11.68 4.69004L11.6862 4.69809L11.7132 4.7334C11.8277 4.88332 12.0113 5.12362 12.2899 5.29257C12.6136 5.48885 12.9821 5.55005 13.4 5.55005H15.5C16.9054 5.55005 17.4832 5.74388 17.7697 6.03038C18.0562 6.31687 18.25 6.89469 18.25 8.30005V12.5C18.25 13.9054 18.0562 14.4832 17.7697 14.7697C17.4832 15.0562 16.9054 15.25 15.5 15.25H12H8.5C7.09464 15.25 6.51682 15.0562 6.23033 14.7697C5.94384 14.4832 5.75 13.9054 5.75 12.5V5.5ZM12.75 16.75H15.5C16.8946 16.75 18.0668 16.5938 18.8303 15.8303C19.5938 15.0668 19.75 13.8946 19.75 12.5V8.30005C19.75 6.90541 19.5938 5.73322 18.8303 4.96972C18.0668 4.20621 16.8946 4.05005 15.5 4.05005H13.4C13.2601 4.05005 13.1754 4.03931 13.1257 4.0286C13.0808 4.01891 13.0677 4.00998 13.0677 4.00997L13.0676 4.0099C13.0658 4.00883 13.0537 4.0016 13.0242 3.96924C12.9876 3.92927 12.9498 3.88038 12.877 3.78591L11.83 2.38996L11.8286 2.38816L11.7985 2.3482C11.6209 2.11192 11.385 1.79807 11.0206 1.5787C10.6166 1.33547 10.1407 1.25 9.54999 1.25H8.5C7.10536 1.25 5.93318 1.40616 5.16967 2.16967C4.40616 2.93318 4.25 4.10536 4.25 5.5V12.5C4.25 13.8946 4.40616 15.0668 5.16967 15.8303C5.93318 16.5938 7.10536 16.75 8.5 16.75H11.25V18.3535C10.3342 18.6125 9.61255 19.3342 9.35352 20.25H6C5.58579 20.25 5.25 20.5858 5.25 21C5.25 21.4142 5.58579 21.75 6 21.75H9.35352C9.67998 22.9043 10.7412 23.75 12 23.75C13.2588 23.75 14.32 22.9043 14.6465 21.75H18C18.4142 21.75 18.75 21.4142 18.75 21C18.75 20.5858 18.4142 20.25 18 20.25H14.6465C14.3875 19.3342 13.6658 18.6125 12.75 18.3535V16.75ZM12 22.25C11.3096 22.25 10.75 21.6904 10.75 21C10.75 20.3096 11.3096 19.75 12 19.75C12.6904 19.75 13.25 20.3096 13.25 21C13.25 21.6904 12.6904 22.25 12 22.25Z" fill="#424B5A"/>
</svg>
