<svg width="24" height="24" viewBox="0 0 24 24" fill="none" xmlns="http://www.w3.org/2000/svg">
<path fill-rule="evenodd" clip-rule="evenodd" d="M12.6366 3.40658C12.2395 3.80364 11.98 4.49964 11.98 5.76999V5.85999H13.6128C15.0348 5.86525 16.2237 6.14557 17.0378 6.95967C17.8526 7.77445 18.13 8.96177 18.13 10.38V10.39V12.02H18.23C19.5004 12.02 20.1964 11.7605 20.5934 11.3634C20.9905 10.9663 21.25 10.2704 21.25 9V5.76999C21.25 4.49964 20.9905 3.80364 20.5934 3.40658C20.1964 3.00951 19.5004 2.75 18.23 2.75H15C13.7296 2.75 13.0336 3.00951 12.6366 3.40658ZM10.48 5.76999V5.85999H10.38C8.96035 5.85999 7.77135 6.14048 6.95592 6.95592C6.14049 7.77135 5.86 8.96035 5.86 10.38V10.48H5.77C4.35035 10.48 3.16135 10.7605 2.34592 11.5759C1.53049 12.3914 1.25 13.5804 1.25 15V18.23C1.25 19.6497 1.53049 20.8387 2.34592 21.6541C3.16135 22.4695 4.35035 22.75 5.77 22.75H9C10.4196 22.75 11.6086 22.4695 12.4241 21.6541C13.2395 20.8387 13.52 19.6497 13.52 18.23V18.13H13.61C15.0297 18.13 16.2187 17.8495 17.0341 17.0341C17.8495 16.2186 18.13 15.0296 18.13 13.61V13.52H18.23C19.6496 13.52 20.8386 13.2395 21.6541 12.4241C22.4695 11.6086 22.75 10.4196 22.75 9V5.76999C22.75 4.35034 22.4695 3.16134 21.6541 2.34591C20.8386 1.53049 19.6496 1.25 18.23 1.25H15C13.5804 1.25 12.3914 1.53049 11.5759 2.34591C10.7605 3.16134 10.48 4.35034 10.48 5.76999ZM12.02 18.13H10.39H10.38C8.96035 18.13 7.77135 17.8495 6.95592 17.0341C6.14049 16.2186 5.86 15.0296 5.86 13.61V11.98H5.77C4.49965 11.98 3.80365 12.2395 3.40658 12.6366C3.00951 13.0337 2.75 13.7296 2.75 15V18.23C2.75 19.5004 3.00951 20.1964 3.40658 20.5934C3.80365 20.9905 4.49965 21.25 5.77 21.25H9C10.2704 21.25 10.9664 20.9905 11.3634 20.5934C11.7605 20.1964 12.02 19.5004 12.02 18.23V18.13ZM12.77 16.63H13.61C14.8803 16.63 15.5763 16.3705 15.9734 15.9734C16.3705 15.5763 16.63 14.8803 16.63 13.61V12.77V10.39C16.63 9.11966 16.3705 8.42366 15.9734 8.02658C15.5763 7.62951 14.8803 7.37 13.61 7.37H11.23C11.1882 7.37 11.1471 7.36657 11.1072 7.35999H10.38C9.10965 7.35999 8.41365 7.6195 8.01658 8.01657C7.61951 8.41365 7.36 9.10965 7.36 10.38V11.1072C7.36658 11.1472 7.37 11.1882 7.37 11.23V13.61C7.37 14.8803 7.62951 15.5763 8.02658 15.9734C8.42365 16.3705 9.11965 16.63 10.39 16.63H12.77Z" fill="#424B5A"/>
</svg>
