<svg width="24" height="24" viewBox="0 0 24 24" fill="none" xmlns="http://www.w3.org/2000/svg">
<path fill-rule="evenodd" clip-rule="evenodd" d="M12.1882 10.5938C12.29 10.2871 12.5768 10.08 12.9 10.08H15.96C16.3742 10.08 16.71 10.4158 16.71 10.83C16.71 11.2443 16.3742 11.58 15.96 11.58H13.4413L13.1792 12.37H14.43C15.681 12.37 16.71 13.3827 16.71 14.6501C16.71 15.9011 15.6974 16.93 14.43 16.93H12.14C11.7258 16.93 11.39 16.5942 11.39 16.18C11.39 15.7658 11.7258 15.43 12.14 15.43H14.43C14.8626 15.43 15.21 15.079 15.21 14.6501C15.21 14.2175 14.859 13.87 14.43 13.87H12.14C11.8991 13.87 11.6729 13.7543 11.5319 13.559C11.3909 13.3636 11.3523 13.1124 11.4282 12.8838L12.1882 10.5938Z" fill="#424B5A"/>
<path fill-rule="evenodd" clip-rule="evenodd" d="M9.80833 10.1297C10.0984 10.2409 10.29 10.5194 10.29 10.83V16.17C10.29 16.5842 9.95419 16.92 9.53998 16.92C9.12576 16.92 8.78998 16.5842 8.78998 16.17V12.7874L8.59794 13.0012C8.32115 13.3094 7.84696 13.3348 7.53881 13.058C7.23065 12.7812 7.20522 12.307 7.48201 11.9989L8.98201 10.3289C9.18961 10.0977 9.51822 10.0185 9.80833 10.1297Z" fill="#424B5A"/>
<path fill-rule="evenodd" clip-rule="evenodd" d="M11.5309 1.41484C11.8541 1.15576 12.3261 1.20774 12.5852 1.53093L14.5652 4.0009C14.8242 4.32409 14.7723 4.79611 14.4491 5.05519C14.1259 5.31426 13.6539 5.26229 13.3948 4.9391L11.4148 2.46913C11.1557 2.14594 11.2077 1.67392 11.5309 1.41484Z" fill="#424B5A"/>
<path fill-rule="evenodd" clip-rule="evenodd" d="M12 4.97C7.50421 4.97 3.85999 8.61423 3.85999 13.11C3.85999 17.6058 7.50421 21.25 12 21.25C16.4958 21.25 20.14 17.6058 20.14 13.11C20.14 11.2865 19.5116 9.61207 18.49 8.25001C18.2415 7.91864 18.3087 7.44854 18.64 7.20002C18.9714 6.95149 19.4415 7.01864 19.69 7.35002C20.8885 8.94796 21.64 10.9335 21.64 13.11C21.64 18.4342 17.3242 22.75 12 22.75C6.67579 22.75 2.35999 18.4342 2.35999 13.11C2.35999 7.7858 6.67579 3.47 12 3.47C12.7466 3.47 13.4645 3.56891 14.1511 3.72984C14.5544 3.82436 14.8047 4.22791 14.7102 4.63119C14.6157 5.03448 14.2121 5.28478 13.8088 5.19026C13.2155 5.05119 12.6134 4.97 12 4.97Z" fill="#424B5A"/>
</svg>
