<svg width="24" height="24" viewBox="0 0 24 24" fill="none" xmlns="http://www.w3.org/2000/svg">
<path fill-rule="evenodd" clip-rule="evenodd" d="M11.5309 1.41484C11.8541 1.15576 12.3261 1.20774 12.5852 1.53093L14.5652 4.0009C14.8242 4.32409 14.7723 4.79611 14.4491 5.05519C14.1259 5.31426 13.6539 5.26229 13.3948 4.9391L11.4148 2.46913C11.1557 2.14594 11.2077 1.67392 11.5309 1.41484Z" fill="#424B5A"/>
<path fill-rule="evenodd" clip-rule="evenodd" d="M12 4.97C7.50421 4.97 3.85999 8.61423 3.85999 13.11C3.85999 17.6058 7.50421 21.25 12 21.25C16.4958 21.25 20.14 17.6058 20.14 13.11C20.14 11.2865 19.5116 9.61207 18.49 8.25001C18.2415 7.91864 18.3087 7.44854 18.64 7.20002C18.9714 6.95149 19.4415 7.01864 19.69 7.35002C20.8885 8.94796 21.64 10.9335 21.64 13.11C21.64 18.4342 17.3242 22.75 12 22.75C6.67579 22.75 2.35999 18.4342 2.35999 13.11C2.35999 7.7858 6.67579 3.47 12 3.47C12.7466 3.47 13.4645 3.56891 14.1511 3.72984C14.5544 3.82436 14.8047 4.22791 14.7102 4.63119C14.6157 5.03448 14.2121 5.28478 13.8088 5.19026C13.2155 5.05119 12.6134 4.97 12 4.97Z" fill="#424B5A"/>
<path fill-rule="evenodd" clip-rule="evenodd" d="M10.1381 10.5938C10.2399 10.2871 10.5268 10.08 10.85 10.08H13.91C14.3242 10.08 14.66 10.4158 14.66 10.83C14.66 11.2443 14.3242 11.58 13.91 11.58H11.3913L11.1291 12.37H12.38C13.6311 12.37 14.66 13.3827 14.66 14.6501C14.66 15.9011 13.6474 16.93 12.38 16.93H10.09C9.67581 16.93 9.34003 16.5942 9.34003 16.18C9.34003 15.7658 9.67581 15.43 10.09 15.43H12.38C12.8126 15.43 13.16 15.079 13.16 14.6501C13.16 14.2174 12.8089 13.87 12.38 13.87H10.09C9.84912 13.87 9.62288 13.7543 9.48189 13.559C9.3409 13.3636 9.30232 13.1124 9.3782 12.8838L10.1381 10.5938Z" fill="#424B5A"/>
</svg>
