<svg width="24" height="24" viewBox="0 0 24 24" fill="none" xmlns="http://www.w3.org/2000/svg">
<path fill-rule="evenodd" clip-rule="evenodd" d="M3.09467 3.09467C4.42914 1.7602 6.42603 1.25 9 1.25H15C17.574 1.25 19.5709 1.7602 20.9053 3.09467C22.2398 4.42914 22.75 6.42603 22.75 9V15C22.75 17.574 22.2398 19.5709 20.9053 20.9053C19.5709 22.2398 17.574 22.75 15 22.75H9C6.42603 22.75 4.42914 22.2398 3.09467 20.9053C1.7602 19.5709 1.25 17.574 1.25 15V9C1.25 6.42603 1.7602 4.42914 3.09467 3.09467ZM4.15533 4.15533C3.2398 5.07086 2.75 6.57397 2.75 9V15C2.75 17.426 3.2398 18.9291 4.15533 19.8447C5.07086 20.7602 6.57397 21.25 9 21.25H15C17.426 21.25 18.9291 20.7602 19.8447 19.8447C20.7602 18.9291 21.25 17.426 21.25 15V9C21.25 6.57397 20.7602 5.07086 19.8447 4.15533C18.9291 3.2398 17.426 2.75 15 2.75H9C6.57397 2.75 5.07086 3.2398 4.15533 4.15533ZM10.08 9.97C8.79422 9.97 7.75 11.0142 7.75 12.3C7.75 13.5858 8.79421 14.63 10.08 14.63H15C15.4142 14.63 15.75 14.9658 15.75 15.38C15.75 15.7942 15.4142 16.13 15 16.13H10.08C7.96579 16.13 6.25 14.4142 6.25 12.3C6.25 10.1858 7.96579 8.47 10.08 8.47H15.2193L14.8997 8.15033C14.6068 7.85744 14.6068 7.38257 14.8997 7.08967C15.1926 6.79678 15.6674 6.79678 15.9603 7.08967L17.5303 8.65967C17.8226 8.95191 17.8233 9.42549 17.532 9.71865L15.962 11.2986C15.67 11.5925 15.1952 11.594 14.9013 11.302C14.6075 11.01 14.606 10.5352 14.898 10.2414L15.1676 9.97H10.08Z" fill="#424B5A"/>
</svg>
