<svg width="24" height="24" viewBox="0 0 24 24" fill="none" xmlns="http://www.w3.org/2000/svg">
<path fill-rule="evenodd" clip-rule="evenodd" d="M9.75999 3.5C9.75999 3.08579 9.4242 2.75 9.00999 2.75C8.59578 2.75 8.25999 3.08579 8.25999 3.5V18.6919L4.51979 14.9591C4.22661 14.6665 3.75173 14.667 3.45913 14.9602C3.16653 15.2534 3.167 15.7283 3.46019 16.0209L8.48019 21.0309C8.55207 21.1026 8.63488 21.1567 8.72325 21.1932C8.80033 21.2252 8.88388 21.2446 8.9714 21.249C8.98418 21.2497 8.99705 21.25 9.00999 21.25L9.01279 21.25C9.21637 21.2493 9.40083 21.1674 9.53555 21.0351L9.54546 21.0251C9.61491 20.9543 9.6675 20.8732 9.70322 20.7867C9.73514 20.7097 9.75458 20.6261 9.75901 20.5386C9.75966 20.5258 9.75999 20.5129 9.75999 20.5V3.5ZM15.2767 2.80677C15.3651 2.84328 15.4479 2.8974 15.5198 2.96914L20.5398 7.97914C20.833 8.27174 20.8335 8.74662 20.5408 9.0398C20.2482 9.33299 19.7734 9.33346 19.4802 9.04086L15.74 5.30811V20.5C15.74 20.9142 15.4042 21.25 14.99 21.25C14.5758 21.25 14.24 20.9142 14.24 20.5V3.50062C14.24 3.49823 14.24 3.49584 14.24 3.49345C14.2408 3.39807 14.2598 3.30281 14.2968 3.21326C14.261 3.29969 14.2409 3.39428 14.24 3.49345M14.99 2.75C14.8922 2.75 14.7943 2.76902 14.7026 2.80705L14.99 2.75ZM14.7026 2.80705C14.7911 2.77029 14.8882 2.75 14.99 2.75L14.7026 2.80705ZM14.9901 2.75C15.0916 2.75001 15.1884 2.7702 15.2767 2.80677L14.9901 2.75Z" fill="#424B5A"/>
</svg>
