<svg width="24" height="24" viewBox="0 0 24 24" fill="none" xmlns="http://www.w3.org/2000/svg">
<path fill-rule="evenodd" clip-rule="evenodd" d="M12 1.25C12.4142 1.25 12.75 1.58579 12.75 2V14.1893L14.8197 12.1197C15.1125 11.8268 15.5874 11.8268 15.8803 12.1197C16.1732 12.4126 16.1732 12.8874 15.8803 13.1803L12.5303 16.5303C12.2374 16.8232 11.7625 16.8232 11.4697 16.5303L8.11965 13.1803C7.82676 12.8874 7.82676 12.4126 8.11965 12.1197C8.41254 11.8268 8.88742 11.8268 9.18031 12.1197L11.25 14.1893V2C11.25 1.58579 11.5858 1.25 12 1.25ZM15.6927 8.83565C15.7283 8.42297 16.0916 8.11723 16.5043 8.15277C18.4163 8.31741 19.9137 8.90535 20.9074 10.1299C21.8842 11.3338 22.26 13.0163 22.26 15.11V15.24C22.26 17.5492 21.8022 19.3609 20.5866 20.5766C19.3709 21.7922 17.5592 22.25 15.25 22.25H8.73998C6.4308 22.25 4.61903 21.7922 3.4034 20.5766C2.18777 19.3609 1.72998 17.5492 1.72998 15.24V15.11C1.72998 13.0315 2.10069 11.3592 3.06183 10.1577C4.04031 8.93462 5.51591 8.33891 7.40037 8.16324C7.81279 8.12479 8.1783 8.42796 8.21674 8.84039C8.25519 9.25281 7.95202 9.61832 7.53959 9.65676C5.88405 9.81109 4.86465 10.3054 4.23313 11.0948C3.58427 11.9058 3.22998 13.1685 3.22998 15.11V15.24C3.22998 17.4008 3.66719 18.7191 4.46406 19.5159C5.26093 20.3128 6.57916 20.75 8.73998 20.75H15.25C17.4108 20.75 18.729 20.3128 19.5259 19.5159C20.3228 18.7191 20.76 17.4008 20.76 15.24V15.11C20.76 13.1537 20.4007 11.8862 19.7426 11.0751C19.1012 10.2846 18.0637 9.79259 16.3756 9.64723C15.9629 9.6117 15.6572 9.24834 15.6927 8.83565Z" fill="#424B5A"/>
</svg>
