<svg width="24" height="24" viewBox="0 0 24 24" fill="none" xmlns="http://www.w3.org/2000/svg">
<path fill-rule="evenodd" clip-rule="evenodd" d="M2.75 12C2.75 6.89137 6.89137 2.75 12 2.75C17.1086 2.75 21.25 6.89137 21.25 12C21.25 17.1086 17.1086 21.25 12 21.25C6.89137 21.25 2.75 17.1086 2.75 12ZM12 1.25C6.06294 1.25 1.25 6.06294 1.25 12C1.25 17.9371 6.06294 22.75 12 22.75C17.9371 22.75 22.75 17.9371 22.75 12C22.75 6.06294 17.9371 1.25 12 1.25ZM16.0596 12.7289L12.5296 9.20892C12.2369 8.91703 11.7631 8.91703 11.4704 9.20892L7.94042 12.7289C7.64711 13.0214 7.64644 13.4963 7.93892 13.7896C8.2314 14.0829 8.70627 14.0836 8.99958 13.7911L12 10.7992L15.0004 13.7911C15.2937 14.0836 15.7686 14.0829 16.0611 13.7896C16.3536 13.4963 16.3529 13.0214 16.0596 12.7289Z" fill="#424B5A"/>
</svg>
