<svg width="24" height="24" viewBox="0 0 24 24" fill="none" xmlns="http://www.w3.org/2000/svg">
<path fill-rule="evenodd" clip-rule="evenodd" d="M9 6.75C8.30964 6.75 7.75 7.30964 7.75 8C7.75 8.69036 8.30964 9.25 9 9.25C9.69036 9.25 10.25 8.69036 10.25 8C10.25 7.30964 9.69036 6.75 9 6.75ZM6.25 8C6.25 6.48122 7.48122 5.25 9 5.25C10.5188 5.25 11.75 6.48122 11.75 8C11.75 9.51878 10.5188 10.75 9 10.75C7.48122 10.75 6.25 9.51878 6.25 8Z" fill="#424B5A"/>
<path fill-rule="evenodd" clip-rule="evenodd" d="M3.09467 3.09467C4.42914 1.7602 6.42603 1.25 9 1.25H12C12.4142 1.25 12.75 1.58579 12.75 2C12.75 2.41421 12.4142 2.75 12 2.75H9C6.57397 2.75 5.07086 3.2398 4.15533 4.15533C3.2398 5.07086 2.75 6.57397 2.75 9V15C2.75 17.426 3.2398 18.9291 4.15533 19.8447C5.07086 20.7602 6.57397 21.25 9 21.25H15C17.426 21.25 18.9291 20.7602 19.8447 19.8447C20.7602 18.9291 21.25 17.426 21.25 15V11C21.25 10.5858 21.5858 10.25 22 10.25C22.4142 10.25 22.75 10.5858 22.75 11V15C22.75 17.574 22.2398 19.5709 20.9053 20.9053C19.5709 22.2398 17.574 22.75 15 22.75H9C6.42603 22.75 4.42914 22.2398 3.09467 20.9053C1.7602 19.5709 1.25 17.574 1.25 15V9C1.25 6.42603 1.7602 4.42914 3.09467 3.09467Z" fill="#424B5A"/>
<path fill-rule="evenodd" clip-rule="evenodd" d="M20.3828 3.14151C20.0551 3.03229 19.7142 3.14084 19.564 3.36602C19.4279 3.57017 19.2006 3.69484 18.9553 3.69984C18.71 3.70485 18.4778 3.58955 18.3334 3.39113C18.155 3.14583 17.8045 3.04576 17.4885 3.14434C16.9383 3.32475 16.5821 4.08559 16.8347 4.88255C17.0365 5.51416 17.4897 6.01885 17.9819 6.3747C18.2251 6.55051 18.4638 6.67943 18.659 6.76193C18.8225 6.83097 18.9174 6.85157 18.9451 6.85759L18.9483 6.85827C18.9483 6.85827 18.9518 6.85743 18.9543 6.85686C18.9834 6.85001 19.0753 6.82844 19.2323 6.76096C19.4277 6.67695 19.6673 6.54598 19.9114 6.36845C20.4067 6.00819 20.8586 5.50306 21.0551 4.88332C21.3079 4.08666 20.9522 3.32438 20.3907 3.14409L20.3828 3.14151ZM20.8531 1.71714C20.2677 1.52331 19.5242 1.55882 18.9266 1.93597C18.3398 1.57843 17.6242 1.52849 17.0342 1.71481L17.0288 1.71653C15.4207 2.23768 14.9985 4.05532 15.4051 5.33684L15.4055 5.33811C15.7338 6.36619 16.4405 7.11127 17.1031 7.5903C17.4374 7.83199 17.775 8.01682 18.0753 8.14369C18.3514 8.26032 18.6705 8.36 18.95 8.36C19.2313 8.36 19.5519 8.25626 19.8246 8.13904C20.1236 8.01055 20.4602 7.82402 20.7936 7.58155C21.4532 7.10183 22.1614 6.35701 22.4849 5.33684M22.4849 5.33684C22.8917 4.05452 22.4684 2.23846 20.8531 1.71714L22.4849 5.33684Z" fill="#424B5A"/>
<path fill-rule="evenodd" clip-rule="evenodd" d="M19.8813 13.0689C19.3824 12.6404 18.5376 12.6404 18.0387 13.0689L13.8787 16.6389C12.8176 17.5501 11.1423 17.5503 10.0813 16.6389L10.0749 16.6334L9.74844 16.3465C9.30001 15.9637 8.53368 15.9168 8.01784 16.2628L3.08806 19.5727C2.74417 19.8036 2.27822 19.712 2.04733 19.3681C1.81644 19.0242 1.90804 18.5582 2.25194 18.3273L7.18194 15.0173C8.24502 14.3041 9.75679 14.3761 10.7288 15.2111L10.7351 15.2166L11.0615 15.5035C11.5608 15.9296 12.4033 15.9288 12.9013 15.5011L17.0613 11.9311C18.1224 11.0199 19.7977 11.0197 20.8587 11.9311L22.4887 13.3311C22.8029 13.6009 22.8388 14.0744 22.5689 14.3887C22.2991 14.7029 21.8256 14.7388 21.5113 14.4689L19.8813 13.0689Z" fill="#424B5A"/>
</svg>
