<svg width="24" height="24" viewBox="0 0 24 24" fill="none" xmlns="http://www.w3.org/2000/svg">
<path fill-rule="evenodd" clip-rule="evenodd" d="M9 6.75002C8.30964 6.75002 7.75 7.30967 7.75 8.00002C7.75 8.69038 8.30964 9.25002 9 9.25002C9.69036 9.25002 10.25 8.69038 10.25 8.00002C10.25 7.30967 9.69036 6.75002 9 6.75002ZM6.25 8.00002C6.25 6.48124 7.48122 5.25002 9 5.25002C10.5188 5.25002 11.75 6.48124 11.75 8.00002C11.75 9.5188 10.5188 10.75 9 10.75C7.48122 10.75 6.25 9.5188 6.25 8.00002Z" fill="#424B5A"/>
<path fill-rule="evenodd" clip-rule="evenodd" d="M3.09467 3.09469C4.42914 1.76022 6.42603 1.25002 9 1.25002H13C13.4142 1.25002 13.75 1.58581 13.75 2.00002C13.75 2.41424 13.4142 2.75002 13 2.75002H9C6.57397 2.75002 5.07086 3.23982 4.15533 4.15535C3.2398 5.07088 2.75 6.57399 2.75 9.00002V15C2.75 17.4261 3.2398 18.9292 4.15533 19.8447C5.07086 20.7602 6.57397 21.25 9 21.25H15C17.426 21.25 18.9291 20.7602 19.8447 19.8447C20.7602 18.9292 21.25 17.4261 21.25 15V10C21.25 9.58581 21.5858 9.25002 22 9.25002C22.4142 9.25002 22.75 9.58581 22.75 10V15C22.75 17.574 22.2398 19.5709 20.9053 20.9054C19.5709 22.2398 17.574 22.75 15 22.75H9C6.42603 22.75 4.42914 22.2398 3.09467 20.9054C1.7602 19.5709 1.25 17.574 1.25 15V9.00002C1.25 6.42605 1.7602 4.42916 3.09467 3.09469Z" fill="#424B5A"/>
<path fill-rule="evenodd" clip-rule="evenodd" d="M17.713 1.30711C17.9932 1.19103 18.3158 1.25519 18.5303 1.46969L20.5303 3.46969C20.8232 3.76259 20.8232 4.23746 20.5303 4.53035C20.2374 4.82325 19.7626 4.82325 19.4697 4.53035L18.75 3.81068V8.00002C18.75 8.41424 18.4142 8.75002 18 8.75002C17.5858 8.75002 17.25 8.41424 17.25 8.00002V2.00002C17.25 1.69668 17.4327 1.4232 17.713 1.30711Z" fill="#424B5A"/>
<path fill-rule="evenodd" clip-rule="evenodd" d="M18.5303 1.46969C18.8232 1.76259 18.8232 2.23746 18.5303 2.53035L16.5303 4.53035C16.2374 4.82325 15.7626 4.82325 15.4697 4.53035C15.1768 4.23746 15.1768 3.76258 15.4697 3.46969L17.4697 1.46969C17.7626 1.1768 18.2374 1.1768 18.5303 1.46969Z" fill="#424B5A"/>
<path fill-rule="evenodd" clip-rule="evenodd" d="M19.8813 13.0689C19.3824 12.6404 18.5376 12.6404 18.0387 13.0689L13.8787 16.6389C13.8786 16.639 13.8788 16.6389 13.8787 16.6389C12.8176 17.5502 11.1423 17.5503 10.0813 16.6389L10.0749 16.6334L9.74844 16.3465C9.30001 15.9638 8.53368 15.9168 8.01784 16.2628L3.08806 19.5727C2.74417 19.8036 2.27822 19.712 2.04733 19.3681C1.81644 19.0242 1.90804 18.5582 2.25194 18.3273L7.18194 15.0173C8.24502 14.3041 9.75679 14.3761 10.7288 15.2111L10.7351 15.2166L11.0615 15.5035C11.5608 15.9297 12.4033 15.9289 12.9013 15.5011L17.0613 11.9311C17.0612 11.9312 17.0614 11.931 17.0613 11.9311C18.1224 11.0199 19.7977 11.0197 20.8587 11.9311C20.8587 11.9311 20.8587 11.9311 20.8587 11.9311L22.4887 13.3311C22.8029 13.601 22.8388 14.0745 22.5689 14.3887C22.2991 14.7029 21.8256 14.7389 21.5113 14.469L19.8813 13.0689Z" fill="#424B5A"/>
</svg>
