<svg width="24" height="24" viewBox="0 0 24 24" fill="none" xmlns="http://www.w3.org/2000/svg">
<path fill-rule="evenodd" clip-rule="evenodd" d="M13.7599 2.00743C13.764 1.59323 13.4316 1.25414 13.0174 1.25004C12.6032 1.24594 12.2641 1.57838 12.26 1.99258L12.2501 2.99853C12.2463 3.14642 12.1326 3.25 12 3.25H11.97C10.996 3.25 10.23 4.04564 10.23 5C10.23 5.08485 10.2361 5.16832 10.2478 5.25H9C6.42603 5.25 4.42914 5.7602 3.09467 7.09467C1.7602 8.42914 1.25 10.426 1.25 13V15C1.25 17.574 1.7602 19.5709 3.09467 20.9053C4.42914 22.2398 6.42603 22.75 9 22.75H15C17.574 22.75 19.5709 22.2398 20.9053 20.9053C22.2398 19.5709 22.75 17.574 22.75 15V13C22.75 10.426 22.2398 8.42914 20.9053 7.09467C19.5709 5.7602 17.574 5.25 15 5.25H11.9793C11.8438 5.24962 11.73 5.13556 11.73 5C11.73 4.85436 11.844 4.75 11.97 4.75H12C12.9667 4.75 13.7326 3.97459 13.7499 3.02364L13.7599 2.00743ZM11.9781 6.75C11.9788 6.75 11.9794 6.75 11.98 6.75H12.98C12.9804 6.75 12.9808 6.75 12.9812 6.75H15C17.426 6.75 18.9291 7.2398 19.8447 8.15533C20.7602 9.07086 21.25 10.574 21.25 13V15C21.25 17.426 20.7602 18.9291 19.8447 19.8447C18.9291 20.7602 17.426 21.25 15 21.25H9C6.57397 21.25 5.07086 20.7602 4.15533 19.8447C3.2398 18.9291 2.75 17.426 2.75 15V13C2.75 10.574 3.2398 9.07086 4.15533 8.15533C5.07086 7.2398 6.57397 6.75 9 6.75H11.9781ZM16.5 12.02C16.5 11.4677 16.0523 11.02 15.5 11.02C14.9477 11.02 14.5 11.4677 14.5 12.02V12.04C14.5 12.5923 14.9477 13.04 15.5 13.04C16.0523 13.04 16.5 12.5923 16.5 12.04V12.02ZM10.1003 12.9903C10.3932 12.6974 10.3932 12.2225 10.1003 11.9296C9.80743 11.6367 9.33255 11.6367 9.03966 11.9296L8.04485 12.9244L7.08032 11.9599C6.78742 11.667 6.31255 11.667 6.01966 11.9599C5.72676 12.2528 5.72676 12.7277 6.01966 13.0206L6.98419 13.9851L5.98966 14.9796C5.69677 15.2725 5.69677 15.7474 5.98966 16.0403C6.28255 16.3332 6.75743 16.3332 7.05032 16.0403L8.04485 15.0458L9.06966 16.0706C9.36255 16.3635 9.83743 16.3635 10.1303 16.0706C10.4232 15.7777 10.4232 15.3028 10.1303 15.0099L9.10551 13.9851L10.1003 12.9903ZM13.53 15C12.9777 15 12.53 14.5523 12.53 14C12.53 13.4477 12.9777 13 13.53 13H13.54C14.0923 13 14.54 13.4477 14.54 14C14.54 14.5523 14.0923 15 13.54 15H13.53ZM17.47 13C16.9177 13 16.47 13.4477 16.47 14C16.47 14.5523 16.9177 15 17.47 15H17.48C18.0323 15 18.48 14.5523 18.48 14C18.48 13.4477 18.0323 13 17.48 13H17.47ZM15.5 14.96C16.0523 14.96 16.5 15.4077 16.5 15.96V15.98C16.5 16.5322 16.0523 16.98 15.5 16.98C14.9477 16.98 14.5 16.5322 14.5 15.98V15.96C14.5 15.4077 14.9477 14.96 15.5 14.96Z" fill="#424B5A"/>
</svg>
