<svg width="24" height="24" viewBox="0 0 24 24" fill="none" xmlns="http://www.w3.org/2000/svg">
<path fill-rule="evenodd" clip-rule="evenodd" d="M3.75 7C3.75 5.61497 4.09637 4.57535 4.7371 3.88534C5.36848 3.20538 6.39295 2.75 8 2.75H16C17.607 2.75 18.6315 3.20538 19.2629 3.88534C19.9036 4.57535 20.25 5.61497 20.25 7V17C20.25 18.385 19.9036 19.4246 19.2629 20.1147C18.6315 20.7946 17.607 21.25 16 21.25H8C6.39295 21.25 5.36848 20.7946 4.7371 20.1147C4.09637 19.4246 3.75 18.385 3.75 17V7ZM8 1.25C6.10705 1.25 4.63152 1.79462 3.6379 2.86466C2.65363 3.92465 2.25 5.38503 2.25 7V17C2.25 18.615 2.65363 20.0754 3.6379 21.1353C4.63152 22.2054 6.10705 22.75 8 22.75H16C17.893 22.75 19.3685 22.2054 20.3621 21.1353C21.3464 20.0754 21.75 18.615 21.75 17V7C21.75 5.38503 21.3464 3.92465 20.3621 2.86466C19.3685 1.79462 17.893 1.25 16 1.25H8ZM6.75 6.75C6.75 6.20421 7.20421 5.75 7.75 5.75H16.25C16.7958 5.75 17.25 6.20421 17.25 6.75V9.25C17.25 9.79579 16.7958 10.25 16.25 10.25H7.75C7.20421 10.25 6.75 9.79579 6.75 9.25V6.75ZM7.75 4.25C6.37579 4.25 5.25 5.37579 5.25 6.75V9.25C5.25 10.6242 6.37579 11.75 7.75 11.75H16.25C17.6242 11.75 18.75 10.6242 18.75 9.25V6.75C18.75 5.37579 17.6242 4.25 16.25 4.25H7.75ZM10.8303 14.7497C11.1232 15.0426 11.1232 15.5175 10.8303 15.8104L10.2107 16.43L10.8603 17.0797C11.1532 17.3725 11.1532 17.8474 10.8603 18.1403C10.5674 18.4332 10.0925 18.4332 9.79966 18.1403L9.15001 17.4907L8.53033 18.1103C8.23744 18.4032 7.76256 18.4032 7.46967 18.1103C7.17678 17.8175 7.17678 17.3426 7.46967 17.0497L8.08935 16.43L7.49967 15.8403C7.20678 15.5474 7.20678 15.0726 7.49967 14.7797C7.79256 14.4868 8.26744 14.4868 8.56033 14.7797L9.15001 15.3693L9.76966 14.7497C10.0626 14.4568 10.5374 14.4568 10.8303 14.7497ZM15.49 15.33C15.49 14.7777 15.9377 14.33 16.49 14.33H16.51C17.0623 14.33 17.51 14.7777 17.51 15.33C17.51 15.8823 17.0623 16.33 16.51 16.33H16.49C15.9377 16.33 15.49 15.8823 15.49 15.33ZM15.49 17.48C15.49 16.9277 15.0423 16.48 14.49 16.48C13.9377 16.48 13.49 16.9277 13.49 17.48V17.5C13.49 18.0523 13.9377 18.5 14.49 18.5C15.0423 18.5 15.49 18.0523 15.49 17.5V17.48Z" fill="#424B5A"/>
</svg>
