<svg width="24" height="24" viewBox="0 0 24 24" fill="none" xmlns="http://www.w3.org/2000/svg">
<path fill-rule="evenodd" clip-rule="evenodd" d="M4.88579 3.30149C4.51985 3.63876 4.25 4.17684 4.25 5V21.25H16.75V16.01V5C16.75 4.17684 16.4802 3.63876 16.1142 3.30149C15.7383 2.95499 15.1836 2.75 14.5 2.75H6.5C5.81637 2.75 5.26175 2.95499 4.88579 3.30149ZM18.25 15.2583V5C18.25 3.82316 17.8498 2.86124 17.1308 2.19851C16.4217 1.54501 15.4764 1.25 14.5 1.25H6.5C5.52363 1.25 4.57825 1.54501 3.86921 2.19851C3.15015 2.86124 2.75 3.82316 2.75 5V21.25H2C1.58579 21.25 1.25 21.5858 1.25 22C1.25 22.4142 1.58579 22.75 2 22.75H3.5H17.5H19C19.4142 22.75 19.75 22.4142 19.75 22C19.75 21.5858 19.4142 21.25 19 21.25H18.25V16.7583L22.0017 16.75C22.4152 16.7491 22.75 16.4136 22.75 16V10C22.75 9.71592 22.5895 9.45622 22.3354 9.32918L20.3354 8.32918C19.9649 8.14394 19.5144 8.29411 19.3292 8.66459C19.1439 9.03507 19.2941 9.48558 19.6646 9.67082L21.25 10.4635V15.2517L18.25 15.2583ZM8.39 4.24001C7.76273 4.24001 7.0881 4.38966 6.562 4.84856C6.01725 5.32372 5.75 6.02602 5.75 6.88V8.11C5.75 8.96398 6.01725 9.66628 6.562 10.1414C7.0881 10.6003 7.76273 10.75 8.39 10.75H12.62C13.2473 10.75 13.9219 10.6003 14.448 10.1414C14.9928 9.66628 15.26 8.96398 15.26 8.11V6.88C15.26 6.02602 14.9928 5.32372 14.448 4.84856C13.9219 4.38966 13.2473 4.24001 12.62 4.24001H8.39ZM7.25 6.88C7.25 6.34399 7.40775 6.10129 7.548 5.97895C7.7069 5.84035 7.97727 5.74001 8.39 5.74001H12.62C13.0327 5.74001 13.3031 5.84035 13.462 5.97895C13.6022 6.10129 13.76 6.34399 13.76 6.88V8.11C13.76 8.64602 13.6022 8.88872 13.462 9.01105C13.3031 9.14965 13.0327 9.25 12.62 9.25H8.39C7.97727 9.25 7.7069 9.14965 7.548 9.01105C7.40775 8.88872 7.25 8.64602 7.25 8.11V6.88ZM5.75 13C5.75 12.5858 6.08579 12.25 6.5 12.25H9.5C9.91421 12.25 10.25 12.5858 10.25 13C10.25 13.4142 9.91421 13.75 9.5 13.75H6.5C6.08579 13.75 5.75 13.4142 5.75 13Z" fill="#424B5A"/>
</svg>
