<svg width="24" height="24" viewBox="0 0 24 24" fill="none" xmlns="http://www.w3.org/2000/svg">
<path fill-rule="evenodd" clip-rule="evenodd" d="M8.10033 2.81076C8.17744 2.73365 8.31256 2.73365 8.38967 2.81076L9.82934 4.25043H6.66294C6.66821 4.24365 6.67401 4.23708 6.68033 4.23076L8.10033 2.81076ZM5.1263 4.25043C5.15343 3.85719 5.31819 3.47158 5.61967 3.1701L7.03967 1.7501C7.70256 1.08721 8.78744 1.08721 9.45033 1.7501L11.9507 4.25043H12.0393L14.5397 1.7501C15.2026 1.08721 16.2874 1.08721 16.9503 1.7501L18.3703 3.1701C18.6718 3.47158 18.8366 3.85719 18.8637 4.25043H19.5C20.3942 4.25043 21.1239 4.53034 21.6164 5.09488C22.0927 5.64082 22.25 6.34282 22.25 7.00043V8.00043C22.25 8.65804 22.0927 9.36004 21.6164 9.90598C21.3727 10.1853 21.071 10.3949 20.72 10.5355V18.0004C20.72 19.542 20.4728 20.8083 19.6253 21.6558C18.7779 22.5032 17.5115 22.7504 15.97 22.7504H7.97C6.42845 22.7504 5.16209 22.5032 4.31467 21.6558C3.46725 20.8083 3.22 19.542 3.22 18.0004V10.5214C2.88043 10.3808 2.58962 10.1744 2.35528 9.89924C1.88406 9.34599 1.75 8.63972 1.75 8.00043V7.00043C1.75 6.36114 1.88406 5.65487 2.35528 5.10162C2.8461 4.52536 3.58462 4.25043 4.5 4.25043H5.1263ZM17.3271 4.25043H14.1607L15.6003 2.81076C15.6774 2.73365 15.8126 2.73365 15.8897 2.81076L17.3097 4.23076C17.316 4.23708 17.3218 4.24365 17.3271 4.25043ZM11.64 5.75043H12.35H17.87H19.5C20.0758 5.75043 20.3461 5.92052 20.4861 6.08098C20.6423 6.26004 20.75 6.55804 20.75 7.00043V8.00043C20.75 8.44282 20.6423 8.74082 20.4861 8.91988C20.3461 9.08034 20.0758 9.25043 19.5 9.25043H14.97H8.94H4.5C3.88538 9.25043 3.6239 9.07536 3.49722 8.92662C3.35094 8.75487 3.25 8.46114 3.25 8.00043V7.00043C3.25 6.53972 3.35094 6.24599 3.49722 6.07424C3.6239 5.9255 3.88538 5.75043 4.5 5.75043H6.12H11.64ZM8.19 10.7504H4.72V18.0004C4.72 19.4589 4.97275 20.1925 5.37533 20.5951C5.77791 20.9977 6.51155 21.2504 7.97 21.2504H15.97C17.4285 21.2504 18.1621 20.9977 18.5647 20.5951C18.9672 20.1925 19.22 19.4589 19.22 18.0004V10.7504H15.72V15.1304C15.72 16.5334 14.1591 17.3546 13.004 16.5845L13.0007 16.5823L12.1129 15.9838C12.0391 15.9351 11.9343 15.9285 11.8394 15.9889L10.8951 16.6117C9.73594 17.3556 8.19 16.5454 8.19 15.1404V10.7504ZM14.22 10.7504H9.69V15.1404C9.69 15.3345 9.90192 15.464 10.0821 15.351L11.0225 14.7307C11.6067 14.3527 12.3604 14.346 12.946 14.7364L12.9492 14.7385L13.8371 15.3371C14.0019 15.4458 14.22 15.327 14.22 15.1304V10.7504Z" fill="#424B5A"/>
</svg>
