<svg width="24" height="24" viewBox="0 0 24 24" fill="none" xmlns="http://www.w3.org/2000/svg">
<path fill-rule="evenodd" clip-rule="evenodd" d="M3.53033 4.03033C3.01884 4.54182 2.75 5.49464 2.75 7.5V12.7697C3.32932 12.4674 4.03218 12.36 4.8 12.36H7.2C8.27397 12.36 9.22086 12.5702 9.88033 13.2297C10.5398 13.8891 10.75 14.836 10.75 15.91V16.75H13.25V15.91C13.25 14.836 13.4602 13.8891 14.1197 13.2297C14.7791 12.5702 15.726 12.36 16.8 12.36H19.2C19.9678 12.36 20.6707 12.4674 21.25 12.7697V7.5C21.25 5.49464 20.9812 4.54182 20.4697 4.03033C19.9582 3.51884 19.0054 3.25 17 3.25C16.5858 3.25 16.25 2.91421 16.25 2.5C16.25 2.08579 16.5858 1.75 17 1.75C18.9946 1.75 20.5418 1.98116 21.5303 2.96967C22.5188 3.95818 22.75 5.50536 22.75 7.5V15.91V17.5V19.2C22.75 20.274 22.5398 21.2209 21.8803 21.8803C21.2209 22.5398 20.274 22.75 19.2 22.75H16.8C15.726 22.75 14.7791 22.5398 14.1197 21.8803C13.4602 21.2209 13.25 20.274 13.25 19.2V18.25H10.75V19.2C10.75 20.274 10.5398 21.2209 9.88033 21.8803C9.22086 22.5398 8.27397 22.75 7.2 22.75H4.8C3.72603 22.75 2.77914 22.5398 2.11967 21.8803C1.4602 21.2209 1.25 20.274 1.25 19.2V17.5V15.91V7.5C1.25 5.50536 1.48116 3.95818 2.46967 2.96967C3.45818 1.98116 5.00536 1.75 7 1.75C7.41421 1.75 7.75 2.08579 7.75 2.5C7.75 2.91421 7.41421 3.25 7 3.25C4.99464 3.25 4.04182 3.51884 3.53033 4.03033ZM21.25 15.91C21.25 14.984 21.0602 14.5309 20.8197 14.2903C20.5791 14.0498 20.126 13.86 19.2 13.86H16.8C15.874 13.86 15.4209 14.0498 15.1803 14.2903C14.9398 14.5309 14.75 14.984 14.75 15.91V17.5V19.2C14.75 20.126 14.9398 20.5791 15.1803 20.8197C15.4209 21.0602 15.874 21.25 16.8 21.25H19.2C20.126 21.25 20.5791 21.0602 20.8197 20.8197C21.0602 20.5791 21.25 20.126 21.25 19.2V17.5V15.91ZM2.75 17.5V15.91C2.75 14.984 2.9398 14.5309 3.18033 14.2903C3.42086 14.0498 3.87397 13.86 4.8 13.86H7.2C8.12603 13.86 8.57914 14.0498 8.81967 14.2903C9.0602 14.5309 9.25 14.984 9.25 15.91V17.5V19.2C9.25 20.126 9.0602 20.5791 8.81967 20.8197C8.57914 21.0602 8.12603 21.25 7.2 21.25H4.8C3.87397 21.25 3.42086 21.0602 3.18033 20.8197C2.9398 20.5791 2.75 20.126 2.75 19.2V17.5Z" fill="#424B5A"/>
</svg>
