<svg width="24" height="24" viewBox="0 0 24 24" fill="none" xmlns="http://www.w3.org/2000/svg">
<path fill-rule="evenodd" clip-rule="evenodd" d="M12 2.75C11.2238 2.75 10.47 2.8456 9.74956 3.02567C9.74713 3.09693 9.73452 3.16827 9.71139 3.23754C9.30226 4.46283 8.9813 5.70984 8.7485 6.9692C10.9093 6.72693 13.0907 6.72693 15.2515 6.9692C15.0187 5.70984 14.6977 4.46283 14.2886 3.23754C14.2652 3.1673 14.2527 3.09604 14.2502 3.02562C13.5299 2.84558 12.7761 2.75 12 2.75ZM15.4914 8.50856C13.1733 8.21382 10.8267 8.21382 8.50856 8.50856C8.21381 10.8267 8.21381 13.1733 8.50856 15.4914C10.8267 15.7862 13.1733 15.7862 15.4914 15.4914C15.7862 13.1733 15.7862 10.8267 15.4914 8.50856ZM7.18713 7.18713C7.38061 6.03024 7.64434 4.88226 7.97833 3.74969C7.93251 3.74839 7.88771 3.74298 7.8443 3.73382C6.01835 4.65359 4.53891 6.16057 3.65398 8.00674C4.81757 7.65926 5.99763 7.38606 7.18713 7.18713ZM3.02562 9.74976C3.09604 9.74732 3.1673 9.73484 3.23754 9.71139C4.46283 9.30226 5.70984 8.9813 6.9692 8.7485C6.72693 10.9093 6.72693 13.0907 6.9692 15.2515C5.70984 15.0187 4.46283 14.6977 3.23754 14.2886C3.16827 14.2655 3.09693 14.2529 3.02567 14.2504C2.8456 13.53 2.75 12.7762 2.75 12C2.75 11.2239 2.84558 10.4701 3.02562 9.74976ZM17.0308 8.7485C18.2902 8.9813 19.5372 9.30226 20.7625 9.71139C20.8327 9.73484 20.904 9.74732 20.9744 9.74976C21.1544 10.4701 21.25 11.2239 21.25 12C21.25 12.7762 21.1544 13.53 20.9743 14.2504C20.9031 14.2529 20.8317 14.2655 20.7625 14.2886C19.5372 14.6977 18.2902 15.0187 17.0308 15.2515C17.2731 13.0907 17.2731 10.9093 17.0308 8.7485ZM20.346 8.00674C19.1824 7.65926 18.0024 7.38606 16.8129 7.18713C16.6139 5.99763 16.3407 4.81757 15.9933 3.65398C17.8939 4.565 19.435 6.10612 20.346 8.00674ZM3.74969 16.0217C3.74839 16.0675 3.74298 16.1123 3.73382 16.1557C4.62647 17.9278 6.0722 19.3735 7.8443 20.2662C7.88771 20.257 7.93251 20.2516 7.97833 20.2503C7.64434 19.1177 7.38061 17.9698 7.18713 16.8129C6.03023 16.6194 4.88226 16.3557 3.74969 16.0217ZM14.2886 20.7625C14.6977 19.5372 15.0187 18.2902 15.2515 17.0308C13.0907 17.2731 10.9093 17.2731 8.7485 17.0308C8.98129 18.2902 9.30226 19.5372 9.71139 20.7625C9.73452 20.8317 9.74713 20.9031 9.74956 20.9743C10.47 21.1544 11.2238 21.25 12 21.25C12.7761 21.25 13.5299 21.1544 14.2502 20.9744C14.2527 20.904 14.2652 20.8327 14.2886 20.7625ZM15.9933 20.346C16.3407 19.1824 16.6139 18.0024 16.8129 16.8129C17.9698 16.6194 19.1177 16.3557 20.2503 16.0217C20.2516 16.0675 20.257 16.1123 20.2662 16.1557C19.3464 17.9816 17.8394 19.4611 15.9933 20.346ZM1.25 12C1.25 6.06294 6.06294 1.25 12 1.25C17.9371 1.25 22.75 6.06294 22.75 12C22.75 17.9371 17.9371 22.75 12 22.75C6.06294 22.75 1.25 17.9371 1.25 12Z" fill="#424B5A"/>
</svg>
