<svg width="24" height="24" viewBox="0 0 24 24" fill="none" xmlns="http://www.w3.org/2000/svg">
<path fill-rule="evenodd" clip-rule="evenodd" d="M12 1.25C6.06579 1.25 1.25 6.06579 1.25 12C1.25 17.9342 6.06579 22.75 12 22.75C12.4142 22.75 12.75 22.4142 12.75 22C12.75 21.5858 12.4142 21.25 12 21.25C11.2239 21.25 10.47 21.1542 9.74956 20.9739C9.74709 20.9028 9.73448 20.8316 9.7114 20.7625C9.30194 19.5362 8.98079 18.2882 8.74794 17.0278C9.82842 17.1491 10.9142 17.21 12 17.21C12.4142 17.21 12.75 16.8742 12.75 16.46C12.75 16.0458 12.4142 15.71 12 15.71C10.8338 15.71 9.66746 15.6359 8.50817 15.4884C8.21382 13.1713 8.21395 10.8256 8.50857 8.50853C10.8256 8.21392 13.1713 8.21379 15.4883 8.50814C15.6359 9.66743 15.71 10.8338 15.71 12C15.71 12.4142 16.0458 12.75 16.46 12.75C16.8742 12.75 17.21 12.4142 17.21 12C17.21 10.9142 17.1491 9.8284 17.0277 8.74791C18.2881 8.98075 19.5362 9.3019 20.7625 9.71137C20.8326 9.73477 20.9037 9.74725 20.974 9.74972C21.1543 10.4701 21.25 11.224 21.25 12C21.25 12.4142 21.5858 12.75 22 12.75C22.4142 12.75 22.75 12.4142 22.75 12C22.75 6.06579 17.9342 1.25 12 1.25ZM15.2483 6.96882C13.0886 6.72691 10.9082 6.72703 8.74851 6.96917C8.98131 5.70982 9.30227 4.46283 9.7114 3.23754C9.73448 3.16841 9.74709 3.0972 9.74956 3.02607C10.47 2.84575 11.2239 2.75 12 2.75C12.776 2.75 13.5298 2.84573 14.2503 3.02603C14.2527 3.09594 14.2651 3.16669 14.2882 3.23644C14.6954 4.4621 15.0157 5.70935 15.2483 6.96882ZM20.3447 8.00633C19.1805 7.65873 17.9998 7.38547 16.8097 7.18656C16.6108 5.99734 16.3381 4.81765 15.9922 3.65453C17.892 4.5657 19.4332 6.10666 20.3447 8.00633ZM3.65525 8.00633C4.81843 7.65904 5.99808 7.38596 7.18714 7.1871C7.38062 6.03022 7.64435 4.88226 7.97834 3.74969C7.93308 3.74841 7.88882 3.74311 7.84591 3.73415C6.02044 4.65403 4.54072 6.16093 3.65525 8.00633ZM3.23754 9.71137C3.16744 9.73477 3.09632 9.74725 3.02603 9.74972C2.84574 10.4701 2.75 11.224 2.75 12C2.75 12.7761 2.84575 13.53 3.02608 14.2505C3.09682 14.2529 3.16765 14.2654 3.23644 14.2882C4.46211 14.6954 5.70937 15.0157 6.96885 15.2484C6.72694 13.0886 6.72706 10.9082 6.96921 8.74847C5.70984 8.98127 4.46284 9.30223 3.23754 9.71137ZM3.73415 16.1541C4.62724 17.9264 6.07363 19.3728 7.84592 20.2659C7.88883 20.2569 7.93308 20.2516 7.97834 20.2503C7.64404 19.1167 7.38013 17.9676 7.1866 16.8097C6.0298 16.6162 4.88202 16.3529 3.74973 16.0203C3.74852 16.066 3.7432 16.1108 3.73415 16.1541ZM20.5986 14.2994L19.3547 12.8764C19.0821 12.5645 18.6083 12.5327 18.2964 12.8053C18.0141 13.0521 17.9613 13.4638 18.1561 13.771C15.7142 13.821 13.76 15.8183 13.76 18.26C13.76 20.7455 15.7771 22.75 18.25 22.75C20.7242 22.75 22.74 20.7342 22.74 18.26C22.74 17.3398 22.4649 16.4732 21.9808 15.7591C21.7483 15.4163 21.282 15.3268 20.9391 15.5592C20.5963 15.7917 20.5068 16.258 20.7392 16.6009C21.0551 17.0667 21.24 17.6402 21.24 18.26C21.24 19.9058 19.8958 21.25 18.25 21.25C16.6029 21.25 15.26 19.9145 15.26 18.26C15.26 16.6586 16.5224 15.3448 18.113 15.2731C17.8004 15.5214 17.7362 15.9744 17.9731 16.3006C18.2164 16.6358 18.6854 16.7103 19.0206 16.4669L20.473 15.4124C20.485 15.4039 20.4969 15.395 20.5085 15.3857C20.5762 15.3316 20.6322 15.2679 20.676 15.1979C20.7363 15.1016 20.7729 14.9941 20.7853 14.884C20.8069 14.6917 20.7545 14.4917 20.6249 14.3305C20.6164 14.3198 20.6076 14.3095 20.5986 14.2994Z" fill="#424B5A"/>
</svg>
