<svg width="24" height="24" viewBox="0 0 24 24" fill="none" xmlns="http://www.w3.org/2000/svg">
<path fill-rule="evenodd" clip-rule="evenodd" d="M1.25 12C1.25 6.06579 6.06579 1.25 12 1.25C17.9342 1.25 22.75 6.06579 22.75 12C22.75 12.4142 22.4142 12.75 22 12.75C21.5858 12.75 21.25 12.4142 21.25 12C21.25 11.224 21.1543 10.4701 20.974 9.74972C20.9037 9.74725 20.8326 9.73477 20.7625 9.71137C19.5362 9.3019 18.2881 8.98075 17.0278 8.74791C17.1491 9.8284 17.21 10.9142 17.21 12C17.21 12.4142 16.8742 12.75 16.46 12.75C16.0458 12.75 15.71 12.4142 15.71 12C15.71 10.8338 15.6359 9.66744 15.4883 8.50814C13.1713 8.21379 10.8256 8.21392 8.50857 8.50853C8.21395 10.8256 8.21382 13.1713 8.50817 15.4884C9.66746 15.6359 10.8338 15.71 12 15.71C12.4142 15.71 12.75 16.0458 12.75 16.46C12.75 16.8742 12.4142 17.21 12 17.21C10.9142 17.21 9.82842 17.1491 8.74794 17.0278C8.98079 18.2882 9.30194 19.5362 9.7114 20.7625C9.73448 20.8316 9.74709 20.9028 9.74956 20.9739C10.47 21.1542 11.2239 21.25 12 21.25C12.4142 21.25 12.75 21.5858 12.75 22C12.75 22.4142 12.4142 22.75 12 22.75C6.06579 22.75 1.25 17.9342 1.25 12ZM8.74851 6.96917C10.9082 6.72703 13.0886 6.72691 15.2483 6.96882C15.0157 5.70935 14.6954 4.4621 14.2882 3.23644C14.2651 3.16669 14.2527 3.09594 14.2503 3.02603C13.5298 2.84573 12.776 2.75 12 2.75C11.2239 2.75 10.47 2.84575 9.74956 3.02607C9.74709 3.0972 9.73448 3.16841 9.7114 3.23754C9.30227 4.46283 8.98131 5.70982 8.74851 6.96917ZM16.8097 7.18656C17.9998 7.38547 19.1805 7.65873 20.3447 8.00633C19.4332 6.10666 17.892 4.5657 15.9922 3.65453C16.3381 4.81765 16.6108 5.99734 16.8097 7.18656ZM7.18714 7.1871C5.99808 7.38596 4.81843 7.65904 3.65525 8.00633C4.54072 6.16093 6.02044 4.65403 7.84591 3.73415C7.88882 3.74311 7.93308 3.74841 7.97834 3.74969C7.64435 4.88226 7.38062 6.03022 7.18714 7.1871ZM3.02603 9.74972C3.09632 9.74725 3.16744 9.73477 3.23754 9.71137C4.46284 9.30223 5.70984 8.98127 6.96921 8.74847C6.72706 10.9082 6.72694 13.0886 6.96885 15.2484C5.70937 15.0157 4.46211 14.6954 3.23644 14.2882C3.16765 14.2654 3.09682 14.2529 3.02608 14.2505C2.84575 13.53 2.75 12.7761 2.75 12C2.75 11.224 2.84574 10.4701 3.02603 9.74972ZM7.84592 20.2659C6.07363 19.3728 4.62724 17.9264 3.73415 16.1541C3.7432 16.1108 3.74852 16.066 3.74973 16.0203C4.88202 16.3529 6.0298 16.6162 7.1866 16.8097C7.38013 17.9676 7.64404 19.1167 7.97834 20.2503C7.93308 20.2516 7.88883 20.2569 7.84592 20.2659ZM18.2 15.75C16.8469 15.75 15.75 16.8469 15.75 18.2C15.75 19.5531 16.8469 20.65 18.2 20.65C19.5531 20.65 20.65 19.5531 20.65 18.2C20.65 16.8469 19.5531 15.75 18.2 15.75ZM14.25 18.2C14.25 16.0185 16.0185 14.25 18.2 14.25C20.3815 14.25 22.15 16.0185 22.15 18.2C22.15 19.0212 21.8994 19.784 21.4704 20.4158C21.4911 20.4325 21.5111 20.4505 21.5303 20.4697L22.5303 21.4697C22.8232 21.7626 22.8232 22.2374 22.5303 22.5303C22.2374 22.8232 21.7626 22.8232 21.4697 22.5303L20.4697 21.5303C20.4505 21.5111 20.4325 21.4911 20.4158 21.4705C19.784 21.8994 19.0212 22.15 18.2 22.15C16.0185 22.15 14.25 20.3815 14.25 18.2Z" fill="#424B5A"/>
</svg>
