<svg width="24" height="24" viewBox="0 0 24 24" fill="none" xmlns="http://www.w3.org/2000/svg">
<path fill-rule="evenodd" clip-rule="evenodd" d="M1.25 12C1.25 6.06579 6.06579 1.25 12 1.25C17.9342 1.25 22.75 6.06579 22.75 12C22.75 12.4142 22.4142 12.75 22 12.75C21.5858 12.75 21.25 12.4142 21.25 12C21.25 11.224 21.1543 10.4701 20.974 9.74972C20.9037 9.74725 20.8326 9.73477 20.7625 9.71137C19.5362 9.3019 18.2881 8.98075 17.0278 8.74791C17.1491 9.8284 17.21 10.9142 17.21 12C17.21 12.4142 16.8742 12.75 16.46 12.75C16.0458 12.75 15.71 12.4142 15.71 12C15.71 10.8338 15.6359 9.66744 15.4883 8.50814C13.1713 8.21379 10.8256 8.21392 8.50857 8.50853C8.21395 10.8256 8.21382 13.1713 8.50817 15.4884C9.66746 15.6359 10.8338 15.71 12 15.71C12.4142 15.71 12.75 16.0458 12.75 16.46C12.75 16.8742 12.4142 17.21 12 17.21C10.9142 17.21 9.82842 17.1491 8.74794 17.0278C8.98079 18.2882 9.30194 19.5362 9.7114 20.7625C9.73448 20.8316 9.74709 20.9028 9.74956 20.9739C10.47 21.1542 11.2239 21.25 12 21.25C12.4142 21.25 12.75 21.5858 12.75 22C12.75 22.4142 12.4142 22.75 12 22.75C6.06579 22.75 1.25 17.9342 1.25 12ZM8.74851 6.96917C10.9082 6.72703 13.0886 6.72691 15.2483 6.96882C15.0157 5.70935 14.6954 4.4621 14.2882 3.23644C14.2651 3.16669 14.2527 3.09594 14.2503 3.02603C13.5298 2.84573 12.776 2.75 12 2.75C11.2239 2.75 10.47 2.84575 9.74956 3.02607C9.74709 3.0972 9.73448 3.16841 9.7114 3.23754C9.30227 4.46283 8.98131 5.70982 8.74851 6.96917ZM16.8097 7.18656C17.9998 7.38547 19.1805 7.65873 20.3447 8.00633C19.4332 6.10666 17.892 4.5657 15.9922 3.65453C16.3381 4.81765 16.6108 5.99734 16.8097 7.18656ZM7.18714 7.1871C5.99808 7.38596 4.81843 7.65904 3.65525 8.00633C4.54072 6.16093 6.02044 4.65403 7.84591 3.73415C7.88882 3.74311 7.93308 3.74841 7.97834 3.74969C7.64435 4.88226 7.38062 6.03022 7.18714 7.1871ZM3.02603 9.74972C3.09632 9.74725 3.16744 9.73477 3.23754 9.71137C4.46284 9.30223 5.70984 8.98127 6.96921 8.74847C6.72706 10.9082 6.72694 13.0886 6.96885 15.2484C5.70937 15.0157 4.46211 14.6954 3.23644 14.2882C3.16765 14.2654 3.09682 14.2529 3.02608 14.2505C2.84575 13.53 2.75 12.7761 2.75 12C2.75 11.224 2.84574 10.4701 3.02603 9.74972ZM7.84592 20.2659C6.07363 19.3728 4.62724 17.9264 3.73415 16.1541C3.7432 16.1108 3.74852 16.066 3.74973 16.0203C4.88202 16.3529 6.0298 16.6162 7.1866 16.8097C7.38013 17.9676 7.64404 19.1167 7.97834 20.2503C7.93308 20.2516 7.88883 20.2569 7.84592 20.2659ZM20.1334 14.4264C20.7966 14.3583 21.4068 14.6562 21.9503 15.1997C22.4969 15.7463 22.7984 16.3578 22.7326 17.0226C22.6707 17.6478 22.298 18.1327 21.9503 18.4804L21.5434 18.8873C21.4884 18.9694 21.4183 19.0389 21.338 19.0927L18.4179 22.0127C18.2714 22.1664 18.091 22.278 17.9429 22.3521C17.787 22.43 17.5976 22.5007 17.407 22.5308L17.3945 22.5328L16.0461 22.7225C15.6045 22.7854 15.1486 22.6693 14.8197 22.3403C14.4907 22.0114 14.3746 21.5563 14.4374 21.1148L14.6291 19.753C14.6597 19.5593 14.732 19.371 14.8095 19.2177C14.8871 19.0644 14.9974 18.892 15.1397 18.7497L18.1592 15.7302C18.1663 15.7227 18.1737 15.7154 18.1812 15.7082L18.6797 15.2097C19.0273 14.862 19.5112 14.4904 20.1334 14.4264ZM18.4686 17.5421L16.2017 19.8091L16.2014 19.8093C16.2002 19.8108 16.1948 19.8171 16.1862 19.8296C16.1744 19.8468 16.161 19.8692 16.148 19.8949C16.135 19.9205 16.1249 19.9447 16.118 19.9645C16.1156 19.9714 16.1139 19.9768 16.1127 19.9808C16.1118 19.984 16.1112 19.9863 16.1108 19.9877L15.937 21.223L17.173 21.0491C17.1762 21.0483 17.1853 21.046 17.2002 21.0409C17.2215 21.0336 17.2466 21.0232 17.2721 21.0104C17.2978 20.9976 17.3182 20.9852 17.3318 20.9757L17.339 20.9705L17.3497 20.9597L19.6158 18.6935C19.1575 18.3938 18.7667 18.0016 18.4686 17.5421ZM20.7146 17.5948C20.2117 17.3531 19.8075 16.9465 19.5688 16.4419L19.7403 16.2703C20.0027 16.008 20.1788 15.9297 20.2867 15.9186C20.3534 15.9117 20.5432 15.9138 20.8897 16.2603C21.2431 16.6137 21.2466 16.8072 21.2399 16.8749C21.2293 16.9823 21.152 17.1573 20.8897 17.4197L20.7146 17.5948Z" fill="#424B5A"/>
</svg>
