<svg width="24" height="24" viewBox="0 0 24 24" fill="none" xmlns="http://www.w3.org/2000/svg">
<path fill-rule="evenodd" clip-rule="evenodd" d="M15.1434 6.95437L18.383 4.30219C16.6511 2.8643 14.4264 2 12 2C8.13515 2 4.78241 4.1923 3.11811 7.40109L3.11813 7.40109C2.40328 8.77801 2 10.3418 2 12C2 13.7148 2.43133 15.3286 3.19176 16.739L3.19184 16.739L3.19179 16.739C4.88081 19.8714 8.19179 22 12 22C14.3698 22 16.5467 21.1758 18.2605 19.7984C20.0226 18.3819 21.2945 16.3802 21.7813 14.0879C21.9247 13.4143 22 12.7159 22 12C22 11.3615 21.9401 10.7368 21.8253 10.1319H17.6451H12.2199V14.0879H17.5671C17.0858 15.3725 16.172 16.4456 15.0028 17.1313H15.0028C14.122 17.6484 13.0956 17.9445 12 17.9445C9.45112 17.9445 7.27694 16.3401 6.43245 14.0863L6.4324 14.0863L6.43242 14.0863C6.18848 13.4374 6.05551 12.7341 6.05543 12C6.05543 11.3236 6.16863 10.6736 6.37633 10.0681L6.37631 10.0681L6.37636 10.0681C7.17854 7.73348 9.39339 6.05547 12 6.05547C13.1544 6.05547 14.2319 6.38461 15.1434 6.95437Z" fill="#424B5A"/>
</svg>
