<svg width="24" height="24" viewBox="0 0 24 24" fill="none" xmlns="http://www.w3.org/2000/svg">
<path fill-rule="evenodd" clip-rule="evenodd" d="M12 1.25C12.4142 1.25 12.75 1.58579 12.75 2V3.7837C14.4635 3.93833 16.0301 4.61734 17.2814 5.65797L21.4697 1.46967C21.7626 1.17678 22.2374 1.17678 22.5303 1.46967C22.8232 1.76256 22.8232 2.23744 22.5303 2.53033L14.6509 10.4098C14.6507 10.41 14.6505 10.4101 14.6503 10.4103L10.4103 14.6503C10.4101 14.6505 10.41 14.6507 10.4098 14.6509L2.53033 22.5303C2.23744 22.8232 1.76256 22.8232 1.46967 22.5303C1.17678 22.2374 1.17678 21.7626 1.46967 21.4697L5.65756 17.2818C4.6159 16.0293 3.93797 14.4634 3.78363 12.75H2C1.58579 12.75 1.25 12.4142 1.25 12C1.25 11.5858 1.58579 11.25 2 11.25H3.78368C4.14066 7.2939 7.2939 4.14066 11.25 3.78368V2C11.25 1.58579 11.5858 1.25 12 1.25ZM6.72367 16.2157L8.87264 14.0667C8.4814 13.4762 8.25 12.7655 8.25 12C8.25 9.92579 9.92579 8.25 12 8.25C12.7655 8.25 13.4762 8.4814 14.0667 8.87264L16.2153 6.72407C15.0589 5.80137 13.5919 5.25 12 5.25C8.27421 5.25 5.25 8.27421 5.25 12C5.25 13.5924 5.8001 15.0583 6.72367 16.2157ZM12.9692 9.97017C12.6758 9.82927 12.3472 9.75 12 9.75C10.7542 9.75 9.75 10.7542 9.75 12C9.75 12.3472 9.82927 12.6758 9.97017 12.9692L12.9692 9.97017ZM19.5678 8.70095C19.4026 8.32109 18.9608 8.14704 18.581 8.3122C18.2011 8.47736 18.027 8.91918 18.1922 9.29904C18.5518 10.126 18.75 11.0343 18.75 12C18.75 15.7258 15.7258 18.75 12 18.75C11.0343 18.75 10.126 18.5518 9.29904 18.1922C8.91918 18.027 8.47736 18.2011 8.3122 18.581C8.14704 18.9608 8.32109 19.4026 8.70095 19.5678C9.4957 19.9133 10.3512 20.1366 11.25 20.2168V22C11.25 22.4142 11.5858 22.75 12 22.75C12.4142 22.75 12.75 22.4142 12.75 22V20.2163C16.7061 19.8593 19.8593 16.7061 20.2163 12.75H22C22.4142 12.75 22.75 12.4142 22.75 12C22.75 11.5858 22.4142 11.25 22 11.25H20.2168C20.1366 10.3512 19.9133 9.4957 19.5678 8.70095Z" fill="#424B5A"/>
</svg>
