<svg width="24" height="24" viewBox="0 0 24 24" fill="none" xmlns="http://www.w3.org/2000/svg">
<path fill-rule="evenodd" clip-rule="evenodd" d="M5.46096 5.47973C9.06791 1.86353 14.932 1.86353 18.539 5.47973L18.3541 18.7456C14.8539 22.061 9.15684 22.0621 5.64551 18.7453C1.84264 15.146 1.7787 9.15274 5.45961 5.48108L5.46096 5.47973ZM18.539 5.47973L18.3542 18.7455C22.1475 15.1461 22.2113 9.15209 18.5396 5.48041L18.539 5.47973ZM4.39961 4.41976C8.59248 0.216855 15.4074 0.216851 19.6003 4.41975C23.8685 8.68793 23.7924 15.6536 19.3862 19.8341L19.3857 19.8345C15.3061 23.6989 8.7036 23.698 4.61491 19.8352L4.61441 19.8348C0.197522 15.6543 0.121205 8.68816 4.39961 4.41976ZM16.3546 16.6156C16.6559 16.3314 16.6698 15.8567 16.3855 15.5554C16.1013 15.2541 15.6266 15.2403 15.3253 15.5245C13.4936 17.2526 10.5059 17.2509 8.68593 15.5257C8.38531 15.2408 7.91061 15.2535 7.62565 15.5541C7.3407 15.8547 7.35341 16.3294 7.65403 16.6144C10.054 18.8893 13.9464 18.8876 16.3546 16.6156Z" fill="#424B5A"/>
</svg>
