<svg width="24" height="24" viewBox="0 0 24 24" fill="none" xmlns="http://www.w3.org/2000/svg">
<path fill-rule="evenodd" clip-rule="evenodd" d="M16.4907 2.24036C14.823 1.75225 13.4381 1.68107 12.4719 2.37642C11.4917 3.08188 11.25 4.35027 11.25 5.68016V8.56016C11.25 9.86066 11.5129 10.9425 12.1928 11.6972C12.8886 12.4696 13.8836 12.7502 15 12.7502H18.32C19.6499 12.7502 20.9183 12.5085 21.6237 11.5283C22.3191 10.5621 22.2479 9.17719 21.7598 7.50949L21.7595 7.50853C21.0376 5.0539 18.9463 2.96259 16.4916 2.24063L16.4907 2.24036ZM12.75 5.68016C12.75 4.41005 13.0083 3.83844 13.3481 3.5939C13.7019 3.33927 14.4569 3.20809 16.0689 3.67984C18.034 4.25802 19.7423 5.96646 20.3204 7.93155C20.7921 9.54336 20.6609 10.2983 20.4063 10.6521C20.1617 10.9918 19.5901 11.2502 18.32 11.2502H15C14.1164 11.2502 13.6114 11.0308 13.3072 10.6932C12.9871 10.3378 12.75 9.69966 12.75 8.56016V5.68016ZM9.40985 4.74504C9.81571 4.66228 10.0776 4.26618 9.99488 3.86031C9.91212 3.45445 9.51602 3.19252 9.11016 3.27528C4.1192 4.29296 0.503512 9.09938 1.37954 14.5394L1.37984 14.5412C2.05174 18.6485 5.35056 21.9486 9.45979 22.6105C14.9225 23.4975 19.7288 19.8587 20.7353 14.8479C20.8169 14.4418 20.5538 14.0464 20.1477 13.9648C19.7416 13.8833 19.3463 14.1464 19.2647 14.5525C18.4112 18.8016 14.3375 21.8828 9.70021 21.1299L9.69918 21.1297C6.22917 20.5712 3.42867 17.7719 2.8603 14.2999C2.11692 9.68036 5.1811 5.6073 9.40985 4.74504Z" fill="#424B5A"/>
</svg>
