<svg width="24" height="24" viewBox="0 0 24 24" fill="none" xmlns="http://www.w3.org/2000/svg">
<path fill-rule="evenodd" clip-rule="evenodd" d="M4.75 4C4.75 3.31421 5.31421 2.75 6 2.75H18C18.6858 2.75 19.25 3.31421 19.25 4V7.57001H4.75V4ZM3.25 8.32001V4C3.25 2.48579 4.48579 1.25 6 1.25H18C19.5142 1.25 20.75 2.48579 20.75 4V8.14714C20.7631 8.20264 20.77 8.26051 20.77 8.32001V11.88C20.77 13.2333 20.0319 14.4815 18.8585 15.1432L15.8943 16.8156C15.5049 17.0319 15.26 17.4495 15.26 17.9V20C15.26 21.5142 14.0242 22.75 12.51 22.75H11.51C9.9958 22.75 8.76001 21.5142 8.76001 20V17.9C8.76001 17.4495 8.51514 17.0319 8.12576 16.8156L8.12145 16.8132L5.16463 15.145L5.16293 15.144C3.97447 14.4802 3.25 13.2289 3.25 11.88V8.32001ZM19.27 9.07001H4.75V11.88C4.75 12.6904 5.1849 13.4386 5.89543 13.835L5.89857 13.8368L8.85653 15.5056C9.72579 15.9897 10.26 16.9114 10.26 17.9V20C10.26 20.6858 10.8242 21.25 11.51 21.25H12.51C13.1958 21.25 13.76 20.6858 13.76 20V17.9C13.76 16.9114 14.2942 15.9897 15.1635 15.5057L18.1215 13.8368C18.828 13.4384 19.27 12.6866 19.27 11.88V9.07001Z" fill="#424B5A"/>
</svg>
