<svg width="24" height="24" viewBox="0 0 24 24" fill="none" xmlns="http://www.w3.org/2000/svg">
<path fill-rule="evenodd" clip-rule="evenodd" d="M9.10001 1.25C8.63122 1.25 8.12087 1.38304 7.67718 1.56743C7.23336 1.75187 6.77992 2.01942 6.44967 2.34967L6.98 2.88L6.44966 2.34968L2.34967 6.44968C2.01942 6.77994 1.75187 7.23337 1.56743 7.67718C1.38304 8.12087 1.25 8.63122 1.25 9.10001V14.9C1.25 15.3688 1.38304 15.8791 1.56743 16.3228C1.75187 16.7666 2.01942 17.2201 2.34967 17.5503L4.40967 19.6103L6.44966 21.6503L6.98 21.12L6.44967 21.6503C6.77992 21.9806 7.23336 22.2481 7.67718 22.4326C8.12087 22.617 8.63122 22.75 9.10001 22.75H14.9C15.3688 22.75 15.8791 22.617 16.3228 22.4326C16.7666 22.2481 17.2201 21.9806 17.5503 21.6503L21.6503 17.5503C21.9806 17.2201 22.2481 16.7666 22.4326 16.3228C22.617 15.8791 22.75 15.3688 22.75 14.9V9.10001C22.75 8.63122 22.617 8.12087 22.4326 7.67718C22.2481 7.23337 21.9806 6.77994 21.6503 6.44968L19.6124 4.41172C19.6117 4.41104 19.611 4.41036 19.6103 4.40967C19.6096 4.40899 19.609 4.40831 19.6083 4.40763L17.5503 2.34967C17.2201 2.01942 16.7666 1.75187 16.3228 1.56743C15.8791 1.38304 15.3688 1.25 14.9 1.25H9.10001ZM18.0193 4.94L16.4897 3.41034C16.3399 3.26059 16.0734 3.08813 15.7472 2.95258C15.4209 2.81696 15.1112 2.75 14.9 2.75H9.10001C8.88879 2.75 8.57914 2.81696 8.25282 2.95258C7.92664 3.08813 7.66007 3.26059 7.51033 3.41034L3.41034 7.51034L2.88816 6.98817L3.41034 7.51034C3.26059 7.66009 3.08813 7.92665 2.95257 8.25283C2.81696 8.57914 2.75 8.8888 2.75 9.10001V14.9C2.75 15.1112 2.81696 15.4209 2.95257 15.7472C3.08813 16.0733 3.26059 16.3399 3.41034 16.4897L4.94 18.0193L18.0193 4.94ZM6.00066 19.08L7.51033 20.5897C7.66007 20.7394 7.92664 20.9119 8.25282 21.0474C8.57914 21.183 8.88879 21.25 9.10001 21.25H14.9C15.1112 21.25 15.4209 21.183 15.7472 21.0474C16.0734 20.9119 16.3399 20.7394 16.4897 20.5897L20.5897 16.4897C20.7394 16.3399 20.9119 16.0733 21.0474 15.7472C21.183 15.4209 21.25 15.1112 21.25 14.9V9.10001C21.25 8.8888 21.183 8.57914 21.0474 8.25283C20.9119 7.92665 20.7394 7.66009 20.5897 7.51034L19.08 6.00067L6.00066 19.08Z" fill="#424B5A"/>
</svg>
