<svg width="24" height="24" viewBox="0 0 24 24" fill="none" xmlns="http://www.w3.org/2000/svg">
<path fill-rule="evenodd" clip-rule="evenodd" d="M2.71997 12C2.71997 6.89137 6.86134 2.75 11.97 2.75C17.0786 2.75 21.22 6.89137 21.22 12C21.22 17.1086 17.0786 21.25 11.97 21.25C6.86134 21.25 2.71997 17.1086 2.71997 12ZM11.97 1.25C6.03291 1.25 1.21997 6.06294 1.21997 12C1.21997 17.9371 6.03291 22.75 11.97 22.75C17.907 22.75 22.72 17.9371 22.72 12C22.72 6.06294 17.907 1.25 11.97 1.25ZM7.82573 15.5718C7.58926 15.2317 7.12187 15.1478 6.78179 15.3842C6.44172 15.6207 6.35773 16.0881 6.59421 16.4282C7.77923 18.1324 9.76549 19.25 12 19.25C14.2364 19.25 16.2105 18.1308 17.4038 16.4309C17.6418 16.0919 17.5599 15.6241 17.2209 15.3861C16.8819 15.1482 16.4141 15.2301 16.1761 15.5691C15.2494 16.8892 13.7235 17.75 12 17.75C10.2745 17.75 8.74071 16.8876 7.82573 15.5718Z" fill="#424B5A"/>
</svg>
