<svg width="24" height="24" viewBox="0 0 24 24" fill="none" xmlns="http://www.w3.org/2000/svg">
<path fill-rule="evenodd" clip-rule="evenodd" d="M9 1.25C6.42603 1.25 4.42914 1.7602 3.09467 3.09467C1.7602 4.42914 1.25 6.42603 1.25 9V15C1.25 17.574 1.7602 19.5709 3.09467 20.9053C4.42914 22.2398 6.42603 22.75 9 22.75H15C17.574 22.75 19.5709 22.2398 20.9053 20.9053C22.2398 19.5709 22.75 17.574 22.75 15V9C22.75 6.42603 22.2398 4.42914 20.9053 3.09467C19.5709 1.7602 17.574 1.25 15 1.25H9ZM2.75 9C2.75 6.57397 3.2398 5.07086 4.15533 4.15533C5.07086 3.2398 6.57397 2.75 9 2.75H15C17.426 2.75 18.9291 3.2398 19.8447 4.15533C20.7602 5.07086 21.25 6.57397 21.25 9V15C21.25 17.426 20.7602 18.9291 19.8447 19.8447C18.9291 20.7602 17.426 21.25 15 21.25H9C6.57397 21.25 5.07086 20.7602 4.15533 19.8447C3.2398 18.9291 2.75 17.426 2.75 15V9ZM10 6.25C7.93579 6.25 6.25 7.93579 6.25 10V12V14C6.25 16.0642 7.93579 17.75 10 17.75H12H14C16.0642 17.75 17.75 16.0642 17.75 14V12V10C17.75 7.93579 16.0642 6.25 14 6.25H12H10ZM16.25 11.25V10C16.25 8.76421 15.2358 7.75 14 7.75H12.75V11.25H16.25ZM12.75 12.75H16.25V14C16.25 15.2358 15.2358 16.25 14 16.25H12.75V12.75ZM11.25 11.25V7.75H10C8.76421 7.75 7.75 8.76421 7.75 10V11.25H11.25ZM7.75 12.75H11.25V16.25H10C8.76421 16.25 7.75 15.2358 7.75 14V12.75Z" fill="#424B5A"/>
</svg>
