<svg width="24" height="24" viewBox="0 0 24 24" fill="none" xmlns="http://www.w3.org/2000/svg">
<path fill-rule="evenodd" clip-rule="evenodd" d="M11.95 2.7998C6.75216 2.7998 2.64802 7.00279 2.74985 12.2051L2.74999 12.2198V18.3798C2.74999 19.907 4.03556 21.1998 5.56999 21.1998C7.10577 21.1998 8.38999 19.9156 8.38999 18.3798V15.5698C8.38999 14.933 7.88537 14.4798 7.29999 14.4798C6.66319 14.4798 6.20999 14.9844 6.20999 15.5698V18.4898C6.20999 18.904 5.8742 19.2398 5.45999 19.2398C5.04578 19.2398 4.70999 18.904 4.70999 18.4898V15.5698C4.70999 14.2152 5.77679 12.9798 7.29999 12.9798C8.65461 12.9798 9.88999 14.0466 9.88999 15.5698V18.3798C9.88999 20.744 7.9342 22.6998 5.56999 22.6998C3.20441 22.6998 1.24999 20.7327 1.24999 18.3798V12.227C1.13589 6.19279 5.91031 1.2998 11.95 1.2998C17.9905 1.2998 22.75 6.19192 22.75 12.1098V18.2698C22.75 20.634 20.7942 22.5898 18.43 22.5898C16.0658 22.5898 14.11 20.634 14.11 18.2698V15.4598C14.11 14.1052 15.1768 12.8698 16.7 12.8698C18.0546 12.8698 19.29 13.9366 19.29 15.4598V18.4898C19.29 18.904 18.9542 19.2398 18.54 19.2398C18.1258 19.2398 17.79 18.904 17.79 18.4898V15.4598C17.79 14.823 17.2854 14.3698 16.7 14.3698C16.0632 14.3698 15.61 14.8744 15.61 15.4598V18.2698C15.61 19.8056 16.8942 21.0898 18.43 21.0898C19.9658 21.0898 21.25 19.8056 21.25 18.2698V12.1098C21.25 7.00768 17.1495 2.7998 11.95 2.7998Z" fill="#424B5A"/>
</svg>
