<svg width="24" height="24" viewBox="0 0 24 24" fill="none" xmlns="http://www.w3.org/2000/svg">
<path fill-rule="evenodd" clip-rule="evenodd" d="M8.96997 1.25C6.396 1.25 4.39911 1.7602 3.06464 3.09467C1.73017 4.42914 1.21997 6.42603 1.21997 9V12.6995C1.21997 12.6998 1.21997 12.7001 1.21997 12.7004V15C1.21997 17.574 1.73017 19.5709 3.06464 20.9053C4.39911 22.2398 6.396 22.75 8.96997 22.75H14.97C17.5439 22.75 19.5408 22.2398 20.8753 20.9053C22.2098 19.5709 22.72 17.574 22.72 15V14.1328C22.7265 14.0928 22.73 14.0518 22.73 14.01C22.73 13.9682 22.7265 13.9272 22.72 13.8872V9C22.72 6.42603 22.2098 4.42914 20.8753 3.09467C19.5408 1.7602 17.5439 1.25 14.97 1.25H8.96997ZM21.22 13.26V9C21.22 6.57397 20.7302 5.07086 19.8146 4.15533C18.8991 3.2398 17.396 2.75 14.97 2.75H8.96997C6.54394 2.75 5.04083 3.2398 4.1253 4.15533C3.20977 5.07086 2.71997 6.57397 2.71997 9V11.9475L7.96997 11.93C8.52572 11.93 9.06737 12.1366 9.50251 12.432C9.93783 12.7276 10.3297 13.155 10.5363 13.6715L10.5373 13.674L11.4445 15.9657L13.502 10.7454C13.6465 10.378 13.9768 9.86997 14.5928 9.8373C15.2065 9.80475 15.5896 10.2724 15.7732 10.6199L16.8139 12.5912C16.8902 12.7363 17.0559 12.9122 17.2911 13.054C17.5264 13.1959 17.7586 13.26 17.92 13.26H21.22ZM2.71997 13.4475V15C2.71997 17.426 3.20977 18.9291 4.1253 19.8447C5.04083 20.7602 6.54394 21.25 8.96997 21.25H14.97C17.396 21.25 18.8991 20.7602 19.8146 19.8447C20.7302 18.9291 21.22 17.426 21.22 15V14.76H17.92C17.4213 14.76 16.9235 14.584 16.5164 14.3385C16.1093 14.0929 15.7198 13.7334 15.486 13.2888L14.6993 11.7985L12.6077 17.105L12.6063 17.1085C12.5194 17.3258 12.3994 17.5436 12.229 17.7187C12.0554 17.8971 11.7895 18.0675 11.445 18.0675C11.1005 18.0675 10.8345 17.8971 10.6609 17.7187C10.4906 17.5436 10.3705 17.3258 10.2836 17.1085L10.2826 17.106L9.14361 14.2285L9.14323 14.2276C9.06962 14.0443 8.90168 13.8371 8.65993 13.673C8.41801 13.5087 8.16514 13.4303 7.97102 13.43L7.96997 13.43L2.71997 13.4475Z" fill="#424B5A"/>
</svg>
