<svg width="24" height="24" viewBox="0 0 24 24" fill="none" xmlns="http://www.w3.org/2000/svg">
<path fill-rule="evenodd" clip-rule="evenodd" d="M2.75 12C2.75 6.89137 6.89137 2.75 12 2.75C17.1086 2.75 21.25 6.89137 21.25 12C21.25 17.1086 17.1086 21.25 12 21.25C6.89137 21.25 2.75 17.1086 2.75 12ZM12 1.25C6.06294 1.25 1.25 6.06294 1.25 12C1.25 17.9371 6.06294 22.75 12 22.75C17.9371 22.75 22.75 17.9371 22.75 12C22.75 6.06294 17.9371 1.25 12 1.25ZM7.35001 10.91C7.35001 9.64934 8.35908 8.64001 9.60001 8.64001C10.3331 8.64001 10.9836 8.98983 11.3981 9.5474C11.5397 9.73803 11.7633 9.85028 12.0009 9.85001C12.2384 9.84974 12.4617 9.73698 12.603 9.54603C13.0075 8.99922 13.6676 8.64001 14.4 8.64001C15.6409 8.64001 16.65 9.64934 16.65 10.91C16.65 12.5505 15.8944 13.8747 14.9173 14.8746C13.935 15.8799 12.7752 16.5063 12.0981 16.7367C12.0952 16.7373 12.0884 16.7387 12.0772 16.7401C12.0552 16.743 12.0267 16.745 11.995 16.745C11.9633 16.745 11.9348 16.743 11.9128 16.7401C11.9018 16.7387 11.8951 16.7374 11.8921 16.7367C11.2193 16.506 10.0624 15.8797 9.08172 14.8749C8.10567 13.8749 7.35001 12.5505 7.35001 10.91ZM9.60001 7.14001C7.52093 7.14001 5.85001 8.83067 5.85001 10.91C5.85001 13.0495 6.84434 14.7301 8.00829 15.9226C9.16309 17.1058 10.5302 17.8583 11.4187 18.1601L11.4228 18.1615C11.6158 18.2259 11.8257 18.245 11.995 18.245C12.1644 18.245 12.3742 18.2259 12.5672 18.1615L12.5699 18.1606C13.4639 17.8588 14.8339 17.1062 15.9902 15.9229C17.1556 14.7303 18.15 13.0496 18.15 10.91C18.15 8.83067 16.4791 7.14001 14.4 7.14001C13.4895 7.14001 12.6493 7.47048 12.0004 8.01377C11.3495 7.46667 10.5128 7.14001 9.60001 7.14001Z" fill="#424B5A"/>
</svg>
