<svg width="24" height="24" viewBox="0 0 24 24" fill="none" xmlns="http://www.w3.org/2000/svg">
<path fill-rule="evenodd" clip-rule="evenodd" d="M2.75 8.69012C2.75 6.01082 4.90772 3.8501 7.56 3.8501C9.12263 3.8501 10.5244 4.60973 11.3995 5.77943C11.5411 5.9687 11.7636 6.08014 12 6.08014C12.2364 6.08014 12.4589 5.9687 12.6005 5.77943C13.4756 4.60973 14.8774 3.8501 16.44 3.8501C19.0923 3.8501 21.25 6.01082 21.25 8.69012C21.25 10.1613 20.9454 11.4944 20.4389 12.6933C19.5273 12.0369 18.4086 11.6501 17.2 11.6501C14.1358 11.6501 11.65 14.1359 11.65 17.2001C11.65 18.2538 11.9481 19.2366 12.4574 20.0732C12.4321 20.082 12.4073 20.0905 12.3828 20.0986L12.3828 20.0985L12.3704 20.1029C12.3056 20.1257 12.1714 20.1501 12 20.1501C11.8286 20.1501 11.6944 20.1257 11.6296 20.1029L11.6296 20.1028L11.6223 20.1003C10.2799 19.6421 8.03683 18.4243 6.13923 16.48C4.25068 14.545 2.75 11.9406 2.75 8.69012ZM13.4598 21.2938C13.2524 21.3801 13.0525 21.4563 12.8628 21.5197C12.5892 21.6151 12.2763 21.6501 12 21.6501C11.7227 21.6501 11.4086 21.6148 11.1343 21.5188C9.57655 20.9862 7.13169 19.6444 5.06577 17.5277C2.98932 15.4002 1.25 12.4396 1.25 8.69012C1.25 5.18942 4.07228 2.3501 7.56 2.3501C9.28835 2.3501 10.8621 3.05615 12 4.18925C13.1379 3.05615 14.7116 2.3501 16.44 2.3501C19.9277 2.3501 22.75 5.18942 22.75 8.69012C22.75 10.596 22.3023 12.3009 21.5856 13.7992C22.3154 14.7387 22.75 15.9189 22.75 17.2001C22.75 18.2374 22.4623 19.2228 21.9401 20.0611C20.9802 21.6635 19.2235 22.7501 17.2 22.7501C15.756 22.7501 14.4404 22.1964 13.4598 21.2938ZM17.2 13.1501C18.3536 13.1501 19.3997 13.6377 20.1452 14.4256C20.1596 14.4408 20.1745 14.4553 20.19 14.4691C20.8483 15.1894 21.25 16.1481 21.25 17.2001C21.25 17.9602 21.0392 18.6723 20.664 19.2726L20.6561 19.2856C19.955 20.4596 18.6738 21.2501 17.2 21.2501C15.7238 21.2501 14.4354 20.4577 13.746 19.289L13.746 19.289L13.74 19.279C13.368 18.6703 13.15 17.9547 13.15 17.2001C13.15 14.9643 14.9642 13.1501 17.2 13.1501ZM19.6214 15.5118C19.9022 15.8163 19.8829 16.2908 19.5784 16.5716L17.0183 18.9316C16.7225 19.2043 16.2642 19.195 15.9797 18.9105L14.7997 17.7305C14.5068 17.4376 14.5068 16.9627 14.7997 16.6698C15.0926 16.3769 15.5674 16.3769 15.8603 16.6698L16.5311 17.3406L18.5616 15.4687C18.8662 15.188 19.3407 15.2072 19.6214 15.5118Z" fill="#424B5A"/>
</svg>
