<svg width="24" height="24" viewBox="0 0 24 24" fill="none" xmlns="http://www.w3.org/2000/svg">
<path fill-rule="evenodd" clip-rule="evenodd" d="M2.75 8.69012C2.75 6.01082 4.90772 3.8501 7.56 3.8501C9.12263 3.8501 10.5244 4.60973 11.3995 5.77943C11.5411 5.9687 11.7636 6.08014 12 6.08014C12.2364 6.08014 12.4589 5.9687 12.6005 5.77943C13.4756 4.60973 14.8774 3.8501 16.44 3.8501C19.0923 3.8501 21.25 6.01082 21.25 8.69012C21.25 10.1612 20.9455 11.4941 20.4391 12.6929C19.5276 12.0367 18.4089 11.6501 17.2 11.6501C14.1348 11.6501 11.65 14.135 11.65 17.2001C11.65 18.2526 11.943 19.2366 12.4518 20.0751C12.4284 20.0832 12.4055 20.0911 12.3828 20.0986L12.3828 20.0985L12.3704 20.1029C12.3056 20.1257 12.1714 20.1501 12 20.1501C11.8286 20.1501 11.6944 20.1257 11.6296 20.1029L11.6296 20.1028L11.6223 20.1003C10.28 19.6421 8.03683 18.4243 6.13923 16.48C4.25068 14.545 2.75 11.9406 2.75 8.69012ZM13.4547 21.2959C13.2491 21.3813 13.0509 21.4569 12.8628 21.5197C12.5892 21.6151 12.2763 21.6501 12 21.6501C11.7227 21.6501 11.4086 21.6148 11.1343 21.5188C9.57655 20.9862 7.13169 19.6444 5.06577 17.5277C2.98932 15.4002 1.25 12.4396 1.25 8.69012C1.25 5.18943 4.07228 2.3501 7.56 2.3501C9.28835 2.3501 10.8621 3.05615 12 4.18925C13.1379 3.05615 14.7116 2.3501 16.44 2.3501C19.9277 2.3501 22.75 5.18943 22.75 8.69012C22.75 10.5958 22.3024 12.3005 21.5858 13.7987C22.3155 14.7382 22.75 15.9184 22.75 17.2001C22.75 20.2653 20.2652 22.7501 17.2 22.7501C15.7566 22.7501 14.4419 22.1991 13.4547 21.2959ZM14.2417 19.9662C14.9808 20.7563 16.0327 21.2501 17.2 21.2501C19.4368 21.2501 21.25 19.4369 21.25 17.2001C21.25 16.1494 20.8499 15.1921 20.1937 14.4724C20.1769 14.4576 20.1607 14.442 20.1452 14.4256C19.3997 13.6377 18.3536 13.1501 17.2 13.1501C14.9642 13.1501 13.15 14.9643 13.15 17.2001C13.15 18.235 13.5447 19.1796 14.1891 19.9002C14.208 19.9213 14.2255 19.9433 14.2417 19.9662ZM15.41 16.5101C14.9958 16.5101 14.66 16.8459 14.66 17.2601C14.66 17.6743 14.9958 18.0101 15.41 18.0101H16.45V19.1001C16.45 19.5143 16.7858 19.8501 17.2 19.8501C17.6142 19.8501 17.95 19.5143 17.95 19.1001V18.0101H18.99C19.4042 18.0101 19.74 17.6743 19.74 17.2601C19.74 16.8459 19.4042 16.5101 18.99 16.5101H17.95V15.5101C17.95 15.0959 17.6142 14.7601 17.2 14.7601C16.7858 14.7601 16.45 15.0959 16.45 15.5101V16.5101H15.41Z" fill="#424B5A"/>
</svg>
