<svg width="127" height="64" viewBox="0 0 127 64" fill="none" xmlns="http://www.w3.org/2000/svg">
<rect x="0.5" y="0.5" width="126" height="63" rx="4.5" stroke="#9747FF" stroke-dasharray="10 5"/>
<path fill-rule="evenodd" clip-rule="evenodd" d="M27.56 23.8501C24.9077 23.8501 22.75 26.0108 22.75 28.6901C22.75 31.9406 24.2507 34.545 26.1392 36.48C28.0368 38.4243 30.2799 39.6421 31.6223 40.1003L31.6296 40.1028L31.6296 40.1029C31.6944 40.1257 31.8286 40.1501 32 40.1501C32.1714 40.1501 32.3056 40.1257 32.3704 40.1029L32.3777 40.1003L32.3777 40.1003C33.7201 39.6421 35.9632 38.4243 37.8608 36.48C39.7493 34.545 41.25 31.9406 41.25 28.6901C41.25 26.0108 39.0923 23.8501 36.44 23.8501C34.8778 23.8501 33.477 24.6092 32.6021 25.7873C32.4606 25.9778 32.2373 26.0901 32 26.0901C31.7627 26.0901 31.5394 25.9778 31.3979 25.7873C30.5225 24.6086 29.1315 23.8501 27.56 23.8501ZM21.25 28.6901C21.25 25.1894 24.0723 22.3501 27.56 22.3501C29.2967 22.3501 30.8646 23.0561 32.0003 24.1948C33.1385 23.0557 34.7122 22.3501 36.44 22.3501C39.9277 22.3501 42.75 25.1894 42.75 28.6901C42.75 32.4396 41.0107 35.4002 38.9342 37.5277C36.8683 39.6444 34.4235 40.9862 32.8657 41.5187C32.5914 41.6148 32.2773 41.6501 32 41.6501C31.7227 41.6501 31.4086 41.6148 31.1343 41.5187C29.5765 40.9862 27.1317 39.6444 25.0658 37.5277C22.9893 35.4002 21.25 32.4396 21.25 28.6901Z" fill="#424B5A"/>
<path fill-rule="evenodd" clip-rule="evenodd" d="M65.25 28.6901C65.25 25.1894 68.0723 22.3501 71.56 22.3501C73.2967 22.3501 74.8646 23.0561 76.0003 24.1948C77.1385 23.0557 78.7122 22.3501 80.44 22.3501C83.9277 22.3501 86.75 25.1894 86.75 28.6901C86.75 32.4396 85.0107 35.4002 82.9342 37.5277C80.8683 39.6444 78.4235 40.9862 76.8657 41.5187C76.5914 41.6148 76.2773 41.6501 76 41.6501C75.7227 41.6501 75.4086 41.6148 75.1343 41.5187C73.5765 40.9862 71.1317 39.6444 69.0658 37.5277C66.9893 35.4002 65.25 32.4396 65.25 28.6901Z" fill="#424B5A"/>
</svg>
