<svg width="24" height="24" viewBox="0 0 24 24" fill="none" xmlns="http://www.w3.org/2000/svg">
<path fill-rule="evenodd" clip-rule="evenodd" d="M1.25 8.69012C1.25 5.18943 4.07228 2.3501 7.56 2.3501C9.28783 2.3501 10.8615 3.05578 11.9997 4.19486C13.1354 3.05613 14.7033 2.3501 16.44 2.3501C19.9277 2.3501 22.75 5.18943 22.75 8.69012C22.75 9.96166 22.5467 11.1373 22.2056 12.2246C22.0816 12.6198 21.6607 12.8397 21.2655 12.7157C20.8703 12.5917 20.6504 12.1708 20.7744 11.7756C21.0733 10.823 21.25 9.79859 21.25 8.69012C21.25 6.01082 19.0923 3.8501 16.44 3.8501C14.8685 3.8501 13.4775 4.60863 12.6021 5.78731C12.4606 5.97783 12.2373 6.09015 12 6.09015C11.7627 6.09015 11.5394 5.97783 11.3979 5.78731C10.523 4.60925 9.12219 3.8501 7.56 3.8501C4.90772 3.8501 2.75 6.01082 2.75 8.69012C2.75 11.9406 4.25066 14.5451 6.13939 16.4814C8.03701 18.4269 10.2807 19.6477 11.6245 20.1111L11.6296 20.1129C11.695 20.136 11.8245 20.1601 12 20.1601C12.4142 20.1601 12.75 20.4959 12.75 20.9101C12.75 21.3243 12.4142 21.6601 12 21.6601C11.7165 21.6601 11.4072 21.6246 11.1332 21.5284C9.57697 20.9912 7.13198 19.6473 5.06561 17.5288C2.98934 15.4002 1.25 12.4396 1.25 8.69012ZM17.74 15.3501C16.3869 15.3501 15.29 16.447 15.29 17.8001C15.29 19.1532 16.3869 20.2501 17.74 20.2501C19.0931 20.2501 20.19 19.1532 20.19 17.8001C20.19 16.447 19.0931 15.3501 17.74 15.3501ZM13.79 17.8001C13.79 15.6186 15.5585 13.8501 17.74 13.8501C19.9215 13.8501 21.69 15.6186 21.69 17.8001C21.69 18.6213 21.4394 19.3841 21.0104 20.0159C21.0311 20.0326 21.0511 20.0506 21.0703 20.0698L22.0703 21.0698C22.3632 21.3627 22.3632 21.8375 22.0703 22.1304C21.7774 22.4233 21.3026 22.4233 21.0097 22.1304L20.0097 21.1304C19.9905 21.1112 19.9725 21.0912 19.9558 21.0705C19.324 21.4995 18.5612 21.7501 17.74 21.7501C15.5585 21.7501 13.79 19.9816 13.79 17.8001Z" fill="#424B5A"/>
</svg>
