<svg width="24" height="24" viewBox="0 0 24 24" fill="none" xmlns="http://www.w3.org/2000/svg">
<path fill-rule="evenodd" clip-rule="evenodd" d="M1.25 8.69012C1.25 5.18942 4.07228 2.3501 7.56 2.3501C9.28784 2.3501 10.8615 3.05578 11.9997 4.19486C13.1354 3.05613 14.7033 2.3501 16.44 2.3501C19.9277 2.3501 22.75 5.18942 22.75 8.69012C22.75 9.96165 22.5467 11.1373 22.2056 12.2246C22.0816 12.6198 21.6607 12.8397 21.2655 12.7157C20.8703 12.5917 20.6504 12.1708 20.7744 11.7756C21.0733 10.823 21.25 9.79859 21.25 8.69012C21.25 6.01082 19.0923 3.8501 16.44 3.8501C14.8685 3.8501 13.4775 4.60863 12.6021 5.78731C12.4606 5.97783 12.2373 6.09015 12 6.09015C11.7627 6.09015 11.5394 5.97783 11.3979 5.78731C10.523 4.60925 9.12219 3.8501 7.56 3.8501C4.90772 3.8501 2.75 6.01082 2.75 8.69012C2.75 11.9406 4.25066 14.5451 6.13939 16.4814C8.03701 18.4269 10.2807 19.6477 11.6245 20.1111L11.6296 20.1129C11.695 20.136 11.8245 20.1601 12 20.1601C12.4142 20.1601 12.75 20.4959 12.75 20.9101C12.75 21.3243 12.4142 21.6601 12 21.6601C11.7165 21.6601 11.4072 21.6246 11.1332 21.5284C9.57697 20.9912 7.13199 19.6473 5.06561 17.5288C2.98934 15.4002 1.25 12.4396 1.25 8.69012ZM18.1787 15.7108C18.1729 15.7164 18.1672 15.7221 18.1616 15.7279L15.1396 18.7499C14.9973 18.8922 14.8871 19.0645 14.8095 19.2179C14.7319 19.3712 14.6596 19.5595 14.629 19.7532L14.4374 21.115C14.3745 21.5565 14.4907 22.0116 14.8196 22.3405C15.1485 22.6694 15.6045 22.7854 16.046 22.7226L17.3945 22.533L17.4069 22.531C17.5976 22.5009 17.787 22.4302 17.9429 22.3523C18.091 22.2782 18.2713 22.1665 18.4179 22.0129L21.3378 19.0931C21.4182 19.0391 21.4885 18.9696 21.5436 18.8872L21.9503 18.4805C22.2979 18.1329 22.6707 17.6479 22.7326 17.0228C22.7984 16.358 22.4969 15.7464 21.9503 15.1998C21.4068 14.6563 20.7965 14.3585 20.1333 14.4266C19.5112 14.4905 19.0273 14.8622 18.6796 15.2099L18.1787 15.7108ZM20.7146 17.5949L20.8896 17.4199C21.152 17.1575 21.2292 16.9825 21.2399 16.8751C21.2466 16.8074 21.2431 16.6139 20.8896 16.2605C20.5431 15.914 20.3534 15.9119 20.2866 15.9188C20.1787 15.9298 20.0026 16.0082 19.7403 16.2705L19.5688 16.4421C19.8075 16.9467 20.2117 17.3532 20.7146 17.5949ZM19.6158 18.6937C19.1575 18.394 18.7667 18.0018 18.4686 17.5423L16.2016 19.8092C16.2016 19.8092 16.1955 19.8162 16.1862 19.8298C16.1744 19.847 16.1609 19.8694 16.1479 19.895C16.135 19.9207 16.1248 19.9449 16.1179 19.9647C16.1136 19.9771 16.1116 19.9848 16.1108 19.9878L15.9369 21.2232L17.173 21.0492C17.1762 21.0485 17.1853 21.0462 17.2001 21.0411C17.2215 21.0338 17.2466 21.0233 17.2721 21.0106C17.2978 20.9978 17.3182 20.9854 17.3318 20.9759L17.339 20.9707L17.3496 20.9599L19.6158 18.6937Z" fill="#424B5A"/>
</svg>
