<svg width="24" height="24" viewBox="0 0 24 24" fill="none" xmlns="http://www.w3.org/2000/svg">
<path fill-rule="evenodd" clip-rule="evenodd" d="M2.75 8.69012C2.75 6.01082 4.90772 3.8501 7.56 3.8501C9.12263 3.8501 10.5244 4.60973 11.3995 5.77943C11.5411 5.9687 11.7636 6.08014 12 6.08014C12.2364 6.08014 12.4589 5.9687 12.6005 5.77943C13.4756 4.60973 14.8774 3.8501 16.44 3.8501C19.0923 3.8501 21.25 6.01082 21.25 8.69012C21.25 10.1628 20.9448 11.497 20.4374 12.6969C19.5248 12.039 18.4065 11.6501 17.2 11.6501C14.1358 11.6501 11.65 14.1359 11.65 17.2001C11.65 18.2538 11.9481 19.2366 12.4574 20.0732C12.4321 20.082 12.4073 20.0905 12.3828 20.0986L12.3828 20.0985L12.3704 20.1029C12.3056 20.1257 12.1714 20.1501 12 20.1501C11.8286 20.1501 11.6944 20.1257 11.6296 20.1029L11.6296 20.1028L11.6223 20.1003C10.28 19.6421 8.03683 18.4243 6.13923 16.48C4.25068 14.545 2.75 11.9406 2.75 8.69012ZM13.4605 21.2935C13.2528 21.3799 13.0527 21.4563 12.8628 21.5197C12.5892 21.6151 12.2763 21.6501 12 21.6501C11.7227 21.6501 11.4086 21.6148 11.1343 21.5188C9.57655 20.9862 7.13169 19.6444 5.06577 17.5277C2.98932 15.4002 1.25 12.4396 1.25 8.69012C1.25 5.18943 4.07228 2.3501 7.56 2.3501C9.28835 2.3501 10.8621 3.05615 12 4.18925C13.1379 3.05615 14.7116 2.3501 16.44 2.3501C19.9277 2.3501 22.75 5.18943 22.75 8.69012C22.75 10.6 22.3004 12.308 21.5811 13.8085C22.3104 14.7449 22.75 15.9193 22.75 17.2001C22.75 20.2643 20.2642 22.7501 17.2 22.7501C15.7551 22.7501 14.4453 22.1948 13.4605 21.2935ZM14.1888 19.8999C14.9343 20.7296 16.0047 21.2501 17.2 21.2501C19.4358 21.2501 21.25 19.4359 21.25 17.2001C21.25 16.1351 20.833 15.1688 20.1499 14.4406C20.1456 14.4361 20.1355 14.4257 20.1237 14.4124C20.117 14.4049 20.0997 14.3854 20.0789 14.3571C19.3383 13.6095 18.3198 13.1501 17.2 13.1501C14.9642 13.1501 13.15 14.9643 13.15 17.2001C13.15 18.1056 13.4522 18.942 13.9595 19.6198C14.0318 19.7164 14.1084 19.8099 14.1888 19.8999ZM20.6876 14.6601C20.6787 14.6601 20.6845 14.6604 20.6985 14.6601C20.6987 14.66 20.6989 14.66 20.6991 14.66L20.69 14.6601C20.6891 14.6601 20.6883 14.6601 20.6876 14.6601ZM20.6985 14.6601C20.6949 14.6601 20.6913 14.6601 20.6876 14.6601L20.6985 14.6601ZM16.4814 15.4708C16.1891 15.1774 15.7142 15.1764 15.4207 15.4687C15.1273 15.7611 15.1263 16.2359 15.4186 16.5294L16.1564 17.2701L15.3886 18.0408C15.0963 18.3343 15.0972 18.8092 15.3907 19.1015C15.6842 19.3938 16.159 19.3929 16.4514 19.0994L17.2149 18.3328L17.9486 19.0694C18.2409 19.3629 18.7158 19.3638 19.0093 19.0715C19.3027 18.7792 19.3037 18.3043 19.0114 18.0108L18.2735 17.2701L18.9814 16.5594C19.2737 16.266 19.2728 15.7911 18.9793 15.4988C18.6858 15.2065 18.211 15.2074 17.9186 15.5009L17.215 16.2073L16.4814 15.4708Z" fill="#424B5A"/>
</svg>
