<svg width="24" height="24" viewBox="0 0 24 24" fill="none" xmlns="http://www.w3.org/2000/svg">
<path fill-rule="evenodd" clip-rule="evenodd" d="M22.5303 2.53033C22.8232 2.23744 22.8232 1.76256 22.5303 1.46967C22.2374 1.17678 21.7626 1.17678 21.4697 1.46967L19.691 3.24836C18.7384 2.66824 17.6253 2.34003 16.44 2.34003C14.7122 2.34003 13.1385 3.04566 12.0003 4.18473C10.8646 3.04601 9.29673 2.34003 7.56 2.34003C4.07229 2.34003 1.25 5.17928 1.25 8.67999C1.25 12.5386 3.08229 15.5561 5.23837 17.701L1.46967 21.4697C1.17678 21.7626 1.17678 22.2374 1.46967 22.5303C1.76256 22.8232 2.23744 22.8232 2.53033 22.5303L22.5303 2.53033ZM6.299 16.6403L18.589 4.35029C17.9421 4.02231 17.2129 3.84003 16.44 3.84003C14.8778 3.84003 13.477 4.59913 12.6021 5.77718C12.4606 5.9677 12.2373 6.08002 12 6.08002C11.7627 6.08002 11.5394 5.9677 11.3979 5.77718C10.5226 4.59852 9.13147 3.84003 7.56 3.84003C4.90771 3.84003 2.75 6.0007 2.75 8.67999C2.75 12.027 4.33349 14.6869 6.299 16.6403ZM21.5109 6.28584C21.9053 6.15933 22.3276 6.37651 22.4542 6.77093C22.6484 7.37644 22.75 8.02381 22.75 8.69C22.75 12.4395 21.0107 15.4001 18.9344 17.5287C16.868 19.6472 14.423 20.9911 12.8667 21.5283C12.5922 21.6246 12.2776 21.66 12 21.66C11.7231 21.66 11.4095 21.6248 11.1354 21.529C10.4258 21.2884 9.55924 20.884 8.63628 20.3344C8.28039 20.1225 8.16369 19.6622 8.37563 19.3063C8.58756 18.9504 9.04787 18.8337 9.40376 19.0456C10.259 19.5549 11.0308 19.91 11.6205 20.1096L11.6296 20.1127L11.6296 20.1128C11.6944 20.1356 11.8286 20.16 12 20.16C12.1714 20.16 12.3056 20.1356 12.3704 20.1128L12.3755 20.111L12.3755 20.111C13.7193 19.6476 15.963 18.4268 17.8606 16.4813C19.7493 14.545 21.25 11.9405 21.25 8.69C21.25 8.17619 21.1716 7.68356 21.0258 7.22907C20.8993 6.83465 21.1165 6.41235 21.5109 6.28584Z" fill="#424B5A"/>
</svg>
