<svg width="24" height="24" viewBox="0 0 24 24" fill="none" xmlns="http://www.w3.org/2000/svg">
<path fill-rule="evenodd" clip-rule="evenodd" d="M14.4501 2.10573C13.5961 1.5079 12.5191 1.24483 11.4837 1.26911C10.4482 1.29339 9.38375 1.6071 8.55901 2.24856L3.16901 6.44856C2.60552 6.887 2.134 7.53633 1.80418 8.20855C1.47441 8.88067 1.25 9.64968 1.25 10.3602V17.7702C1.25 20.5021 3.47347 22.7402 6.21 22.7402H17.79C20.5254 22.7402 22.75 20.5032 22.75 17.7802V10.5002C22.75 9.74295 22.5017 8.93348 22.1361 8.2331C21.7707 7.53301 21.2484 6.86691 20.6288 6.43486L14.4501 2.10573ZM4.09099 7.63176L9.48046 3.43217C10.0057 3.02375 10.7419 2.78692 11.5188 2.7687C12.2958 2.75048 13.044 2.95254 13.5899 3.33458L19.7696 7.66439L19.7712 7.66546C20.1413 7.92342 20.5195 8.37755 20.8064 8.92722C21.0933 9.47683 21.25 10.0474 21.25 10.5002V17.7802C21.25 19.6771 19.6946 21.2402 17.79 21.2402H6.21C4.30653 21.2402 2.75 19.6783 2.75 17.7702V10.3602C2.75 9.94063 2.89059 9.39965 3.15082 8.86927C3.4109 8.33919 3.75471 7.8933 4.09099 7.63176ZM10.5 8.25016C8.43579 8.25016 6.75 9.93594 6.75 12.0002V13.5002V15.0002C6.75 17.0644 8.43579 18.7502 10.5 18.7502H12H13.5C15.5642 18.7502 17.25 17.0644 17.25 15.0002V13.5002V12.0002C17.25 9.93594 15.5642 8.25016 13.5 8.25016H12H10.5ZM15.75 12.7502V12.0002C15.75 10.7644 14.7358 9.75016 13.5 9.75016H12.75V12.7502H15.75ZM12.75 14.2502H15.75V15.0002C15.75 16.2359 14.7358 17.2502 13.5 17.2502H12.75V14.2502ZM11.25 12.7502V9.75016H10.5C9.26421 9.75016 8.25 10.7644 8.25 12.0002V12.7502H11.25ZM8.25 14.2502H11.25V17.2502H10.5C9.26421 17.2502 8.25 16.2359 8.25 15.0002V14.2502Z" fill="#424B5A"/>
</svg>
