<svg width="24" height="24" viewBox="0 0 24 24" fill="none" xmlns="http://www.w3.org/2000/svg">
<path fill-rule="evenodd" clip-rule="evenodd" d="M21.3303 7.78576L14.3998 2.2453C13.0569 1.16665 10.9362 1.16423 9.60075 2.23477L2.67327 7.78281L2.67206 7.78377C2.15254 8.19718 1.76422 8.80333 1.52796 9.4226C1.29185 10.0415 1.17771 10.7518 1.29054 11.4057L1.29097 11.4081L2.62041 19.3649C2.92136 21.1455 4.59371 22.56 6.39993 22.56H17.5999C19.3969 22.56 21.0782 21.135 21.3793 19.3658L21.3797 19.3635L22.7097 11.4036L22.7101 11.4008C22.8166 10.7489 22.7001 10.0404 22.4644 9.4226C22.2288 8.80504 21.8439 8.19934 21.3303 7.78576ZM10.5391 3.40499C11.3235 2.77602 12.663 2.77384 13.4601 3.41447L13.4616 3.4157L20.3896 8.9541L20.3904 8.95477C20.6465 9.1613 20.8962 9.5203 21.0629 9.95729C21.2295 10.394 21.2832 10.8298 21.23 11.1578L21.2297 11.1591L19.9006 19.1141L19.9004 19.1152C19.721 20.1655 18.6626 21.06 17.5999 21.06H6.39993C5.32634 21.06 4.27876 20.1741 4.09943 19.1149L2.76969 11.1564L2.7689 11.1518C2.71244 10.8263 2.76332 10.3927 2.92943 9.95729C3.09549 9.52202 3.34676 9.16362 3.60664 8.95705L10.5391 3.40499ZM10.3973 14.9229C10.9083 14.4361 11.4704 14.2224 11.9999 14.2224C12.5295 14.2224 13.0916 14.4361 13.6026 14.9229C13.9025 15.2087 14.3772 15.1972 14.6629 14.8973C14.9487 14.5974 14.9372 14.1227 14.6373 13.8369C13.8783 13.1138 12.9554 12.7224 11.9999 12.7224C11.0445 12.7224 10.1216 13.1138 9.3626 13.8369C9.06271 14.1227 9.05122 14.5974 9.33695 14.8973C9.62267 15.1972 10.0974 15.2087 10.3973 14.9229ZM9.18816 10.3425C10.9911 9.48611 13.0082 9.48524 14.8034 10.3433L14.8066 10.3449C15.4971 10.679 16.1648 11.1354 16.7653 11.7247C17.0609 12.0149 17.0653 12.4897 16.7752 12.7853C16.4851 13.0809 16.0102 13.0854 15.7146 12.7952C15.2355 12.3251 14.7039 11.9617 14.1549 11.6959C12.7713 11.0351 11.23 11.0341 9.83419 11.6963C9.28941 11.9602 8.76507 12.3233 8.27036 12.8C7.9721 13.0875 7.4973 13.0787 7.20989 12.7804C6.92247 12.4821 6.93126 12.0073 7.22952 11.7199C7.83408 11.1373 8.48893 10.6808 9.18328 10.3449L9.18815 10.3425L9.18816 10.3425ZM11.9954 15.9999C11.4432 15.9999 10.9954 16.4476 10.9954 16.9999C10.9954 17.5522 11.4432 17.9999 11.9954 17.9999H12.0044C12.5567 17.9999 13.0044 17.5522 13.0044 16.9999C13.0044 16.4476 12.5567 15.9999 12.0044 15.9999H11.9954Z" fill="#424B5A"/>
</svg>
