<svg width="24" height="24" viewBox="0 0 24 24" fill="none" xmlns="http://www.w3.org/2000/svg">
<path fill-rule="evenodd" clip-rule="evenodd" d="M14.4501 2.10573C13.5961 1.5079 12.5191 1.24483 11.4837 1.26911C10.4482 1.29339 9.38375 1.6071 8.55901 2.24856L3.16901 6.44856C2.60552 6.887 2.134 7.53633 1.80418 8.20855C1.47441 8.88067 1.25 9.64968 1.25 10.3602V17.7702C1.25 20.5021 3.47347 22.7402 6.21 22.7402H17.79C20.5254 22.7402 22.75 20.5032 22.75 17.7802V10.5002C22.75 9.74295 22.5017 8.93348 22.1361 8.2331C21.7707 7.53301 21.2484 6.86691 20.6288 6.43486L14.4501 2.10573ZM4.09099 7.63176L9.48046 3.43217C10.0057 3.02375 10.7419 2.78692 11.5188 2.7687C12.2958 2.75048 13.044 2.95254 13.5899 3.33458L19.7696 7.66439L19.7712 7.66546C20.1413 7.92342 20.5195 8.37755 20.8064 8.92722C21.0933 9.47683 21.25 10.0474 21.25 10.5002V17.7802C21.25 19.6771 19.6946 21.2402 17.79 21.2402H6.21C4.30653 21.2402 2.75 19.6783 2.75 17.7702V10.3602C2.75 9.94063 2.89059 9.39965 3.15082 8.86927C3.4109 8.33919 3.75471 7.8933 4.09099 7.63176ZM12.75 14.9902C12.75 14.5759 12.4142 14.2402 12 14.2402C11.5858 14.2402 11.25 14.5759 11.25 14.9902V17.9902C11.25 18.4044 11.5858 18.7402 12 18.7402C12.4142 18.7402 12.75 18.4044 12.75 17.9902V14.9902Z" fill="#424B5A"/>
</svg>
