<svg width="24" height="24" viewBox="0 0 24 24" fill="none" xmlns="http://www.w3.org/2000/svg">
<path fill-rule="evenodd" clip-rule="evenodd" d="M14.3998 2.24561L14.399 2.24492C13.0561 1.16633 10.9362 1.16457 9.6008 2.23508L2.67331 7.78307L2.67208 7.78405C2.15258 8.19746 1.76427 8.80359 1.52801 9.42285C1.29191 10.0417 1.17778 10.752 1.2906 11.4059L1.29103 11.4084L2.62048 19.3652C2.92144 21.1458 4.59379 22.5602 6.4 22.5602H17.6C19.3969 22.5602 21.0782 21.1353 21.3794 19.366L21.3797 19.3638L22.7097 11.4038L22.7102 11.401C22.8166 10.7492 22.7002 10.0406 22.4645 9.42285C22.2289 8.8053 21.844 8.1996 21.3304 7.78602L14.3998 2.24561ZM10.5392 3.4053C11.3236 2.77633 12.6631 2.77415 13.4601 3.41478L13.4617 3.41601L20.3896 8.95436L20.3905 8.95508C20.6466 9.16161 20.8963 9.52059 21.063 9.95753C21.2296 10.3942 21.2832 10.83 21.23 11.158L21.2298 11.1593L19.9006 19.1143L19.9004 19.1155C19.721 20.1657 18.6627 21.0602 17.6 21.0602H6.4C5.32639 21.0602 4.27883 20.1743 4.09951 19.1152L2.76975 11.1566L2.76896 11.152C2.7125 10.8266 2.76338 10.3929 2.92948 9.95753C3.09554 9.52228 3.3468 9.16388 3.60668 8.95731L10.5392 3.4053ZM12.75 15.0002C12.75 14.586 12.4142 14.2502 12 14.2502C11.5858 14.2502 11.25 14.586 11.25 15.0002V18.0002C11.25 18.4144 11.5858 18.7502 12 18.7502C12.4142 18.7502 12.75 18.4144 12.75 18.0002V15.0002Z" fill="#424B5A"/>
</svg>
