<svg width="24" height="24" viewBox="0 0 24 24" fill="none" xmlns="http://www.w3.org/2000/svg">
<path fill-rule="evenodd" clip-rule="evenodd" d="M11.4837 1.26911C12.5191 1.24483 13.5961 1.5079 14.4501 2.10573L20.6288 6.43486C21.2484 6.86691 21.7707 7.53301 22.1361 8.2331C22.5017 8.93348 22.75 9.74295 22.75 10.5002V17.7802C22.75 20.5032 20.5254 22.7402 17.79 22.7402H6.21C3.47347 22.7402 1.25 20.5021 1.25 17.7702V10.3602C1.25 9.64968 1.47441 8.88067 1.80418 8.20855C2.134 7.53633 2.60552 6.887 3.16901 6.44856L8.55901 2.24856C9.38375 1.6071 10.4482 1.29339 11.4837 1.26911ZM9.48046 3.43217L4.09099 7.63176C3.75471 7.8933 3.4109 8.33919 3.15082 8.86927C2.89059 9.39965 2.75 9.94063 2.75 10.3602V17.7702C2.75 19.6783 4.30653 21.2402 6.21 21.2402H17.79C19.6946 21.2402 21.25 19.6771 21.25 17.7802V10.5002C21.25 10.0474 21.0933 9.47683 20.8064 8.92722C20.5195 8.37755 20.1413 7.92342 19.7712 7.66546L19.7696 7.66439L13.5899 3.33458C13.044 2.95254 12.2958 2.75048 11.5188 2.7687C10.7419 2.78692 10.0057 3.02375 9.48046 3.43217ZM14.6893 12.2502L12.4166 14.5229L11.324 12.8841C11.1994 12.6972 10.9975 12.5759 10.7739 12.5538C10.5503 12.5317 10.3286 12.6109 10.1697 12.7698L6.96967 15.9698C6.67678 16.2627 6.67678 16.7376 6.96967 17.0305C7.26256 17.3234 7.73744 17.3234 8.03033 17.0305L10.5834 14.4774L11.676 16.1162C11.8006 16.3031 12.0025 16.4244 12.2261 16.4465C12.4497 16.4686 12.6714 16.3894 12.8303 16.2305L15.75 13.3108V13.5002C15.75 13.9144 16.0858 14.2502 16.5 14.2502C16.9142 14.2502 17.25 13.9144 17.25 13.5002V11.5002C17.25 11.3985 17.2298 11.3015 17.1931 11.2131C17.1573 11.1266 17.1047 11.0455 17.0352 10.9747C17.032 10.9715 17.0287 10.9682 17.0254 10.965C16.9547 10.8955 16.8735 10.8428 16.7871 10.8071C16.6987 10.7704 16.6017 10.7502 16.5 10.7502H14.5C14.0858 10.7502 13.75 11.0859 13.75 11.5002C13.75 11.9144 14.0858 12.2502 14.5 12.2502H14.6893Z" fill="#424B5A"/>
</svg>
