<svg width="24" height="24" viewBox="0 0 24 24" fill="none" xmlns="http://www.w3.org/2000/svg">
<path fill-rule="evenodd" clip-rule="evenodd" d="M3.30736 2.68106C4.11215 1.74912 5.34646 1.25 7 1.25H17C18.6535 1.25 19.8879 1.74912 20.6926 2.68106C21.4797 3.59244 21.75 4.79713 21.75 6V21.25H22C22.4142 21.25 22.75 21.5858 22.75 22C22.75 22.4142 22.4142 22.75 22 22.75H21H14.99H8.99001H3H2C1.58579 22.75 1.25 22.4142 1.25 22C1.25 21.5858 1.58579 21.25 2 21.25H2.25V6C2.25 4.79713 2.52033 3.59244 3.30736 2.68106ZM9.74001 21.25H14.24V15.94L14.2401 15.9256C14.2419 15.8338 14.1686 15.75 14.06 15.75H9.92999C9.82903 15.75 9.74001 15.8394 9.74001 15.94V21.25ZM15.74 21.25V15.9462C15.7537 15.0018 14.9887 14.25 14.06 14.25H9.92999C9.01095 14.25 8.24001 15.0006 8.24001 15.94V21.25H3.75V6C3.75 4.99287 3.97967 4.19756 4.44264 3.66144C4.88785 3.14588 5.65354 2.75 7 2.75H17C18.3465 2.75 19.1121 3.14588 19.5574 3.66144C20.0203 4.19756 20.25 4.99287 20.25 6V21.25H15.74ZM12 5.25C12.4142 5.25 12.75 5.58579 12.75 6V7.75H14.5C14.9142 7.75 15.25 8.08579 15.25 8.5C15.25 8.91421 14.9142 9.25 14.5 9.25H12.75V11C12.75 11.4142 12.4142 11.75 12 11.75C11.5858 11.75 11.25 11.4142 11.25 11V9.25H9.5C9.08579 9.25 8.75 8.91421 8.75 8.5C8.75 8.08579 9.08579 7.75 9.5 7.75H11.25V6C11.25 5.58579 11.5858 5.25 12 5.25Z" fill="#424B5A"/>
</svg>
