<svg width="24" height="24" viewBox="0 0 24 24" fill="none" xmlns="http://www.w3.org/2000/svg">
<path fill-rule="evenodd" clip-rule="evenodd" d="M11.2326 3.54652C11.684 3.19543 12.316 3.19543 12.7674 3.54652L19.7674 8.99112C20.0719 9.22794 20.25 9.59207 20.25 9.9778V21.25H17.75V12.5C17.75 11.2558 16.7442 10.25 15.5 10.25H8.5C7.25579 10.25 6.25 11.2558 6.25 12.5V21.25H3.75V9.9778C3.75 9.59207 3.92809 9.22794 4.23256 8.99112L11.2326 3.54652ZM2.25 21.25V9.9778C2.25 9.12919 2.64179 8.32811 3.31163 7.8071L10.3116 2.36251C11.3047 1.5901 12.6953 1.5901 13.6884 2.36251L20.6884 7.80711C21.3582 8.32811 21.75 9.12919 21.75 9.9778V21.25H22C22.4142 21.25 22.75 21.5858 22.75 22C22.75 22.4142 22.4142 22.75 22 22.75H17H7H2C1.58579 22.75 1.25 22.4142 1.25 22C1.25 21.5858 1.58579 21.25 2 21.25H2.25ZM9.75 7.5C9.75 7.08579 10.0858 6.75 10.5 6.75H13.5C13.9142 6.75 14.25 7.08579 14.25 7.5C14.25 7.91421 13.9142 8.25 13.5 8.25H10.5C10.0858 8.25 9.75 7.91421 9.75 7.5ZM16.25 12.5V21.25H7.75V12.5C7.75 12.0842 8.08421 11.75 8.5 11.75H15.5C15.9158 11.75 16.25 12.0842 16.25 12.5ZM10.75 16.25C10.75 15.8358 10.4142 15.5 10 15.5C9.58579 15.5 9.25 15.8358 9.25 16.25V17.75C9.25 18.1642 9.58579 18.5 10 18.5C10.4142 18.5 10.75 18.1642 10.75 17.75V16.25Z" fill="#424B5A"/>
</svg>
