<svg width="24" height="24" viewBox="0 0 24 24" fill="none" xmlns="http://www.w3.org/2000/svg">
<path fill-rule="evenodd" clip-rule="evenodd" d="M11.2326 3.54652C11.684 3.19543 12.316 3.19543 12.7674 3.54652L14.0759 4.56423C14.098 4.58361 14.1213 4.60171 14.1456 4.61842L19.7674 8.99112C20.0719 9.22794 20.25 9.59207 20.25 9.9778V21.25H15.25V18.5C15.25 17.2558 14.2442 16.25 13 16.25H11C9.75579 16.25 8.75 17.2558 8.75 18.5V21.25H3.75V9.9778C3.75 9.59207 3.92809 9.22794 4.23256 8.99112L11.2326 3.54652ZM2.25 21.25V9.9778C2.25 9.12919 2.64179 8.32811 3.31163 7.8071L10.3116 2.36251C11.3047 1.5901 12.6953 1.5901 13.6884 2.36251L14.8294 3.25H18.97C19.3813 3.25 19.7159 3.58123 19.72 3.9925L19.75 6.9925C19.7502 7.02017 19.749 7.0475 19.7464 7.07442L20.6884 7.80711C21.3582 8.32811 21.75 9.12919 21.75 9.9778V21.25H22C22.4142 21.25 22.75 21.5858 22.75 22C22.75 22.4142 22.4142 22.75 22 22.75H14.5H9.5H2C1.58579 22.75 1.25 22.4142 1.25 22C1.25 21.5858 1.58579 21.25 2 21.25H2.25ZM18.239 5.90198L18.2275 4.75H16.7579L18.239 5.90198ZM7.5 11C7.36421 11 7.25 11.1142 7.25 11.25V12.75C7.25 12.8858 7.36421 13 7.5 13H9.5C9.63579 13 9.75 12.8858 9.75 12.75V11.25C9.75 11.1142 9.63579 11 9.5 11H7.5ZM5.75 11.25C5.75 10.2858 6.53579 9.5 7.5 9.5H9.5C10.4642 9.5 11.25 10.2858 11.25 11.25V12.75C11.25 13.7142 10.4642 14.5 9.5 14.5H7.5C6.53579 14.5 5.75 13.7142 5.75 12.75V11.25ZM13.75 21.25V18.5C13.75 18.0842 13.4158 17.75 13 17.75H11C10.5842 17.75 10.25 18.0842 10.25 18.5V21.25H13.75ZM14.25 11.25C14.25 11.1142 14.3642 11 14.5 11H16.5C16.6358 11 16.75 11.1142 16.75 11.25V12.75C16.75 12.8858 16.6358 13 16.5 13H14.5C14.3642 13 14.25 12.8858 14.25 12.75V11.25ZM14.5 9.5C13.5358 9.5 12.75 10.2858 12.75 11.25V12.75C12.75 13.7142 13.5358 14.5 14.5 14.5H16.5C17.4642 14.5 18.25 13.7142 18.25 12.75V11.25C18.25 10.2858 17.4642 9.5 16.5 9.5H14.5Z" fill="#424B5A"/>
</svg>
