<svg width="24" height="24" viewBox="0 0 24 24" fill="none" xmlns="http://www.w3.org/2000/svg">
<path d="M12.4038 1.5C17.9237 1.5 22.4996 5.72053 22.5 11.0485C22.5 13.7059 21.3574 16.0827 19.5311 17.8026L20.8673 21.3972C20.9836 21.7113 20.8994 22.0671 20.6527 22.2915C20.4367 22.4879 20.1348 22.5487 19.864 22.4605L19.7504 22.4142L15.3317 20.181C14.4025 20.4488 13.4202 20.5986 12.4038 20.5986C11.7663 20.5986 11.142 20.5416 10.5361 20.4344L9.9366 20.3101L9.78042 20.2575C9.43975 20.0982 9.24485 19.7134 9.33398 19.3297C9.42332 18.9458 9.7678 18.6891 10.1433 18.7001L10.3057 18.7224L10.4682 18.7558C10.5618 18.7763 10.6558 18.7957 10.7506 18.8132L10.8137 18.8276C10.8749 18.8384 10.9366 18.8467 10.9983 18.8563C11.0481 18.864 11.098 18.8716 11.1481 18.8786C11.261 18.8942 11.3746 18.907 11.4889 18.9184C11.5073 18.9203 11.5256 18.9231 11.5441 18.9248C11.6632 18.936 11.7832 18.9438 11.9038 18.9503C11.928 18.9516 11.9521 18.954 11.9763 18.9551C12.1179 18.9616 12.2604 18.9663 12.4038 18.9663C12.5468 18.9663 12.6888 18.9618 12.8298 18.9551C12.8868 18.9525 12.9434 18.946 13.0001 18.9424C13.075 18.9373 13.1499 18.9348 13.2242 18.928C13.9093 18.8666 14.5699 18.7276 15.1976 18.5231L18.6335 20.0247L17.4235 17.4296C19.2671 16.1635 20.5389 14.2184 20.8215 11.989C20.8268 11.9475 20.8343 11.9063 20.8389 11.8647C20.8683 11.5965 20.8846 11.3239 20.8846 11.0485C20.8846 10.8819 20.8766 10.7168 20.8657 10.5527C20.85 10.3179 20.8257 10.0854 20.7884 9.85613C20.5242 8.22456 19.7255 6.75787 18.5657 5.61271C18.4219 5.47051 18.2739 5.33189 18.1192 5.19985C17.9718 5.07428 17.8184 4.95531 17.6617 4.83958C16.4023 3.90716 14.8501 3.2991 13.1405 3.16262C12.8977 3.14311 12.6521 3.13233 12.4038 3.13233C12.1551 3.13233 11.9089 3.14303 11.6656 3.16262C9.95666 3.29934 8.40501 3.90744 7.14596 4.83958C6.989 4.95555 6.83457 5.074 6.6869 5.19985C6.53229 5.33189 6.38414 5.47051 6.24046 5.61271C5.08101 6.75776 4.28343 8.22494 4.01931 9.85613C3.95585 10.2457 3.92311 10.644 3.92308 11.0485C3.92308 11.6 3.98363 12.1384 4.09818 12.6569L4.11711 12.8211C4.12363 13.2004 3.86666 13.5448 3.4861 13.6309C3.05074 13.7291 2.61786 13.4523 2.52066 13.0124L2.42916 12.5326C2.34935 12.0488 2.30769 11.5527 2.30769 11.0485C2.30806 5.72053 6.88395 1.5 12.4038 1.5Z" fill="#424B5A"/>
<path fill-rule="evenodd" clip-rule="evenodd" d="M6.25939 11.6495C6.63303 11.6498 6.94954 11.9276 7.0024 12.3014C7.15228 13.361 7.51524 14.1236 8.04199 14.6559C8.56877 15.1882 9.32347 15.555 10.372 15.7064C10.742 15.7598 11.0169 16.0796 11.0172 16.4572C11.0172 16.835 10.7421 17.1562 10.372 17.2096C9.32351 17.361 8.56876 17.7278 8.04199 18.2601C7.51529 18.7924 7.15223 19.555 7.0024 20.6145C6.94949 20.9883 6.63298 21.2662 6.25939 21.2665C5.88553 21.2665 5.56772 20.9885 5.5148 20.6145C5.36503 19.5549 5.00201 18.7924 4.47521 18.2601C3.94841 17.7278 3.19389 17.361 2.14521 17.2096C1.77512 17.1561 1.49999 16.835 1.5 16.4572C1.50027 16.0797 1.77535 15.7599 2.14521 15.7064C3.19373 15.555 3.94842 15.1881 4.47521 14.6559C5.00196 14.1236 5.365 13.361 5.5148 12.3014C5.56766 11.9274 5.88548 11.6495 6.25939 11.6495ZM6.25939 14.7834C6.05825 15.1296 5.81827 15.4459 5.53846 15.7287C5.25863 16.0115 4.94546 16.2539 4.60299 16.4572C4.94566 16.6605 5.2585 16.9028 5.53846 17.1857C5.81851 17.4687 6.05812 17.7862 6.25939 18.1326C6.46067 17.7862 6.70027 17.4687 6.98032 17.1857C7.26022 16.9029 7.57324 16.6605 7.91579 16.4572C7.573 16.2538 7.26037 16.0117 6.98032 15.7287C6.70028 15.4457 6.46067 15.1298 6.25939 14.7834Z" fill="#424B5A"/>
<path fill-rule="evenodd" clip-rule="evenodd" d="M11.7807 5.58083C12.1546 5.58082 12.4724 5.85877 12.5253 6.2328C12.6543 7.14478 12.9654 7.79179 13.4087 8.23974C13.8519 8.68733 14.4914 9.00057 15.3933 9.13083C15.7634 9.18426 16.0385 9.5054 16.0385 9.88323C16.0384 10.261 15.7634 10.5806 15.3933 10.634C14.4913 10.7643 13.852 11.0791 13.4087 11.5267C12.9654 11.9747 12.6543 12.6217 12.5253 13.5337C12.4724 13.9077 12.1546 14.1857 11.7807 14.1856C11.407 14.1854 11.0906 13.9075 11.0377 13.5337C10.9088 12.6216 10.5976 11.9747 10.1543 11.5267C9.71098 11.0789 9.07064 10.7643 8.16819 10.634C7.79834 10.5804 7.52302 10.2609 7.52299 9.88323C7.52299 9.50552 7.79822 9.18441 8.16819 9.13083C9.0706 9.00058 9.71099 8.68757 10.1543 8.23974C10.5976 7.79178 10.9088 7.14485 11.0377 6.2328C11.0906 5.8589 11.407 5.58104 11.7807 5.58083ZM11.7807 8.6C11.6186 8.85749 11.4318 9.096 11.2175 9.31256C11.0032 9.52912 10.7672 9.71933 10.5124 9.88323C10.7672 10.0471 11.0032 10.2374 11.2175 10.4539C11.4318 10.6705 11.6186 10.909 11.7807 11.1665C11.9429 10.9089 12.1311 10.6705 12.3455 10.4539C12.5599 10.2372 12.7956 10.0472 13.0506 9.88323C12.7956 9.71927 12.5599 9.52925 12.3455 9.31256C12.1311 9.09591 11.9429 8.85761 11.7807 8.6Z" fill="#424B5A"/>
</svg>
