<svg width="24" height="24" viewBox="0 0 24 24" fill="none" xmlns="http://www.w3.org/2000/svg">
<path fill-rule="evenodd" clip-rule="evenodd" d="M7.81393 2C8.16113 1.99999 8.4555 2.25528 8.50461 2.59899C8.62437 3.43711 8.91311 4.03108 9.32478 4.44274C9.73643 4.8544 10.3304 5.14311 11.1684 5.26282C11.5121 5.31192 11.7674 5.60628 11.7674 5.95348C11.7674 6.30067 11.5122 6.59504 11.1684 6.64415C10.3304 6.76389 9.73644 7.05262 9.32478 7.46429C8.91311 7.87595 8.62437 8.46991 8.50461 9.30799C8.4555 9.6517 8.16113 9.90699 7.81393 9.90698C7.46673 9.90697 7.17238 9.65166 7.12329 9.30795C7.00359 8.46988 6.71488 7.87594 6.30323 7.46429C5.89158 7.05263 5.2976 6.76389 4.45947 6.64415C4.11576 6.59504 3.86046 6.30068 3.86047 5.95348C3.86047 5.60628 4.11578 5.31192 4.45949 5.26282C5.2976 5.14311 5.89157 4.85439 6.30322 4.44274C6.71487 4.03109 7.00359 3.43714 7.12329 2.59903C7.17238 2.25532 7.46673 2.00001 7.81393 2ZM7.814 4.7747C7.66332 5.01151 7.48901 5.23027 7.28988 5.4294C7.09075 5.62853 6.87199 5.80283 6.63519 5.95351C6.87199 6.10419 7.09076 6.27849 7.28989 6.47762C7.48902 6.67675 7.66333 6.89552 7.814 7.13231C7.96468 6.89552 8.13899 6.67675 8.33811 6.47762C8.53724 6.2785 8.756 6.10419 8.9928 5.95351C8.75601 5.80284 8.53724 5.62853 8.33811 5.4294C8.13898 5.23027 7.96467 5.01151 7.814 4.7747Z" fill="#424B5A"/>
<path fill-rule="evenodd" clip-rule="evenodd" d="M15.2558 5.72093C15.603 5.72092 15.8974 5.97621 15.9465 6.31992C16.1825 7.97201 16.762 9.20552 17.6388 10.0823C18.5155 10.9591 19.749 11.5385 21.401 11.7745C21.7447 11.8235 22 12.1179 22 12.4651C22 12.8123 21.7447 13.1067 21.401 13.1558C19.749 13.3918 18.5156 13.9712 17.6388 14.848C16.762 15.7248 16.1825 16.9583 15.9465 18.6103C15.8974 18.954 15.603 19.2093 15.2558 19.2093C14.9086 19.2093 14.6142 18.954 14.5651 18.6103C14.3292 16.9583 13.7498 15.7248 12.873 14.848C11.9963 13.9713 10.7627 13.3918 9.11063 13.1558C8.76692 13.1067 8.51162 12.8123 8.51163 12.4651C8.51163 12.1179 8.76694 11.8235 9.11065 11.7745C10.7627 11.5385 11.9962 10.9591 12.873 10.0823C13.7498 9.20553 14.3292 7.97203 14.5651 6.31996C14.6142 5.97625 14.9086 5.72094 15.2558 5.72093ZM15.2559 9.01095C14.9069 9.79632 14.4435 10.4851 13.8597 11.069C13.2758 11.6528 12.587 12.1161 11.8017 12.4651C12.5871 12.8142 13.2758 13.2775 13.8597 13.8614C14.4436 14.4452 14.9069 15.134 15.2559 15.9193C15.6049 15.134 16.0683 14.4452 16.6521 13.8614C17.236 13.2775 17.9247 12.8142 18.7101 12.4651C17.9247 12.1161 17.236 11.6528 16.6521 11.069C16.0683 10.4851 15.6049 9.79632 15.2559 9.01095Z" fill="#424B5A"/>
<path fill-rule="evenodd" clip-rule="evenodd" d="M7.10926 13.7618C7.06015 13.4181 6.76578 13.1628 6.41858 13.1628C6.07138 13.1628 5.77703 13.4181 5.72794 13.7618C5.58887 14.7356 5.2517 15.4361 4.76253 15.9253C4.27336 16.4145 3.5728 16.7516 2.59902 16.8907C2.25531 16.9398 2.00001 17.2342 2 17.5814C1.99999 17.9286 2.25529 18.2229 2.599 18.2721C3.5728 18.4112 4.27337 18.7484 4.76254 19.2375C5.25171 19.7267 5.58887 20.4272 5.72794 21.401C5.77703 21.7447 6.07138 22 6.41858 22C6.76578 22 7.06015 21.7447 7.10926 21.401C7.24841 20.4273 7.5856 19.7267 8.07478 19.2375C8.56397 18.7484 9.2645 18.4112 10.2382 18.2721C10.5819 18.2229 10.8372 17.9286 10.8372 17.5814C10.8372 17.2342 10.5819 16.9398 10.2382 16.8907C9.26448 16.7516 8.56396 16.4145 8.07478 15.9253C7.5856 15.4361 7.24841 14.7356 7.10926 13.7618ZM5.74919 16.912C6.00924 16.6519 6.23175 16.3615 6.41865 16.0431C6.60556 16.3615 6.82808 16.6519 7.08812 16.912C7.34817 17.172 7.63862 17.3945 7.95693 17.5814C7.63862 17.7683 7.34817 17.9908 7.08812 18.2509C6.82808 18.5109 6.60556 18.8014 6.41865 19.1197C6.23176 18.8014 6.00925 18.5109 5.7492 18.2509C5.48915 17.9908 5.19869 17.7683 4.88038 17.5814C5.19868 17.3945 5.48914 17.172 5.74919 16.912Z" fill="#424B5A"/>
</svg>
