<svg width="24" height="24" viewBox="0 0 24 24" fill="none" xmlns="http://www.w3.org/2000/svg">
<path fill-rule="evenodd" clip-rule="evenodd" d="M19.2395 9.35479C18.6634 8.00723 17.7287 7.03756 16.522 6.97597L19.2395 9.35479ZM19.2395 9.35479L22.3695 16.6648C23.6007 19.5497 21.4878 22.75 18.35 22.75H5.59001C2.3532 22.75 0.239036 19.3335 1.69951 16.4339C1.69978 16.4334 1.70004 16.4329 1.70031 16.4324L3.41991 12.9831C3.966 11.8968 4.84313 11.1711 5.89484 11.058C6.94818 10.9448 7.95765 11.4696 8.71672 12.4228L8.71976 12.4266L8.93764 12.704C9.44056 13.3314 9.97189 13.5221 10.3879 13.4876C10.8041 13.453 11.295 13.1772 11.684 12.4764C11.684 12.4765 11.6841 12.4763 11.684 12.4764L13.574 9.06642C14.2858 7.78413 15.3154 6.9144 16.522 6.97597M14.886 9.79358C15.4841 8.71622 16.0846 8.45561 16.4455 8.47402C16.8062 8.49243 17.3764 8.81256 17.8604 9.94477L20.9902 17.2544C20.9901 17.2542 20.9903 17.2546 20.9902 17.2544C21.7984 19.1493 20.412 21.25 18.35 21.25H5.59001C3.46741 21.25 2.08175 19.0077 3.03971 17.1076L3.04122 17.1046L4.7601 13.6569C4.76028 13.6565 4.76046 13.6561 4.76064 13.6558C5.14447 12.8929 5.64208 12.5939 6.05518 12.5495C6.46646 12.5052 7.01135 12.6901 7.54182 13.3553L7.76027 13.6334L7.76436 13.6385C8.50085 14.5591 9.48367 15.0678 10.5121 14.9824C11.5408 14.897 12.4248 14.2329 12.9958 13.2039L14.886 9.79358C14.8861 9.79344 14.8859 9.79372 14.886 9.79358Z" fill="#424B5A"/>
<path fill-rule="evenodd" clip-rule="evenodd" d="M6.97001 2.75C5.72737 2.75 4.72001 3.75736 4.72001 5C4.72001 6.24264 5.72737 7.25 6.97001 7.25C8.21265 7.25 9.22001 6.24264 9.22001 5C9.22001 3.75736 8.21265 2.75 6.97001 2.75ZM3.22001 5C3.22001 2.92893 4.89894 1.25 6.97001 1.25C9.04108 1.25 10.72 2.92893 10.72 5C10.72 7.07107 9.04108 8.75 6.97001 8.75C4.89894 8.75 3.22001 7.07107 3.22001 5Z" fill="#424B5A"/>
</svg>
