<svg width="24" height="24" viewBox="0 0 24 24" fill="none" xmlns="http://www.w3.org/2000/svg">
<path fill-rule="evenodd" clip-rule="evenodd" d="M1.25 12C1.25 6.06579 6.06579 1.25 12 1.25C12.4142 1.25 12.75 1.58579 12.75 2C12.75 2.41421 12.4142 2.75 12 2.75C6.89421 2.75 2.75 6.89421 2.75 12C2.75 17.1058 6.89421 21.25 12 21.25C17.1058 21.25 21.25 17.1058 21.25 12C21.25 11.5858 21.5858 11.25 22 11.25C22.4142 11.25 22.75 11.5858 22.75 12C22.75 17.9342 17.9342 22.75 12 22.75C6.06579 22.75 1.25 17.9342 1.25 12ZM14.8107 10.25L22.5303 2.53033C22.8232 2.23744 22.8232 1.76256 22.5303 1.46967C22.2374 1.17678 21.7626 1.17678 21.4697 1.46967L13.75 9.18934V6.17C13.75 5.75579 13.4142 5.42 13 5.42C12.5858 5.42 12.25 5.75579 12.25 6.17V11C12.25 11.4142 12.5858 11.75 13 11.75H17.83C18.2442 11.75 18.58 11.4142 18.58 11C18.58 10.5858 18.2442 10.25 17.83 10.25H14.8107Z" fill="#424B5A"/>
</svg>
