<svg width="24" height="24" viewBox="0 0 24 24" fill="none" xmlns="http://www.w3.org/2000/svg">
<path fill-rule="evenodd" clip-rule="evenodd" d="M11.88 3.25C12.2942 3.25 12.63 3.58579 12.63 4V12.4293L13.9097 11.1497C14.2026 10.8568 14.6774 10.8568 14.9703 11.1497C15.2632 11.4426 15.2632 11.9174 14.9703 12.2103L12.4103 14.7703C12.1174 15.0632 11.6426 15.0632 11.3497 14.7703L8.78967 12.2103C8.49678 11.9174 8.49678 11.4426 8.78967 11.1497C9.08256 10.8568 9.55744 10.8568 9.85033 11.1497L11.13 12.4293V4C11.13 3.58579 11.4658 3.25 11.88 3.25ZM4.75 12.18C4.75 11.7658 4.41421 11.43 4 11.43C3.58579 11.43 3.25 11.7658 3.25 12.18C3.25 14.5594 4.05888 16.7514 5.58123 18.354C7.10922 19.9626 9.31157 20.93 12 20.93C14.6884 20.93 16.8908 19.9626 18.4188 18.354C19.9411 16.7514 20.75 14.5594 20.75 12.18C20.75 11.7658 20.4142 11.43 20 11.43C19.5858 11.43 19.25 11.7658 19.25 12.18C19.25 14.2206 18.5589 16.0286 17.3312 17.321C16.1092 18.6074 14.3116 19.43 12 19.43C9.68843 19.43 7.89078 18.6074 6.66877 17.321C5.44112 16.0286 4.75 14.2206 4.75 12.18Z" fill="#424B5A"/>
</svg>
