<svg width="24" height="24" viewBox="0 0 24 24" fill="none" xmlns="http://www.w3.org/2000/svg">
<path fill-rule="evenodd" clip-rule="evenodd" d="M1.25 12C1.25 6.08579 6.08579 1.25 12 1.25C17.9142 1.25 22.75 6.08579 22.75 12C22.75 17.9142 17.9142 22.75 12 22.75C6.08579 22.75 1.25 17.9142 1.25 12ZM12 2.75C6.91421 2.75 2.75 6.91421 2.75 12C2.75 17.0858 6.91421 21.25 12 21.25C17.0858 21.25 21.25 17.0858 21.25 12C21.25 6.91421 17.0858 2.75 12 2.75ZM11.998 17C11.5838 17 11.248 16.6642 11.248 16.25L11.248 11.25C11.248 10.8358 11.5838 10.5 11.998 10.5C12.4122 10.5 12.748 10.8358 12.748 11.25L12.748 16.25C12.748 16.6642 12.4122 17 11.998 17ZM12.0035 9.25C12.5558 9.25 13.0035 8.80228 13.0035 8.25C13.0035 7.69772 12.5558 7.25 12.0035 7.25H11.9945C11.4422 7.25 10.9945 7.69772 10.9945 8.25C10.9945 8.80228 11.4422 9.25 11.9945 9.25H12.0035Z" fill="#424B5A"/>
</svg>
