<svg width="24" height="24" viewBox="0 0 24 24" fill="none" xmlns="http://www.w3.org/2000/svg">
<path fill-rule="evenodd" clip-rule="evenodd" d="M16.5476 5.21429H8.45238C6.66403 5.21429 5.21429 6.66403 5.21429 8.45238V16.5476C5.21429 18.336 6.66403 19.7857 8.45238 19.7857H16.5476C18.336 19.7857 19.7857 18.336 19.7857 16.5476V8.45238C19.7857 6.66403 18.336 5.21429 16.5476 5.21429ZM16.5476 4C19.0066 4 21 5.9934 21 8.45238V16.5476C21 19.0066 19.0066 21 16.5476 21H8.45238C5.9934 21 4 19.0066 4 16.5476V8.45238C4 5.9934 5.9934 4 8.45238 4H16.5476ZM12.5 8.85714C10.4881 8.85714 8.85714 10.4881 8.85714 12.5C8.85714 14.5119 10.4881 16.1429 12.5 16.1429C14.5119 16.1429 16.1429 14.5119 16.1429 12.5C16.1429 10.4881 14.5119 8.85714 12.5 8.85714ZM12.5 7.64286C15.1825 7.64286 17.3571 9.81747 17.3571 12.5C17.3571 14.4645 16.1737 16.2356 14.3587 16.9874C12.5438 17.7392 10.4546 17.3237 9.06548 15.9345C7.67635 14.5454 7.26079 12.4562 8.01259 10.6413C8.76438 8.82626 10.5355 7.64286 12.5 7.64286ZM17.1548 8.25C16.7077 8.25 16.3452 7.88756 16.3452 7.44048C16.3452 6.99339 16.7077 6.63095 17.1548 6.63095C17.6018 6.63095 17.9643 6.99339 17.9643 7.44048C17.9643 7.88756 17.6018 8.25 17.1548 8.25Z" fill="#424B5A"/>
</svg>
