<svg width="24" height="24" viewBox="0 0 24 24" fill="none" xmlns="http://www.w3.org/2000/svg">
<path fill-rule="evenodd" clip-rule="evenodd" d="M12.0503 3.49033C12.5374 3.00322 13.3326 3.00322 13.8197 3.49033L18.0597 7.73035C18.5468 8.21746 18.5468 9.01257 18.0597 9.49968L14.532 13.0274L14.5297 13.0297L14.5274 13.032L13.63 13.9293L7.62065 7.92001L12.0503 3.49033ZM6.02967 7.38968L10.9897 2.42967C12.0626 1.35678 13.8074 1.35678 14.8803 2.42967L19.1203 6.66969C20.1932 7.74258 20.1932 9.48744 19.1203 10.5603L16.1207 13.56L20.5403 17.9797C20.8332 18.2726 20.8332 18.7474 20.5403 19.0403C20.2474 19.3332 19.7726 19.3332 19.4797 19.0403L15.06 14.6207L14.1603 15.5203L12.0503 17.6303C10.9774 18.7032 9.23256 18.7032 8.15966 17.6303L3.91966 13.3903C2.84677 12.3174 2.84677 10.5726 3.91966 9.49968L6.02967 7.38968ZM12.5694 14.99L10.9897 16.5697C10.5026 17.0568 9.70743 17.0568 9.22033 16.5697L4.98032 12.3297C4.49321 11.8426 4.49321 11.0474 4.98032 10.5603L6.55999 8.98067L12.5694 14.99ZM1.25 21C1.25 20.5858 1.58579 20.25 2 20.25H8C8.41421 20.25 8.75 20.5858 8.75 21C8.75 21.4142 8.41421 21.75 8 21.75H2C1.58579 21.75 1.25 21.4142 1.25 21Z" fill="#424B5A"/>
</svg>
