<svg width="24" height="24" viewBox="0 0 24 24" fill="none" xmlns="http://www.w3.org/2000/svg">
<path fill-rule="evenodd" clip-rule="evenodd" d="M9 1.25C6.42603 1.25 4.42914 1.7602 3.09467 3.09467C1.7602 4.42914 1.25 6.42603 1.25 9V15C1.25 17.574 1.7602 19.5709 3.09467 20.9053C4.42914 22.2398 6.42603 22.75 9 22.75H15C17.574 22.75 19.5709 22.2398 20.9053 20.9053C22.2398 19.5709 22.75 17.574 22.75 15V9C22.75 6.42603 22.2398 4.42914 20.9053 3.09467C19.5709 1.7602 17.574 1.25 15 1.25H9ZM2.75 9C2.75 6.57397 3.2398 5.07086 4.15533 4.15533C5.07086 3.2398 6.57397 2.75 9 2.75H15C17.426 2.75 18.9291 3.2398 19.8447 4.15533C20.7602 5.07086 21.25 6.57397 21.25 9V15C21.25 17.426 20.7602 18.9291 19.8447 19.8447C18.9291 20.7602 17.426 21.25 15 21.25H9C6.57397 21.25 5.07086 20.7602 4.15533 19.8447C3.2398 18.9291 2.75 17.426 2.75 15V9ZM10.9203 8.26033C12.2465 6.93412 14.4129 6.93178 15.7513 8.26196C17.0742 9.57664 17.0791 11.7412 15.7488 13.0805C14.822 14.0067 13.4956 14.2929 12.3251 13.9246C12.059 13.8408 11.7684 13.9117 11.5707 14.1086L10.4559 15.2191L10.1334 14.8928C9.84225 14.5982 9.36738 14.5954 9.07278 14.8866C8.77818 15.1778 8.7754 15.6526 9.06658 15.9472L9.39322 16.2777L8.9807 16.6886L8.97439 16.695L8.96689 16.6996C8.95198 16.7083 8.92907 16.7191 8.90018 16.7285C8.87142 16.738 8.84402 16.7437 8.82186 16.7462C8.80775 16.7478 8.79958 16.7477 8.79722 16.7477L7.58913 16.5866L7.58288 16.5858C7.58008 16.585 7.53963 16.5749 7.48727 16.5216C7.43535 16.4688 7.41588 16.418 7.41182 16.3989L7.25342 15.2109L7.25282 15.2067C7.25294 15.204 7.25327 15.1994 7.25409 15.1929C7.25662 15.1728 7.26261 15.1448 7.27341 15.1127C7.28416 15.0807 7.2972 15.052 7.30972 15.0298C7.31697 15.0169 7.32234 15.0092 7.32482 15.0058L9.89033 12.4403C10.0868 12.2439 10.1585 11.955 10.0768 11.6894C9.71455 10.512 9.99617 9.18449 10.9203 8.26033ZM9.85967 7.19967C11.7735 5.28588 14.8871 5.28822 16.8087 7.19804C18.7256 9.1031 18.7209 12.218 16.812 14.1387L16.8103 14.1403C15.5946 15.3561 13.8964 15.807 12.3256 15.4738L10.0454 17.7453C9.84617 17.9514 9.59117 18.0806 9.36732 18.1539C9.13925 18.2287 8.86188 18.2723 8.58649 18.2328L7.39345 18.0738C6.99432 18.0229 6.65731 17.817 6.41773 17.5734C6.17758 17.3291 5.98622 16.9978 5.92872 16.624L5.92658 16.6091L5.76737 15.415C5.72589 15.1325 5.77833 14.8527 5.85159 14.6348C5.92645 14.4121 6.05191 14.168 6.23554 13.9742L6.24967 13.9597L8.52778 11.6816C8.20283 10.1158 8.64139 8.41795 9.85967 7.19967ZM13.3945 9.69995C12.8422 9.69995 12.3945 10.1477 12.3945 10.7C12.3945 11.2522 12.8422 11.7 13.3945 11.7H13.4035C13.9558 11.7 14.4035 11.2522 14.4035 10.7C14.4035 10.1477 13.9558 9.69995 13.4035 9.69995H13.3945Z" fill="#424B5A"/>
</svg>
