<svg width="24" height="24" viewBox="0 0 24 24" fill="none" xmlns="http://www.w3.org/2000/svg">
<path fill-rule="evenodd" clip-rule="evenodd" d="M19.2505 4.75154C16.5827 2.09274 12.2669 2.09403 9.6103 4.75064L9.60901 4.75193C7.75622 6.59573 7.19454 9.25238 7.91681 11.5997C7.99851 11.8653 7.92674 12.1542 7.7303 12.3506L3.03532 17.0456C2.96965 17.1147 2.88065 17.2575 2.81649 17.45C2.75121 17.6458 2.73888 17.8113 2.75212 17.9021L2.753 17.9081L3.05207 20.0815C3.08016 20.2574 3.18539 20.4655 3.36277 20.6437C3.54152 20.8233 3.74479 20.9238 3.91222 20.9473L6.09821 21.2481C6.1975 21.2626 6.36657 21.2508 6.55626 21.1893C6.74726 21.1274 6.88084 21.0407 6.94202 20.9777L6.95014 20.9694L8.13052 19.7915L6.35964 18.0206C6.06675 17.7277 6.06675 17.2529 6.35964 16.96C6.65254 16.6671 7.12741 16.6671 7.4203 16.96L9.19232 18.732L11.6602 16.2694C11.8575 16.0725 12.1478 16.0013 12.4138 16.0845C14.7459 16.8138 17.4035 16.2465 19.2602 14.3995C21.9166 11.7425 21.9164 7.40842 19.2505 4.75154ZM8.55029 3.68934C11.7937 0.446595 17.0574 0.448098 20.3094 3.68909C23.5633 6.93203 23.5633 12.2176 20.3203 15.4606L20.319 15.4619C18.1723 17.5982 15.1451 18.3312 12.4091 17.6412L8.01331 22.0276C7.73501 22.3121 7.36576 22.5038 7.01869 22.6163C6.66945 22.7295 6.26494 22.7876 5.88524 22.733L5.88174 22.7325L3.70773 22.4333C3.15534 22.3566 2.6631 22.067 2.29968 21.7019C1.93607 21.3366 1.65157 20.8468 1.56858 20.3036L1.56689 20.2926L1.26782 18.1185L1.26734 18.1152C1.21146 17.727 1.27907 17.3188 1.39346 16.9756C1.50836 16.6309 1.69771 16.27 1.96179 15.998L1.96959 15.9899L6.36041 11.5992C5.67921 8.85854 6.39982 5.82983 8.55029 3.68934ZM13.75 9.50031C13.75 9.0861 14.0858 8.75031 14.5 8.75031C14.9142 8.75031 15.25 9.0861 15.25 9.50031C15.25 9.91453 14.9142 10.2503 14.5 10.2503C14.0858 10.2503 13.75 9.91453 13.75 9.50031ZM14.5 7.25031C13.2573 7.25031 12.25 8.25767 12.25 9.50031C12.25 10.743 13.2573 11.7503 14.5 11.7503C15.7426 11.7503 16.75 10.743 16.75 9.50031C16.75 8.25767 15.7426 7.25031 14.5 7.25031Z" fill="#424B5A"/>
</svg>
