<svg width="24" height="24" viewBox="0 0 24 24" fill="none" xmlns="http://www.w3.org/2000/svg">
<path fill-rule="evenodd" clip-rule="evenodd" d="M5.61004 2.83332C6.08018 2.77003 6.62079 2.75 7.25998 2.75H16.73C17.3692 2.75 17.9098 2.77003 18.3799 2.83332L18.3966 2.83537C19.6833 2.97938 20.2965 3.3295 20.6528 3.86939C21.0531 4.47604 21.25 5.48763 21.25 7.26001V13.58C21.25 15.3524 21.0531 16.364 20.6528 16.9706C20.2965 17.5105 19.6833 17.8606 18.3966 18.0047L18.3799 18.0067C17.9096 18.07 17.3789 18.09 16.73 18.09H7.25998C6.62079 18.09 6.08018 18.07 5.61004 18.0067L5.59339 18.0047C4.30662 17.8606 3.69351 17.5105 3.3372 16.9706C2.93683 16.364 2.73999 15.3524 2.73999 13.58V7.26001C2.73999 5.48763 2.93683 4.47604 3.3372 3.86939C3.69351 3.3295 4.30662 2.97938 5.59339 2.83537L5.61004 2.83332ZM7.25998 1.25C6.6024 1.25 5.98584 1.26982 5.41828 1.34561C3.93907 1.51237 2.79513 1.96755 2.08527 3.04315C1.41814 4.05399 1.23999 5.47239 1.23999 7.26001V13.58C1.23999 15.3676 1.41814 16.786 2.08527 17.7969C2.79512 18.8725 3.93904 19.3276 5.41823 19.4944C5.9858 19.5702 6.60238 19.59 7.25998 19.59H16.73C17.3978 19.59 18.0044 19.5702 18.5717 19.4944C20.0509 19.3276 21.1948 18.8725 21.9047 17.7969C22.5718 16.786 22.75 15.3676 22.75 13.58V7.26001C22.75 5.47239 22.5718 4.05399 21.9047 3.04315C21.1948 1.96756 20.0509 1.51237 18.5717 1.34561C18.0041 1.26982 17.3876 1.25 16.73 1.25H7.25998ZM13.58 7.57001C13.1658 7.57001 12.83 7.90579 12.83 8.32001C12.83 8.73422 13.1658 9.07001 13.58 9.07001H17.26C17.6742 9.07001 18.01 8.73422 18.01 8.32001C18.01 7.90579 17.6742 7.57001 17.26 7.57001H13.58ZM5.98999 14.11C5.98999 13.6958 6.32578 13.36 6.73999 13.36H17.27C17.6842 13.36 18.02 13.6958 18.02 14.11C18.02 14.5242 17.6842 14.86 17.27 14.86H6.73999C6.32578 14.86 5.98999 14.5242 5.98999 14.11ZM6.99998 21.25C6.58577 21.25 6.24998 21.5858 6.24998 22C6.24998 22.4142 6.58577 22.75 6.99998 22.75H17C17.4142 22.75 17.75 22.4142 17.75 22C17.75 21.5858 17.4142 21.25 17 21.25H6.99998ZM6.19469 8.3C6.19469 7.74772 6.6424 7.3 7.19469 7.3H7.20367C7.75595 7.3 8.20367 7.74772 8.20367 8.3C8.20367 8.85229 7.75595 9.3 7.20367 9.3H7.19469C6.6424 9.3 6.19469 8.85229 6.19469 8.3ZM10.4945 7.3C9.94221 7.3 9.49449 7.74772 9.49449 8.3C9.49449 8.85229 9.94221 9.3 10.4945 9.3H10.5035C11.0558 9.3 11.5035 8.85229 11.5035 8.3C11.5035 7.74772 11.0558 7.3 10.5035 7.3H10.4945Z" fill="#424B5A"/>
</svg>
