<svg width="24" height="24" viewBox="0 0 24 24" fill="none" xmlns="http://www.w3.org/2000/svg">
<path fill-rule="evenodd" clip-rule="evenodd" d="M5.32999 9.89993C5.32999 5.40115 9.17121 1.96907 13.4394 2.90254L13.4397 2.90261C14.6896 3.17662 15.8156 3.83077 16.7027 4.74655L3.64966 17.7996C3.35677 18.0925 3.35677 18.5674 3.64966 18.8603C3.94256 19.1532 4.41743 19.1532 4.71032 18.8603L6.95713 16.6135C7.21743 16.8511 7.48777 17.0713 7.76999 17.2711V18.0299C7.76999 18.0438 7.76936 18.0734 7.76854 18.1112C7.76654 18.2045 7.76345 18.3479 7.76621 18.429C7.77146 18.5834 7.79327 18.8295 7.92768 19.0721C8.24185 19.6393 8.8739 19.7399 9.41999 19.7399H14.62C14.9486 19.7399 15.2567 19.6856 15.5249 19.548C15.8063 19.4036 16.0004 19.1893 16.1183 18.9491C16.3018 18.5752 16.2757 18.1298 16.2707 18.0437L16.27 18.0299V17.2673C19.1162 15.2318 21.0605 11.1618 19.7755 7.07497C19.6512 6.67983 19.2302 6.46023 18.835 6.58447C18.4399 6.70872 18.2203 7.12976 18.3445 7.5249C19.4482 11.0349 17.6642 14.6032 15.115 16.2387C14.9 16.3766 14.77 16.6145 14.77 16.8699V18.0299C14.77 18.0576 14.7706 18.0848 14.7711 18.1061L14.7715 18.1236L14.7724 18.1672C14.7729 18.1916 14.7729 18.212 14.7725 18.2299C14.7377 18.2353 14.6881 18.2399 14.62 18.2399H9.41999C9.35989 18.2399 9.30906 18.2381 9.26636 18.2351L9.26693 18.2131C9.26829 18.1609 9.26999 18.0955 9.26999 18.0299V16.8699C9.26999 16.6113 9.13678 16.371 8.91749 16.2339C8.60993 16.0417 8.31157 15.8139 8.01909 15.5515L20.5603 3.01027C20.8532 2.71737 20.8532 2.2425 20.5603 1.94961C20.2674 1.65671 19.7926 1.65671 19.4997 1.94961L17.7635 3.68578C16.6866 2.58038 15.3085 1.7766 13.7606 1.43733L13.7603 1.43726C8.42859 0.270957 3.82999 4.57883 3.82999 9.89993C3.82999 11.0961 4.10682 12.2473 4.56174 13.2979C4.72632 13.6781 5.16789 13.8528 5.548 13.6882C5.92811 13.5236 6.10283 13.082 5.93825 12.7019C5.55317 11.8126 5.32999 10.8638 5.32999 9.89993ZM8.70478 22.7214C10.8609 22.1094 13.1391 22.1094 15.2952 22.7214C15.6937 22.8345 16.1084 22.6032 16.2215 22.2047C16.3346 21.8063 16.1033 21.3915 15.7048 21.2784C13.2809 20.5904 10.7191 20.5904 8.2952 21.2784C7.89673 21.3915 7.66539 21.8063 7.77849 22.2047C7.8916 22.6032 8.30631 22.8345 8.70478 22.7214Z" fill="#424B5A"/>
</svg>
