<svg width="24" height="24" viewBox="0 0 24 24" fill="none" xmlns="http://www.w3.org/2000/svg">
<path fill-rule="evenodd" clip-rule="evenodd" d="M6.15819 1.90548C6.66735 1.51612 7.31601 1.25 7.99003 1.25H16.01C16.6843 1.25 17.333 1.51631 17.8434 1.90694C18.3542 2.29791 18.7819 2.85587 18.9629 3.51006L18.9636 3.51274L21.1643 11.5853C21.4319 12.5809 21.2674 13.5553 20.7043 14.2908C20.1411 15.0267 19.2431 15.44 18.21 15.44H12.75V21.25H16C16.4142 21.25 16.75 21.5858 16.75 22C16.75 22.4142 16.4142 22.75 16 22.75H12H8C7.58579 22.75 7.25 22.4142 7.25 22C7.25 21.5858 7.58579 21.25 8 21.25H11.25V15.44H5.79003C4.75718 15.44 3.85807 15.0267 3.29576 14.288C2.73355 13.5495 2.57344 12.5717 2.84656 11.5723L5.04574 3.5053L5.04612 3.50389C5.22202 2.85104 5.64934 2.2946 6.15819 1.90548ZM7.06937 3.09702C6.77109 3.32511 6.56865 3.61816 6.49431 3.8947L6.49363 3.89726L4.29362 11.9673C4.12674 12.5779 4.2465 13.0605 4.4893 13.3795C4.73199 13.6983 5.16288 13.94 5.79003 13.94H18.21C18.837 13.94 19.2689 13.6983 19.5132 13.3791C19.7575 13.0599 19.878 12.5798 19.7161 11.9759L19.7157 11.9747L17.5172 3.90994L17.5168 3.90875C17.4375 3.62331 17.2305 3.32678 16.9317 3.09806C16.632 2.86869 16.2958 2.75 16.01 2.75H7.99003C7.70405 2.75 7.3677 2.86888 7.06937 3.09702Z" fill="#424B5A"/>
</svg>
