<svg width="24" height="24" viewBox="0 0 24 24" fill="none" xmlns="http://www.w3.org/2000/svg">
<path fill-rule="evenodd" clip-rule="evenodd" d="M2.75 12C2.75 6.89137 6.89137 2.75 12 2.75C17.1086 2.75 21.25 6.89137 21.25 12C21.25 17.1086 17.1086 21.25 12 21.25C6.89137 21.25 2.75 17.1086 2.75 12ZM12 1.25C6.06294 1.25 1.25 6.06294 1.25 12C1.25 17.9371 6.06294 22.75 12 22.75C17.9371 22.75 22.75 17.9371 22.75 12C22.75 6.06294 17.9371 1.25 12 1.25ZM12 6.53003C12.4142 6.53003 12.75 6.86582 12.75 7.28003V8.21002H14.3271C14.3826 8.19693 14.4405 8.19 14.5 8.19C14.5595 8.19 14.6174 8.19693 14.6729 8.21002H16.99C17.4042 8.21002 17.74 8.54581 17.74 8.96002C17.74 9.37424 17.4042 9.71002 16.99 9.71002H15.2168C15.0682 11.4232 14.4286 12.995 13.442 14.2693C14.4305 15.3486 15.6698 15.97 17 15.97C17.4142 15.97 17.75 16.3058 17.75 16.72C17.75 17.1342 17.4142 17.47 17 17.47C15.2096 17.47 13.6273 16.6487 12.4198 15.3721C10.9735 16.6771 9.08055 17.47 7 17.47C6.58579 17.47 6.25 17.1342 6.25 16.72C6.25 16.3058 6.58579 15.97 7 15.97C8.86405 15.97 10.5629 15.1787 11.7901 13.8933C11.8392 13.8023 11.908 13.7201 11.9956 13.6533C12.007 13.6447 12.0185 13.6364 12.0301 13.6285C12.9439 12.5672 13.5536 11.2129 13.7102 9.71002H12H7.01001C6.5958 9.71002 6.26001 9.37424 6.26001 8.96002C6.26001 8.54581 6.5958 8.21002 7.01001 8.21002H11.25V7.28003C11.25 6.86582 11.5858 6.53003 12 6.53003Z" fill="#424B5A"/>
</svg>
