<svg width="24" height="24" viewBox="0 0 24 24" fill="none" xmlns="http://www.w3.org/2000/svg">
<path fill-rule="evenodd" clip-rule="evenodd" d="M11.79 3.44482C11.418 3.44482 11.0875 3.50986 10.8765 3.60434L10.8744 3.60528L4.97273 6.22601C4.19807 6.56777 4.145 6.87698 4.145 6.90982C4.145 6.94267 4.19807 7.25188 4.97273 7.59364L4.97439 7.59437L10.8765 10.2153C11.0875 10.3098 11.418 10.3748 11.79 10.3748C12.162 10.3748 12.4925 10.3098 12.7035 10.2153L12.7056 10.2144L18.6056 7.59437L18.6073 7.59364C19.3819 7.25188 19.435 6.94267 19.435 6.90982C19.435 6.87698 19.3819 6.56777 18.6073 6.22601L12.7056 3.60528L12.7035 3.60434C12.4925 3.50986 12.162 3.44482 11.79 3.44482ZM13.3154 2.23481C12.8566 2.02965 12.3026 1.94482 11.79 1.94482C11.2774 1.94482 10.7234 2.02965 10.2646 2.23481L10.2635 2.23531L4.36727 4.85364C3.44226 5.26192 2.645 5.94795 2.645 6.90982C2.645 7.87167 3.44141 8.55733 4.36638 8.96562L10.2635 11.5843L10.2648 11.5849C10.7235 11.79 11.2775 11.8748 11.79 11.8748C12.3026 11.8748 12.8565 11.79 13.3153 11.5849L13.3165 11.5843L19.2127 8.96601C20.1377 8.55773 20.935 7.87171 20.935 6.90982C20.935 5.94791 20.1385 5.26222 19.2134 4.85394L13.3165 2.23531L13.3154 2.23481ZM3 10.2498C3.41421 10.2498 3.75 10.5856 3.75 10.9998C3.75 11.2432 3.84628 11.5557 4.0399 11.8533C4.23351 12.1509 4.48007 12.3653 4.70295 12.4637L4.70479 12.4645L11.4934 15.4839C11.8219 15.629 12.1898 15.6268 12.5017 15.4861L12.5052 15.4845L19.2952 12.4645L19.2971 12.4637C19.5199 12.3653 19.7665 12.1509 19.9601 11.8533C20.1537 11.5557 20.25 11.2432 20.25 10.9998C20.25 10.5856 20.5858 10.2498 21 10.2498C21.4142 10.2498 21.75 10.5856 21.75 10.9998C21.75 11.5964 21.5313 12.1889 21.2174 12.6713C20.9037 13.1535 20.4505 13.5939 19.9038 13.8355L13.1183 16.8535L13.1163 16.8544C12.4089 17.1728 11.5973 17.1701 10.8866 16.8557L4.09705 13.8359L4.09603 13.8355C3.54937 13.5938 3.0963 13.1535 2.7826 12.6713C2.46872 12.1889 2.25 11.5964 2.25 10.9998C2.25 10.5856 2.58579 10.2498 3 10.2498ZM3.75 15.9998C3.75 15.5856 3.41421 15.2498 3 15.2498C2.58579 15.2498 2.25 15.5856 2.25 15.9998C2.25 17.2288 2.97681 18.3351 4.0939 18.8345L10.8866 21.8557C11.5973 22.1701 12.4089 22.1728 13.1163 21.8544L13.1183 21.8535L19.9048 18.8351L19.9061 18.8345C21.0232 18.3351 21.75 17.2288 21.75 15.9998C21.75 15.5856 21.4142 15.2498 21 15.2498C20.5858 15.2498 20.25 15.5856 20.25 15.9998C20.25 16.6306 19.8765 17.2044 19.2939 17.4651L12.5052 20.4845L12.5017 20.4861C12.1898 20.6268 11.8219 20.629 11.4934 20.4839L4.70554 17.4649C4.12295 17.2042 3.75 16.6306 3.75 15.9998Z" fill="#424B5A"/>
</svg>
