<svg width="24" height="24" viewBox="0 0 24 24" fill="none" xmlns="http://www.w3.org/2000/svg">
<path fill-rule="evenodd" clip-rule="evenodd" d="M1.46549 9.82827C2.47582 4.93786 6.80619 1.25 12 1.25C17.2247 1.25 21.5783 4.96992 22.546 9.91599C22.6256 10.3225 22.3605 10.7165 21.954 10.796C21.5475 10.8756 21.1535 10.6105 21.0739 10.204C20.2416 5.95007 16.4953 2.75 12 2.75C7.53377 2.75 3.80414 5.92216 2.93447 10.1318C2.85066 10.5374 2.45389 10.7983 2.04824 10.7145C1.64259 10.6307 1.38169 10.2339 1.46549 9.82827ZM2.0501 13.2851C2.45596 13.2023 2.85208 13.4643 2.93485 13.8701C3.79481 18.0867 7.52232 21.25 12 21.25C16.4571 21.25 20.177 18.0966 21.0559 13.8964C21.1407 13.4909 21.5382 13.231 21.9436 13.3159C22.349 13.4007 22.6089 13.7982 22.5241 14.2036C21.503 19.0834 17.1828 22.75 12 22.75C6.79765 22.75 2.46515 19.0733 1.46511 14.1699C1.38233 13.764 1.64424 13.3679 2.0501 13.2851ZM11.25 12C11.25 11.5858 11.5858 11.25 12 11.25C12.4142 11.25 12.75 11.5858 12.75 12C12.75 12.4142 12.4142 12.75 12 12.75C11.5858 12.75 11.25 12.4142 11.25 12ZM12 9.75C10.7573 9.75 9.74998 10.7574 9.74998 12C9.74998 13.2426 10.7573 14.25 12 14.25C13.2426 14.25 14.25 13.2426 14.25 12C14.25 10.7574 13.2426 9.75 12 9.75Z" fill="#424B5A"/>
</svg>
