<svg width="24" height="24" viewBox="0 0 24 24" fill="none" xmlns="http://www.w3.org/2000/svg">
<path fill-rule="evenodd" clip-rule="evenodd" d="M2.71997 12C2.71997 9.71528 3.5483 7.62402 4.92102 6.01015L7.78648 8.86752C7.13534 9.74194 6.74997 10.826 6.74997 12C6.74997 13.174 7.13534 14.2581 7.78648 15.1325L4.92102 17.9898C3.5483 16.376 2.71997 14.2847 2.71997 12ZM5.98181 19.0504C7.59544 20.4222 9.68604 21.25 11.97 21.25C14.2564 21.25 16.3492 20.4204 17.9635 19.0458L15.1272 16.2174C14.2537 16.8662 13.1716 17.25 12 17.25C10.8155 17.25 9.72264 16.8577 8.84422 16.1961L5.98181 19.0504ZM21.22 12C21.22 14.2822 20.3935 16.3713 19.0235 17.9844L16.1921 15.161C16.8562 14.2817 17.25 13.1868 17.25 12C17.25 10.8132 16.8562 9.71832 16.1921 8.83899L19.0235 6.01555C20.3935 7.62868 21.22 9.71782 21.22 12ZM17.9635 4.95421C16.3492 3.5796 14.2564 2.75 11.97 2.75C9.68604 2.75 7.59544 3.57775 5.98181 4.94962L8.84422 7.80394C9.72264 7.14225 10.8155 6.75 12 6.75C13.1716 6.75 14.2537 7.13381 15.1272 7.78257L17.9635 4.95421ZM19.5092 4.33692C17.5689 2.42783 14.907 1.25 11.97 1.25C6.03291 1.25 1.21997 6.06294 1.21997 12C1.21997 17.9371 6.03291 22.75 11.97 22.75C14.907 22.75 17.5689 21.5722 19.5092 19.6631C19.5341 19.6437 19.5582 19.6225 19.581 19.5996C19.6037 19.5769 19.6246 19.5531 19.6437 19.5284C21.5465 17.5891 22.72 14.9316 22.72 12C22.72 9.06843 21.5465 6.41093 19.6437 4.47161C19.6246 4.4469 19.6037 4.42312 19.581 4.40042C19.5582 4.37746 19.5341 4.3563 19.5092 4.33692ZM8.24997 12C8.24997 9.92893 9.9289 8.25 12 8.25C14.071 8.25 15.75 9.92893 15.75 12C15.75 14.0711 14.071 15.75 12 15.75C9.9289 15.75 8.24997 14.0711 8.24997 12Z" fill="#424B5A"/>
</svg>
