<svg width="24" height="24" viewBox="0 0 24 24" fill="none" xmlns="http://www.w3.org/2000/svg">
<path fill-rule="evenodd" clip-rule="evenodd" d="M3.75 4.97998C3.75 3.76074 4.74764 2.76001 6 2.76001H18C19.2524 2.76001 20.25 3.76074 20.25 4.97998V15.89C20.25 17.1009 19.2507 18.11 18 18.11H17.24C16.2461 18.11 15.2948 18.4954 14.5914 19.1979L14.5897 19.1996L12.8828 20.8866C12.3949 21.3679 11.5947 21.3677 11.1069 20.8863L9.40033 19.1996L9.39871 19.198C8.69436 18.4946 7.73266 18.11 6.75 18.11H6C4.74764 18.11 3.75 17.1093 3.75 15.89V4.97998ZM6 1.26001C3.93236 1.26001 2.25 2.91923 2.25 4.97998V15.89C2.25 17.9508 3.93236 19.61 6 19.61H6.75C7.34659 19.61 7.92416 19.8448 8.33966 20.2603L8.34278 20.2634L10.0531 21.9538C11.1252 23.0121 12.8651 23.0118 13.9372 21.9535L15.6472 20.2634L15.6503 20.2603C16.0667 19.8439 16.6347 19.61 17.24 19.61H18C20.0693 19.61 21.75 17.9391 21.75 15.89V4.97998C21.75 2.91923 20.0676 1.26001 18 1.26001H6ZM13.1774 5.00175C13.9814 5.26935 14.5159 6.13486 14.3483 6.983L14.1295 8.37996H15.95C16.541 8.37996 17.0932 8.61994 17.4376 9.08462C17.7841 9.55227 17.8496 10.153 17.6498 10.7223L16.4091 14.4843C16.2724 14.9838 15.9446 15.3836 15.5743 15.6535C15.1978 15.928 14.7211 16.1099 14.23 16.1099H12.25C12.0251 16.1099 11.7619 16.0752 11.5148 16.0058C11.346 15.9584 11.1291 15.8797 10.9306 15.7452C10.8755 15.708 10.8219 15.6664 10.7711 15.62L9.97558 15.0023C9.94119 15.0426 9.90384 15.0816 9.8633 15.1191C9.48255 15.4717 8.98188 15.54 8.56 15.54H8.03999C7.61811 15.54 7.11744 15.4717 6.73669 15.1191C6.34171 14.7534 6.25 14.2478 6.25 13.8V8.70996C6.25 8.26217 6.34171 7.75661 6.73669 7.39089C6.99345 7.15315 7.30475 7.04464 7.60964 6.99918C7.75687 6.97722 7.90261 6.96997 8.03999 6.96997H8.56C8.98188 6.96997 9.48255 7.03835 9.8633 7.39089C9.89182 7.41729 9.91875 7.44442 9.94419 7.47221L11.1643 5.65632C11.3747 5.33438 11.7061 5.11688 12.0339 5.00431C12.3652 4.89057 12.7766 4.85515 13.1774 5.00175ZM11.7571 14.4864L10.35 13.394V9.55781L12.4126 6.48826L12.4168 6.48182C12.419 6.47954 12.4247 6.47412 12.435 6.46659C12.4557 6.45154 12.4854 6.43527 12.5211 6.42301C12.5994 6.3961 12.65 6.40582 12.663 6.41078L12.6823 6.41813L12.702 6.42441C12.7441 6.43785 12.7991 6.47623 12.8396 6.54408C12.8803 6.61237 12.8818 6.66855 12.8764 6.69385L12.8722 6.71377L12.6089 8.3939L12.6071 8.40679C12.4927 9.23096 13.1182 9.87996 13.87 9.87996H15.95C16.139 9.87996 16.2118 9.94997 16.2324 9.97777C16.249 10.0001 16.2897 10.0704 16.2335 10.2283L16.2305 10.2366L14.97 14.0586L14.9638 14.0826C14.9359 14.1905 14.8488 14.3262 14.6907 14.4414C14.5322 14.5569 14.3589 14.6099 14.23 14.6099H12.25C12.1649 14.6099 12.0381 14.5947 11.9202 14.5616C11.8633 14.5457 11.8206 14.5289 11.7929 14.5151C11.7861 14.5117 11.7811 14.509 11.7777 14.507L11.7571 14.4864ZM7.76878 8.49506C7.76027 8.53007 7.75 8.59625 7.75 8.70996V13.8C7.75 13.9138 7.76027 13.9799 7.76878 14.0149C7.81564 14.0273 7.90007 14.04 8.03999 14.04H8.56C8.69993 14.04 8.78437 14.0273 8.83122 14.0149C8.83973 13.9799 8.85001 13.9138 8.85001 13.8V10.2658V8.70996C8.85001 8.59625 8.83973 8.53007 8.83122 8.49507C8.78437 8.48271 8.69993 8.46997 8.56 8.46997H8.16811H8.03999C7.90007 8.46997 7.81564 8.48271 7.76878 8.49506ZM7.77992 8.46175C7.77999 8.46184 7.77939 8.46325 7.77791 8.4657C7.77911 8.46288 7.77985 8.46165 7.77992 8.46175ZM8.82008 8.46176C8.82011 8.46172 8.82023 8.46187 8.82044 8.46223L8.8221 8.46571L8.82055 8.46294L8.82008 8.46176ZM8.82008 14.0483C8.82001 14.0482 8.82062 14.0468 8.8221 14.0443C8.82089 14.0471 8.82015 14.0483 8.82008 14.0483ZM7.77992 14.0483C7.77985 14.0484 7.77911 14.0471 7.7779 14.0443C7.77939 14.0468 7.77999 14.0482 7.77992 14.0483Z" fill="#424B5A"/>
</svg>
