<svg width="24" height="24" viewBox="0 0 24 24" fill="none" xmlns="http://www.w3.org/2000/svg">
<path fill-rule="evenodd" clip-rule="evenodd" d="M15.8177 5.08714C16.0894 3.79754 15.253 2.45793 14.0302 2.04286C13.437 1.82458 12.8092 1.87344 12.2862 2.05323C11.7649 2.23243 11.266 2.56965 10.9569 3.03264L10.956 3.03397L7.98505 7.4541C7.87548 7.10104 7.69481 6.78337 7.41371 6.52389C6.87717 6.02862 6.13749 5.89999 5.38 5.89999H4.38C3.62252 5.89999 2.88284 6.02862 2.34629 6.52389C1.79501 7.03277 1.63 7.76548 1.63 8.54999V18.35C1.63 19.1345 1.79501 19.8672 2.34629 20.3761C2.88284 20.8714 3.62252 21 4.38 21H5.38C6.13749 21 6.87717 20.8714 7.41371 20.3761C7.64311 20.1643 7.80563 19.9138 7.9172 19.637L10.0886 21.318C10.4189 21.6285 10.8682 21.8123 11.249 21.9211C11.6633 22.0395 12.1076 22.1 12.48 22.1H16.28C17.0598 22.1 17.837 21.8114 18.4604 21.3553C19.077 20.9041 19.5945 20.2505 19.8004 19.4602L22.1897 12.1927C22.5095 11.2886 22.3966 10.3761 21.8838 9.68009C21.3727 8.98643 20.5329 8.59999 19.58 8.59999H15.58C15.4902 8.59999 15.4217 8.56368 15.3799 8.51628C15.3438 8.4754 15.303 8.39882 15.3219 8.25994L15.8177 5.08714ZM8.13 17.9047L11.0767 20.1861L11.1103 20.2197C11.177 20.2863 11.357 20.392 11.661 20.4788C11.9467 20.5605 12.2524 20.6 12.48 20.6H16.28C16.7002 20.6 17.173 20.4386 17.5746 20.1447C17.9757 19.8513 18.2531 19.4651 18.3524 19.0681L18.359 19.0416L20.7705 11.7067L20.7737 11.6977C20.9497 11.205 20.8616 10.8214 20.6762 10.5699C20.4873 10.3136 20.1271 10.1 19.58 10.1H15.58C14.5367 10.1 13.6712 9.20859 13.8375 8.04393L13.8389 8.0342L14.3427 4.81061L14.3479 4.78729C14.4585 4.28927 14.1049 3.64885 13.5428 3.46151L13.5297 3.45711L13.5167 3.45224C13.3137 3.37612 13.0469 3.37787 12.7738 3.47176C12.4956 3.56738 12.2949 3.72969 12.204 3.86602L12.2025 3.86837L8.13 9.9274V17.9047ZM3.13 8.54999C3.13 7.9345 3.265 7.71722 3.36371 7.6261C3.47717 7.52137 3.73749 7.39999 4.38 7.39999H5.38C6.02252 7.39999 6.28284 7.52137 6.39629 7.6261C6.49501 7.71722 6.63 7.9345 6.63 8.54999V18.35C6.63 18.9655 6.49501 19.1828 6.3963 19.2739C6.28284 19.3786 6.02252 19.5 5.38 19.5H4.38C3.73749 19.5 3.47717 19.3786 3.36371 19.2739C3.265 19.1828 3.13 18.9655 3.13 18.35V8.54999Z" fill="#424B5A"/>
</svg>
