<svg width="24" height="24" viewBox="0 0 24 24" fill="none" xmlns="http://www.w3.org/2000/svg">
<path fill-rule="evenodd" clip-rule="evenodd" d="M11.2382 3.01916L11.2374 3.01985L9.66122 4.3767L9.66017 4.3776C9.42145 4.58419 9.1168 4.74075 8.83498 4.84546C8.55284 4.95029 8.22154 5.0299 7.91001 5.0299H6.18C5.53418 5.0299 5.00001 5.56408 5.00001 6.20983V7.91992C5.00001 8.23195 4.92013 8.56074 4.81712 8.83902C4.71373 9.11833 4.56152 9.41565 4.36618 9.65006L4.36175 9.65537L3.01412 11.2425L3.01306 11.2437C2.66899 11.6545 2.66899 12.3652 3.01306 12.776L3.01412 12.7773L4.3662 14.3697C4.56154 14.6041 4.71373 14.9014 4.81712 15.1807C4.92013 15.459 5.00001 15.7878 5.00001 16.0998V17.8099C5.00001 18.4557 5.53418 18.9899 6.18 18.9899H7.91001C8.22553 18.9899 8.5568 19.069 8.83999 19.1748C9.12269 19.2804 9.4233 19.4372 9.66012 19.6421L9.66122 19.6431L11.2359 20.9985C11.6588 21.3524 12.3751 21.3474 12.7818 21.0005L12.7826 20.9998L14.3588 19.6431L14.3598 19.6422C14.5985 19.4356 14.9032 19.279 15.185 19.1743C15.4672 19.0695 15.7985 18.9899 16.11 18.9899H17.81C18.4558 18.9899 18.99 18.4557 18.99 17.8099V16.1099C18.99 15.7943 19.0691 15.463 19.1749 15.1799C19.2805 14.8972 19.4373 14.5967 19.6421 14.3599L19.6432 14.3587L20.9987 12.7839C21.3526 12.3612 21.3476 11.645 21.0008 11.2383L21 11.2373L19.6432 9.66112L19.6421 9.65986C19.4357 9.42118 19.2792 9.11664 19.1745 8.8349C19.0696 8.55276 18.99 8.22145 18.99 7.90991V6.20983C18.99 5.56408 18.4558 5.0299 17.81 5.0299H16.11C15.7945 5.0299 15.4632 4.95078 15.18 4.84499C14.8973 4.73937 14.5968 4.58259 14.36 4.37768L14.3588 4.3767L12.7841 3.02112C12.3612 2.66721 11.6449 2.67223 11.2382 3.01916ZM10.2626 1.8798C11.2352 1.04812 12.7761 1.05269 13.7533 1.87635L13.7593 1.88138L15.3412 3.24316C15.4042 3.29778 15.5331 3.37564 15.705 3.43985C15.8768 3.50404 16.0255 3.5299 16.11 3.5299H17.81C19.2842 3.5299 20.49 4.73559 20.49 6.20983V7.90991C20.49 7.98836 20.5154 8.13706 20.5805 8.31243C20.6457 8.4877 20.7238 8.61759 20.7768 8.67872L20.7784 8.68063L22.14 10.2625C22.9717 11.2351 22.9671 12.776 22.1435 13.7532L22.1385 13.7592L20.7784 15.3391L20.7768 15.341C20.7222 15.4041 20.6443 15.533 20.5801 15.7048C20.5159 15.8767 20.49 16.0254 20.49 16.1099V17.8099C20.49 19.2842 19.2842 20.4899 17.81 20.4899H16.11C16.0315 20.4899 15.8828 20.5152 15.7075 20.5804C15.5322 20.6455 15.4023 20.7236 15.3412 20.7766L15.3393 20.7783L13.7593 22.1382L13.7574 22.1398C12.7848 22.9715 11.2439 22.967 10.2667 22.1433L10.2607 22.1383L8.68074 20.7783L8.67882 20.7766C8.61582 20.722 8.48691 20.6441 8.31504 20.5799C8.14322 20.5157 7.99449 20.4899 7.91001 20.4899H6.18C4.70582 20.4899 3.50001 19.2842 3.50001 17.8099V16.0998C3.50001 16.0219 3.47489 15.8757 3.4104 15.7015C3.34695 15.53 3.2701 15.3983 3.21554 15.332L1.86589 13.7425C1.05137 12.7735 1.05138 11.2463 1.86589 10.2773L1.86829 10.2744L3.21551 8.68777C3.27008 8.6215 3.34694 8.48976 3.4104 8.31831C3.47489 8.14409 3.50001 7.99788 3.50001 7.91992V6.20983C3.50001 4.73559 4.70582 3.5299 6.18 3.5299H7.91001C7.98848 3.5299 8.13719 3.50453 8.31255 3.43938C8.48782 3.37425 8.6177 3.29613 8.67882 3.24316L8.68071 3.24152L10.2607 1.88142L10.2626 1.8798ZM8.25679 10.1112C8.25304 10.1416 8.25 10.1837 8.25 10.2401V14.8201C8.25 14.8765 8.25304 14.9186 8.25679 14.949C8.29729 14.955 8.35653 14.9601 8.44 14.9601H8.91C8.99416 14.9601 9.05323 14.9547 9.09294 14.9483C9.09681 14.9185 9.10001 14.8767 9.10001 14.8201V10.2401C9.10001 10.1834 9.09678 10.1415 9.09288 10.1117C9.05302 10.1054 8.99396 10.1001 8.91 10.1001H8.44C8.35653 10.1001 8.29729 10.1051 8.25679 10.1112ZM7.21529 8.99512C7.58054 8.6598 8.0563 8.6001 8.44 8.6001H8.91C9.28748 8.6001 9.75341 8.65964 10.1163 8.98193L11.1693 7.41891C11.3727 7.11924 11.6841 6.91556 11.9918 6.80892C12.2999 6.70215 12.6895 6.66346 13.0711 6.8033C13.817 7.05982 14.3262 7.87003 14.1685 8.67197L13.9879 9.85004H15.54C16.098 9.85004 16.6165 10.0828 16.9389 10.5233C17.2618 10.9645 17.3253 11.5293 17.1403 12.0608L16.0299 15.4514C15.9038 15.9218 15.5982 16.2953 15.2543 16.5461C14.9037 16.8017 14.4594 16.97 13.9999 16.97H12.23C12.02 16.97 11.7764 16.9377 11.5473 16.873C11.349 16.817 11.0744 16.7128 10.8524 16.5111L10.1943 16.0028C10.1761 16.0219 10.157 16.0407 10.1372 16.0591C9.774 16.3954 9.30016 16.4601 8.91 16.4601H8.44C8.0563 16.4601 7.58054 16.4004 7.21529 16.0651C6.83404 15.715 6.75 15.2324 6.75 14.8201V10.2401C6.75 9.82777 6.83404 9.34513 7.21529 8.99512ZM10.6 14.4208L11.8364 15.3758L11.8522 15.3916L11.8546 15.3928C11.8744 15.4027 11.9078 15.4162 11.9551 15.4295C12.0535 15.4573 12.16 15.47 12.23 15.47H13.9999C14.1005 15.47 14.2412 15.4284 14.3706 15.334C14.4995 15.24 14.5634 15.1339 14.5823 15.0582L14.5888 15.0321L15.7199 11.5782L15.7229 11.5698C15.7447 11.5083 15.7446 11.4679 15.742 11.4475C15.7396 11.4274 15.7336 11.4163 15.7285 11.4092C15.7234 11.4023 15.6819 11.35 15.54 11.35H13.67C12.9401 11.35 12.3612 10.7267 12.4554 9.94986L12.4568 9.93813L12.6919 8.40459L12.6966 8.38296C12.6968 8.37965 12.6988 8.34927 12.6712 8.30278C12.6413 8.25249 12.603 8.22833 12.5828 8.22159L12.5686 8.21685L12.559 8.21325C12.559 8.21325 12.5537 8.21283 12.5485 8.21296C12.5333 8.21334 12.5104 8.21674 12.4831 8.2262C12.4557 8.23568 12.4326 8.24832 12.4166 8.2598C12.4112 8.26363 12.4077 8.2666 12.4057 8.26842L10.6 10.9487V14.4208Z" fill="#424B5A"/>
</svg>
