<svg width="24" height="24" viewBox="0 0 24 24" fill="none" xmlns="http://www.w3.org/2000/svg">
<path fill-rule="evenodd" clip-rule="evenodd" d="M11.7296 2.99987C12.005 1.95144 13.068 1.26001 14.05 1.26001H16.22C16.4639 1.26001 16.7472 1.29699 17.013 1.37175C17.2473 1.43763 17.5556 1.55685 17.7989 1.77997L18.7424 2.51028C18.7911 2.44604 18.8462 2.38453 18.9085 2.32644C19.3049 1.95687 19.8305 1.88 20.29 1.88H20.86C21.3142 1.88 21.8414 1.95234 22.2395 2.32084C22.6519 2.70258 22.75 3.23463 22.75 3.71997V9.31995C22.75 9.80311 22.6506 10.332 22.2415 10.7135C21.8452 11.0831 21.3196 11.16 20.86 11.16H20.29C19.8304 11.16 19.3048 11.0831 18.9085 10.7135C18.8583 10.6667 18.8128 10.6177 18.7715 10.5668L17.3629 12.6677L17.3612 12.6702C17.1375 13.0009 16.7901 13.23 16.4404 13.3504C16.0887 13.4715 15.6539 13.5103 15.2315 13.3577C14.3882 13.0701 13.8234 12.1443 14.002 11.2552L14.2611 9.62H12.17C11.5367 9.62 10.9526 9.36086 10.5904 8.87056C10.2266 8.37794 10.1547 7.74258 10.3707 7.13622L11.7296 2.99987ZM18.4 8.42744V4.14206L16.8133 2.91395L16.7871 2.88774C16.783 2.88506 16.7737 2.87922 16.7575 2.87114C16.7227 2.85383 16.6722 2.83408 16.607 2.81574C16.4728 2.77801 16.3261 2.76001 16.22 2.76001H14.05C13.6616 2.76001 13.2557 3.07497 13.1782 3.38938L13.1714 3.41701L11.789 7.62491L11.7851 7.6356C11.7162 7.82569 11.7607 7.93026 11.7971 7.97944C11.8374 8.03413 11.9432 8.12 12.17 8.12H14.46C15.2443 8.12 15.9018 8.80389 15.7717 9.67131L15.7708 9.67745L15.4775 11.5279L15.4731 11.5481C15.4473 11.6679 15.5541 11.8842 15.7172 11.9385L15.7286 11.9423L15.74 11.9465C15.7739 11.9591 15.8495 11.9674 15.9521 11.9321C15.9998 11.9157 16.0416 11.8934 16.0735 11.8705C16.089 11.8594 16.1005 11.8493 16.1084 11.8415C16.1151 11.8347 16.1181 11.8306 16.1187 11.8299L18.4 8.42744ZM9.99799 12.7448C10.1766 11.8557 9.61179 10.9299 8.76853 10.6423C8.34606 10.4897 7.9113 10.5285 7.5596 10.6496C7.20986 10.77 6.86248 10.9991 6.63878 11.3297L5.22845 13.4332C5.1872 13.3823 5.14169 13.3333 5.09151 13.2865C4.69516 12.9169 4.16956 12.84 3.71 12.84H3.14C2.68044 12.84 2.15484 12.9169 1.75849 13.2865C1.34936 13.668 1.25 14.1969 1.25 14.6801V20.28C1.25 20.7654 1.34811 21.2974 1.76053 21.6792C2.15863 22.0477 2.68583 22.12 3.14 22.12H3.71C4.1695 22.12 4.69509 22.0431 5.09146 21.6736C5.15377 21.6155 5.20889 21.554 5.25758 21.4897L6.20111 22.22C6.44437 22.4431 6.75268 22.5623 6.98697 22.6282C7.25282 22.703 7.53612 22.74 7.78 22.74H9.95C10.932 22.74 11.995 22.0485 12.2704 21.0001L13.6293 16.8638C13.8453 16.2574 13.7734 15.622 13.4096 15.1294C13.0474 14.6391 12.4633 14.38 11.83 14.38H9.73886L9.99799 12.7448ZM5.6 19.8579L7.18669 21.086L7.2129 21.1122C7.21696 21.1149 7.22632 21.1208 7.24254 21.1288C7.27729 21.1461 7.3278 21.1659 7.39303 21.1842C7.52718 21.222 7.67387 21.24 7.78 21.24H9.95C10.3384 21.24 10.7443 20.925 10.8218 20.6106L10.8286 20.583L12.211 16.3751L12.2149 16.3644C12.2838 16.1743 12.2393 16.0697 12.2029 16.0205C12.1626 15.9658 12.0568 15.88 11.83 15.88H9.54C8.75571 15.88 8.09819 15.1961 8.2283 14.3287L8.22922 14.3225L8.52249 12.4721L8.52686 12.4518C8.5527 12.332 8.4459 12.1158 8.28283 12.0615L8.27135 12.0576L8.26001 12.0534C8.22606 12.0409 8.15052 12.0325 8.0479 12.0679C8.00019 12.0843 7.95841 12.1066 7.92652 12.1294C7.91096 12.1406 7.89949 12.1507 7.89165 12.1585C7.88494 12.1652 7.88185 12.1693 7.88128 12.1701L5.6 15.5725V19.8579ZM2.75 14.6801C2.75 14.4957 2.7739 14.4132 2.7862 14.3835C2.81578 14.3708 2.9108 14.34 3.14 14.34H3.71C3.9392 14.34 4.03422 14.3708 4.0638 14.3835C4.07609 14.4132 4.1 14.4957 4.1 14.6801V20.28C4.1 20.4642 4.07612 20.5468 4.06383 20.5765C4.03422 20.5891 3.93918 20.62 3.71 20.62H3.14C2.91317 20.62 2.81671 20.5909 2.78511 20.5782C2.77275 20.5467 2.75 20.4627 2.75 20.28V14.6801ZM2.79331 14.3697C2.79339 14.3698 2.79267 14.3711 2.79095 14.3734C2.79238 14.3707 2.79324 14.3696 2.79331 14.3697ZM4.05668 14.3697C4.05676 14.3696 4.05762 14.3707 4.05905 14.3734C4.05733 14.3711 4.05661 14.3698 4.05668 14.3697ZM4.05671 20.5903C4.05663 20.5902 4.05735 20.5889 4.05907 20.5866C4.05764 20.5893 4.05678 20.5904 4.05671 20.5903ZM2.79286 20.594C2.79279 20.5941 2.79194 20.593 2.79053 20.5903C2.79222 20.5926 2.79293 20.5939 2.79286 20.594ZM19.9 3.71997C19.9 3.53577 19.9239 3.45321 19.9362 3.42354C19.9658 3.41086 20.0608 3.38 20.29 3.38H20.86C21.0868 3.38 21.1833 3.4091 21.2149 3.42179C21.2272 3.45333 21.25 3.53731 21.25 3.71997V9.31995C21.25 9.50426 21.2261 9.58683 21.2138 9.61648C21.1842 9.62916 21.0892 9.66003 20.86 9.66003H20.29C20.0608 9.66003 19.9658 9.62916 19.9362 9.61648C19.9239 9.58683 19.9 9.50426 19.9 9.31995V3.71997ZM19.9433 3.40971C19.9434 3.40981 19.9426 3.41113 19.9409 3.41337C19.9424 3.41073 19.9432 3.40961 19.9433 3.40971ZM21.2077 3.40664C21.2074 3.40614 21.2072 3.40593 21.2071 3.40598C21.2071 3.40608 21.2078 3.40741 21.2095 3.40967C21.2087 3.40822 21.2081 3.40723 21.2077 3.40664ZM21.2091 9.62663C21.2073 9.62887 21.2066 9.63018 21.2067 9.63028C21.2067 9.63036 21.2072 9.6298 21.208 9.62852C21.2083 9.62801 21.2086 9.62738 21.2091 9.62663ZM19.9433 9.63028C19.9432 9.63038 19.9424 9.62927 19.941 9.62663C19.9427 9.62887 19.9434 9.63018 19.9433 9.63028Z" fill="#424B5A"/>
</svg>
