<svg width="24" height="24" viewBox="0 0 24 24" fill="none" xmlns="http://www.w3.org/2000/svg">
<path fill-rule="evenodd" clip-rule="evenodd" d="M11.1214 5.44921C13.1662 3.39567 16.4913 3.40079 18.5508 5.45147C20.6043 7.49626 20.5992 10.8214 18.5485 12.8808C18.2562 13.1743 18.2573 13.6492 18.5508 13.9415C18.8443 14.2337 19.3192 14.2327 19.6114 13.9392C22.2408 11.2986 22.2556 7.02375 19.6092 4.38855C16.9686 1.75922 12.6937 1.74434 10.0585 4.39081C7.42774 7.03282 7.42612 11.3068 10.0596 13.9403C10.3525 14.2332 10.8274 14.2332 11.1203 13.9403C11.4132 13.6474 11.4132 13.1726 11.1203 12.8797C9.07381 10.8332 9.07219 7.5072 11.1214 5.44921ZM5.45912 11.4715C5.75266 11.1793 5.75372 10.7044 5.46148 10.4109C5.16924 10.1173 4.69437 10.1163 4.40082 10.4085C1.8542 12.9438 1.86929 17.0587 4.39846 19.5992C6.93376 22.1458 11.0487 22.1307 13.5891 19.6015C16.1342 17.0677 16.1325 12.9519 13.5903 10.4097C13.2974 10.1168 12.8225 10.1168 12.5296 10.4097C12.2367 10.7026 12.2367 11.1774 12.5296 11.4703C14.4874 13.4281 14.4857 16.5923 12.5308 18.5385C10.5713 20.4893 7.40617 20.4942 5.46148 18.5409C3.51064 16.5813 3.50574 13.4162 5.45912 11.4715Z" fill="#424B5A"/>
</svg>
