<svg width="24" height="24" viewBox="0 0 24 24" fill="none" xmlns="http://www.w3.org/2000/svg">
<path fill-rule="evenodd" clip-rule="evenodd" d="M1.25 12C1.25 8.55579 4.05579 5.75 7.5 5.75H9C9.41421 5.75 9.75 6.08579 9.75 6.5C9.75 6.91421 9.41421 7.25 9 7.25H7.5C4.88421 7.25 2.75 9.38421 2.75 12C2.75 14.6067 4.8851 16.75 7.5 16.75H9C9.41421 16.75 9.75 17.0858 9.75 17.5C9.75 17.9142 9.41421 18.25 9 18.25H7.5C4.0549 18.25 1.25 15.4333 1.25 12ZM14.24 6.5C14.24 6.08579 14.5758 5.75 14.99 5.75H16.5C19.9451 5.75 22.75 8.56667 22.75 12C22.75 15.4451 19.9333 18.25 16.5 18.25H14.99C14.5758 18.25 14.24 17.9142 14.24 17.5C14.24 17.0858 14.5758 16.75 14.99 16.75H16.5C19.1067 16.75 21.25 14.6149 21.25 12C21.25 9.39333 19.1149 7.25 16.5 7.25H14.99C14.5758 7.25 14.24 6.91421 14.24 6.5ZM8 11.25C7.58579 11.25 7.25 11.5858 7.25 12C7.25 12.4142 7.58579 12.75 8 12.75H16C16.4142 12.75 16.75 12.4142 16.75 12C16.75 11.5858 16.4142 11.25 16 11.25H8Z" fill="#424B5A"/>
</svg>
