<svg width="24" height="24" viewBox="0 0 24 24" fill="none" xmlns="http://www.w3.org/2000/svg">
<path fill-rule="evenodd" clip-rule="evenodd" d="M9 1.25C6.42603 1.25 4.42914 1.7602 3.09467 3.09467C1.7602 4.42914 1.25 6.42603 1.25 9V15C1.25 17.574 1.7602 19.5709 3.09467 20.9053C4.42914 22.2398 6.42603 22.75 9 22.75H15C17.574 22.75 19.5709 22.2398 20.9053 20.9053C22.2398 19.5709 22.75 17.574 22.75 15V9C22.75 6.42603 22.2398 4.42914 20.9053 3.09467C19.5709 1.7602 17.574 1.25 15 1.25H9ZM2.75 9C2.75 6.57397 3.2398 5.07086 4.15533 4.15533C5.07086 3.2398 6.57397 2.75 9 2.75H15C17.426 2.75 18.9291 3.2398 19.8447 4.15533C20.7602 5.07086 21.25 6.57397 21.25 9V15C21.25 17.426 20.7602 18.9291 19.8447 19.8447C18.9291 20.7602 17.426 21.25 15 21.25H9C6.57397 21.25 5.07086 20.7602 4.15533 19.8447C3.2398 18.9291 2.75 17.426 2.75 15V9ZM12.5572 8.14751C11.5213 7.06599 9.84671 7.06934 8.82384 8.14645L6.63384 10.4464C5.5891 11.547 5.58883 13.3731 6.6338 14.4735C7.08939 14.9525 7.67095 15.2199 8.24878 15.2731C8.66124 15.3111 8.96482 15.6763 8.92683 16.0888C8.88884 16.5012 8.52367 16.8048 8.1112 16.7668C7.16916 16.68 6.25051 16.2472 5.54614 15.5064C3.95127 13.827 3.95127 11.093 5.54614 9.41352L7.73651 7.11315C9.35336 5.41098 12.0178 5.41413 13.6419 7.11149L13.6439 7.11353C15.2386 8.79281 15.2382 11.527 13.6438 13.2065L12.5543 14.3559C12.2694 14.6566 11.7947 14.6693 11.494 14.3843C11.1934 14.0994 11.1807 13.6247 11.4657 13.324L12.5562 12.1735C13.6009 11.0733 13.6013 9.24817 12.5572 8.14751ZM15.0732 7.91122C15.1112 7.49876 15.4763 7.19518 15.8888 7.23317C16.8308 7.31994 17.7492 7.75242 18.4535 8.49321C20.0484 10.1727 20.0487 12.907 18.4538 14.5865L16.2638 16.8865C14.647 18.5886 11.9822 18.5858 10.3581 16.8885L10.3561 16.8865C8.76135 15.2071 8.76127 12.4733 10.3559 10.7938L11.4457 9.64406C11.7306 9.34343 12.2053 9.33072 12.5059 9.61567C12.8066 9.90062 12.8193 10.3753 12.5343 10.6759L11.4443 11.8259C10.3995 12.9262 10.3987 14.7519 11.4429 15.8525C12.4787 16.934 14.1533 16.9306 15.1761 15.8535L17.3661 13.5535C18.4108 12.4531 18.4112 10.6273 17.3665 9.52681C16.9108 9.0476 16.3292 8.78008 15.7512 8.72685C15.3387 8.68886 15.0352 8.32369 15.0732 7.91122Z" fill="#424B5A"/>
</svg>
