<svg width="24" height="24" viewBox="0 0 24 24" fill="none" xmlns="http://www.w3.org/2000/svg">
<path fill-rule="evenodd" clip-rule="evenodd" d="M8.25909 9.80299V19.4084H5.28567V9.80299H8.25909ZM15.9072 9.50919C17.944 9.50919 19.402 10.7535 19.402 13.3268V19.4084H16.4425V14.3662C16.4425 12.9837 15.917 12.2115 14.8243 12.2115C13.634 12.2115 13.0127 13.0156 13.0127 14.3662V19.4084H10.1601V9.80299H13.0127V11.0966C13.0127 11.0966 13.8697 9.50919 15.9072 9.50919ZM6.75815 5C7.72955 5 8.51631 5.79372 8.51631 6.77209C8.51631 7.75104 7.72955 8.54476 6.75815 8.54476C5.78676 8.54476 5 7.75104 5 6.77209C5 5.79372 5.78676 5 6.75815 5Z" fill="#424B5A"/>
</svg>
