<svg width="24" height="24" viewBox="0 0 24 24" fill="none" xmlns="http://www.w3.org/2000/svg">
<path fill-rule="evenodd" clip-rule="evenodd" d="M7.75 7C4.98421 7 2.75 9.23421 2.75 12C2.75 14.7658 4.98421 17 7.75 17C10.5158 17 12.75 14.7658 12.75 12C12.75 11.5858 13.0858 11.25 13.5 11.25C13.9142 11.25 14.25 11.5858 14.25 12C14.25 15.5942 11.3442 18.5 7.75 18.5C4.15579 18.5 1.25 15.5942 1.25 12C1.25 8.40579 4.15579 5.5 7.75 5.5C8.16421 5.5 8.5 5.83579 8.5 6.25C8.5 6.66421 8.16421 7 7.75 7Z" fill="#424B5A"/>
<path fill-rule="evenodd" clip-rule="evenodd" d="M16 6.75C13.1042 6.75 10.75 9.10421 10.75 12C10.75 12.4142 10.4142 12.75 10 12.75C9.58579 12.75 9.25 12.4142 9.25 12C9.25 8.27579 12.2758 5.25 16 5.25C19.7242 5.25 22.75 8.27579 22.75 12C22.75 15.7242 19.7242 18.75 16 18.75C15.5858 18.75 15.25 18.4142 15.25 18C15.25 17.5858 15.5858 17.25 16 17.25C18.8958 17.25 21.25 14.8958 21.25 12C21.25 9.10421 18.8958 6.75 16 6.75Z" fill="#424B5A"/>
</svg>
