<svg width="24" height="24" viewBox="0 0 24 24" fill="none" xmlns="http://www.w3.org/2000/svg">
<path fill-rule="evenodd" clip-rule="evenodd" d="M12.0032 2.75C8.5865 2.74769 5.24463 4.73032 4.35141 8.65591C3.29435 13.3261 6.18807 17.3762 8.91018 19.9997C10.6407 21.661 13.3607 21.659 15.0791 20.0004L15.0805 19.999C17.8125 17.3756 20.7056 13.3354 19.6485 8.6656L19.6485 8.66556C18.76 4.73971 15.4202 2.75231 12.0032 2.75ZM21.1115 8.33441C20.04 3.60029 15.9848 1.25269 12.0042 1.25C8.02361 1.24731 3.9656 3.58953 2.88867 8.32364L2.8885 8.32441C1.6458 13.8139 5.07178 18.3836 7.86953 21.08L7.87048 21.0809C10.1799 23.2989 13.8191 23.3008 16.1204 21.08C18.9283 18.3834 22.3542 13.8239 21.1115 8.33441ZM9.50966 8.46967C9.80255 8.17678 10.2774 8.17678 10.5703 8.46967L12.02 9.91934L13.4297 8.50967C13.7226 8.21678 14.1974 8.21678 14.4903 8.50967C14.7832 8.80257 14.7832 9.27744 14.4903 9.57033L13.0806 10.98L14.5303 12.4297C14.8232 12.7226 14.8232 13.1974 14.5303 13.4903C14.2374 13.7832 13.7626 13.7832 13.4697 13.4903L12.02 12.0407L10.5303 13.5303C10.2374 13.8232 9.76255 13.8232 9.46966 13.5303C9.17677 13.2374 9.17677 12.7626 9.46966 12.4697L10.9593 10.98L9.50966 9.53033C9.21677 9.23744 9.21677 8.76257 9.50966 8.46967Z" fill="#424B5A"/>
</svg>
