<svg width="24" height="24" viewBox="0 0 24 24" fill="none" xmlns="http://www.w3.org/2000/svg">
<path fill-rule="evenodd" clip-rule="evenodd" d="M4.35144 8.65591C5.24466 4.73032 8.58653 2.74769 12.0033 2.75C15.4202 2.75231 18.76 4.73971 19.6485 8.66556L19.6485 8.6656C20.7057 13.3354 17.8125 17.3756 15.0805 19.999L15.0792 20.0004C13.3607 21.659 10.6407 21.661 8.91021 19.9997C6.1881 17.3762 3.29438 13.3261 4.35144 8.65591ZM12.0043 1.25C15.9848 1.25269 20.04 3.60029 21.1115 8.33441C22.3542 13.8239 18.9284 18.3834 16.1205 21.08C13.8191 23.3008 10.1799 23.2989 7.87051 21.0809L7.86956 21.08C5.07181 18.3836 1.64583 13.8139 2.88853 8.32441L2.8887 8.32364C3.96563 3.58953 8.02364 1.24731 12.0043 1.25ZM15.2803 9.53033C15.5732 9.23744 15.5732 8.76257 15.2803 8.46967C14.9875 8.17678 14.5126 8.17678 14.2197 8.46967L10.75 11.9393L9.78035 10.9697C9.48746 10.6768 9.01258 10.6768 8.71969 10.9697C8.4268 11.2626 8.4268 11.7374 8.71969 12.0303L10.2197 13.5303C10.5126 13.8232 10.9875 13.8232 11.2803 13.5303L15.2803 9.53033Z" fill="#424B5A"/>
</svg>
