<svg width="24" height="24" viewBox="0 0 24 24" fill="none" xmlns="http://www.w3.org/2000/svg">
<path fill-rule="evenodd" clip-rule="evenodd" d="M4.35144 8.65591C5.24466 4.73032 8.58653 2.74769 12.0033 2.75C15.4202 2.75231 18.76 4.73971 19.6485 8.66556L19.6485 8.6656C20.7057 13.3354 17.8125 17.3756 15.0805 19.999L15.0792 20.0004C13.3607 21.659 10.6407 21.661 8.91021 19.9997C6.1881 17.3762 3.29438 13.3261 4.35144 8.65591ZM12.0043 1.25C15.9848 1.25269 20.04 3.60029 21.1115 8.33441C22.3542 13.8239 18.9284 18.3834 16.1205 21.08C13.8191 23.3008 10.1799 23.2989 7.87051 21.0809L7.86956 21.08C5.07181 18.3836 1.64583 13.8139 2.88853 8.32441L2.8887 8.32364C3.96563 3.58953 8.02364 1.24731 12.0043 1.25ZM12 7.5C12.4142 7.5 12.75 7.83579 12.75 8.25V10.25H14.75C15.1642 10.25 15.5 10.5858 15.5 11C15.5 11.4142 15.1642 11.75 14.75 11.75H12.75V13.75C12.75 14.1642 12.4142 14.5 12 14.5C11.5858 14.5 11.25 14.1642 11.25 13.75V11.75H9.25002C8.83581 11.75 8.50002 11.4142 8.50002 11C8.50002 10.5858 8.83581 10.25 9.25002 10.25H11.25V8.25C11.25 7.83579 11.5858 7.5 12 7.5Z" fill="#424B5A"/>
</svg>
