<svg width="24" height="24" viewBox="0 0 24 24" fill="none" xmlns="http://www.w3.org/2000/svg">
<path fill-rule="evenodd" clip-rule="evenodd" d="M4.35144 8.65591C5.24466 4.73032 8.58653 2.74769 12.0033 2.75C15.4202 2.75231 18.76 4.73971 19.6485 8.66556L19.6485 8.6656C20.7057 13.3354 17.8125 17.3756 15.0805 19.999L15.0792 20.0004C13.3607 21.659 10.6407 21.661 8.91021 19.9997C6.1881 17.3762 3.29438 13.3261 4.35144 8.65591ZM12.0043 1.25C15.9848 1.25269 20.04 3.60029 21.1115 8.33441C22.3542 13.8239 18.9284 18.3834 16.1205 21.08C13.8191 23.3008 10.1799 23.2989 7.87051 21.0809L7.86956 21.08C5.07181 18.3836 1.64583 13.8139 2.88853 8.32441L2.8887 8.32364C3.96563 3.58953 8.02364 1.24731 12.0043 1.25ZM9.63002 10.31C9.63002 9.00109 10.6911 7.94 12 7.94C13.3089 7.94 14.37 9.00109 14.37 10.31C14.37 11.6189 13.3089 12.68 12 12.68C10.6911 12.68 9.63002 11.6189 9.63002 10.31ZM12 6.44C9.86268 6.44 8.13002 8.17266 8.13002 10.31C8.13002 12.4473 9.86268 14.18 12 14.18C14.1374 14.18 15.87 12.4473 15.87 10.31C15.87 8.17266 14.1374 6.44 12 6.44Z" fill="#424B5A"/>
</svg>
