<svg width="24" height="24" viewBox="0 0 24 24" fill="none" xmlns="http://www.w3.org/2000/svg">
<path fill-rule="evenodd" clip-rule="evenodd" d="M4.35141 8.65591C5.24463 4.73032 8.5865 2.74769 12.0032 2.75C15.4202 2.75231 18.76 4.73971 19.6485 8.66556L19.6485 8.6656C20.7056 13.3354 17.8125 17.3756 15.0805 19.999L15.0791 20.0004C13.3607 21.659 10.6407 21.661 8.91018 19.9997C6.18807 17.3762 3.29435 13.3261 4.35141 8.65591ZM12.0042 1.25C15.9848 1.25269 20.04 3.60029 21.1115 8.33441C22.3542 13.8239 18.9283 18.3834 16.1204 21.08C13.8191 23.3008 10.1799 23.2989 7.87048 21.0809L7.86953 21.08C5.07178 18.3836 1.6458 13.8139 2.8885 8.32441L2.88867 8.32364C3.9656 3.58953 8.02361 1.24731 12.0042 1.25ZM9.24999 10.25C8.83577 10.25 8.49999 10.5858 8.49999 11C8.49999 11.4142 8.83577 11.75 9.24999 11.75H14.75C15.1642 11.75 15.5 11.4142 15.5 11C15.5 10.5858 15.1642 10.25 14.75 10.25H9.24999Z" fill="#424B5A"/>
</svg>
