<svg width="24" height="24" viewBox="0 0 24 24" fill="none" xmlns="http://www.w3.org/2000/svg">
<path fill-rule="evenodd" clip-rule="evenodd" d="M7.70907 4.22924C7.00031 5.10912 6.75 6.38987 6.75 8V9.25127C6.83253 9.25041 6.91587 9.25 7 9.25H17C17.0841 9.25 17.1675 9.25041 17.25 9.25127V8C17.25 6.38987 16.9997 5.10912 16.2909 4.22924C15.6104 3.38439 14.3716 2.75 12 2.75C9.62836 2.75 8.38962 3.38439 7.70907 4.22924ZM5.25 8V9.33546C4.08514 9.4711 3.14646 9.79288 2.46967 10.4697C1.48116 11.4582 1.25 13.0054 1.25 15V17C1.25 18.9946 1.48116 20.5418 2.46967 21.5303C3.45818 22.5188 5.00536 22.75 7 22.75H17C18.9946 22.75 20.5418 22.5188 21.5303 21.5303C22.5188 20.5418 22.75 18.9946 22.75 17V15C22.75 13.0054 22.5188 11.4582 21.5303 10.4697C20.8535 9.79288 19.9149 9.4711 18.75 9.33546V8C18.75 6.30013 18.5003 4.58088 17.4591 3.28826C16.3896 1.96061 14.6284 1.25 12 1.25C9.37164 1.25 7.61038 1.96061 6.54093 3.28826C5.49969 4.58088 5.25 6.30013 5.25 8ZM3.53033 11.5303C3.01884 12.0418 2.75 12.9946 2.75 15V17C2.75 19.0054 3.01884 19.9582 3.53033 20.4697C4.04182 20.9812 4.99464 21.25 7 21.25H17C19.0054 21.25 19.9582 20.9812 20.4697 20.4697C20.9812 19.9582 21.25 19.0054 21.25 17V15C21.25 12.9946 20.9812 12.0418 20.4697 11.5303C19.9582 11.0188 19.0054 10.75 17 10.75H7C4.99464 10.75 4.04182 11.0188 3.53033 11.5303ZM15.9965 15C15.4442 15 14.9965 15.4477 14.9965 16C14.9965 16.5523 15.4442 17 15.9965 17H16.0054C16.5577 17 17.0054 16.5523 17.0054 16C17.0054 15.4477 16.5577 15 16.0054 15H15.9965ZM10.9955 16C10.9955 15.4477 11.4432 15 11.9955 15H12.0045C12.5568 15 13.0045 15.4477 13.0045 16C13.0045 16.5523 12.5568 17 12.0045 17H11.9955C11.4432 17 10.9955 16.5523 10.9955 16ZM7.99451 15C7.44222 15 6.99451 15.4477 6.99451 16C6.99451 16.5523 7.44222 17 7.99451 17H8.00349C8.55577 17 9.00349 16.5523 9.00349 16C9.00349 15.4477 8.55577 15 8.00349 15H7.99451Z" fill="#424B5A"/>
</svg>
