<svg width="24" height="24" viewBox="0 0 24 24" fill="none" xmlns="http://www.w3.org/2000/svg">
<path fill-rule="evenodd" clip-rule="evenodd" d="M7.70907 4.22924C7.00031 5.10912 6.75 6.38987 6.75 8V9.25127C6.83253 9.25041 6.91587 9.25 7 9.25H13.6893L17.1776 5.76176C17.1704 5.73586 17.1645 5.70932 17.16 5.6822C17.003 4.73106 16.6443 4.05349 15.9505 3.58338C15.22 3.08836 14.0122 2.75 12 2.75C9.62836 2.75 8.38962 3.38439 7.70907 4.22924ZM18.4173 4.52199C18.1324 3.66636 17.6316 2.9106 16.792 2.34162C15.7 1.60164 14.1378 1.25 12 1.25C9.37164 1.25 7.61038 1.96061 6.54093 3.28826C5.49969 4.58088 5.25 6.30013 5.25 8V9.33546C4.08514 9.4711 3.14646 9.79288 2.46967 10.4697C1.48116 11.4582 1.25 13.0054 1.25 15V17C1.25 18.6342 1.40625 19.9703 2.00165 20.9377L1.46967 21.4697C1.17678 21.7626 1.17678 22.2374 1.46967 22.5303C1.76256 22.8232 2.23744 22.8232 2.53033 22.5303L14.3107 10.75H17C17.3461 10.75 17.6599 10.7596 17.9517 10.7784L17.9517 10.7785L17.9575 10.7788C19.4928 10.866 20.2054 11.1821 20.6 11.6821C21.0293 12.2261 21.25 13.1823 21.25 15V17C21.25 19.0054 20.9812 19.9582 20.4697 20.4697C19.9582 20.9812 19.0054 21.25 17 21.25H7C6.65389 21.25 6.34014 21.2404 6.04829 21.2216C5.63493 21.1949 5.27822 21.5084 5.25156 21.9217C5.22489 22.3351 5.53836 22.6918 5.95171 22.7184C6.27986 22.7396 6.62611 22.75 7 22.75H17C18.9946 22.75 20.5418 22.5188 21.5303 21.5303C22.5188 20.5418 22.75 18.9946 22.75 17V15C22.75 13.1777 22.5557 11.7389 21.7775 10.7529C20.9651 9.72351 19.6787 9.37443 18.0454 9.28137C17.7181 9.26032 17.3728 9.25 17 9.25H15.8107L22.5303 2.53033C22.8232 2.23744 22.8232 1.76256 22.5303 1.46967C22.2374 1.17678 21.7626 1.17678 21.4697 1.46967L18.4173 4.52199ZM12.1893 10.75H7C4.99464 10.75 4.04182 11.0188 3.53033 11.5303C3.01884 12.0418 2.75 12.9946 2.75 15V17C2.75 18.3601 2.87377 19.2417 3.1142 19.8251L12.1893 10.75ZM14.5866 14.0255C14.3355 13.696 13.8649 13.6324 13.5355 13.8834C13.206 14.1345 13.1424 14.6051 13.3934 14.9345C13.6162 15.2269 13.75 15.5979 13.75 16C13.75 16.9658 12.9658 17.75 12 17.75C11.4479 17.75 10.94 17.4802 10.6115 17.0589C10.3568 16.7322 9.88551 16.6738 9.55885 16.9285C9.23219 17.1832 9.17384 17.6545 9.42853 17.9811C10.02 18.7398 10.9521 19.25 12 19.25C13.7942 19.25 15.25 17.7942 15.25 16C15.25 15.2621 15.0038 14.5731 14.5866 14.0255Z" fill="#424B5A"/>
</svg>
