<svg width="24" height="24" viewBox="0 0 24 24" fill="none" xmlns="http://www.w3.org/2000/svg">
<path fill-rule="evenodd" clip-rule="evenodd" d="M12 3.25C11.5858 3.25 11.25 3.58579 11.25 4C11.25 4.41421 11.5858 4.75 12 4.75C14.0406 4.75 15.8486 5.44112 17.141 6.66877C18.4274 7.89078 19.25 9.68843 19.25 12C19.25 14.3116 18.4274 16.1092 17.141 17.3312C15.8486 18.5589 14.0406 19.25 12 19.25C11.5858 19.25 11.25 19.5858 11.25 20C11.25 20.4142 11.5858 20.75 12 20.75C14.3794 20.75 16.5714 19.9411 18.174 18.4188C19.7826 16.8908 20.75 14.6884 20.75 12C20.75 9.31157 19.7826 7.10922 18.174 5.58123C16.5714 4.05888 14.3794 3.25 12 3.25ZM11.1497 8.96967C11.4426 8.67678 11.9174 8.67678 12.2103 8.96967L14.7703 11.5297C15.0632 11.8226 15.0632 12.2974 14.7703 12.5903L12.2103 15.1503C11.9174 15.4432 11.4426 15.4432 11.1497 15.1503C10.8568 14.8574 10.8568 14.3826 11.1497 14.0897L12.4293 12.81H4C3.58579 12.81 3.25 12.4742 3.25 12.06C3.25 11.6458 3.58579 11.31 4 11.31H12.4293L11.1497 10.0303C10.8568 9.73744 10.8568 9.26256 11.1497 8.96967Z" fill="#424B5A"/>
</svg>
