<svg width="24" height="24" viewBox="0 0 24 24" fill="none" xmlns="http://www.w3.org/2000/svg">
<path fill-rule="evenodd" clip-rule="evenodd" d="M4.51001 12C4.51001 9.68843 5.33261 7.89078 6.61905 6.66877C7.91143 5.44112 9.7194 4.75 11.76 4.75C12.1742 4.75 12.51 4.41421 12.51 4C12.51 3.58579 12.1742 3.25 11.76 3.25C9.38062 3.25 7.18859 4.05888 5.58597 5.58123C3.97741 7.10922 3.01001 9.31157 3.01001 12C3.01001 14.6884 3.97741 16.8908 5.58597 18.4188C7.18859 19.9411 9.38062 20.75 11.76 20.75C12.1742 20.75 12.51 20.4142 12.51 20C12.51 19.5858 12.1742 19.25 11.76 19.25C9.7194 19.25 7.91143 18.5589 6.61905 17.3312C5.33261 16.1092 4.51001 14.3116 4.51001 12ZM16.9097 8.96967C17.2026 8.67678 17.6774 8.67678 17.9703 8.96967L20.5303 11.5297C20.8232 11.8226 20.8232 12.2974 20.5303 12.5903L17.9703 15.1503C17.6774 15.4432 17.2026 15.4432 16.9097 15.1503C16.6168 14.8574 16.6168 14.3826 16.9097 14.0897L18.1893 12.81H9.76001C9.3458 12.81 9.01001 12.4742 9.01001 12.06C9.01001 11.6458 9.3458 11.31 9.76001 11.31H18.1893L16.9097 10.0303C16.6168 9.73744 16.6168 9.26256 16.9097 8.96967Z" fill="#424B5A"/>
</svg>
