<svg width="24" height="24" viewBox="0 0 24 24" fill="none" xmlns="http://www.w3.org/2000/svg">
<path fill-rule="evenodd" clip-rule="evenodd" d="M11.0751 4.25763C10.2846 4.89898 9.79259 5.93654 9.64723 7.62458C9.6117 8.03727 9.24834 8.34301 8.83565 8.30747C8.42297 8.27193 8.11723 7.90858 8.15277 7.49589C8.31741 5.58393 8.90535 4.08649 10.1299 3.09284C11.3338 2.11599 13.0163 1.74023 15.11 1.74023H15.24C17.5492 1.74023 19.3609 2.19802 20.5766 3.41365C21.7922 4.62929 22.25 6.44106 22.25 8.75023V15.2702C22.25 17.5794 21.7922 19.3912 20.5766 20.6068C19.3609 21.8224 17.5492 22.2802 15.24 22.2802H15.11C13.0315 22.2802 11.3592 21.9095 10.1577 20.9484C8.93462 19.9699 8.33891 18.4943 8.16324 16.6098C8.12479 16.1974 8.42796 15.8319 8.84039 15.7935C9.25281 15.755 9.61832 16.0582 9.65676 16.4706C9.81109 18.1262 10.3054 19.1456 11.0948 19.7771C11.9058 20.4259 13.1685 20.7802 15.11 20.7802H15.24C17.4008 20.7802 18.7191 20.343 19.5159 19.5462C20.3128 18.7493 20.75 17.4311 20.75 15.2702V8.75023C20.75 6.58941 20.3128 5.27118 19.5159 4.47431C18.7191 3.67745 17.4008 3.24023 15.24 3.24023H15.11C13.1537 3.24023 11.8862 3.59948 11.0751 4.25763ZM4.31066 12.7502L6.38033 14.8199C6.67322 15.1128 6.67322 15.5877 6.38033 15.8806C6.08744 16.1735 5.61256 16.1735 5.31967 15.8806L1.96967 12.5306C1.67678 12.2377 1.67678 11.7628 1.96967 11.4699L5.31967 8.1199C5.61256 7.82701 6.08744 7.82701 6.38033 8.1199C6.67322 8.4128 6.67322 8.88767 6.38033 9.18056L4.31066 11.2502H15C15.4142 11.2502 15.75 11.586 15.75 12.0002C15.75 12.4144 15.4142 12.7502 15 12.7502H4.31066Z" fill="#424B5A"/>
</svg>
