<svg width="24" height="24" viewBox="0 0 24 24" fill="none" xmlns="http://www.w3.org/2000/svg">
<path fill-rule="evenodd" clip-rule="evenodd" d="M10.2178 3.96783C9.93991 4.24575 9.75 4.67044 9.75 5.25H14.25C14.25 4.67044 14.0601 4.24575 13.7822 3.96783C13.5043 3.68991 13.0796 3.5 12.5 3.5H11.5C10.9204 3.5 10.4957 3.68991 10.2178 3.96783ZM14.25 6.75V7.75C14.25 8.16421 14.5858 8.5 15 8.5C15.4142 8.5 15.75 8.16421 15.75 7.75V6.75H16.5033C16.5011 6.77554 16.5 6.80142 16.5 6.82759V21.1724C16.5 21.1986 16.5011 21.2245 16.5033 21.25H7.49675C7.4989 21.2245 7.5 21.1986 7.5 21.1724V6.82759C7.5 6.80142 7.4989 6.77554 7.49675 6.75H8.25V7.75C8.25 8.16421 8.58579 8.5 9 8.5C9.41421 8.5 9.75 8.16421 9.75 7.75V6.75H14.25ZM8.25 5.25H7.25C5.30103 5.25 3.74164 5.6352 2.68842 6.68842C1.6352 7.74164 1.25 9.30103 1.25 11.25V16.75C1.25 18.699 1.6352 20.2584 2.68842 21.3116C3.74164 22.3648 5.30103 22.75 7.25 22.75H16.75C18.699 22.75 20.2584 22.3648 21.3116 21.3116C22.3648 20.2584 22.75 18.699 22.75 16.75V11.25C22.75 9.30103 22.3648 7.74164 21.3116 6.68842C20.2584 5.6352 18.699 5.25 16.75 5.25H15.75C15.75 4.32956 15.4399 3.50425 14.8428 2.90717C14.2457 2.31009 13.4204 2 12.5 2H11.5C10.5796 2 9.75425 2.31009 9.15717 2.90717C8.56009 3.50425 8.25 4.32956 8.25 5.25ZM6.00002 6.82091C4.92888 6.9557 4.22007 7.27809 3.74908 7.74908C3.1148 8.38336 2.75 9.44897 2.75 11.25V16.75C2.75 18.551 3.1148 19.6166 3.74908 20.2509C4.22007 20.7219 4.92888 21.0443 6.00002 21.1791C6.00001 21.1769 6 21.1746 6 21.1724V6.82759C6 6.82536 6.00001 6.82313 6.00002 6.82091ZM18 21.1791C19.0711 21.0443 19.7799 20.7219 20.2509 20.2509C20.8852 19.6166 21.25 18.551 21.25 16.75V11.25C21.25 9.44897 20.8852 8.38336 20.2509 7.74908C19.7799 7.27809 19.0711 6.9557 18 6.82091C18 6.82313 18 6.82536 18 6.82759V21.1724C18 21.1746 18 21.1769 18 21.1791Z" fill="#424B5A"/>
</svg>
