<svg width="24" height="24" viewBox="0 0 24 24" fill="none" xmlns="http://www.w3.org/2000/svg">
<path fill-rule="evenodd" clip-rule="evenodd" d="M7.14074 1.52023C6.96529 1.46876 6.77574 1.51717 6.64645 1.64646C6.51716 1.77575 6.46875 1.9653 6.52022 2.14075L6.91894 3.50001L6.52022 4.85928C6.46875 5.03473 6.51716 5.22428 6.64645 5.35357C6.77574 5.48286 6.96529 5.53126 7.14074 5.4798L8.5 5.08108L9.85927 5.4798C10.0347 5.53126 10.2243 5.48286 10.3536 5.35357C10.4828 5.22428 10.5313 5.03473 10.4798 4.85928L10.0811 3.50001L10.4798 2.14075C10.5313 1.9653 10.4828 1.77575 10.3536 1.64646C10.2243 1.51717 10.0347 1.46876 9.85927 1.52023L8.5 1.91895L7.14074 1.52023ZM7.91979 3.35928L7.73736 2.73737L8.35927 2.9198C8.45115 2.94675 8.54885 2.94675 8.64074 2.9198L9.26264 2.73737L9.08022 3.35928C9.05326 3.45116 9.05326 3.54886 9.08022 3.64075L9.26264 4.26265L8.64074 4.08023C8.54885 4.05327 8.45115 4.05327 8.35927 4.08023L7.73736 4.26265L7.91979 3.64075C7.94674 3.54886 7.94674 3.45116 7.91979 3.35928ZM15.9697 3.96968C17.0926 2.84679 18.9074 2.84679 20.0303 3.96968C21.1532 5.09258 21.1532 6.90745 20.0303 8.03034L18.5403 9.52034L7.03033 21.0303C5.90744 22.1532 4.09257 22.1532 2.96967 21.0303C1.84678 19.9074 1.84678 18.0926 2.96967 16.9697L14.479 5.46039L14.4797 5.45968L14.4804 5.45898L15.9697 3.96968ZM18.9697 6.96968L18.01 7.92935L16.0707 5.99001L17.0303 5.03034C17.5674 4.49324 18.4326 4.49324 18.9697 5.03034C19.5068 5.56745 19.5068 6.43258 18.9697 6.96968ZM16.9493 8.99001L15.01 7.05067L4.03033 18.0303C3.49323 18.5674 3.49323 19.4326 4.03033 19.9697C4.56744 20.5068 5.43257 20.5068 5.96967 19.9697L16.9493 8.99001ZM2.64645 7.64646C2.77574 7.51717 2.96529 7.46876 3.14074 7.52023L4.5 7.91894L5.85927 7.52023C6.03472 7.46876 6.22427 7.51717 6.35356 7.64646C6.48285 7.77575 6.53125 7.9653 6.47979 8.14075L6.08107 9.50001L6.47979 10.8593C6.53125 11.0347 6.48285 11.2243 6.35356 11.3536C6.22427 11.4829 6.03472 11.5313 5.85927 11.4798L4.5 11.0811L3.14074 11.4798C2.96529 11.5313 2.77574 11.4829 2.64645 11.3536C2.51716 11.2243 2.46875 11.0347 2.52022 10.8593L2.91894 9.50001L2.52022 8.14075C2.46875 7.9653 2.51716 7.77575 2.64645 7.64646ZM3.73736 8.73737L3.91979 9.35928C3.94674 9.45116 3.94674 9.54886 3.91979 9.64075L3.73736 10.2627L4.35927 10.0802C4.45115 10.0533 4.54885 10.0533 4.64074 10.0802L5.26264 10.2627L5.08022 9.64075C5.05326 9.54886 5.05326 9.45116 5.08022 9.35928L5.26264 8.73737L4.64074 8.9198C4.54885 8.94675 4.45115 8.94675 4.35927 8.9198L3.73736 8.73737ZM18.1407 12.5202C17.9653 12.4688 17.7757 12.5172 17.6464 12.6465C17.5172 12.7757 17.4688 12.9653 17.5202 13.1407L17.9189 14.5L17.5202 15.8593C17.4688 16.0347 17.5172 16.2243 17.6464 16.3536C17.7757 16.4829 17.9653 16.5313 18.1407 16.4798L19.5 16.0811L20.8593 16.4798C21.0347 16.5313 21.2243 16.4829 21.3536 16.3536C21.4828 16.2243 21.5313 16.0347 21.4798 15.8593L21.0811 14.5L21.4798 13.1407C21.5313 12.9653 21.4828 12.7757 21.3536 12.6465C21.2243 12.5172 21.0347 12.4688 20.8593 12.5202L19.5 12.9189L18.1407 12.5202ZM18.9198 14.3593L18.7374 13.7374L19.3593 13.9198C19.4512 13.9468 19.5489 13.9468 19.6407 13.9198L20.2626 13.7374L20.0802 14.3593C20.0533 14.4512 20.0533 14.5489 20.0802 14.6407L20.2626 15.2627L19.6407 15.0802C19.5489 15.0533 19.4512 15.0533 19.3593 15.0802L18.7374 15.2627L18.9198 14.6407C18.9467 14.5489 18.9467 14.4512 18.9198 14.3593Z" fill="#424B5A"/>
</svg>
