<svg width="24" height="24" viewBox="0 0 24 24" fill="none" xmlns="http://www.w3.org/2000/svg">
<path fill-rule="evenodd" clip-rule="evenodd" d="M14.7794 3.19788C15.5099 2.66986 15.9377 2.72298 16.1035 2.81018C16.2704 2.89793 16.5577 3.22322 16.5401 4.12624L16.4701 7.91564C16.4623 8.32439 16.5838 8.74472 16.7537 9.09567C16.9226 9.44446 17.1772 9.80295 17.5103 10.0503L19.9869 11.9277L19.9882 11.9287C20.6782 12.4495 20.7589 12.8674 20.725 13.0607C20.6908 13.2559 20.4694 13.6241 19.6442 13.8849L16.4148 14.8947C15.9944 15.027 15.6134 15.301 15.3234 15.6038C15.0345 15.9054 14.7748 16.2995 14.6639 16.7322L14.6632 16.7351L13.8946 19.6697C13.6062 20.7663 13.197 20.9873 13.057 21.0084C12.9182 21.0294 12.4636 20.9401 11.8681 19.9759L10.1084 17.1264C9.85999 16.7231 9.4733 16.4126 9.08126 16.2085C8.68903 16.0044 8.21596 15.8679 7.75188 15.8911L4.41242 16.061C3.28374 16.1177 2.9498 15.7949 2.887 15.667C2.82434 15.5394 2.77316 15.0774 3.50947 14.2182L5.48851 11.9192C5.7767 11.5843 5.95536 11.1504 6.04148 10.7405C6.12744 10.3314 6.13896 9.85972 6.00539 9.43486L4.99613 6.20707C4.74015 5.38225 4.91663 4.99248 5.05725 4.85351C5.19691 4.71548 5.58668 4.54398 6.40626 4.81271L9.35577 5.78257L9.36147 5.7844C9.74856 5.90827 10.1828 5.91667 10.5684 5.85771C10.9512 5.79918 11.3672 5.66181 11.7015 5.41635L14.7794 3.19788ZM16.8015 1.48248C17.7044 1.95712 18.0621 3.00726 18.0399 4.15394L17.9699 7.94448C17.9677 8.05574 18.0062 8.24042 18.1038 8.44197C18.2017 8.64417 18.3206 8.78407 18.4054 8.84665L18.4131 8.8524L20.8918 10.7314L20.8928 10.7322C21.7923 11.4113 22.3761 12.3281 22.2025 13.3194C22.0292 14.3092 21.17 14.9761 20.0959 15.3153L20.0938 15.3159L16.8649 16.3256C16.7453 16.3633 16.5715 16.4693 16.4067 16.6414C16.2412 16.8141 16.1464 16.989 16.1169 17.1051L16.1156 17.1101L15.3454 20.0508C15.0238 21.2739 14.368 22.3278 13.2805 22.4917C12.1918 22.6558 11.2563 21.8399 10.5919 20.7641L8.83125 17.9131C8.75962 17.7967 8.6065 17.6524 8.38873 17.5391C8.17096 17.4258 7.96338 17.3824 7.82745 17.3892L4.48764 17.5591C3.22633 17.6225 2.02527 17.3152 1.54056 16.3282C1.05572 15.3408 1.54741 14.2024 2.37058 13.242L2.37163 13.2408L4.3515 10.9409C4.43331 10.8458 4.52465 10.6647 4.57353 10.4321C4.62251 10.199 4.6108 10.0002 4.57461 9.88529L3.56379 6.65248C3.23004 5.57769 3.2885 4.49262 4.00284 3.78663C4.71814 3.0797 5.80423 3.03657 6.87431 3.3876L9.82085 4.35647C9.93402 4.3921 10.1237 4.40827 10.3417 4.37494C10.5624 4.34119 10.7296 4.26939 10.8146 4.20664L10.8215 4.20164L13.9011 1.98192C14.8306 1.31018 15.8976 1.00724 16.8015 1.48248ZM19.4103 18.4397C19.1174 18.1468 18.6426 18.1468 18.3497 18.4397C18.0568 18.7326 18.0568 19.2075 18.3497 19.5004L21.3796 22.5304C21.6725 22.8233 22.1474 22.8233 22.4403 22.5304C22.7332 22.2375 22.7332 21.7626 22.4403 21.4697L19.4103 18.4397Z" fill="#424B5A"/>
</svg>
