<svg width="24" height="24" viewBox="0 0 24 24" fill="none" xmlns="http://www.w3.org/2000/svg">
<path fill-rule="evenodd" clip-rule="evenodd" d="M14.0307 3.58139C12.9121 2.47156 11.0862 2.47453 9.98036 3.58033L7.31067 6.25001L12 10.9393L16.6943 6.24499L14.0316 3.58221L14.0307 3.58139ZM17.755 7.30565L13.0607 12L17.75 16.6894L20.4197 14.0197C21.5254 12.914 21.5285 11.0882 20.4189 9.96952L20.4178 9.96845L17.755 7.30565ZM10.9393 12L6.25001 7.31067L3.59222 9.96845L3.59134 9.96934C2.48157 11.088 2.48456 12.9139 3.59034 14.0197L6.255 16.6843L10.9393 12ZM7.31566 17.745L12 13.0607L16.6894 17.75L14.0297 20.4097C12.924 21.5154 11.0982 21.5185 9.97953 20.4089L9.97846 20.4078L7.31566 17.745ZM5.79784 18.3485L8.91969 21.4703L8.92159 21.4722C10.623 23.1616 13.3964 23.1643 15.0903 21.4703L18.2803 18.2803L21.4804 15.0803C23.1743 13.3864 23.1716 10.613 21.4822 8.91157L15.0903 2.51967L15.0884 2.51779C13.387 0.828443 10.6136 0.825739 8.91969 2.51967L5.72308 5.71628L5.71967 5.71967L5.71628 5.72308L2.52968 8.90968L2.5278 8.91158C0.838452 10.613 0.835749 13.3864 2.52968 15.0803L5.65151 18.2022C5.67213 18.2294 5.69485 18.2555 5.71967 18.2803C5.74449 18.3052 5.77062 18.3279 5.79784 18.3485Z" fill="#424B5A"/>
</svg>
