<svg width="24" height="24" viewBox="0 0 24 24" fill="none" xmlns="http://www.w3.org/2000/svg">
<path fill-rule="evenodd" clip-rule="evenodd" d="M8.54839 2.58897C8.97742 2.578 9.44954 2.65 9.85036 2.84663L9.85495 2.84888L15.1105 5.47167C15.234 5.53458 15.446 5.58272 15.7007 5.57529C15.9547 5.56787 16.1668 5.50756 16.289 5.43819L18.6371 4.09928C19.598 3.54874 20.6444 3.41154 21.4966 3.90638C22.3489 4.40123 22.75 5.37809 22.75 6.48997V16.22C22.75 16.7061 22.5807 17.1909 22.3491 17.5879C22.1173 17.9852 21.7806 18.3677 21.3672 18.6082L21.3628 18.6108L17.0328 21.0908L17.0308 21.0919C16.6399 21.3142 16.1701 21.41 15.7417 21.421C15.3127 21.4319 14.8405 21.3599 14.4397 21.1633L14.4341 21.1606L9.17959 18.5283C9.0561 18.4654 8.84406 18.4172 8.58943 18.4247C8.33535 18.4321 8.12329 18.4924 8.0011 18.5617L5.653 19.9007C4.69202 20.4512 3.64568 20.5884 2.79344 20.0936C1.9412 19.5987 1.54004 18.6219 1.54004 17.51V7.77997C1.54004 7.30032 1.70592 6.81843 1.93674 6.42162C2.16777 6.02443 2.5059 5.64015 2.92729 5.39916L7.25931 2.918C7.65018 2.69574 8.12002 2.59991 8.54839 2.58897ZM3.67279 6.70078L7.81004 4.33118V17C7.81004 17.0112 7.81029 17.0224 7.81078 17.0335C7.61774 17.0868 7.43023 17.1608 7.25853 17.2584L4.90853 18.5984L4.90708 18.5993C4.22825 18.9884 3.77918 18.9314 3.54664 18.7964C3.31388 18.6612 3.04004 18.2981 3.04004 17.51V7.77997C3.04004 7.62962 3.09916 7.40651 3.23334 7.17582C3.36719 6.94571 3.53448 6.77982 3.67279 6.70078ZM9.85802 17.1904C9.68517 17.1027 9.49947 17.0393 9.31004 16.9964V4.25338L14.4327 6.80981C14.6053 6.89741 14.7908 6.96068 14.98 7.0035V19.7564L9.86048 17.1917L9.85802 17.1904ZM16.48 19.6788L20.6129 17.3117L20.6146 17.3107C20.7509 17.2308 20.9183 17.0637 21.0535 16.8321C21.1894 16.599 21.25 16.3738 21.25 16.22V6.48997C21.25 5.70185 20.9762 5.33871 20.7434 5.20356C20.5109 5.06854 20.0618 5.01158 19.383 5.40066L19.3815 5.40149L17.0315 6.74149C16.8601 6.839 16.6728 6.91295 16.48 6.9662V19.6788Z" fill="#424B5A"/>
</svg>
