<svg width="24" height="24" viewBox="0 0 24 24" fill="none" xmlns="http://www.w3.org/2000/svg">
<path fill-rule="evenodd" clip-rule="evenodd" d="M2.75 9C2.75 6.57397 3.2398 5.07086 4.15533 4.15533C5.07086 3.2398 6.57397 2.75 9 2.75H15C16.9167 2.75 18.2629 3.05795 19.1925 3.64148C20.001 4.14894 20.5653 4.90989 20.8965 6.04288L13.4697 13.4697L13.4697 13.4697L6.04287 20.8965C4.90987 20.5652 4.14893 20.001 3.64147 19.1925C3.05795 18.2629 2.75 16.9167 2.75 15V9ZM15.0607 14L20.3217 19.261C20.9289 18.3251 21.25 16.9643 21.25 15V9.00003C21.25 8.5927 21.2356 8.21131 21.2073 7.85337L15.0607 14ZM22.75 15C22.75 17.5729 22.2402 19.5664 20.9156 20.9051L20.908 20.9127C19.5694 22.2395 17.5748 22.75 15 22.75H9.00005C7.91903 22.75 6.96206 22.6567 6.10586 22.4618L6.10241 22.461C4.44654 22.0814 3.18924 21.2935 2.37102 19.99C1.57205 18.7171 1.25 17.0433 1.25 15V9C1.25 6.42603 1.7602 4.42914 3.09467 3.09467C4.42914 1.7602 6.42603 1.25 9 1.25H15C17.0433 1.25 18.7171 1.57205 19.99 2.37102C21.2935 3.18925 22.0815 4.44655 22.4611 6.10242L22.4621 6.10702C22.6568 6.96293 22.75 7.91951 22.75 9.00003V15ZM19.261 20.3217L14 15.0607L7.85337 21.2073C8.21131 21.2356 8.59271 21.25 9.00005 21.25H15C16.9643 21.25 18.3252 20.9289 19.261 20.3217ZM6.75 9C6.75 7.75736 7.75736 6.75 9 6.75C10.2426 6.75 11.25 7.75736 11.25 9C11.25 10.2426 10.2426 11.25 9 11.25C7.75736 11.25 6.75 10.2426 6.75 9ZM9 5.25C6.92893 5.25 5.25 6.92893 5.25 9C5.25 11.0711 6.92893 12.75 9 12.75C11.0711 12.75 12.75 11.0711 12.75 9C12.75 6.92893 11.0711 5.25 9 5.25Z" fill="#424B5A"/>
</svg>
