<svg width="24" height="24" viewBox="0 0 24 24" fill="none" xmlns="http://www.w3.org/2000/svg">
<path fill-rule="evenodd" clip-rule="evenodd" d="M11.25 2.77997C6.49211 3.16173 2.75 7.14386 2.75 12C2.75 16.8561 6.49211 20.8383 11.25 21.22V17.7015C8.42979 17.3337 6.25 14.92 6.25 12C6.25 9.07996 8.42979 6.66635 11.25 6.29853V2.77997ZM12 1.25C17.9371 1.25 22.75 6.06294 22.75 12C22.75 17.9371 17.9371 22.75 12 22.75C6.06294 22.75 1.25 17.9371 1.25 12C1.25 6.06294 6.06294 1.25 12 1.25ZM12.75 2.77997V6.29853C15.5702 6.66635 17.75 9.07996 17.75 12C17.75 14.92 15.5702 17.3337 12.75 17.7015V21.22C17.5079 20.8383 21.25 16.8561 21.25 12C21.25 7.14386 17.5079 3.16173 12.75 2.77997ZM12.75 16.1839C14.7386 15.8293 16.25 14.0899 16.25 12C16.25 9.9101 14.7386 8.17069 12.75 7.81608V16.1839ZM11.25 16.1839V7.81608C9.26143 8.17069 7.75 9.9101 7.75 12C7.75 14.0899 9.26143 15.8293 11.25 16.1839Z" fill="#424B5A"/>
</svg>
