<svg width="24" height="24" viewBox="0 0 24 24" fill="none" xmlns="http://www.w3.org/2000/svg">
<path fill-rule="evenodd" clip-rule="evenodd" d="M12 2.75C6.89421 2.75 2.75 6.89421 2.75 12C2.75 14.2832 3.57796 16.3734 4.95136 17.988L7.23015 15.7092L10.7556 12.1838L10.7592 12.1801L10.7638 12.1756L14.3001 8.63925L17.988 4.95136C16.3734 3.57796 14.2832 2.75 12 2.75ZM14.8296 10.2311L12.3511 12.7096L18.3627 18.7121C19.2211 17.898 19.9237 16.9212 20.4208 15.8312L14.8296 10.2311ZM20.9716 14.2598L15.8902 9.17041L19.0486 6.01202C20.422 7.6266 21.25 9.71676 21.25 12C21.25 12.7795 21.1534 13.5365 20.9716 14.2598ZM8.82019 16.2405L11.2904 13.7703L17.1873 19.6582C16.1466 20.3647 14.9547 20.8648 13.6704 21.0993L8.82019 16.2405ZM7.75953 17.3011L6.01202 19.0486C7.55478 20.361 9.53178 21.1753 11.6965 21.2451L7.75953 17.3011ZM1.25 12C1.25 14.9671 2.45491 17.6556 4.39966 19.6003C6.34441 21.5451 9.03289 22.75 12 22.75C17.9342 22.75 22.75 17.9342 22.75 12C22.75 9.03289 21.5451 6.34442 19.6003 4.39967C17.6556 2.45492 14.9671 1.25 12 1.25C6.06579 1.25 1.25 6.06579 1.25 12Z" fill="#424B5A"/>
</svg>
