<svg width="24" height="24" viewBox="0 0 24 24" fill="none" xmlns="http://www.w3.org/2000/svg">
<path fill-rule="evenodd" clip-rule="evenodd" d="M2.78003 11.9998C2.78003 6.914 6.91424 2.77979 12 2.77979C14.3685 2.77979 16.5199 3.66686 18.1455 5.14474L18.1455 5.14478L18.1523 5.1508C20.0368 6.82283 21.22 9.28075 21.22 11.9998C21.22 14.7188 20.0368 17.1767 18.1523 18.8488L18.1522 18.8487L18.1455 18.8548C16.5199 20.3327 14.3685 21.2198 12 21.2198C6.91424 21.2198 2.78003 17.0856 2.78003 11.9998ZM12 1.27979C6.08582 1.27979 1.28003 6.08557 1.28003 11.9998C1.28003 17.914 6.08582 22.7198 12 22.7198C14.7499 22.7198 17.2572 21.6881 19.1512 19.9678C21.3447 18.0199 22.72 15.1591 22.72 11.9998C22.72 8.84046 21.3447 5.9797 19.1512 4.0318C17.2573 2.3115 14.75 1.27979 12 1.27979ZM6.28003 11.9998C6.28003 9.60673 7.75381 7.55539 9.85003 6.70556C10.2856 6.53171 10.6327 6.56447 10.8319 6.67418C10.9907 6.76168 11.2115 6.98442 11.22 7.60464V16.385C11.2114 17.0119 10.9896 17.2327 10.8332 17.3184C10.6352 17.4269 10.2872 17.4587 9.84857 17.2834C7.75451 16.4438 6.28003 14.3937 6.28003 11.9998ZM12.72 7.59064C12.7076 6.57413 12.304 5.77268 11.5557 5.36039C10.8475 4.97022 10.0052 5.02793 9.29148 5.31342L9.28845 5.31465C6.64551 6.38521 4.78003 8.97344 4.78003 11.9998C4.78003 15.0256 6.64582 17.6156 9.29149 18.6761C10.0027 18.9606 10.8449 19.0226 11.5543 18.6337C12.3051 18.2221 12.7077 17.4187 12.72 16.3989L12.7201 7.59979L12.72 7.59064Z" fill="#424B5A"/>
</svg>
