<svg width="24" height="24" viewBox="0 0 24 24" fill="none" xmlns="http://www.w3.org/2000/svg">
<path fill-rule="evenodd" clip-rule="evenodd" d="M18.8394 2C18.8394 1.58579 18.5036 1.25 18.0894 1.25C17.6751 1.25 17.3394 1.58579 17.3394 2V4.88965H14.4207C14.0064 4.88965 13.6707 5.22543 13.6707 5.63965C13.6707 6.05386 14.0064 6.38965 14.4207 6.38965H17.3394V9.27C17.3394 9.68421 17.6751 10.02 18.0894 10.02C18.5036 10.02 18.8394 9.68421 18.8394 9.27V6.38965H21.7007C22.1149 6.38965 22.4507 6.05386 22.4507 5.63965C22.4507 5.22543 22.1149 4.88965 21.7007 4.88965H18.8394V2ZM1.54956 5.64014C1.54956 5.22592 1.88535 4.89014 2.29956 4.89014H9.57956C9.99377 4.89014 10.3296 5.22592 10.3296 5.64014C10.3296 6.05435 9.99377 6.39014 9.57956 6.39014H2.29956C1.88535 6.39014 1.54956 6.05435 1.54956 5.64014ZM14.4207 14.5801C14.0064 14.5801 13.6707 14.9159 13.6707 15.3301C13.6707 15.7443 14.0064 16.0801 14.4207 16.0801H21.7007C22.1149 16.0801 22.4507 15.7443 22.4507 15.3301C22.4507 14.9159 22.1149 14.5801 21.7007 14.5801H14.4207ZM13.6707 21.3896C13.6707 20.9754 14.0064 20.6396 14.4207 20.6396H21.7007C22.1149 20.6396 22.4507 20.9754 22.4507 21.3896C22.4507 21.8039 22.1149 22.1396 21.7007 22.1396H14.4207C14.0064 22.1396 13.6707 21.8039 13.6707 21.3896ZM10.1103 14.2C10.4029 14.4931 10.4026 14.968 10.1095 15.2607L7.00095 18.365L10.1095 21.4693C10.4026 21.762 10.4029 22.2369 10.1103 22.5299C9.81756 22.823 9.34269 22.8234 9.04959 22.5307L5.93956 19.4249L2.82953 22.5307C2.53643 22.8234 2.06156 22.823 1.76887 22.5299C1.47617 22.2369 1.4765 21.762 1.7696 21.4693L4.87817 18.365L1.7696 15.2607C1.4765 14.968 1.47617 14.4931 1.76887 14.2C2.06156 13.9069 2.53643 13.9066 2.82953 14.1993L5.93956 17.305L9.04959 14.1993C9.34269 13.9066 9.81756 13.9069 10.1103 14.2Z" fill="#424B5A"/>
</svg>
