<svg width="24" height="24" viewBox="0 0 24 24" fill="none" xmlns="http://www.w3.org/2000/svg">
<path fill-rule="evenodd" clip-rule="evenodd" d="M1.25 12C1.25 6.06579 6.06579 1.25 12 1.25C12.7404 1.25 13.4696 1.32508 14.1671 1.46458C14.5733 1.54581 14.8367 1.94093 14.7555 2.3471C14.6742 2.75327 14.2791 3.01668 13.8729 2.93545C13.2704 2.81494 12.6396 2.75 12 2.75C6.89421 2.75 2.75 6.89421 2.75 12C2.75 12.6393 2.81487 13.2593 2.935 13.8507C3.01746 14.2566 2.75523 14.6525 2.34931 14.735C1.94338 14.8174 1.54748 14.5552 1.46502 14.1493C1.32516 13.4607 1.25 12.7407 1.25 12ZM21.6931 2.71291C21.6565 2.62445 21.6022 2.54158 21.5303 2.46967C21.393 2.33238 21.2158 2.25944 21.036 2.25086C21.024 2.25029 21.012 2.25 21 2.25H17C16.5858 2.25 16.25 2.58579 16.25 3C16.25 3.41421 16.5858 3.75 17 3.75H19.1893L14.4697 8.46967C14.1768 8.76256 14.1768 9.23744 14.4697 9.53033C14.7626 9.82322 15.2374 9.82322 15.5303 9.53033L20.25 4.81066V7C20.25 7.41421 20.5858 7.75 21 7.75C21.4142 7.75 21.75 7.41421 21.75 7V3C21.75 2.89831 21.7298 2.80134 21.6931 2.71291ZM3 16.25C3.41421 16.25 3.75 16.5858 3.75 17V19.1893L8.46967 14.4697C8.76256 14.1768 9.23744 14.1768 9.53033 14.4697C9.82322 14.7626 9.82322 15.2374 9.53033 15.5303L4.81066 20.25H7C7.41421 20.25 7.75 20.5858 7.75 21C7.75 21.4142 7.41421 21.75 7 21.75H3C2.80806 21.75 2.61612 21.6768 2.46967 21.5303C2.39776 21.4584 2.34351 21.3755 2.30691 21.2871C2.27491 21.2099 2.25542 21.1262 2.25098 21.0386C2.25033 21.0258 2.25 21.0129 2.25 21V17C2.25 16.5858 2.58579 16.25 3 16.25ZM22.5354 9.85291C22.4542 9.44674 22.0591 9.18332 21.6529 9.26456C21.2468 9.34579 20.9833 9.74091 21.0646 10.1471C21.1853 10.7507 21.25 11.3715 21.25 12C21.25 17.1058 17.1058 21.25 12 21.25C11.3604 21.25 10.7296 21.1851 10.1271 21.0645C9.72092 20.9833 9.3258 21.2467 9.24457 21.6529C9.16333 22.0591 9.42675 22.4542 9.83292 22.5354C10.5304 22.6749 11.2597 22.75 12 22.75C17.9342 22.75 22.75 17.9342 22.75 12C22.75 11.2685 22.6747 10.5493 22.5354 9.85291Z" fill="#424B5A"/>
</svg>
