<svg width="24" height="24" viewBox="0 0 24 24" fill="none" xmlns="http://www.w3.org/2000/svg">
<path fill-rule="evenodd" clip-rule="evenodd" d="M3.09467 3.09467C4.42914 1.7602 6.42603 1.25 9 1.25H15C17.574 1.25 19.5709 1.7602 20.9053 3.09467C22.2398 4.42914 22.75 6.42603 22.75 9V15C22.75 17.574 22.2398 19.5709 20.9053 20.9053C19.5709 22.2398 17.574 22.75 15 22.75H9C6.42603 22.75 4.42914 22.2398 3.09467 20.9053C1.7602 19.5709 1.25 17.574 1.25 15V9C1.25 6.42603 1.7602 4.42914 3.09467 3.09467ZM4.15533 4.15533C3.2398 5.07086 2.75 6.57397 2.75 9V15C2.75 17.426 3.2398 18.9291 4.15533 19.8447C5.07086 20.7602 6.57397 21.25 9 21.25H15C17.426 21.25 18.9291 20.7602 19.8447 19.8447C20.7602 18.9291 21.25 17.426 21.25 15V9C21.25 6.57397 20.7602 5.07086 19.8447 4.15533C18.9291 3.2398 17.426 2.75 15 2.75H9C6.57397 2.75 5.07086 3.2398 4.15533 4.15533ZM10.9393 12L6.75 16.1893V14C6.75 13.5858 6.41421 13.25 6 13.25C5.58579 13.25 5.25 13.5858 5.25 14V17.9997V18C5.25 18.012 5.25029 18.024 5.25086 18.036C5.25944 18.2158 5.33238 18.393 5.46967 18.5303C5.54158 18.6022 5.62445 18.6565 5.71291 18.6931C5.80134 18.7298 5.89831 18.75 6 18.75H10C10.4142 18.75 10.75 18.4142 10.75 18C10.75 17.5858 10.4142 17.25 10 17.25H7.81066L12 13.0607L16.1893 17.25H14C13.5858 17.25 13.25 17.5858 13.25 18C13.25 18.4142 13.5858 18.75 14 18.75H18C18.1017 18.75 18.1987 18.7298 18.2871 18.6931C18.3755 18.6565 18.4584 18.6022 18.5303 18.5303C18.6768 18.3839 18.75 18.1919 18.75 18V14C18.75 13.5858 18.4142 13.25 18 13.25C17.5858 13.25 17.25 13.5858 17.25 14V16.1893L13.0607 12L17.25 7.81066V10C17.25 10.4142 17.5858 10.75 18 10.75C18.4142 10.75 18.75 10.4142 18.75 10V6C18.75 5.80806 18.6768 5.61612 18.5303 5.46967C18.4584 5.39776 18.3755 5.34351 18.2871 5.30691C18.1993 5.27051 18.1031 5.2503 18.0022 5.25L18 5.25H17.9997H14C13.5858 5.25 13.25 5.58579 13.25 6C13.25 6.41421 13.5858 6.75 14 6.75H16.1893L12 10.9393L7.81066 6.75H10C10.4142 6.75 10.75 6.41421 10.75 6C10.75 5.58579 10.4142 5.25 10 5.25H6.0003H6L5.99775 5.25C5.80656 5.25057 5.61554 5.3238 5.46967 5.46967C5.39776 5.54158 5.34351 5.62445 5.30691 5.71291C5.27051 5.80069 5.2503 5.89688 5.25 5.99775L5.25 6V6.0003V10C5.25 10.4142 5.58579 10.75 6 10.75C6.41421 10.75 6.75 10.4142 6.75 10V7.81066L10.9393 12Z" fill="#424B5A"/>
</svg>
