<svg width="24" height="24" viewBox="0 0 24 24" fill="none" xmlns="http://www.w3.org/2000/svg">
<path fill-rule="evenodd" clip-rule="evenodd" d="M12 2.75C8.54421 2.75 5.75 5.54421 5.75 9C5.75 10.2976 6.13372 11.4828 6.79286 12.4722C7.75976 13.9036 9.28645 14.9097 11.0582 15.1678L11.068 15.1694L11.0803 15.1714C11.3722 15.2229 11.6749 15.2494 11.9892 15.25L11.9996 15.2499L12.0108 15.25C12.3251 15.2494 12.6278 15.2229 12.9197 15.1714L12.9342 15.169L12.9418 15.1678C14.7135 14.9097 16.2402 13.9036 17.2071 12.4722C17.8663 11.4828 18.25 10.2976 18.25 9C18.25 5.54421 15.4558 2.75 12 2.75ZM4.25 9C4.25 10.3805 4.60351 11.6664 5.22633 12.7829L1.73964 16.2696C0.772483 17.2367 1.24887 18.8951 2.57746 19.2098L4.22745 19.5999L4.23728 19.602C4.30665 19.6175 4.38536 19.6829 4.41093 19.7859L4.41122 19.7872L4.76037 21.2536C5.09342 22.6546 6.87431 23.0698 7.79955 21.9779L12.0005 17.1428L16.2006 21.9682C17.1259 23.0597 18.9067 22.644 19.2397 21.2432L19.5896 19.7736L19.593 19.7584C19.6079 19.6897 19.6653 19.6165 19.7755 19.5891L19.7772 19.5886L21.4228 19.1997C22.7418 18.8873 23.2359 17.2315 22.2583 16.2675L18.7737 12.7829C19.3965 11.6664 19.75 10.3805 19.75 9C19.75 4.71579 16.2842 1.25 12 1.25C7.71579 1.25 4.25 4.71579 4.25 9ZM13.5175 16.601L17.344 20.997C17.4799 21.1586 17.7336 21.0932 17.7803 20.8966L18.1288 19.4327C18.2765 18.7662 18.7968 18.2834 19.4227 18.1311L19.4275 18.13L21.0771 17.7401C21.2768 17.6928 21.3231 17.4515 21.2045 17.3351L21.1996 17.3303L17.9056 14.0362C16.7935 15.3341 15.2641 16.2614 13.5175 16.601ZM10.4839 16.6013C8.73675 16.2619 7.20681 15.3345 6.09437 14.0362L2.8003 17.3302C2.66746 17.4631 2.73142 17.7048 2.92282 17.7501L4.56831 18.139C5.21592 18.2853 5.71442 18.7983 5.86872 19.4326L5.86959 19.4362L6.21958 20.9062C6.26626 21.1027 6.52014 21.1686 6.65605 21.0071L6.66375 20.9979L10.4839 16.6013ZM13.2509 5.64459C13.0389 5.22071 12.6301 4.75 12.0038 4.75C11.3719 4.75 10.9725 5.22575 10.7735 5.65597L10.2118 6.77945L9.19563 6.95036L9.18971 6.9514C8.72345 7.03368 8.1786 7.29086 7.99214 7.87218C7.80463 8.45676 8.10258 8.98318 8.43973 9.32033L9.2282 10.1088L8.99972 11.0893C8.89023 11.5566 8.86281 12.2674 9.42794 12.678C9.98766 13.0847 10.6543 12.8491 11.068 12.6078L12.0201 12.0461L12.9674 12.605C13.3831 12.8528 14.0527 13.0923 14.615 12.6797C15.1764 12.2677 15.1499 11.557 15.0402 11.0887L14.8119 10.1088L15.6004 9.32033C15.9402 8.98047 16.2341 8.45246 16.0484 7.86973C15.8623 7.28588 15.3165 7.02734 14.8424 6.95004L13.8174 6.77761L13.2509 5.64459Z" fill="#424B5A"/>
</svg>
