<svg width="24" height="24" viewBox="0 0 24 24" fill="none" xmlns="http://www.w3.org/2000/svg">
<path fill-rule="evenodd" clip-rule="evenodd" d="M18.053 2.20872C18.1407 1.8039 17.8836 1.40464 17.4788 1.31696C17.074 1.22928 16.6747 1.48637 16.587 1.8912L16.3014 3.20987H11.2146L11.4492 2.23552C11.5462 1.83281 11.2983 1.42775 10.8956 1.3308C10.4929 1.23385 10.0878 1.48172 9.99087 1.88443L9.67177 3.20987H7.45003C6.13633 3.20987 4.97946 4.07879 4.59364 5.3279L4.59335 5.32886L0.383728 18.8476C-0.213923 20.7733 1.21745 22.7499 3.24001 22.7499H16H16.38H20.78C22.5085 22.7499 23.8582 21.2877 23.7382 19.5677L22.7481 5.94554C22.7441 5.89112 22.7344 5.83847 22.7197 5.78816C22.6839 5.53312 22.6142 5.28379 22.5098 5.04535C22.067 3.98132 21.0135 3.20987 19.75 3.20987H17.8362L18.053 2.20872ZM15.9765 4.70987L15.647 6.23116C15.5594 6.63599 15.8164 7.03525 16.2213 7.12293C16.6261 7.21061 17.0254 6.95352 17.113 6.54869L17.5113 4.70987H19.75C20.3831 4.70987 20.9074 5.09431 21.1267 5.62588L21.1303 5.63448L21.134 5.643C21.2523 5.91066 21.2852 6.23057 21.2014 6.58207L21.2007 6.58489L17.8322 20.1087L17.8303 20.1166C17.6721 20.7826 17.0787 21.2499 16.38 21.2499H16H3.24001C2.24266 21.2499 1.5142 20.2663 1.81632 19.2922L6.0261 5.77294L6.02669 5.77106C6.22116 5.14069 6.80407 4.70987 7.45003 4.70987H9.31065L8.95086 6.20437C8.85391 6.60708 9.10177 7.01214 9.50448 7.10909C9.90719 7.20604 10.3122 6.95817 10.4092 6.55546L10.8535 4.70987H15.9765ZM18.9799 21.2499H20.78C21.6313 21.2499 22.3014 20.5326 22.2419 19.673L21.6195 11.1099L19.2887 20.4674C19.2217 20.7479 19.1166 21.0102 18.9799 21.2499ZM6.95005 11.9999C6.95005 11.5857 7.28583 11.2499 7.70005 11.2499H15.7C16.1143 11.2499 16.45 11.5857 16.45 11.9999C16.45 12.4141 16.1143 12.7499 15.7 12.7499H7.70005C7.28583 12.7499 6.95005 12.4141 6.95005 11.9999ZM6.70005 15.2499C6.28583 15.2499 5.95005 15.5857 5.95005 15.9999C5.95005 16.4141 6.28583 16.7499 6.70005 16.7499H14.7C15.1143 16.7499 15.45 16.4141 15.45 15.9999C15.45 15.5857 15.1143 15.2499 14.7 15.2499H6.70005Z" fill="#424B5A"/>
</svg>
