<svg width="24" height="24" viewBox="0 0 24 24" fill="none" xmlns="http://www.w3.org/2000/svg">
<path fill-rule="evenodd" clip-rule="evenodd" d="M8 1.25C5.88439 1.25 4.15993 1.77941 2.96967 2.96967C1.77941 4.15993 1.25 5.88439 1.25 8V21C1.25 21.9642 2.03579 22.75 3 22.75H16C18.1156 22.75 19.8401 22.2206 21.0303 21.0303C22.2206 19.8401 22.75 18.1156 22.75 16V8C22.75 5.88439 22.2206 4.15993 21.0303 2.96967C19.8401 1.77941 18.1156 1.25 16 1.25H8ZM2.75 8C2.75 6.11561 3.22059 4.84007 4.03033 4.03033C4.84007 3.22059 6.11561 2.75 8 2.75H16C17.8844 2.75 19.1599 3.22059 19.9697 4.03033C20.7794 4.84007 21.25 6.11561 21.25 8V16C21.25 17.8844 20.7794 19.1599 19.9697 19.9697C19.1599 20.7794 17.8844 21.25 16 21.25H3C2.86421 21.25 2.75 21.1358 2.75 21V8ZM6.25 9.5C6.25 9.08579 6.58579 8.75 7 8.75H17C17.4142 8.75 17.75 9.08579 17.75 9.5C17.75 9.91421 17.4142 10.25 17 10.25H7C6.58579 10.25 6.25 9.91421 6.25 9.5ZM6.25 14.5C6.25 14.0858 6.58579 13.75 7 13.75H14C14.4142 13.75 14.75 14.0858 14.75 14.5C14.75 14.9142 14.4142 15.25 14 15.25H7C6.58579 15.25 6.25 14.9142 6.25 14.5Z" fill="#424B5A"/>
</svg>
