<svg width="24" height="24" viewBox="0 0 24 24" fill="none" xmlns="http://www.w3.org/2000/svg">
<path fill-rule="evenodd" clip-rule="evenodd" d="M5.75 6.25C5.75 5.14544 6.11491 4.28325 6.69908 3.69908C7.28325 3.11491 8.14544 2.75 9.25 2.75H17.75C18.8546 2.75 19.7168 3.11491 20.3009 3.69908C20.8851 4.28325 21.25 5.14544 21.25 6.25V11.35C21.25 12.4532 20.8879 13.3191 20.3032 13.8961L20.2961 13.9032C19.7192 14.488 18.8532 14.85 17.75 14.85C17.3358 14.85 17 15.1858 17 15.6V17.41C17 17.4367 16.9935 17.4526 16.9863 17.464C16.9778 17.4777 16.9636 17.4918 16.9444 17.5021C16.9252 17.5125 16.9073 17.5157 16.8943 17.5153C16.8843 17.515 16.8708 17.5127 16.8512 17.4993L16.2968 17.1336C16.3268 16.9146 16.34 16.6924 16.34 16.47V12.4C16.34 11.2096 15.9399 10.1593 15.1853 9.40469C14.4308 8.65009 13.3804 8.25 12.19 8.25H5.75V6.25ZM4.25 8.38712V6.25C4.25 4.80456 4.73509 3.54175 5.63842 2.63842C6.54175 1.73509 7.80456 1.25 9.25 1.25H17.75C19.1954 1.25 20.4582 1.73509 21.3616 2.63842C22.2649 3.54175 22.75 4.80456 22.75 6.25V11.35C22.75 12.7849 22.2733 14.0575 21.3603 14.9603C20.6183 15.7107 19.6264 16.1664 18.5 16.3048V17.41C18.5 18.6758 17.0826 19.4643 16.0134 18.7437L15.8186 18.6152C15.1316 19.8789 13.8072 20.62 12.19 20.62H9.69677L6.86974 22.5016C5.90373 23.1608 4.64999 22.4385 4.64999 21.32V20.5645C3.77047 20.431 2.99774 20.0584 2.40967 19.4703C1.65066 18.7113 1.25 17.6613 1.25 16.47V12.4C1.25 11.292 1.59637 10.3042 2.2576 9.56226C2.77603 8.98058 3.46032 8.58137 4.25 8.38712ZM5.06388 9.76732C4.32426 9.83768 3.75914 10.132 3.3774 10.5603C2.99363 10.9909 2.75 11.608 2.75 12.4V16.47C2.75 17.3186 3.02934 17.9687 3.47033 18.4097C3.90017 18.8395 4.5495 19.12 5.39999 19.12C5.81421 19.12 6.14999 19.4558 6.14999 19.87V21.1787L9.05445 19.2456C9.17755 19.1637 9.32213 19.12 9.47 19.12H12.19C13.5609 19.12 14.4548 18.4012 14.7327 17.2969C14.7349 17.2882 14.7372 17.2795 14.7397 17.2709C14.8058 17.0435 14.84 16.7763 14.84 16.47V12.4C14.84 11.5505 14.5601 10.9008 14.1247 10.4653C13.6893 10.0299 13.0396 9.75 12.19 9.75H5.39999C5.30646 9.75 5.21652 9.75578 5.10615 9.7641C5.09239 9.76514 5.07832 9.76621 5.06388 9.76732Z" fill="#424B5A"/>
</svg>
