<svg width="24" height="24" viewBox="0 0 24 24" fill="none" xmlns="http://www.w3.org/2000/svg">
<path fill-rule="evenodd" clip-rule="evenodd" d="M2.75 12C2.75 6.89137 6.89137 2.75 12 2.75C17.1086 2.75 21.25 6.89137 21.25 12C21.25 17.1086 17.1086 21.25 12 21.25C6.89137 21.25 2.75 17.1086 2.75 12ZM12 1.25C6.06294 1.25 1.25 6.06294 1.25 12C1.25 17.9371 6.06294 22.75 12 22.75C17.9371 22.75 22.75 17.9371 22.75 12C22.75 6.06294 17.9371 1.25 12 1.25ZM9.49302 7.79423C9.62145 7.77817 9.75038 7.77002 9.89001 7.77002H14.0863C15.0258 7.77949 15.5933 8.01647 15.9309 8.3541C16.2677 8.69085 16.5 9.25214 16.5 10.18V12.81C16.5 12.9497 16.4918 13.0786 16.4758 13.207C16.4746 13.2169 16.4735 13.2268 16.4727 13.2367C16.4093 13.9842 16.1683 14.4377 15.8392 14.7163C15.4998 15.0037 14.9547 15.2 14.1 15.2H13.84C13.4404 15.2 13.0633 15.3936 12.8255 15.7027L12.0307 16.7591L12.0285 16.7621C12.0177 16.7765 12.0081 16.7874 12 16.7956C11.9919 16.7874 11.9823 16.7765 11.9715 16.7621L11.1793 15.7091C11.1732 15.701 11.1669 15.693 11.1605 15.6851C11.033 15.5294 10.8711 15.4176 10.7285 15.3452C10.5896 15.2746 10.388 15.2 10.16 15.2H9.89999C8.86221 15.2 8.3307 15.0584 8.031 14.7965C7.75639 14.5566 7.5 14.0509 7.5 12.8V10.17C7.5 9.31725 7.69799 8.77182 7.98676 8.43165C8.26728 8.10121 8.72192 7.86053 9.46368 7.79731C9.47348 7.79647 9.48326 7.79545 9.49302 7.79423ZM9.89001 6.27002C9.69479 6.27002 9.50835 6.28126 9.32171 6.30399C8.30975 6.39295 7.44482 6.75225 6.84323 7.46091C6.24701 8.16325 6 9.10284 6 10.17V12.8C6 14.1792 6.26861 15.2485 7.04399 15.926C7.79429 16.5817 8.83778 16.7 9.89999 16.7H10.0477L10.7685 17.658L10.7697 17.6596C11.0613 18.0503 11.4974 18.3125 12 18.3125C12.5026 18.3125 12.9387 18.0503 13.2303 17.6596L13.2315 17.658L13.9523 16.7H14.1C15.1653 16.7 16.1052 16.4564 16.8083 15.8612C17.5183 15.2602 17.8772 14.3943 17.9661 13.3781C17.9888 13.1915 18 13.0052 18 12.81V10.18C18 9.01791 17.7073 8.0092 16.9916 7.29344C16.2771 6.57898 15.2656 6.2811 14.0971 6.27002H9.89001Z" fill="#424B5A"/>
</svg>
