<svg width="24" height="24" viewBox="0 0 24 24" fill="none" xmlns="http://www.w3.org/2000/svg">
<path fill-rule="evenodd" clip-rule="evenodd" d="M7 1.67993C5.32956 1.67993 3.87925 2.24002 2.84467 3.2746C1.81009 4.30919 1.25 5.7595 1.25 7.42993V13.4299C1.25 15.1004 1.81009 16.5507 2.84467 17.5853C3.87925 18.6198 5.32956 19.1799 7 19.1799H10.7733L15.034 22.014L12.9685 18.8385L12.969 18.8389L15.0346 22.0144C16.1897 22.7838 17.75 21.9626 17.75 20.5599V19.141C19.1042 18.9976 20.2789 18.4617 21.1553 17.5853C22.1899 16.5507 22.75 15.1004 22.75 13.4299V7.42993C22.75 5.7595 22.1899 4.30919 21.1553 3.2746C20.1207 2.24002 18.6704 1.67993 17 1.67993H7ZM3.68876 4.57223L2.84467 3.2746L3.68874 4.57225C3.10217 5.27478 2.75 6.24033 2.75 7.42993V13.4299C2.75 14.7595 3.18991 15.8092 3.90533 16.5246C4.62075 17.24 5.67044 17.6799 7 17.6799H11C11.1478 17.6799 11.2923 17.7236 11.4154 17.8055L12.9685 18.8385L3.68874 4.57225C3.68875 4.57224 3.68875 4.57224 3.68876 4.57223ZM3.68876 4.57223L12.969 18.8389L15.8654 20.7655L15.866 20.7659C16.0309 20.8758 16.25 20.757 16.25 20.5599V18.4299C16.25 18.0157 16.5858 17.6799 17 17.6799C18.3296 17.6799 19.3793 17.24 20.0947 16.5246C20.8101 15.8092 21.25 14.7595 21.25 13.4299V7.42993C21.25 6.10037 20.8101 5.05068 20.0947 4.33526C19.3793 3.61985 18.3296 3.17993 17 3.17993H7C5.67044 3.17993 4.62075 3.61985 3.90533 4.33526C3.83002 4.41057 3.75777 4.48958 3.68876 4.57223ZM8.5 9.75C8.08579 9.75 7.75 10.0858 7.75 10.5C7.75 10.9142 8.08579 11.25 8.5 11.25H15.5C15.9142 11.25 16.25 10.9142 16.25 10.5C16.25 10.0858 15.9142 9.75 15.5 9.75H8.5Z" fill="#424B5A"/>
</svg>
