<svg width="24" height="24" viewBox="0 0 24 24" fill="none" xmlns="http://www.w3.org/2000/svg">
<path fill-rule="evenodd" clip-rule="evenodd" d="M2.75 7.96997C2.75 6.08558 3.22059 4.81004 4.03033 4.0003C4.84007 3.19056 6.11561 2.71997 8 2.71997H16C17.8844 2.71997 19.1599 3.19056 19.9697 4.0003C20.7794 4.81004 21.25 6.08558 21.25 7.96997V12.97C21.25 13.3842 21.5858 13.72 22 13.72C22.4142 13.72 22.75 13.3842 22.75 12.97V7.96997C22.75 5.85436 22.2206 4.1299 21.0303 2.93964C19.8401 1.74938 18.1156 1.21997 16 1.21997H8C5.88439 1.21997 4.15993 1.74938 2.96967 2.93964C1.77941 4.1299 1.25 5.85436 1.25 7.96997V12.97C1.25 15.5346 1.75633 17.3158 3.00612 18.4094C4.23114 19.4813 5.98674 19.72 8 19.72H8.49456C8.49735 19.7204 8.50495 19.7216 8.5174 19.725C8.54047 19.7313 8.57006 19.7423 8.60208 19.7583C8.63403 19.7743 8.66173 19.792 8.68265 19.8081C8.69746 19.8196 8.70495 19.8272 8.70704 19.8294L10.2 21.82C10.6508 22.4211 11.2963 22.78 12 22.78C12.7037 22.78 13.3492 22.4211 13.8 21.82C14.0485 21.4886 13.9814 21.0185 13.65 20.77C13.3186 20.5214 12.8485 20.5886 12.6 20.92C12.3909 21.1989 12.1663 21.28 12 21.28C11.8337 21.28 11.6091 21.1989 11.4 20.92L9.89999 18.92L9.90005 18.9199L9.89345 18.9114C9.7217 18.6891 9.48906 18.5247 9.27291 18.4167C9.05809 18.3092 8.78454 18.22 8.5 18.22H8C6.01326 18.22 4.76886 17.9587 3.99388 17.2805C3.24367 16.6241 2.75 15.4053 2.75 12.97V7.96997ZM15.75 18.2C15.75 16.8469 16.8469 15.75 18.2 15.75C19.5531 15.75 20.65 16.8469 20.65 18.2C20.65 19.5531 19.5531 20.65 18.2 20.65C16.8469 20.65 15.75 19.5531 15.75 18.2ZM18.2 14.25C16.0185 14.25 14.25 16.0185 14.25 18.2C14.25 20.3815 16.0185 22.15 18.2 22.15C19.0213 22.15 19.784 21.8994 20.4158 21.4704C20.4325 21.4911 20.4505 21.5111 20.4697 21.5303L21.4697 22.5303C21.7626 22.8232 22.2374 22.8232 22.5303 22.5303C22.8232 22.2374 22.8232 21.7626 22.5303 21.4697L21.5303 20.4697C21.5111 20.4505 21.4911 20.4325 21.4704 20.4158C21.8994 19.7839 22.15 19.0212 22.15 18.2C22.15 16.0185 20.3815 14.25 18.2 14.25ZM15.9965 10C15.4442 10 14.9965 10.4477 14.9965 11C14.9965 11.5523 15.4442 12 15.9965 12H16.0054C16.5577 12 17.0054 11.5523 17.0054 11C17.0054 10.4477 16.5577 10 16.0054 10H15.9965ZM10.9955 11C10.9955 10.4477 11.4432 10 11.9955 10H12.0045C12.5568 10 13.0045 10.4477 13.0045 11C13.0045 11.5523 12.5568 12 12.0045 12H11.9955C11.4432 12 10.9955 11.5523 10.9955 11ZM7.99451 10C7.44222 10 6.99451 10.4477 6.99451 11C6.99451 11.5523 7.44222 12 7.99451 12H8.00349C8.55577 12 9.00349 11.5523 9.00349 11C9.00349 10.4477 8.55577 10 8.00349 10H7.99451Z" fill="#424B5A"/>
</svg>
