<svg width="24" height="24" viewBox="0 0 24 24" fill="none" xmlns="http://www.w3.org/2000/svg">
<path fill-rule="evenodd" clip-rule="evenodd" d="M9 1.25C6.42603 1.25 4.42914 1.7602 3.09467 3.09467C1.7602 4.42914 1.25 6.42603 1.25 9V15C1.25 17.574 1.7602 19.5709 3.09467 20.9053C4.42914 22.2398 6.42603 22.75 9 22.75H15C17.574 22.75 19.5709 22.2398 20.9053 20.9053C22.2398 19.5709 22.75 17.574 22.75 15V9C22.75 6.42603 22.2398 4.42914 20.9053 3.09467C19.5709 1.7602 17.574 1.25 15 1.25H9ZM2.75 9C2.75 6.57397 3.2398 5.07086 4.15533 4.15533C5.07086 3.2398 6.57397 2.75 9 2.75H15C17.426 2.75 18.9291 3.2398 19.8447 4.15533C20.7602 5.07086 21.25 6.57397 21.25 9V15C21.25 17.426 20.7602 18.9291 19.8447 19.8447C18.9291 20.7602 17.426 21.25 15 21.25H9C6.57397 21.25 5.07086 20.7602 4.15533 19.8447C3.2398 18.9291 2.75 17.426 2.75 15V9ZM14.553 6.76006C15.6681 6.75555 16.3758 7.03727 16.8099 7.47309C17.245 7.90999 17.53 8.62694 17.53 9.76007V12.9001C17.53 13.0757 17.5212 13.2494 17.5041 13.4115L17.5027 13.4266C17.4242 14.3505 17.1248 14.937 16.6938 15.304C16.2532 15.6791 15.5638 15.9201 14.52 15.9201H14.21C13.7988 15.9201 13.3692 16.103 13.102 16.4808L12.17 17.7301L12.1695 17.7308C12.1221 17.7937 12.0812 17.8233 12.057 17.8365C12.0337 17.8492 12.0203 17.8501 12.015 17.8501C12.0097 17.8501 11.9963 17.8492 11.973 17.8365C11.9488 17.8233 11.9079 17.7937 11.8605 17.7308L11.86 17.7301L10.9211 16.4716L10.9212 16.4715L10.9145 16.4628C10.776 16.2828 10.5919 16.1567 10.4353 16.0773C10.2794 15.9983 10.0611 15.9201 9.82001 15.9201H9.51001C8.26685 15.9201 7.58319 15.7533 7.18239 15.4029C6.80664 15.0744 6.5 14.4165 6.5 12.9101V9.77005C6.5 8.72627 6.74093 8.03685 7.11605 7.59626C7.48304 7.16523 8.0695 6.86583 8.99344 6.78738L9.00851 6.78595C9.17061 6.76888 9.34433 6.76007 9.51999 6.76007H14.55L14.553 6.76006ZM19.03 9.76007C19.03 8.39319 18.685 7.23015 17.8726 6.41455C17.0595 5.59818 15.9028 5.25485 14.5485 5.26007H9.51999C9.29824 5.26007 9.0746 5.27099 8.85904 5.2934C7.66629 5.39605 6.6655 5.8116 5.97394 6.62385C5.28907 7.42825 5 8.51383 5 9.77005V12.9101C5 14.5436 5.31837 15.7657 6.19512 16.5322C7.04683 17.2768 8.24317 17.4201 9.51001 17.4201H9.75731L10.6589 18.6285L10.66 18.6301C10.9871 19.0662 11.4683 19.3501 12.015 19.3501C12.5617 19.3501 13.0429 19.0662 13.37 18.6301L13.3711 18.6285L14.2727 17.4201H14.52C15.7762 17.4201 16.8618 17.131 17.6662 16.4461C18.4785 15.7545 18.894 14.7537 18.9967 13.561C19.0191 13.3454 19.03 13.1218 19.03 12.9001V9.76007Z" fill="#424B5A"/>
</svg>
