<svg width="24" height="24" viewBox="0 0 24 24" fill="none" xmlns="http://www.w3.org/2000/svg">
<path fill-rule="evenodd" clip-rule="evenodd" d="M4.03033 4.03033C3.22059 4.84007 2.75 6.11561 2.75 8V13C2.75 15.4353 3.24367 16.6541 3.99388 17.3106C4.76886 17.9887 6.01326 18.25 8 18.25H8.5C8.78282 18.25 9.05796 18.3383 9.27436 18.4455C9.48803 18.5515 9.7297 18.7182 9.90264 18.9535L11.4 20.95C11.6092 21.2289 11.8337 21.31 12 21.31C12.1663 21.31 12.3908 21.2289 12.6 20.95L14.1 18.95L14.1029 18.9462C14.4325 18.5124 14.9521 18.25 15.5 18.25H16C17.8844 18.25 19.1599 17.7794 19.9697 16.9697C20.7794 16.1599 21.25 14.8844 21.25 13V8C21.25 7.58579 21.5858 7.25 22 7.25C22.4142 7.25 22.75 7.58579 22.75 8V13C22.75 15.1156 22.2206 16.8401 21.0303 18.0303C19.8401 19.2206 18.1156 19.75 16 19.75H15.5C15.4284 19.75 15.3486 19.7871 15.2982 19.8524L15.2971 19.8538L13.8 21.85C13.3492 22.4511 12.7037 22.81 12 22.81C11.2963 22.81 10.6508 22.4511 10.2 21.85L8.69876 19.8484C8.69654 19.8462 8.69203 19.8422 8.6847 19.8365C8.66662 19.8224 8.64037 19.8054 8.60814 19.7895C8.57598 19.7735 8.54532 19.7622 8.52072 19.7556C8.50625 19.7517 8.49766 19.7504 8.49494 19.75H8C5.98674 19.75 4.23114 19.5113 3.00612 18.4394C1.75633 17.3459 1.25 15.5647 1.25 13V8C1.25 5.88439 1.77941 4.15993 2.96967 2.96967C4.15993 1.77941 5.88439 1.25 8 1.25H12C12.4142 1.25 12.75 1.58579 12.75 2C12.75 2.41421 12.4142 2.75 12 2.75H8C6.11561 2.75 4.84007 3.22059 4.03033 4.03033ZM19.4415 2.7874C19.0928 2.6818 18.7579 2.79243 18.6171 2.99627C18.4802 3.19439 18.2565 3.31473 18.0158 3.31978C17.775 3.32482 17.5465 3.21396 17.4014 3.02175C17.2269 2.79058 16.8799 2.69141 16.5616 2.7865C15.9963 2.96706 15.6742 3.66967 15.9113 4.38214C16.109 4.97057 16.5517 5.44729 17.0397 5.78682C17.28 5.95403 17.5159 6.07694 17.7093 6.15575C17.8731 6.22253 17.9679 6.24216 17.995 6.24778L17.9999 6.2488L18.0053 6.24764C18.033 6.2418 18.1286 6.22173 18.2933 6.15449C18.4886 6.07476 18.7267 5.95074 18.9683 5.78282C19.4602 5.44094 19.8991 4.96586 20.0867 4.38823L20.0885 4.38277L20.0885 4.38277C20.3284 3.6631 19.9982 2.95795 19.4415 2.7874ZM17.9876 1.56948C18.5851 1.2039 19.3192 1.18266 19.8779 1.35228L19.8792 1.35268C21.481 1.84212 21.9309 3.59453 21.5125 4.85439C21.1897 5.84534 20.4793 6.55936 19.8243 7.01456C19.4922 7.24539 19.1571 7.42201 18.8602 7.54321C18.5876 7.65452 18.273 7.74994 18 7.74994C17.7279 7.74994 17.4151 7.65569 17.143 7.54476C16.8473 7.4242 16.5139 7.24836 16.1829 7.01807C15.5286 6.56274 14.8215 5.84971 14.489 4.85846L14.4885 4.85711C14.0666 3.59136 14.5225 1.85584 16.1148 1.35456L16.1222 1.35224L16.1222 1.35228C16.6984 1.17737 17.4043 1.22206 17.9876 1.56948ZM15.9965 10C15.4442 10 14.9965 10.4477 14.9965 11C14.9965 11.5523 15.4442 12 15.9965 12H16.0054C16.5577 12 17.0054 11.5523 17.0054 11C17.0054 10.4477 16.5577 10 16.0054 10H15.9965ZM10.9955 11C10.9955 10.4477 11.4432 10 11.9955 10H12.0045C12.5568 10 13.0045 10.4477 13.0045 11C13.0045 11.5523 12.5568 12 12.0045 12H11.9955C11.4432 12 10.9955 11.5523 10.9955 11ZM7.99451 10C7.44222 10 6.99451 10.4477 6.99451 11C6.99451 11.5523 7.44222 12 7.99451 12H8.00349C8.55577 12 9.00349 11.5523 9.00349 11C9.00349 10.4477 8.55577 10 8.00349 10H7.99451Z" fill="#424B5A"/>
</svg>
