<svg width="24" height="24" viewBox="0 0 24 24" fill="none" xmlns="http://www.w3.org/2000/svg">
<path fill-rule="evenodd" clip-rule="evenodd" d="M9.5 2.75C5.72421 2.75 2.75 5.59251 2.75 9C2.75 11.0213 3.79021 12.8322 5.43145 13.9865C5.54078 14.0634 5.62758 14.1681 5.68285 14.2898L7.02144 17.2367C7.10312 17.4103 7.33134 17.433 7.44498 17.2985L7.99306 16.6408L7.99383 16.6399L8.92299 15.5209C8.96975 15.4646 9.02394 15.416 9.08352 15.3763C9.11473 15.3554 9.14741 15.337 9.18129 15.3211C9.27986 15.2748 9.38851 15.25 9.50006 15.25C10.7261 15.25 11.8676 14.9503 12.8502 14.4289C14.8937 13.3444 16.25 11.301 16.25 9C16.25 8.07134 16.0294 7.19692 15.6307 6.40842L15.6258 6.39869C14.587 4.26791 12.2461 2.75 9.5 2.75ZM8.59448 18.2622L8.59597 18.2604C10.0112 19.6433 11.9767 20.5159 14.1423 20.6028L15.4014 22.1171L15.4026 22.1185C16.2369 23.1284 17.8074 22.8776 18.3408 21.7249L19.6006 18.9513C21.5044 17.5394 22.7501 15.3458 22.7501 12.86C22.7501 9.30794 20.2093 6.3539 16.8104 5.42504C15.4418 2.92923 12.6621 1.25 9.5 1.25C4.9958 1.25 1.25 4.66749 1.25 9C1.25 11.4858 2.49568 13.6794 4.39943 15.0913L5.65712 17.8602L5.65932 17.8649C6.19819 19.0296 7.76829 19.2466 8.59448 18.2622ZM14.5001 19.11C12.533 19.11 10.7708 18.3324 9.55921 17.1028L9.85812 16.7428C10.9438 16.6989 11.9799 16.4567 12.9234 16.052C13.4176 15.84 13.8864 15.5835 14.3236 15.2876C16.3901 13.8889 17.7501 11.6106 17.7501 8.99997C17.7501 8.41011 17.6792 7.83694 17.5449 7.28661C19.7599 8.32405 21.2501 10.4527 21.2501 12.86C21.2501 14.8813 20.2098 16.6922 18.5686 17.8465C18.4593 17.9234 18.3725 18.0281 18.3172 18.1498L16.9786 21.0967C16.8916 21.2818 16.6644 21.291 16.5587 21.1628L16.5568 21.1605L15.0768 19.3805C14.9343 19.2091 14.7229 19.11 14.5001 19.11ZM7 8.25C6.58579 8.25 6.25 8.58579 6.25 9C6.25 9.41421 6.58579 9.75 7 9.75H12C12.4142 9.75 12.75 9.41421 12.75 9C12.75 8.58579 12.4142 8.25 12 8.25H7Z" fill="#424B5A"/>
</svg>
