<svg width="24" height="24" viewBox="0 0 24 24" fill="none" xmlns="http://www.w3.org/2000/svg">
<path fill-rule="evenodd" clip-rule="evenodd" d="M8 1.25C5.88439 1.25 4.15993 1.77941 2.96967 2.96967C1.77941 4.15993 1.25 5.88439 1.25 8V21C1.25 21.9642 2.03579 22.75 3 22.75H16C18.1156 22.75 19.8401 22.2206 21.0303 21.0303C22.2206 19.8401 22.75 18.1156 22.75 16V8C22.75 5.88439 22.2206 4.15993 21.0303 2.96967C19.8401 1.77941 18.1156 1.25 16 1.25H8ZM2.75 8C2.75 6.11561 3.22059 4.84007 4.03033 4.03033C4.84007 3.22059 6.11561 2.75 8 2.75H16C17.8844 2.75 19.1599 3.22059 19.9697 4.03033C20.7794 4.84007 21.25 6.11561 21.25 8V16C21.25 17.8844 20.7794 19.1599 19.9697 19.9697C19.1599 20.7794 17.8844 21.25 16 21.25H3C2.86421 21.25 2.75 21.1358 2.75 21V8ZM12 7.75C12.4142 7.75 12.75 8.08579 12.75 8.5V11.25H15.5C15.9142 11.25 16.25 11.5858 16.25 12C16.25 12.4142 15.9142 12.75 15.5 12.75H12.75V15.5C12.75 15.9142 12.4142 16.25 12 16.25C11.5858 16.25 11.25 15.9142 11.25 15.5V12.75H8.5C8.08579 12.75 7.75 12.4142 7.75 12C7.75 11.5858 8.08579 11.25 8.5 11.25H11.25V8.5C11.25 8.08579 11.5858 7.75 12 7.75Z" fill="#424B5A"/>
</svg>
