<svg width="24" height="24" viewBox="0 0 24 24" fill="none" xmlns="http://www.w3.org/2000/svg">
<path fill-rule="evenodd" clip-rule="evenodd" d="M5.47738 9.65433C5.36381 9.68988 5.2416 9.73362 5.10459 9.78744C5.35609 5.90396 8.82244 2.75 13.17 2.75C17.6852 2.75 21.25 6.15199 21.25 10.24C21.25 12.6717 19.9995 14.842 18.0395 16.2159C17.8124 16.3751 17.6916 16.6466 17.7256 16.9219L18.1154 20.0804C18.1415 20.301 17.9133 20.4283 17.7485 20.3284L13.5531 17.8352C13.4372 17.7663 13.3048 17.73 13.17 17.73L13.1533 17.73C13.5353 16.9725 13.75 16.1243 13.75 15.23C13.75 11.9289 10.9057 9.34009 7.5 9.34009C6.79309 9.34009 6.11316 9.44925 5.47738 9.65433ZM3.59817 10.6298C3.59226 10.499 3.58997 10.3692 3.58997 10.24C3.58997 5.22799 7.92521 1.25 13.17 1.25C18.4147 1.25 22.75 5.22799 22.75 10.24C22.75 13.0485 21.3807 15.5361 19.268 17.1732L19.6046 19.9003C19.7778 21.3381 18.229 22.3698 16.9746 21.6134L16.9714 21.6115L12.9607 19.228C12.6779 19.2228 12.398 19.2068 12.1212 19.18C11.0272 20.3278 9.45188 21.0523 7.71148 21.1067L5.27686 22.5526C4.28464 23.1557 3.07485 22.3198 3.20513 21.2124L3.20593 21.2056L3.20596 21.2056L3.40119 19.6673C2.08817 18.6004 1.25 17.0138 1.25 15.23C1.25 13.3528 2.17451 11.6964 3.59817 10.6298ZM11.8116 13.3887C11.0657 11.8989 9.44044 10.8401 7.5 10.8401C6.48429 10.8401 5.55675 11.1284 4.78949 11.6284L4.78381 11.6321L4.7838 11.6321C3.53967 12.4269 2.75 13.7486 2.75 15.23C2.75 16.6434 3.47181 17.9118 4.62762 18.7139C4.85727 18.8733 4.97922 19.1472 4.94403 19.4245L4.72702 21.1345L7.11704 19.7152C7.23293 19.6464 7.36522 19.61 7.5 19.61C9.03828 19.61 10.3914 18.9388 11.2357 17.9197C11.2397 17.9149 11.2437 17.91 11.2477 17.9052L11.2487 17.9041L11.2487 17.9041C11.881 17.1607 12.25 16.2304 12.25 15.23C12.25 14.5772 12.0937 13.9521 11.8116 13.3887Z" fill="#424B5A"/>
</svg>
