<svg width="24" height="24" viewBox="0 0 24 24" fill="none" xmlns="http://www.w3.org/2000/svg">
<path fill-rule="evenodd" clip-rule="evenodd" d="M12 1.25C8.27579 1.25 5.25 4.27579 5.25 8V13C5.25 14.4607 5.71365 15.8169 6.50626 16.9231L1.96967 21.4597C1.67678 21.7526 1.67678 22.2274 1.96967 22.5203C2.26256 22.8132 2.73744 22.8132 3.03033 22.5203L5.38672 20.1639C7.12549 21.7669 9.45081 22.75 12 22.75C17.3842 22.75 21.75 18.3842 21.75 13V11C21.75 10.5858 21.4142 10.25 21 10.25C20.5858 10.25 20.25 10.5858 20.25 11V13C20.25 17.5558 16.5558 21.25 12 21.25C9.86538 21.25 7.91701 20.4364 6.44841 19.1023L22.0303 3.52034C22.3232 3.22744 22.3232 2.75257 22.0303 2.45968C21.7374 2.16678 21.2626 2.16678 20.9697 2.45968L18.17 5.25939C17.1178 2.9004 14.7569 1.25 12 1.25ZM17.0091 6.42022C16.3637 4.38457 14.5175 2.88335 12.3 2.75843V5.49999C12.3 5.91421 11.9642 6.24999 11.55 6.24999C11.1358 6.24999 10.8 5.91421 10.8 5.49999V2.88824C10.2443 3.01856 9.72241 3.23735 9.25 3.52889V7.5C9.25 7.91421 8.91421 8.25 8.5 8.25C8.08579 8.25 7.75 7.91421 7.75 7.5V4.92022C7.12116 5.78578 6.75 6.8502 6.75 8V13C6.75 14.0489 7.0559 15.0251 7.58551 15.8438L17.0091 6.42022ZM18.75 9.98C18.75 9.56578 18.4142 9.23 18 9.23C17.5858 9.23 17.25 9.56578 17.25 9.98V13C17.25 15.8958 14.8958 18.25 12 18.25C11.3578 18.25 10.7372 18.1354 10.1833 17.9277C9.79551 17.7823 9.3632 17.9788 9.21776 18.3667C9.07232 18.7545 9.26882 19.1868 9.65666 19.3322C10.3828 19.6045 11.1822 19.75 12 19.75C15.7242 19.75 18.75 16.7242 18.75 13V9.98Z" fill="#424B5A"/>
</svg>
