<svg width="24" height="24" viewBox="0 0 24 24" fill="none" xmlns="http://www.w3.org/2000/svg">
<path fill-rule="evenodd" clip-rule="evenodd" d="M7.25 6C7.25 3.37579 9.37579 1.25 12 1.25C14.342 1.25 16.2871 2.94322 16.6783 5.17281L19.5395 2.30983C19.8323 2.01685 20.3072 2.0167 20.6002 2.3095C20.8931 2.6023 20.8933 3.07718 20.6005 3.37016L9.95179 14.0255C10.5094 14.4802 11.2236 14.75 12 14.75C13.7958 14.75 15.25 13.2958 15.25 11.5V11C15.25 10.5858 15.5858 10.25 16 10.25C16.4142 10.25 16.75 10.5858 16.75 11V11.5C16.75 14.1242 14.6242 16.25 12 16.25C10.8153 16.25 9.72279 15.817 8.88779 15.0901L7.44192 16.5369C8.66116 17.6029 10.2512 18.25 12 18.25C15.8058 18.25 18.9 15.1558 18.9 11.35V9.64999C18.9 9.23578 19.2358 8.89999 19.65 8.89999C20.0642 8.89999 20.4 9.23578 20.4 9.64999V11.35C20.4 15.7315 17.0338 19.3366 12.75 19.7169V22C12.75 22.4142 12.4142 22.75 12 22.75C11.5858 22.75 11.25 22.4142 11.25 22V19.717C9.38291 19.5522 7.69542 18.7777 6.37964 17.5998L4.46049 19.5202C4.16768 19.8131 3.69281 19.8133 3.39983 19.5205C3.10684 19.2277 3.1067 18.7528 3.3995 18.4598L15.2951 6.55683C15.2659 6.47671 15.25 6.39022 15.25 6.3V6C15.25 4.20421 13.7958 2.75 12 2.75C11.9028 2.75 11.8066 2.75426 11.7116 2.7626C11.7365 2.83721 11.75 2.91703 11.75 3V6C11.75 6.41421 11.4142 6.75 11 6.75C10.5858 6.75 10.25 6.41421 10.25 6V3.26045C9.34774 3.83776 8.75 4.84868 8.75 6V11C8.75 11.4142 8.41421 11.75 8 11.75C7.58579 11.75 7.25 11.4142 7.25 11V6ZM4.34998 8.89999C4.76419 8.89999 5.09998 9.23578 5.09998 9.64999V11.35C5.09998 12.3091 5.28963 13.2096 5.64049 14.0373C5.80216 14.4186 5.62406 14.8588 5.2427 15.0205C4.86133 15.1822 4.42112 15.0041 4.25946 14.6227C3.83032 13.6104 3.59998 12.5109 3.59998 11.35V9.64999C3.59998 9.23578 3.93576 8.89999 4.34998 8.89999Z" fill="#424B5A"/>
</svg>
