<svg width="24" height="24" viewBox="0 0 24 24" fill="none" xmlns="http://www.w3.org/2000/svg">
<path fill-rule="evenodd" clip-rule="evenodd" d="M19.8333 2.13268L19.834 2.13377L21.6506 4.83869L21.6517 4.84037C22.2642 5.74503 22.0219 6.99271 21.1067 7.6034L15.4472 11.393C15.1594 11.5857 14.7864 11.5528 14.5372 11.3355L12.9219 12.4174L17.1231 21.6904C17.294 22.0677 17.1268 22.5121 16.7495 22.683C16.3722 22.854 15.9277 22.6867 15.7568 22.3094L12.021 14.0638L8.24184 22.3123C8.06931 22.6888 7.62417 22.8543 7.2476 22.6817C6.87103 22.5092 6.70562 22.0641 6.87815 21.6875L10.3313 14.1505C10.1366 14.2633 9.90923 14.279 9.70903 14.2093L6.23968 16.5281C5.44739 17.0448 4.36303 16.8498 3.82689 16.0473L3.82591 16.0458L2.698 14.369C2.15758 13.5664 2.36662 12.4798 3.17081 11.9379L3.1732 11.9363L6.64894 9.61325C6.66825 9.39503 6.78255 9.18715 6.97874 9.05575L11.1319 6.27413C11.0799 6.14178 11.0662 5.99623 11.0942 5.85454C11.1327 5.65928 11.2473 5.48736 11.4127 5.37662L17.071 1.58774C17.9755 0.975695 19.2226 1.21795 19.8333 2.13268ZM13.6802 10.1041L11.9531 7.52958L8.43667 9.88472L10.1618 12.4605L13.6802 10.1041ZM20.2739 6.35578L15.248 9.72121L12.8863 6.19507L17.9073 2.833L17.9111 2.83041C18.126 2.68454 18.4368 2.74218 18.5859 2.96582L20.4073 5.67797L20.4093 5.68095C20.5552 5.89592 20.4976 6.20669 20.2739 6.35578ZM3.9419 13.5307C3.86298 13.4136 3.89333 13.2604 4.00829 13.1823L7.33415 10.9595L8.73865 13.0537L5.41782 15.2732C5.29106 15.354 5.13779 15.3095 5.07399 15.2138L3.9419 13.5307Z" fill="#424B5A"/>
</svg>
