<svg width="24" height="24" viewBox="0 0 24 24" fill="none" xmlns="http://www.w3.org/2000/svg">
<path fill-rule="evenodd" clip-rule="evenodd" d="M7.25 6C7.25 3.37579 9.37579 1.25 12 1.25C14.6242 1.25 16.75 3.37579 16.75 6V11.5C16.75 14.1242 14.6242 16.25 12 16.25C9.37579 16.25 7.25 14.1242 7.25 11.5V6ZM12 2.75C10.2042 2.75 8.75 4.20421 8.75 6V11.5C8.75 13.2958 10.2042 14.75 12 14.75C13.7958 14.75 15.25 13.2958 15.25 11.5V6C15.25 4.20421 13.7958 2.75 12 2.75ZM4.34998 8.89999C4.76419 8.89999 5.09998 9.23578 5.09998 9.64999V11.35C5.09998 15.1558 8.19419 18.25 12 18.25C15.8058 18.25 18.9 15.1558 18.9 11.35V9.64999C18.9 9.23578 19.2358 8.89999 19.65 8.89999C20.0642 8.89999 20.4 9.23578 20.4 9.64999V11.35C20.4 15.7315 17.0338 19.3366 12.75 19.7169V22C12.75 22.4142 12.4142 22.75 12 22.75C11.5858 22.75 11.25 22.4142 11.25 22V19.7169C6.96622 19.3367 3.59998 15.7315 3.59998 11.35V9.64999C3.59998 9.23578 3.93576 8.89999 4.34998 8.89999ZM10.8682 7.13415C11.6015 6.86528 12.3985 6.86528 13.1318 7.13415C13.5207 7.27675 13.9516 7.07708 14.0942 6.68819C14.2368 6.29929 14.0371 5.86843 13.6482 5.72584C12.5815 5.33471 11.4185 5.33471 10.3518 5.72584C9.96292 5.86843 9.76325 6.29929 9.90585 6.68819C10.0484 7.07708 10.4793 7.27675 10.8682 7.13415ZM12.6185 9.27514C12.214 9.1683 11.796 9.1683 11.3916 9.27514C10.9911 9.38092 10.5807 9.14203 10.4749 8.74155C10.3691 8.34107 10.608 7.93067 11.0085 7.82488C11.664 7.65172 12.346 7.65172 13.0016 7.82488C13.402 7.93067 13.6409 8.34107 13.5351 8.74155C13.4294 9.14203 13.0189 9.38092 12.6185 9.27514Z" fill="#424B5A"/>
</svg>
