<svg width="24" height="24" viewBox="0 0 24 24" fill="none" xmlns="http://www.w3.org/2000/svg">
<path fill-rule="evenodd" clip-rule="evenodd" d="M12 1.25C8.27579 1.25 5.25 4.27579 5.25 8V13C5.25 16.7242 8.27579 19.75 12 19.75C15.7242 19.75 18.75 16.7242 18.75 13V8C18.75 4.27579 15.7242 1.25 12 1.25ZM6.75 8C6.75 5.10421 9.10421 2.75 12 2.75C14.8958 2.75 17.25 5.10421 17.25 8V13C17.25 15.8958 14.8958 18.25 12 18.25C9.10421 18.25 6.75 15.8958 6.75 13V8ZM3.75 11C3.75 10.5858 3.41421 10.25 3 10.25C2.58579 10.25 2.25 10.5858 2.25 11V13C2.25 18.3842 6.61579 22.75 12 22.75C17.3842 22.75 21.75 18.3842 21.75 13V11C21.75 10.5858 21.4142 10.25 21 10.25C20.5858 10.25 20.25 10.5858 20.25 11V13C20.25 17.5558 16.5558 21.25 12 21.25C7.44421 21.25 3.75 17.5558 3.75 13V11ZM14.3527 8.18449C12.7389 7.59516 10.9811 7.59516 9.36727 8.18449C8.97818 8.32657 8.54759 8.12634 8.40551 7.73725C8.26343 7.34817 8.46366 6.91758 8.85275 6.7755C10.7989 6.06483 12.9211 6.06483 14.8673 6.7755C15.2563 6.91758 15.4566 7.34817 15.3145 7.73725C15.1724 8.12634 14.7418 8.32657 14.3527 8.18449ZM10.2289 11.2032C11.2987 10.9089 12.4313 10.9089 13.5011 11.2032C13.9005 11.313 14.3133 11.0783 14.4232 10.6789C14.533 10.2795 14.2983 9.86668 13.8989 9.75684C12.5687 9.39105 11.1613 9.39105 9.83114 9.75684C9.43175 9.86668 9.19702 10.2795 9.30685 10.6789C9.41668 11.0783 9.82949 11.313 10.2289 11.2032Z" fill="#424B5A"/>
</svg>
