<svg width="24" height="24" viewBox="0 0 24 24" fill="none" xmlns="http://www.w3.org/2000/svg">
<path fill-rule="evenodd" clip-rule="evenodd" d="M8.75 3.5C8.75 3.09096 9.08746 2.75 9.5 2.75H14.5C14.9125 2.75 15.25 3.09096 15.25 3.5C15.25 3.90904 14.9125 4.25 14.5 4.25H9.5C9.08746 4.25 8.75 3.90904 8.75 3.5ZM8.25 5.36949C7.64603 4.96364 7.25 4.27368 7.25 3.5C7.25 2.26904 8.25254 1.25 9.5 1.25H14.5C15.7475 1.25 16.75 2.26904 16.75 3.5C16.75 4.27368 16.354 4.96364 15.75 5.36949V6.59C15.75 6.64886 15.7794 6.71874 15.8203 6.75966L17.9403 8.87968C18.1938 9.13317 18.3894 9.46534 18.5215 9.78398C18.6535 10.1023 18.75 10.4743 18.75 10.83V15V16V19C18.75 21.0642 17.0642 22.75 15 22.75H9C6.93579 22.75 5.25 21.0642 5.25 19V14.98V13.98V10.83C5.25 10.4743 5.34645 10.1023 5.47846 9.78398C5.61059 9.46534 5.8062 9.13317 6.05969 8.87968L8.17969 6.75967C8.22061 6.71874 8.25 6.64886 8.25 6.59V5.36949ZM9.75 5.75V6.59C9.75 7.05113 9.55943 7.50125 9.24035 7.82032L7.12036 9.94033C7.04386 10.0168 6.94445 10.1647 6.86406 10.3585C6.78356 10.5527 6.75 10.7257 6.75 10.83V13.2338L9.89001 13.25H9.89202H9.89209C10.7385 13.2503 11.5725 13.4477 12.3354 13.8292C12.8911 14.107 13.4963 14.25 14.12 14.25H17.25V10.83C17.25 10.7257 17.2164 10.5527 17.1359 10.3585C17.0555 10.1647 16.9561 10.0168 16.8796 9.94033L14.7596 7.82032C14.4406 7.50125 14.25 7.05113 14.25 6.59V5.75H9.75ZM6.75 19V14.98V14.7339L9.88616 14.75H9.89001C10.5029 14.75 11.1081 14.8926 11.6646 15.1708C12.4289 15.553 13.2637 15.75 14.12 15.75H17.25V16V19C17.25 20.2358 16.2358 21.25 15 21.25H9C7.76421 21.25 6.75 20.2358 6.75 19Z" fill="#424B5A"/>
</svg>
