<svg width="24" height="24" viewBox="0 0 24 24" fill="none" xmlns="http://www.w3.org/2000/svg">
<path fill-rule="evenodd" clip-rule="evenodd" d="M3.09467 3.09467C4.42914 1.7602 6.42603 1.25 9 1.25H15C17.574 1.25 19.5709 1.7602 20.9053 3.09467C22.2398 4.42914 22.75 6.42603 22.75 9V10C22.75 10.4142 22.4142 10.75 22 10.75C21.5858 10.75 21.25 10.4142 21.25 10V9C21.25 6.57397 20.7602 5.07086 19.8447 4.15533C18.9291 3.2398 17.426 2.75 15 2.75H9C6.57397 2.75 5.07086 3.2398 4.15533 4.15533C3.2398 5.07086 2.75 6.57397 2.75 9V15C2.75 17.426 3.2398 18.9291 4.15533 19.8447C5.07086 20.7602 6.57397 21.25 9 21.25H11C11.4142 21.25 11.75 21.5858 11.75 22C11.75 22.4142 11.4142 22.75 11 22.75H9C6.42603 22.75 4.42914 22.2398 3.09467 20.9053C1.7602 19.5709 1.25 17.574 1.25 15V9C1.25 6.42603 1.7602 4.42914 3.09467 3.09467Z" fill="#424B5A"/>
<path fill-rule="evenodd" clip-rule="evenodd" d="M15.27 19.87C14.8889 19.87 14.58 20.1789 14.58 20.56C14.58 20.9411 14.8889 21.25 15.27 21.25C15.6511 21.25 15.96 20.9411 15.96 20.56C15.96 20.1789 15.6511 19.87 15.27 19.87ZM13.08 20.56C13.08 19.3505 14.0605 18.37 15.27 18.37C16.4795 18.37 17.46 19.3505 17.46 20.56C17.46 21.7695 16.4795 22.75 15.27 22.75C14.0605 22.75 13.08 21.7695 13.08 20.56Z" fill="#424B5A"/>
<path fill-rule="evenodd" clip-rule="evenodd" d="M21.9079 12.2042C22.5073 12.5554 22.75 13.2113 22.75 13.96V19.6C22.75 20.0142 22.4142 20.35 22 20.35C21.5858 20.35 21.25 20.0142 21.25 19.6V13.96C21.25 13.7338 21.2141 13.6108 21.1878 13.553C21.1668 13.5067 21.1518 13.4994 21.1498 13.4985C21.1497 13.4984 21.1498 13.4985 21.1498 13.4985C21.1245 13.4837 20.9885 13.4387 20.6775 13.5235C20.6774 13.5236 20.6775 13.5235 20.6775 13.5235L17.785 14.3143C17.5687 14.3725 17.45 14.5132 17.45 14.75V20.57C17.45 20.9842 17.1142 21.32 16.7 21.32C16.2858 21.32 15.95 20.9842 15.95 20.57V14.75C15.95 13.7875 16.5706 13.0885 17.3935 12.8663L20.2822 12.0766C20.7411 11.9514 21.3657 11.8865 21.9079 12.2042Z" fill="#424B5A"/>
<path fill-rule="evenodd" clip-rule="evenodd" d="M20.56 18.91C20.1789 18.91 19.87 19.2189 19.87 19.6C19.87 19.9811 20.1789 20.29 20.56 20.29C20.9411 20.29 21.25 19.9811 21.25 19.6C21.25 19.2189 20.9411 18.91 20.56 18.91ZM18.37 19.6C18.37 18.3905 19.3505 17.41 20.56 17.41C21.7695 17.41 22.75 18.3905 22.75 19.6C22.75 20.8095 21.7695 21.79 20.56 21.79C19.3505 21.79 18.37 20.8095 18.37 19.6Z" fill="#424B5A"/>
<path fill-rule="evenodd" clip-rule="evenodd" d="M22.7237 14.793C22.8325 15.1927 22.5967 15.6049 22.197 15.7137L16.907 17.1537C16.5073 17.2625 16.0951 17.0267 15.9863 16.627C15.8775 16.2273 16.1133 15.8151 16.513 15.7063L21.803 14.2663C22.2027 14.1575 22.6149 14.3933 22.7237 14.793Z" fill="#424B5A"/>
</svg>
