<svg width="24" height="24" viewBox="0 0 24 24" fill="none" xmlns="http://www.w3.org/2000/svg">
<path fill-rule="evenodd" clip-rule="evenodd" d="M11.92 1.25C6.00583 1.25 1.17004 6.08579 1.17004 12C1.17004 17.9142 6.00583 22.75 11.92 22.75C17.8343 22.75 22.67 17.9142 22.67 12C22.67 6.08579 17.8343 1.25 11.92 1.25ZM2.67004 12C2.67004 6.91421 6.83426 2.75 11.92 2.75C17.0058 2.75 21.17 6.91421 21.17 12C21.17 17.0858 17.0058 21.25 11.92 21.25C6.83426 21.25 2.67004 17.0858 2.67004 12ZM7.92004 11.25C7.50583 11.25 7.17004 11.5858 7.17004 12C7.17004 12.4142 7.50583 12.75 7.92004 12.75H15.92C16.3343 12.75 16.67 12.4142 16.67 12C16.67 11.5858 16.3343 11.25 15.92 11.25H7.92004Z" fill="#424B5A"/>
</svg>
