<svg width="24" height="24" viewBox="0 0 24 24" fill="none" xmlns="http://www.w3.org/2000/svg">
<path fill-rule="evenodd" clip-rule="evenodd" d="M4.75 10C4.75 5.99594 7.99594 2.75 12 2.75C16.0041 2.75 19.25 5.99594 19.25 10C19.25 14.0041 16.0041 17.25 12 17.25C7.99594 17.25 4.75 14.0041 4.75 10ZM12 1.25C7.16751 1.25 3.25 5.16751 3.25 10C3.25 14.8325 7.16751 18.75 12 18.75C16.8325 18.75 20.75 14.8325 20.75 10C20.75 5.16751 16.8325 1.25 12 1.25ZM6 21.25C5.58579 21.25 5.25 21.5858 5.25 22C5.25 22.4142 5.58579 22.75 6 22.75H18C18.4142 22.75 18.75 22.4142 18.75 22C18.75 21.5858 18.4142 21.25 18 21.25H6Z" fill="#424B5A"/>
</svg>
