<svg width="24" height="24" viewBox="0 0 24 24" fill="none" xmlns="http://www.w3.org/2000/svg">
<path fill-rule="evenodd" clip-rule="evenodd" d="M2.75 8C2.75 6.67044 3.18991 5.62075 3.90533 4.90533C4.62075 4.18991 5.67044 3.75 7 3.75H17C18.3296 3.75 19.3793 4.18991 20.0947 4.90533C20.8101 5.62075 21.25 6.67044 21.25 8V16C21.25 17.3296 20.8101 18.3793 20.0947 19.0947C19.3793 19.8101 18.3296 20.25 17 20.25H16C15.5858 20.25 15.25 20.5858 15.25 21C15.25 21.4142 15.5858 21.75 16 21.75H17C18.6704 21.75 20.1207 21.1899 21.1553 20.1553C22.1899 19.1207 22.75 17.6704 22.75 16V8C22.75 6.32956 22.1899 4.87925 21.1553 3.84467C20.1207 2.81009 18.6704 2.25 17 2.25H7C5.32956 2.25 3.87925 2.81009 2.84467 3.84467C1.81009 4.87925 1.25 6.32956 1.25 8V9C1.25 9.41421 1.58579 9.75 2 9.75C2.41421 9.75 2.75 9.41421 2.75 9V8ZM3.78496 10.9661C3.37408 10.9136 2.99846 11.2042 2.94599 11.615C2.89352 12.0259 3.18406 12.4015 3.59494 12.454C7.87481 13.0006 10.9999 16.133 11.5562 20.4166C11.6095 20.8274 11.9858 21.1172 12.3965 21.0638C12.8073 21.0105 13.097 20.6342 13.0437 20.2235C12.4 15.2671 8.74509 11.5995 3.78496 10.9661ZM1.8759 14.9757C1.92803 14.5648 2.3034 14.2739 2.71432 14.326C6.44542 14.7993 9.20011 17.5676 9.68371 21.2935C9.73703 21.7043 9.44725 22.0805 9.03648 22.1338C8.62572 22.1871 8.2495 21.8974 8.19619 21.4866C7.79979 18.4325 5.57447 16.2008 2.52557 15.8141C2.11464 15.762 1.82378 15.3866 1.8759 14.9757ZM2.07676 18.1163C1.66601 18.0628 1.28969 18.3525 1.23622 18.7632C1.18275 19.174 1.47238 19.5503 1.88313 19.6038C3.2374 19.7801 4.22009 20.7558 4.39615 22.1163C4.44931 22.5271 4.82541 22.817 5.2362 22.7638C5.64699 22.7107 5.9369 22.3346 5.88374 21.9238C5.6198 19.8842 4.10249 18.38 2.07676 18.1163Z" fill="#424B5A"/>
</svg>
