<svg width="24" height="24" viewBox="0 0 24 24" fill="none" xmlns="http://www.w3.org/2000/svg">
<path fill-rule="evenodd" clip-rule="evenodd" d="M6.53033 3.53033C6.01884 4.04182 5.75 4.99464 5.75 7V17C5.75 19.0054 6.01884 19.9582 6.53033 20.4697C7.04182 20.9812 7.99464 21.25 10 21.25H14C16.0054 21.25 16.9582 20.9812 17.4697 20.4697C17.9812 19.9582 18.25 19.0054 18.25 17V7C18.25 4.99464 17.9812 4.04182 17.4697 3.53033C16.9582 3.01884 16.0054 2.75 14 2.75H10C7.99464 2.75 7.04182 3.01884 6.53033 3.53033ZM5.46967 2.46967C6.45818 1.48116 8.00536 1.25 10 1.25H14C15.9946 1.25 17.5418 1.48116 18.5303 2.46967C19.5188 3.45818 19.75 5.00536 19.75 7V17C19.75 18.9946 19.5188 20.5418 18.5303 21.5303C17.5418 22.5188 15.9946 22.75 14 22.75H10C8.00536 22.75 6.45818 22.5188 5.46967 21.5303C4.48116 20.5418 4.25 18.9946 4.25 17V7C4.25 5.00536 4.48116 3.45818 5.46967 2.46967ZM9.25 5.5C9.25 5.08579 9.58579 4.75 10 4.75H14C14.4142 4.75 14.75 5.08579 14.75 5.5C14.75 5.91421 14.4142 6.25 14 6.25H10C9.58579 6.25 9.25 5.91421 9.25 5.5ZM11.2 17.55C11.2 17.1082 11.5582 16.75 12 16.75C12.4418 16.75 12.8 17.1082 12.8 17.55C12.8 17.9918 12.4418 18.35 12 18.35C11.5582 18.35 11.2 17.9918 11.2 17.55ZM12 15.25C10.7297 15.25 9.7 16.2797 9.7 17.55C9.7 18.8203 10.7297 19.85 12 19.85C13.2703 19.85 14.3 18.8203 14.3 17.55C14.3 16.2797 13.2703 15.25 12 15.25Z" fill="#424B5A"/>
</svg>
