<svg width="24" height="24" viewBox="0 0 24 24" fill="none" xmlns="http://www.w3.org/2000/svg">
<path fill-rule="evenodd" clip-rule="evenodd" d="M2.75 12C2.75 6.89421 6.89421 2.75 12 2.75C12.4142 2.75 12.75 2.41421 12.75 2C12.75 1.58579 12.4142 1.25 12 1.25C6.06579 1.25 1.25 6.06579 1.25 12C1.25 17.9342 6.06579 22.75 12 22.75C17.9342 22.75 22.75 17.9342 22.75 12C22.75 11.5858 22.4142 11.25 22 11.25C21.5858 11.25 21.25 11.5858 21.25 12C21.25 17.1058 17.1058 21.25 12 21.25C6.89421 21.25 2.75 17.1058 2.75 12ZM12 6.75C12.4142 6.75 12.75 7.08579 12.75 7.5V7.74001H12.84C14.2053 7.74001 15.26 8.88755 15.26 10.24C15.26 10.6542 14.9242 10.99 14.51 10.99C14.0958 10.99 13.76 10.6542 13.76 10.24C13.76 9.65246 13.3147 9.24001 12.84 9.24001H12.75V11.4606L13.7615 11.8134C14.1139 11.9388 14.5166 12.1357 14.8174 12.5209C15.1248 12.9146 15.25 13.4057 15.25 13.97C15.25 15.1977 14.2998 16.25 13.05 16.25H12.75V16.5C12.75 16.9142 12.4142 17.25 12 17.25C11.5858 17.25 11.25 16.9142 11.25 16.5V16.25H11.17C9.80474 16.25 8.75 15.1025 8.75 13.75C8.75 13.3358 9.08579 13 9.5 13C9.91421 13 10.25 13.3358 10.25 13.75C10.25 14.3375 10.6953 14.75 11.17 14.75H11.25V12.526L10.2485 12.1766C9.90083 12.0528 9.49626 11.8595 9.1939 11.4745C8.88434 11.0803 8.76001 10.5874 8.76001 10.02C8.76001 8.80562 9.70704 7.74001 10.96 7.74001H11.25V7.5C11.25 7.08579 11.5858 6.75 12 6.75ZM10.96 9.24001H11.25V10.9373L10.7494 10.7627C10.5086 10.6768 10.4186 10.6053 10.3736 10.548C10.3357 10.4997 10.26 10.3726 10.26 10.02C10.26 9.55439 10.6129 9.24001 10.96 9.24001ZM12.75 14.75V13.0492L13.2606 13.2273C13.4967 13.3116 13.5886 13.3845 13.6351 13.4441C13.6752 13.4954 13.75 13.6243 13.75 13.97C13.75 14.4423 13.4002 14.75 13.05 14.75H12.75ZM17.25 2C17.25 1.58579 17.5858 1.25 18 1.25H22C22.1017 1.25 22.1987 1.27024 22.2871 1.30691C22.3755 1.34351 22.4584 1.39776 22.5303 1.46967C22.6022 1.54158 22.6565 1.62445 22.6931 1.71291C22.7251 1.79009 22.7446 1.87376 22.749 1.96141C22.7497 1.97419 22.75 1.98706 22.75 2V6C22.75 6.41421 22.4142 6.75 22 6.75C21.5858 6.75 21.25 6.41421 21.25 6V3.81066L17.5303 7.53033C17.2374 7.82322 16.7626 7.82322 16.4697 7.53033C16.1768 7.23744 16.1768 6.76256 16.4697 6.46967L20.1893 2.75H18C17.5858 2.75 17.25 2.41421 17.25 2Z" fill="#424B5A"/>
</svg>
