<svg width="24" height="24" viewBox="0 0 24 24" fill="none" xmlns="http://www.w3.org/2000/svg">
<path fill-rule="evenodd" clip-rule="evenodd" d="M2.75 8.5C2.75 6.89295 3.20538 5.86848 3.88534 5.2371C4.57535 4.59637 5.61497 4.25 7 4.25H17C18.385 4.25 19.4246 4.59637 20.1147 5.2371C20.7946 5.86848 21.25 6.89295 21.25 8.5V15.5C21.25 17.107 20.7946 18.1315 20.1147 18.7629C19.4246 19.4036 18.385 19.75 17 19.75H7C5.61497 19.75 4.57535 19.4036 3.88534 18.7629C3.20538 18.1315 2.75 17.107 2.75 15.5V8.5ZM7 2.75C5.38503 2.75 3.92465 3.15363 2.86466 4.1379C1.79462 5.13152 1.25 6.60705 1.25 8.5V15.5C1.25 17.393 1.79462 18.8685 2.86466 19.8621C3.92465 20.8464 5.38503 21.25 7 21.25H17C18.615 21.25 20.0754 20.8464 21.1353 19.8621C22.2054 18.8685 22.75 17.393 22.75 15.5V8.5C22.75 6.60705 22.2054 5.13152 21.1353 4.1379C20.0754 3.15363 18.615 2.75 17 2.75H7ZM9.75 12C9.75 10.7574 10.7574 9.75 12 9.75C13.2426 9.75 14.25 10.7574 14.25 12C14.25 13.2426 13.2426 14.25 12 14.25C10.7574 14.25 9.75 13.2426 9.75 12ZM12 8.25C9.92893 8.25 8.25 9.92893 8.25 12C8.25 14.0711 9.92893 15.75 12 15.75C14.0711 15.75 15.75 14.0711 15.75 12C15.75 9.92893 14.0711 8.25 12 8.25ZM5.5 8.75C5.91421 8.75 6.25 9.08579 6.25 9.5V14.5C6.25 14.9142 5.91421 15.25 5.5 15.25C5.08579 15.25 4.75 14.9142 4.75 14.5V9.5C4.75 9.08579 5.08579 8.75 5.5 8.75ZM19.25 9.5C19.25 9.08579 18.9142 8.75 18.5 8.75C18.0858 8.75 17.75 9.08579 17.75 9.5V14.5C17.75 14.9142 18.0858 15.25 18.5 15.25C18.9142 15.25 19.25 14.9142 19.25 14.5V9.5Z" fill="#424B5A"/>
</svg>
