<svg width="24" height="24" viewBox="0 0 24 24" fill="none" xmlns="http://www.w3.org/2000/svg">
<path fill-rule="evenodd" clip-rule="evenodd" d="M3 8.25H2.75378C2.79877 6.78574 3.24133 5.8351 3.88534 5.2371C4.44462 4.71776 5.23359 4.39181 6.25 4.28694V5C6.25 6.45845 5.99725 7.19209 5.59467 7.59467C5.19209 7.99725 4.45845 8.25 3 8.25ZM16.25 4.25H7.75V5C7.75 6.54155 7.50275 7.80791 6.65533 8.65533C5.80791 9.50275 4.54155 9.75 3 9.75H2.75V14.25H3C4.54155 14.25 5.80791 14.4972 6.65533 15.3447C7.50275 16.1921 7.75 17.4585 7.75 19V19.75H16.25V19C16.25 17.4585 16.4972 16.1921 17.3447 15.3447C18.1921 14.4972 19.4585 14.25 21 14.25H21.25V9.75H21C19.4585 9.75 18.1921 9.50275 17.3447 8.65533C16.4972 7.80791 16.25 6.54155 16.25 5V4.25ZM22.75 15V9V8.5C22.75 6.60705 22.2054 5.13152 21.1353 4.1379C20.0754 3.15363 18.615 2.75 17 2.75H7C5.38503 2.75 3.92465 3.15363 2.86466 4.1379C1.79462 5.13152 1.25 6.60705 1.25 8.5V9V15V15.5C1.25 17.393 1.79462 18.8685 2.86466 19.8621C3.92465 20.8464 5.38503 21.25 7 21.25H17C18.615 21.25 20.0754 20.8464 21.1353 19.8621C22.2054 18.8685 22.75 17.393 22.75 15.5V15ZM21.2462 15.75H21C19.5415 15.75 18.8079 16.0028 18.4053 16.4053C18.0028 16.8079 17.75 17.5415 17.75 19V19.7131C18.7664 19.6082 19.5554 19.2822 20.1147 18.7629C20.7587 18.1649 21.2012 17.2143 21.2462 15.75ZM3 15.75H2.75378C2.79877 17.2143 3.24133 18.1649 3.88534 18.7629C4.44462 19.2822 5.23359 19.6082 6.25 19.7131V19C6.25 17.5415 5.99725 16.8079 5.59467 16.4053C5.19209 16.0028 4.45845 15.75 3 15.75ZM17.75 4.28694V5C17.75 6.45845 18.0028 7.19209 18.4053 7.59467C18.8079 7.99725 19.5415 8.25 21 8.25H21.2462C21.2012 6.78574 20.7587 5.8351 20.1147 5.2371C19.5554 4.71776 18.7664 4.39181 17.75 4.28694ZM9.75 12C9.75 10.7574 10.7574 9.75 12 9.75C13.2426 9.75 14.25 10.7574 14.25 12C14.25 13.2426 13.2426 14.25 12 14.25C10.7574 14.25 9.75 13.2426 9.75 12ZM12 8.25C9.92893 8.25 8.25 9.92893 8.25 12C8.25 14.0711 9.92893 15.75 12 15.75C14.0711 15.75 15.75 14.0711 15.75 12C15.75 9.92893 14.0711 8.25 12 8.25Z" fill="#424B5A"/>
</svg>
