<svg width="24" height="24" viewBox="0 0 24 24" fill="none" xmlns="http://www.w3.org/2000/svg">
<path fill-rule="evenodd" clip-rule="evenodd" d="M3.88534 5.73709C3.20538 6.36848 2.75 7.39295 2.75 9V11C2.75 11.4142 2.41421 11.75 2 11.75C1.58579 11.75 1.25 11.4142 1.25 11V9C1.25 7.10705 1.79462 5.63152 2.86466 4.63791C3.92465 3.65363 5.38503 3.25 7 3.25H17C18.615 3.25 20.0754 3.65363 21.1353 4.63791C22.2054 5.63152 22.75 7.10705 22.75 9V15C22.75 16.893 22.2054 18.3685 21.1353 19.3621C20.0754 20.3464 18.615 20.75 17 20.75H12C11.5858 20.75 11.25 20.4142 11.25 20C11.25 19.5858 11.5858 19.25 12 19.25H17C18.385 19.25 19.4246 18.9036 20.1147 18.2629C20.7946 17.6315 21.25 16.607 21.25 15V9C21.25 7.39295 20.7946 6.36848 20.1147 5.73709C19.4246 5.09637 18.385 4.75 17 4.75H7C5.61497 4.75 4.57535 5.09637 3.88534 5.73709ZM12 10.25C11.0335 10.25 10.25 11.0335 10.25 12C10.25 12.9665 11.0335 13.75 12 13.75C12.9665 13.75 13.75 12.9665 13.75 12C13.75 11.0335 12.9665 10.25 12 10.25ZM8.75 12C8.75 10.2051 10.2051 8.75 12 8.75C13.7949 8.75 15.25 10.2051 15.25 12C15.25 13.7949 13.7949 15.25 12 15.25C10.2051 15.25 8.75 13.7949 8.75 12ZM19.25 9.5C19.25 9.08579 18.9142 8.75 18.5 8.75C18.0858 8.75 17.75 9.08579 17.75 9.5V14.5C17.75 14.9142 18.0858 15.25 18.5 15.25C18.9142 15.25 19.25 14.9142 19.25 14.5V9.5ZM3.80454 14.75C4.04191 14.4555 4.02383 14.0232 3.7503 13.7497C3.45741 13.4568 2.98253 13.4568 2.68964 13.7497L1.46967 14.9697C1.39776 15.0416 1.34351 15.1245 1.30691 15.2129C1.27024 15.3013 1.25 15.3983 1.25 15.5C1.25 15.6017 1.27024 15.6987 1.30691 15.7871C1.34324 15.8749 1.39696 15.9572 1.46808 16.0287L1.46967 16.0303L3.80454 14.75ZM3.80454 16.25H7.34003C7.56581 16.25 7.75 16.4342 7.75 16.66V17.94C7.75 18.3542 8.08579 18.69 8.5 18.69C8.91421 18.69 9.25 18.3542 9.25 17.94V16.66C9.25 15.6058 8.39424 14.75 7.34003 14.75H3.80454V16.25ZM3.80454 16.25C4.04191 16.5445 4.02383 16.9768 3.7503 17.2503C3.45741 17.5432 2.98253 17.5432 2.68964 17.2503L1.46987 16.0305L3.80454 16.25ZM2 17.59C2.41421 17.59 2.75 17.9258 2.75 18.34V19.62C2.75 19.8458 2.93424 20.03 3.15997 20.03H6.69648C6.45931 19.7355 6.47746 19.3034 6.75093 19.03C7.04383 18.7371 7.51871 18.7371 7.81159 19.03L9.03156 20.25C9.32444 20.5429 9.32444 21.0178 9.03155 21.3107L7.81158 22.5306C7.51869 22.8235 7.04381 22.8235 6.75092 22.5306C6.47729 22.257 6.45929 21.8246 6.69693 21.53H3.15997C2.10571 21.53 1.25 20.6742 1.25 19.62V18.34C1.25 17.9258 1.58579 17.59 2 17.59Z" fill="#424B5A"/>
</svg>
