<svg width="24" height="24" viewBox="0 0 24 24" fill="none" xmlns="http://www.w3.org/2000/svg">
<path fill-rule="evenodd" clip-rule="evenodd" d="M3.88534 5.7371C3.20538 6.36848 2.75 7.39295 2.75 9V13.8153C3.41962 13.4546 4.18582 13.25 5 13.25C7.62421 13.25 9.75 15.3758 9.75 18C9.75 18.4302 9.69177 18.8501 9.58173 19.25H17C18.385 19.25 19.4246 18.9036 20.1147 18.2629C20.7946 17.6315 21.25 16.607 21.25 15V9C21.25 7.39295 20.7946 6.36848 20.1147 5.7371C19.4246 5.09637 18.385 4.75 17 4.75H7C5.61497 4.75 4.57535 5.09637 3.88534 5.7371ZM1.25 9V15.0835C0.623242 15.8883 0.25 16.9004 0.25 18C0.25 18.8885 0.498325 19.7327 0.938497 20.4486C1.75938 21.8246 3.26803 22.75 5 22.75C6.60223 22.75 8.01335 21.958 8.86565 20.75H17C18.615 20.75 20.0754 20.3464 21.1353 19.3621C22.2054 18.3685 22.75 16.893 22.75 15V9C22.75 7.10705 22.2054 5.63152 21.1353 4.6379C20.0754 3.65363 18.615 3.25 17 3.25H7C5.38503 3.25 3.92465 3.65363 2.86466 4.6379C1.79462 5.63152 1.25 7.10705 1.25 9ZM12 10.25C11.0335 10.25 10.25 11.0335 10.25 12C10.25 12.9665 11.0335 13.75 12 13.75C12.9665 13.75 13.75 12.9665 13.75 12C13.75 11.0335 12.9665 10.25 12 10.25ZM8.75 12C8.75 10.2051 10.2051 8.75 12 8.75C13.7949 8.75 15.25 10.2051 15.25 12C15.25 13.7949 13.7949 15.25 12 15.25C10.2051 15.25 8.75 13.7949 8.75 12ZM19.25 9.5C19.25 9.08579 18.9142 8.75 18.5 8.75C18.0858 8.75 17.75 9.08579 17.75 9.5V14.5C17.75 14.9142 18.0858 15.25 18.5 15.25C18.9142 15.25 19.25 14.9142 19.25 14.5V9.5ZM5 14.75C3.20421 14.75 1.75 16.2042 1.75 18C1.75 18.6094 1.92053 19.1833 2.2184 19.6663L2.22469 19.6765L2.2246 19.6766C2.22934 19.6845 2.23412 19.6925 2.23892 19.7004L6.70634 15.233C6.21049 14.9267 5.626 14.75 5 14.75ZM7.767 16.2937L3.29435 20.7663C3.78809 21.0728 4.37216 21.25 5 21.25C6.18587 21.25 7.21559 20.6177 7.7754 19.6766L7.78152 19.6663L7.7816 19.6663C8.07947 19.1833 8.25 18.6094 8.25 18C8.25 17.374 8.07329 16.7895 7.767 16.2937Z" fill="#424B5A"/>
</svg>
