<svg width="24" height="24" viewBox="0 0 24 24" fill="none" xmlns="http://www.w3.org/2000/svg">
<path fill-rule="evenodd" clip-rule="evenodd" d="M2.75 8.5C2.75 6.89295 3.20538 5.86848 3.88534 5.2371C4.57535 4.59637 5.61497 4.25 7 4.25H17C18.385 4.25 19.4246 4.59637 20.1147 5.2371C20.7946 5.86848 21.25 6.89295 21.25 8.5V15.5C21.25 17.107 20.7946 18.1315 20.1147 18.7629C19.4246 19.4036 18.385 19.75 17 19.75H7C5.61497 19.75 4.57535 19.4036 3.88534 18.7629C3.20538 18.1315 2.75 17.107 2.75 15.5V8.5ZM7 2.75C5.38503 2.75 3.92465 3.15363 2.86466 4.1379C1.79462 5.13152 1.25 6.60705 1.25 8.5V15.5C1.25 17.393 1.79462 18.8685 2.86466 19.8621C3.92465 20.8464 5.38503 21.25 7 21.25H17C18.615 21.25 20.0754 20.8464 21.1353 19.8621C22.2054 18.8685 22.75 17.393 22.75 15.5V8.5C22.75 6.60705 22.2054 5.13152 21.1353 4.1379C20.0754 3.15363 18.615 2.75 17 2.75H7ZM9.75 12C9.75 10.7574 10.7574 9.75 12 9.75C13.2426 9.75 14.25 10.7574 14.25 12C14.25 13.2426 13.2426 14.25 12 14.25C10.7574 14.25 9.75 13.2426 9.75 12ZM12 8.25C9.92893 8.25 8.25 9.92893 8.25 12C8.25 14.0711 9.92893 15.75 12 15.75C14.0711 15.75 15.75 14.0711 15.75 12C15.75 9.92893 14.0711 8.25 12 8.25ZM3.75 8.5C3.75 6.70579 5.20579 5.25 7 5.25H8.5C8.91421 5.25 9.25 5.58579 9.25 6C9.25 6.41421 8.91421 6.75 8.5 6.75H7C6.03421 6.75 5.25 7.53421 5.25 8.5V10C5.25 10.4142 4.91421 10.75 4.5 10.75C4.08579 10.75 3.75 10.4142 3.75 10V8.5ZM15.5 5.25C15.0858 5.25 14.75 5.58579 14.75 6C14.75 6.41421 15.0858 6.75 15.5 6.75H17C17.9658 6.75 18.75 7.53421 18.75 8.5V10C18.75 10.4142 19.0858 10.75 19.5 10.75C19.9142 10.75 20.25 10.4142 20.25 10V8.5C20.25 6.70579 18.7942 5.25 17 5.25H15.5ZM4.5 13.25C4.91421 13.25 5.25 13.5858 5.25 14V15.5C5.25 16.4658 6.03421 17.25 7 17.25H8.5C8.91421 17.25 9.25 17.5858 9.25 18C9.25 18.4142 8.91421 18.75 8.5 18.75H7C5.20579 18.75 3.75 17.2942 3.75 15.5V14C3.75 13.5858 4.08579 13.25 4.5 13.25ZM20.25 14C20.25 13.5858 19.9142 13.25 19.5 13.25C19.0858 13.25 18.75 13.5858 18.75 14V15.5C18.75 16.4658 17.9658 17.25 17 17.25H15.5C15.0858 17.25 14.75 17.5858 14.75 18C14.75 18.4142 15.0858 18.75 15.5 18.75H17C18.7942 18.75 20.25 17.2942 20.25 15.5V14Z" fill="#424B5A"/>
</svg>
