<svg width="24" height="24" viewBox="0 0 24 24" fill="none" xmlns="http://www.w3.org/2000/svg">
<path fill-rule="evenodd" clip-rule="evenodd" d="M2.75 9C2.75 7.39295 3.20538 6.36848 3.88534 5.7371C4.57535 5.09637 5.61497 4.75 7 4.75H17C18.385 4.75 19.4246 5.09637 20.1147 5.7371C20.7946 6.36848 21.25 7.39295 21.25 9V15C21.25 16.607 20.7946 17.6315 20.1147 18.2629C19.4246 18.9036 18.385 19.25 17 19.25H9.58381C9.69217 18.8517 9.75 18.4326 9.75 18C9.75 15.3766 7.62335 13.25 5 13.25C4.18593 13.25 3.4197 13.4548 2.75 13.8157V9ZM1.25 15.0842V9C1.25 7.10705 1.79462 5.63152 2.86466 4.6379C3.92465 3.65363 5.38503 3.25 7 3.25H17C18.615 3.25 20.0754 3.65363 21.1353 4.6379C22.2054 5.63152 22.75 7.10705 22.75 9V15C22.75 16.893 22.2054 18.3685 21.1353 19.3621C20.0754 20.3464 18.615 20.75 17 20.75H8.87345C8.01254 21.9604 6.59848 22.75 5 22.75C2.37665 22.75 0.25 20.6234 0.25 18C0.25 16.9009 0.623289 15.889 1.25 15.0842ZM12 10.25C11.0335 10.25 10.25 11.0335 10.25 12C10.25 12.9665 11.0335 13.75 12 13.75C12.9665 13.75 13.75 12.9665 13.75 12C13.75 11.0335 12.9665 10.25 12 10.25ZM8.75 12C8.75 10.2051 10.2051 8.75 12 8.75C13.7949 8.75 15.25 10.2051 15.25 12C15.25 13.7949 13.7949 15.25 12 15.25C10.2051 15.25 8.75 13.7949 8.75 12ZM18.5 8.75C18.9142 8.75 19.25 9.08579 19.25 9.5V14.5C19.25 14.9142 18.9142 15.25 18.5 15.25C18.0858 15.25 17.75 14.9142 17.75 14.5V9.5C17.75 9.08579 18.0858 8.75 18.5 8.75ZM1.75 18C1.75 16.2051 3.20507 14.75 5 14.75C6.79493 14.75 8.25 16.2051 8.25 18C8.25 19.7949 6.79493 21.25 5 21.25C3.20507 21.25 1.75 19.7949 1.75 18ZM5.24999 16C5.6642 16 5.99999 16.3358 5.99999 16.75V17.68C5.99999 18.2837 5.68977 18.8641 5.14331 19.1847L4.38835 19.6416C4.03399 19.8561 3.57286 19.7427 3.35837 19.3884C3.14388 19.034 3.25727 18.5729 3.61163 18.3584L4.38333 17.8913C4.45271 17.851 4.49999 17.7738 4.49999 17.68V16.75C4.49999 16.3358 4.83577 16 5.24999 16Z" fill="#424B5A"/>
</svg>
