<svg width="24" height="24" viewBox="0 0 24 24" fill="none" xmlns="http://www.w3.org/2000/svg">
<path fill-rule="evenodd" clip-rule="evenodd" d="M2.75 9C2.75 7.39295 3.20538 6.36848 3.88534 5.7371C4.57535 5.09637 5.61497 4.75 7 4.75H17C18.385 4.75 19.4246 5.09637 20.1147 5.7371C20.7946 6.36848 21.25 7.39295 21.25 9V15C21.25 16.607 20.7946 17.6315 20.1147 18.2629C19.4246 18.9036 18.385 19.25 17 19.25H9.58173C9.69177 18.8501 9.75 18.4302 9.75 18C9.75 15.3758 7.62421 13.25 5 13.25C4.18582 13.25 3.41962 13.4546 2.75 13.8153V9ZM1.25 15.0835V9C1.25 7.10705 1.79462 5.63152 2.86466 4.6379C3.92465 3.65363 5.38503 3.25 7 3.25H17C18.615 3.25 20.0754 3.65363 21.1353 4.6379C22.2054 5.63152 22.75 7.10705 22.75 9V15C22.75 16.893 22.2054 18.3685 21.1353 19.3621C20.0754 20.3464 18.615 20.75 17 20.75H8.86565C8.01335 21.958 6.60223 22.75 5 22.75C3.26803 22.75 1.75938 21.8246 0.938497 20.4486C0.498325 19.7327 0.25 18.8885 0.25 18C0.25 16.9004 0.623242 15.8883 1.25 15.0835ZM10.25 12C10.25 11.0335 11.0335 10.25 12 10.25C12.9665 10.25 13.75 11.0335 13.75 12C13.75 12.9665 12.9665 13.75 12 13.75C11.0335 13.75 10.25 12.9665 10.25 12ZM12 8.75C10.2051 8.75 8.75 10.2051 8.75 12C8.75 13.7949 10.2051 15.25 12 15.25C13.7949 15.25 15.25 13.7949 15.25 12C15.25 10.2051 13.7949 8.75 12 8.75ZM18.5 8.75C18.9142 8.75 19.25 9.08579 19.25 9.5V14.5C19.25 14.9142 18.9142 15.25 18.5 15.25C18.0858 15.25 17.75 14.9142 17.75 14.5V9.5C17.75 9.08579 18.0858 8.75 18.5 8.75ZM1.75 18C1.75 16.2042 3.20421 14.75 5 14.75C6.79579 14.75 8.25 16.2042 8.25 18C8.25 18.6094 8.07947 19.1833 7.7816 19.6663L7.78152 19.6663L7.7754 19.6766C7.21559 20.6177 6.18587 21.25 5 21.25C3.81413 21.25 2.78441 20.6177 2.2246 19.6766L2.22469 19.6765L2.2184 19.6663C1.92053 19.1833 1.75 18.6094 1.75 18ZM3.43091 16.3997C3.72381 16.1068 4.19868 16.1068 4.49157 16.3997L5.01562 16.9237L5.50965 16.4297C5.80254 16.1368 6.27741 16.1368 6.57031 16.4297C6.8632 16.7226 6.8632 17.1975 6.57031 17.4904L6.07629 17.9844L6.60156 18.5096C6.89445 18.8025 6.89445 19.2774 6.60156 19.5703C6.30866 19.8632 5.83379 19.8632 5.5409 19.5703L5.01562 19.045L4.46032 19.6003C4.16743 19.8932 3.69256 19.8932 3.39966 19.6003C3.10677 19.3074 3.10677 18.8326 3.39966 18.5397L3.95496 17.9844L3.43091 17.4603C3.13802 17.1674 3.13802 16.6926 3.43091 16.3997Z" fill="#424B5A"/>
</svg>
