<svg width="24" height="24" viewBox="0 0 24 24" fill="none" xmlns="http://www.w3.org/2000/svg">
<path fill-rule="evenodd" clip-rule="evenodd" d="M2.75 6.73979C2.75 5.04897 2.97898 4.29397 3.37158 3.90137C3.76418 3.50876 4.51919 3.27979 6.21 3.27979H16.74C18.4308 3.27979 19.1858 3.50876 19.5784 3.90137C19.971 4.29397 20.2 5.04897 20.2 6.73979C20.2 7.154 20.5358 7.48979 20.95 7.48979C21.3642 7.48979 21.7 7.154 21.7 6.73979C21.7 5.0606 21.509 3.7106 20.6391 2.84071C19.7692 1.97081 18.4192 1.77979 16.74 1.77979H6.21C4.53081 1.77979 3.18082 1.97081 2.31092 2.84071C1.44102 3.7106 1.25 5.0606 1.25 6.73979V12.7398C1.25 12.799 1.25024 12.8579 1.25073 12.9163C1.25025 12.9274 1.25 12.9386 1.25 12.9498C1.25 12.9665 1.25055 12.9831 1.25162 12.9995C1.27175 14.5583 1.48635 15.8143 2.31092 16.6389C3.18082 17.5088 4.53081 17.6998 6.21 17.6998H9.25V20.7198H6.74C6.32579 20.7198 5.99 21.0556 5.99 21.4698C5.99 21.884 6.32579 22.2198 6.74 22.2198H10C10.4142 22.2198 10.75 21.884 10.75 21.4698V16.9498C10.75 16.5356 10.4142 16.1998 10 16.1998H6.21C4.51919 16.1998 3.76418 15.9708 3.37158 15.5782C3.06274 15.2694 2.85515 14.7363 2.78063 13.6998H10C10.4142 13.6998 10.75 13.364 10.75 12.9498C10.75 12.5356 10.4142 12.1998 10 12.1998H2.75V6.73979ZM13.6516 10.9614C13.4465 11.1664 13.28 11.6088 13.28 12.7998V18.5098C13.28 19.7008 13.4465 20.1432 13.6516 20.3482C13.8566 20.5532 14.299 20.7198 15.49 20.7198H19.04C20.231 20.7198 20.6734 20.5532 20.8784 20.3482C21.0835 20.1432 21.25 19.7008 21.25 18.5098V12.7998C21.25 11.6088 21.0835 11.1664 20.8784 10.9614C20.6734 10.7563 20.231 10.5898 19.04 10.5898H15.49C14.299 10.5898 13.8566 10.7563 13.6516 10.9614ZM12.5909 9.90071C13.2734 9.21825 14.311 9.08979 15.49 9.08979H19.04C20.219 9.08979 21.2566 9.21825 21.9391 9.90071C22.6215 10.5832 22.75 11.6208 22.75 12.7998V18.5098C22.75 19.6888 22.6215 20.7264 21.9391 21.4089C21.2566 22.0913 20.219 22.2198 19.04 22.2198H15.49C14.311 22.2198 13.2734 22.0913 12.5909 21.4089C11.9085 20.7264 11.78 19.6888 11.78 18.5098V12.7998C11.78 11.6208 11.9085 10.5832 12.5909 9.90071ZM17.2445 17.2498C16.6922 17.2498 16.2445 17.6975 16.2445 18.2498C16.2445 18.8021 16.6922 19.2498 17.2445 19.2498H17.2535C17.8058 19.2498 18.2535 18.8021 18.2535 18.2498C18.2535 17.6975 17.8058 17.2498 17.2535 17.2498H17.2445Z" fill="#424B5A"/>
</svg>
