<svg width="24" height="24" viewBox="0 0 24 24" fill="none" xmlns="http://www.w3.org/2000/svg">
<path fill-rule="evenodd" clip-rule="evenodd" d="M2.75 6.44C2.75 4.66007 2.9912 3.84696 3.41908 3.41908C3.84696 2.9912 4.66007 2.75 6.44 2.75H17.55C19.3353 2.75 20.1511 2.99129 20.5802 3.41958C21.0088 3.84736 21.25 4.66 21.25 6.44V12.25H2.75V6.44ZM22.75 12.77C22.75 12.8352 22.7497 12.8998 22.7492 12.964C22.7497 12.9759 22.75 12.9879 22.75 13C22.75 13.0178 22.7494 13.0355 22.7482 13.053C22.7261 14.6943 22.4978 16.0007 21.6411 16.8558C20.7361 17.7591 19.3286 17.96 17.56 17.96H12.75V21.25H16.5C16.9142 21.25 17.25 21.5858 17.25 22C17.25 22.4142 16.9142 22.75 16.5 22.75H12H7.5C7.08579 22.75 6.75 22.4142 6.75 22C6.75 21.5858 7.08579 21.25 7.5 21.25H11.25V17.96H6.44109C4.67161 17.9649 3.26422 17.7644 2.35892 16.8608C1.50033 16.0038 1.27286 14.6935 1.25169 13.0508C1.25057 13.034 1.25 13.0171 1.25 13C1.25 12.9884 1.25026 12.9769 1.25078 12.9655C1.25025 12.9041 1.25 12.8423 1.25 12.78V6.44C1.25 4.66993 1.4538 3.26304 2.35842 2.35842C3.26304 1.4538 4.66993 1.25 6.44 1.25H17.55C19.3247 1.25 20.7339 1.45371 21.6398 2.35792C22.5462 3.26264 22.75 4.67 22.75 6.44V12.77ZM2.77941 13.75H21.2201C21.1433 14.8723 20.921 15.4552 20.5814 15.7942C20.1539 16.2209 19.3414 16.46 17.56 16.46L6.44 16.46L6.43789 16.46C4.65785 16.465 3.8456 16.2254 3.41858 15.7992C3.07813 15.4594 2.85572 14.8744 2.77941 13.75Z" fill="#424B5A"/>
</svg>
