<svg width="24" height="24" viewBox="0 0 24 24" fill="none" xmlns="http://www.w3.org/2000/svg">
<path fill-rule="evenodd" clip-rule="evenodd" d="M10.235 1.62984C10.8575 2.21519 10.7141 3.10867 10.4176 3.78943L10.4171 3.7906C9.96784 4.81751 9.72082 5.94337 9.72998 7.13421L9.73 7.13688C9.74829 11.5563 13.4219 15.3266 17.9206 15.5106L17.9212 15.5106C18.5855 15.5383 19.2204 15.4922 19.8368 15.3819C20.2417 15.3082 20.6356 15.2958 20.9883 15.378C21.3478 15.4619 21.7049 15.6568 21.9262 16.0189C22.1466 16.3795 22.158 16.7846 22.0736 17.14C21.9904 17.4901 21.8067 17.8358 21.5644 18.164C19.4403 21.0702 15.9041 22.9104 11.9575 22.7393L11.957 22.7393C6.35634 22.493 1.66959 18.0129 1.28189 12.4732C0.927649 7.5624 3.84215 3.28549 8.07857 1.49892C8.75838 1.21098 9.63587 1.06646 10.235 1.62984ZM9.17015 2.74535C9.07007 2.74811 8.90192 2.77908 8.66277 2.88048L8.66143 2.88105C4.97809 4.43437 2.47268 8.13707 2.77805 12.366L2.77818 12.3677C3.11089 17.1274 7.1637 21.0268 12.0225 21.2407M9.25048 2.7515C9.25045 2.75153 9.24962 2.75131 9.2481 2.75071C9.24975 2.75116 9.25051 2.75146 9.25048 2.7515ZM9.17015 2.74535C9.16421 2.83328 9.13408 2.97978 9.04266 3.18988C8.51224 4.40245 8.21937 5.73596 8.23001 7.14442C8.25244 12.3844 12.5786 16.7934 17.8594 17.0094C18.6346 17.0416 19.3791 16.9877 20.1022 16.8582L20.1046 16.8578C20.344 16.8141 20.5062 16.8161 20.6039 16.8306C20.5738 16.9267 20.5032 17.0761 20.3568 17.2743L20.3544 17.2775C18.5185 19.7903 15.4555 21.3894 12.023 21.2407M20.6952 16.854C20.6952 16.854 20.6947 16.8538 20.6939 16.8533L20.6952 16.854ZM20.6226 16.74C20.6224 16.7387 20.6224 16.738 20.6225 16.7379C20.6225 16.7379 20.6226 16.7386 20.6226 16.74Z" fill="#424B5A"/>
</svg>
