<svg width="24" height="24" viewBox="0 0 24 24" fill="none" xmlns="http://www.w3.org/2000/svg">
<path fill-rule="evenodd" clip-rule="evenodd" d="M12 1.25C6.08579 1.25 1.25 6.08579 1.25 12C1.25 17.9142 6.08579 22.75 12 22.75C17.9142 22.75 22.75 17.9142 22.75 12C22.75 6.08579 17.9142 1.25 12 1.25ZM2.75 12C2.75 6.91421 6.91421 2.75 12 2.75C17.0858 2.75 21.25 6.91421 21.25 12C21.25 17.0858 17.0858 21.25 12 21.25C6.91421 21.25 2.75 17.0858 2.75 12ZM15.9965 10.5C15.168 10.5 14.4965 11.1716 14.4965 12C14.4965 12.8284 15.168 13.5 15.9965 13.5H16.0054C16.8339 13.5 17.5054 12.8284 17.5054 12C17.5054 11.1716 16.8339 10.5 16.0054 10.5H15.9965ZM10.4955 12C10.4955 11.1716 11.1671 10.5 11.9955 10.5H12.0045C12.8329 10.5 13.5045 11.1716 13.5045 12C13.5045 12.8284 12.8329 13.5 12.0045 13.5H11.9955C11.1671 13.5 10.4955 12.8284 10.4955 12ZM7.99451 10.5C7.16608 10.5 6.49451 11.1716 6.49451 12C6.49451 12.8284 7.16608 13.5 7.99451 13.5H8.00349C8.83192 13.5 9.50349 12.8284 9.50349 12C9.50349 11.1716 8.83192 10.5 8.00349 10.5H7.99451Z" fill="#424B5A"/>
</svg>
