<svg width="24" height="24" viewBox="0 0 24 24" fill="none" xmlns="http://www.w3.org/2000/svg">
<path fill-rule="evenodd" clip-rule="evenodd" d="M9 1.25C6.42603 1.25 4.42914 1.7602 3.09467 3.09467C1.7602 4.42914 1.25 6.42603 1.25 9V15C1.25 17.574 1.7602 19.5709 3.09467 20.9053C4.42914 22.2398 6.42603 22.75 9 22.75H15C17.574 22.75 19.5709 22.2398 20.9053 20.9053C22.2398 19.5709 22.75 17.574 22.75 15V9C22.75 6.42603 22.2398 4.42914 20.9053 3.09467C19.5709 1.7602 17.574 1.25 15 1.25H9ZM2.75 9C2.75 6.57397 3.2398 5.07086 4.15533 4.15533C5.07086 3.2398 6.57397 2.75 9 2.75H15C17.426 2.75 18.9291 3.2398 19.8447 4.15533C20.7602 5.07086 21.25 6.57397 21.25 9V15C21.25 17.426 20.7602 18.9291 19.8447 19.8447C18.9291 20.7602 17.426 21.25 15 21.25H9C6.57397 21.25 5.07086 20.7602 4.15533 19.8447C3.2398 18.9291 2.75 17.426 2.75 15V9ZM15.9965 11C15.4442 11 14.9965 11.4477 14.9965 12C14.9965 12.5523 15.4442 13 15.9965 13H16.0054C16.5577 13 17.0054 12.5523 17.0054 12C17.0054 11.4477 16.5577 11 16.0054 11H15.9965ZM10.9955 12C10.9955 11.4477 11.4432 11 11.9955 11H12.0045C12.5568 11 13.0045 11.4477 13.0045 12C13.0045 12.5523 12.5568 13 12.0045 13H11.9955C11.4432 13 10.9955 12.5523 10.9955 12ZM7.99451 11C7.44222 11 6.99451 11.4477 6.99451 12C6.99451 12.5523 7.44222 13 7.99451 13H8.00349C8.55577 13 9.00349 12.5523 9.00349 12C9.00349 11.4477 8.55577 11 8.00349 11H7.99451Z" fill="#424B5A"/>
</svg>
