<svg width="24" height="24" viewBox="0 0 24 24" fill="none" xmlns="http://www.w3.org/2000/svg">
<path fill-rule="evenodd" clip-rule="evenodd" d="M9 1.25C6.42603 1.25 4.42914 1.7602 3.09467 3.09467C1.7602 4.42914 1.25 6.42603 1.25 9V15C1.25 17.574 1.7602 19.5709 3.09467 20.9053C4.42914 22.2398 6.42603 22.75 9 22.75H12C12.4142 22.75 12.75 22.4142 12.75 22C12.75 21.5858 12.4142 21.25 12 21.25H9C6.57397 21.25 5.07086 20.7602 4.15533 19.8447C3.2398 18.9291 2.75 17.426 2.75 15V9C2.75 6.57397 3.2398 5.07086 4.15533 4.15533C5.07086 3.2398 6.57397 2.75 9 2.75H15C17.426 2.75 18.9291 3.2398 19.8447 4.15533C20.7602 5.07086 21.25 6.57397 21.25 9V12C21.25 12.4142 21.5858 12.75 22 12.75C22.4142 12.75 22.75 12.4142 22.75 12V9C22.75 6.42603 22.2398 4.42914 20.9053 3.09467C19.5709 1.7602 17.574 1.25 15 1.25H9ZM15.646 20.7266L13.7969 14.7795C13.6093 14.1605 14.1774 13.6228 14.7539 13.8051L14.7577 13.8063L20.7151 15.6555L20.7162 15.6558C21.4174 15.8773 21.4368 16.8888 20.7213 17.129L20.7202 17.1294L19.0928 17.6785L19.0914 17.679C18.4253 17.9015 17.885 18.4224 17.6583 19.1135L17.1094 20.7402L17.1085 20.7428C16.8715 21.4537 15.8718 21.4497 15.646 20.7266ZM12.3626 15.2188C11.8319 13.4792 13.4419 11.8187 15.2041 12.3742L15.2061 12.3749L21.1649 14.2245C23.2624 14.8837 23.282 17.8509 21.1987 18.551L19.5672 19.1015C19.3352 19.1788 19.1569 19.3561 19.083 19.5825L19.0806 19.5898L18.5315 21.2172L18.531 21.2186C17.8272 23.3262 14.868 23.2689 14.2138 21.1727L12.3626 15.2188Z" fill="#424B5A"/>
</svg>
