<svg width="24" height="24" viewBox="0 0 24 24" fill="none" xmlns="http://www.w3.org/2000/svg">
<path fill-rule="evenodd" clip-rule="evenodd" d="M12 1.25C6.06579 1.25 1.25 6.06579 1.25 12C1.25 17.9342 6.06579 22.75 12 22.75C12.4142 22.75 12.75 22.4142 12.75 22C12.75 21.5858 12.4142 21.25 12 21.25C6.89421 21.25 2.75 17.1058 2.75 12C2.75 6.89421 6.89421 2.75 12 2.75C17.1058 2.75 21.25 6.89421 21.25 12C21.25 12.4142 21.5858 12.75 22 12.75C22.4142 12.75 22.75 12.4142 22.75 12C22.75 6.06579 17.9342 1.25 12 1.25ZM15.646 20.7266L13.7969 14.7795C13.6093 14.1605 14.1774 13.6228 14.7539 13.8051L14.7577 13.8063L20.7151 15.6555L20.7162 15.6558C21.4174 15.8772 21.4368 16.8888 20.7213 17.129L20.7202 17.1294L19.0928 17.6785L19.0914 17.679C18.4253 17.9015 17.885 18.4224 17.6583 19.1135L17.1094 20.7402L17.1085 20.7428C16.8715 21.4537 15.8719 21.4496 15.646 20.7266ZM12.3626 15.2188C11.8319 13.4792 13.4419 11.8187 15.2041 12.3742L15.2061 12.3749L21.1649 14.2245C23.2624 14.8837 23.282 17.8509 21.1987 18.551L19.5672 19.1015C19.3352 19.1788 19.1569 19.3561 19.0831 19.5825L19.0806 19.5898L18.5315 21.2172L18.5311 21.2185C17.8272 23.3262 14.868 23.2689 14.2138 21.1727L12.3626 15.2188Z" fill="#424B5A"/>
</svg>
