<svg width="24" height="24" viewBox="0 0 24 24" fill="none" xmlns="http://www.w3.org/2000/svg">
<path fill-rule="evenodd" clip-rule="evenodd" d="M4.07408 4.07409C3.2148 4.93338 2.75 6.349 2.75 8.65002V14.35C2.75 16.651 3.2148 18.0666 4.07408 18.9259C4.93336 19.7852 6.34897 20.25 8.64999 20.25H12.35C12.7642 20.25 13.1 20.5858 13.1 21C13.1 21.4142 12.7642 21.75 12.35 21.75H8.64999C6.20102 21.75 4.29163 21.2648 3.01341 19.9866C1.7352 18.7083 1.25 16.7989 1.25 14.35V8.65002C1.25 6.20105 1.7352 4.29166 3.01341 3.01343C4.29163 1.73521 6.20102 1.25 8.64999 1.25H14.35C16.799 1.25 18.7084 1.73521 19.9866 3.01343C21.2648 4.29166 21.75 6.20105 21.75 8.65002V12.35C21.75 12.7642 21.4142 13.1 21 13.1C20.5858 13.1 20.25 12.7642 20.25 12.35V8.65002C20.25 6.349 19.7852 4.93338 18.9259 4.07409C18.0666 3.2148 16.651 2.75 14.35 2.75H8.64999C6.34897 2.75 4.93336 3.2148 4.07408 4.07409Z" fill="#424B5A"/>
<path fill-rule="evenodd" clip-rule="evenodd" d="M6.72 12.27C6.33337 12.27 6.02 12.5834 6.02 12.97C6.02 13.3566 6.33341 13.67 6.72 13.67C7.10659 13.67 7.42 13.3566 7.42 12.97C7.42 12.5834 7.10663 12.27 6.72 12.27ZM4.52 12.97C4.52 11.7549 5.50501 10.77 6.72 10.77C7.935 10.77 8.92 11.7549 8.92 12.97C8.92 14.185 7.93504 15.17 6.72 15.17C5.50496 15.17 4.52 14.185 4.52 12.97Z" fill="#424B5A"/>
<path fill-rule="evenodd" clip-rule="evenodd" d="M13.3808 4.57843C13.9838 4.92754 14.23 5.58497 14.23 6.34001V12C14.23 12.4142 13.8942 12.75 13.48 12.75C13.0658 12.75 12.73 12.4142 12.73 12V6.34001C12.73 6.11166 12.6936 5.98811 12.6672 5.93051C12.6462 5.88457 12.6313 5.87755 12.6294 5.87664C12.6293 5.8766 12.6294 5.87666 12.6294 5.87664C12.6032 5.86149 12.4665 5.81813 12.1598 5.90288L12.1578 5.90344L9.26499 6.69417C9.04869 6.7524 8.92999 6.8931 8.92999 7.12999V12.97C8.92999 13.3842 8.59421 13.72 8.17999 13.72C7.76578 13.72 7.42999 13.3842 7.42999 12.97V7.12999C7.42999 6.16748 8.05055 5.46838 8.87348 5.24616L11.7603 4.45706C11.7606 4.45697 11.761 4.45687 11.7613 4.45677C12.2145 4.33172 12.8374 4.26381 13.3808 4.57843Z" fill="#424B5A"/>
<path fill-rule="evenodd" clip-rule="evenodd" d="M12.03 11.3C11.6434 11.3 11.33 11.6134 11.33 12C11.33 12.3866 11.6434 12.7 12.03 12.7C12.4166 12.7 12.73 12.3866 12.73 12C12.73 11.6134 12.4166 11.3 12.03 11.3ZM9.83 12C9.83 10.785 10.815 9.79999 12.03 9.79999C13.245 9.79999 14.23 10.785 14.23 12C14.23 13.215 13.245 14.2 12.03 14.2C10.815 14.2 9.83 13.215 9.83 12Z" fill="#424B5A"/>
<path fill-rule="evenodd" clip-rule="evenodd" d="M14.2035 7.18243C14.3126 7.58202 14.0772 7.9944 13.6776 8.10351L8.36757 9.55353C7.96799 9.66264 7.5556 9.42717 7.44649 9.02759C7.33737 8.628 7.57284 8.21562 7.97243 8.10651L13.2824 6.6565C13.682 6.54738 14.0944 6.78285 14.2035 7.18243Z" fill="#424B5A"/>
<path fill-rule="evenodd" clip-rule="evenodd" d="M17.94 15.63C16.5869 15.63 15.49 16.7269 15.49 18.08C15.49 19.4331 16.5869 20.53 17.94 20.53C19.2931 20.53 20.39 19.4331 20.39 18.08C20.39 16.7269 19.2931 15.63 17.94 15.63ZM13.99 18.08C13.99 15.8985 15.7585 14.13 17.94 14.13C20.1215 14.13 21.89 15.8985 21.89 18.08C21.89 20.2615 20.1215 22.03 17.94 22.03C15.7585 22.03 13.99 20.2615 13.99 18.08Z" fill="#424B5A"/>
<path fill-rule="evenodd" clip-rule="evenodd" d="M20.2097 20.3497C20.5026 20.0568 20.9774 20.0568 21.2703 20.3497L22.2703 21.3497C22.5632 21.6426 22.5632 22.1174 22.2703 22.4103C21.9774 22.7032 21.5026 22.7032 21.2097 22.4103L20.2097 21.4103C19.9168 21.1174 19.9168 20.6426 20.2097 20.3497Z" fill="#424B5A"/>
</svg>
