<svg width="24" height="24" viewBox="0 0 24 24" fill="none" xmlns="http://www.w3.org/2000/svg">
<path fill-rule="evenodd" clip-rule="evenodd" d="M4.07408 4.07409C3.2148 4.93338 2.75 6.349 2.75 8.65002V14.35C2.75 16.651 3.2148 18.0666 4.07408 18.9259C4.93336 19.7852 6.34898 20.25 8.65 20.25H13.8231C13.4552 19.5787 13.25 18.8077 13.25 18C13.25 15.3758 15.3758 13.25 18 13.25C18.8104 13.25 19.5792 13.4532 20.25 13.8148V8.65002C20.25 6.349 19.7852 4.93338 18.9259 4.07409C18.0666 3.2148 16.651 2.75 14.35 2.75H8.65C6.34898 2.75 4.93336 3.2148 4.07408 4.07409ZM3.01342 3.01343C4.29164 1.73521 6.20103 1.25 8.65 1.25H14.35C16.799 1.25 18.7084 1.73521 19.9866 3.01343C21.2648 4.29166 21.75 6.20105 21.75 8.65002V14.35C21.75 14.7043 21.7396 15.0506 21.7184 15.3783C21.6989 15.6811 21.4989 15.9423 21.2117 16.04C20.9244 16.1378 20.6066 16.0529 20.4064 15.8249C19.8272 15.1652 18.9617 14.75 18 14.75C16.2042 14.75 14.75 16.2042 14.75 18C14.75 18.6094 14.9205 19.1833 15.2184 19.6663L15.2265 19.6797C15.3841 19.9477 15.5911 20.1951 15.8312 20.4032C16.0611 20.6025 16.1479 20.921 16.0508 21.2093C15.9537 21.4977 15.6919 21.6988 15.3883 21.7184C15.0604 21.7396 14.7142 21.75 14.35 21.75H8.65C6.20103 21.75 4.29164 21.2648 3.01342 19.9866C1.7352 18.7083 1.25 16.7989 1.25 14.35V8.65002C1.25 6.20105 1.7352 4.29166 3.01342 3.01343Z" fill="#424B5A"/>
<path fill-rule="evenodd" clip-rule="evenodd" d="M6.72 12.27C6.33337 12.27 6.02 12.5834 6.02 12.97C6.02 13.3566 6.33341 13.67 6.72 13.67C7.10659 13.67 7.42 13.3566 7.42 12.97C7.42 12.5834 7.10663 12.27 6.72 12.27ZM4.52 12.97C4.52 11.7549 5.50501 10.77 6.72 10.77C7.935 10.77 8.92 11.7549 8.92 12.97C8.92 14.185 7.93504 15.17 6.72 15.17C5.50497 15.17 4.52 14.185 4.52 12.97Z" fill="#424B5A"/>
<path fill-rule="evenodd" clip-rule="evenodd" d="M13.3708 4.57843C13.9738 4.92753 14.22 5.58497 14.22 6.34001V12C14.22 12.4142 13.8842 12.75 13.47 12.75C13.0558 12.75 12.72 12.4142 12.72 12V6.34001C12.72 6.11166 12.6836 5.98812 12.6572 5.93051C12.6362 5.88458 12.6213 5.87756 12.6194 5.87664C12.6193 5.8766 12.6194 5.87666 12.6194 5.87664C12.5932 5.86149 12.4565 5.81813 12.1497 5.90288L12.1478 5.90344L9.25498 6.69417C9.0387 6.7524 8.92 6.89308 8.92 7.12999V12.97C8.92 13.3842 8.58421 13.72 8.17 13.72C7.75578 13.72 7.42 13.3842 7.42 12.97V7.12999C7.42 6.16749 8.04052 5.46838 8.86347 5.24616L11.7502 4.45706C11.7506 4.45697 11.7509 4.45687 11.7513 4.45677C12.2045 4.33172 12.8274 4.26381 13.3708 4.57843Z" fill="#424B5A"/>
<path fill-rule="evenodd" clip-rule="evenodd" d="M12.03 11.3C11.6434 11.3 11.33 11.6134 11.33 12C11.33 12.3866 11.6434 12.7 12.03 12.7C12.4166 12.7 12.73 12.3866 12.73 12C12.73 11.6134 12.4166 11.3 12.03 11.3ZM9.83 12C9.83 10.785 10.815 9.79999 12.03 9.79999C13.245 9.79999 14.23 10.785 14.23 12C14.23 13.215 13.245 14.2 12.03 14.2C10.815 14.2 9.83 13.215 9.83 12Z" fill="#424B5A"/>
<path fill-rule="evenodd" clip-rule="evenodd" d="M14.1934 7.18209C14.3027 7.58162 14.0674 7.99411 13.6679 8.10342L8.36792 9.55343C7.96838 9.66274 7.55589 9.42747 7.44658 9.02793C7.33728 8.6284 7.57255 8.21591 7.97208 8.1066L13.2721 6.65659C13.6716 6.54728 14.0841 6.78256 14.1934 7.18209Z" fill="#424B5A"/>
<path fill-rule="evenodd" clip-rule="evenodd" d="M18 14.75C16.2042 14.75 14.75 16.2042 14.75 18C14.75 18.6094 14.9205 19.1833 15.2184 19.6663L15.2265 19.6797C15.3841 19.9477 15.5911 20.1951 15.8312 20.4032L15.8461 20.4164C16.4129 20.9347 17.1641 21.25 18 21.25C19.1859 21.25 20.2156 20.6177 20.7754 19.6766L20.7815 19.6663C21.0794 19.1833 21.25 18.6094 21.25 18C21.25 17.1739 20.9345 16.4108 20.4129 15.8322L20.4064 15.8249C19.8272 15.1652 18.9617 14.75 18 14.75ZM13.25 18C13.25 15.3758 15.3758 13.25 18 13.25C19.3965 13.25 20.6696 13.8533 21.5303 14.8315C22.2868 15.6724 22.75 16.7878 22.75 18C22.75 18.8885 22.5017 19.7327 22.0615 20.4486C21.2406 21.8246 19.732 22.75 18 22.75C16.7795 22.75 15.6736 22.288 14.8413 21.5302C14.4865 21.2213 14.1777 20.8535 13.9375 20.447C13.4979 19.7315 13.25 18.8879 13.25 18Z" fill="#424B5A"/>
<path fill-rule="evenodd" clip-rule="evenodd" d="M16.4184 16.4009C16.7106 16.1073 17.1855 16.1062 17.4791 16.3984L19.5991 18.5084C19.8927 18.8006 19.8938 19.2755 19.6016 19.569C19.3094 19.8626 18.8345 19.8638 18.5409 19.5716L16.4209 17.4616C16.1273 17.1694 16.1262 16.6945 16.4184 16.4009Z" fill="#424B5A"/>
<path fill-rule="evenodd" clip-rule="evenodd" d="M19.5816 16.4309C19.8738 16.7245 19.8727 17.1994 19.5791 17.4916L17.4591 19.6016C17.1655 19.8938 16.6906 19.8927 16.3984 19.5991C16.1062 19.3055 16.1073 18.8306 16.4009 18.5384L18.5209 16.4284C18.8145 16.1362 19.2894 16.1374 19.5816 16.4309Z" fill="#424B5A"/>
</svg>
