<svg width="24" height="24" viewBox="0 0 24 24" fill="none" xmlns="http://www.w3.org/2000/svg">
<path fill-rule="evenodd" clip-rule="evenodd" d="M3.09467 3.09467C4.42914 1.7602 6.42603 1.25 9 1.25H15C17.574 1.25 19.5709 1.7602 20.9053 3.09467C22.2398 4.42914 22.75 6.42603 22.75 9V15C22.75 17.574 22.2398 19.5709 20.9053 20.9053C19.5709 22.2398 17.574 22.75 15 22.75H9C6.42603 22.75 4.42914 22.2398 3.09467 20.9053C1.7602 19.5709 1.25 17.574 1.25 15V9C1.25 6.42603 1.7602 4.42914 3.09467 3.09467ZM4.15533 4.15533C3.2398 5.07086 2.75 6.57397 2.75 9V15C2.75 17.426 3.2398 18.9291 4.15533 19.8447C5.07086 20.7602 6.57397 21.25 9 21.25H15C17.426 21.25 18.9291 20.7602 19.8447 19.8447C20.7602 18.9291 21.25 17.426 21.25 15V9C21.25 6.57397 20.7602 5.07086 19.8447 4.15533C18.9291 3.2398 17.426 2.75 15 2.75H9C6.57397 2.75 5.07086 3.2398 4.15533 4.15533Z" fill="#424B5A"/>
<path fill-rule="evenodd" clip-rule="evenodd" d="M7 1.75C7.41421 1.75 7.75 2.08579 7.75 2.5V21.5C7.75 21.9142 7.41421 22.25 7 22.25C6.58579 22.25 6.25 21.9142 6.25 21.5V2.5C6.25 2.08579 6.58579 1.75 7 1.75Z" fill="#424B5A"/>
<path fill-rule="evenodd" clip-rule="evenodd" d="M11.47 14.57C11.0613 14.57 10.73 14.9013 10.73 15.31C10.73 15.7187 11.0613 16.05 11.47 16.05C11.8787 16.05 12.21 15.7187 12.21 15.31C12.21 14.9013 11.8787 14.57 11.47 14.57ZM9.23 15.31C9.23 14.0729 10.2329 13.07 11.47 13.07C12.7071 13.07 13.71 14.0729 13.71 15.31C13.71 16.5471 12.7071 17.55 11.47 17.55C10.2329 17.55 9.23 16.5471 9.23 15.31Z" fill="#424B5A"/>
<path fill-rule="evenodd" clip-rule="evenodd" d="M18.319 6.68828C18.9282 7.0434 19.18 7.70872 19.18 8.47996V14.31C19.18 14.7242 18.8442 15.06 18.43 15.06C18.0158 15.06 17.68 14.7242 17.68 14.31V8.47996C17.68 8.24431 17.6424 8.11445 17.6136 8.05154C17.5898 7.99938 17.5709 7.98843 17.564 7.98446C17.5267 7.9627 17.3759 7.91922 17.0545 8.00434L14.0791 8.81311C13.8361 8.88115 13.71 9.03632 13.71 9.28995V15.3C13.71 15.7142 13.3742 16.05 12.96 16.05C12.5458 16.05 12.21 15.7142 12.21 15.3V9.28995C12.21 8.30417 12.8433 7.59956 13.6793 7.36736L13.6833 7.36625L16.6673 6.55516C17.1346 6.43094 17.7689 6.36762 18.319 6.68828Z" fill="#424B5A"/>
<path fill-rule="evenodd" clip-rule="evenodd" d="M16.93 13.57C16.5213 13.57 16.19 13.9013 16.19 14.31C16.19 14.7187 16.5213 15.05 16.93 15.05C17.3387 15.05 17.67 14.7187 17.67 14.31C17.67 13.9013 17.3387 13.57 16.93 13.57ZM14.69 14.31C14.69 13.0729 15.6929 12.07 16.93 12.07C18.1671 12.07 19.17 13.0729 19.17 14.31C19.17 15.5471 18.1671 16.55 16.93 16.55C15.6929 16.55 14.69 15.5471 14.69 14.31Z" fill="#424B5A"/>
<path fill-rule="evenodd" clip-rule="evenodd" d="M19.1536 9.35287C19.2625 9.75253 19.0268 10.1648 18.6271 10.2736L13.1571 11.7636C12.7575 11.8725 12.3452 11.6367 12.2364 11.2371C12.1275 10.8374 12.3632 10.4252 12.7629 10.3163L18.2329 8.82635C18.6325 8.71749 19.0448 8.95322 19.1536 9.35287Z" fill="#424B5A"/>
</svg>
