<svg width="24" height="24" viewBox="0 0 24 24" fill="none" xmlns="http://www.w3.org/2000/svg">
<path fill-rule="evenodd" clip-rule="evenodd" d="M6.30284 3.75796C6.56353 4.07986 6.51391 4.55213 6.19202 4.81282C4.87725 5.8776 3.8602 7.29311 3.28738 8.91918C3.14975 9.30986 2.72147 9.515 2.33079 9.37737C1.94011 9.23975 1.73497 8.81147 1.8726 8.42079C2.53978 6.52686 3.72275 4.88236 5.24798 3.64714C5.56988 3.38645 6.04215 3.43607 6.30284 3.75796Z" fill="#424B5A"/>
<path fill-rule="evenodd" clip-rule="evenodd" d="M2 11.25C2.41421 11.25 2.75 11.5858 2.75 12C2.75 13.0795 2.94366 14.1147 3.2866 15.0786C3.42544 15.4689 3.22163 15.8978 2.83138 16.0366C2.44113 16.1755 2.01221 15.9717 1.87337 15.5814C1.47631 14.4653 1.25 13.2605 1.25 12C1.25 11.5858 1.58579 11.25 2 11.25Z" fill="#424B5A"/>
<path fill-rule="evenodd" clip-rule="evenodd" d="M21.7104 9.50127C22.1184 9.4297 22.5071 9.70241 22.5787 10.1104C22.6851 10.7165 22.75 11.3503 22.75 12C22.75 17.9342 17.9342 22.75 12 22.75C10.9157 22.75 9.86214 22.589 8.87163 22.2875C8.47536 22.1669 8.25189 21.7479 8.37249 21.3516C8.49309 20.9554 8.9121 20.7319 9.30837 20.8525C10.1579 21.111 11.0643 21.25 12 21.25C17.1058 21.25 21.25 17.1058 21.25 12C21.25 11.4497 21.1949 10.9035 21.1013 10.3696C21.0297 9.96161 21.3024 9.57285 21.7104 9.50127Z" fill="#424B5A"/>
<path fill-rule="evenodd" clip-rule="evenodd" d="M3.90786 17.924C4.22043 17.6522 4.69415 17.6853 4.96595 17.9979C5.33207 18.4189 5.74895 18.8089 6.19154 19.1668C6.51365 19.4272 6.56365 19.8994 6.30322 20.2215C6.0428 20.5436 5.57056 20.5936 5.24846 20.3332C4.75106 19.9311 4.26792 19.4811 3.83404 18.9821C3.56224 18.6696 3.59529 18.1958 3.90786 17.924Z" fill="#424B5A"/>
<path fill-rule="evenodd" clip-rule="evenodd" d="M8.87163 1.71249C9.86214 1.41103 10.9157 1.25 12 1.25C15.6775 1.25 18.9243 3.10045 20.8582 5.91533C21.0927 6.25674 21.0061 6.72364 20.6647 6.9582C20.3233 7.19275 19.8564 7.10613 19.6218 6.76472C17.9557 4.3396 15.1625 2.75 12 2.75C11.0643 2.75 10.1579 2.88896 9.30837 3.1475C8.9121 3.2681 8.49309 3.04463 8.37249 2.64836C8.25189 2.2521 8.47536 1.83309 8.87163 1.71249Z" fill="#424B5A"/>
<path fill-rule="evenodd" clip-rule="evenodd" d="M8.59 14.68C8.1261 14.68 7.75 15.0561 7.75 15.52C7.75 15.9839 8.12606 16.36 8.59 16.36C9.05393 16.36 9.42999 15.9839 9.42999 15.52C9.42999 15.0561 9.0539 14.68 8.59 14.68ZM6.25 15.52C6.25 14.2277 7.29763 13.18 8.59 13.18C9.88236 13.18 10.93 14.2277 10.93 15.52C10.93 16.8124 9.88232 17.86 8.59 17.86C7.29767 17.86 6.25 16.8124 6.25 15.52Z" fill="#424B5A"/>
<path fill-rule="evenodd" clip-rule="evenodd" d="M15.8602 6.38225C16.4862 6.75036 16.75 7.43934 16.75 8.25003V14.4601C16.75 14.8743 16.4142 15.2101 16 15.2101C15.5858 15.2101 15.25 14.8743 15.25 14.4601V8.25003C15.25 7.99445 15.2093 7.84779 15.1745 7.77144C15.144 7.70424 15.1159 7.68475 15.0998 7.67528C15.0449 7.64297 14.8711 7.59945 14.5281 7.69337L11.3494 8.56305C11.3492 8.56311 11.3496 8.56299 11.3494 8.56305C11.0674 8.64105 10.92 8.81553 10.92 9.12003V15.5201C10.92 15.9343 10.5842 16.2701 10.17 16.2701C9.7558 16.2701 9.42001 15.9343 9.42001 15.5201V9.12003C9.42001 8.08474 10.073 7.35915 10.9505 7.11706L10.9521 7.11664L14.1319 6.24663C14.1319 6.24664 14.132 6.24661 14.1319 6.24663C14.6289 6.11058 15.2901 6.04708 15.8602 6.38225Z" fill="#424B5A"/>
<path fill-rule="evenodd" clip-rule="evenodd" d="M14.41 13.62C13.9461 13.62 13.57 13.9961 13.57 14.46C13.57 14.9239 13.9461 15.3 14.41 15.3C14.8739 15.3 15.25 14.924 15.25 14.4601C15.25 13.9961 14.8739 13.62 14.41 13.62ZM12.07 14.46C12.07 13.1677 13.1176 12.12 14.41 12.12C15.7024 12.12 16.75 13.1677 16.75 14.4601C16.75 15.7524 15.7023 16.8 14.41 16.8C13.1177 16.8 12.07 15.7524 12.07 14.46Z" fill="#424B5A"/>
<path fill-rule="evenodd" clip-rule="evenodd" d="M16.7235 8.97233C16.8326 9.3719 16.5972 9.78431 16.1977 9.89347L10.3776 11.4835C9.97808 11.5927 9.56567 11.3572 9.45651 10.9577C9.34734 10.5581 9.58277 10.1457 9.98234 10.0365L15.8023 8.4465C16.2019 8.33733 16.6143 8.57276 16.7235 8.97233Z" fill="#424B5A"/>
</svg>
