<svg width="24" height="24" viewBox="0 0 24 24" fill="none" xmlns="http://www.w3.org/2000/svg">
<path fill-rule="evenodd" clip-rule="evenodd" d="M7.96997 14.75C6.17505 14.75 4.71997 16.2051 4.71997 18C4.71997 19.7949 6.17505 21.25 7.96997 21.25C9.7649 21.25 11.22 19.7949 11.22 18C11.22 16.2051 9.7649 14.75 7.96997 14.75ZM3.21997 18C3.21997 15.3767 5.34662 13.25 7.96997 13.25C10.5933 13.25 12.72 15.3767 12.72 18C12.72 20.6234 10.5933 22.75 7.96997 22.75C5.34662 22.75 3.21997 20.6234 3.21997 18Z" fill="#424B5A"/>
<path fill-rule="evenodd" clip-rule="evenodd" d="M11.97 3.25001C12.3842 3.25001 12.72 3.58579 12.72 4.00001V18C12.72 18.4142 12.3842 18.75 11.97 18.75C11.5558 18.75 11.22 18.4142 11.22 18V4.00001C11.22 3.58579 11.5558 3.25001 11.97 3.25001Z" fill="#424B5A"/>
<path fill-rule="evenodd" clip-rule="evenodd" d="M13.1857 2.90994C12.9374 3.08868 12.7263 3.43571 12.73 3.99507L12.73 4.00001L12.73 5.18001C12.73 5.55741 12.8811 5.99185 13.1613 6.37901C13.4412 6.76573 13.8081 7.04737 14.1681 7.1688C14.1684 7.16892 14.1688 7.16904 14.1691 7.16916L18.5857 8.63801C18.5855 8.63795 18.5858 8.63806 18.5857 8.63801C19.1245 8.81623 19.5225 8.72409 19.7698 8.54562C20.017 8.36721 20.23 8.01896 20.23 7.45001V6.28001C20.23 5.90261 20.0789 5.46816 19.7987 5.081C19.5188 4.6943 19.1519 4.41266 18.7919 4.29123C18.7915 4.2911 18.7912 4.29098 18.7908 4.29085L14.3733 2.82168L14.3699 2.82053C13.8333 2.63921 13.4342 2.73103 13.1857 2.90994ZM14.8483 1.39887C13.9354 1.09092 13.0153 1.18432 12.3093 1.69258C11.6032 2.20087 11.2244 3.04278 11.23 4.00233V5.18001C11.23 5.93261 11.5189 6.66816 11.9462 7.2585C12.3735 7.8489 12.9811 8.35208 13.6908 8.59085L13.6933 8.59168L18.1133 10.0617L18.1143 10.062C19.0252 10.3636 19.9425 10.2709 20.6477 9.76189C21.353 9.2528 21.73 8.41105 21.73 7.45001V6.28001C21.73 5.52741 21.4411 4.79185 21.0138 4.20152C20.5865 3.61111 19.9788 3.10794 19.2691 2.86916L14.8483 1.39887Z" fill="#424B5A"/>
</svg>
