<svg width="24" height="24" viewBox="0 0 24 24" fill="none" xmlns="http://www.w3.org/2000/svg">
<path fill-rule="evenodd" clip-rule="evenodd" d="M6.28003 16.51C4.97112 16.51 3.91003 17.5711 3.91003 18.88C3.91003 20.1889 4.97112 21.25 6.28003 21.25C7.58895 21.25 8.65003 20.1889 8.65003 18.88C8.65003 17.5711 7.58895 16.51 6.28003 16.51ZM2.41003 18.88C2.41003 16.7427 4.14269 15.01 6.28003 15.01C8.41738 15.01 10.15 16.7427 10.15 18.88C10.15 21.0173 8.41738 22.75 6.28003 22.75C4.14269 22.75 2.41003 21.0174 2.41003 18.88Z" fill="#424B5A"/>
<path fill-rule="evenodd" clip-rule="evenodd" d="M20.1973 1.55376C21.1267 2.09701 21.59 3.15025 21.59 4.60001V16.8C21.59 17.2142 21.2542 17.55 20.84 17.55C20.4258 17.55 20.09 17.2142 20.09 16.8V4.60001C20.09 3.44977 19.7384 3.023 19.4403 2.84876C19.0846 2.64085 18.5082 2.60881 17.7574 2.81358L11.5172 4.51363C10.6828 4.74053 10.15 5.35967 10.15 6.30001V18.87C10.15 19.2842 9.81425 19.62 9.40003 19.62C8.98582 19.62 8.65003 19.2842 8.65003 18.87V6.30001C8.65003 4.64046 9.67749 3.45955 11.1229 3.06637C11.1228 3.0664 11.123 3.06634 11.1229 3.06637L17.3627 1.36644C17.3626 1.36645 17.3628 1.36642 17.3627 1.36644C18.2618 1.12125 19.3255 1.0442 20.1973 1.55376Z" fill="#424B5A"/>
<path fill-rule="evenodd" clip-rule="evenodd" d="M17.72 14.43C16.4111 14.43 15.35 15.4911 15.35 16.8C15.35 18.1089 16.4111 19.17 17.72 19.17C19.0289 19.17 20.09 18.1089 20.09 16.8C20.09 15.4911 19.0289 14.43 17.72 14.43ZM13.85 16.8C13.85 14.6627 15.5827 12.93 17.72 12.93C19.8574 12.93 21.59 14.6627 21.59 16.8C21.59 18.9373 19.8574 20.67 17.72 20.67C15.5827 20.67 13.85 18.9373 13.85 16.8Z" fill="#424B5A"/>
<path fill-rule="evenodd" clip-rule="evenodd" d="M21.5636 6.20267C21.6726 6.60229 21.437 7.01459 21.0374 7.12358L9.59737 10.2436C9.19775 10.3526 8.78545 10.117 8.67646 9.71735C8.56747 9.31773 8.80308 8.90542 9.2027 8.79644L20.6427 5.67644C21.0423 5.56745 21.4546 5.80305 21.5636 6.20267Z" fill="#424B5A"/>
</svg>
