<svg width="24" height="24" viewBox="0 0 24 24" fill="none" xmlns="http://www.w3.org/2000/svg">
<path fill-rule="evenodd" clip-rule="evenodd" d="M4.07408 4.07409C3.2148 4.93338 2.75 6.349 2.75 8.65002V14.35C2.75 16.651 3.2148 18.0666 4.07408 18.9259C4.93336 19.7852 6.34897 20.25 8.64999 20.25H13.8231C13.4552 19.5787 13.25 18.8077 13.25 18C13.25 15.3758 15.3758 13.25 18 13.25C18.8104 13.25 19.5792 13.4532 20.25 13.8148V8.65002C20.25 6.349 19.7852 4.93338 18.9259 4.07409C18.0666 3.2148 16.651 2.75 14.35 2.75H8.64999C6.34897 2.75 4.93336 3.2148 4.07408 4.07409ZM3.01341 3.01343C4.29163 1.73521 6.20102 1.25 8.64999 1.25H14.35C16.799 1.25 18.7084 1.73521 19.9866 3.01343C21.2648 4.29166 21.75 6.20105 21.75 8.65002V14.35C21.75 14.7043 21.7396 15.0506 21.7184 15.3783C21.6989 15.6811 21.4989 15.9423 21.2117 16.04C20.9244 16.1378 20.6066 16.0529 20.4064 15.8249C19.8272 15.1652 18.9617 14.75 18 14.75C16.2042 14.75 14.75 16.2042 14.75 18C14.75 18.6094 14.9205 19.1833 15.2184 19.6663L15.2265 19.6797C15.3841 19.9477 15.5911 20.1951 15.8312 20.4032C16.0611 20.6025 16.1479 20.921 16.0508 21.2093C15.9537 21.4977 15.6919 21.6988 15.3883 21.7184C15.0604 21.7396 14.7142 21.75 14.35 21.75H8.64999C6.20102 21.75 4.29163 21.2648 3.01341 19.9866C1.7352 18.7083 1.25 16.7989 1.25 14.35V8.65002C1.25 6.20105 1.7352 4.29166 3.01341 3.01343Z" fill="#424B5A"/>
<path fill-rule="evenodd" clip-rule="evenodd" d="M6.72 12.27C6.33337 12.27 6.02 12.5834 6.02 12.97C6.02 13.3566 6.33341 13.67 6.72 13.67C7.10659 13.67 7.42 13.3566 7.42 12.97C7.42 12.5834 7.10663 12.27 6.72 12.27ZM4.52 12.97C4.52 11.7549 5.50501 10.77 6.72 10.77C7.935 10.77 8.92 11.7549 8.92 12.97C8.92 14.185 7.93504 15.17 6.72 15.17C5.50496 15.17 4.52 14.185 4.52 12.97Z" fill="#424B5A"/>
<path fill-rule="evenodd" clip-rule="evenodd" d="M13.3808 4.57843C13.9838 4.92754 14.23 5.58497 14.23 6.34001V12C14.23 12.4142 13.8942 12.75 13.48 12.75C13.0658 12.75 12.73 12.4142 12.73 12V6.34001C12.73 6.11166 12.6936 5.98811 12.6672 5.93051C12.6462 5.88457 12.6313 5.87755 12.6294 5.87664C12.6293 5.8766 12.6294 5.87666 12.6294 5.87664C12.6032 5.86149 12.4665 5.81813 12.1598 5.90288L12.1578 5.90344L9.26499 6.69417C9.04869 6.7524 8.92999 6.8931 8.92999 7.12999V12.97C8.92999 13.3842 8.59421 13.72 8.17999 13.72C7.76578 13.72 7.42999 13.3842 7.42999 12.97V7.12999C7.42999 6.16748 8.05055 5.46838 8.87348 5.24616L11.7603 4.45706C11.7606 4.45697 11.761 4.45687 11.7613 4.45677C12.2145 4.33172 12.8374 4.26381 13.3808 4.57843Z" fill="#424B5A"/>
<path fill-rule="evenodd" clip-rule="evenodd" d="M12.03 11.3C11.6434 11.3 11.33 11.6134 11.33 12C11.33 12.3866 11.6434 12.7 12.03 12.7C12.4166 12.7 12.73 12.3866 12.73 12C12.73 11.6134 12.4166 11.3 12.03 11.3ZM9.83 12C9.83 10.785 10.815 9.79999 12.03 9.79999C13.245 9.79999 14.23 10.785 14.23 12C14.23 13.215 13.245 14.2 12.03 14.2C10.815 14.2 9.83 13.215 9.83 12Z" fill="#424B5A"/>
<path fill-rule="evenodd" clip-rule="evenodd" d="M14.2035 7.18243C14.3126 7.58202 14.0772 7.9944 13.6776 8.10351L8.36757 9.55353C7.96799 9.66264 7.5556 9.42717 7.44649 9.02759C7.33737 8.628 7.57284 8.21562 7.97243 8.10651L13.2824 6.6565C13.682 6.54738 14.0944 6.78285 14.2035 7.18243Z" fill="#424B5A"/>
<path fill-rule="evenodd" clip-rule="evenodd" d="M18 14.75C16.2042 14.75 14.75 16.2042 14.75 18C14.75 18.6094 14.9205 19.1833 15.2184 19.6663L15.2247 19.6765C15.7845 20.6177 16.8141 21.25 18 21.25C19.1859 21.25 20.2156 20.6177 20.7754 19.6766L20.7815 19.6663C21.0794 19.1833 21.25 18.6094 21.25 18C21.25 16.2042 19.7958 14.75 18 14.75ZM13.25 18C13.25 15.3758 15.3758 13.25 18 13.25C20.6242 13.25 22.75 15.3758 22.75 18C22.75 18.8885 22.5017 19.7327 22.0615 20.4486C21.2406 21.8246 19.732 22.75 18 22.75C16.268 22.75 14.7594 21.8246 13.9385 20.4486C13.4983 19.7327 13.25 18.8885 13.25 18Z" fill="#424B5A"/>
<path fill-rule="evenodd" clip-rule="evenodd" d="M15.76 17.98C15.76 17.5658 16.0958 17.23 16.51 17.23H19.49C19.9042 17.23 20.24 17.5658 20.24 17.98C20.24 18.3942 19.9042 18.73 19.49 18.73H16.51C16.0958 18.73 15.76 18.3942 15.76 17.98Z" fill="#424B5A"/>
<path fill-rule="evenodd" clip-rule="evenodd" d="M18 15.77C18.4142 15.77 18.75 16.1058 18.75 16.52V19.51C18.75 19.9242 18.4142 20.26 18 20.26C17.5858 20.26 17.25 19.9242 17.25 19.51V16.52C17.25 16.1058 17.5858 15.77 18 15.77Z" fill="#424B5A"/>
</svg>
