<svg width="24" height="24" viewBox="0 0 24 24" fill="none" xmlns="http://www.w3.org/2000/svg">
<path fill-rule="evenodd" clip-rule="evenodd" d="M7 8.75C6.33022 8.75 5.73888 8.83276 5.22642 8.99504L5.22084 8.9968C4.43822 9.23793 3.84078 9.6608 3.43013 10.2763C3.01432 10.8995 2.75 11.7808 2.75 13V17C2.75 18.607 3.20538 19.6315 3.88534 20.2629C4.57535 20.9036 5.61497 21.25 7 21.25H17C18.385 21.25 19.4246 20.9036 20.1147 20.2629C20.7946 19.6315 21.25 18.607 21.25 17V13C21.25 11.7808 20.9857 10.8995 20.5699 10.2763C20.1592 9.6608 19.5618 9.23791 18.7792 8.99678L18.7736 8.99506C18.2611 8.83278 17.6698 8.75 17 8.75H7ZM4.77637 7.56414C5.46315 7.34704 6.21085 7.25 7 7.25H17C17.7892 7.25 18.5369 7.34704 19.2237 7.56415C20.2898 7.89323 21.1913 8.50508 21.8176 9.44376C22.4393 10.3755 22.75 11.5692 22.75 13V17C22.75 18.893 22.2054 20.3685 21.1353 21.3621C20.0754 22.3464 18.615 22.75 17 22.75H7C5.38503 22.75 3.92465 22.3464 2.86466 21.3621C1.79462 20.3685 1.25 18.893 1.25 17V13C1.25 11.5692 1.56068 10.3755 2.18237 9.44376C2.80867 8.50507 3.71021 7.89321 4.77637 7.56414Z" fill="#424B5A"/>
<path fill-rule="evenodd" clip-rule="evenodd" d="M7 5.75C6.31421 5.75 5.75 6.31421 5.75 7V7.34017C6.15226 7.27881 6.56998 7.25 7 7.25H17C17.43 7.25 17.8477 7.27881 18.25 7.34017V7C18.25 6.31421 17.6858 5.75 17 5.75H7ZM4.25 7C4.25 5.48579 5.48579 4.25 7 4.25H17C18.5142 4.25 19.75 5.48579 19.75 7V8.28003C19.75 8.51912 19.636 8.74388 19.4431 8.88514C19.2502 9.02639 19.0015 9.06724 18.7736 8.99506C18.2611 8.83278 17.6698 8.75 17 8.75H7C6.33022 8.75 5.73888 8.83276 5.22642 8.99504C4.99848 9.06721 4.74979 9.02639 4.55689 8.88514C4.36399 8.74388 4.25 8.51912 4.25 8.28003V7Z" fill="#424B5A"/>
<path fill-rule="evenodd" clip-rule="evenodd" d="M9.51001 2.75C9.09422 2.75 8.75 3.09422 8.75 3.51001V4.25H15.25V3.51001C15.25 3.09422 14.9058 2.75 14.49 2.75H9.51001ZM7.25 3.51001C7.25 2.2658 8.2658 1.25 9.51001 1.25H14.49C15.7342 1.25 16.75 2.2658 16.75 3.51001V5C16.75 5.41421 16.4142 5.75 16 5.75H8C7.58579 5.75 7.25 5.41421 7.25 5V3.51001Z" fill="#424B5A"/>
<path fill-rule="evenodd" clip-rule="evenodd" d="M9.07001 17.56C8.75521 17.56 8.5 17.8152 8.5 18.13C8.5 18.4448 8.75521 18.7 9.07001 18.7C9.38481 18.7 9.64001 18.4448 9.64001 18.13C9.64001 17.8152 9.38481 17.56 9.07001 17.56ZM7 18.13C7 16.9868 7.92678 16.06 9.07001 16.06C10.2132 16.06 11.14 16.9868 11.14 18.13C11.14 19.2732 10.2132 20.2 9.07001 20.2C7.92678 20.2 7 19.2732 7 18.13Z" fill="#424B5A"/>
<path fill-rule="evenodd" clip-rule="evenodd" d="M15.1969 10.4156C15.7721 10.7529 16 11.3809 16 12.08V17.25C16 17.6642 15.6642 18 15.25 18C14.8358 18 14.5 17.6642 14.5 17.25V12.08C14.5 11.8792 14.468 11.7754 14.4483 11.7323C14.4425 11.7194 14.438 11.7121 14.4353 11.7083C14.4272 11.7051 14.4029 11.6976 14.3538 11.6963C14.2848 11.6946 14.1879 11.7063 14.066 11.7411L14.0566 11.7438L11.4067 12.4637C11.3038 12.4916 11.245 12.5376 11.2131 12.578C11.1834 12.6155 11.15 12.6808 11.15 12.8V18.13C11.15 18.5442 10.8142 18.88 10.4 18.88C9.98581 18.88 9.65002 18.5442 9.65002 18.13V12.8C9.65002 11.891 10.227 11.2294 11.0134 11.0162L13.659 10.2974C14.0875 10.1758 14.6786 10.1115 15.1969 10.4156Z" fill="#424B5A"/>
<path fill-rule="evenodd" clip-rule="evenodd" d="M13.93 16.68C13.6152 16.68 13.36 16.9352 13.36 17.25C13.36 17.5648 13.6152 17.82 13.93 17.82C14.2448 17.82 14.5 17.5648 14.5 17.25C14.5 16.9352 14.2448 16.68 13.93 16.68ZM11.86 17.25C11.86 16.1068 12.7868 15.18 13.93 15.18C15.0732 15.18 16 16.1067 16 17.25C16 18.3932 15.0732 19.32 13.93 19.32C12.7868 19.32 11.86 18.3932 11.86 17.25Z" fill="#424B5A"/>
<path fill-rule="evenodd" clip-rule="evenodd" d="M15.9737 12.8331C16.0825 13.2328 15.8466 13.6449 15.447 13.7537L10.597 15.0737C10.1973 15.1824 9.78512 14.9466 9.67635 14.5469C9.56757 14.1473 9.8034 13.7351 10.2031 13.6263L15.053 12.3064C15.4527 12.1976 15.8649 12.4334 15.9737 12.8331Z" fill="#424B5A"/>
</svg>
