<svg width="24" height="24" viewBox="0 0 24 24" fill="none" xmlns="http://www.w3.org/2000/svg">
<path fill-rule="evenodd" clip-rule="evenodd" d="M2.7698 12.2051C2.66798 7.00277 6.77213 2.7998 11.97 2.7998C17.1694 2.7998 21.2699 7.00768 21.2699 12.1098V18.2698C21.2699 19.8056 19.9857 21.0898 18.45 21.0898C16.9142 21.0898 15.63 19.8056 15.63 18.2698V15.4598C15.63 14.8744 16.0832 14.3698 16.72 14.3698C17.3053 14.3698 17.81 14.823 17.81 15.4598V18.4898C17.81 18.904 18.1457 19.2398 18.56 19.2398C18.9742 19.2398 19.31 18.904 19.31 18.4898V15.4598C19.31 13.9367 18.0746 12.8698 16.72 12.8698C15.1967 12.8698 14.13 14.1052 14.13 15.4598V18.2698C14.13 20.6341 16.0858 22.5898 18.45 22.5898C20.8142 22.5898 22.7699 20.634 22.7699 18.2698V12.1098C22.7699 6.19192 18.0105 1.2998 11.97 1.2998C5.93028 1.2998 1.15585 6.19277 1.26995 12.227V18.3798C1.26995 20.7327 3.22438 22.6998 5.58995 22.6998C7.95417 22.6998 9.90996 20.744 9.90996 18.3798V15.5698C9.90996 14.0466 8.6746 12.9798 7.31997 12.9798C5.79675 12.9798 4.72997 14.2152 4.72997 15.5698V18.4898C4.72997 18.904 5.06576 19.2398 5.47997 19.2398C5.89418 19.2398 6.22997 18.904 6.22997 18.4898V15.5698C6.22997 14.9844 6.68318 14.4798 7.31997 14.4798C7.90533 14.4798 8.40996 14.933 8.40996 15.5698V18.3798C8.40996 19.9156 7.12574 21.1998 5.58995 21.1998C4.05553 21.1998 2.76995 19.907 2.76995 18.3798V12.2198L2.7698 12.2051ZM11.7344 6.92183C11.3691 6.22443 10.3058 6.12004 9.88864 6.90602L9.09536 8.36981H8.45996C8.04575 8.36981 7.70996 8.7056 7.70996 9.11981C7.70996 9.53402 8.04575 9.86981 8.45996 9.86981H9.18997C9.68103 9.86981 10.138 9.60242 10.3711 9.16396L10.7916 8.38801L12.2392 11.2752L12.2394 11.2757L12.2395 11.276C12.6262 12.048 13.7245 12.0478 14.1108 11.2752L14.8135 9.86981H15.53C15.9442 9.86981 16.28 9.53402 16.28 9.11981C16.28 8.7056 15.9442 8.36981 15.53 8.36981H14.72C14.2178 8.36981 13.7542 8.65743 13.5263 9.09051L13.5192 9.10441L13.1744 9.79387L11.7404 6.93369L11.7405 6.93364L11.7344 6.92183Z" fill="#424B5A"/>
</svg>
