<svg width="24" height="24" viewBox="0 0 24 24" fill="none" xmlns="http://www.w3.org/2000/svg">
<path fill-rule="evenodd" clip-rule="evenodd" d="M7.96457 4.36012C7.96448 4.36007 7.96466 4.36018 7.96457 4.36012L12.1155 6.75062L16.2646 9.1501C16.2644 9.14999 16.2648 9.15021 16.2646 9.1501M7.21543 5.65966C6.01245 4.96618 4.51001 5.83044 4.51001 7.21988V16.7899C4.51001 18.1718 6.01463 19.0423 7.21543 18.3501L11.3645 15.9606L15.5154 13.5601C16.7149 12.8687 16.7149 11.1411 15.5154 10.4496L11.3645 8.04912L7.21543 5.65966Z" fill="#424B5A"/>
<path fill-rule="evenodd" clip-rule="evenodd" d="M20.24 5.0699C20.6542 5.0699 20.99 5.40568 20.99 5.8199V18.1799C20.99 18.5941 20.6542 18.9299 20.24 18.9299C19.8258 18.9299 19.49 18.5941 19.49 18.1799V5.8199C19.49 5.40568 19.8258 5.0699 20.24 5.0699Z" fill="#424B5A"/>
</svg>
