<svg width="24" height="24" viewBox="0 0 24 24" fill="none" xmlns="http://www.w3.org/2000/svg">
<path fill-rule="evenodd" clip-rule="evenodd" d="M8.75002 2C8.75002 1.58579 8.41424 1.25 8.00002 1.25C7.58581 1.25 7.25002 1.58579 7.25002 2V2.8793C5.74078 3.05065 4.43725 3.48957 3.52489 4.54605C2.52503 5.70386 2.13898 7.43887 2.19019 9.84595L2.33017 16.0246L2.33019 16.0258C2.37049 18.0913 2.64379 19.8797 3.7334 21.1108C4.85067 22.3732 6.64505 22.8612 9.21502 22.8098L15.2165 22.6898C17.7856 22.6333 19.5571 22.0737 20.6215 20.7675C21.6594 19.4936 21.8601 17.6953 21.8199 15.6254L21.8199 15.6242L21.6899 9.45405C21.6387 7.048 21.183 5.3309 20.1374 4.21474C19.2692 3.28804 18.098 2.88471 16.75 2.73517V2C16.75 1.58579 16.4142 1.25 16 1.25C15.5858 1.25 15.25 1.58579 15.25 2V2.68105L8.75002 2.81105V2ZM7.25002 4.39039V5C7.25002 5.41421 7.58581 5.75 8.00002 5.75C8.41424 5.75 8.75002 5.41421 8.75002 5V4.31135L15.25 4.18135V5C15.25 5.41421 15.5858 5.75 16 5.75C16.4142 5.75 16.75 5.41421 16.75 5V4.24602C17.812 4.38539 18.5372 4.70072 19.0427 5.24026C19.702 5.94409 20.1414 7.1921 20.1902 9.48595L20.3202 15.6553C20.3599 17.7051 20.1255 19.0015 19.4586 19.82C18.818 20.6062 17.6143 21.1367 15.1835 21.1902L9.18503 21.3102C6.755 21.3587 5.52938 20.8768 4.85665 20.1167C4.15647 19.3256 3.86967 18.0394 3.82989 15.9954L3.68984 9.81357C3.64112 7.52096 4.03006 6.25609 4.66016 5.52645C5.19411 4.90814 6.00712 4.553 7.25002 4.39039ZM9.56002 12.25C9.97424 12.25 10.31 12.5858 10.31 13V14.75H12C12.4142 14.75 12.75 15.0858 12.75 15.5C12.75 15.9142 12.4142 16.25 12 16.25H10.31V18C10.31 18.4142 9.97424 18.75 9.56002 18.75C9.14581 18.75 8.81002 18.4142 8.81002 18V16.25H7.00002C6.58581 16.25 6.25002 15.9142 6.25002 15.5C6.25002 15.0858 6.58581 14.75 7.00002 14.75H8.81002V13C8.81002 12.5858 9.14581 12.25 9.56002 12.25Z" fill="#424B5A"/>
</svg>
