<svg width="24" height="24" viewBox="0 0 24 24" fill="none" xmlns="http://www.w3.org/2000/svg">
<path fill-rule="evenodd" clip-rule="evenodd" d="M8 1.25C8.41421 1.25 8.75 1.58579 8.75 2V2.75H15.25V2C15.25 1.58579 15.5858 1.25 16 1.25C16.4142 1.25 16.75 1.58579 16.75 2V2.80835C18.1785 2.96604 19.4152 3.38705 20.3065 4.37861C21.3291 5.51622 21.75 7.24345 21.75 9.65V15.83C21.75 17.9008 21.5117 19.6968 20.4466 20.9506C19.3544 22.2362 17.57 22.76 15 22.76H9C6.42996 22.76 4.64561 22.2362 3.55341 20.9506C2.48827 19.6968 2.25 17.9008 2.25 15.83V9.65C2.25 7.24339 2.67087 5.51842 3.69382 4.38198C4.5852 3.3917 5.82197 2.97093 7.25 2.81014V2C7.25 1.58579 7.58579 1.25 8 1.25ZM7.25 4.32119C6.09847 4.47237 5.32927 4.80717 4.80868 5.38552C4.16413 6.10158 3.75 7.35661 3.75 9.65V15.83C3.75 17.8792 4.01173 19.1732 4.69659 19.9794C5.35439 20.7538 6.57004 21.26 9 21.26H15C17.43 21.26 18.6456 20.7538 19.3034 19.9794C19.9883 19.1732 20.25 17.8792 20.25 15.83V9.65C20.25 7.35655 19.8359 6.09878 19.191 5.38139C18.6705 4.80233 17.9013 4.46735 16.75 4.31897V5C16.75 5.41421 16.4142 5.75 16 5.75C15.5858 5.75 15.25 5.41421 15.25 5V4.25H8.75V5C8.75 5.41421 8.41421 5.75 8 5.75C7.58579 5.75 7.25 5.41421 7.25 5V4.32119ZM7 12.25C6.58579 12.25 6.25 12.5858 6.25 13C6.25 13.4142 6.58579 13.75 7 13.75H15C15.4142 13.75 15.75 13.4142 15.75 13C15.75 12.5858 15.4142 12.25 15 12.25H7ZM6.25 17C6.25 16.5858 6.58579 16.25 7 16.25H12C12.4142 16.25 12.75 16.5858 12.75 17C12.75 17.4142 12.4142 17.75 12 17.75H7C6.58579 17.75 6.25 17.4142 6.25 17Z" fill="#424B5A"/>
</svg>
