<svg width="24" height="24" viewBox="0 0 24 24" fill="none" xmlns="http://www.w3.org/2000/svg">
<path fill-rule="evenodd" clip-rule="evenodd" d="M3.09467 3.09467C4.42914 1.7602 6.42603 1.25 9 1.25H15C17.574 1.25 19.5709 1.7602 20.9053 3.09467C22.2398 4.42914 22.75 6.42603 22.75 9V10C22.75 10.4142 22.4142 10.75 22 10.75C21.5858 10.75 21.25 10.4142 21.25 10V9C21.25 6.57397 20.7602 5.07086 19.8447 4.15533C18.9291 3.2398 17.426 2.75 15 2.75H9C6.57397 2.75 5.07086 3.2398 4.15533 4.15533C3.2398 5.07086 2.75 6.57397 2.75 9V15C2.75 17.426 3.2398 18.9291 4.15533 19.8447C5.07086 20.7602 6.57397 21.25 9 21.25H11C11.4142 21.25 11.75 21.5858 11.75 22C11.75 22.4142 11.4142 22.75 11 22.75H9C6.42603 22.75 4.42914 22.2398 3.09467 20.9053C1.7602 19.5709 1.25 17.574 1.25 15V9C1.25 6.42603 1.7602 4.42914 3.09467 3.09467Z" fill="#424B5A"/>
<path fill-rule="evenodd" clip-rule="evenodd" d="M15.51 18.75C14.8197 18.75 14.26 19.3096 14.26 20C14.26 20.6904 14.8197 21.25 15.51 21.25C16.2004 21.25 16.76 20.6904 16.76 20C16.76 19.3096 16.2004 18.75 15.51 18.75ZM12.76 20C12.76 18.4812 13.9912 17.25 15.51 17.25C17.0288 17.25 18.26 18.4812 18.26 20C18.26 21.5188 17.0288 22.75 15.51 22.75C13.9912 22.75 12.76 21.5188 12.76 20Z" fill="#424B5A"/>
<path fill-rule="evenodd" clip-rule="evenodd" d="M17.51 12.26C17.9242 12.26 18.26 12.5958 18.26 13.01V20C18.26 20.4142 17.9242 20.75 17.51 20.75C17.0958 20.75 16.76 20.4142 16.76 20V13.01C16.76 12.5958 17.0958 12.26 17.51 12.26Z" fill="#424B5A"/>
<path fill-rule="evenodd" clip-rule="evenodd" d="M18.3337 12.7746C18.3265 12.7798 18.26 12.8296 18.26 13.02V13.61C18.26 13.7083 18.3017 13.8503 18.404 13.9918C18.5062 14.1331 18.6284 14.218 18.7201 14.2495L20.9272 14.9885C20.9271 14.9885 20.9273 14.9885 20.9272 14.9885C21.097 15.045 21.1642 15.0005 21.1742 14.9932C21.1852 14.9852 21.25 14.9327 21.25 14.75V14.16C21.25 14.0617 21.2083 13.9197 21.106 13.7782C21.0039 13.637 20.8816 13.552 20.7899 13.5205L18.5828 12.7815C18.5827 12.7815 18.583 12.7816 18.5828 12.7815C18.4086 12.7235 18.3412 12.7691 18.3337 12.7746ZM17.4564 11.5579C17.9238 11.2209 18.5118 11.1767 19.0572 11.3585L19.0581 11.3588L21.2712 12.0998C21.7094 12.2487 22.0716 12.5536 22.3215 12.8993C22.5717 13.2453 22.75 13.6883 22.75 14.16V14.75C22.75 15.3273 22.5198 15.8698 22.0558 16.2068C21.5908 16.5445 21.0027 16.5948 20.4528 16.4115L20.4519 16.4112L18.2388 15.6702C17.8006 15.5214 17.4384 15.2164 17.1885 14.8707C16.9383 14.5247 16.76 14.0817 16.76 13.61V13.02C16.76 12.4404 16.9885 11.8953 17.4564 11.5579Z" fill="#424B5A"/>
</svg>
