<svg width="24" height="24" viewBox="0 0 24 24" fill="none" xmlns="http://www.w3.org/2000/svg">
<path fill-rule="evenodd" clip-rule="evenodd" d="M8.75 4.25C8.75 3.42421 9.42421 2.75 10.25 2.75H13.75C14.1628 2.75 14.5344 2.91505 14.8097 3.19033C15.085 3.46561 15.25 3.83714 15.25 4.25C15.25 5.07579 14.5758 5.75 13.75 5.75H10.25C9.83716 5.75 9.46559 5.58495 9.1903 5.30967C8.91503 5.03439 8.75 4.66286 8.75 4.25ZM7.33907 3.52296C7.66488 2.21888 8.84642 1.25 10.25 1.25H13.75C14.5772 1.25 15.3256 1.58496 15.8704 2.12967C16.25 2.50928 16.5277 2.98782 16.6612 3.52297C17.6113 3.59251 18.5531 3.83506 19.3044 4.45141C20.2612 5.23631 20.75 6.4905 20.75 8.25V18C20.75 19.6535 20.2509 20.8879 19.3189 21.6926C18.4076 22.4797 17.2029 22.75 16 22.75H8C6.79713 22.75 5.59244 22.4797 4.68106 21.6926C3.74912 20.8879 3.25 19.6535 3.25 18V8.25C3.25 6.4905 3.7388 5.23631 4.69556 4.45141C5.44692 3.83501 6.38889 3.59247 7.33907 3.52296ZM7.35173 5.02685C6.62315 5.09167 6.05468 5.27659 5.64694 5.61109C5.1562 6.01369 4.75 6.7595 4.75 8.25V18C4.75 19.3465 5.14588 20.1121 5.66144 20.5574C6.19756 21.0203 6.99287 21.25 8 21.25H16C17.0071 21.25 17.8024 21.0203 18.3386 20.5574C18.8541 20.1121 19.25 19.3465 19.25 18V8.25C19.25 6.7595 18.8438 6.01369 18.3531 5.61109C17.9453 5.27655 17.3767 5.09163 16.648 5.02683C16.3049 6.3057 15.1357 7.25 13.75 7.25H10.25C9.42284 7.25 8.67436 6.91504 8.12964 6.37033C7.78919 6.02987 7.53069 5.60984 7.3847 5.14075C7.37298 5.10309 7.36198 5.06512 7.35173 5.02685ZM7.25 13C7.25 12.5858 7.58579 12.25 8 12.25H12C12.4142 12.25 12.75 12.5858 12.75 13C12.75 13.4142 12.4142 13.75 12 13.75H8C7.58579 13.75 7.25 13.4142 7.25 13ZM8 16.25C7.58579 16.25 7.25 16.5858 7.25 17C7.25 17.4142 7.58579 17.75 8 17.75H16C16.4142 17.75 16.75 17.4142 16.75 17C16.75 16.5858 16.4142 16.25 16 16.25H8Z" fill="#424B5A"/>
</svg>
