<svg width="24" height="24" viewBox="0 0 24 24" fill="none" xmlns="http://www.w3.org/2000/svg">
<path fill-rule="evenodd" clip-rule="evenodd" d="M3.09467 3.09467C4.42914 1.7602 6.42603 1.25 9 1.25H14C14.4142 1.25 14.75 1.58579 14.75 2C14.75 2.41421 14.4142 2.75 14 2.75H9C6.57397 2.75 5.07086 3.2398 4.15533 4.15533C3.2398 5.07086 2.75 6.57397 2.75 9V15C2.75 17.426 3.2398 18.9291 4.15533 19.8447C5.07086 20.7602 6.57397 21.25 9 21.25H15C17.426 21.25 18.9291 20.7602 19.8447 19.8447C20.7602 18.9291 21.25 17.426 21.25 15V10C21.25 9.58579 21.5858 9.25 22 9.25C22.4142 9.25 22.75 9.58579 22.75 10V15C22.75 17.574 22.2398 19.5709 20.9053 20.9053C19.5709 22.2398 17.574 22.75 15 22.75H9C6.42603 22.75 4.42914 22.2398 3.09467 20.9053C1.7602 19.5709 1.25 17.574 1.25 15V9C1.25 6.42603 1.7602 4.42914 3.09467 3.09467ZM19 2.75C17.7574 2.75 16.75 3.75736 16.75 5C16.75 6.24264 17.7574 7.25 19 7.25C20.2426 7.25 21.25 6.24264 21.25 5C21.25 3.75736 20.2426 2.75 19 2.75ZM15.25 5C15.25 2.92893 16.9289 1.25 19 1.25C21.0711 1.25 22.75 2.92893 22.75 5C22.75 7.07107 21.0711 8.75 19 8.75C16.9289 8.75 15.25 7.07107 15.25 5ZM8.26366 12.8027C8.6033 12.6913 8.9984 12.7961 9.21389 13.0917C9.35892 13.2907 9.59237 13.4059 9.83852 13.3998C10.0847 13.3937 10.3122 13.2672 10.4472 13.0613C10.6138 12.8072 10.9995 12.6869 11.3729 12.8048C12.0011 13.0058 12.3782 13.845 12.1053 14.7026L12.1045 14.7051C11.8929 15.3785 11.4044 15.923 10.872 16.3092C10.6094 16.4998 10.3512 16.6405 10.1398 16.731C9.95983 16.8081 9.85574 16.8309 9.82589 16.8375L9.82405 16.8379C9.79121 16.8312 9.68167 16.807 9.49668 16.728C9.28486 16.6375 9.02749 16.4978 8.76568 16.3085C8.23643 15.9258 7.74563 15.383 7.52412 14.7008C7.25224 13.8435 7.62961 13.0049 8.25791 12.8045L8.25792 12.8046L8.26366 12.8027ZM7.79928 11.3764C8.43783 11.168 9.19397 11.235 9.80679 11.625C10.4349 11.2174 11.2232 11.184 11.8264 11.375L11.8279 11.3755C13.5186 11.9148 13.9614 13.8141 13.5351 15.1561C13.1965 16.2321 12.4504 17.0172 11.753 17.5233C11.4006 17.779 11.045 17.9751 10.7302 18.1099C10.4416 18.2335 10.1082 18.34 9.82 18.34H9.80611L9.80611 18.3399C9.52528 18.3347 9.19853 18.2317 8.90738 18.1074C8.59326 17.9732 8.23876 17.7785 7.88682 17.524C7.18905 17.0195 6.44526 16.238 6.09649 15.1611L6.0953 15.1574L6.0953 15.1574C5.66852 13.8161 6.11034 11.917 7.79928 11.3764Z" fill="#424B5A"/>
</svg>
