<svg width="24" height="24" viewBox="0 0 24 24" fill="none" xmlns="http://www.w3.org/2000/svg">
<path fill-rule="evenodd" clip-rule="evenodd" d="M6.76999 8.90994C6.76999 6.56694 8.31119 4.57848 10.4334 3.9047C11.1747 3.69728 11.9731 3.63867 12.817 3.74415L12.8197 3.74449C13.0663 3.77438 13.31 3.82418 13.5516 3.88956C15.6973 4.54959 17.27 6.55629 17.27 8.90994V11.7999C17.27 12.1951 17.3514 12.6506 17.4642 13.0621C17.5773 13.4743 17.7381 13.9018 17.9302 14.2348L19.0872 16.1564C19.5009 16.8467 19.1653 17.7397 18.4146 17.9878L18.4123 17.9886C14.2571 19.3769 9.77445 19.3771 5.6191 17.9891C5.16234 17.8341 4.8995 17.5489 4.78957 17.252C4.67989 16.9558 4.69378 16.5703 4.94263 16.1566L6.09252 14.2468L6.0942 14.244C6.29449 13.908 6.4592 13.4776 6.57392 13.0643C6.68857 12.6513 6.76999 12.1953 6.76999 11.7999V8.90994ZM18.77 8.90994C18.77 6.03825 16.9553 3.57211 14.4153 2.60105C13.9484 1.75775 13.0497 1.18994 12.02 1.18994C10.9917 1.18994 10.0941 1.75619 9.6266 2.59757C7.08159 3.56473 5.26999 6.02825 5.26999 8.90994V11.7999C5.26999 12.0146 5.22142 12.3286 5.12857 12.6631C5.036 12.9966 4.91605 13.2905 4.80654 13.4746L4.80578 13.4759L3.65735 15.3833C3.19632 16.1495 3.10011 17.0091 3.38291 17.7729C3.66538 18.5357 4.29714 19.1252 5.13955 19.4104L5.14233 19.4113C6.23092 19.775 7.34048 20.05 8.46078 20.2363C8.64774 20.7986 8.9635 21.3041 9.36966 21.7103C10.0441 22.3847 10.9925 22.8099 12.02 22.8099C13.6744 22.8099 15.0857 21.7271 15.5809 20.2344C16.6968 20.0482 17.8021 19.7739 18.8865 19.4117C20.5548 18.8594 21.2787 16.8933 20.3731 15.3841L19.2265 13.4797C19.1194 13.2923 19.0018 12.9973 18.9108 12.6653C18.8186 12.3293 18.77 12.0148 18.77 11.7999V8.90994ZM13.7786 20.458C12.6077 20.5537 11.4312 20.5539 10.2603 20.4587C10.3134 20.5257 10.3702 20.5895 10.4303 20.6496C10.8358 21.0551 11.4075 21.3099 12.02 21.3099C12.729 21.3099 13.3651 20.9761 13.7786 20.458Z" fill="#424B5A"/>
</svg>
