<svg width="24" height="24" viewBox="0 0 24 24" fill="none" xmlns="http://www.w3.org/2000/svg">
<path fill-rule="evenodd" clip-rule="evenodd" d="M12 1.25C6.06579 1.25 1.25 6.06579 1.25 12C1.25 17.9342 6.06579 22.75 12 22.75C17.9342 22.75 22.75 17.9342 22.75 12C22.75 11.2689 22.6748 10.5489 22.535 9.86071C22.4525 9.45478 22.0566 9.19256 21.6507 9.27501C21.2448 9.35746 20.9826 9.75337 21.065 10.1593C21.1852 10.7511 21.25 11.3711 21.25 12C21.25 17.1058 17.1058 21.25 12 21.25C6.89421 21.25 2.75 17.1058 2.75 12C2.75 6.89421 6.89421 2.75 12 2.75C12.6386 2.75 13.26 2.81471 13.8751 2.93586C14.2815 3.01591 14.6758 2.75135 14.7559 2.34494C14.8359 1.93854 14.5713 1.54419 14.1649 1.46414C13.46 1.32529 12.7414 1.25 12 1.25ZM16.75 5C16.75 3.75736 17.7574 2.75 19 2.75C20.2426 2.75 21.25 3.75736 21.25 5C21.25 6.24264 20.2426 7.25 19 7.25C17.7574 7.25 16.75 6.24264 16.75 5ZM19 1.25C16.9289 1.25 15.25 2.92893 15.25 5C15.25 7.07107 16.9289 8.75 19 8.75C21.0711 8.75 22.75 7.07107 22.75 5C22.75 2.92893 21.0711 1.25 19 1.25Z" fill="#424B5A"/>
</svg>
