<svg width="24" height="24" viewBox="0 0 24 24" fill="none" xmlns="http://www.w3.org/2000/svg">
<path fill-rule="evenodd" clip-rule="evenodd" d="M2.75 12C2.75 6.89137 6.89137 2.75 12 2.75C17.1086 2.75 21.25 6.89137 21.25 12C21.25 17.1086 17.1086 21.25 12 21.25C6.89137 21.25 2.75 17.1086 2.75 12ZM12 1.25C6.06294 1.25 1.25 6.06294 1.25 12C1.25 17.9371 6.06294 22.75 12 22.75C17.9371 22.75 22.75 17.9371 22.75 12C22.75 6.06294 17.9371 1.25 12 1.25ZM12 6.25C10.5507 6.25 9.15586 6.80176 8.11504 7.78476L8.11503 7.78475L8.112 7.78764C7.07833 8.77485 6.48999 10.119 6.48999 11.53C6.48999 12.8892 7.00127 14.1979 7.92431 15.2137L7.92503 15.2145L8.40968 15.75H7C6.58579 15.75 6.25 16.0858 6.25 16.5C6.25 16.9142 6.58579 17.25 7 17.25H10.1C10.3965 17.25 10.6652 17.0753 10.7855 16.8042C10.9058 16.5331 10.8551 16.2166 10.6561 15.9967L9.03607 14.2067L9.03494 14.2055C8.35843 13.4613 7.98999 12.5105 7.98999 11.53C7.98999 10.5417 8.40112 9.58647 9.1465 8.87383C9.90553 8.15773 10.93 7.75 12 7.75C13.0823 7.75 14.1053 8.15924 14.852 8.8724C15.5983 9.58518 16.01 10.5411 16.01 11.53C16.01 12.4986 15.6428 13.451 14.9631 14.2076L14.9622 14.2086L13.3439 15.9967C13.1449 16.2166 13.0942 16.5331 13.2145 16.8042C13.3348 17.0753 13.6035 17.25 13.9 17.25H17C17.4142 17.25 17.75 16.9142 17.75 16.5C17.75 16.0858 17.4142 15.75 17 15.75H15.5903L16.0761 15.2132L16.0778 15.2113C16.9975 14.1881 17.51 12.8811 17.51 11.53C17.51 10.119 16.9217 8.77485 15.888 7.78764C14.8547 6.8008 13.4577 6.25 12 6.25Z" fill="#424B5A"/>
</svg>
