<svg width="24" height="24" viewBox="0 0 24 24" fill="none" xmlns="http://www.w3.org/2000/svg">
<path fill-rule="evenodd" clip-rule="evenodd" d="M9 1.25C6.42603 1.25 4.42914 1.7602 3.09467 3.09467C1.7602 4.42914 1.25 6.42603 1.25 9V15C1.25 17.574 1.7602 19.5709 3.09467 20.9053C4.42914 22.2398 6.42603 22.75 9 22.75H15C17.574 22.75 19.5709 22.2398 20.9053 20.9053C22.2398 19.5709 22.75 17.574 22.75 15V9C22.75 6.42603 22.2398 4.42914 20.9053 3.09467C19.5709 1.7602 17.574 1.25 15 1.25H9ZM2.75 9C2.75 6.57397 3.2398 5.07086 4.15533 4.15533C5.07086 3.2398 6.57397 2.75 9 2.75H15C17.426 2.75 18.9291 3.2398 19.8447 4.15533C20.7602 5.07086 21.25 6.57397 21.25 9V15C21.25 17.426 20.7602 18.9291 19.8447 19.8447C18.9291 20.7602 17.426 21.25 15 21.25H9C6.57397 21.25 5.07086 20.7602 4.15533 19.8447C3.2398 18.9291 2.75 17.426 2.75 15V9ZM12 6.5C10.5507 6.5 9.15586 7.05176 8.11504 8.03476L8.11503 8.03475L8.112 8.03764C7.07833 9.02485 6.48999 10.369 6.48999 11.78C6.48999 13.1392 7.00127 14.4479 7.92431 15.4637L7.92503 15.4645L8.40968 16H7C6.58579 16 6.25 16.3358 6.25 16.75C6.25 17.1642 6.58579 17.5 7 17.5H10.1C10.3965 17.5 10.6652 17.3253 10.7855 17.0542C10.9058 16.7831 10.8551 16.4666 10.6561 16.2467L9.03607 14.4567L9.03494 14.4555C8.35843 13.7113 7.98999 12.7605 7.98999 11.78C7.98999 10.7917 8.40112 9.83647 9.1465 9.12383C9.90553 8.40773 10.93 8 12 8C13.0823 8 14.1053 8.40924 14.852 9.1224C15.5983 9.83518 16.01 10.7911 16.01 11.78C16.01 12.7486 15.6428 13.701 14.9631 14.4576L14.9622 14.4586L13.3439 16.2467C13.1449 16.4666 13.0942 16.7831 13.2145 17.0542C13.3348 17.3253 13.6035 17.5 13.9 17.5H17C17.4142 17.5 17.75 17.1642 17.75 16.75C17.75 16.3358 17.4142 16 17 16H15.5903L16.0761 15.4632L16.0778 15.4613C16.9975 14.4381 17.51 13.1311 17.51 11.78C17.51 10.369 16.9217 9.02485 15.888 8.03764C14.8547 7.0508 13.4577 6.5 12 6.5Z" fill="#424B5A"/>
</svg>
