<svg width="24" height="24" viewBox="0 0 24 24" fill="none" xmlns="http://www.w3.org/2000/svg">
<path fill-rule="evenodd" clip-rule="evenodd" d="M11.8548 1.88477C13.0678 1.76865 14.2169 2.48639 15.5303 3.79977L18.9903 7.25977C20.2374 8.50683 20.9324 9.64431 20.8469 10.8566C20.764 12.0319 19.9539 13.0169 18.9903 13.9804L13.4192 19.5515C12.8125 20.1557 12.2679 20.6498 11.7506 20.9943C11.2266 21.3433 10.6791 21.5739 10.0759 21.5776C9.47166 21.5813 8.92029 21.3569 8.38986 21.0079C7.86659 20.6638 7.31519 20.166 6.69966 19.5504L3.23966 16.0904C2.58584 15.4366 2.06795 14.8654 1.71624 14.3351C1.35984 13.7978 1.13367 13.2428 1.15287 12.6352C1.17193 12.0319 1.42935 11.4986 1.78689 10.9973C2.14088 10.5009 2.6416 9.97034 3.23856 9.37088L3.23966 9.36977L8.80966 3.79977C9.29857 3.31087 9.77197 2.8664 10.2487 2.53291C10.7306 2.19576 11.2574 1.94195 11.8548 1.88477ZM11.1085 3.76199C10.7468 4.01506 10.3514 4.37934 9.87032 4.86043L4.30143 10.4293C4.07151 10.6602 3.86775 10.8694 3.68841 11.0613C8.79497 9.98097 14.0929 10.0817 19.1659 11.3784C19.2781 11.153 19.3367 10.9479 19.3506 10.7511C19.3876 10.2259 19.1126 9.50338 17.9297 8.32043L14.4697 4.86043C13.193 3.58382 12.4822 3.33156 11.9977 3.37794C11.7463 3.40201 11.465 3.51257 11.1085 3.76199ZM18.1666 12.6779C13.0649 11.4818 7.74411 11.5412 2.6634 12.8408C2.69125 13.0054 2.77418 13.2164 2.96625 13.506C3.23078 13.9048 3.65915 14.3886 4.30032 15.0298L7.76032 18.4898C8.3598 19.0892 8.82339 19.4977 9.21418 19.7548C9.59782 20.0071 9.85957 20.0789 10.0666 20.0776C10.2746 20.0763 10.5365 20.0007 10.9191 19.7459C11.3082 19.4867 11.7672 19.0797 12.3603 18.4891L17.9297 12.9198C18.0128 12.8367 18.0917 12.7561 18.1666 12.6779ZM21.7218 16.402L22.3831 17.4942C22.9287 18.4036 23.0913 19.4103 22.6199 20.2414C22.1486 21.0721 21.2011 21.4501 20.14 21.4501C19.0789 21.4501 18.1314 21.0721 17.6601 20.2414C17.1887 19.4103 17.3513 18.4036 17.8969 17.4942L17.8984 17.4916L18.5568 16.4043C18.9 15.8274 19.4507 15.3951 20.1362 15.3951C20.821 15.3951 21.374 15.8271 21.7218 16.402ZM20.0549 16.9283C20.004 16.9626 19.927 17.0345 19.8451 17.1727L19.8416 17.1786L19.1824 18.2672C18.7988 18.9072 18.8563 19.31 18.9648 19.5013C19.0736 19.6931 19.3911 19.9501 20.14 19.9501C20.8889 19.9501 21.2064 19.6931 21.3151 19.5013C21.4237 19.31 21.4812 18.9072 21.0976 18.2672L20.4384 17.1786C20.3542 17.0392 20.2749 16.9654 20.2217 16.9298C20.1715 16.8962 20.1437 16.8951 20.1362 16.8951C20.129 16.8951 20.1027 16.8961 20.0549 16.9283Z" fill="#424B5A"/>
</svg>
