<svg width="24" height="24" viewBox="0 0 24 24" fill="none" xmlns="http://www.w3.org/2000/svg">
<path fill-rule="evenodd" clip-rule="evenodd" d="M4.21997 10C4.21997 5.71579 7.68576 2.25 11.97 2.25C16.2542 2.25 19.72 5.71579 19.72 10V15.5C19.72 17.8442 17.8142 19.75 15.47 19.75C13.1258 19.75 11.22 17.8442 11.22 15.5V12C11.22 11.5858 11.5558 11.25 11.97 11.25C12.3842 11.25 12.72 11.5858 12.72 12V15.5C12.72 17.0158 13.9542 18.25 15.47 18.25C16.9858 18.25 18.22 17.0158 18.22 15.5V10C18.22 6.54421 15.4258 3.75 11.97 3.75C8.51418 3.75 5.71997 6.54421 5.71997 10V16C5.71997 18.8958 8.07418 21.25 10.97 21.25C11.3842 21.25 11.72 21.5858 11.72 22C11.72 22.4142 11.3842 22.75 10.97 22.75C7.24576 22.75 4.21997 19.7242 4.21997 16V10Z" fill="#424B5A"/>
</svg>
