<svg width="24" height="24" viewBox="0 0 24 24" fill="none" xmlns="http://www.w3.org/2000/svg">
<path fill-rule="evenodd" clip-rule="evenodd" d="M15.75 2C15.75 1.58579 15.4142 1.25 15 1.25C14.5858 1.25 14.25 1.58579 14.25 2V22C14.25 22.4142 14.5858 22.75 15 22.75C15.4142 22.75 15.75 22.4142 15.75 22V20.25H16.5C17.1264 20.25 17.7143 20.2303 18.2541 20.1542C19.6627 19.9971 20.7609 19.5615 21.4426 18.5262C22.0819 17.5555 22.25 16.1974 22.25 14.5V9.5C22.25 7.80259 22.0819 6.44445 21.4426 5.47376C20.7609 4.43847 19.6627 4.00291 18.2541 3.84583C17.7143 3.76967 17.1264 3.75 16.5 3.75H15.75V2ZM15.75 18.75H16.5C17.109 18.75 17.617 18.73 18.0539 18.6675C18.0619 18.6664 18.0698 18.6654 18.0778 18.6645C19.2934 18.5305 19.8611 18.2006 20.1899 17.7013C20.5631 17.1345 20.75 16.1826 20.75 14.5V9.5C20.75 7.81741 20.5631 6.86555 20.1899 6.29874C19.8611 5.79944 19.2934 5.46953 18.0778 5.33548C18.0698 5.3346 18.0619 5.3336 18.0539 5.33246C17.617 5.27004 17.109 5.25 16.5 5.25H15.75V18.75ZM7.5 5.25C6.89105 5.25 6.38302 5.27004 5.94607 5.33246C5.93813 5.3336 5.93017 5.3346 5.9222 5.33548C4.70657 5.46953 4.13894 5.79944 3.81013 6.29874C3.43687 6.86555 3.25 7.81741 3.25 9.5V14.5C3.25 16.1826 3.43687 17.1345 3.81013 17.7013C4.13894 18.2006 4.70657 18.5305 5.9222 18.6645C5.93017 18.6654 5.93813 18.6664 5.94607 18.6675C6.38302 18.73 6.89105 18.75 7.5 18.75H11.02C11.4342 18.75 11.77 19.0858 11.77 19.5C11.77 19.9142 11.4342 20.25 11.02 20.25H7.5C6.8736 20.25 6.28569 20.2303 5.74593 20.1542C4.33727 19.9971 3.23915 19.5615 2.55737 18.5262C1.91813 17.5555 1.75 16.1974 1.75 14.5V9.5C1.75 7.80259 1.91813 6.44445 2.55737 5.47376C3.23915 4.43847 4.33727 4.00291 5.74594 3.84583C6.2857 3.76967 6.8736 3.75 7.5 3.75H10.96C11.3742 3.75 11.71 4.08579 11.71 4.5C11.71 4.91421 11.3742 5.25 10.96 5.25H7.5ZM10.0945 12C10.0945 11.4477 10.5422 11 11.0945 11H11.1035C11.6557 11 12.1035 11.4477 12.1035 12C12.1035 12.5523 11.6557 13 11.1035 13H11.0945C10.5422 13 10.0945 12.5523 10.0945 12ZM7.09448 11C6.5422 11 6.09448 11.4477 6.09448 12C6.09448 12.5523 6.5422 13 7.09448 13H7.10347C7.65575 13 8.10347 12.5523 8.10347 12C8.10347 11.4477 7.65575 11 7.10347 11H7.09448Z" fill="#424B5A"/>
</svg>
