<svg width="24" height="24" viewBox="0 0 24 24" fill="none" xmlns="http://www.w3.org/2000/svg">
<path fill-rule="evenodd" clip-rule="evenodd" d="M14.8429 2.66819C15.7162 2.63367 16.5915 3.01094 17.2903 3.70978L20.3203 6.73978C21.6594 8.07882 21.6982 10.3483 20.052 11.3933L17.7642 12.8414L17.9678 16.321C18.0814 17.4712 17.9657 18.4656 17.341 19.1953C16.7242 19.9159 15.7634 20.1951 14.6791 20.3248L14.6778 20.325L6.35988 21.3047L6.35854 21.3049C5.28422 21.4342 4.29645 21.1118 3.60909 20.4261C2.9213 19.74 2.5959 18.7516 2.72526 17.6716L2.72536 17.6707L3.70492 9.35454L3.70504 9.35344C3.83029 8.26371 4.11081 7.32143 4.83935 6.71585C5.56525 6.11245 6.55555 5.99382 7.69446 6.06143L7.69574 6.0615L11.1833 6.27449L12.6354 3.98046C13.1486 3.16184 13.957 2.70321 14.8429 2.66819ZM11.2506 7.78139L16.2586 12.7893L16.4713 16.4239C16.4719 16.4343 16.4727 16.4447 16.4738 16.4551C16.5776 17.4882 16.4215 17.9629 16.2015 18.2199C15.9709 18.4892 15.5069 18.715 14.502 18.8353L14.5009 18.8354L6.18228 19.8153L6.18015 19.8155C5.86355 19.8537 5.58059 19.8278 5.3354 19.7547L8.17122 16.9096C8.46363 16.6162 8.46285 16.1413 8.16947 15.8489C7.8761 15.5565 7.40123 15.5573 7.10882 15.8507L4.27513 18.6937C4.20245 18.4491 4.17664 18.1665 4.21468 17.8495L4.21487 17.8478L5.19487 9.52784L5.19512 9.52567C5.30993 8.52587 5.53448 8.08858 5.79819 7.86937C6.06473 7.64781 6.55429 7.49646 7.60495 7.55875L7.60558 7.55879L11.2506 7.78139ZM14.9021 4.16702C14.5237 4.18198 14.1626 4.36775 13.9057 4.77807L13.9037 4.78123L12.5347 6.94414L17.086 11.4954L19.2481 10.1269C19.9014 9.7117 20.0804 8.62119 19.2597 7.80044L16.2297 4.77044C15.7785 4.31927 15.2938 4.15154 14.9021 4.16702Z" fill="#424B5A"/>
</svg>
