<svg width="24" height="24" viewBox="0 0 24 24" fill="none" xmlns="http://www.w3.org/2000/svg">
<path fill-rule="evenodd" clip-rule="evenodd" d="M11.97 2.75C6.86134 2.75 2.71997 6.89137 2.71997 12C2.71997 17.1086 6.86134 21.25 11.97 21.25C17.0786 21.25 21.22 17.1086 21.22 12C21.22 6.89137 17.0786 2.75 11.97 2.75ZM1.21997 12C1.21997 6.06294 6.03291 1.25 11.97 1.25C17.907 1.25 22.72 6.06294 22.72 12C22.72 17.9371 17.907 22.75 11.97 22.75C6.03291 22.75 1.21997 17.9371 1.21997 12ZM10.72 14.53V9.46999C10.72 8.98999 10.52 8.79999 10.01 8.79999H8.71C8.2 8.79999 8 8.98999 8 9.46999V14.53C8 15.01 8.2 15.2 8.71 15.2H10C10.52 15.2 10.72 15.01 10.72 14.53ZM16 9.46999V14.53C16 15.01 15.8 15.2 15.29 15.2H14C13.49 15.2 13.29 15.01 13.29 14.53V9.46999C13.29 8.98999 13.49 8.79999 14 8.79999H15.29C15.8 8.79999 16 8.98999 16 9.46999Z" fill="#424B5A"/>
</svg>
