<svg width="24" height="24" viewBox="0 0 24 24" fill="none" xmlns="http://www.w3.org/2000/svg">
<path fill-rule="evenodd" clip-rule="evenodd" d="M2.95078 2.89279C3.48336 2.39117 4.2259 2.25 5.01 2.25H8.64C9.4241 2.25 10.1666 2.39117 10.6992 2.89279C11.2433 3.40519 11.4 4.13203 11.4 4.89V19.11C11.4 19.868 11.2433 20.5948 10.6992 21.1072C10.1666 21.6088 9.4241 21.75 8.64 21.75H5.01C4.2259 21.75 3.48336 21.6088 2.95078 21.1072C2.40674 20.5948 2.25 19.868 2.25 19.11V4.89C2.25 4.13203 2.40674 3.40519 2.95078 2.89279ZM3.97922 3.98471C3.87826 4.07981 3.75 4.29797 3.75 4.89V19.11C3.75 19.702 3.87826 19.9202 3.97922 20.0153C4.09164 20.1212 4.3541 20.25 5.01 20.25H8.64C9.2959 20.25 9.55836 20.1212 9.67078 20.0153C9.77174 19.9202 9.9 19.702 9.9 19.11V4.89C9.9 4.29797 9.77174 4.07981 9.67078 3.98471C9.55836 3.87883 9.2959 3.75 8.64 3.75H5.01C4.3541 3.75 4.09164 3.87883 3.97922 3.98471Z" fill="#424B5A"/>
<path fill-rule="evenodd" clip-rule="evenodd" d="M13.3056 2.89179C13.8385 2.39176 14.5794 2.25 15.36 2.25H18.99C19.7741 2.25 20.5166 2.39117 21.0492 2.89279C21.5933 3.40519 21.75 4.13203 21.75 4.89V19.11C21.75 19.868 21.5933 20.5948 21.0492 21.1072C20.5166 21.6088 19.7741 21.75 18.99 21.75H15.36C14.5759 21.75 13.8334 21.6088 13.3008 21.1072C12.7567 20.5948 12.6 19.868 12.6 19.11V4.89C12.6 4.12889 12.7607 3.40304 13.3056 2.89179ZM14.3319 3.98571C14.2293 4.08196 14.1 4.30111 14.1 4.89V19.11C14.1 19.702 14.2283 19.9202 14.3292 20.0153C14.4416 20.1212 14.7041 20.25 15.36 20.25H18.99C19.6459 20.25 19.9084 20.1212 20.0208 20.0153C20.1217 19.9202 20.25 19.702 20.25 19.11V4.89C20.25 4.29797 20.1217 4.07981 20.0208 3.98471C19.9084 3.87883 19.6459 3.75 18.99 3.75H15.36C14.7106 3.75 14.4465 3.87824 14.3319 3.98571Z" fill="#424B5A"/>
</svg>
