<svg width="24" height="24" viewBox="0 0 24 24" fill="none" xmlns="http://www.w3.org/2000/svg">
<path fill-rule="evenodd" clip-rule="evenodd" d="M4.16037 3.57416C4.80173 3.05774 5.61698 2.75 6.5 2.75C8.57579 2.75 10.25 4.42421 10.25 6.5C10.25 6.83337 10.2017 7.16812 10.1136 7.47742C10.1099 7.4894 10.1065 7.50152 10.1034 7.51376C10.0119 7.84196 9.8803 8.14511 9.70689 8.43414C9.50636 8.76834 9.25783 9.06549 8.97191 9.31056L8.97185 9.31049L8.96262 9.31866C8.3051 9.90127 7.45055 10.25 6.5 10.25C6.07521 10.25 5.68525 10.1845 5.32509 10.0582C5.31187 10.0533 5.29846 10.0486 5.28487 10.0444C4.4448 9.76101 3.74137 9.18123 3.29312 8.43413L3.29228 8.43275C2.94918 7.86371 2.75 7.19677 2.75 6.5C2.75 5.31377 3.29152 4.25926 4.15437 3.57894L4.15439 3.57897L4.16037 3.57416ZM4.24789 11.2405C3.3106 10.7967 2.53279 10.0821 2.00729 9.20657L2.00771 9.20727L2.64999 8.82001L2.00687 9.20588L2.00729 9.20657C1.53064 8.41576 1.25 7.48295 1.25 6.5C1.25 4.84759 2.00723 3.36317 3.22262 2.40342C4.12081 1.68128 5.26439 1.25 6.5 1.25C9.40421 1.25 11.75 3.59579 11.75 6.5C11.75 6.66888 11.7414 6.83759 11.7246 7.00475L12.1835 7.0336L13.7148 4.61117L13.7155 4.61013C14.2491 3.76095 15.0878 3.28807 16.0041 3.25182C16.9077 3.21607 17.8157 3.60504 18.5403 4.32964L21.718 7.5073L21.7193 7.50856C23.1197 8.89807 23.1582 11.2574 21.4527 12.3428L21.4507 12.344L19.025 13.8773L19.2379 17.5311C19.3565 18.7367 19.2329 19.7676 18.5893 20.5218C17.9527 21.2677 16.9596 21.5598 15.8288 21.6947L7.10799 22.7248L7.10505 22.7251C5.98338 22.8532 4.95864 22.5168 4.24718 21.8053C3.53546 21.0936 3.20096 20.0702 3.33528 18.9512L4.24789 11.2405ZM11.3544 8.48445C11.2527 8.73424 11.1321 8.97419 10.9931 9.20588C10.7147 9.66991 10.3648 10.0913 9.95279 10.4454C9.0309 11.2604 7.82724 11.75 6.5 11.75C6.22975 11.75 5.96459 11.7305 5.70503 11.6911L4.82464 19.1296C4.78089 19.4935 4.81604 19.8156 4.90816 20.0907L7.92884 17.0605C8.22127 16.7671 8.69614 16.7664 8.9895 17.0588C9.28285 17.3512 9.2836 17.8261 8.99117 18.1195L5.97144 21.1487C6.24683 21.2404 6.56928 21.2764 6.93372 21.235L6.93496 21.2348L15.6512 20.2052C16.7004 20.0801 17.1973 19.8422 17.4483 19.5481C17.6893 19.2656 17.8525 18.7522 17.7437 17.6646C17.7427 17.6543 17.7419 17.6439 17.7413 17.6336L17.5185 13.8091L12.2501 8.54074L11.3544 8.48445ZM16.0634 4.75065C15.6526 4.7669 15.2616 4.96865 14.9852 5.40882L14.984 5.41075L13.5344 7.70376L18.3562 12.5255L20.6473 11.0773L20.6482 11.0767C21.3615 10.6219 21.54 9.44293 20.662 8.57263L20.6597 8.5703L17.4797 5.3903L18.01 4.85997L17.4797 5.3903C17.0043 4.9149 16.4873 4.73388 16.0634 4.75065ZM4.78968 4.76966C5.08257 4.47676 5.55745 4.47677 5.85034 4.76966L6.51001 5.42933L7.14966 4.78968C7.44255 4.49678 7.91743 4.49678 8.21032 4.78968C8.50322 5.08257 8.50322 5.55744 8.21032 5.85034L7.57067 6.49L8.23033 7.14966C8.52322 7.44256 8.52322 7.91743 8.23033 8.21032C7.93743 8.50322 7.46256 8.50322 7.16967 8.21032L6.51001 7.55066L5.83033 8.23034C5.53744 8.52323 5.06257 8.52324 4.76967 8.23034C4.47678 7.93745 4.47678 7.46258 4.76967 7.16968L5.44935 6.49L4.78968 5.83032C4.49678 5.53742 4.49678 5.06255 4.78968 4.76966Z" fill="#424B5A"/>
</svg>
