<svg width="24" height="24" viewBox="0 0 24 24" fill="none" xmlns="http://www.w3.org/2000/svg">
<path fill-rule="evenodd" clip-rule="evenodd" d="M10.9003 3.24049L11.6803 2.46047C11.8574 2.28337 12.1426 2.28337 12.3197 2.46047L13.0997 3.2405C13.2768 3.4176 13.2768 3.70269 13.0997 3.8798L12.713 4.26643L12.7097 4.26978L12.7063 4.27317L12.3197 4.65983C12.1426 4.83692 11.8574 4.83691 11.6803 4.65982L11.2939 4.27332C11.2927 4.27214 11.2915 4.27096 11.2903 4.26978C11.2892 4.26861 11.288 4.26744 11.2868 4.26628L10.9003 3.87979C10.7232 3.70268 10.7232 3.41759 10.9003 3.24049ZM9.70637 4.79308C9.07973 4.02601 9.12416 2.89536 9.83966 2.17985L10.6197 1.39981C11.3826 0.636913 12.6174 0.636913 13.3803 1.39981L14.1603 2.17984C14.8758 2.89535 14.9203 4.02601 14.2936 4.79308L18.7078 9.2072C18.9367 9.11244 19.1874 9.06012 19.45 9.06012H20.55C21.6242 9.06012 22.5 9.93593 22.5 11.0101V12.1101C22.5 13.1843 21.6243 14.0602 20.55 14.0602H19.45C18.3757 14.0602 17.5 13.1843 17.5 12.1101V11.0101C17.5 10.7476 17.5523 10.4968 17.6471 10.2679L13.233 5.85376C12.5167 6.43893 11.4833 6.43894 10.767 5.85376L6.35291 10.2679C6.44767 10.4968 6.5 10.7476 6.5 11.0101V12.1101C6.5 13.1843 5.62428 14.0602 4.55 14.0602H3.45C2.37572 14.0602 1.5 13.1843 1.5 12.1101V11.0101C1.5 9.93593 2.37577 9.06012 3.45 9.06012H4.55C4.81257 9.06012 5.06328 9.11244 5.29224 9.2072L9.70637 4.79308ZM13.7685 10.8652C13.3208 10.2986 12.6895 9.97266 12.015 9.97266C11.3405 9.97266 10.7086 10.2994 10.261 10.8659L7.21258 14.7338L7.21176 14.7348C6.80261 15.2505 6.45142 15.8456 6.5048 16.5263C6.55891 17.2163 7.00647 17.7492 7.55202 18.1999L8.93432 19.4304L8.61883 20.8231C8.30498 22.1881 9.49447 23.2501 10.75 23.2501H13.27C13.9259 23.2501 14.5331 23.0156 14.9488 22.5649C15.3721 22.1059 15.5432 21.4775 15.403 20.8312L15.0874 19.4378L16.4881 18.1908C17.0057 17.7318 17.4468 17.2015 17.5093 16.5254C17.5721 15.8458 17.231 15.255 16.8183 14.7349L16.8174 14.7338L13.7685 10.8652ZM13.9633 18.4302L15.4924 17.0689C15.9446 16.6681 16.0082 16.4685 16.0157 16.3874C16.0228 16.3099 15.9995 16.116 15.6426 15.6664L15.641 15.6643L12.76 12.0089V13.6501C12.76 14.0644 12.4242 14.4001 12.01 14.4001C11.5958 14.4001 11.26 14.0644 11.26 13.6501V12.0216L8.38743 15.6664C8.02693 16.1205 7.99362 16.325 8.00021 16.409C8.0057 16.479 8.05706 16.6734 8.51618 17.0507C8.5238 17.057 8.53131 17.0634 8.53868 17.07L10.0667 18.4302H13.9633ZM10.0815 21.1558L10.3591 19.9302H13.6609L13.9376 21.1519C13.9764 21.334 13.9275 21.4597 13.8462 21.5479C13.7569 21.6447 13.5741 21.7501 13.27 21.7501H10.75C10.5029 21.7501 10.3089 21.6504 10.1946 21.5273C10.0835 21.4076 10.0531 21.2786 10.0808 21.1588L10.0815 21.1558ZM19.45 10.5601C19.2042 10.5601 19 10.7643 19 11.0101V12.1101C19 12.356 19.2043 12.5602 19.45 12.5602H20.55C20.7957 12.5602 21 12.356 21 12.1101V11.0101C21 10.7643 20.7958 10.5601 20.55 10.5601H19.45ZM3 11.0101C3 10.7643 3.20422 10.5601 3.45 10.5601H4.55C4.79578 10.5601 5 10.7643 5 11.0101V12.1101C5 12.356 4.79573 12.5602 4.55 12.5602H3.45C3.20427 12.5602 3 12.356 3 12.1101V11.0101Z" fill="#424B5A"/>
</svg>
