<svg width="24" height="24" viewBox="0 0 24 24" fill="none" xmlns="http://www.w3.org/2000/svg">
<path fill-rule="evenodd" clip-rule="evenodd" d="M6.5 2.75C5.61698 2.75 4.80173 3.05774 4.16037 3.57416L4.15439 3.57897L4.15437 3.57894C3.29152 4.25926 2.75 5.31377 2.75 6.5C2.75 7.19677 2.94918 7.86371 3.29228 8.43275L3.29312 8.43413C3.74137 9.18123 4.4448 9.76101 5.28486 10.0444C5.29846 10.0486 5.31187 10.0533 5.32509 10.0582C5.68525 10.1845 6.07521 10.25 6.5 10.25C7.45055 10.25 8.30509 9.90127 8.9626 9.31866L8.97183 9.31049L8.9719 9.31056C9.25782 9.06549 9.50637 8.76833 9.70689 8.43414C9.88029 8.14512 10.0119 7.84198 10.1033 7.51376C10.1065 7.50152 10.1099 7.4894 10.1136 7.47742C10.2017 7.1681 10.25 6.83336 10.25 6.5C10.25 4.42421 8.57579 2.75 6.5 2.75ZM2.00729 9.20657C2.53279 10.0821 3.3106 10.7967 4.24789 11.2405L3.33526 18.9513C3.20095 20.0702 3.53545 21.0936 4.24717 21.8053C4.95863 22.5168 5.98337 22.8532 7.10504 22.7251L7.10797 22.7248L15.8288 21.6947C16.9596 21.5598 17.9527 21.2677 18.5892 20.5218C19.2329 19.7676 19.3564 18.7367 19.2378 17.5311L19.025 13.8773L21.4507 12.344L21.4526 12.3428C23.1581 11.2574 23.1197 8.89804 21.7192 7.50853L21.718 7.5073L18.5403 4.32964C17.8157 3.60504 16.9077 3.21607 16.0041 3.25182C15.0878 3.28807 14.2491 3.76095 13.7155 4.61012L13.7148 4.61117L12.1835 7.0336L11.7246 7.00476C11.7414 6.8376 11.75 6.66888 11.75 6.5C11.75 3.59579 9.40421 1.25 6.5 1.25C5.26439 1.25 4.12081 1.68128 3.22262 2.40342C2.00723 3.36317 1.25 4.84759 1.25 6.5C1.25 7.48295 1.53064 8.41576 2.00729 9.20657ZM2.00729 9.20657L2.00687 9.20588L2.64999 8.82001L2.00771 9.20727L2.00729 9.20657ZM10.9931 9.20588C11.1321 8.97418 11.2527 8.73424 11.3544 8.48445L12.2501 8.54074L17.5185 13.8091L17.7413 17.6336C17.7419 17.6439 17.7427 17.6543 17.7437 17.6646C17.8525 18.7522 17.6893 19.2656 17.4482 19.5481C17.1973 19.8422 16.7004 20.0801 15.6512 20.2052L6.93494 21.2348L6.93371 21.235C6.56927 21.2764 6.24683 21.2404 5.97144 21.1487L8.99116 18.1195C9.28359 17.8261 9.28284 17.3512 8.98948 17.0588C8.69613 16.7664 8.22125 16.7671 7.92882 17.0605L4.90815 20.0907C4.81602 19.8156 4.78087 19.4935 4.82463 19.1296L5.70503 11.6911C5.96459 11.7305 6.22975 11.75 6.5 11.75C7.82724 11.75 9.03089 11.2604 9.95278 10.4454C10.3648 10.0913 10.7147 9.66992 10.9931 9.20588ZM14.9852 5.40882C15.2616 4.96865 15.6526 4.7669 16.0634 4.75065C16.4873 4.73388 17.0043 4.9149 17.4797 5.3903L20.6597 8.5703L20.662 8.57263C21.54 9.44295 21.3615 10.622 20.6481 11.0767L20.6473 11.0773L18.3562 12.5255L13.5344 7.70376L14.984 5.41075L14.9852 5.40882ZM4.79999 5.75C4.38577 5.75 4.04999 6.08579 4.04999 6.5C4.04999 6.91421 4.38577 7.25 4.79999 7.25H8.16C8.57422 7.25 8.91 6.91421 8.91 6.5C8.91 6.08579 8.57422 5.75 8.16 5.75H4.79999Z" fill="#424B5A"/>
</svg>
