<svg width="24" height="24" viewBox="0 0 24 24" fill="none" xmlns="http://www.w3.org/2000/svg">
<path fill-rule="evenodd" clip-rule="evenodd" d="M11.27 3C11.27 2.86421 11.3842 2.75 11.52 2.75H12.52C12.6558 2.75 12.77 2.86421 12.77 3V3.55009C12.7699 3.55734 12.7699 3.56457 12.77 3.57178V4C12.77 4.13579 12.6558 4.25 12.52 4.25H11.52C11.3842 4.25 11.27 4.13579 11.27 4V3.57134V3.55052V3ZM14.2119 4.44766C14.0134 5.19605 13.3296 5.75 12.52 5.75H11.52C10.7087 5.75 10.0237 5.19362 9.82685 4.44273C7.0033 5.11012 4.84702 7.49916 4.5381 10.4405C5.37578 10.5701 6.02002 11.297 6.02002 12.17V13.17C6.02002 14.1343 5.23423 14.92 4.27002 14.92H3.27002C2.30581 14.92 1.52002 14.1343 1.52002 13.17V12.17C1.52002 11.2867 2.1795 10.553 3.03158 10.4362C3.35607 6.68219 6.14714 3.64244 9.77184 2.91978C9.81398 1.99258 10.5827 1.25 11.52 1.25H12.52C13.4586 1.25 14.2281 1.99452 14.2684 2.9234C17.873 3.66215 20.6454 6.69281 20.9685 10.4362C21.8206 10.5531 22.48 11.2867 22.48 12.17V13.17C22.48 14.1343 21.6942 14.92 20.73 14.92H19.73C18.7658 14.92 17.98 14.1343 17.98 13.17V12.17C17.98 11.297 18.6243 10.5701 19.462 10.4405C19.1547 7.50981 17.0163 5.12924 14.2119 4.44766ZM20.25 11.92H19.73C19.5943 11.92 19.48 12.0342 19.48 12.17V13.17C19.48 13.3058 19.5942 13.42 19.73 13.42H20.73C20.8658 13.42 20.98 13.3058 20.98 13.17V12.17C20.98 12.0342 20.8657 11.92 20.73 11.92H20.25ZM3.27002 11.92H3.75002H4.27002C4.40575 11.92 4.52002 12.0342 4.52002 12.17V13.17C4.52002 13.3058 4.40581 13.42 4.27002 13.42H3.27002C3.13423 13.42 3.02002 13.3058 3.02002 13.17V12.17C3.02002 12.0342 3.13429 11.92 3.27002 11.92ZM13.7685 10.8651C13.3208 10.2985 12.6895 9.97253 12.015 9.97253C11.3405 9.97253 10.7086 10.2992 10.261 10.8658L7.21259 14.7337L7.21174 14.7347C6.80261 15.2504 6.45143 15.8455 6.5048 16.5261C6.55892 17.2162 7.00648 17.7491 7.55202 18.1997L8.93433 19.4303L8.61885 20.823C8.30501 22.188 9.49449 23.25 10.75 23.25H13.27C13.9259 23.25 14.5331 23.0154 14.9488 22.5647C15.3721 22.1058 15.5432 21.4773 15.403 20.831L15.0874 19.4377L16.4876 18.1912L16.4883 18.1905C17.0059 17.7315 17.4469 17.2013 17.5093 16.5253C17.5721 15.8456 17.231 15.2549 16.8183 14.7348L16.8174 14.7337L13.7685 10.8651ZM13.9633 18.4301L15.4913 17.0698L15.4925 17.0688C15.9446 16.668 16.0082 16.4684 16.0157 16.3872C16.0228 16.3098 15.9995 16.1159 15.6426 15.6663L15.641 15.6642L12.76 12.0088V13.65C12.76 14.0642 12.4242 14.4 12.01 14.4C11.5958 14.4 11.26 14.0642 11.26 13.65V12.0215L8.38744 15.6663C8.02694 16.1204 7.99363 16.3249 8.00021 16.4089C8.0057 16.4789 8.05706 16.6733 8.51618 17.0506C8.52381 17.0568 8.53131 17.0633 8.53868 17.0698L10.0667 18.4301H13.9633ZM10.0815 21.1557L10.3591 19.9301H13.6609L13.9376 21.1517C13.9764 21.3339 13.9275 21.4596 13.8462 21.5477C13.7569 21.6446 13.5741 21.75 13.27 21.75H10.75C10.503 21.75 10.3089 21.6503 10.1946 21.5272C10.0835 21.4075 10.0532 21.2785 10.0808 21.1586L10.0815 21.1557Z" fill="#424B5A"/>
</svg>
