<svg width="24" height="24" viewBox="0 0 24 24" fill="none" xmlns="http://www.w3.org/2000/svg">
<path fill-rule="evenodd" clip-rule="evenodd" d="M2.75 12C2.75 6.89137 6.89137 2.75 12 2.75C17.1086 2.75 21.25 6.89137 21.25 12C21.25 17.1086 17.1086 21.25 12 21.25C6.89137 21.25 2.75 17.1086 2.75 12ZM12 1.25C6.06294 1.25 1.25 6.06294 1.25 12C1.25 17.9371 6.06294 22.75 12 22.75C17.9371 22.75 22.75 17.9371 22.75 12C22.75 6.06294 17.9371 1.25 12 1.25ZM8.5 9.14001C8.5 8.87492 8.71491 8.66 8.98001 8.66C9.24508 8.66 9.45999 8.87489 9.45999 9.14001C9.45999 9.40511 9.24511 9.62 8.98001 9.62C8.71489 9.62 8.5 9.40509 8.5 9.14001ZM8.98001 7.16C7.88649 7.16 7 8.04649 7 9.14001C7 10.2336 7.88651 11.12 8.98001 11.12C10.0735 11.12 10.96 10.2335 10.96 9.14001C10.96 8.04651 10.0736 7.16 8.98001 7.16ZM15.6404 9.26034C15.9333 8.96745 15.9333 8.49257 15.6404 8.19968C15.3475 7.90679 14.8726 7.90679 14.5797 8.19968L8.03974 14.7397C7.74685 15.0326 7.74685 15.5074 8.03974 15.8003C8.33263 16.0932 8.80751 16.0932 9.1004 15.8003L15.6404 9.26034ZM15.52 14.38C15.2549 14.38 15.04 14.5949 15.04 14.86C15.04 15.1251 15.2549 15.34 15.52 15.34C15.7851 15.34 16 15.1251 16 14.86C16 14.5949 15.7851 14.38 15.52 14.38ZM13.54 14.86C13.54 13.7665 14.4265 12.88 15.52 12.88C16.6135 12.88 17.5 13.7664 17.5 14.86C17.5 15.9535 16.6135 16.84 15.52 16.84C14.4265 16.84 13.54 15.9535 13.54 14.86Z" fill="#424B5A"/>
</svg>
