<svg width="24" height="24" viewBox="0 0 24 24" fill="none" xmlns="http://www.w3.org/2000/svg">
<path fill-rule="evenodd" clip-rule="evenodd" d="M2.75 9C2.75 6.57397 3.2398 5.07086 4.15533 4.15533C5.07086 3.2398 6.57397 2.75 9 2.75H15C17.426 2.75 18.9291 3.2398 19.8447 4.15533C20.7602 5.07086 21.25 6.57397 21.25 9V15C21.25 17.426 20.7602 18.9291 19.8447 19.8447C18.9291 20.7602 17.426 21.25 15 21.25H9C6.57397 21.25 5.07086 20.7602 4.15533 19.8447C3.2398 18.9291 2.75 17.426 2.75 15V9ZM9 1.25C6.42603 1.25 4.42914 1.7602 3.09467 3.09467C1.7602 4.42914 1.25 6.42603 1.25 9V15C1.25 17.574 1.7602 19.5709 3.09467 20.9053C4.42914 22.2398 6.42603 22.75 9 22.75H15C17.574 22.75 19.5709 22.2398 20.9053 20.9053C22.2398 19.5709 22.75 17.574 22.75 15V9C22.75 6.42603 22.2398 4.42914 20.9053 3.09467C19.5709 1.7602 17.574 1.25 15 1.25H9ZM15.6404 9.26034C15.9333 8.96745 15.9333 8.49257 15.6404 8.19968C15.3475 7.90679 14.8726 7.90679 14.5797 8.19968L8.03974 14.7397C7.74685 15.0326 7.74685 15.5074 8.03974 15.8003C8.33263 16.0932 8.80751 16.0932 9.1004 15.8003L15.6404 9.26034ZM8.98001 8.66C8.71491 8.66 8.5 8.87492 8.5 9.14001C8.5 9.40509 8.71489 9.62 8.98001 9.62C9.24511 9.62 9.45999 9.40511 9.45999 9.14001C9.45999 8.87489 9.24508 8.66 8.98001 8.66ZM7 9.14001C7 8.04649 7.88649 7.16 8.98001 7.16C10.0736 7.16 10.96 8.04651 10.96 9.14001C10.96 10.2335 10.0735 11.12 8.98001 11.12C7.88651 11.12 7 10.2336 7 9.14001ZM15.04 14.86C15.04 14.5949 15.2549 14.38 15.52 14.38C15.7851 14.38 16 14.5949 16 14.86C16 15.1251 15.7851 15.34 15.52 15.34C15.2549 15.34 15.04 15.1251 15.04 14.86ZM15.52 12.88C14.4265 12.88 13.54 13.7665 13.54 14.86C13.54 15.9535 14.4265 16.84 15.52 16.84C16.6135 16.84 17.5 15.9535 17.5 14.86C17.5 13.7664 16.6135 12.88 15.52 12.88Z" fill="#424B5A"/>
</svg>
