<svg width="24" height="24" viewBox="0 0 24 24" fill="none" xmlns="http://www.w3.org/2000/svg">
<path fill-rule="evenodd" clip-rule="evenodd" d="M10.47 3.25C9.50347 3.25 8.71997 4.0335 8.71997 5C8.71997 5.9665 9.50347 6.75 10.47 6.75C11.4365 6.75 12.22 5.9665 12.22 5C12.22 4.0335 11.4365 3.25 10.47 3.25ZM7.21997 5C7.21997 3.20507 8.67505 1.75 10.47 1.75C12.2649 1.75 13.72 3.20507 13.72 5C13.72 6.79493 12.2649 8.25 10.47 8.25C8.67505 8.25 7.21997 6.79493 7.21997 5ZM17.3 5.45C16.6096 5.45 16.05 6.00964 16.05 6.7C16.05 7.39036 16.6096 7.95 17.3 7.95C17.9903 7.95 18.55 7.39036 18.55 6.7C18.55 6.00964 17.9903 5.45 17.3 5.45ZM14.55 6.7C14.55 5.18122 15.7812 3.95 17.3 3.95C18.8188 3.95 20.05 5.18122 20.05 6.7C20.05 8.21878 18.8188 9.45 17.3 9.45C15.7812 9.45 14.55 8.21878 14.55 6.7ZM20.25 11.2C20.25 10.7858 20.5858 10.45 21 10.45C21.4142 10.45 21.75 10.7858 21.75 11.2C21.75 11.6142 21.4142 11.95 21 11.95C20.5858 11.95 20.25 11.6142 20.25 11.2ZM21 8.95C19.7573 8.95 18.75 9.95736 18.75 11.2C18.75 12.4426 19.7573 13.45 21 13.45C22.2426 13.45 23.25 12.4426 23.25 11.2C23.25 9.95736 22.2426 8.95 21 8.95ZM3.96997 7.45C3.27961 7.45 2.71997 8.00964 2.71997 8.7C2.71997 9.39036 3.27961 9.95 3.96997 9.95C4.66033 9.95 5.21997 9.39036 5.21997 8.7C5.21997 8.00964 4.66033 7.45 3.96997 7.45ZM1.21997 8.7C1.21997 7.18122 2.45119 5.95 3.96997 5.95C5.48875 5.95 6.71997 7.18122 6.71997 8.7C6.71997 10.2188 5.48875 11.45 3.96997 11.45C2.45119 11.45 1.21997 10.2188 1.21997 8.7ZM5.24997 17.5C5.24997 13.0092 8.81233 10.75 12 10.75C14.6546 10.75 18.25 12.9799 18.25 17.5C18.25 18.369 18.035 18.9964 17.7115 19.4637C17.3845 19.9359 16.9108 20.2962 16.3146 20.5672C15.0959 21.1212 13.4855 21.25 12 21.25C10.5173 21.25 8.76864 21.1224 7.41343 20.5577C6.74572 20.2795 6.21137 19.9104 5.84444 19.4333C5.48506 18.9662 5.24997 18.3491 5.24997 17.5ZM12 9.25C8.18761 9.25 3.74997 11.9908 3.74997 17.5C3.74997 18.6509 4.07738 19.5963 4.6555 20.3479C5.22607 21.0896 6.00422 21.5955 6.83651 21.9423C8.4813 22.6276 10.4827 22.75 12 22.75C13.5145 22.75 15.404 22.6288 16.9353 21.9328C17.7141 21.5788 18.4279 21.0641 18.9447 20.3175C19.465 19.5661 19.75 18.631 19.75 17.5C19.75 12.0201 15.3453 9.25 12 9.25Z" fill="#424B5A"/>
</svg>
