<svg width="24" height="24" viewBox="0 0 24 24" fill="none" xmlns="http://www.w3.org/2000/svg">
<path fill-rule="evenodd" clip-rule="evenodd" d="M2.25 2C2.25 1.58579 2.58579 1.25 3 1.25H21C21.4142 1.25 21.75 1.58579 21.75 2C21.75 2.41421 21.4142 2.75 21 2.75H3C2.58579 2.75 2.25 2.41421 2.25 2ZM2.25 22C2.25 21.5858 2.58579 21.25 3 21.25H21C21.4142 21.25 21.75 21.5858 21.75 22C21.75 22.4142 21.4142 22.75 21 22.75H3C2.58579 22.75 2.25 22.4142 2.25 22ZM14.2997 8.25033L12.75 6.70066V16.9093L14.2997 15.3597C14.5926 15.0668 15.0674 15.0668 15.3603 15.3597C15.6532 15.6526 15.6532 16.1274 15.3603 16.4203L12.5303 19.2503C12.2374 19.5432 11.7626 19.5432 11.4697 19.2503L8.63967 16.4203C8.34678 16.1274 8.34678 15.6526 8.63967 15.3597C8.93256 15.0668 9.40744 15.0668 9.70033 15.3597L11.25 16.9093V6.70066L9.70033 8.25033C9.40744 8.54322 8.93256 8.54322 8.63967 8.25033C8.34678 7.95744 8.34678 7.48256 8.63967 7.18967L11.4697 4.35967C11.7626 4.06678 12.2374 4.06678 12.5303 4.35967L15.3603 7.18967C15.6532 7.48256 15.6532 7.95744 15.3603 8.25033C15.0674 8.54322 14.5926 8.54322 14.2997 8.25033Z" fill="#424B5A"/>
</svg>
