<svg width="24" height="24" viewBox="0 0 24 24" fill="none" xmlns="http://www.w3.org/2000/svg">
<path fill-rule="evenodd" clip-rule="evenodd" d="M4.15534 4.15526C4.99498 3.31563 6.32881 2.83407 8.4155 2.75999L10.6286 11.7016L2.75001 13.9999V8.99993C2.75001 6.5739 3.23981 5.07079 4.15534 4.15526ZM1.25002 15.017C1.25227 17.5827 1.76316 19.5737 3.09468 20.9053C4.42915 22.2397 6.42604 22.7499 9.00001 22.7499H13.9332C13.944 22.7502 13.9548 22.7502 13.9656 22.7499H15C17.574 22.7499 19.5709 22.2397 20.9053 20.9053C22.2398 19.5708 22.75 17.5739 22.75 14.9999V8.99993C22.75 6.42596 22.2398 4.42907 20.9053 3.0946C19.5709 1.76013 17.574 1.24993 15 1.24993H9.01678C9.00592 1.2497 8.99503 1.2497 8.9841 1.24994C6.41781 1.25204 4.4264 1.76288 3.09468 3.0946C1.76021 4.42907 1.25001 6.42596 1.25001 8.99993V14.9826C1.24975 14.994 1.24975 15.0055 1.25002 15.017ZM2.75922 15.5597L10.9892 13.1589L12.9918 21.2499H9.00001C6.57398 21.2499 5.07087 20.7601 4.15534 19.8446C3.3124 19.0017 2.83035 17.6606 2.75922 15.5597ZM12.2647 12.0689L14.537 21.2499H15C17.426 21.2499 18.9291 20.7601 19.8447 19.8446C20.7602 18.9291 21.25 17.426 21.25 14.9999V8.99993C21.25 6.5739 20.7602 5.07079 19.8447 4.15526C18.9291 3.23973 17.426 2.74993 15 2.74993H9.95827L12.2506 12.0118C12.2561 12.0308 12.2608 12.0499 12.2647 12.0689Z" fill="#424B5A"/>
</svg>
