<svg width="24" height="24" viewBox="0 0 24 24" fill="none" xmlns="http://www.w3.org/2000/svg">
<path fill-rule="evenodd" clip-rule="evenodd" d="M7.06579 13.1557C7.29675 13.2507 7.50397 13.1596 7.57133 12.9042C7.61752 12.7272 7.72787 12.28 7.77727 12.094C7.84463 11.8412 7.81833 11.7527 7.63164 11.5326C7.22554 11.0527 6.96635 10.4317 6.96635 9.55343C6.96635 7.00391 8.87368 4.72128 11.9332 4.72128C14.6425 4.72128 16.1302 6.37712 16.1302 8.5879C16.1302 11.4967 14.8433 13.9513 12.9321 13.9513C11.8761 13.9513 11.087 13.0787 11.3398 12.0086C11.6439 10.7307 12.2303 9.35134 12.2303 8.42815C12.2303 7.60248 11.7876 6.91345 10.8702 6.91345C9.79109 6.91345 8.92436 8.02975 8.92436 9.5252C8.92436 10.4773 9.24642 11.122 9.24642 11.122C9.24642 11.122 8.14231 15.8002 7.94856 16.6188C7.56299 18.2503 7.89082 20.2506 7.91841 20.4527C7.93509 20.5727 8.08842 20.6009 8.15835 20.5111C8.25779 20.3809 9.54281 18.7943 9.97907 17.209C10.1035 16.7606 10.6893 14.4363 10.6893 14.4363C11.0395 15.1054 12.0641 15.6937 13.1535 15.6937C16.3965 15.6937 18.597 12.7374 18.597 8.77972C18.597 5.78689 16.0629 3 12.2104 3C7.41672 3 5 6.43678 5 9.30194C5 11.038 5.65695 12.5809 7.06579 13.1557Z" fill="#424B5A"/>
</svg>
