<svg width="24" height="24" viewBox="0 0 24 24" fill="none" xmlns="http://www.w3.org/2000/svg">
<path fill-rule="evenodd" clip-rule="evenodd" d="M11.97 2.75C6.86134 2.75 2.71997 6.89137 2.71997 12C2.71997 17.1086 6.86134 21.25 11.97 21.25C17.0786 21.25 21.22 17.1086 21.22 12C21.22 6.89137 17.0786 2.75 11.97 2.75ZM1.21997 12C1.21997 6.06294 6.03291 1.25 11.97 1.25C17.907 1.25 22.72 6.06294 22.72 12C22.72 17.9371 17.907 22.75 11.97 22.75C6.03291 22.75 1.21997 17.9371 1.21997 12Z" fill="#424B5A"/>
<path fill-rule="evenodd" clip-rule="evenodd" d="M10.0753 9.09432C9.79505 9.25633 9.48997 9.6798 9.48997 10.56V13.92C9.48997 14.8002 9.79505 15.2237 10.0753 15.3857C10.3553 15.5475 10.8734 15.6004 11.6345 15.1607C11.6345 15.1608 11.6346 15.1607 11.6345 15.1607L14.534 13.481C15.2951 13.0413 15.51 12.5647 15.51 12.24C15.51 11.9153 15.2958 11.4391 14.5348 10.9994L11.6348 9.3194C11.6346 9.31933 11.6349 9.31947 11.6348 9.3194C10.8737 8.8798 10.3552 8.93251 10.0753 9.09432ZM9.32463 7.79568C10.2297 7.27252 11.3464 7.42044 12.3852 8.0206L15.2852 9.7006C15.2851 9.70054 15.2853 9.70066 15.2852 9.7006C16.3239 10.3009 17.01 11.1948 17.01 12.24C17.01 13.2852 16.3242 14.179 15.2853 14.7793C15.2853 14.7793 15.2854 14.7793 15.2853 14.7793L12.3859 16.459C11.3472 17.0591 10.2297 17.2075 9.32463 16.6843C8.41989 16.1613 7.98997 15.1198 7.98997 13.92V10.56C7.98997 9.3602 8.41989 8.31867 9.32463 7.79568Z" fill="#424B5A"/>
</svg>
