<svg width="24" height="24" viewBox="0 0 24 24" fill="none" xmlns="http://www.w3.org/2000/svg">
<path fill-rule="evenodd" clip-rule="evenodd" d="M12 2.75C6.89421 2.75 2.75 6.89421 2.75 12C2.75 17.1058 6.89421 21.25 12 21.25C12.9165 21.25 13.8009 21.1145 14.6341 20.8634C14.3856 20.2891 14.25 19.6566 14.25 19C14.25 17.5059 14.9386 16.162 16.0328 15.2933C16.8487 14.6431 17.8817 14.25 19 14.25C19.6607 14.25 20.2934 14.39 20.8678 14.6378C21.1182 13.8029 21.25 12.916 21.25 12C21.25 6.89421 17.1058 2.75 12 2.75ZM1.25 12C1.25 6.06579 6.06579 1.25 12 1.25C17.9342 1.25 22.75 6.06579 22.75 12C22.75 13.4056 22.4817 14.7621 21.9743 16.0037C21.8882 16.2142 21.7114 16.3742 21.4935 16.4389C21.2755 16.5037 21.04 16.466 20.8531 16.3366C20.3205 15.9679 19.678 15.75 19 15.75C18.2385 15.75 17.5316 16.0169 16.9675 16.4665L16.9662 16.4675C16.221 17.0588 15.75 17.9745 15.75 19C15.75 19.6094 15.9205 20.1833 16.2184 20.6663C16.2207 20.6701 16.223 20.6739 16.2253 20.6778C16.2273 20.6811 16.2292 20.6845 16.2312 20.6879C16.2446 20.7113 16.266 20.7429 16.2995 20.7819C16.4563 20.9649 16.5156 21.212 16.459 21.4462C16.4024 21.6804 16.2368 21.8731 16.0138 21.9643C14.7754 22.4704 13.4192 22.75 12 22.75C6.06579 22.75 1.25 17.9342 1.25 12Z" fill="#424B5A"/>
<path fill-rule="evenodd" clip-rule="evenodd" d="M10.5526 9.50624C10.3719 9.61106 10.13 9.91094 10.13 10.61V13.36C10.13 14.0657 10.3729 14.3637 10.5514 14.4668C10.73 14.57 11.1084 14.6306 11.7151 14.2805L14.1151 12.9004C14.1149 12.9005 14.1152 12.9004 14.1151 12.9004C14.7202 12.5511 14.8575 12.1925 14.8575 11.985C14.8575 11.7775 14.7206 11.4192 14.1156 11.0699C14.1154 11.0698 14.1157 11.07 14.1156 11.0699L11.7151 9.68957C11.1105 9.34061 10.7323 9.40197 10.5526 9.50624ZM12.4644 8.39012C11.5791 7.87935 10.6025 7.74315 9.79988 8.20878C8.99806 8.67397 8.63 9.58909 8.63 10.61V13.36C8.63 14.3843 8.99714 15.3013 9.80112 15.7657C10.6048 16.2299 11.5812 16.0895 12.4644 15.5799C12.4642 15.58 12.4646 15.5798 12.4644 15.5799L14.8649 14.1996C15.7495 13.689 16.3575 12.9125 16.3575 11.985C16.3575 11.0575 15.7495 10.281 14.8649 9.77044L12.4644 8.39012C12.4645 8.39023 12.4642 8.39001 12.4644 8.39012Z" fill="#424B5A"/>
<path fill-rule="evenodd" clip-rule="evenodd" d="M19 15.75C18.2385 15.75 17.5316 16.0169 16.9675 16.4665L16.9662 16.4675C16.221 17.0588 15.75 17.9745 15.75 19C15.75 19.6094 15.9205 20.1833 16.2184 20.6663C16.2228 20.6734 16.227 20.6806 16.2312 20.6879C16.2446 20.7113 16.266 20.7429 16.2995 20.7819C16.3184 20.804 16.336 20.8271 16.3522 20.8512C16.9173 21.6908 17.8875 22.25 19 22.25C19.8227 22.25 20.5645 21.9499 21.1283 21.4425C21.1348 21.4367 21.1414 21.431 21.148 21.4254C21.391 21.2216 21.6052 20.9684 21.7722 20.6821L21.7816 20.6663C22.0795 20.1833 22.25 19.6094 22.25 19C22.25 17.8964 21.6993 16.9225 20.8531 16.3366C20.3205 15.9679 19.678 15.75 19 15.75ZM16.0328 15.2933C16.8487 14.6431 17.8817 14.25 19 14.25C20.002 14.25 20.9395 14.572 21.7069 15.1033C22.9407 15.9575 23.75 17.3836 23.75 19C23.75 19.8874 23.5023 20.7305 23.0632 21.4459C22.8131 21.8725 22.4925 22.2535 22.122 22.5662C21.2871 23.3134 20.1927 23.75 19 23.75C17.3876 23.75 15.9692 22.9443 15.1311 21.7231C15.059 21.6356 14.993 21.5427 14.9356 21.4439C14.4972 20.729 14.25 19.8866 14.25 19C14.25 17.5059 14.9386 16.162 16.0328 15.2933Z" fill="#424B5A"/>
<path fill-rule="evenodd" clip-rule="evenodd" d="M17.4184 17.4009C17.7106 17.1073 18.1855 17.1062 18.4791 17.3984L20.5991 19.5084C20.8927 19.8006 20.8938 20.2755 20.6016 20.5691C20.3094 20.8626 19.8345 20.8638 19.5409 20.5716L17.4209 18.4616C17.1274 18.1694 17.1262 17.6945 17.4184 17.4009Z" fill="#424B5A"/>
<path fill-rule="evenodd" clip-rule="evenodd" d="M20.5816 17.4309C20.8738 17.7245 20.8726 18.1994 20.5791 18.4916L18.4591 20.6016C18.1655 20.8938 17.6906 20.8927 17.3984 20.5991C17.1062 20.3055 17.1073 19.8306 17.4009 19.5384L19.5209 17.4284C19.8145 17.1362 20.2894 17.1374 20.5816 17.4309Z" fill="#424B5A"/>
</svg>
