<svg width="24" height="24" viewBox="0 0 24 24" fill="none" xmlns="http://www.w3.org/2000/svg">
<path fill-rule="evenodd" clip-rule="evenodd" d="M18.539 4.4004C18.8315 4.10714 19.3064 4.10653 19.5997 4.39904C23.8038 8.59247 23.8029 15.3979 19.6003 19.6004C19.3074 19.8933 18.8326 19.8933 18.5397 19.6004C18.2468 19.3075 18.2468 18.8326 18.5397 18.5397C22.1572 14.9223 22.1562 9.06764 18.5404 5.46106C18.2471 5.16854 18.2465 4.69367 18.539 4.4004Z" fill="#424B5A"/>
<path fill-rule="evenodd" clip-rule="evenodd" d="M5.46033 4.39972C5.75322 4.69262 5.75322 5.16749 5.46033 5.46038C1.84285 9.07787 1.84382 14.9325 5.45965 18.5391C5.75292 18.8316 5.75352 19.3065 5.46101 19.5997C5.16849 19.893 4.69361 19.8936 4.40035 19.6011C0.196172 15.4077 0.19715 8.60224 4.39967 4.39972C4.69256 4.10683 5.16743 4.10683 5.46033 4.39972Z" fill="#424B5A"/>
<path fill-rule="evenodd" clip-rule="evenodd" d="M7.99119 21.1649C8.12656 20.7735 8.55365 20.5658 8.94512 20.7012C9.93294 21.0428 10.9588 21.2097 11.9967 21.2101C13.0438 21.2004 14.0711 21.0414 15.0549 20.7012C15.4464 20.5658 15.8734 20.7735 16.0088 21.1649C16.1442 21.5564 15.9366 21.9835 15.5451 22.1189C14.3899 22.5183 13.1984 22.6994 12.0067 22.7101L12 22.7101C10.799 22.7101 9.60603 22.5169 8.45491 22.1189C8.06344 21.9835 7.85583 21.5564 7.99119 21.1649Z" fill="#424B5A"/>
<path fill-rule="evenodd" clip-rule="evenodd" d="M12 2.79004C10.961 2.79004 9.934 2.95696 8.94512 3.29891C8.55365 3.43427 8.12656 3.22666 7.99119 2.83519C7.85583 2.44372 8.06344 2.01664 8.45491 1.88127C9.60603 1.48322 10.799 1.29004 12 1.29004C13.201 1.29004 14.394 1.48322 15.5451 1.88127C15.9366 2.01664 16.1442 2.44372 16.0088 2.83519C15.8734 3.22666 15.4464 3.43427 15.0549 3.29891C14.066 2.95696 13.039 2.79004 12 2.79004Z" fill="#424B5A"/>
<path fill-rule="evenodd" clip-rule="evenodd" d="M10.0753 8.86441C9.79507 9.02642 9.48999 9.4499 9.48999 10.3301V13.6901C9.48999 14.5703 9.79507 14.9937 10.0753 15.1558C10.3553 15.3176 10.8734 15.3705 11.6345 14.9308C11.6345 14.9309 11.6346 14.9308 11.6345 14.9308L14.5341 13.2511C15.2951 12.8114 15.51 12.3348 15.51 12.0101C15.51 11.6853 15.2959 11.2092 14.5348 10.7695L11.6348 9.08948C11.6347 9.08942 11.6349 9.08954 11.6348 9.08948C10.8737 8.64985 10.3553 8.70259 10.0753 8.86441ZM9.32465 7.56577C10.2297 7.0426 11.3465 7.19051 12.3852 7.79068L15.2852 9.47067C15.2851 9.4706 15.2853 9.47075 15.2852 9.47067C16.3239 10.0709 17.01 10.9649 17.01 12.0101C17.01 13.0553 16.3242 13.9491 15.2854 14.5494C15.2853 14.5494 15.2855 14.5493 15.2854 14.5494L12.386 16.2291C11.3472 16.8292 10.2297 16.9776 9.32465 16.4544C8.41992 15.9314 7.98999 14.8899 7.98999 13.6901V10.3301C7.98999 9.13029 8.41992 8.08876 9.32465 7.56577Z" fill="#424B5A"/>
</svg>
