<svg width="24" height="24" viewBox="0 0 24 24" fill="none" xmlns="http://www.w3.org/2000/svg">
<path fill-rule="evenodd" clip-rule="evenodd" d="M1.25 2C1.25 1.58579 1.58579 1.25 2 1.25H2.98999H20.99H22C22.4142 1.25 22.75 1.58579 22.75 2C22.75 2.41421 22.4142 2.75 22 2.75H21.74V14.1C21.74 15.1754 21.4556 16.12 20.7828 16.7928C20.11 17.4656 19.1654 17.75 18.09 17.75H12.75V19.5365L16.3354 21.3292C16.7059 21.5144 16.8561 21.9649 16.6708 22.3354C16.4856 22.7059 16.0351 22.8561 15.6646 22.6708L12 20.8385L8.33541 22.6708C7.96493 22.8561 7.51442 22.7059 7.32918 22.3354C7.14394 21.9649 7.29411 21.5144 7.66459 21.3292L11.25 19.5365V17.75H5.89999C4.82432 17.75 3.88029 17.4655 3.20659 16.7935C2.53324 16.1219 2.24566 15.1786 2.24 14.104L2.23999 14.1V2.75H2C1.58579 2.75 1.25 2.41421 1.25 2ZM12 16.25H18.09C18.9146 16.25 19.42 16.0344 19.7222 15.7322C20.0244 15.43 20.24 14.9246 20.24 14.1V2.75H3.73999V14.098C3.74466 14.9222 3.96197 15.4284 4.26589 15.7315C4.5697 16.0345 5.07566 16.25 5.89999 16.25H12ZM16.9807 8.57572C17.2986 8.31024 17.3412 7.83728 17.0757 7.51932C16.8102 7.20136 16.3373 7.15881 16.0193 7.42428L13.0944 9.86633L12.0431 8.11413L12.0431 8.11412L12.0411 8.11077C11.8543 7.80318 11.5516 7.5771 11.1849 7.51259C10.8165 7.44777 10.4508 7.5583 10.1687 7.79482L10.1676 7.79572L7.01932 10.4243C6.70136 10.6898 6.65881 11.1627 6.92428 11.4807C7.18976 11.7986 7.66272 11.8412 7.98068 11.5757L10.9056 9.13367L11.9569 10.8859L11.9569 10.8859L11.9589 10.8892C12.1495 11.2031 12.4569 11.424 12.8217 11.4848C13.1836 11.5451 13.5408 11.4379 13.8185 11.2157L13.8307 11.2057L16.9807 8.57572Z" fill="#424B5A"/>
</svg>
