<svg width="24" height="24" viewBox="0 0 24 24" fill="none" xmlns="http://www.w3.org/2000/svg">
<path fill-rule="evenodd" clip-rule="evenodd" d="M19.49 7.21993C19.49 5.83049 17.9876 4.96623 16.7846 5.65971L12.6355 8.04918L8.48456 10.4497C7.28513 11.1411 7.28513 12.8687 8.48456 13.5602L8.48546 13.5607L12.6355 15.9607L16.7843 18.35C17.9851 19.0422 19.49 18.1719 19.49 16.7899V7.21993ZM16.0357 4.36002C18.2327 3.09379 20.99 4.66948 20.99 7.21993V16.7899C20.99 19.3279 18.2349 20.9173 16.0357 19.6499C16.0356 19.6498 16.0358 19.6499 16.0357 19.6499L11.8857 17.2598L7.73542 14.8597C7.73526 14.8596 7.73558 14.8598 7.73542 14.8597C5.5355 13.591 5.53501 10.4191 7.73493 9.15044C7.73477 9.15053 7.7351 9.15034 7.73493 9.15044L11.8857 6.75L16.0357 4.36002C16.0358 4.35996 16.0356 4.36007 16.0357 4.36002Z" fill="#424B5A"/>
<path fill-rule="evenodd" clip-rule="evenodd" d="M3.76001 5.06995C4.17422 5.06995 4.51001 5.40574 4.51001 5.81995V18.1799C4.51001 18.5941 4.17422 18.9299 3.76001 18.9299C3.3458 18.9299 3.01001 18.5941 3.01001 18.1799V5.81995C3.01001 5.40574 3.3458 5.06995 3.76001 5.06995Z" fill="#424B5A"/>
</svg>
