<svg width="24" height="24" viewBox="0 0 24 24" fill="none" xmlns="http://www.w3.org/2000/svg">
<path fill-rule="evenodd" clip-rule="evenodd" d="M7.3591 2.23704C8.03327 1.51793 9.03399 1.25 10.25 1.25H13.75C14.966 1.25 15.9667 1.51793 16.6409 2.23704C17.3054 2.94586 17.5 3.93363 17.5 5V5.43934L21.4697 1.46967C21.7626 1.17678 22.2374 1.17678 22.5303 1.46967C22.8232 1.76256 22.8232 2.23744 22.5303 2.53033L2.53033 22.5303C2.23744 22.8232 1.76256 22.8232 1.46967 22.5303C1.17678 22.2374 1.17678 21.7626 1.46967 21.4697L4.42415 18.5152C3.96549 18.3588 3.55837 18.119 3.21967 17.7803C2.52941 17.0901 2.25 16.1156 2.25 15V10C2.25 8.88439 2.52941 7.90993 3.21967 7.21967C3.90993 6.52941 4.88439 6.25 6 6.25H6.5V5C6.5 3.93363 6.69458 2.94586 7.3591 2.23704ZM5.69854 17.2408L15.1893 7.75H7.25H6C5.11561 7.75 4.59007 7.97059 4.28033 8.28033C3.97059 8.59007 3.75 9.11561 3.75 10V15C3.75 15.8844 3.97059 16.4099 4.28033 16.7197C4.55312 16.9925 4.99328 17.1961 5.69854 17.2408ZM8 6.25H16V5C16 4.06637 15.8196 3.55414 15.5466 3.26296C15.2833 2.98207 14.784 2.75 13.75 2.75H10.25C9.21601 2.75 8.71673 2.98207 8.4534 3.26296C8.18042 3.55414 8 4.06637 8 5V6.25ZM12.22 15C12.22 14.5858 12.5558 14.25 12.97 14.25H13H15.79H16H17C17.4142 14.25 17.75 14.5858 17.75 15C17.75 15.4142 17.4142 15.75 17 15.75H16.75V17.25H18C18.8844 17.25 19.4099 17.0294 19.7197 16.7197C20.0294 16.4099 20.25 15.8844 20.25 15V10C20.25 8.96659 19.9548 8.42305 19.5417 8.13568C19.2017 7.89914 19.1178 7.43173 19.3543 7.0917C19.5909 6.75167 20.0583 6.66778 20.3983 6.90432C21.3652 7.57695 21.75 8.69341 21.75 10V15C21.75 16.1156 21.4706 17.0901 20.7803 17.7803C20.0901 18.4706 19.1156 18.75 18 18.75H16.75V19C16.75 20.1156 16.4706 21.0901 15.7803 21.7803C15.0901 22.4706 14.1156 22.75 13 22.75H11C10.0583 22.75 9.21644 22.553 8.55698 22.0723C7.88273 21.5809 7.48932 20.8589 7.3321 19.9942C7.258 19.5866 7.5283 19.1962 7.93584 19.1221C8.34337 19.048 8.73381 19.3183 8.8079 19.7258C8.91068 20.2911 9.13727 20.6391 9.44052 20.8602C9.75856 21.092 10.2517 21.25 11 21.25H13C13.8844 21.25 14.4099 21.0294 14.7197 20.7197C15.0294 20.4099 15.25 19.8844 15.25 19V18V15.75H13H12.97C12.5558 15.75 12.22 15.4142 12.22 15ZM6.25 11C6.25 10.5858 6.58579 10.25 7 10.25H9C9.41421 10.25 9.75 10.5858 9.75 11C9.75 11.4142 9.41421 11.75 9 11.75H7C6.58579 11.75 6.25 11.4142 6.25 11Z" fill="#424B5A"/>
</svg>
