<svg width="24" height="24" viewBox="0 0 24 24" fill="none" xmlns="http://www.w3.org/2000/svg">
<path fill-rule="evenodd" clip-rule="evenodd" d="M3.09467 3.09467C4.42914 1.7602 6.42603 1.25 9 1.25H15C17.574 1.25 19.5709 1.7602 20.9053 3.09467C22.2398 4.42914 22.75 6.42603 22.75 9V15C22.75 17.574 22.2398 19.5709 20.9053 20.9053C19.5709 22.2398 17.574 22.75 15 22.75H9C6.42603 22.75 4.42914 22.2398 3.09467 20.9053C1.7602 19.5709 1.25 17.574 1.25 15V9C1.25 6.42603 1.7602 4.42914 3.09467 3.09467ZM4.15533 4.15533C3.2398 5.07086 2.75 6.57397 2.75 9V15C2.75 17.426 3.2398 18.9291 4.15533 19.8447C5.07086 20.7602 6.57397 21.25 9 21.25H15C17.426 21.25 18.9291 20.7602 19.8447 19.8447C20.7602 18.9291 21.25 17.426 21.25 15V9C21.25 6.57397 20.7602 5.07086 19.8447 4.15533C18.9291 3.2398 17.426 2.75 15 2.75H9C6.57397 2.75 5.07086 3.2398 4.15533 4.15533ZM14.32 8.71997C14.0489 8.71997 13.88 8.89901 13.88 9.15997V10.65C13.88 10.911 14.0489 11.09 14.32 11.09H16.25V9.15997C16.25 8.92418 16.0458 8.71997 15.81 8.71997H14.32ZM12.38 9.15997C12.38 8.12094 13.1711 7.21997 14.32 7.21997H15.81C16.8742 7.21997 17.75 8.09576 17.75 9.15997V11.84C17.75 13.2486 17.626 14.2351 17.1981 14.999C16.7612 15.779 16.065 16.2176 15.2922 16.6753C14.9359 16.8864 14.4758 16.7687 14.2647 16.4123C14.0536 16.0559 14.1714 15.5958 14.5278 15.3847C15.325 14.9125 15.6738 14.651 15.8894 14.266C16.0687 13.9459 16.1915 13.4712 16.2338 12.59H14.32C13.1711 12.59 12.38 11.6891 12.38 10.65V9.15997ZM8.18 8.71997C7.90895 8.71997 7.74 8.89901 7.74 9.15997V10.65C7.74 10.911 7.90895 11.09 8.18 11.09H10.11V9.15997C10.11 8.92419 9.90578 8.71997 9.67 8.71997H8.18ZM6.24 9.15997C6.24 8.12094 7.03105 7.21997 8.18 7.21997H9.67C10.7342 7.21997 11.61 8.09576 11.61 9.15997V11.84C11.61 13.2486 11.486 14.2351 11.0581 14.999C10.6212 15.779 9.92498 16.2176 9.15224 16.6753C8.79586 16.8864 8.33582 16.7687 8.12471 16.4123C7.91361 16.0559 8.03138 15.5958 8.38776 15.3847C9.18502 14.9125 9.53376 14.651 9.7494 14.266C9.9287 13.9459 10.0515 13.4712 10.0938 12.59H8.18C7.03105 12.59 6.24 11.6891 6.24 10.65V9.15997Z" fill="#424B5A"/>
</svg>
