<svg width="24" height="24" viewBox="0 0 24 24" fill="none" xmlns="http://www.w3.org/2000/svg">
<path fill-rule="evenodd" clip-rule="evenodd" d="M6.91311 3.92481C7.26921 3.71324 7.38638 3.25305 7.17482 2.89694C6.96325 2.54084 6.50306 2.42367 6.14695 2.63524C4.46109 3.63684 3.15446 4.48051 2.33621 5.93626C1.52648 7.37687 1.25 9.3114 1.25 12.35V18.15C1.25 19.9843 2.74583 21.48 4.58002 21.48H7.79999C9.76513 21.48 11.13 19.963 11.13 18.15V14.93C11.13 13.117 9.76515 11.6 7.79999 11.6H2.75649C2.80227 9.0673 3.09088 7.65497 3.64381 6.67123C4.24059 5.60951 5.19897 4.94321 6.91311 3.92481ZM2.75 18.15V13.1H7.79999C8.89483 13.1 9.63 13.9029 9.63 14.93V18.15C9.63 19.177 8.89485 19.98 7.79999 19.98H4.58002C3.57421 19.98 2.75 19.1558 2.75 18.15ZM14.3865 11.6C14.4323 9.06729 14.7209 7.65496 15.2738 6.67123C15.8705 5.60951 16.8289 4.94321 18.5431 3.92481C18.8992 3.71324 19.0163 3.25305 18.8048 2.89694C18.5932 2.54084 18.133 2.42367 17.7769 2.63524C16.091 3.63684 14.7844 4.48051 13.9662 5.93627C13.1565 7.37688 12.88 9.3114 12.88 12.35V18.15C12.88 19.9843 14.3758 21.48 16.21 21.48H19.43C21.3951 21.48 22.76 19.963 22.76 18.15V14.93C22.76 13.117 21.3952 11.6 19.43 11.6H14.3865ZM14.38 13.1V18.15C14.38 19.1558 15.2042 19.98 16.21 19.98H19.43C20.5249 19.98 21.26 19.177 21.26 18.15V14.93C21.26 13.9029 20.5248 13.1 19.43 13.1H14.38Z" fill="#424B5A"/>
</svg>
