<svg width="24" height="24" viewBox="0 0 24 24" fill="none" xmlns="http://www.w3.org/2000/svg">
<path fill-rule="evenodd" clip-rule="evenodd" d="M2.75 12C2.75 6.89137 6.89137 2.75 12 2.75C17.1086 2.75 21.25 6.89137 21.25 12C21.25 17.1086 17.1086 21.25 12 21.25C6.89137 21.25 2.75 17.1086 2.75 12ZM12 1.25C6.06294 1.25 1.25 6.06294 1.25 12C1.25 17.9371 6.06294 22.75 12 22.75C17.9371 22.75 22.75 17.9371 22.75 12C22.75 6.06294 17.9371 1.25 12 1.25ZM7.74001 9.15997C7.74001 8.899 7.90895 8.71997 8.17999 8.71997H9.67C9.90578 8.71997 10.11 8.92419 10.11 9.15997V11.09H8.17999C7.90895 11.09 7.74001 10.911 7.74001 10.65V9.15997ZM8.17999 7.21997C7.03103 7.21997 6.24001 8.12095 6.24001 9.15997V10.65C6.24001 11.6891 7.03103 12.59 8.17999 12.59H10.0938C10.0515 13.4712 9.9287 13.9459 9.7494 14.266C9.53376 14.651 9.18503 14.9125 8.38777 15.3847C8.03138 15.5958 7.91361 16.0559 8.12472 16.4123C8.33582 16.7687 8.79586 16.8864 9.15224 16.6753C9.92498 16.2176 10.6212 15.779 11.0581 14.999C11.486 14.2351 11.61 13.2486 11.61 11.84V9.15997C11.61 8.09576 10.7342 7.21997 9.67 7.21997H8.17999ZM14.32 8.71997C14.049 8.71997 13.88 8.89901 13.88 9.15997V10.65C13.88 10.911 14.049 11.09 14.32 11.09H16.25V9.15997C16.25 8.92419 16.0458 8.71997 15.81 8.71997H14.32ZM12.38 9.15997C12.38 8.12093 13.1711 7.21997 14.32 7.21997H15.81C16.8742 7.21997 17.75 8.09576 17.75 9.15997V11.84C17.75 13.2486 17.626 14.2351 17.1981 14.999C16.7612 15.779 16.065 16.2176 15.2922 16.6753C14.9359 16.8864 14.4758 16.7687 14.2647 16.4123C14.0536 16.0559 14.1714 15.5958 14.5278 15.3847C15.325 14.9125 15.6738 14.651 15.8894 14.266C16.0687 13.9459 16.1915 13.4712 16.2338 12.59H14.32C13.1711 12.59 12.38 11.6891 12.38 10.65V9.15997Z" fill="#424B5A"/>
</svg>
