<svg width="24" height="24" viewBox="0 0 24 24" fill="none" xmlns="http://www.w3.org/2000/svg">
<path fill-rule="evenodd" clip-rule="evenodd" d="M6.44942 4.60043C7.99548 3.4432 9.9191 2.75 12 2.75C17.1058 2.75 21.25 6.89421 21.25 12C21.25 17.1058 17.1058 21.25 12 21.25C6.89421 21.25 2.75 17.1058 2.75 12C2.75 10.5904 3.06416 9.25503 3.6314 8.05804L5.80902 9.30885C5.44778 10.1343 5.25 11.0454 5.25 12C5.25 15.7242 8.27579 18.75 12 18.75C15.7242 18.75 18.75 15.7242 18.75 12C18.75 8.27579 15.7242 5.25 12 5.25C10.9801 5.25 9.99885 5.47419 9.12518 5.894C8.75183 6.0734 8.59461 6.52149 8.77401 6.89484C8.95341 7.26819 9.4015 7.42541 9.77485 7.24601C10.4412 6.92583 11.1999 6.75 12 6.75C14.8958 6.75 17.25 9.10421 17.25 12C17.25 14.8958 14.8958 17.25 12 17.25C9.10421 17.25 6.75 14.8958 6.75 12C6.75 11.3135 6.88069 10.6596 7.11976 10.0617L11.6264 12.6503C11.9856 12.8567 12.444 12.7327 12.6503 12.3736C12.8567 12.0144 12.7327 11.556 12.3736 11.3497L7.43055 8.51041C7.37344 8.43406 7.30073 8.36741 7.21373 8.3156C7.11954 8.25951 7.01804 8.22644 6.91577 8.21473L3.70354 6.36964C3.3451 6.16375 2.88764 6.28671 2.68072 6.64456C1.76602 8.22645 1.25 10.0556 1.25 12C1.25 17.9342 6.06579 22.75 12 22.75C17.9342 22.75 22.75 17.9342 22.75 12C22.75 6.06579 17.9342 1.25 12 1.25C9.5809 1.25 7.34452 2.0568 5.55058 3.39957C5.21897 3.64778 5.15136 4.11782 5.39957 4.44942C5.64778 4.78103 6.11782 4.84864 6.44942 4.60043Z" fill="#424B5A"/>
</svg>
