<svg width="24" height="24" viewBox="0 0 24 24" fill="none" xmlns="http://www.w3.org/2000/svg">
<path fill-rule="evenodd" clip-rule="evenodd" d="M4.59871 6.45176C4.84818 6.1211 4.78238 5.65081 4.45172 5.40134C4.12106 5.15186 3.65077 5.21767 3.40129 5.54832C2.04551 7.34527 1.25 9.58309 1.25 12C1.25 14.417 2.04551 16.6548 3.40129 18.4518C3.65077 18.7824 4.12106 18.8482 4.45172 18.5988C4.78238 18.3493 4.84818 17.879 4.59871 17.5483C3.43449 16.0053 2.75 14.0831 2.75 12C2.75 9.91699 3.43449 7.99481 4.59871 6.45176ZM19.5483 5.40134C19.8789 5.15186 20.3492 5.21767 20.5987 5.54832C21.9545 7.34527 22.75 9.58309 22.75 12C22.75 14.417 21.9545 16.6548 20.5987 18.4518C20.3492 18.7824 19.8789 18.8482 19.5483 18.5988C19.2176 18.3493 19.1518 17.879 19.4013 17.5483C20.5655 16.0053 21.25 14.0831 21.25 12C21.25 9.91699 20.5655 7.99481 19.4013 6.45176C19.1518 6.1211 19.2176 5.65081 19.5483 5.40134ZM12 10.75C11.3096 10.75 10.75 11.3097 10.75 12C10.75 12.6904 11.3096 13.25 12 13.25C12.6904 13.25 13.25 12.6904 13.25 12C13.25 11.3097 12.6904 10.75 12 10.75ZM9.25 12C9.25 10.4813 10.4812 9.25004 12 9.25004C13.5188 9.25004 14.75 10.4813 14.75 12C14.75 13.5188 13.5188 14.75 12 14.75C10.4812 14.75 9.25 13.5188 9.25 12ZM16.35 7.80004C16.6814 7.55151 17.1515 7.61867 17.4 7.95004C18.2434 9.0746 18.75 10.4813 18.75 12C18.75 13.5188 18.2434 14.9255 17.4 16.05C17.1515 16.3814 16.6814 16.4486 16.35 16.2C16.0186 15.9515 15.9515 15.4814 16.2 15.15C16.8566 14.2746 17.25 13.1813 17.25 12C17.25 10.8188 16.8566 9.72547 16.2 8.85004C15.9515 8.51867 16.0186 8.04856 16.35 7.80004ZM7.80001 8.85004C8.04854 8.51867 7.98138 8.04856 7.65001 7.80004C7.31864 7.55151 6.84854 7.61867 6.60001 7.95004C5.75659 9.0746 5.25 10.4813 5.25 12C5.25 13.5188 5.75659 14.9255 6.60001 16.05C6.84854 16.3814 7.31864 16.4486 7.65001 16.2C7.98138 15.9515 8.04854 15.4814 7.80001 15.15C7.14344 14.2746 6.75 13.1813 6.75 12C6.75 10.8188 7.14344 9.72547 7.80001 8.85004Z" fill="#424B5A"/>
</svg>
