<svg width="24" height="24" viewBox="0 0 24 24" fill="none" xmlns="http://www.w3.org/2000/svg">
<path fill-rule="evenodd" clip-rule="evenodd" d="M4.12384 2.86636C5.11342 1.79405 6.58817 1.25 8.49 1.25H15.49C17.3697 1.25 18.8435 1.79554 19.8397 2.8634C20.8271 3.92192 21.24 5.38154 21.24 7V8C21.24 8.96421 20.4542 9.75 19.49 9.75C19.3542 9.75 19.24 9.86421 19.24 10V12.18C19.24 12.5068 19.3679 12.8173 19.6103 13.0597L20.4371 13.8864C20.9632 14.4007 21.25 15.1044 21.25 15.83V17C21.25 18.6185 20.8371 20.0781 19.8497 21.1366C18.8535 22.2045 17.3797 22.75 15.5 22.75H8.5C6.59378 22.75 5.11654 22.2063 4.12548 21.1341C3.14441 20.0726 2.75 18.6115 2.75 17V7C2.75 5.38854 3.1444 3.92767 4.12384 2.86636ZM5.22616 3.88364C4.5906 4.57233 4.25 5.61146 4.25 7V17C4.25 18.3885 4.59059 19.4274 5.22702 20.1159C5.67232 20.5977 6.31786 20.9676 7.23719 21.1412L7.22998 19.0025L7.22998 19C7.22998 17.4758 8.45577 16.25 9.97998 16.25H13.99C15.5055 16.25 16.7262 17.4756 16.74 18.9832L16.7616 21.1378C17.6604 20.9629 18.3037 20.5949 18.7528 20.1134C19.3979 19.4219 19.75 18.3815 19.75 17V15.83C19.75 15.4974 19.6182 15.1827 19.3868 14.9574L19.3796 14.9504L19.3797 14.9503L18.5497 14.1203C18.0321 13.6027 17.74 12.9132 17.74 12.18V10C17.74 9.03579 18.5258 8.25 19.49 8.25C19.6258 8.25 19.74 8.13579 19.74 8V7C19.74 5.61846 19.3879 4.57808 18.7428 3.8866C18.1388 3.23907 17.1835 2.7967 15.7277 2.75348L15.6899 4.93306C15.6827 5.34721 15.3411 5.67712 14.927 5.66993C14.5128 5.66274 14.1829 5.32117 14.1901 4.90702L14.2276 2.75H12.7282L12.6899 4.96303C12.6827 5.37719 12.3412 5.70711 11.927 5.69995C11.5129 5.69278 11.183 5.35124 11.1901 4.93709L11.228 2.75H9.72818L9.68989 4.96303C9.68273 5.37719 9.34118 5.70711 8.92703 5.69995C8.51288 5.69278 8.18295 5.35124 8.19012 4.93709L8.22788 2.75411C6.76058 2.80093 5.81711 3.2433 5.22616 3.88364ZM15.2626 21.25H8.73756L8.72998 19L8.72998 18.9989C8.73058 18.3036 9.28457 17.75 9.97998 17.75H13.99C14.6745 17.75 15.2337 18.3051 15.24 18.9975L15.2626 21.25Z" fill="#424B5A"/>
</svg>
