<svg width="24" height="24" viewBox="0 0 24 24" fill="none" xmlns="http://www.w3.org/2000/svg">
<path fill-rule="evenodd" clip-rule="evenodd" d="M11.6208 3.47524L12.0025 2.71187L12.3759 3.4586C12.4772 3.66939 12.6348 3.82926 12.781 3.93712C12.9249 4.04326 13.1242 4.14804 13.3576 4.18143L13.9834 4.28574L13.4697 4.79947C13.2971 4.97203 13.1926 5.18362 13.1369 5.37269C13.0819 5.55906 13.053 5.79635 13.1092 6.0385L13.2314 6.57383L12.6769 6.24727C12.4508 6.10943 12.2003 6.06483 11.995 6.06483C11.7897 6.06483 11.5392 6.10943 11.3131 6.24727L10.7586 6.57383L10.8808 6.03851C10.937 5.79656 10.908 5.55745 10.8539 5.37141C10.8011 5.1902 10.6981 4.96896 10.5127 4.79179L10.0166 4.29573L10.6533 4.18963L10.6682 4.18698C10.8878 4.14581 11.0784 4.04332 11.219 3.93963C11.3578 3.83721 11.5172 3.68239 11.6208 3.47524L11.6208 3.47524ZM13.1885 1.72973C12.9913 1.3422 12.6031 0.889544 11.995 0.893582C11.3885 0.897608 11.0047 1.35343 10.8092 1.74439L10.8092 1.7444L10.3191 2.72464L9.44842 2.86972C9.01507 2.94011 8.48237 3.17513 8.299 3.74118C8.11534 4.30813 8.41046 4.81093 8.71967 5.12014L8.71967 5.12015L9.39718 5.79765L9.20954 6.61972L9.20914 6.62146C9.1095 7.05081 9.07988 7.7307 9.62483 8.12742C10.1679 8.52277 10.8049 8.28887 11.1817 8.06543L11.1829 8.06472L11.995 7.5865L12.8071 8.06472L12.8083 8.06546C13.1852 8.28889 13.8221 8.52275 14.3652 8.12742C14.9101 7.73073 14.8805 7.05092 14.7809 6.62156L14.5928 5.79765L15.2777 5.11277C15.5978 4.79826 15.8812 4.2945 15.6963 3.73188C15.5131 3.17472 14.9915 2.93212 14.5524 2.85988L14.5513 2.8597L13.6809 2.71463L13.1908 1.73442L13.1908 1.73441L13.1885 1.72973ZM10.66 9.24982C9.14579 9.24982 7.91 10.4856 7.91 11.9998V13.2498H4C2.48579 13.2498 1.25 14.4856 1.25 15.9998V21.9998C1.25 22.414 1.58579 22.7498 2 22.7498H8.66H8.67H15.33H22C22.4142 22.7498 22.75 22.414 22.75 21.9998V18.9998C22.75 17.4856 21.5142 16.2498 20 16.2498H16.08V11.9998C16.08 10.488 14.8567 9.24982 13.33 9.24982H10.66ZM14.58 16.9998V21.2498H9.42V13.9998C9.42 13.958 9.41658 13.917 9.41 13.8771V11.9998C9.41 11.314 9.97421 10.7498 10.66 10.7498H13.33C14.0233 10.7498 14.58 11.3116 14.58 11.9998V16.9998ZM21.25 21.2498H16.08V17.7498H20C20.6858 17.7498 21.25 18.314 21.25 18.9998V21.2498ZM7.91 14.7498V21.2498H2.75V15.9998C2.75 15.314 3.31421 14.7498 4 14.7498H7.91Z" fill="#424B5A"/>
</svg>
