<svg width="24" height="24" viewBox="0 0 24 24" fill="none" xmlns="http://www.w3.org/2000/svg">
<path fill-rule="evenodd" clip-rule="evenodd" d="M6 1.25C4.34646 1.25 3.11215 1.74912 2.30736 2.68106C1.52033 3.59244 1.25 4.79713 1.25 6V21C1.25 22.4435 2.89279 23.2744 4.05097 22.3993L4.0529 22.3978L5.76 21.12C5.85764 21.0468 6.00044 21.0516 6.09967 21.1503L7.75807 22.8187L7.75966 22.8203C8.44256 23.5032 9.55744 23.5032 10.2403 22.8203L11.9203 21.1403C12.0086 21.0521 12.1465 21.0482 12.2327 21.1145L13.9506 22.4004L13.9529 22.4022C15.1034 23.2564 16.75 22.4418 16.75 21V11.75H19.42C20.3706 11.75 21.2197 11.446 21.8328 10.8328C22.446 10.2197 22.75 9.37056 22.75 8.42V6C22.75 4.69125 22.214 3.50518 21.364 2.64334L21.364 2.64333L21.3603 2.63967C20.5033 1.78264 19.3161 1.26186 18.0269 1.25003L18.0269 1.25H18.02L18.0069 1.25003L18 1.25H6ZM16.75 4.01V10.25H19.42C20.0494 10.25 20.4903 10.054 20.7722 9.77217C21.054 9.4903 21.25 9.04943 21.25 8.42V6C21.25 5.10967 20.8867 4.29651 20.2979 3.69852C19.7158 3.11742 18.9052 2.75912 18.0168 2.75C17.3176 2.75174 16.75 3.32011 16.75 4.01ZM15.25 4.01V4C15.25 3.55044 15.3589 3.12542 15.5517 2.75H6C4.65354 2.75 3.88785 3.14588 3.44264 3.66144C2.97967 4.19756 2.75 4.99287 2.75 6V21C2.75 21.2157 2.9854 21.3247 3.14711 21.2022L3.15057 21.1996L4.86 19.92C5.56217 19.3934 6.53959 19.4689 7.16034 20.0897L7.16193 20.0913L8.82032 21.7597C8.9175 21.8562 9.08275 21.8566 9.17968 21.7597L10.8597 20.0797C11.4701 19.4693 12.4493 19.3922 13.1428 19.9221L14.8471 21.1978C15.0165 21.3227 15.25 21.1979 15.25 21V11V4.01ZM5.5 10C5.5 9.58579 5.83579 9.25 6.25 9.25H8.25V7.25C8.25 6.83579 8.58579 6.5 9 6.5C9.41421 6.5 9.75 6.83579 9.75 7.25V9.25H11.75C12.1642 9.25 12.5 9.58579 12.5 10C12.5 10.4142 12.1642 10.75 11.75 10.75H9.75V12.75C9.75 13.1642 9.41421 13.5 9 13.5C8.58579 13.5 8.25 13.1642 8.25 12.75V10.75H6.25C5.83579 10.75 5.5 10.4142 5.5 10Z" fill="#424B5A"/>
</svg>
