<svg width="24" height="24" viewBox="0 0 24 24" fill="none" xmlns="http://www.w3.org/2000/svg">
<path fill-rule="evenodd" clip-rule="evenodd" d="M11.5 2.75C11.2409 2.75 10.9222 2.87901 10.6426 3.25642L10.6384 3.26214L9.61952 4.61067C8.63046 5.93211 6.83935 6.02968 5.70248 4.83316L5.69985 4.83053C5.69374 4.82442 5.68774 4.81821 5.68184 4.8119C5.16495 4.25842 4.75565 4.03185 4.4998 3.97408C4.3311 3.93599 4.23601 3.96426 4.14735 4.05897C3.88247 4.67219 3.75 5.59605 3.75 7.04V16.96C3.75 18.4139 3.8843 19.3405 4.15285 19.9536C4.2424 20.0408 4.33922 20.0648 4.50125 20.0277C4.75669 19.9692 5.16421 19.7424 5.68184 19.1881C5.68774 19.1818 5.69374 19.1756 5.69985 19.1695L5.70251 19.1668C6.83941 17.9703 8.63057 18.0679 9.6196 19.3894L9.62078 19.391L10.6427 20.7436C10.9222 21.121 11.2409 21.25 11.5 21.25C11.7591 21.25 12.0778 21.121 12.3574 20.7436L12.3611 20.7386L13.37 19.4C14.3695 18.0679 16.1794 17.9662 17.3186 19.1885C17.9609 19.8774 18.4145 20.04 18.63 20.04C18.7158 20.04 18.781 20.0196 18.8459 19.9565C19.1153 19.3433 19.25 18.4161 19.25 16.96V7.04C19.25 5.59719 19.1177 4.67365 18.8533 4.06043C18.7774 3.98086 18.7075 3.96 18.63 3.96C18.4145 3.96 17.9609 4.12257 17.3186 4.81147C16.1794 6.03373 14.3701 5.93264 13.3705 4.60076L12.3573 3.25644C12.0778 2.87903 11.7591 2.75 11.5 2.75ZM18.75 3.67C18.75 3.68837 18.7507 3.7067 18.752 3.72496C18.7482 3.68307 18.75 3.66054 18.75 3.67ZM4.25 3.67C4.25 3.66054 4.25181 3.68307 4.24798 3.72496C4.24933 3.7067 4.25 3.68837 4.25 3.67ZM9.43957 2.36053C9.9599 1.6598 10.7003 1.25 11.5 1.25C12.2998 1.25 13.0403 1.65993 13.5607 2.36087L14.57 3.7C15.0105 4.28734 15.7206 4.32602 16.2213 3.7887C16.959 2.99761 17.7855 2.46 18.63 2.46C19.1911 2.46 19.6709 2.70585 20.0171 3.11234C20.0716 3.16552 20.1251 3.23329 20.168 3.31905C20.1849 3.35278 20.1983 3.38566 20.2089 3.41699C20.6194 4.33656 20.75 5.53656 20.75 7.04V16.96C20.75 18.4711 20.6181 19.6756 20.2027 20.597C20.1869 20.6409 20.1716 20.6713 20.165 20.6845L20.1644 20.6858C20.1431 20.7283 20.1089 20.7878 20.0567 20.8498C19.6983 21.2966 19.1979 21.54 18.63 21.54C17.7855 21.54 16.9591 21.0026 16.2215 20.2115C15.7208 19.6742 15.0105 19.7127 14.57 20.3L13.5627 21.6364L13.5607 21.6391C13.0404 22.3401 12.2998 22.75 11.5 22.75C10.7003 22.75 9.95988 22.3402 9.43955 21.6394L8.42161 20.2921L8.41926 20.289C7.99046 19.7152 7.28886 19.6707 6.78577 20.2044C6.78063 20.2099 6.77542 20.2152 6.77012 20.2205L6.76902 20.2216C6.15925 20.8722 5.50497 21.3366 4.83625 21.4898C4.10644 21.657 3.42213 21.4338 2.94762 20.8549C2.89303 20.7911 2.85748 20.7294 2.83561 20.6858L2.835 20.6845C2.82838 20.6713 2.81312 20.6409 2.79733 20.597C2.38193 19.6756 2.25 18.4711 2.25 16.96V7.04C2.25 5.53655 2.3806 4.33655 2.79106 3.41698C2.80168 3.38565 2.81506 3.35278 2.83196 3.31905C2.87454 3.23405 2.92742 3.16672 2.98143 3.11375C3.44956 2.56025 4.11905 2.35033 4.8302 2.51092C5.501 2.66239 6.15848 3.12696 6.76903 3.77838L6.77012 3.77947C6.77542 3.78476 6.78063 3.79014 6.78577 3.79559C7.28886 4.32935 7.99046 4.28476 8.41926 3.71101L8.4216 3.70788L9.43957 2.36053ZM7.25 10.25C7.25 9.83579 7.58579 9.5 8 9.5H16C16.4142 9.5 16.75 9.83579 16.75 10.25C16.75 10.6642 16.4142 11 16 11H8C7.58579 11 7.25 10.6642 7.25 10.25ZM8 13C7.58579 13 7.25 13.3358 7.25 13.75C7.25 14.1642 7.58579 14.5 8 14.5H14C14.4142 14.5 14.75 14.1642 14.75 13.75C14.75 13.3358 14.4142 13 14 13H8Z" fill="#424B5A"/>
</svg>
