<svg width="24" height="24" viewBox="0 0 24 24" fill="none" xmlns="http://www.w3.org/2000/svg">
<path fill-rule="evenodd" clip-rule="evenodd" d="M8.22 1.25C6.3285 1.25 4.84095 1.48504 3.89481 2.49637C2.96532 3.4899 2.75 5.03644 2.75 7.04V18.3C2.75 19.0276 2.84834 19.6711 3.06116 20.1938C3.27503 20.719 3.62795 21.172 4.15457 21.3988C4.68637 21.6279 5.25572 21.5664 5.77494 21.343C6.28697 21.1228 6.79203 20.731 7.27742 20.2127L7.27871 20.2113C7.54771 19.9226 7.85374 19.8193 8.12172 19.8339C8.39003 19.8485 8.6836 19.9848 8.92 20.3L9.92947 21.6493L9.93202 21.6527C10.4573 22.3466 11.1967 22.7525 11.995 22.7525C12.7933 22.7525 13.5327 22.3466 14.058 21.6527L14.0605 21.6493L15.07 20.3C15.3064 19.9848 15.6 19.8485 15.8683 19.8339C16.1363 19.8193 16.4423 19.9226 16.7113 20.2113L16.7127 20.2128C17.2002 20.7332 17.7063 21.1262 18.2186 21.3471C18.7382 21.5712 19.3078 21.6332 19.8397 21.4036C20.3662 21.1764 20.7178 20.7228 20.9306 20.1986C21.1423 19.6769 21.24 19.0349 21.24 18.31V7.04109C21.2449 5.03799 21.0328 3.49101 20.1044 2.49685C19.1594 1.48491 17.6712 1.25 15.78 1.25H8.22ZM4.25 7.04C4.25 5.01356 4.50468 4.0401 4.99019 3.52113C5.45905 3.01996 6.3315 2.75 8.22 2.75H15.78C17.6688 2.75 18.5406 3.02009 19.0081 3.52065C19.4921 4.03886 19.745 5.01161 19.74 7.03814L19.74 7.04V18.31C19.74 18.9151 19.6564 19.3494 19.5407 19.6345C19.4259 19.9172 19.3038 20.0011 19.2453 20.0264C19.1922 20.0493 19.0655 20.0788 18.8126 19.9697C18.5525 19.8576 18.21 19.617 17.8078 19.1877C17.2569 18.5971 16.5283 18.2957 15.7867 18.3361C15.045 18.3765 14.3531 18.7559 13.8695 19.4007L12.862 20.7473L12.8609 20.7488C12.5765 21.1237 12.2564 21.2525 11.995 21.2525C11.7336 21.2525 11.4135 21.1237 11.1291 20.7488L11.128 20.7473L10.12 19.4C9.6364 18.7552 8.94497 18.3765 8.20328 18.3361C7.46164 18.2957 6.73304 18.5971 6.18214 19.1878C5.78272 19.6142 5.44169 19.8535 5.18225 19.9651C4.9299 20.0736 4.80238 20.0446 4.74793 20.0212C4.6883 19.9955 4.56559 19.911 4.4504 19.6281C4.33416 19.3426 4.25 18.9074 4.25 18.3V7.04ZM6.18214 19.1878L6.18258 19.1873L6.73 19.7L6.18129 19.1887L6.18214 19.1878ZM15.5303 7.53033C15.8232 7.23744 15.8232 6.76256 15.5303 6.46967C15.2374 6.17678 14.7626 6.17678 14.4697 6.46967L8.46967 12.4697C8.17678 12.7626 8.17678 13.2374 8.46967 13.5303C8.76256 13.8232 9.23744 13.8232 9.53033 13.5303L15.5303 7.53033ZM13.9945 13C13.9945 12.4477 14.4422 12 14.9945 12H15.0035C15.5558 12 16.0035 12.4477 16.0035 13C16.0035 13.5523 15.5558 14 15.0035 14H14.9945C14.4422 14 13.9945 13.5523 13.9945 13ZM8.99451 6.5C8.44222 6.5 7.99451 6.94772 7.99451 7.5C7.99451 8.05228 8.44222 8.5 8.99451 8.5H9.00349C9.55577 8.5 10.0035 8.05228 10.0035 7.5C10.0035 6.94772 9.55577 6.5 9.00349 6.5H8.99451Z" fill="#424B5A"/>
</svg>
