<svg width="24" height="24" viewBox="0 0 24 24" fill="none" xmlns="http://www.w3.org/2000/svg">
<path fill-rule="evenodd" clip-rule="evenodd" d="M19.5303 2.96967C19.8232 3.26256 19.8232 3.73744 19.5303 4.03033L6.81066 16.75H15.27C15.6842 16.75 16.02 17.0858 16.02 17.5C16.02 17.9142 15.6842 18.25 15.27 18.25H5C4.8975 18.25 4.7998 18.2294 4.7108 18.1922C4.6259 18.1568 4.54619 18.105 4.47644 18.037L4.46312 18.0237C4.39446 17.9533 4.34239 17.8728 4.30691 17.7871C4.27024 17.6987 4.25 17.6017 4.25 17.5V17.4998V7.23C4.25 6.81579 4.58579 6.48 5 6.48C5.41421 6.48 5.75 6.81579 5.75 7.23V15.6893L18.4697 2.96967C18.7626 2.67678 19.2374 2.67678 19.5303 2.96967ZM3.5 21.25C3.08579 21.25 2.75 21.5858 2.75 22C2.75 22.4142 3.08579 22.75 3.5 22.75H20.5C20.9142 22.75 21.25 22.4142 21.25 22C21.25 21.5858 20.9142 21.25 20.5 21.25H3.5Z" fill="#424B5A"/>
</svg>
