<svg width="24" height="24" viewBox="0 0 24 24" fill="none" xmlns="http://www.w3.org/2000/svg">
<path fill-rule="evenodd" clip-rule="evenodd" d="M9 1.25C6.42603 1.25 4.42914 1.7602 3.09467 3.09467C1.7602 4.42914 1.25 6.42603 1.25 9V15C1.25 17.574 1.7602 19.5709 3.09467 20.9053C4.42914 22.2398 6.42603 22.75 9 22.75H15C17.574 22.75 19.5709 22.2398 20.9053 20.9053C22.2398 19.5709 22.75 17.574 22.75 15V9C22.75 6.42603 22.2398 4.42914 20.9053 3.09467C19.5709 1.7602 17.574 1.25 15 1.25H9ZM2.75 9C2.75 6.57397 3.2398 5.07086 4.15533 4.15533C5.07086 3.2398 6.57397 2.75 9 2.75H15C17.426 2.75 18.9291 3.2398 19.8447 4.15533C20.7602 5.07086 21.25 6.57397 21.25 9V15C21.25 17.426 20.7602 18.9291 19.8447 19.8447C18.9291 20.7602 17.426 21.25 15 21.25H9C6.57397 21.25 5.07086 20.7602 4.15533 19.8447C3.2398 18.9291 2.75 17.426 2.75 15V9ZM12.75 6.50999V12.6993L14.4697 10.9797C14.7626 10.6868 15.2374 10.6868 15.5303 10.9797C15.8232 11.2726 15.8232 11.7474 15.5303 12.0403L12.5303 15.0403C12.3839 15.1868 12.1919 15.26 12 15.26C11.8983 15.26 11.8013 15.2398 11.7129 15.2031C11.6245 15.1665 11.5416 15.1122 11.4697 15.0403L8.46967 12.0403C8.17678 11.7474 8.17678 11.2726 8.46967 10.9797C8.76256 10.6868 9.23744 10.6868 9.53033 10.9797L11.25 12.6993V6.50999C11.25 6.09578 11.5858 5.75999 12 5.75999C12.4142 5.75999 12.75 6.09578 12.75 6.50999ZM6.23772 15.7987C5.84486 15.6674 5.41996 15.8794 5.28867 16.2723C5.15738 16.6651 5.36942 17.09 5.76228 17.2213C9.80657 18.5729 14.1934 18.5729 18.2377 17.2213C18.6306 17.09 18.8426 16.6651 18.7113 16.2723C18.58 15.8794 18.1551 15.6674 17.7623 15.7987C14.0266 17.0471 9.97343 17.0471 6.23772 15.7987Z" fill="#424B5A"/>
</svg>
