<svg width="24" height="24" viewBox="0 0 24 24" fill="none" xmlns="http://www.w3.org/2000/svg">
<path fill-rule="evenodd" clip-rule="evenodd" d="M11.97 2.75C6.86134 2.75 2.71997 6.89137 2.71997 12C2.71997 17.1086 6.86134 21.25 11.97 21.25C17.0786 21.25 21.22 17.1086 21.22 12C21.22 6.89137 17.0786 2.75 11.97 2.75ZM1.21997 12C1.21997 6.06294 6.03291 1.25 11.97 1.25C17.907 1.25 22.72 6.06294 22.72 12C22.72 17.9371 17.907 22.75 11.97 22.75C6.03291 22.75 1.21997 17.9371 1.21997 12Z" fill="#424B5A"/>
<path fill-rule="evenodd" clip-rule="evenodd" d="M12 8.52C10.078 8.52 8.51997 10.078 8.51997 12C8.51997 13.922 10.078 15.48 12 15.48C13.9219 15.48 15.48 13.922 15.48 12C15.48 10.078 13.9219 8.52 12 8.52ZM7.01997 12C7.01997 9.24962 9.24959 7.02 12 7.02C14.7503 7.02 16.98 9.24962 16.98 12C16.98 14.7504 14.7503 16.98 12 16.98C9.24959 16.98 7.01997 14.7504 7.01997 12Z" fill="#424B5A"/>
</svg>
