<svg width="22" height="22" viewBox="0 0 22 22" fill="none" xmlns="http://www.w3.org/2000/svg">
<path fill-rule="evenodd" clip-rule="evenodd" d="M1.5 7.75C1.5 4.78342 3.5591 2.30437 6.32819 1.66194L6.05688 2.11413C5.84377 2.46931 5.95894 2.93001 6.31413 3.14312C6.66931 3.35623 7.13001 3.24106 7.34312 2.88587L8.39312 1.13587C8.53214 0.904174 8.53578 0.615607 8.40265 0.380476C8.26952 0.145344 8.0202 0 7.75 0C3.46579 0 0 3.46579 0 7.75C0 8.16421 0.335786 8.5 0.75 8.5C1.16421 8.5 1.5 8.16421 1.5 7.75ZM10.16 7.4H10.17C11.3794 7.4 12.421 7.63787 13.1416 8.35842C13.735 8.95183 14.001 9.76304 14.0764 10.7064C14.0926 10.9085 14.1 11.1166 14.1 11.33V12.5999C15.1402 12.5945 15.6806 12.3787 15.9797 12.0797C16.2825 11.7768 16.5 11.2264 16.5 10.16V7.43C16.5 6.36937 16.2829 5.82103 15.9809 5.51908C15.679 5.21713 15.1306 5 14.07 5H11.34C10.2717 5 9.72139 5.21574 9.41903 5.51663C9.12038 5.81382 8.90411 6.35312 8.90006 7.4H10.16ZM7.40005 7.40009C7.40394 6.19946 7.64341 5.16743 8.36097 4.45337C9.08361 3.73426 10.1283 3.5 11.34 3.5H14.07C15.2794 3.5 16.321 3.73787 17.0416 4.45842C17.7621 5.17897 18 6.22063 18 7.43V10.16C18 11.3736 17.7625 12.4182 17.0403 13.1403C16.3261 13.8545 15.2965 14.0947 14.0999 14.0999C14.0947 15.2965 13.8545 16.3261 13.1403 17.0403C12.4182 17.7625 11.3736 18 10.16 18H7.44C6.23049 18 5.18692 17.7621 4.46407 17.041C3.74083 16.3195 3.5 15.2754 3.5 14.06V11.33C3.5 10.1207 3.73786 9.07847 4.46032 8.35777C5.17437 7.64546 6.20348 7.40528 7.40005 7.40009ZM8.15 8.9H7.44C6.37361 8.9 5.82269 9.11745 5.51968 9.41973C5.21714 9.72153 5 10.2693 5 11.33V14.06C5 15.1246 5.21917 15.6755 5.52343 15.979C5.82808 16.2829 6.37951 16.5 7.44 16.5H10.16C11.2264 16.5 11.7768 16.2825 12.0797 15.9797C12.3825 15.6768 12.6 15.1264 12.6 14.06V13.35V11.33C12.6 11.1974 12.5966 11.0728 12.5901 10.9558C12.5444 10.1362 12.345 9.68381 12.0803 9.41973C11.7773 9.11745 11.2264 8.9 10.16 8.9H8.15ZM20.75 13C21.1642 13 21.5 13.3358 21.5 13.75C21.5 18.0342 18.0342 21.5 13.75 21.5C13.4798 21.5 13.2305 21.3547 13.0974 21.1195C12.9642 20.8844 12.9679 20.5958 13.1069 20.3641L14.1569 18.6141C14.37 18.2589 14.8307 18.1438 15.1859 18.3569C15.5411 18.57 15.6562 19.0307 15.4431 19.3859L15.1718 19.8381C17.9409 19.1956 20 16.7166 20 13.75C20 13.3358 20.3358 13 20.75 13Z" fill="#424B5A"/>
</svg>
