<svg width="24" height="24" viewBox="0 0 24 24" fill="none" xmlns="http://www.w3.org/2000/svg">
<path fill-rule="evenodd" clip-rule="evenodd" d="M18.1003 5.15961C17.8074 4.86672 17.3326 4.86672 17.0397 5.15961C16.7468 5.4525 16.7468 5.92738 17.0397 6.22027L18.3793 7.55994H8.87C5.69578 7.55994 3.12 10.1357 3.12 13.3099C3.12 16.4842 5.69578 19.0599 8.87 19.0599H16.87C17.2842 19.0599 17.62 18.7242 17.62 18.3099C17.62 17.8957 17.2842 17.5599 16.87 17.5599H8.87C6.52421 17.5599 4.62 15.6557 4.62 13.3099C4.62 10.9642 6.52421 9.05994 8.87 9.05994H18.2593L17.0397 10.2796C16.7468 10.5725 16.7468 11.0474 17.0397 11.3403C17.3326 11.6332 17.8074 11.6332 18.1003 11.3403L20.6603 8.78027C20.9532 8.48738 20.9532 8.0125 20.6603 7.71961L18.1003 5.15961Z" fill="#424B5A"/>
</svg>
