<svg width="24" height="24" viewBox="0 0 24 24" fill="none" xmlns="http://www.w3.org/2000/svg">
<path fill-rule="evenodd" clip-rule="evenodd" d="M9 1.25C6.42603 1.25 4.42914 1.7602 3.09467 3.09467C1.7602 4.42914 1.25 6.42603 1.25 9V15C1.25 17.574 1.7602 19.5709 3.09467 20.9053C4.42914 22.2398 6.42603 22.75 9 22.75H15C17.574 22.75 19.5709 22.2398 20.9053 20.9053C22.2398 19.5709 22.75 17.574 22.75 15V9C22.75 6.42603 22.2398 4.42914 20.9053 3.09467C19.5709 1.7602 17.574 1.25 15 1.25H9ZM2.75 9C2.75 6.57397 3.2398 5.07086 4.15533 4.15533C5.07086 3.2398 6.57397 2.75 9 2.75H15C17.426 2.75 18.9291 3.2398 19.8447 4.15533C20.7602 5.07086 21.25 6.57397 21.25 9V15C21.25 17.426 20.7602 18.9291 19.8447 19.8447C18.9291 20.7602 17.426 21.25 15 21.25H9C6.57397 21.25 5.07086 20.7602 4.15533 19.8447C3.2398 18.9291 2.75 17.426 2.75 15V9ZM12 6.51C8.82579 6.51 6.25 9.08579 6.25 12.26C6.25 15.4342 8.82579 18.01 12 18.01C15.1742 18.01 17.75 15.4342 17.75 12.26C17.75 11.0759 17.3928 9.98288 16.7852 9.06578C16.5565 8.72047 16.0911 8.626 15.7458 8.85477C15.4005 9.08353 15.306 9.54891 15.5348 9.89422C15.9872 10.5771 16.25 11.3841 16.25 12.26C16.25 14.6058 14.3458 16.51 12 16.51C9.65421 16.51 7.75 14.6058 7.75 12.26C7.75 9.91422 9.65421 8.01 12 8.01C12.1987 8.01 12.3892 8.02181 12.5727 8.04339L11.997 8.4648C11.6628 8.70945 11.5901 9.17874 11.8348 9.51298C12.0795 9.84722 12.5487 9.91985 12.883 9.6752L14.8159 8.2604C14.8265 8.2528 14.837 8.24488 14.8473 8.23665C14.9163 8.18175 14.9732 8.11688 15.0174 8.04563C15.1367 7.85364 15.1622 7.61734 15.0892 7.40547C15.062 7.32637 15.021 7.25068 14.9661 7.18197C14.9577 7.1715 14.9491 7.1613 14.9403 7.15138L13.2861 5.24801C13.0144 4.93537 12.5407 4.9022 12.228 5.17392C11.9154 5.44563 11.8822 5.91935 12.1539 6.23199L12.4067 6.52281C12.2742 6.51443 12.1386 6.51 12 6.51Z" fill="#424B5A"/>
</svg>
