<svg width="24" height="24" viewBox="0 0 24 24" fill="none" xmlns="http://www.w3.org/2000/svg">
<path fill-rule="evenodd" clip-rule="evenodd" d="M12 2.75C6.89137 2.75 2.75 6.89137 2.75 12C2.75 17.1086 6.89137 21.25 12 21.25C17.1086 21.25 21.25 17.1086 21.25 12C21.25 6.89137 17.1086 2.75 12 2.75ZM1.25 12C1.25 6.06294 6.06294 1.25 12 1.25C17.9371 1.25 22.75 6.06294 22.75 12C22.75 17.9371 17.9371 22.75 12 22.75C6.06294 22.75 1.25 17.9371 1.25 12ZM16.7671 11.9277C17.1771 11.9868 17.4615 12.3672 17.4023 12.7771C17.2413 13.8924 16.7451 14.9956 15.8703 15.8704L15.8689 15.8718C13.8689 17.861 10.716 17.9944 8.57001 16.2659V17.18C8.57001 17.5942 8.23422 17.93 7.82001 17.93C7.40579 17.93 7.07001 17.5942 7.07001 17.18V14.51C7.07001 14.0958 7.40579 13.76 7.82001 13.76H7.99627C8.00496 13.7599 8.01365 13.7599 8.02233 13.76H10.49C10.9042 13.76 11.24 14.0958 11.24 14.51C11.24 14.9242 10.9042 15.26 10.49 15.26H9.72765C11.2732 16.3379 13.4218 16.1893 14.8104 14.809C15.4352 14.1839 15.7987 13.3873 15.9177 12.5628C15.9769 12.1529 16.3572 11.8685 16.7671 11.9277ZM15.9786 10.24H13.51C13.0958 10.24 12.76 9.9042 12.76 9.48999C12.76 9.07578 13.0958 8.73999 13.51 8.73999H14.2695C12.7155 7.66074 10.568 7.81264 9.19033 9.1903C8.56406 9.81657 8.20137 10.6037 8.08246 11.4361C8.02388 11.8461 7.64398 12.1311 7.23393 12.0725C6.82388 12.0139 6.53896 11.634 6.59753 11.2239C6.75862 10.0963 7.25595 9.00336 8.12967 8.12964C10.1231 6.13626 13.2773 6.00698 15.43 7.73559V6.82001C15.43 6.40579 15.7658 6.07001 16.18 6.07001C16.5942 6.07001 16.93 6.40579 16.93 6.82001V9.48999C16.93 9.9042 16.5942 10.24 16.18 10.24H16.0028C15.9947 10.2401 15.9867 10.2401 15.9786 10.24Z" fill="#424B5A"/>
</svg>
