<svg width="24" height="24" viewBox="0 0 24 24" fill="none" xmlns="http://www.w3.org/2000/svg">
<path fill-rule="evenodd" clip-rule="evenodd" d="M12 1.25C8.44231 1.25 5.77816 2.736 4.01831 4.20408C3.52691 4.61401 3.10425 5.02385 2.75 5.40201V3C2.75 2.58579 2.41421 2.25 2 2.25C1.58579 2.25 1.25 2.58579 1.25 3V7.56C1.25 7.97421 1.58579 8.31 2 8.31H6.44C6.85421 8.31 7.19 7.97421 7.19 7.56C7.19 7.14579 6.85421 6.81 6.44 6.81H3.50072C3.87399 6.37739 4.36705 5.86656 4.97919 5.35592C6.55184 4.044 8.88769 2.75 12 2.75C17.1438 2.75 21.25 6.89226 21.25 12C21.25 16.2906 18.3281 19.8993 14.359 20.9447C13.9584 21.0502 13.7192 21.4605 13.8247 21.861C13.9302 22.2616 14.3405 22.5008 14.741 22.3953C19.3519 21.1807 22.75 16.9894 22.75 12C22.75 6.06774 17.9762 1.25 12 1.25ZM2.75 12C2.75 11.5858 2.41421 11.25 2 11.25C1.58579 11.25 1.25 11.5858 1.25 12C1.25 12.4752 1.28092 12.9435 1.34095 13.4031C1.3946 13.8138 1.77104 14.1033 2.18177 14.0497C2.59249 13.996 2.88196 13.6196 2.82832 13.2088C2.77668 12.8135 2.75 12.41 2.75 12ZM3.4522 15.5399C3.29343 15.1573 2.85458 14.9759 2.47201 15.1347C2.08943 15.2934 1.908 15.7323 2.06677 16.1149C2.42952 16.9889 2.90411 17.8046 3.47245 18.544C3.72488 18.8724 4.19574 18.934 4.52415 18.6815C4.85255 18.4291 4.91414 17.9582 4.66171 17.6298C4.17228 16.9931 3.76402 16.2913 3.4522 15.5399ZM6.37017 19.3383C6.04176 19.0859 5.5709 19.1474 5.31846 19.4759C5.06603 19.8043 5.12762 20.2751 5.45603 20.5276C6.19541 21.0959 7.01105 21.5705 7.88513 21.9332C8.2677 22.092 8.70655 21.9106 8.86532 21.528C9.0241 21.1454 8.84267 20.7066 8.46009 20.5478C7.70872 20.236 7.0069 19.8277 6.37017 19.3383ZM10.7912 21.1717C10.3804 21.118 10.004 21.4075 9.95034 21.8182C9.8967 22.229 10.1862 22.6054 10.5969 22.659C11.0565 22.7191 11.5248 22.75 12 22.75C12.4142 22.75 12.75 22.4142 12.75 22C12.75 21.5858 12.4142 21.25 12 21.25C11.59 21.25 11.1865 21.2233 10.7912 21.1717Z" fill="#424B5A"/>
</svg>
