<svg width="24" height="24" viewBox="0 0 24 24" fill="none" xmlns="http://www.w3.org/2000/svg">
<path fill-rule="evenodd" clip-rule="evenodd" d="M9 1.25C6.42603 1.25 4.42914 1.7602 3.09467 3.09467C1.7602 4.42914 1.25 6.42603 1.25 9V15C1.25 17.574 1.7602 19.5709 3.09467 20.9053C4.42914 22.2398 6.42603 22.75 9 22.75H15C17.574 22.75 19.5709 22.2398 20.9053 20.9053C22.2398 19.5709 22.75 17.574 22.75 15V9C22.75 6.42603 22.2398 4.42914 20.9053 3.09467C19.5709 1.7602 17.574 1.25 15 1.25H9ZM2.75 9C2.75 6.57397 3.2398 5.07086 4.15533 4.15533C5.07086 3.2398 6.57397 2.75 9 2.75H15C17.426 2.75 18.9291 3.2398 19.8447 4.15533C20.7602 5.07086 21.25 6.57397 21.25 9V15C21.25 17.426 20.7602 18.9291 19.8447 19.8447C18.9291 20.7602 17.426 21.25 15 21.25H9C6.57397 21.25 5.07086 20.7602 4.15533 19.8447C3.2398 18.9291 2.75 17.426 2.75 15V9ZM11.8461 6.23199C12.1178 5.91935 12.0846 5.44563 11.772 5.17392C11.4593 4.9022 10.9856 4.93537 10.7139 5.24801L9.0597 7.15136C9.05084 7.16134 9.0422 7.1716 9.03379 7.18216C8.97891 7.25082 8.93799 7.32644 8.91077 7.40547C8.83755 7.61806 8.86352 7.85524 8.98381 8.04758C9.02783 8.11807 9.08431 8.18225 9.15271 8.23665C9.16303 8.24489 9.17351 8.25281 9.18414 8.26042L11.117 9.6752C11.4513 9.91985 11.9205 9.84722 12.1652 9.51298C12.4099 9.17874 12.3372 8.70945 12.003 8.4648L11.4273 8.04339C11.6108 8.02181 11.8013 8.01 12 8.01C14.3458 8.01 16.25 9.91422 16.25 12.26C16.25 14.6058 14.3458 16.51 12 16.51C9.65421 16.51 7.75 14.6058 7.75 12.26C7.75 11.3841 8.01281 10.5771 8.46523 9.89422C8.694 9.54891 8.59953 9.08353 8.25422 8.85477C7.90891 8.626 7.44353 8.72047 7.21476 9.06578C6.60718 9.98288 6.25 11.0759 6.25 12.26C6.25 15.4342 8.82579 18.01 12 18.01C15.1742 18.01 17.75 15.4342 17.75 12.26C17.75 9.08579 15.1742 6.51 12 6.51C11.8614 6.51 11.7258 6.51443 11.5933 6.52281L11.8461 6.23199Z" fill="#424B5A"/>
</svg>
