<svg width="24" height="24" viewBox="0 0 24 24" fill="none" xmlns="http://www.w3.org/2000/svg">
<path fill-rule="evenodd" clip-rule="evenodd" d="M13.4587 2.48088C13.7454 2.18192 14.2202 2.17199 14.5191 2.4587L16.9591 4.79872C17.1804 5.01091 17.2502 5.33638 17.1355 5.62066C17.0208 5.90494 16.7446 6.0908 16.4381 6.09003L8.48999 6.07001C8.48969 6.07001 8.49029 6.07001 8.48999 6.07001C5.33612 6.07051 2.73999 8.66305 2.73999 11.84C2.73999 13.4224 3.38469 14.8641 4.43031 15.9097C4.7232 16.2026 4.7232 16.6774 4.43031 16.9703C4.13742 17.2632 3.66254 17.2632 3.36965 16.9703C2.05527 15.656 1.23999 13.8376 1.23999 11.84C1.23999 7.83732 4.50428 4.57001 8.48999 4.57001H8.49188L14.5695 4.58532L13.4809 3.5413C13.1819 3.2546 13.172 2.77983 13.4587 2.48088Z" fill="#424B5A"/>
<path fill-rule="evenodd" clip-rule="evenodd" d="M19.5697 7.02967C19.8626 6.73677 20.3374 6.73677 20.6303 7.02967C21.9447 8.34405 22.76 10.1624 22.76 12.16C22.76 16.1627 19.4957 19.43 15.51 19.43L15.5081 19.43L9.43049 19.4147L10.5191 20.4587C10.8181 20.7454 10.828 21.2202 10.5413 21.5191C10.2546 21.8181 9.77981 21.828 9.48086 21.5413L7.04086 19.2013C6.81961 18.9891 6.74976 18.6636 6.86446 18.3793C6.97916 18.0951 7.25532 17.9092 7.56187 17.91L15.51 17.93C15.5103 17.93 15.5107 17.93 15.5111 17.93C18.6649 17.9294 21.26 15.3369 21.26 12.16C21.26 10.5776 20.6153 9.13595 19.5697 8.09033C19.2768 7.79744 19.2768 7.32256 19.5697 7.02967Z" fill="#424B5A"/>
<path fill-rule="evenodd" clip-rule="evenodd" d="M8.24998 12C8.24998 11.5858 8.58577 11.25 8.99998 11.25H15C15.4142 11.25 15.75 11.5858 15.75 12C15.75 12.4142 15.4142 12.75 15 12.75H8.99998C8.58577 12.75 8.24998 12.4142 8.24998 12Z" fill="#424B5A"/>
</svg>
