<svg width="24" height="24" viewBox="0 0 24 24" fill="none" xmlns="http://www.w3.org/2000/svg">
<path fill-rule="evenodd" clip-rule="evenodd" d="M20.5901 11.9802C20.1759 11.9802 19.8401 11.6444 19.8401 11.2302V7.91016C19.8401 6.66437 18.8359 5.66016 17.5901 5.66016L5.56086 5.66016L7.44037 7.53968C7.73326 7.83257 7.73326 8.30745 7.44036 8.60034C7.14747 8.89323 6.67259 8.89323 6.3797 8.60034L3.22882 5.44942C3.09724 5.32221 3.01208 5.14728 3.00124 4.95252C3.00044 4.93839 3.00003 4.9242 3.00003 4.90997C3.00003 4.88628 3.00115 4.86271 3.00336 4.83932C3.01383 4.72758 3.04881 4.62296 3.10288 4.5309C3.13494 4.47617 3.17408 4.42527 3.2197 4.37964L6.37971 1.21967C6.6726 0.926775 7.14748 0.926778 7.44037 1.21967C7.73326 1.51257 7.73326 1.98744 7.44036 2.28033L5.56052 4.16016L17.5901 4.16016C19.6643 4.16016 21.3401 5.83594 21.3401 7.91016V11.2302C21.3401 11.6444 21.0043 11.9802 20.5901 11.9802ZM3.75 11.55C4.16421 11.55 4.5 11.8858 4.5 12.3V15.62C4.5 16.8658 5.50421 17.87 6.75 17.87H18.7792L16.8997 15.9905C16.6068 15.6976 16.6068 15.2227 16.8997 14.9298C17.1926 14.6369 17.6675 14.6369 17.9604 14.9298L21.1113 18.0807C21.2429 18.2079 21.328 18.3829 21.3389 18.5776C21.3397 18.5918 21.3401 18.606 21.3401 18.6202C21.3401 18.6439 21.3389 18.6674 21.3367 18.6908C21.3263 18.8026 21.2913 18.9072 21.2372 18.9992C21.2052 19.054 21.166 19.1049 21.1204 19.1505L17.9604 22.3105C17.6675 22.6034 17.1926 22.6034 16.8997 22.3105C16.6068 22.0176 16.6068 21.5427 16.8997 21.2498L18.7796 19.37H6.75C4.67579 19.37 3 17.6942 3 15.62V12.3C3 11.8858 3.33579 11.55 3.75 11.55Z" fill="#424B5A"/>
</svg>
