<svg width="24" height="24" viewBox="0 0 24 24" fill="none" xmlns="http://www.w3.org/2000/svg">
<path fill-rule="evenodd" clip-rule="evenodd" d="M2.75 12C2.75 6.89137 6.89137 2.75 12 2.75C17.1086 2.75 21.25 6.89137 21.25 12C21.25 17.1086 17.1086 21.25 12 21.25C6.89137 21.25 2.75 17.1086 2.75 12ZM12 1.25C6.06294 1.25 1.25 6.06294 1.25 12C1.25 17.9371 6.06294 22.75 12 22.75C17.9371 22.75 22.75 17.9371 22.75 12C22.75 6.06294 17.9371 1.25 12 1.25ZM9.71877 7.19205C10.0125 6.90002 10.0139 6.42515 9.7219 6.13139C9.42987 5.83764 8.955 5.83624 8.66124 6.12826L6.97124 7.80832C6.83346 7.94529 6.75434 8.13023 6.75017 8.32407L6.75 8.3391V8.34033L9.71877 7.19205ZM9.71877 7.19205L9.31812 7.59033H14.9C16.2072 7.59033 17.25 8.64913 17.25 9.94031V11.7103C17.25 12.1245 16.9142 12.4603 16.5 12.4603C16.0858 12.4603 15.75 12.1245 15.75 11.7103V9.94031C15.75 9.47148 15.3727 9.09033 14.9 9.09033H9.31078L9.72033 9.49988C10.0132 9.79278 10.0132 10.2676 9.72033 10.5605C9.42744 10.8534 8.95257 10.8534 8.65967 10.5605L6.9778 8.87867C6.83823 8.74326 6.75115 8.55404 6.75001 8.34448L9.71877 7.19205ZM8.25 12.29C8.25 11.8758 7.91421 11.54 7.5 11.54C7.08579 11.54 6.75 11.8758 6.75 12.29V14.0601C6.75 15.3512 7.79276 16.41 9.10001 16.41H14.6819L14.2812 16.8084C13.9875 17.1004 13.9861 17.5753 14.2781 17.869C14.5701 18.1628 15.045 18.1642 15.3388 17.8722L17.0288 16.1921C17.0698 16.1513 17.1057 16.1062 17.1359 16.0579C17.2082 15.9426 17.25 15.8062 17.25 15.66C17.25 15.4479 17.1619 15.2564 17.0204 15.1199L15.3403 13.4399C15.0474 13.147 14.5726 13.147 14.2797 13.4399C13.9868 13.7328 13.9868 14.2077 14.2797 14.5005L14.6892 14.91H9.10001C8.62725 14.91 8.25 14.5289 8.25 14.0601V12.29Z" fill="#424B5A"/>
</svg>
