<svg width="24" height="24" viewBox="0 0 24 24" fill="none" xmlns="http://www.w3.org/2000/svg">
<path fill-rule="evenodd" clip-rule="evenodd" d="M11.2524 1.43431C11.5649 1.70627 11.5977 2.18001 11.3257 2.49244L9.92131 4.10581C10.5698 3.97659 11.2621 3.90001 12 3.90001C17.2042 3.90001 21.42 8.1158 21.42 13.32C21.42 18.5242 17.2042 22.74 12 22.74C6.7958 22.74 2.58002 18.5242 2.58002 13.32C2.58002 11.3864 3.16698 9.58248 4.16598 8.08399C4.39574 7.73934 4.8614 7.64621 5.20604 7.87597C5.55069 8.10574 5.64382 8.57139 5.41405 8.91604C4.57305 10.1775 4.08002 11.6936 4.08002 13.32C4.08002 17.6958 7.62423 21.24 12 21.24C16.3758 21.24 19.92 17.6958 19.92 13.32C19.92 8.94422 16.3758 5.40001 12 5.40001C11.1578 5.40001 10.3827 5.51615 9.66664 5.70293L11.6822 7.17424C12.0168 7.41846 12.09 7.88765 11.8458 8.22221C11.6016 8.55677 11.1324 8.63 10.7978 8.38578L7.43506 5.93107C7.424 5.92317 7.41308 5.91494 7.40234 5.90636C7.33355 5.85157 7.27682 5.78687 7.23272 5.71581C7.1134 5.52383 7.08782 5.28752 7.16073 5.07564C7.18792 4.99665 7.2288 4.92105 7.28362 4.8524C7.29225 4.84157 7.30113 4.83103 7.31023 4.82079L10.1943 1.50758C10.4663 1.19516 10.94 1.16235 11.2524 1.43431Z" fill="#424B5A"/>
</svg>
