<svg width="24" height="24" viewBox="0 0 24 24" fill="none" xmlns="http://www.w3.org/2000/svg">
<path fill-rule="evenodd" clip-rule="evenodd" d="M12.7476 1.43431C13.06 1.16235 13.5338 1.19516 13.8057 1.50758L16.6898 4.82076C16.699 4.83107 16.7079 4.84169 16.7166 4.85261C16.8454 5.01407 16.8972 5.21401 16.8751 5.40606C16.8626 5.51462 16.8264 5.62066 16.7673 5.71581C16.7232 5.7869 16.6664 5.85162 16.5976 5.90643C16.5869 5.91498 16.576 5.92319 16.565 5.93107L13.2022 8.38578C12.8677 8.63 12.3985 8.55677 12.1542 8.22221C11.91 7.88765 11.9833 7.41846 12.3178 7.17424L14.3334 5.70293C13.6173 5.51615 12.8423 5.40001 12 5.40001C7.62423 5.40001 4.08002 8.94422 4.08002 13.32C4.08002 17.7064 7.62479 21.25 12 21.25C16.3758 21.25 19.92 17.7058 19.92 13.33C19.92 11.7036 19.427 10.1875 18.586 8.92604C18.3562 8.58139 18.4493 8.11574 18.794 7.88597C19.1386 7.65621 19.6043 7.74934 19.8341 8.09399C20.833 9.59248 21.42 11.3964 21.42 13.33C21.42 18.5342 17.2042 22.75 12 22.75C6.79524 22.75 2.58002 18.5337 2.58002 13.32C2.58002 8.1158 6.7958 3.90001 12 3.90001C12.738 3.90001 13.4302 3.97659 14.0787 4.10581L12.6743 2.49244C12.4024 2.18001 12.4352 1.70627 12.7476 1.43431Z" fill="#424B5A"/>
</svg>
