<svg width="24" height="24" viewBox="0 0 24 24" fill="none" xmlns="http://www.w3.org/2000/svg">
<path fill-rule="evenodd" clip-rule="evenodd" d="M5.47372 2.75488C4.35482 2.75488 3.30973 3.33005 2.90161 4.43092L1.3393 4.43071C1.83398 2.29169 3.69958 1.25488 5.47372 1.25488C7.24775 1.25488 9.11173 2.29184 9.6009 4.43182L8.03983 4.43161C7.63601 3.33049 6.59329 2.75488 5.47372 2.75488ZM8.03984 4.43165L8.03983 4.43161L2.90161 4.43092L2.90154 4.4311L1.33925 4.43093C0.772755 6.87823 2.34007 8.86152 3.47946 9.95985L3.47942 9.9599L3.48657 9.96662C4.59092 11.0036 6.33311 11.0227 7.44688 9.9633L7.44806 9.96218C8.59928 8.86235 10.167 6.87945 9.6009 4.43182L8.03984 4.43165ZM8.03984 4.43165C8.07901 4.53845 8.11216 4.65019 8.13879 4.76683L8.1393 4.76905C8.51242 6.38059 7.5009 7.83699 6.41255 8.87695C5.88736 9.37601 5.05225 9.37597 4.51664 8.8762C3.43751 7.83482 2.42773 6.37974 2.80064 4.76905L2.8007 4.76884C2.82788 4.65127 2.86167 4.53867 2.90154 4.4311L8.03984 4.43165ZM18.49 14.7549C17.3605 14.7549 16.3106 15.3319 15.9019 16.4307H14.3393C14.8346 14.2891 16.7102 13.2549 18.49 13.2549C20.2698 13.2549 22.1454 14.2891 22.6406 16.4307H21.0781C20.6694 15.3319 19.6194 14.7549 18.49 14.7549ZM21.0781 16.4308L21.0781 16.4307H15.9019L15.9018 16.4309L14.3393 16.4309C13.7724 18.8797 15.341 20.8629 16.5043 21.9645L16.5066 21.9666C17.6105 23.0033 19.3618 23.0227 20.4756 21.9645C21.639 20.8629 23.2076 18.8796 22.6406 16.4307L21.0781 16.4308ZM21.0781 16.4308C21.1181 16.5385 21.152 16.6512 21.1793 16.7688L21.1793 16.7691C21.5523 18.3802 20.5409 19.8369 19.4443 20.8753L19.4431 20.8765C18.9172 21.3767 18.0701 21.3761 17.5344 20.8741C16.4382 19.8358 15.4278 18.3796 15.8006 16.7691L15.8007 16.7688C15.8279 16.6512 15.8618 16.5385 15.9018 16.4309L21.0781 16.4308ZM12 4.24988C11.5858 4.24988 11.25 4.58567 11.25 4.99988C11.25 5.4141 11.5858 5.74988 12 5.74988H14.68C15.836 5.74988 16.376 7.18135 15.5052 7.94621L7.5168 14.9348C5.60384 16.6011 6.78809 19.7499 9.31997 19.7499H12C12.4142 19.7499 12.75 19.4141 12.75 18.9999C12.75 18.5857 12.4142 18.2499 12 18.2499H9.31997C8.17218 18.2499 7.63641 16.8194 8.50241 16.0656L8.5038 16.0644L16.4947 9.07356C18.4034 7.39833 17.2238 4.24988 14.68 4.24988H12ZM4.48619 5.49988C4.48619 4.9476 4.9339 4.49988 5.48619 4.49988H5.49774C6.05003 4.49988 6.49774 4.9476 6.49774 5.49988C6.49774 6.05217 6.05003 6.49988 5.49774 6.49988H5.48619C4.9339 6.49988 4.48619 6.05217 4.48619 5.49988ZM18.4862 16.4999C17.9339 16.4999 17.4862 16.9476 17.4862 17.4999C17.4862 18.0522 17.9339 18.4999 18.4862 18.4999H18.4977C19.05 18.4999 19.4977 18.0522 19.4977 17.4999C19.4977 16.9476 19.05 16.4999 18.4977 16.4999H18.4862Z" fill="#424B5A"/>
</svg>
