<svg width="24" height="24" viewBox="0 0 24 24" fill="none" xmlns="http://www.w3.org/2000/svg">
<path fill-rule="evenodd" clip-rule="evenodd" d="M5.46997 2.75C3.95119 2.75 2.71997 3.98122 2.71997 5.5C2.71997 7.01878 3.95119 8.25 5.46997 8.25C6.98875 8.25 8.21997 7.01878 8.21997 5.5C8.21997 3.98122 6.98875 2.75 5.46997 2.75ZM1.21997 5.5C1.21997 3.15279 3.12276 1.25 5.46997 1.25C7.81718 1.25 9.71997 3.15279 9.71997 5.5C9.71997 7.84721 7.81718 9.75 5.46997 9.75C3.12276 9.75 1.21997 7.84721 1.21997 5.5ZM16.97 15.75C16.2842 15.75 15.72 16.3142 15.72 17V20C15.72 20.6858 16.2842 21.25 16.97 21.25H19.97C20.6558 21.25 21.22 20.6858 21.22 20V17C21.22 16.3142 20.6558 15.75 19.97 15.75H16.97ZM14.22 17C14.22 15.4858 15.4558 14.25 16.97 14.25H19.97C21.4842 14.25 22.72 15.4858 22.72 17V20C22.72 21.5142 21.4842 22.75 19.97 22.75H16.97C15.4558 22.75 14.22 21.5142 14.22 20V17ZM12 4.25C11.5858 4.25 11.25 4.58579 11.25 5C11.25 5.41421 11.5858 5.75 12 5.75H14.68C15.836 5.75 16.376 7.18147 15.5052 7.94632L7.5168 14.9349C5.60383 16.6013 6.78809 19.75 9.31997 19.75H12C12.4142 19.75 12.75 19.4142 12.75 19C12.75 18.5858 12.4142 18.25 12 18.25H9.31997C8.17218 18.25 7.63641 16.8195 8.50241 16.0657L8.5038 16.0645L16.4947 9.07368C18.4034 7.39845 17.2238 4.25 14.68 4.25H12ZM4.48619 5.5C4.48619 4.94772 4.9339 4.5 5.48619 4.5H5.49774C6.05003 4.5 6.49774 4.94772 6.49774 5.5C6.49774 6.05228 6.05003 6.5 5.49774 6.5H5.48619C4.9339 6.5 4.48619 6.05228 4.48619 5.5ZM18.4862 17.5C17.9339 17.5 17.4862 17.9477 17.4862 18.5C17.4862 19.0523 17.9339 19.5 18.4862 19.5H18.4977C19.05 19.5 19.4977 19.0523 19.4977 18.5C19.4977 17.9477 19.05 17.5 18.4977 17.5H18.4862Z" fill="#424B5A"/>
</svg>
