<svg width="24" height="24" viewBox="0 0 24 24" fill="none" xmlns="http://www.w3.org/2000/svg">
<path fill-rule="evenodd" clip-rule="evenodd" d="M9 1.25C6.42603 1.25 4.42914 1.7602 3.09467 3.09467C1.7602 4.42914 1.25 6.42603 1.25 9V15C1.25 17.574 1.7602 19.5709 3.09467 20.9053C4.42914 22.2398 6.42603 22.75 9 22.75H15C17.574 22.75 19.5709 22.2398 20.9053 20.9053C22.2398 19.5709 22.75 17.574 22.75 15V9C22.75 6.42603 22.2398 4.42914 20.9053 3.09467C19.5709 1.7602 17.574 1.25 15 1.25H9ZM2.75 9C2.75 6.57397 3.2398 5.07086 4.15533 4.15533C5.07086 3.2398 6.57397 2.75 9 2.75H15C17.426 2.75 18.9291 3.2398 19.8447 4.15533C20.7602 5.07086 21.25 6.57397 21.25 9V15C21.25 17.426 20.7602 18.9291 19.8447 19.8447C18.9291 20.7602 17.426 21.25 15 21.25H9C6.57397 21.25 5.07086 20.7602 4.15533 19.8447C3.2398 18.9291 2.75 17.426 2.75 15V9ZM7.62662 9.70808L15.1704 7.3569C16.083 7.08121 16.9174 7.94019 16.6356 8.82159L14.294 16.3668C13.9482 17.4699 12.4197 17.4733 12.0619 16.394L11.3615 14.3228L11.3609 14.3211C11.0993 13.5381 10.4797 12.8945 9.67312 12.6371L7.59923 11.9392L7.59717 11.9385C6.5168 11.5784 6.54178 10.0353 7.62662 9.70808ZM14.7318 5.92244C16.7773 5.30052 18.7203 7.21849 18.0654 9.27513L15.7263 16.8123L15.7258 16.8139C14.9514 19.2893 11.4625 19.3464 10.6389 16.8684L10.6381 16.866L9.93952 14.8003L9.93849 14.7972C9.82054 14.4433 9.54346 14.1692 9.21415 14.0652L9.20077 14.0608L7.12283 13.3615L7.12184 13.3612C4.66437 12.5411 4.69853 9.0279 7.18987 8.27304L14.7318 5.92244Z" fill="#424B5A"/>
</svg>
