<svg width="24" height="24" viewBox="0 0 24 24" fill="none" xmlns="http://www.w3.org/2000/svg">
<path fill-rule="evenodd" clip-rule="evenodd" d="M14 6.25H10.0511H10.0486H6H5C3.88439 6.25 2.90993 6.52941 2.21967 7.21967C1.52941 7.90993 1.25 8.88439 1.25 10V14C1.25 15.1156 1.52941 16.0901 2.21967 16.7803C2.90993 17.4706 3.88439 17.75 5 17.75H19C20.1156 17.75 21.0901 17.4706 21.7803 16.7803C22.4706 16.0901 22.75 15.1156 22.75 14V10C22.75 8.88439 22.4706 7.90993 21.7803 7.21967C21.0901 6.52941 20.1156 6.25 19 6.25H18H14ZM13.25 7.75V10C13.25 10.4142 13.5858 10.75 14 10.75C14.4142 10.75 14.75 10.4142 14.75 10V7.75H17.25V12C17.25 12.4142 17.5858 12.75 18 12.75C18.4142 12.75 18.75 12.4142 18.75 12V7.75H19C19.8844 7.75 20.4099 7.97059 20.7197 8.28033C21.0294 8.59007 21.25 9.11561 21.25 10V14C21.25 14.8844 21.0294 15.4099 20.7197 15.7197C20.4099 16.0294 19.8844 16.25 19 16.25H5C4.11561 16.25 3.59007 16.0294 3.28033 15.7197C2.97059 15.4099 2.75 14.8844 2.75 14V10C2.75 9.11561 2.97059 8.59007 3.28033 8.28033C3.59007 7.97059 4.11561 7.75 5 7.75H5.25V11C5.25 11.4142 5.58579 11.75 6 11.75C6.41421 11.75 6.75 11.4142 6.75 11V7.75H9.29246L9.25004 11.9925C9.2459 12.4067 9.57831 12.7458 9.9925 12.75C10.4067 12.7541 10.7458 12.4217 10.75 12.0075L10.7925 7.75H13.25Z" fill="#424B5A"/>
</svg>
