<svg width="24" height="24" viewBox="0 0 24 24" fill="none" xmlns="http://www.w3.org/2000/svg">
<path fill-rule="evenodd" clip-rule="evenodd" d="M10.1292 3.56536C10.8648 2.97541 12.1125 2.97603 12.8472 3.57255L19.4285 8.82359L19.43 8.8248C19.6665 9.01657 19.9012 9.35316 20.0578 9.76458C20.2147 10.177 20.2624 10.5835 20.2108 10.8831L20.2101 10.8875L19.9342 12.5494L19.8045 12.4962L19.7966 12.4931C19.1908 12.2527 18.5343 12.1926 17.9032 12.3128C17.6928 12.3529 17.4852 12.4129 17.2833 12.4931L17.2376 12.5118L14.4954 13.6362L14.4889 13.639C14.1375 13.7869 13.8579 14.0524 13.6684 14.3367C13.4786 14.6213 13.3399 14.9837 13.3399 15.3702V17.5603C13.3399 17.6193 13.3408 17.6781 13.3426 17.7369C13.3684 18.5949 13.5819 19.4278 13.947 20.19C13.9566 20.2101 13.9664 20.2302 13.9762 20.2503H6.17994C5.17627 20.2503 4.1987 19.4249 4.0295 18.4355L4.0293 18.4344L2.76973 10.8868L2.76909 10.8831C2.71714 10.5812 2.76364 10.1739 2.91897 9.76304C3.07434 9.35212 3.30925 9.01665 3.54824 8.82611L10.1292 3.56536ZM14.9891 21.7503H6.17994C4.444 21.7503 2.84196 20.3964 2.55061 18.6863L2.55019 18.6838L1.29081 11.1375L1.29046 11.1355C1.18298 10.508 1.29148 9.82612 1.51591 9.23255C1.74047 8.63863 2.1116 8.05331 2.61238 7.65386L9.19117 2.39483C10.4747 1.36584 12.5048 1.36466 13.7901 2.40589L13.7927 2.40802L20.3714 7.65698C20.8644 8.05542 21.2341 8.63828 21.4597 9.23101C21.6849 9.82284 21.7973 10.5054 21.6895 11.1351L21.6891 11.1375L21.358 13.132L22.601 13.6389C22.9524 13.7869 23.232 14.0524 23.4215 14.3367C23.6112 14.6213 23.7499 14.9837 23.7499 15.3702V17.5603C23.7499 20.3491 21.7336 22.9362 19 23.693C18.9906 23.6956 18.9812 23.698 18.9717 23.7003C18.6924 23.766 18.3909 23.7685 18.108 23.6978L18.0937 23.6941C16.8747 23.3635 15.7946 22.6615 14.9891 21.7503ZM15.9238 20.5296L15.9299 20.5371C16.5636 21.3443 17.4646 21.9669 18.4766 22.2437C18.5115 22.2516 18.563 22.2536 18.6172 22.2426C20.7148 21.6531 22.2499 19.6457 22.2499 17.5603V15.3702C22.2499 15.3368 22.2337 15.2591 22.1734 15.1687C22.1143 15.08 22.0504 15.0355 22.0209 15.0223L20.2443 14.2978C20.2413 14.2966 20.2383 14.2954 20.2354 14.2942L19.2397 13.8859C18.7895 13.7083 18.2904 13.7083 17.8403 13.8859L15.0694 15.0222C15.04 15.0352 14.9759 15.0797 14.9165 15.1688C14.8562 15.2592 14.8399 15.3369 14.8399 15.3703V17.5604C14.8399 17.6269 14.8415 17.6934 14.8445 17.7598C14.8727 18.3751 15.0307 18.9806 15.3003 19.5432C15.4669 19.891 15.6762 20.2224 15.9238 20.5295L15.9238 20.5296Z" fill="#424B5A"/>
</svg>
