<svg width="24" height="24" viewBox="0 0 24 24" fill="none" xmlns="http://www.w3.org/2000/svg">
<path fill-rule="evenodd" clip-rule="evenodd" d="M2.75 6.5C2.75 4.42421 4.42421 2.75 6.5 2.75H9C9.41421 2.75 9.75 2.41421 9.75 2C9.75 1.58579 9.41421 1.25 9 1.25H6.5C3.59579 1.25 1.25 3.59579 1.25 6.5V9C1.25 9.41421 1.58579 9.75 2 9.75C2.41421 9.75 2.75 9.41421 2.75 9V6.5ZM15 1.25C14.5858 1.25 14.25 1.58579 14.25 2C14.25 2.41421 14.5858 2.75 15 2.75H17.5C19.5758 2.75 21.25 4.42421 21.25 6.5V9C21.25 9.41421 21.5858 9.75 22 9.75C22.4142 9.75 22.75 9.41421 22.75 9V6.5C22.75 3.59579 20.4042 1.25 17.5 1.25H15ZM22 15.25C22.4142 15.25 22.75 15.5858 22.75 16V17.5C22.75 20.4042 20.4042 22.75 17.5 22.75H16C15.5858 22.75 15.25 22.4142 15.25 22C15.25 21.5858 15.5858 21.25 16 21.25H17.5C19.5758 21.25 21.25 19.5758 21.25 17.5V16C21.25 15.5858 21.5858 15.25 22 15.25ZM2.75 15C2.75 14.5858 2.41421 14.25 2 14.25C1.58579 14.25 1.25 14.5858 1.25 15V17.5C1.25 20.4042 3.59579 22.75 6.5 22.75H9C9.41421 22.75 9.75 22.4142 9.75 22C9.75 21.5858 9.41421 21.25 9 21.25H6.5C4.42421 21.25 2.75 19.5758 2.75 17.5V15ZM8.28033 7.78033C7.97059 8.09007 7.75 8.61561 7.75 9.5V11.25H16.25V9.5C16.25 8.61561 16.0294 8.09007 15.7197 7.78033C15.4099 7.47059 14.8844 7.25 14 7.25H10C9.11561 7.25 8.59007 7.47059 8.28033 7.78033ZM17.75 11.25V9.5C17.75 8.38439 17.4706 7.40993 16.7803 6.71967C16.0901 6.02941 15.1156 5.75 14 5.75H10C8.88439 5.75 7.90993 6.02941 7.21967 6.71967C6.52941 7.40993 6.25 8.38439 6.25 9.5V11.25H5C4.58579 11.25 4.25 11.5858 4.25 12C4.25 12.4142 4.58579 12.75 5 12.75H6.25V14.5C6.25 15.6156 6.52941 16.5901 7.21967 17.2803C7.90993 17.9706 8.88439 18.25 10 18.25H14C15.1156 18.25 16.0901 17.9706 16.7803 17.2803C17.4706 16.5901 17.75 15.6156 17.75 14.5V12.75H19C19.4142 12.75 19.75 12.4142 19.75 12C19.75 11.5858 19.4142 11.25 19 11.25H17.75ZM16.25 12.75H7.75V14.5C7.75 15.3844 7.97059 15.9099 8.28033 16.2197C8.59007 16.5294 9.11561 16.75 10 16.75H14C14.8844 16.75 15.4099 16.5294 15.7197 16.2197C16.0294 15.9099 16.25 15.3844 16.25 14.5V12.75Z" fill="#424B5A"/>
</svg>
