<svg width="24" height="24" viewBox="0 0 24 24" fill="none" xmlns="http://www.w3.org/2000/svg">
<path fill-rule="evenodd" clip-rule="evenodd" d="M2.75 6.5C2.75 4.42421 4.42421 2.75 6.5 2.75H9C9.41421 2.75 9.75 2.41421 9.75 2C9.75 1.58579 9.41421 1.25 9 1.25H6.5C3.59579 1.25 1.25 3.59579 1.25 6.5V9C1.25 9.41421 1.58579 9.75 2 9.75C2.41421 9.75 2.75 9.41421 2.75 9V6.5ZM15 1.25C14.5858 1.25 14.25 1.58579 14.25 2C14.25 2.41421 14.5858 2.75 15 2.75H17.5C19.5758 2.75 21.25 4.42421 21.25 6.5V9C21.25 9.41421 21.5858 9.75 22 9.75C22.4142 9.75 22.75 9.41421 22.75 9V6.5C22.75 3.59579 20.4042 1.25 17.5 1.25H15ZM22 15.25C22.4142 15.25 22.75 15.5858 22.75 16V17.5C22.75 20.4042 20.4042 22.75 17.5 22.75H16C15.5858 22.75 15.25 22.4142 15.25 22C15.25 21.5858 15.5858 21.25 16 21.25H17.5C19.5758 21.25 21.25 19.5758 21.25 17.5V16C21.25 15.5858 21.5858 15.25 22 15.25ZM2.75 15C2.75 14.5858 2.41421 14.25 2 14.25C1.58579 14.25 1.25 14.5858 1.25 15V17.5C1.25 20.4042 3.59579 22.75 6.5 22.75H9C9.41421 22.75 9.75 22.4142 9.75 22C9.75 21.5858 9.41421 21.25 9 21.25H6.5C4.42421 21.25 2.75 19.5758 2.75 17.5V15ZM8.5 6.75C7.5335 6.75 6.75 7.5335 6.75 8.5C6.75 9.4665 7.5335 10.25 8.5 10.25C9.4665 10.25 10.25 9.4665 10.25 8.5C10.25 7.5335 9.4665 6.75 8.5 6.75ZM5.25 8.5C5.25 6.70507 6.70507 5.25 8.5 5.25C10.2949 5.25 11.75 6.70507 11.75 8.5C11.75 10.2949 10.2949 11.75 8.5 11.75C6.70507 11.75 5.25 10.2949 5.25 8.5ZM6.75 16.5C6.75 16.0858 7.08579 15.75 7.5 15.75C7.91421 15.75 8.25 16.0858 8.25 16.5C8.25 16.9142 7.91421 17.25 7.5 17.25C7.08579 17.25 6.75 16.9142 6.75 16.5ZM7.5 14.25C6.25736 14.25 5.25 15.2574 5.25 16.5C5.25 17.7426 6.25736 18.75 7.5 18.75C8.74264 18.75 9.75 17.7426 9.75 16.5C9.75 15.2574 8.74264 14.25 7.5 14.25ZM16.5 6.75C16.0858 6.75 15.75 7.08579 15.75 7.5C15.75 7.91421 16.0858 8.25 16.5 8.25C16.9142 8.25 17.25 7.91421 17.25 7.5C17.25 7.08579 16.9142 6.75 16.5 6.75ZM14.25 7.5C14.25 6.25736 15.2574 5.25 16.5 5.25C17.7426 5.25 18.75 6.25736 18.75 7.5C18.75 8.74264 17.7426 9.75 16.5 9.75C15.2574 9.75 14.25 8.74264 14.25 7.5ZM13.75 15.5C13.75 14.5335 14.5335 13.75 15.5 13.75C16.4665 13.75 17.25 14.5335 17.25 15.5C17.25 16.4665 16.4665 17.25 15.5 17.25C14.5335 17.25 13.75 16.4665 13.75 15.5ZM15.5 12.25C13.7051 12.25 12.25 13.7051 12.25 15.5C12.25 17.2949 13.7051 18.75 15.5 18.75C17.2949 18.75 18.75 17.2949 18.75 15.5C18.75 13.7051 17.2949 12.25 15.5 12.25Z" fill="#424B5A"/>
</svg>
