<svg width="24" height="24" viewBox="0 0 24 24" fill="none" xmlns="http://www.w3.org/2000/svg">
<path fill-rule="evenodd" clip-rule="evenodd" d="M2.75 6.5C2.75 4.42421 4.42421 2.75 6.5 2.75H9C9.41421 2.75 9.75 2.41421 9.75 2C9.75 1.58579 9.41421 1.25 9 1.25H6.5C3.59579 1.25 1.25 3.59579 1.25 6.5V9C1.25 9.41421 1.58579 9.75 2 9.75C2.41421 9.75 2.75 9.41421 2.75 9V6.5ZM15 1.25C14.5858 1.25 14.25 1.58579 14.25 2C14.25 2.41421 14.5858 2.75 15 2.75H17.5C19.5758 2.75 21.25 4.42421 21.25 6.5V9C21.25 9.41421 21.5858 9.75 22 9.75C22.4142 9.75 22.75 9.41421 22.75 9V6.5C22.75 3.59579 20.4042 1.25 17.5 1.25H15ZM22 15.25C22.4142 15.25 22.75 15.5858 22.75 16V17.5C22.75 20.4042 20.4042 22.75 17.5 22.75H16C15.5858 22.75 15.25 22.4142 15.25 22C15.25 21.5858 15.5858 21.25 16 21.25H17.5C19.5758 21.25 21.25 19.5758 21.25 17.5V16C21.25 15.5858 21.5858 15.25 22 15.25ZM2.75 15C2.75 14.5858 2.41421 14.25 2 14.25C1.58579 14.25 1.25 14.5858 1.25 15V17.5C1.25 20.4042 3.59579 22.75 6.5 22.75H9C9.41421 22.75 9.75 22.4142 9.75 22C9.75 21.5858 9.41421 21.25 9 21.25H6.5C4.42421 21.25 2.75 19.5758 2.75 17.5V15ZM6.40533 6.40533C6.34559 6.46507 6.25 6.61561 6.25 7V9C6.25 9.38439 6.34559 9.53493 6.40533 9.59467C6.46507 9.65441 6.61561 9.75 7 9.75H9C9.38439 9.75 9.53493 9.65441 9.59467 9.59467C9.65441 9.53493 9.75 9.38439 9.75 9V7C9.75 6.61561 9.65441 6.46507 9.59467 6.40533C9.53493 6.34559 9.38439 6.25 9 6.25H7C6.61561 6.25 6.46507 6.34559 6.40533 6.40533ZM5.34467 5.34467C5.78493 4.90441 6.38439 4.75 7 4.75H9C9.61561 4.75 10.2151 4.90441 10.6553 5.34467C11.0956 5.78493 11.25 6.38439 11.25 7V9C11.25 9.61561 11.0956 10.2151 10.6553 10.6553C10.2151 11.0956 9.61561 11.25 9 11.25H7C6.38439 11.25 5.78493 11.0956 5.34467 10.6553C4.90441 10.2151 4.75 9.61561 4.75 9V7C4.75 6.38439 4.90441 5.78493 5.34467 5.34467ZM14.25 7C14.25 6.61561 14.3456 6.46507 14.4053 6.40533C14.4651 6.34559 14.6156 6.25 15 6.25H17C17.3844 6.25 17.5349 6.34559 17.5947 6.40533C17.6544 6.46507 17.75 6.61561 17.75 7V9C17.75 9.38439 17.6544 9.53493 17.5947 9.59467C17.5349 9.65441 17.3844 9.75 17 9.75H15C14.6156 9.75 14.4651 9.65441 14.4053 9.59467C14.3456 9.53493 14.25 9.38439 14.25 9V7ZM15 4.75C14.3844 4.75 13.7849 4.90441 13.3447 5.34467C12.9044 5.78493 12.75 6.38439 12.75 7V9C12.75 9.61561 12.9044 10.2151 13.3447 10.6553C13.7849 11.0956 14.3844 11.25 15 11.25H17C17.6156 11.25 18.2151 11.0956 18.6553 10.6553C19.0956 10.2151 19.25 9.61561 19.25 9V7C19.25 6.38439 19.0956 5.78493 18.6553 5.34467C18.2151 4.90441 17.6156 4.75 17 4.75H15ZM6.40533 14.4053C6.34559 14.4651 6.25 14.6156 6.25 15V17C6.25 17.3844 6.34559 17.5349 6.40533 17.5947C6.46507 17.6544 6.61561 17.75 7 17.75H9C9.38439 17.75 9.53493 17.6544 9.59467 17.5947C9.65441 17.5349 9.75 17.3844 9.75 17V15C9.75 14.6156 9.65441 14.4651 9.59467 14.4053C9.53493 14.3456 9.38439 14.25 9 14.25H7C6.61561 14.25 6.46507 14.3456 6.40533 14.4053ZM5.34467 13.3447C5.78493 12.9044 6.38439 12.75 7 12.75H9C9.61561 12.75 10.2151 12.9044 10.6553 13.3447C11.0956 13.7849 11.25 14.3844 11.25 15V17C11.25 17.6156 11.0956 18.2151 10.6553 18.6553C10.2151 19.0956 9.61561 19.25 9 19.25H7C6.38439 19.25 5.78493 19.0956 5.34467 18.6553C4.90441 18.2151 4.75 17.6156 4.75 17V15C4.75 14.3844 4.90441 13.7849 5.34467 13.3447ZM14.25 15C14.25 14.6156 14.3456 14.4651 14.4053 14.4053C14.4651 14.3456 14.6156 14.25 15 14.25H17C17.3844 14.25 17.5349 14.3456 17.5947 14.4053C17.6544 14.4651 17.75 14.6156 17.75 15V17C17.75 17.3844 17.6544 17.5349 17.5947 17.5947C17.5349 17.6544 17.3844 17.75 17 17.75H15C14.6156 17.75 14.4651 17.6544 14.4053 17.5947C14.3456 17.5349 14.25 17.3844 14.25 17V15ZM15 12.75C14.3844 12.75 13.7849 12.9044 13.3447 13.3447C12.9044 13.7849 12.75 14.3844 12.75 15V17C12.75 17.6156 12.9044 18.2151 13.3447 18.6553C13.7849 19.0956 14.3844 19.25 15 19.25H17C17.6156 19.25 18.2151 19.0956 18.6553 18.6553C19.0956 18.2151 19.25 17.6156 19.25 17V15C19.25 14.3844 19.0956 13.7849 18.6553 13.3447C18.2151 12.9044 17.6156 12.75 17 12.75H15Z" fill="#424B5A"/>
</svg>
