<svg width="24" height="24" viewBox="0 0 24 24" fill="none" xmlns="http://www.w3.org/2000/svg">
<path fill-rule="evenodd" clip-rule="evenodd" d="M3.09467 3.09467C4.42914 1.7602 6.42603 1.25 9 1.25H15C17.574 1.25 19.5709 1.7602 20.9053 3.09467C22.2398 4.42914 22.75 6.42603 22.75 9V15C22.75 17.574 22.2398 19.5709 20.9053 20.9053C19.5709 22.2398 17.574 22.75 15 22.75H9C6.42603 22.75 4.42914 22.2398 3.09467 20.9053C1.7602 19.5709 1.25 17.574 1.25 15V9C1.25 6.42603 1.7602 4.42914 3.09467 3.09467ZM4.15533 4.15533C3.2398 5.07086 2.75 6.57397 2.75 9V15C2.75 17.426 3.2398 18.9291 4.15533 19.8447C5.07086 20.7602 6.57397 21.25 9 21.25H15C17.426 21.25 18.9291 20.7602 19.8447 19.8447C20.7602 18.9291 21.25 17.426 21.25 15V9C21.25 6.57397 20.7602 5.07086 19.8447 4.15533C18.9291 3.2398 17.426 2.75 15 2.75H9C6.57397 2.75 5.07086 3.2398 4.15533 4.15533Z" fill="#424B5A"/>
<path fill-rule="evenodd" clip-rule="evenodd" d="M10.4572 12.4572C11.0041 11.9102 11.776 11.75 12.6 11.75H16.4C17.224 11.75 17.9959 11.9102 18.5428 12.4572C19.0898 13.0041 19.25 13.776 19.25 14.6V16.4C19.25 17.224 19.0898 17.9959 18.5428 18.5428C17.9959 19.0898 17.224 19.25 16.4 19.25H12.6C11.776 19.25 11.0041 19.0898 10.4572 18.5428C9.9102 17.9959 9.75 17.224 9.75 16.4V14.6C9.75 13.776 9.9102 13.0041 10.4572 12.4572ZM11.5178 13.5178C11.3898 13.6459 11.25 13.924 11.25 14.6V16.4C11.25 17.076 11.3898 17.3541 11.5178 17.4822C11.6459 17.6102 11.924 17.75 12.6 17.75H16.4C17.076 17.75 17.3541 17.6102 17.4822 17.4822C17.6102 17.3541 17.75 17.076 17.75 16.4V14.6C17.75 13.924 17.6102 13.6459 17.4822 13.5178C17.3541 13.3898 17.076 13.25 16.4 13.25H12.6C11.924 13.25 11.6459 13.3898 11.5178 13.5178Z" fill="#424B5A"/>
</svg>
