<svg width="24" height="24" viewBox="0 0 24 24" fill="none" xmlns="http://www.w3.org/2000/svg">
<path fill-rule="evenodd" clip-rule="evenodd" d="M11.5 2.75C6.66421 2.75 2.75 6.66421 2.75 11.5C2.75 16.3358 6.66421 20.25 11.5 20.25C16.3358 20.25 20.25 16.3358 20.25 11.5C20.25 11.0858 20.5858 10.75 21 10.75C21.4142 10.75 21.75 11.0858 21.75 11.5C21.75 17.1642 17.1642 21.75 11.5 21.75C5.83579 21.75 1.25 17.1642 1.25 11.5C1.25 5.83579 5.83579 1.25 11.5 1.25C11.9142 1.25 12.25 1.58579 12.25 2C12.25 2.41421 11.9142 2.75 11.5 2.75ZM14 4.25C13.5858 4.25 13.25 4.58579 13.25 5C13.25 5.41421 13.5858 5.75 14 5.75H20C20.4142 5.75 20.75 5.41421 20.75 5C20.75 4.58579 20.4142 4.25 20 4.25H14ZM14 7.25C13.5858 7.25 13.25 7.58579 13.25 8C13.25 8.41421 13.5858 8.75 14 8.75H17C17.4142 8.75 17.75 8.41421 17.75 8C17.75 7.58579 17.4142 7.25 17 7.25H14ZM22.5303 21.4697L20.5303 19.4697C20.2374 19.1768 19.7626 19.1768 19.4697 19.4697C19.1768 19.7626 19.1768 20.2374 19.4697 20.5303L21.4697 22.5303C21.7626 22.8232 22.2374 22.8232 22.5303 22.5303C22.8232 22.2374 22.8232 21.7626 22.5303 21.4697Z" fill="#424B5A"/>
</svg>
