<svg width="24" height="24" viewBox="0 0 24 24" fill="none" xmlns="http://www.w3.org/2000/svg">
<path fill-rule="evenodd" clip-rule="evenodd" d="M2.75 11C2.75 6.44421 6.44421 2.75 11 2.75C11.4142 2.75 11.75 2.41421 11.75 2C11.75 1.58579 11.4142 1.25 11 1.25C5.61579 1.25 1.25 5.61579 1.25 11C1.25 16.3842 5.61579 20.75 11 20.75C16.3842 20.75 20.75 16.3842 20.75 11C20.75 10.5858 20.4142 10.25 20 10.25C19.5858 10.25 19.25 10.5858 19.25 11C19.25 15.5558 15.5558 19.25 11 19.25C6.44421 19.25 2.75 15.5558 2.75 11ZM18.4689 18.854C18.8913 18.2675 19.5837 17.964 20.3531 17.9698C21.2643 17.9706 22.123 18.2863 22.5323 19.0508C22.9419 19.8156 22.7284 20.7063 22.2247 21.4647L22.2246 21.4648C21.6945 22.2628 20.9207 22.8595 20.0153 22.7382C19.1097 22.6168 18.5199 21.8372 18.218 20.9256L18.2178 20.925C17.9764 20.1941 18.0468 19.4399 18.4689 18.854ZM20.2146 21.2515C20.1501 21.2428 19.87 21.1425 19.642 20.4543L20.9751 20.6349C20.5753 21.2368 20.2791 21.2601 20.2146 21.2515ZM19.642 20.4543L20.9752 20.6348C21.3215 20.1133 21.2529 19.839 21.21 19.7589C21.1673 19.6792 20.9775 19.4698 20.3499 19.4698H20.3433V19.4698C19.9742 19.4665 19.778 19.603 19.686 19.7306C19.5931 19.8597 19.5235 20.0954 19.642 20.4543ZM13.25 5C13.25 4.58579 13.5858 4.25 14 4.25H20C20.4142 4.25 20.75 4.58579 20.75 5C20.75 5.41421 20.4142 5.75 20 5.75H14C13.5858 5.75 13.25 5.41421 13.25 5ZM14 7.25C13.5858 7.25 13.25 7.58579 13.25 8C13.25 8.41421 13.5858 8.75 14 8.75H17C17.4142 8.75 17.75 8.41421 17.75 8C17.75 7.58579 17.4142 7.25 17 7.25H14Z" fill="#424B5A"/>
</svg>
