<svg width="24" height="24" viewBox="0 0 24 24" fill="none" xmlns="http://www.w3.org/2000/svg">
<path fill-rule="evenodd" clip-rule="evenodd" d="M11 2.75C6.44421 2.75 2.75 6.44421 2.75 11C2.75 15.5558 6.44421 19.25 11 19.25C15.5558 19.25 19.25 15.5558 19.25 11C19.25 10.5858 19.5858 10.25 20 10.25C20.4142 10.25 20.75 10.5858 20.75 11C20.75 16.3842 16.3842 20.75 11 20.75C5.61579 20.75 1.25 16.3842 1.25 11C1.25 5.61579 5.61579 1.25 11 1.25C11.4142 1.25 11.75 1.58579 11.75 2C11.75 2.41421 11.4142 2.75 11 2.75ZM15.9039 4.29174C15.6884 3.99607 15.2933 3.89131 14.9537 4.00267L14.9479 4.00456L14.9479 4.00453C14.3195 4.20498 13.9421 5.04385 14.2143 5.90136C14.4362 6.58917 14.9276 7.13416 15.4557 7.51597C15.717 7.70491 15.9735 7.84351 16.1839 7.9324C16.3707 8.01132 16.4775 8.03278 16.5047 8.03825L16.5088 8.03907L16.5159 8.03747C16.5457 8.03092 16.6498 8.00806 16.8298 7.931C17.0412 7.84049 17.2994 7.69977 17.562 7.50922C18.0944 7.12295 18.5829 6.57852 18.7945 5.90513L18.7953 5.9026C19.0682 5.04501 18.6911 4.20577 18.0629 4.00478C17.6895 3.88687 17.3038 4.0072 17.1372 4.26127C17.0022 4.46717 16.7747 4.59369 16.5285 4.59977C16.2824 4.60585 16.0489 4.49073 15.9039 4.29174ZM16.4968 2.82501C15.884 2.43495 15.1278 2.36797 14.4893 2.57636C12.8003 3.11703 12.3585 5.01609 12.7853 6.3574L12.7861 6.3599C13.1344 7.4415 13.8777 8.22608 14.5768 8.73153C14.9292 8.98634 15.2846 9.18087 15.6002 9.31416C15.8914 9.43719 16.223 9.54 16.51 9.54C16.7982 9.54 17.1316 9.43351 17.4202 9.30993C17.735 9.17514 18.0906 8.97898 18.443 8.72328C19.1404 8.21725 19.8865 7.43209 20.2251 6.35614C20.6514 5.01415 20.2086 3.11475 18.5179 2.57547L18.5164 2.57499C17.9132 2.38397 17.1249 2.41745 16.4968 2.82501ZM18.4689 18.854C18.8913 18.2675 19.5837 17.964 20.3531 17.9698C21.2643 17.9706 22.123 18.2863 22.5323 19.0508C22.9419 19.8156 22.7284 20.7063 22.2247 21.4647L22.2246 21.4648C21.6945 22.2628 20.9207 22.8595 20.0153 22.7382C19.1097 22.6168 18.5199 21.8372 18.218 20.9256L18.2178 20.925C17.9763 20.1941 18.0468 19.4399 18.4689 18.854ZM20.2145 21.2515C20.1501 21.2428 19.87 21.1425 19.642 20.4543L20.9751 20.6349C20.5753 21.2368 20.2791 21.2601 20.2145 21.2515ZM19.642 20.4543L20.9752 20.6348C21.3215 20.1133 21.2529 19.839 21.21 19.7589C21.1673 19.6792 20.9775 19.4698 20.3499 19.4698H20.3433V19.4698C19.9742 19.4665 19.778 19.603 19.686 19.7307C19.5931 19.8597 19.5235 20.0954 19.642 20.4543Z" fill="#424B5A"/>
</svg>
