<svg width="24" height="24" viewBox="0 0 24 24" fill="none" xmlns="http://www.w3.org/2000/svg">
<path fill-rule="evenodd" clip-rule="evenodd" d="M2.75 11C2.75 6.44365 6.44365 2.75 11 2.75C15.5563 2.75 19.25 6.44365 19.25 11C19.25 15.5563 15.5563 19.25 11 19.25C6.44365 19.25 2.75 15.5563 2.75 11ZM11 1.25C5.61522 1.25 1.25 5.61522 1.25 11C1.25 16.3848 5.61522 20.75 11 20.75C16.3848 20.75 20.75 16.3848 20.75 11C20.75 5.61522 16.3848 1.25 11 1.25ZM8.5 10.25C8.08579 10.25 7.75 10.5858 7.75 11C7.75 11.4142 8.08579 11.75 8.5 11.75H10.25V13.5C10.25 13.9142 10.5858 14.25 11 14.25C11.4142 14.25 11.75 13.9142 11.75 13.5V11.75H13.5C13.9142 11.75 14.25 11.4142 14.25 11C14.25 10.5858 13.9142 10.25 13.5 10.25H11.75V8.5C11.75 8.08579 11.4142 7.75 11 7.75C10.5858 7.75 10.25 8.08579 10.25 8.5V10.25H8.5ZM18.4689 18.854C18.8913 18.2675 19.5837 17.964 20.3531 17.9698C21.2643 17.9706 22.123 18.2863 22.5323 19.0508C22.9419 19.8156 22.7284 20.7063 22.2247 21.4647L22.2246 21.4648C21.6945 22.2628 20.9207 22.8595 20.0153 22.7382C19.1097 22.6168 18.5199 21.8372 18.218 20.9256L18.2178 20.925C17.9763 20.1941 18.0468 19.4399 18.4689 18.854ZM20.2145 21.2515C20.1501 21.2428 19.87 21.1425 19.642 20.4543L20.9751 20.6349C20.5753 21.2368 20.2791 21.2601 20.2145 21.2515ZM19.642 20.4543L20.9752 20.6348C21.3215 20.1133 21.2529 19.839 21.21 19.7589C21.1673 19.6792 20.9775 19.4698 20.3499 19.4698H20.3433V19.4698C19.9742 19.4665 19.778 19.603 19.686 19.7307C19.5931 19.8597 19.5235 20.0954 19.642 20.4543Z" fill="#424B5A"/>
</svg>
