<svg width="24" height="24" viewBox="0 0 24 24" fill="none" xmlns="http://www.w3.org/2000/svg">
<path fill-rule="evenodd" clip-rule="evenodd" d="M11.5 2.75C6.66751 2.75 2.75 6.66751 2.75 11.5C2.75 16.3325 6.66751 20.25 11.5 20.25C16.3325 20.25 20.25 16.3325 20.25 11.5C20.25 6.66751 16.3325 2.75 11.5 2.75ZM1.25 11.5C1.25 5.83908 5.83908 1.25 11.5 1.25C17.1609 1.25 21.75 5.83908 21.75 11.5C21.75 17.1609 17.1609 21.75 11.5 21.75C5.83908 21.75 1.25 17.1609 1.25 11.5ZM12.45 9.2C12.45 8.78579 12.1142 8.45 11.7 8.45C11.2858 8.45 10.95 8.78579 10.95 9.2V10.95H9.2C8.78579 10.95 8.45 11.2858 8.45 11.7C8.45 12.1142 8.78579 12.45 9.2 12.45H10.95V14.2C10.95 14.6142 11.2858 14.95 11.7 14.95C12.1142 14.95 12.45 14.6142 12.45 14.2V12.45H14.2C14.6142 12.45 14.95 12.1142 14.95 11.7C14.95 11.2858 14.6142 10.95 14.2 10.95H12.45V9.2ZM20.5303 19.4697C20.2374 19.1768 19.7626 19.1768 19.4697 19.4697C19.1768 19.7626 19.1768 20.2374 19.4697 20.5303L21.4697 22.5303C21.7626 22.8232 22.2374 22.8232 22.5303 22.5303C22.8232 22.2374 22.8232 21.7626 22.5303 21.4697L20.5303 19.4697Z" fill="#424B5A"/>
</svg>
