<svg width="24" height="24" viewBox="0 0 24 24" fill="none" xmlns="http://www.w3.org/2000/svg">
<path fill-rule="evenodd" clip-rule="evenodd" d="M10.3333 3.08474L4.76009 5.36602C4.54303 5.45341 4.30519 5.64997 4.11865 5.92746C3.93198 6.20514 3.83997 6.49947 3.83997 6.73028V11.1203C3.83997 15.6605 7.15239 19.9531 11.6883 21.207C11.8885 21.2614 12.1114 21.2614 12.3117 21.207C16.8475 19.9531 20.16 15.6605 20.16 11.1203L20.16 11.1186L20.17 6.73028C20.1698 6.50227 20.0771 6.20806 19.8885 5.92889C19.6998 5.64955 19.4605 5.45194 19.2467 5.36473L13.6766 3.08474C12.6085 2.64912 11.4014 2.64904 10.3333 3.08474ZM9.76663 1.69589C11.1982 1.11179 12.8117 1.11179 14.2433 1.69589L19.8132 3.97583C20.359 4.19871 20.8153 4.62125 21.1314 5.08917C21.4476 5.5572 21.67 6.13839 21.67 6.73028L21.67 6.73199L21.66 11.1203C21.6595 16.3593 17.8728 21.2267 12.7097 22.6532L12.7073 22.6539C12.2481 22.7791 11.7518 22.7791 11.2926 22.6539L11.2902 22.6532C6.12684 21.2266 2.33997 16.3596 2.33997 11.1203V6.73028C2.33997 6.14109 2.55796 5.56042 2.87379 5.0906C3.18934 4.62121 3.64572 4.19828 4.19768 3.97544L9.76663 1.69589ZM12 9.25031C11.3096 9.25031 10.75 9.80995 10.75 10.5003C10.75 11.1907 11.3096 11.7503 12 11.7503C12.6903 11.7503 13.25 11.1907 13.25 10.5003C13.25 9.80995 12.6903 9.25031 12 9.25031ZM12.75 13.1468C13.9042 12.8203 14.75 11.7591 14.75 10.5003C14.75 8.98152 13.5188 7.75031 12 7.75031C10.4812 7.75031 9.24997 8.98152 9.24997 10.5003C9.24997 11.7591 10.0957 12.8203 11.25 13.1468V15.5003C11.25 15.9145 11.5858 16.2503 12 16.2503C12.4142 16.2503 12.75 15.9145 12.75 15.5003V13.1468Z" fill="#424B5A"/>
</svg>
