<svg width="24" height="24" viewBox="0 0 24 24" fill="none" xmlns="http://www.w3.org/2000/svg">
<path fill-rule="evenodd" clip-rule="evenodd" d="M12.0025 1.24756C12.6108 1.24756 13.2559 1.33178 13.787 1.52546L13.7932 1.52773L18.7827 3.39756C19.5297 3.67688 20.1663 4.23762 20.6131 4.88337C21.0598 5.52922 21.36 6.32273 21.36 7.12006V14.5501C21.36 15.289 21.1211 16.0878 20.7713 16.7833C20.4213 17.4791 19.922 18.1476 19.329 18.5908L15.0307 21.7995L15.0296 21.8004C14.1718 22.4447 13.0734 22.7451 12.01 22.7451C10.9466 22.7451 9.84811 22.4447 8.99038 21.8003L8.98935 21.7995L4.69139 18.5911C4.0984 18.1479 3.59875 17.4791 3.24878 16.7833C2.89893 16.0878 2.66003 15.289 2.66003 14.5501V7.12006C2.66003 6.32273 2.9602 5.52922 3.40699 4.88337C3.85366 4.23768 4.49021 3.677 5.23713 3.39765L10.2268 1.52775C10.7514 1.33181 11.3952 1.24756 12.0025 1.24756ZM10.7524 2.93265L5.76322 4.80236C5.36024 4.95304 4.95136 5.2875 4.64058 5.73675C4.32986 6.1859 4.16003 6.68739 4.16003 7.12006V14.5501C4.16003 14.9911 4.31114 15.5573 4.5888 16.1093C4.86631 16.661 5.23197 17.1224 5.58895 17.3892L9.89072 20.6006C10.4428 21.0156 11.2088 21.2451 12.01 21.2451C12.8112 21.2451 13.5772 21.0156 14.1293 20.6006L14.1314 20.5991L18.431 17.3893C18.7879 17.1224 19.1538 16.6609 19.4313 16.1093C19.7089 15.5573 19.86 14.9911 19.86 14.5501V7.12006C19.86 6.68739 19.6902 6.1859 19.3795 5.73675C19.0687 5.2875 18.6603 4.95324 18.2573 4.80256L13.2702 2.93362C12.9514 2.81792 12.4928 2.74756 12.0025 2.74756C11.5101 2.74756 11.0578 2.81869 10.7524 2.93265ZM12 8.25006C10.2051 8.25006 8.75003 9.70513 8.75003 11.5001C8.75003 13.295 10.2051 14.7501 12 14.7501C13.795 14.7501 15.25 13.295 15.25 11.5001C15.25 9.70513 13.795 8.25006 12 8.25006ZM7.25003 11.5001C7.25003 8.87671 9.37668 6.75006 12 6.75006C14.6234 6.75006 16.75 8.87671 16.75 11.5001C16.75 14.1234 14.6234 16.2501 12 16.2501C9.37668 16.2501 7.25003 14.1234 7.25003 11.5001ZM13 10.2501C13 9.83584 12.6642 9.50006 12.25 9.50006C11.8358 9.50006 11.5 9.83584 11.5 10.2501V11.1801C11.5 11.2739 11.4527 11.3511 11.3834 11.3914L10.6117 11.8584C10.2573 12.0729 10.1439 12.534 10.3584 12.8884C10.5729 13.2428 11.034 13.3562 11.3884 13.1417L12.1434 12.6847C12.6898 12.3642 13 11.7837 13 11.1801V10.2501Z" fill="#424B5A"/>
</svg>
