<svg width="24" height="24" viewBox="0 0 24 24" fill="none" xmlns="http://www.w3.org/2000/svg">
<path fill-rule="evenodd" clip-rule="evenodd" d="M10.55 2.79736C10.0623 2.79736 9.61407 2.86843 9.31522 2.9814L9.31365 2.98199L4.3347 4.8516C3.93622 5.00204 3.53209 5.33401 3.22491 5.77941C2.91767 6.22491 2.75 6.7217 2.75 7.14986V14.5599C2.75 14.9971 2.89926 15.5615 3.17359 16.1112C3.44804 16.6613 3.80849 17.1181 4.15796 17.3783L4.15911 17.3792L8.43592 20.5768L8.43727 20.5778C8.99631 20.9906 9.76182 21.2174 10.5588 21.2174C11.3561 21.2174 12.1181 20.9905 12.6711 20.579L12.672 20.5783L15.4455 18.4999H11.74C10.5686 18.4999 9.54146 18.3704 8.86172 17.7022C8.17847 17.0305 8.04499 16.0113 8.04 14.8631L8.03999 14.8598V9.42986C8.03999 8.37252 8.14681 7.43622 8.67254 6.77018L8.68773 6.75116C9.24615 6.04911 10.1103 5.83443 11.0815 5.77144C11.0976 5.77039 11.1138 5.76987 11.13 5.76987C11.2121 5.76987 11.2977 5.76776 11.3985 5.76527H11.3985L11.4053 5.7651C11.506 5.76262 11.6196 5.75989 11.74 5.75989H17.856C17.5587 5.34259 17.1621 5.00598 16.7549 4.85146L11.7848 2.9814C11.4859 2.86843 11.0377 2.79736 10.55 2.79736ZM19.5672 5.77143C19.1467 4.75751 18.3046 3.83461 17.2858 3.44852L12.3147 1.57813C11.7937 1.38125 11.1521 1.29736 10.55 1.29736C9.94805 1.29736 9.30664 1.38121 8.78565 1.578L3.80636 3.44773L3.80532 3.44812C3.06395 3.72776 2.4328 4.28589 1.9901 4.92781C1.54733 5.56981 1.25 6.35801 1.25 7.14986V14.5599C1.25 15.2927 1.48574 16.0883 1.83141 16.781C2.17686 17.4733 2.67121 18.1412 3.26149 18.581L7.54091 21.7805L7.54409 21.7829C8.40493 22.4194 9.49883 22.7174 10.5588 22.7174C11.6185 22.7174 12.7111 22.4195 13.5679 21.7814L13.5698 21.78L17.8398 18.58C17.8565 18.5675 17.8727 18.5543 17.8883 18.5404C17.9069 18.5238 17.926 18.5075 17.9468 18.4899H19.06C20.2079 18.4899 21.2214 18.3708 21.901 17.7352C22.5955 17.0857 22.7399 16.0925 22.75 14.9766V11.2199V9.41989C22.75 8.26293 22.6208 7.23978 21.9385 6.5653C21.3597 5.99302 20.5258 5.81454 19.5672 5.77143ZM9.85793 7.68963C10.0025 7.51367 10.2998 7.34249 11.1435 7.28983C11.2369 7.28948 11.3307 7.28716 11.4181 7.28499L11.4323 7.28464C11.534 7.28212 11.6304 7.27986 11.73 7.27986H19.03C19.0864 7.27986 19.1421 7.27351 19.196 7.26126C20.2733 7.27827 20.6879 7.43814 20.8839 7.63198C21.0842 7.83 21.25 8.25685 21.25 9.41989V10.4699H9.55V9.40988C9.55 8.36721 9.68189 7.91482 9.85793 7.68963ZM9.55 11.9699V14.8399C9.55 15.9974 9.71559 16.4246 9.91605 16.6228C10.1196 16.824 10.5607 16.9899 11.74 16.9899H19.06C20.2221 16.9899 20.6686 16.834 20.8765 16.6396C21.0693 16.4592 21.2397 16.068 21.25 14.9665V11.9699H9.55ZM10.57 15.2599C10.57 14.8457 10.9058 14.5099 11.32 14.5099H12.65C13.0642 14.5099 13.4 14.8457 13.4 15.2599C13.4 15.6741 13.0642 16.0099 12.65 16.0099H11.32C10.9058 16.0099 10.57 15.6741 10.57 15.2599ZM14.75 14.5099C14.3358 14.5099 14 14.8457 14 15.2599C14 15.6741 14.3358 16.0099 14.75 16.0099H18.02C18.4342 16.0099 18.77 15.6741 18.77 15.2599C18.77 14.8457 18.4342 14.5099 18.02 14.5099H14.75Z" fill="#424B5A"/>
</svg>
