<svg width="24" height="24" viewBox="0 0 24 24" fill="none" xmlns="http://www.w3.org/2000/svg">
<path fill-rule="evenodd" clip-rule="evenodd" d="M4.95057 9.12404C4.25334 7.732 3.90206 6.59943 3.82019 5.74076C3.73801 4.87894 3.9322 4.39586 4.18906 4.13899C4.44592 3.88213 4.92901 3.68795 5.79082 3.77012C6.6495 3.852 7.78254 4.20351 9.17457 4.90074L17.7346 9.18074C19.5458 10.0864 20.2 11.1514 20.2 11.9999C20.2 12.8484 19.5458 13.9135 17.7346 14.8191L9.17457 19.0991C7.77986 19.7965 6.64593 20.1478 5.78664 20.2297C4.92414 20.3119 4.44173 20.1176 4.18566 19.8612C3.92951 19.6047 3.73583 19.1219 3.81873 18.2597C3.90129 17.4009 4.25348 16.2677 4.95057 14.8758L5.82002 13.1469L5.8208 13.1453C5.88355 13.0198 5.93253 12.8864 5.96961 12.7499H10.84C11.2542 12.7499 11.59 12.4141 11.59 11.9999C11.59 11.5857 11.2542 11.2499 10.84 11.2499H5.96688C5.93013 11.1169 5.88201 10.9869 5.8208 10.8645L4.95057 9.12404ZM5.9332 2.27689C7.04416 2.38283 8.36277 2.81652 9.84565 3.55922L18.4054 7.83909C20.4342 8.85348 21.7 10.3184 21.7 11.9999C21.7 13.6814 20.4342 15.1464 18.4054 16.1607L9.84539 20.4407C8.3601 21.1834 7.04029 21.617 5.92895 21.7229C4.82082 21.8286 3.81573 21.6135 3.1243 20.9211C2.43295 20.2289 2.21913 19.2236 2.32561 18.1161C2.43241 17.0053 2.8667 15.6868 3.60939 14.204L4.47946 12.4739C4.52279 12.3868 4.56498 12.2179 4.56498 12.0049C4.56498 11.7914 4.5226 11.6222 4.47916 11.5353L3.60916 9.79532C2.86653 8.31255 2.43289 6.99403 2.32696 5.88314C2.22132 4.77526 2.43651 3.77022 3.1284 3.07833C3.82029 2.38645 4.82533 2.17126 5.9332 2.27689Z" fill="#424B5A"/>
</svg>
