<svg width="24" height="24" viewBox="0 0 24 24" fill="none" xmlns="http://www.w3.org/2000/svg">
<path fill-rule="evenodd" clip-rule="evenodd" d="M16.1272 4.20132C17.9165 3.60487 19.0287 3.88209 19.5705 4.42474C20.1132 4.96827 20.3896 6.08478 19.7979 7.87431L16.9684 16.363C16.5094 17.7423 15.9948 18.7181 15.486 19.3341C14.9753 19.9527 14.5398 20.1323 14.22 20.1323C13.9002 20.1323 13.4647 19.9527 12.9539 19.3341C12.4452 18.7181 11.9305 17.742 11.4715 16.3626L10.718 14.1022L14.2211 10.5894C14.5135 10.2961 14.5129 9.82122 14.2196 9.52873C13.9263 9.23625 13.4514 9.23691 13.1589 9.53021L9.57892 13.1202C9.56525 13.1339 9.55221 13.148 9.53982 13.1625L7.63679 12.5282C6.25725 12.0691 5.28141 11.555 4.66528 11.047C4.04668 10.5368 3.86749 10.1023 3.86749 9.78355C3.86749 9.46459 4.04692 9.0293 4.66589 8.51778C5.28219 8.00847 6.25856 7.4925 7.63791 7.03107L16.1272 4.20132ZM21.2221 8.34529C21.8901 6.32528 21.7617 4.49626 20.632 3.36487C19.5013 2.23252 17.6735 2.10474 15.6528 2.77829L7.16208 5.60854C5.68667 6.10206 4.52148 6.6912 3.71035 7.36152C2.90182 8.02968 2.36749 8.84877 2.36749 9.78355C2.36749 10.7186 2.90206 11.5372 3.71095 12.2042C4.52226 12.8733 5.68791 13.4605 7.1632 13.9514L9.32706 14.6727L10.0485 16.837C10.5395 18.3125 11.1273 19.4779 11.7973 20.2892C12.4653 21.0982 13.2848 21.6323 14.22 21.6323C15.1552 21.6323 15.9747 21.0982 16.6427 20.2892C17.3127 19.4779 17.9006 18.3121 18.3916 16.8366L21.2215 8.34697L21.2221 8.34529Z" fill="#424B5A"/>
</svg>
