<svg width="24" height="24" viewBox="0 0 24 24" fill="none" xmlns="http://www.w3.org/2000/svg">
<path fill-rule="evenodd" clip-rule="evenodd" d="M9 1.25C6.42603 1.25 4.42914 1.7602 3.09467 3.09467C1.7602 4.42914 1.25 6.42603 1.25 9V15C1.25 17.574 1.7602 19.5709 3.09467 20.9053C4.42914 22.2398 6.42603 22.75 9 22.75H15C17.574 22.75 19.5709 22.2398 20.9053 20.9053C22.2398 19.5709 22.75 17.574 22.75 15V9C22.75 6.42603 22.2398 4.42914 20.9053 3.09467C19.5709 1.7602 17.574 1.25 15 1.25H9ZM2.75 9C2.75 6.57397 3.2398 5.07086 4.15533 4.15533C5.07086 3.2398 6.57397 2.75 9 2.75H15C17.426 2.75 18.9291 3.2398 19.8447 4.15533C20.7602 5.07086 21.25 6.57397 21.25 9V15C21.25 17.426 20.7602 18.9291 19.8447 19.8447C18.9291 20.7602 17.426 21.25 15 21.25H9C6.57397 21.25 5.07086 20.7602 4.15533 19.8447C3.2398 18.9291 2.75 17.426 2.75 15V9ZM10.59 6.92999C10.1758 6.92999 9.84 7.26578 9.84 7.67999C9.84 8.09421 10.1758 8.42999 10.59 8.42999H13.0193L8.63967 12.8097C8.34678 13.1026 8.34678 13.5774 8.63967 13.8703C8.93256 14.1632 9.40744 14.1632 9.70033 13.8703L14.08 9.49065V11.93C14.08 12.3442 14.4158 12.68 14.83 12.68C15.2442 12.68 15.58 12.3442 15.58 11.93V7.67999C15.58 7.5783 15.5598 7.48133 15.5231 7.3929C15.4865 7.30445 15.4322 7.22157 15.3603 7.14966C15.2884 7.07775 15.2055 7.0235 15.1171 6.9869C15.0287 6.95023 14.9317 6.92999 14.83 6.92999H10.59ZM6.23772 15.7987C5.84486 15.6674 5.41996 15.8794 5.28867 16.2723C5.15738 16.6651 5.36942 17.09 5.76228 17.2213C9.80657 18.5729 14.1934 18.5729 18.2377 17.2213C18.6306 17.09 18.8426 16.6651 18.7113 16.2723C18.58 15.8794 18.1551 15.6674 17.7623 15.7987C14.0266 17.0471 9.97343 17.0471 6.23772 15.7987Z" fill="#424B5A"/>
</svg>
