<svg width="24" height="24" viewBox="0 0 24 24" fill="none" xmlns="http://www.w3.org/2000/svg">
<path fill-rule="evenodd" clip-rule="evenodd" d="M8.35347 3.43444C8.77209 3.18539 9.3358 3.32411 9.60347 3.77006L9.70933 3.95289L9.71021 3.95443C10.2402 4.87813 11.0439 5.50739 12.0012 5.50739C12.958 5.50739 13.7642 4.87847 14.2991 3.95567L14.4065 3.77006C14.6742 3.32411 15.2379 3.18548 15.6565 3.43454L17.3979 4.43107C17.9451 4.74379 18.1336 5.45246 17.8208 5.99433C17.286 6.91731 17.1423 7.92886 17.6202 8.75811C18.0981 9.58741 19.0452 9.96989 20.11 9.96989C20.7384 9.96989 21.26 10.4867 21.26 11.1199V12.8799C21.26 13.5082 20.7432 14.0299 20.11 14.0299C19.0452 14.0299 18.0981 14.4124 17.6202 15.2417C17.1426 16.0704 17.2858 17.0812 17.8198 18.0037C18.1351 18.5577 17.9434 19.257 17.3975 19.5689L15.6674 20.5588L15.6565 20.5653C15.2379 20.8144 14.6742 20.6757 14.4065 20.2297L14.3007 20.0469L14.3 20.0456C13.77 19.1218 12.9662 18.4924 12.0087 18.4924C11.052 18.4924 10.2458 19.1213 9.71093 20.0441L9.60345 20.2298C9.33578 20.6757 8.77214 20.8143 8.35352 20.5652L6.6121 19.5687C6.06491 19.256 5.87642 18.5475 6.18909 18.0056C6.72398 17.0826 6.86773 16.071 6.38982 15.2417C5.91192 14.4124 4.96479 14.0299 3.9 14.0299C3.26678 14.0299 2.75 13.5082 2.75 12.8799V11.1199C2.75 10.4915 3.26678 9.96989 3.9 9.96989C4.96479 9.96989 5.91192 9.58741 6.38982 8.75811C6.86771 7.92884 6.72399 6.91727 6.18916 5.99426C5.87639 5.45241 6.06528 4.74354 6.61251 4.43084L8.34256 3.44093L8.35347 3.43444ZM6.18916 5.99426C6.18907 5.9941 6.18897 5.99395 6.18888 5.99379L5.54 6.36989L6.1894 5.99468C6.18932 5.99454 6.18924 5.9944 6.18916 5.99426ZM10.8946 3.00642C10.2226 1.87692 8.75191 1.45644 7.59248 2.1418L5.86749 3.12894C4.59518 3.85627 4.16378 5.48714 4.8906 6.7451L4.89112 6.74599C5.26606 7.39286 5.20721 7.80608 5.09018 8.00917C4.97308 8.21237 4.64521 8.46989 3.9 8.46989C2.43322 8.46989 1.25 9.66824 1.25 11.1199V12.8799C1.25 14.3315 2.43322 15.5299 3.9 15.5299C4.64521 15.5299 4.97308 15.7874 5.09018 15.9906C5.20721 16.1937 5.26606 16.6069 4.89112 17.2538L4.8906 17.2547C4.16378 18.5126 4.59558 20.1437 5.8679 20.8711L7.59257 21.858C8.75199 22.5433 10.2226 22.1229 10.8946 20.9934L11.0091 20.7957C11.3841 20.1487 11.773 19.9924 12.0087 19.9924C12.2434 19.9924 12.6293 20.1474 12.9993 20.7929L13.0009 20.7957L13.1109 20.9857L13.1154 20.9934C13.7874 22.1228 15.258 22.5433 16.4174 21.858L18.1425 20.8708C19.4157 20.143 19.8444 18.5234 19.1212 17.2578L19.1189 17.2538C18.7439 16.6069 18.8028 16.1937 18.9198 15.9906C19.0369 15.7874 19.3648 15.5299 20.11 15.5299C21.5768 15.5299 22.76 14.3315 22.76 12.8799V11.1199C22.76 9.65311 21.5616 8.46989 20.11 8.46989C19.3648 8.46989 19.0369 8.21237 18.9198 8.00916C18.8028 7.80608 18.7439 7.39286 19.1189 6.74599L19.1194 6.7451C19.8463 5.48701 19.4147 3.85592 18.1421 3.12871L16.4175 2.14181C15.2581 1.45644 13.7874 1.87688 13.1154 3.00639L13.0009 3.20411C12.6259 3.85103 12.237 4.00739 12.0012 4.00739C11.7666 4.00739 11.3807 3.85235 11.0107 3.20689L11.0091 3.20411L10.8991 3.01409L10.8946 3.00642ZM9.75 11.9999C9.75 10.7572 10.7574 9.74989 12 9.74989C13.2426 9.74989 14.25 10.7572 14.25 11.9999C14.25 13.2425 13.2426 14.2499 12 14.2499C10.7574 14.2499 9.75 13.2425 9.75 11.9999ZM12 8.24989C9.92893 8.24989 8.25 9.92882 8.25 11.9999C8.25 14.071 9.92893 15.7499 12 15.7499C14.0711 15.7499 15.75 14.071 15.75 11.9999C15.75 9.92882 14.0711 8.24989 12 8.24989Z" fill="#424B5A"/>
</svg>
