<svg width="24" height="24" viewBox="0 0 24 24" fill="none" xmlns="http://www.w3.org/2000/svg">
<path fill-rule="evenodd" clip-rule="evenodd" d="M10 3.75C8.48122 3.75 7.25 4.98122 7.25 6.5C7.25 8.01878 8.48122 9.25 10 9.25C11.5188 9.25 12.75 8.01878 12.75 6.5C12.75 4.98122 11.5188 3.75 10 3.75ZM2 7.25H5.81597C6.1702 9.23951 7.9087 10.75 10 10.75C12.3472 10.75 14.25 8.84721 14.25 6.5C14.25 4.15279 12.3472 2.25 10 2.25C7.9087 2.25 6.1702 3.76049 5.81597 5.75H2C1.58579 5.75 1.25 6.08579 1.25 6.5C1.25 6.91421 1.58579 7.25 2 7.25ZM16 5.75C15.5858 5.75 15.25 6.08579 15.25 6.5C15.25 6.91421 15.5858 7.25 16 7.25H22C22.4142 7.25 22.75 6.91421 22.75 6.5C22.75 6.08579 22.4142 5.75 22 5.75H16ZM18.184 18.25C17.8298 20.2395 16.0913 21.75 14 21.75C11.6528 21.75 9.75 19.8472 9.75 17.5C9.75 15.1528 11.6528 13.25 14 13.25C16.0913 13.25 17.8298 14.7605 18.184 16.75H22C22.4142 16.75 22.75 17.0858 22.75 17.5C22.75 17.9142 22.4142 18.25 22 18.25H18.184ZM1.25 17.5C1.25 17.0858 1.58579 16.75 2 16.75H8C8.41421 16.75 8.75 17.0858 8.75 17.5C8.75 17.9142 8.41421 18.25 8 18.25H2C1.58579 18.25 1.25 17.9142 1.25 17.5ZM11.25 17.5C11.25 15.9812 12.4812 14.75 14 14.75C15.5188 14.75 16.75 15.9812 16.75 17.5C16.75 19.0188 15.5188 20.25 14 20.25C12.4812 20.25 11.25 19.0188 11.25 17.5Z" fill="#424B5A"/>
</svg>
