<svg width="24" height="24" viewBox="0 0 24 24" fill="none" xmlns="http://www.w3.org/2000/svg">
<path fill-rule="evenodd" clip-rule="evenodd" d="M19 1.25C19.4142 1.25 19.75 1.58579 19.75 2V7C19.75 7.41421 19.4142 7.75 19 7.75C18.5858 7.75 18.25 7.41421 18.25 7V2C18.25 1.58579 18.5858 1.25 19 1.25ZM21 10.25H19H17C16.5858 10.25 16.25 10.5858 16.25 11C16.25 11.4142 16.5858 11.75 17 11.75H18.25V22C18.25 22.4142 18.5858 22.75 19 22.75C19.4142 22.75 19.75 22.4142 19.75 22V11.75H21C21.4142 11.75 21.75 11.4142 21.75 11C21.75 10.5858 21.4142 10.25 21 10.25ZM12.75 17C12.75 16.5858 12.4142 16.25 12 16.25C11.5858 16.25 11.25 16.5858 11.25 17V22C11.25 22.4142 11.5858 22.75 12 22.75C12.4142 22.75 12.75 22.4142 12.75 22V17ZM12 1.25C12.4142 1.25 12.75 1.58579 12.75 2V12.25H14C14.4142 12.25 14.75 12.5858 14.75 13C14.75 13.4142 14.4142 13.75 14 13.75H12H10C9.58579 13.75 9.25 13.4142 9.25 13C9.25 12.5858 9.58579 12.25 10 12.25H11.25V2C11.25 1.58579 11.5858 1.25 12 1.25ZM4.25 11.75H3C2.58579 11.75 2.25 11.4142 2.25 11C2.25 10.5858 2.58579 10.25 3 10.25H5H7C7.41421 10.25 7.75 10.5858 7.75 11C7.75 11.4142 7.41421 11.75 7 11.75H5.75V22C5.75 22.4142 5.41421 22.75 5 22.75C4.58579 22.75 4.25 22.4142 4.25 22V11.75ZM5 1.25C5.41421 1.25 5.75 1.58579 5.75 2V7C5.75 7.41421 5.41421 7.75 5 7.75C4.58579 7.75 4.25 7.41421 4.25 7V2C4.25 1.58579 4.58579 1.25 5 1.25Z" fill="#424B5A"/>
</svg>
