<svg width="24" height="24" viewBox="0 0 24 24" fill="none" xmlns="http://www.w3.org/2000/svg">
<path fill-rule="evenodd" clip-rule="evenodd" d="M9.75 5.5C9.75 4.90484 9.92258 4.63885 10.0772 4.50556C10.2526 4.35438 10.5485 4.25 11 4.25H17C17.4515 4.25 17.7474 4.35438 17.9228 4.50556C18.0774 4.63885 18.25 4.90484 18.25 5.5V6.5V7.5C18.25 8.09516 18.0774 8.36115 17.9228 8.49444C17.7474 8.64562 17.4515 8.75 17 8.75H11C10.5485 8.75 10.2526 8.64562 10.0772 8.49444C9.92258 8.36115 9.75 8.09516 9.75 7.5V6.5V5.5ZM8.25 5.75H2C1.58579 5.75 1.25 6.08579 1.25 6.5C1.25 6.91421 1.58579 7.25 2 7.25H8.25V7.5C8.25 8.40484 8.52742 9.13885 9.0978 9.63056C9.64743 10.1044 10.3515 10.25 11 10.25H17C17.6485 10.25 18.3526 10.1044 18.9022 9.63056C19.4726 9.13885 19.75 8.40484 19.75 7.5V7.25H22C22.4142 7.25 22.75 6.91421 22.75 6.5C22.75 6.08579 22.4142 5.75 22 5.75H19.75V5.5C19.75 4.59516 19.4726 3.86115 18.9022 3.36944C18.3526 2.89562 17.6485 2.75 17 2.75H11C10.3515 2.75 9.64743 2.89562 9.0978 3.36944C8.52742 3.86115 8.25 4.59516 8.25 5.5V5.75ZM2 16.75C1.58579 16.75 1.25 17.0858 1.25 17.5C1.25 17.9142 1.58579 18.25 2 18.25H4.25V18.5C4.25 19.4048 4.52742 20.1389 5.0978 20.6306C5.64743 21.1044 6.35147 21.25 7 21.25H13C13.6485 21.25 14.3526 21.1044 14.9022 20.6306C15.4726 20.1389 15.75 19.4048 15.75 18.5V18.25H22C22.4142 18.25 22.75 17.9142 22.75 17.5C22.75 17.0858 22.4142 16.75 22 16.75H15.75V16.5C15.75 15.5952 15.4726 14.8611 14.9022 14.3694C14.3526 13.8956 13.6485 13.75 13 13.75H7C6.35147 13.75 5.64743 13.8956 5.0978 14.3694C4.52742 14.8611 4.25 15.5952 4.25 16.5V16.75H2ZM14.25 16.5V17.5V18.5C14.25 19.0952 14.0774 19.3611 13.9228 19.4944C13.7474 19.6456 13.4515 19.75 13 19.75H7C6.54853 19.75 6.25257 19.6456 6.0772 19.4944C5.92258 19.3611 5.75 19.0952 5.75 18.5V17.5V16.5C5.75 15.9048 5.92258 15.6389 6.0772 15.5056C6.25257 15.3544 6.54853 15.25 7 15.25H13C13.4515 15.25 13.7474 15.3544 13.9228 15.5056C14.0774 15.6389 14.25 15.9048 14.25 16.5Z" fill="#424B5A"/>
</svg>
