<svg width="24" height="24" viewBox="0 0 24 24" fill="none" xmlns="http://www.w3.org/2000/svg">
<path fill-rule="evenodd" clip-rule="evenodd" d="M13.8789 1.82285L13.877 1.82172C13.3242 1.49877 12.643 1.36011 12.0038 1.36011C11.3633 1.36011 10.6806 1.49928 10.1245 1.82086L4.6246 5.00082C4.60955 5.00952 4.59481 5.01875 4.5804 5.02847L4.55615 5.04484L4.55614 5.04485C4.07675 5.36842 3.68185 5.63497 3.37802 5.87567C3.06413 6.12435 2.79365 6.38593 2.60068 6.71977C2.40337 7.06112 2.32213 7.41665 2.28485 7.79578C2.24997 8.15054 2.24998 8.57752 2.25 9.07566V9.0757V14.9144V14.9145C2.24998 15.4152 2.24997 15.8439 2.28482 16.1999C2.32204 16.58 2.4031 16.9364 2.60021 17.2784C2.79314 17.6131 3.06369 17.8752 3.37782 18.1242C3.68174 18.3652 4.07673 18.6318 4.55605 18.9553L4.5804 18.9717C4.59481 18.9815 4.60955 18.9907 4.6246 18.9994L10.1245 22.1794C10.6806 22.501 11.3633 22.6401 12.0038 22.6401C12.643 22.6401 13.3243 22.5014 13.8771 22.1784L13.8789 22.1774L19.3754 18.9994C19.3905 18.9907 19.4052 18.9815 19.4196 18.9717L19.4439 18.9554C19.9233 18.6318 20.3182 18.3652 20.622 18.1245C20.9359 17.8759 21.2064 17.6143 21.3993 17.2804C21.5966 16.9391 21.6779 16.5836 21.7152 16.2044C21.75 15.8497 21.75 15.4227 21.75 14.9245V9.07569C21.75 8.57754 21.75 8.15055 21.7152 7.79578C21.6779 7.41665 21.5966 7.06112 21.3993 6.71977C21.2064 6.38593 20.9359 6.12435 20.622 5.87567C20.3182 5.63497 19.9233 5.36842 19.4439 5.04484L19.4196 5.02847C19.4052 5.01875 19.3905 5.00952 19.3754 5.00082L13.8789 1.82285ZM10.8755 3.11936C11.1494 2.96096 11.5567 2.86011 12.0038 2.86011C12.4513 2.86011 12.8542 2.96113 13.1211 3.11738L18.602 6.28634C19.0999 6.62243 19.4406 6.85339 19.6905 7.05142C19.9391 7.24837 20.0436 7.37179 20.1007 7.47044C20.1534 7.5616 20.1971 7.68606 20.2224 7.94256C20.2492 8.21527 20.25 8.56804 20.25 9.11011V14.8901C20.25 15.4322 20.2492 15.7849 20.2224 16.0577C20.1971 16.3142 20.1534 16.4386 20.1007 16.5298C20.0436 16.6284 19.9391 16.7518 19.6905 16.9488C19.4406 17.1468 19.0999 17.3778 18.602 17.7139L13.1246 20.8808L13.1211 20.8828C12.8542 21.0391 12.4513 21.1401 12.0038 21.1401C11.5567 21.1401 11.1493 21.0392 10.8754 20.8808L5.39799 17.7139C4.90008 17.3778 4.55953 17.1469 4.30968 16.9488C4.06131 16.7519 3.95687 16.6284 3.8998 16.5293C3.8469 16.4376 3.80297 16.312 3.77768 16.0538C3.75083 15.7794 3.75 15.4246 3.75 14.8801V9.11011C3.75 8.56804 3.75084 8.21527 3.77765 7.94256C3.80287 7.68606 3.84664 7.5616 3.89933 7.47044C3.95636 7.37179 4.06088 7.24837 4.30948 7.05142C4.55945 6.85339 4.90011 6.62243 5.39799 6.28634L10.8755 3.11936ZM9.75 12.0001C9.75 10.7575 10.7574 9.75011 12 9.75011C13.2426 9.75011 14.25 10.7575 14.25 12.0001C14.25 13.2427 13.2426 14.2501 12 14.2501C10.7574 14.2501 9.75 13.2427 9.75 12.0001ZM12 8.25011C9.92894 8.25011 8.25 9.92904 8.25 12.0001C8.25 14.0712 9.92894 15.7501 12 15.7501C14.0711 15.7501 15.75 14.0712 15.75 12.0001C15.75 9.92904 14.0711 8.25011 12 8.25011Z" fill="#424B5A"/>
</svg>
