<svg width="24" height="24" viewBox="0 0 24 24" fill="none" xmlns="http://www.w3.org/2000/svg">
<path fill-rule="evenodd" clip-rule="evenodd" d="M16.2816 7.68842C15.2595 6.66634 13.7607 6.27336 11.8918 6.25102C12.4365 4.22956 14.2773 2.75 16.47 2.75C18.8793 2.75 20.8642 4.53652 21.1662 6.86642C21.1676 6.87715 21.1692 6.88785 21.1711 6.89851C21.2029 7.0816 21.22 7.28829 21.22 7.5C21.22 9.69266 19.7404 11.5335 17.719 12.0782C17.6966 10.2093 17.3036 8.7105 16.2816 7.68842ZM17.72 13.6182C20.5784 13.0421 22.72 10.525 22.72 7.5C22.72 7.21735 22.6979 6.92987 22.6517 6.65776C22.2468 3.5954 19.6352 1.25 16.47 1.25C13.445 1.25 10.9279 3.39159 10.3518 6.25H7.21997C5.271 6.25 3.71161 6.6352 2.65839 7.68842C1.60517 8.74164 1.21997 10.301 1.21997 12.25V16.75C1.21997 18.699 1.60517 20.2584 2.65839 21.3116C3.71161 22.3648 5.271 22.75 7.21997 22.75H11.72C13.6689 22.75 15.2283 22.3648 16.2816 21.3116C17.3348 20.2584 17.72 18.699 17.72 16.75V13.6182ZM11 7.75H7.21997C5.41894 7.75 4.35333 8.1148 3.71905 8.74908C3.08477 9.38336 2.71997 10.449 2.71997 12.25V16.75C2.71997 18.551 3.08477 19.6166 3.71905 20.2509C4.35333 20.8852 5.41894 21.25 7.21997 21.25H11.72C13.521 21.25 14.5866 20.8852 15.2209 20.2509C15.8552 19.6166 16.22 18.551 16.22 16.75V12.97V12.25C16.22 10.449 15.8552 9.38336 15.2209 8.74908C14.5866 8.1148 13.521 7.75 11.72 7.75H11Z" fill="#424B5A"/>
</svg>
