<svg width="24" height="24" viewBox="0 0 24 24" fill="none" xmlns="http://www.w3.org/2000/svg">
<path fill-rule="evenodd" clip-rule="evenodd" d="M2.95727 11.8112L7.46672 3.60214C8.09177 2.46973 9.72853 2.46944 10.3533 3.60221L12.5433 7.57221L14.8726 11.8111L14.8728 11.8114C14.8728 11.8114 14.8728 11.8114 14.8728 11.8114C15.2011 12.4083 15.1161 13.0766 14.7692 13.5625C14.4777 13.9706 14.0014 14.2499 13.43 14.2499H9.01998C9.01853 14.2499 9.01708 14.2499 9.01563 14.25H4.39998C3.14831 14.25 2.35321 12.9095 2.95727 11.8112ZM8.25421 15.75H4.39998C2.01174 15.75 0.487129 13.1902 1.64282 11.0885L6.15324 2.87774C7.34841 0.710676 10.4716 0.710676 11.6667 2.87774L13.8572 6.84864L14.6537 8.298C14.9318 8.26583 15.2147 8.24994 15.5 8.24994C19.5042 8.24994 22.75 11.4957 22.75 15.4999C22.75 19.5042 19.5042 22.7499 15.5 22.7499C11.5794 22.7499 8.38597 19.6384 8.25421 15.75ZM9.75532 15.75C9.8862 18.8097 12.408 21.2499 15.5 21.2499C18.6758 21.2499 21.25 18.6757 21.25 15.4999C21.25 12.3242 18.6758 9.74994 15.5 9.74994L15.4519 9.75013L16.1871 11.0885L16.1873 11.0888C16.1873 11.0888 16.1873 11.0888 16.1873 11.0889C16.829 12.2559 16.6442 13.5641 15.944 14.4968C15.3833 15.2438 14.492 15.75 13.43 15.75H9.75532Z" fill="#424B5A"/>
</svg>
