<svg width="24" height="24" viewBox="0 0 24 24" fill="none" xmlns="http://www.w3.org/2000/svg">
<path fill-rule="evenodd" clip-rule="evenodd" d="M16.78 2.88965C15.6589 2.88965 14.75 3.79851 14.75 4.91965C14.75 6.04079 15.6589 6.94965 16.78 6.94965C17.9011 6.94965 18.81 6.04079 18.81 4.91965C18.81 3.79851 17.9011 2.88965 16.78 2.88965ZM13.25 4.91965C13.25 2.97008 14.8304 1.38965 16.78 1.38965C18.7296 1.38965 20.31 2.97008 20.31 4.91965C20.31 6.86921 18.7296 8.44965 16.78 8.44965C15.9017 8.44965 15.0984 8.12891 14.4807 7.59818L14.3354 7.67082L8.33541 10.6708L8.20338 10.7368C8.30522 11.0665 8.36005 11.4169 8.36005 11.78C8.36005 11.9639 8.34598 12.1446 8.31887 12.3209L8.33541 12.3292L14.1808 15.2519C14.8259 14.5501 15.7516 14.1104 16.78 14.1104C18.7296 14.1104 20.31 15.6908 20.31 17.6404C20.31 19.5899 18.7296 21.1704 16.78 21.1704C14.8304 21.1704 13.25 19.5899 13.25 17.6404C13.25 17.2596 13.3103 16.893 13.4218 16.5494L7.7755 13.7263C7.14362 14.6806 6.06033 15.31 4.83005 15.31C2.88048 15.31 1.30005 13.7296 1.30005 11.78C1.30005 9.83043 2.88048 8.25 4.83005 8.25C5.87692 8.25 6.81735 8.70571 7.4638 9.42957L7.66459 9.32918L13.5649 6.37905C13.3626 5.93425 13.25 5.4401 13.25 4.91965ZM4.83005 9.75C3.70891 9.75 2.80005 10.6589 2.80005 11.78C2.80005 12.9011 3.70891 13.81 4.83005 13.81C5.95119 13.81 6.86005 12.9011 6.86005 11.78C6.86005 10.6589 5.95119 9.75 4.83005 9.75ZM14.75 17.6404C14.75 16.5192 15.6589 15.6104 16.78 15.6104C17.9011 15.6104 18.81 16.5192 18.81 17.6404C18.81 18.7615 17.9011 19.6704 16.78 19.6704C15.6589 19.6704 14.75 18.7615 14.75 17.6404Z" fill="#424B5A"/>
</svg>
