<svg width="24" height="24" viewBox="0 0 24 24" fill="none" xmlns="http://www.w3.org/2000/svg">
<path fill-rule="evenodd" clip-rule="evenodd" d="M12 1.24707C12.605 1.24707 13.2479 1.33109 13.7724 1.52698L18.7626 3.39707C19.5096 3.67641 20.1463 4.23717 20.593 4.88288C21.0398 5.52873 21.34 6.32224 21.34 7.11957V10.5496C21.34 10.9638 21.0042 11.2996 20.59 11.2996C20.1758 11.2996 19.84 10.9638 19.84 10.5496V7.11957C19.84 6.6869 19.6701 6.18541 19.3594 5.73626C19.0486 5.28701 18.6403 4.95275 18.2373 4.80207L13.2476 2.93216C12.942 2.81812 12.4898 2.74707 12 2.74707C11.7861 2.74707 11.5794 2.7606 11.389 2.78534C11.1437 2.81721 10.9253 2.86768 10.7533 2.93181L10.7524 2.93216L5.76265 4.81207C5.35955 4.9628 4.951 5.29722 4.64006 5.74567C4.32903 6.19426 4.15997 6.69302 4.15997 7.11957V14.5496C4.15997 14.9906 4.31108 15.5568 4.58874 16.1088C4.86618 16.6604 5.23173 17.1217 5.58863 17.3886L9.89813 20.6057C10.4401 21.0238 11.1984 21.2496 12 21.2496C12.4142 21.2496 12.75 21.5854 12.75 21.9996C12.75 22.4138 12.4142 22.7496 12 22.7496C10.9436 22.7496 9.84418 22.4565 8.98689 21.7973L4.69132 18.5906C4.09832 18.1474 3.59868 17.4786 3.24871 16.7828C2.89887 16.0873 2.65997 15.2885 2.65997 14.5496V7.11957C2.65997 6.32612 2.96092 5.53488 3.40738 4.89097C3.85376 4.24719 4.48986 3.68682 5.23635 3.40743L5.2373 3.40707L10.2256 1.52773L10.2276 1.52698C10.752 1.33109 11.3949 1.24707 12 1.24707ZM16 12.7496C14.205 12.7496 12.75 14.2046 12.75 15.9996C12.75 17.7945 14.205 19.2496 16 19.2496C17.7949 19.2496 19.25 17.7945 19.25 15.9996C19.25 14.2046 17.7949 12.7496 16 12.7496ZM11.25 15.9996C11.25 13.3762 13.3766 11.2496 16 11.2496C18.6233 11.2496 20.75 13.3762 20.75 15.9996C20.75 18.6229 18.6233 20.7496 16 20.7496C13.3766 20.7496 11.25 18.6229 11.25 15.9996ZM20.9955 19.9996C20.4432 19.9996 19.9955 20.4473 19.9955 20.9996C19.9955 21.5519 20.4432 21.9996 20.9955 21.9996H21.0045C21.5568 21.9996 22.0045 21.5519 22.0045 20.9996C22.0045 20.4473 21.5568 19.9996 21.0045 19.9996H20.9955Z" fill="#424B5A"/>
</svg>
