<svg width="24" height="24" viewBox="0 0 24 24" fill="none" xmlns="http://www.w3.org/2000/svg">
<path fill-rule="evenodd" clip-rule="evenodd" d="M12.0025 1.24707C12.6107 1.24707 13.2559 1.33129 13.7869 1.52497L13.7932 1.52724L18.7826 3.39707C19.5296 3.67641 20.1663 4.23717 20.613 4.88288C21.0598 5.52873 21.36 6.32224 21.36 7.11957V14.5496C21.36 15.2885 21.1211 16.0873 20.7712 16.7828C20.4213 17.4786 19.922 18.1471 19.329 18.5903L15.0307 21.7991L15.0294 21.8C14.1717 22.4443 13.0733 22.7446 12.01 22.7446C10.9467 22.7446 9.84834 22.4443 8.99065 21.8001L8.98929 21.7991L4.69132 18.5906C4.09832 18.1474 3.59868 17.4786 3.24871 16.7828C2.89887 16.0873 2.65997 15.2885 2.65997 14.5496V7.11957C2.65997 6.32612 2.96092 5.53488 3.40738 4.89097C3.85376 4.24719 4.48986 3.68682 5.23635 3.40743L5.2373 3.40707L10.2256 1.52773L10.2276 1.52698C10.7522 1.33104 11.3951 1.24707 12.0025 1.24707ZM10.7533 2.93181L10.7524 2.93216L5.76265 4.81207C5.35955 4.9628 4.951 5.29722 4.64006 5.74567C4.32903 6.19426 4.15997 6.69302 4.15997 7.11957V14.5496C4.15997 14.9906 4.31108 15.5568 4.58874 16.1088C4.86618 16.6604 5.23173 17.1217 5.58863 17.3886L9.89066 20.6001C10.4428 21.0151 11.2088 21.2446 12.01 21.2446C12.8112 21.2446 13.5772 21.0151 14.1293 20.6001L14.1313 20.5986L18.431 17.3888C18.788 17.122 19.1537 16.6605 19.4312 16.1088C19.7089 15.5568 19.86 14.9906 19.86 14.5496V7.11957C19.86 6.6869 19.6901 6.18541 19.3794 5.73626C19.0686 5.28701 18.6603 4.95275 18.2573 4.80207L13.2701 2.93313C12.9513 2.81743 12.4927 2.74707 12.0025 2.74707C11.5103 2.74707 11.0587 2.81795 10.7533 2.93181ZM12 9.24957C11.3096 9.24957 10.75 9.80921 10.75 10.4996C10.75 11.1899 11.3096 11.7496 12 11.7496C12.0003 11.7496 12.0006 11.7496 12.0009 11.7496C12.6908 11.7491 13.25 11.1896 13.25 10.4996C13.25 9.80921 12.6903 9.24957 12 9.24957ZM12.75 13.1461C13.9042 12.8196 14.75 11.7583 14.75 10.4996C14.75 8.98079 13.5188 7.74957 12 7.74957C10.4812 7.74957 9.24997 8.98079 9.24997 10.4996C9.24997 11.7583 10.0957 12.8196 11.25 13.1461V15.4996C11.25 15.9138 11.5858 16.2496 12 16.2496C12.4142 16.2496 12.75 15.9138 12.75 15.4996V13.1461Z" fill="#424B5A"/>
</svg>
