<svg width="24" height="24" viewBox="0 0 24 24" fill="none" xmlns="http://www.w3.org/2000/svg">
<path fill-rule="evenodd" clip-rule="evenodd" d="M13.7869 1.52497C13.2559 1.33129 12.6107 1.24707 12.0025 1.24707C11.3951 1.24707 10.7522 1.33104 10.2276 1.52698L10.2256 1.52773L5.2373 3.40707L5.23635 3.40743C4.48986 3.68682 3.85376 4.24719 3.40738 4.89097C2.96092 5.53488 2.65997 6.32612 2.65997 7.11957V14.5496C2.65997 15.2885 2.89887 16.0873 3.24871 16.7828C3.59868 17.4786 4.09832 18.1474 4.69132 18.5906L8.98929 21.7991L8.99065 21.8001C9.84834 22.4443 10.9467 22.7446 12.01 22.7446C13.0733 22.7446 14.1717 22.4443 15.0294 21.8L15.0307 21.7991L19.329 18.5903C19.922 18.1471 20.4213 17.4786 20.7712 16.7828C21.1211 16.0873 21.36 15.2885 21.36 14.5496V7.11957C21.36 6.32224 21.0598 5.52873 20.613 4.88288C20.1663 4.23717 19.5296 3.67641 18.7826 3.39707L13.7932 1.52724L13.7869 1.52497ZM10.7524 2.93216L10.7533 2.93181C11.0587 2.81795 11.5103 2.74707 12.0025 2.74707C12.4927 2.74707 12.9513 2.81743 13.2701 2.93313L18.2573 4.80207C18.6603 4.95275 19.0686 5.28701 19.3794 5.73626C19.6901 6.18541 19.86 6.6869 19.86 7.11957V14.5496C19.86 14.9906 19.7089 15.5568 19.4312 16.1088C19.1537 16.6605 18.788 17.122 18.431 17.3888L14.1313 20.5986L14.1293 20.6001C13.5772 21.0151 12.8112 21.2446 12.01 21.2446C11.2088 21.2446 10.4428 21.0151 9.89066 20.6001L5.58863 17.3886C5.23173 17.1217 4.86618 16.6604 4.58874 16.1088C4.31108 15.5568 4.15997 14.9906 4.15997 14.5496V7.11957C4.15997 6.69302 4.32903 6.19426 4.64006 5.74567C4.951 5.29722 5.35955 4.9628 5.76265 4.81207L10.7524 2.93216ZM15.4903 9.7099C15.7832 9.41701 15.7832 8.94213 15.4903 8.64924C15.1974 8.35635 14.7225 8.35635 14.4296 8.64924L10.66 12.4189L9.5803 11.3392C9.28741 11.0463 8.81254 11.0463 8.51964 11.3392C8.22675 11.6321 8.22675 12.107 8.51964 12.3999L10.1296 14.0099C10.4225 14.3028 10.8974 14.3028 11.1903 14.0099L15.4903 9.7099Z" fill="#424B5A"/>
</svg>
