<svg width="24" height="24" viewBox="0 0 24 24" fill="none" xmlns="http://www.w3.org/2000/svg">
<path fill-rule="evenodd" clip-rule="evenodd" d="M12.01 1.24707C12.6151 1.24707 13.2579 1.33109 13.7824 1.52698L18.7732 3.39727C18.7858 3.40199 18.7983 3.40705 18.8106 3.41245C18.9679 3.48124 19.1297 3.56046 19.288 3.65088L21.4697 1.46924C21.7626 1.17635 22.2374 1.17635 22.5303 1.46924C22.8232 1.76213 22.8232 2.23701 22.5303 2.5299L2.53033 22.5299C2.23744 22.8228 1.76256 22.8228 1.46967 22.5299C1.17678 22.237 1.17678 21.7621 1.46967 21.4692L4.50094 18.438C3.99125 18.0014 3.5606 17.4028 3.24874 16.7828C2.8989 16.0873 2.66 15.2885 2.66 14.5496V7.11957C2.66 6.32612 2.96095 5.53488 3.40741 4.89097C3.85384 4.24711 4.49005 3.68668 5.23666 3.40732L10.236 1.52755L10.2376 1.52698C10.7621 1.33109 11.4049 1.24707 12.01 1.24707ZM5.56687 17.372L18.167 4.77195L13.2576 2.93216C12.9521 2.81812 12.4998 2.74707 12.01 2.74707C11.5205 2.74707 11.0687 2.81793 10.7632 2.93188L5.76267 4.81207C5.35957 4.96279 4.95103 5.29722 4.64009 5.74567C4.32905 6.19426 4.16 6.69302 4.16 7.11957V14.5496C4.16 14.9906 4.3111 15.5568 4.58876 16.1088C4.86056 16.6491 5.21692 17.1029 5.56687 17.372ZM20.6 6.36957C21.0142 6.36957 21.35 6.70536 21.35 7.11957V14.5596C21.35 15.2985 21.1111 16.0973 20.7613 16.7928C20.4113 17.4886 19.912 18.1571 19.319 18.6003L15.0207 21.8091L15.0196 21.8099C14.1619 22.4542 13.0634 22.7546 12 22.7546C10.9365 22.7546 9.8379 22.4542 8.98013 21.8097L8.97932 21.8091L7.3906 20.62C7.05898 20.3718 6.99135 19.9018 7.23955 19.5702C7.48774 19.2386 7.95777 19.1709 8.2894 19.4191L9.88068 20.6101C10.4328 21.0251 11.1988 21.2546 12 21.2546C12.8012 21.2546 13.5672 21.0251 14.1193 20.6101L14.1213 20.6086L18.421 17.3988C18.778 17.132 19.1437 16.6705 19.4212 16.1188C19.6989 15.5668 19.85 15.0006 19.85 14.5596V7.11957C19.85 6.70536 20.1858 6.36957 20.6 6.36957Z" fill="#424B5A"/>
</svg>
