<svg width="24" height="24" viewBox="0 0 24 24" fill="none" xmlns="http://www.w3.org/2000/svg">
<path fill-rule="evenodd" clip-rule="evenodd" d="M10.25 3C10.25 2.86421 10.3642 2.75 10.5 2.75H13.5C13.6358 2.75 13.75 2.86421 13.75 3V4.25H10.25V3ZM8.74998 4.25V3C8.74998 2.03579 9.53576 1.25 10.5 1.25H13.5C14.4642 1.25 15.25 2.03579 15.25 3V4.25H16C18.0642 4.25 19.75 5.93579 19.75 8V11.2929L20.6994 11.674C21.9103 12.1611 22.6409 13.5543 22.3625 14.821L21.9522 16.6824C21.1706 20.2048 18.3725 22.75 14.38 22.75H12.0024L12 22.75L11.9976 22.75H9.61996C5.6274 22.75 2.8293 20.2048 2.04777 16.6824L1.63754 14.8214C1.35916 13.5548 2.08907 12.1614 3.30003 11.6742L4.24998 11.2931V8C4.24998 5.93579 5.93576 4.25 7.99998 4.25H8.74998ZM9.49998 5.75H7.99998C6.76419 5.75 5.74998 6.76421 5.74998 8V10.6911L10.2323 8.89328L10.2339 8.89264L5.74998 8L10.2339 8.89263C11.2291 8.49872 12.3162 8.44948 13.3343 8.74492C13.4798 8.78713 13.6238 8.83637 13.766 8.89264L13.7692 8.89389L13.7692 8.89389L18.25 10.6911V8C18.25 6.76421 17.2358 5.75 16 5.75H14.5H9.49998ZM3.10242 14.4988C2.98099 13.9455 3.33105 13.2787 3.85987 13.0658L10.5402 10.3859L10.7875 10.2868L10.7876 10.2867C10.8364 10.2674 10.8856 10.2493 10.935 10.2324C11.0389 10.1969 11.144 10.1667 11.25 10.1419V21.25H9.61996C6.37272 21.25 4.15078 19.2349 3.51216 16.3575L3.10242 14.4988ZM12.75 21.25V10.1419L12.7653 10.1455C12.9164 10.1817 13.0658 10.2288 13.2124 10.2867L13.2124 10.2868L13.2139 10.2873L13.2139 10.2874L18.7208 12.4961L20.1406 13.066C20.6693 13.2791 21.019 13.9459 20.8975 14.499L20.4878 16.3575C19.8493 19.2351 17.6274 21.25 14.38 21.25H12.75Z" fill="#424B5A"/>
</svg>
