<svg width="24" height="24" viewBox="0 0 24 24" fill="none" xmlns="http://www.w3.org/2000/svg">
<path fill-rule="evenodd" clip-rule="evenodd" d="M9.21785 3.21783C8.93993 3.49575 8.75002 3.92044 8.75002 4.5V5.75H15.25V4.5C15.25 3.92044 15.0601 3.49575 14.7822 3.21783C14.5043 2.93991 14.0796 2.75 13.5 2.75H10.5C9.92045 2.75 9.49576 2.93991 9.21785 3.21783ZM7.25002 8V7.33237C6.44869 7.46425 6.0395 7.73686 5.80184 8.01984C5.43024 8.4623 5.29845 9.11622 5.18525 10.1145L5.18469 10.1194L4.2845 17.6208C4.14307 18.7805 4.27766 19.6639 4.70205 20.2453C5.10048 20.7912 5.89091 21.25 7.51001 21.25H16.5C18.1131 21.25 18.9016 20.7918 19.3005 20.2453C19.7057 19.6902 19.8485 18.8608 19.7427 17.78H8.00002C7.58581 17.78 7.25002 17.4442 7.25002 17.03C7.25002 16.6158 7.58581 16.28 8.00002 16.28H19.5646L18.8252 10.1183C18.7068 9.11887 18.5735 8.46414 18.2 8.0205C17.9613 7.73694 17.5515 7.46425 16.75 7.33237V8C16.75 8.41421 16.4142 8.75 16 8.75C15.5858 8.75 15.25 8.41421 15.25 8V7.25H8.75002V8C8.75002 8.41421 8.41423 8.75 8.00002 8.75C7.58581 8.75 7.25002 8.41421 7.25002 8ZM21.1533 16.9291L20.3147 9.94084C20.2032 9.00045 20.0514 7.8906 19.3475 7.0545C18.7746 6.3739 17.9297 5.96813 16.75 5.81737V4.5C16.75 3.57956 16.4399 2.75425 15.8428 2.15717C15.2458 1.56009 14.4205 1.25 13.5 1.25H10.5C9.57958 1.25 8.75427 1.56009 8.15719 2.15717C7.5601 2.75425 7.25002 3.57956 7.25002 4.5V5.81737C6.0704 5.96814 5.2253 6.37395 4.65319 7.05516C3.9504 7.89197 3.80185 9.00186 3.69507 9.94306L2.79544 17.44C2.63699 18.74 2.73251 20.0913 3.49048 21.1297C4.27454 22.2038 5.61911 22.75 7.51001 22.75H16.5C18.3869 22.75 19.7284 22.2032 20.5121 21.1297C21.2693 20.0922 21.3681 18.7419 21.2149 17.4422L21.1558 16.9503C21.1551 16.9432 21.1542 16.9361 21.1533 16.9291Z" fill="#424B5A"/>
</svg>
