<svg width="24" height="24" viewBox="0 0 24 24" fill="none" xmlns="http://www.w3.org/2000/svg">
<path fill-rule="evenodd" clip-rule="evenodd" d="M3.24366 2.27407C4.06936 1.51137 5.20323 1.25 6.59006 1.25H9.64006L9.65501 1.25015L9.67006 1.25H14.3001H14.3401H17.3501C18.7369 1.25 19.8708 1.51137 20.6965 2.27407C21.5123 3.02763 21.8853 4.14208 22.073 5.49714C22.0742 5.50608 22.0753 5.51505 22.0762 5.52403L22.3564 8.27574C22.4575 9.29173 22.2028 10.2345 21.6942 10.9901C21.7175 11.0626 21.7301 11.1398 21.7301 11.22V15.71C21.7301 18.0294 21.2697 19.8485 20.0491 21.0691C18.8286 22.2896 17.0094 22.75 14.6901 22.75H14.5001H9.50006H9.30006C6.98068 22.75 5.16152 22.2896 3.94098 21.0691C2.72043 19.8485 2.26006 18.0294 2.26006 15.71V11.22C2.26006 11.1548 2.26838 11.0916 2.28401 11.0313C1.75684 10.269 1.4909 9.31057 1.59369 8.27627L1.86365 5.52672C1.86462 5.51683 1.86578 5.50697 1.86715 5.49714C2.05477 4.14208 2.42785 3.02763 3.24366 2.27407ZM10.2501 21.25H13.7501V19.5C13.7501 18.7795 13.5714 18.3795 13.346 18.1541C13.1206 17.9287 12.7206 17.75 12.0001 17.75C11.2795 17.75 10.8796 17.9287 10.6541 18.1541C10.4287 18.3795 10.2501 18.7795 10.2501 19.5V21.25ZM15.2501 21.2396V19.5C15.2501 18.5505 15.0137 17.7005 14.4066 17.0934C13.7996 16.4863 12.9495 16.25 12.0001 16.25C11.0506 16.25 10.2006 16.4863 9.59348 17.0934C8.9864 17.7005 8.75006 18.5505 8.75006 19.5V21.24C6.90168 21.1704 5.7335 20.7403 5.00164 20.0084C4.19968 19.2065 3.76006 17.8806 3.76006 15.71V12.3134C4.31648 12.5929 4.95344 12.75 5.64006 12.75C6.91866 12.75 8.11118 12.1049 8.86943 11.1196C9.53509 12.1076 10.6681 12.75 12.0001 12.75C13.3157 12.75 14.4372 12.1232 15.1059 11.1556C15.8673 12.1202 17.0458 12.75 18.3101 12.75C19.0132 12.75 19.6642 12.5853 20.2301 12.293V15.71C20.2301 17.8806 19.7904 19.2065 18.9885 20.0084C18.2579 20.739 17.0927 21.1688 15.2501 21.2396ZM3.35499 5.68835L3.08647 8.42328C2.93024 9.9934 4.06514 11.25 5.64006 11.25C6.90667 11.25 8.0711 10.2005 8.19356 8.93761L8.19375 8.93571L8.81132 2.75H6.59006C5.35689 2.75 4.68075 2.98863 4.26145 3.37593C3.83394 3.77082 3.52774 4.45258 3.35499 5.68835ZM13.6212 2.75L14.2538 9.08452L14.254 9.08687C14.2563 9.10951 14.2589 9.1321 14.2616 9.15464C14.189 10.3509 13.2489 11.25 12.0001 11.25C10.6152 11.25 9.61006 10.1437 9.74646 8.75342L10.3486 2.75H13.6212ZM15.7656 9.0773C15.966 10.2792 17.0927 11.25 18.3101 11.25C19.8847 11.25 21.0196 9.99482 20.8638 8.4251L20.5853 5.68966C20.4126 4.45307 20.1063 3.77096 19.6787 3.37593C19.2594 2.98863 18.5832 2.75 17.3501 2.75H15.1678L15.7464 8.60626C15.7621 8.76538 15.7683 8.92257 15.7656 9.0773Z" fill="#424B5A"/>
</svg>
