<svg width="24" height="24" viewBox="0 0 24 24" fill="none" xmlns="http://www.w3.org/2000/svg">
<path fill-rule="evenodd" clip-rule="evenodd" d="M3.27361 2.27405C4.0993 1.51137 5.23316 1.25 6.61999 1.25H9.66998L9.67996 1.25007L9.69001 1.25H14.32H14.36H17.37C18.7568 1.25 19.8907 1.51137 20.7164 2.27405C21.5322 3.02762 21.9053 4.14206 22.0929 5.49711C22.0941 5.50605 22.0952 5.51502 22.0961 5.524L22.3763 8.27572C22.477 9.28722 22.225 10.2262 21.7208 10.9801C21.7462 11.0554 21.76 11.1361 21.76 11.22V15.71C21.76 18.0284 21.3025 19.8478 20.0831 21.0687C18.8636 22.2898 17.0439 22.75 14.72 22.75H9.33002C8.85856 22.75 8.41005 22.7311 7.98205 22.6865C7.16647 23.3601 6.12715 23.75 5 23.75C3.55017 23.75 2.25229 23.0955 1.3949 22.0714L1.3901 22.0656C1.38191 22.0572 1.37128 22.0461 1.36037 22.0341C1.34694 22.0192 1.3304 22.0001 1.31248 21.9768C1.1778 21.8177 1.04664 21.6392 0.933962 21.4412C0.496613 20.7269 0.25 19.8855 0.25 19C0.25 17.5079 0.936775 16.1655 2.02852 15.2967C2.11335 15.2271 2.20051 15.1613 2.28998 15.0993V11.22C2.28998 11.1571 2.29771 11.0961 2.31226 11.0378C1.7801 10.2748 1.51036 9.3139 1.61366 8.27572L1.61384 8.274L1.89387 5.524C1.89478 5.51502 1.89586 5.50605 1.8971 5.49711C2.08472 4.14206 2.45779 3.02762 3.27361 2.27405ZM3.37729 16.1901C3.39225 16.1825 3.40693 16.1745 3.42129 16.166C3.89041 15.9013 4.42944 15.75 5 15.75C5.81383 15.75 6.53997 16.0411 7.10724 16.5354C7.12106 16.5474 7.13531 16.559 7.14998 16.57C7.2152 16.6189 7.28866 16.6895 7.37503 16.7845L7.37713 16.7868C7.91943 17.3784 8.25 18.1507 8.25 19C8.25 19.6094 8.07947 20.1834 7.7816 20.6664L7.78152 20.6663L7.77509 20.6772C7.61847 20.9409 7.43958 21.1617 7.24582 21.3272C7.21173 21.356 7.18017 21.3879 7.15158 21.4224C7.14368 21.429 7.13591 21.4357 7.12828 21.4425C6.56449 21.9499 5.82269 22.25 5 22.25C4.01778 22.25 3.14182 21.8115 2.55912 21.1252C2.54059 21.1011 2.52345 21.0812 2.50962 21.0659C2.49872 21.0539 2.48809 21.0427 2.4799 21.0344L2.46947 21.0219C2.37353 20.91 2.29433 20.8002 2.2337 20.6924C2.22877 20.6836 2.22367 20.6749 2.2184 20.6664C1.92053 20.1834 1.75 19.6094 1.75 19C1.75 17.9745 2.221 17.0588 2.96618 16.4675L2.96626 16.4676L2.97678 16.459C3.10464 16.3537 3.23805 16.2644 3.37729 16.1901ZM9.1773 21.2493C9.54498 20.5781 9.75 19.8073 9.75 19C9.75 17.7499 9.261 16.6227 8.48392 15.7744C8.3755 15.6552 8.2372 15.5139 8.07311 15.3876C7.24317 14.6722 6.17689 14.25 5 14.25C4.58251 14.25 4.17673 14.3052 3.78998 14.4084V12.3142C4.3473 12.5933 4.98447 12.75 5.66998 12.75C6.94684 12.75 8.13782 12.1071 8.89619 11.1242C9.56563 12.1102 10.7015 12.75 12.03 12.75C13.344 12.75 14.4644 12.1248 15.1335 11.1594C15.8934 12.1209 17.0652 12.75 18.33 12.75C19.0373 12.75 19.6919 12.5833 20.26 12.2878V15.71C20.26 17.8815 19.8225 19.2071 19.0218 20.0087C18.2214 20.8102 16.8961 21.25 14.72 21.25H9.33002C9.27858 21.25 9.22768 21.2498 9.1773 21.2493ZM3.38476 5.68964L3.10629 8.42424C2.95084 9.99091 4.09224 11.25 5.66998 11.25C6.93659 11.25 8.10101 10.2005 8.22347 8.93762L8.22365 8.9357L8.84124 2.75H6.61999C5.38681 2.75 4.71069 2.98862 4.29139 3.37592C3.86374 3.77094 3.55747 4.45304 3.38476 5.68964ZM13.6412 2.75L14.2737 9.08454L14.2744 9.09135C14.2785 9.12854 14.2831 9.1656 14.2882 9.20252C14.1938 10.3748 13.2622 11.25 12.03 11.25C10.6418 11.25 9.63038 10.1404 9.76643 8.75347L10.3686 2.75H13.6412ZM15.7946 9.12087C16.023 10.307 17.1321 11.25 18.33 11.25C19.9047 11.25 21.0395 9.99477 20.8838 8.42501L20.6052 5.68964C20.4325 4.45304 20.1262 3.77094 19.6986 3.37592C19.2793 2.98862 18.6032 2.75 17.37 2.75H15.189L15.7764 8.60664C15.7935 8.78059 15.7994 8.95223 15.7946 9.12087ZM2.76001 18.98C2.76001 18.5658 3.0958 18.23 3.51001 18.23H4.25V17.52C4.25 17.1058 4.58579 16.77 5 16.77C5.41421 16.77 5.75 17.1058 5.75 17.52V18.23H6.48999C6.9042 18.23 7.23999 18.5658 7.23999 18.98C7.23999 19.3942 6.9042 19.73 6.48999 19.73H5.75V20.51C5.75 20.9242 5.41421 21.26 5 21.26C4.58579 21.26 4.25 20.9242 4.25 20.51V19.73H3.51001C3.0958 19.73 2.76001 19.3942 2.76001 18.98Z" fill="#424B5A"/>
</svg>
