<svg width="24" height="24" viewBox="0 0 24 24" fill="none" xmlns="http://www.w3.org/2000/svg">
<path fill-rule="evenodd" clip-rule="evenodd" d="M6.61999 1.25C5.23316 1.25 4.0993 1.51137 3.27361 2.27405C2.45779 3.02762 2.08472 4.14206 1.8971 5.49711C1.89586 5.50605 1.89478 5.51502 1.89387 5.524L1.61384 8.274L1.61366 8.27572C1.51036 9.3139 1.7801 10.2748 2.31226 11.0378C2.29771 11.0961 2.28998 11.1571 2.28998 11.22V15.0993C2.20051 15.1613 2.11335 15.2271 2.02852 15.2967C0.936775 16.1655 0.25 17.5079 0.25 19C0.25 19.8855 0.496613 20.7269 0.933962 21.4412C1.04664 21.6392 1.1778 21.8177 1.31248 21.9768C1.3304 22.0001 1.34694 22.0192 1.36037 22.0341C1.37128 22.0461 1.38191 22.0572 1.3901 22.0656L1.3949 22.0714C2.25229 23.0955 3.55017 23.75 5 23.75C6.12715 23.75 7.16647 23.3601 7.98205 22.6865C8.41005 22.7311 8.85856 22.75 9.33002 22.75H14.72C17.0439 22.75 18.8636 22.2898 20.0831 21.0687C21.3025 19.8478 21.76 18.0284 21.76 15.71V11.22C21.76 11.1361 21.7462 11.0554 21.7208 10.9801C22.225 10.2262 22.477 9.28722 22.3763 8.27572L22.0961 5.524C22.0952 5.51502 22.0941 5.50605 22.0929 5.49711C21.9053 4.14206 21.5322 3.02762 20.7164 2.27405C19.8907 1.51137 18.7568 1.25 17.37 1.25H14.36H14.32H9.69001L9.67996 1.25007L9.66998 1.25H6.61999ZM3.42129 16.166C3.40693 16.1745 3.39225 16.1825 3.37729 16.1901C3.23805 16.2644 3.10464 16.3537 2.97678 16.459L2.96626 16.4676L2.96618 16.4675C2.221 17.0588 1.75 17.9745 1.75 19C1.75 19.6094 1.92053 20.1834 2.2184 20.6664C2.22367 20.6749 2.22877 20.6836 2.2337 20.6924C2.29433 20.8002 2.37353 20.91 2.46947 21.0219L2.4799 21.0344C2.48809 21.0427 2.49872 21.0539 2.50962 21.0659C2.52345 21.0812 2.54059 21.1011 2.55912 21.1252C3.14182 21.8115 4.01778 22.25 5 22.25C5.82269 22.25 6.56449 21.9499 7.12828 21.4425C7.13591 21.4357 7.14368 21.429 7.15158 21.4224C7.18017 21.3879 7.21173 21.356 7.24582 21.3272C7.43958 21.1617 7.61847 20.9409 7.77509 20.6772L7.78152 20.6663L7.7816 20.6664C8.07947 20.1834 8.25 19.6094 8.25 19C8.25 18.1507 7.91943 17.3784 7.37713 16.7868L7.37503 16.7845C7.28866 16.6895 7.2152 16.6189 7.14998 16.57C7.13531 16.559 7.12106 16.5474 7.10724 16.5354C6.53997 16.0411 5.81383 15.75 5 15.75C4.42944 15.75 3.89041 15.9013 3.42129 16.166ZM9.75 19C9.75 19.8073 9.54498 20.5781 9.1773 21.2493C9.22768 21.2498 9.27858 21.25 9.33002 21.25H14.72C16.8961 21.25 18.2214 20.8102 19.0218 20.0087C19.8225 19.2071 20.26 17.8815 20.26 15.71V12.2878C19.6919 12.5833 19.0373 12.75 18.33 12.75C17.0652 12.75 15.8934 12.1209 15.1335 11.1594C14.4644 12.1248 13.344 12.75 12.03 12.75C10.7015 12.75 9.56563 12.1102 8.89619 11.1242C8.13782 12.1071 6.94684 12.75 5.66998 12.75C4.98447 12.75 4.3473 12.5933 3.78998 12.3142V14.4084C4.17673 14.3052 4.58251 14.25 5 14.25C6.17689 14.25 7.24317 14.6722 8.07311 15.3876C8.2372 15.5139 8.3755 15.6552 8.48392 15.7744C9.261 16.6227 9.75 17.7499 9.75 19ZM3.10629 8.42424L3.38476 5.68964C3.55747 4.45304 3.86374 3.77094 4.29139 3.37592C4.71069 2.98862 5.38681 2.75 6.61999 2.75H8.84124L8.22365 8.9357L8.22347 8.93762C8.10101 10.2005 6.93659 11.25 5.66998 11.25C4.09224 11.25 2.95084 9.99091 3.10629 8.42424ZM14.2737 9.08454L13.6412 2.75H10.3686L9.76643 8.75347C9.63038 10.1404 10.6418 11.25 12.03 11.25C13.2622 11.25 14.1938 10.3748 14.2882 9.20252C14.2831 9.1656 14.2785 9.12854 14.2744 9.09135L14.2737 9.08454ZM18.33 11.25C17.1321 11.25 16.023 10.307 15.7946 9.12087C15.7994 8.95223 15.7935 8.78059 15.7764 8.60664L15.189 2.75H17.37C18.6032 2.75 19.2793 2.98862 19.6986 3.37592C20.1262 3.77094 20.4325 4.45304 20.6052 5.68964L20.8838 8.42501C21.0395 9.99477 19.9047 11.25 18.33 11.25ZM3.51001 18.23C3.0958 18.23 2.76001 18.5658 2.76001 18.98C2.76001 19.3942 3.0958 19.73 3.51001 19.73H6.48999C6.9042 19.73 7.23999 19.3942 7.23999 18.98C7.23999 18.5658 6.9042 18.23 6.48999 18.23H3.51001Z" fill="#424B5A"/>
</svg>
