<svg width="24" height="24" viewBox="0 0 24 24" fill="none" xmlns="http://www.w3.org/2000/svg">
<path fill-rule="evenodd" clip-rule="evenodd" d="M7.41092 1.78696C7.84335 1.45218 8.38284 1.25 8.96008 1.25H17.22C18.6014 1.25 19.72 2.36297 19.72 3.73999V7.23999C19.72 8.6242 18.6042 9.73999 17.22 9.73999H12.75V11.25H15.06C15.6373 11.25 16.1767 11.4522 16.6092 11.787L16.6183 11.794L16.6182 11.7941L18.8069 13.5431L18.8079 13.5438C20.0641 14.544 20.0641 16.446 18.8078 17.4462L18.8069 17.4469L16.6209 19.1938L16.6195 19.1949C16.1702 19.5566 15.6127 19.74 15.06 19.74H12.75V21.25H15C15.4142 21.25 15.75 21.5858 15.75 22C15.75 22.4142 15.4142 22.75 15 22.75H12H9.00003C8.58581 22.75 8.25003 22.4142 8.25003 22C8.25003 21.5858 8.58581 21.25 9.00003 21.25H11.25V19.74H6.80001C5.4158 19.74 4.30001 18.6242 4.30001 17.24V13.74C4.30001 12.363 5.41861 11.25 6.80001 11.25H11.25V9.73999H8.96008C8.40737 9.73999 7.84988 9.55666 7.40067 9.19495L5.21315 7.44694C3.9566 6.44672 3.9559 4.54386 5.21244 3.54362L7.41092 1.78696ZM12 12.75H6.80001C6.24142 12.75 5.80001 13.197 5.80001 13.74V17.24C5.80001 17.7958 6.24423 18.24 6.80001 18.24H15.06C15.2867 18.24 15.5087 18.1637 15.6792 18.0262L15.6819 18.0241L17.8719 16.2741L17.8732 16.273C18.3757 15.8733 18.3757 15.1167 17.8732 14.717L17.8719 14.7159L15.6869 12.97C15.5002 12.8267 15.2812 12.75 15.06 12.75H12ZM8.33318 2.96996L6.14694 4.71696C5.64442 5.11669 5.64442 5.8733 6.14694 6.27303L6.14824 6.27407L8.33824 8.02407L8.34086 8.02618C8.5114 8.1637 8.73337 8.23999 8.96008 8.23999H17.22C17.7758 8.23999 18.22 7.79578 18.22 7.23999V3.73999C18.22 3.19701 17.7786 2.75 17.22 2.75H8.96008C8.73889 2.75 8.51988 2.82673 8.33318 2.96996Z" fill="#424B5A"/>
</svg>
