<svg width="24" height="24" viewBox="0 0 24 24" fill="none" xmlns="http://www.w3.org/2000/svg">
<path fill-rule="evenodd" clip-rule="evenodd" d="M12.6593 6.72109C11.8334 6.04457 10.7952 5.67021 9.72 5.67021H8.7541C8.79341 4.7676 9.11317 4.0602 9.60158 3.57179C10.1238 3.04962 10.8962 2.72021 11.89 2.72021H15.72C16.5509 2.72021 17.3502 3.05105 17.9397 3.64054L20.3297 6.03055C20.9192 6.62004 21.25 7.41933 21.25 8.25021V13.6402C21.25 14.634 20.9206 15.4065 20.3984 15.9286C19.8762 16.4508 19.1038 16.7802 18.11 16.7802H16.75V12.6902C16.75 11.4611 16.2608 10.2804 15.3903 9.40988L12.9998 7.02932L12.9997 7.0293C12.8909 6.92054 12.7773 6.81773 12.6593 6.72109ZM16.7466 18.2802H18.11C19.4462 18.2802 20.6188 17.8296 21.4591 16.9893C22.2994 16.149 22.75 14.9765 22.75 13.6402V8.25021C22.75 7.02109 22.2608 5.84039 21.3903 4.96988L19.0003 2.57988C18.1298 1.70938 16.9491 1.22021 15.72 1.22021H11.89C10.5538 1.22021 9.38125 1.67081 8.54092 2.51113C7.74066 3.31139 7.29385 4.41291 7.25307 5.67021H5.89C4.55511 5.67021 3.38241 6.11744 2.54141 6.9569C1.70019 7.79657 1.25 8.96964 1.25 10.3102V18.0802C1.25 19.4208 1.70019 20.5939 2.54141 21.4335C3.38241 22.273 4.55511 22.7202 5.89 22.7202H12.11C13.4449 22.7202 14.6176 22.273 15.4586 21.4335C16.2577 20.6359 16.704 19.5374 16.7466 18.2802ZM8 7.17021H5.89C4.89489 7.17021 4.12259 7.49799 3.60109 8.01853C3.07981 8.53886 2.75 9.31079 2.75 10.3102V18.0802C2.75 19.0796 3.07981 19.8516 3.60109 20.3719C4.12259 20.8924 4.89489 21.2202 5.89 21.2202H12.11C13.1051 21.2202 13.8774 20.8924 14.3989 20.3719C14.9202 19.8516 15.25 19.0796 15.25 18.0802V17.5302V12.6902C15.25 11.8596 14.9194 11.0606 14.3303 10.4712L14.3302 10.4711" fill="#424B5A"/>
</svg>
