<svg width="24" height="24" viewBox="0 0 24 24" fill="none" xmlns="http://www.w3.org/2000/svg">
<path fill-rule="evenodd" clip-rule="evenodd" d="M8 1.25C6.32956 1.25 4.87925 1.81009 3.84467 2.84467C2.81009 3.87925 2.25 5.32956 2.25 7V17C2.25 18.6704 2.81009 20.1207 3.84467 21.1553C4.87925 22.1899 6.32956 22.75 8 22.75H16C17.6704 22.75 19.1207 22.1899 20.1553 21.1553C21.1899 20.1207 21.75 18.6704 21.75 17V10.07C21.75 8.54075 21.1407 7.08008 20.0703 6.00967L17.0003 2.93967C15.9207 1.86006 14.4604 1.25 12.93 1.25H8ZM3.75 7C3.75 5.67044 4.18991 4.62075 4.90533 3.90533C5.62075 3.18991 6.67044 2.75 8 2.75H12.93C14.0596 2.75 15.1393 3.19994 15.9397 4.00033L19.0097 7.07033C19.7993 7.85992 20.25 8.93925 20.25 10.07V17C20.25 18.3296 19.8101 19.3793 19.0947 20.0947C18.3793 20.8101 17.3296 21.25 16 21.25H8C6.67044 21.25 5.62075 20.8101 4.90533 20.0947C4.18991 19.3793 3.75 18.3296 3.75 17V7ZM10 8.75C7.93579 8.75 6.25 10.4358 6.25 12.5V15.5C6.25 17.5642 7.93579 19.25 10 19.25H12H14C16.0642 19.25 17.75 17.5642 17.75 15.5V12.5C17.75 10.4358 16.0642 8.75 14 8.75H12H10ZM14 17.75H12.75V14.75H16.25V15.5C16.25 16.7358 15.2358 17.75 14 17.75ZM16.25 13.25H12.75V10.25H14C15.2358 10.25 16.25 11.2642 16.25 12.5V13.25ZM11.25 13.25V10.25H10C8.76421 10.25 7.75 11.2642 7.75 12.5V13.25H11.25ZM7.75 14.75V15.5C7.75 16.7358 8.76421 17.75 10 17.75H11.25V14.75H7.75Z" fill="#424B5A"/>
</svg>
