<svg width="24" height="24" viewBox="0 0 24 24" fill="none" xmlns="http://www.w3.org/2000/svg">
<path fill-rule="evenodd" clip-rule="evenodd" d="M3.84467 2.85444C4.87925 1.81985 6.32956 1.25977 8 1.25977H12.93C14.4565 1.25977 15.918 1.85706 17.0003 2.9394L20.0703 6.0094C21.1413 7.08038 21.75 8.54133 21.75 10.0798V17.0098C21.75 18.6802 21.1899 20.1305 20.1553 21.1651C19.1207 22.1997 17.6704 22.7598 16 22.7598H8C6.32956 22.7598 4.87925 22.1997 3.84467 21.1651C2.81009 20.1305 2.25 18.6802 2.25 17.0098V7.00977C2.25 5.33933 2.81009 3.88902 3.84467 2.85444ZM4.90533 3.9151C4.18991 4.63051 3.75 5.6802 3.75 7.00977V17.0098C3.75 18.3393 4.18991 19.389 4.90533 20.1044C5.62075 20.8199 6.67044 21.2598 8 21.2598H16C17.3296 21.2598 18.3793 20.8199 19.0947 20.1044C19.8101 19.389 20.25 18.3393 20.25 17.0098V10.0798C20.25 8.93822 19.7987 7.85908 19.0097 7.07006L15.9397 4.00006C15.142 3.2024 14.0635 2.75977 12.93 2.75977H8C6.67044 2.75977 5.62075 3.19968 4.90533 3.9151ZM10.0303 13.4697C10.3232 13.7626 10.3232 14.2374 10.0303 14.5303L8.56066 16L10.0303 17.4697C10.3232 17.7626 10.3232 18.2374 10.0303 18.5303C9.73744 18.8232 9.26256 18.8232 8.96967 18.5303L6.96967 16.5303C6.67678 16.2374 6.67678 15.7626 6.96967 15.4697L8.96967 13.4697C9.26256 13.1768 9.73744 13.1768 10.0303 13.4697ZM15.0303 13.4697C14.7374 13.1768 14.2626 13.1768 13.9697 13.4697C13.6768 13.7626 13.6768 14.2374 13.9697 14.5303L15.4393 16L13.9697 17.4697C13.6768 17.7626 13.6768 18.2374 13.9697 18.5303C14.2626 18.8232 14.7374 18.8232 15.0303 18.5303L17.0303 16.5303C17.3232 16.2374 17.3232 15.7626 17.0303 15.4697L15.0303 13.4697Z" fill="#424B5A"/>
</svg>
