<svg width="24" height="24" viewBox="0 0 24 24" fill="none" xmlns="http://www.w3.org/2000/svg">
<path fill-rule="evenodd" clip-rule="evenodd" d="M11.72 5.85C11.72 4.54897 11.9848 3.83336 12.3941 3.42408C12.8033 3.0148 13.5189 2.75 14.82 2.75H18.12C19.421 2.75 20.1366 3.0148 20.5459 3.42408C20.9552 3.83336 21.22 4.54897 21.22 5.85V9.15C21.22 10.451 20.9552 11.1666 20.5459 11.5759C20.1366 11.9852 19.421 12.25 18.12 12.25H17.72C17.72 10.301 17.3348 8.74164 16.2816 7.68842C15.2283 6.6352 13.6689 6.25 11.72 6.25V5.85ZM10.22 6.25V5.85C10.22 4.40103 10.5052 3.19164 11.3334 2.36342C12.1616 1.5352 13.371 1.25 14.82 1.25H18.12C19.5689 1.25 20.7783 1.5352 21.6066 2.36342C22.4348 3.19164 22.72 4.40103 22.72 5.85V9.15C22.72 10.599 22.4348 11.8084 21.6066 12.6366C20.7783 13.4648 19.5689 13.75 18.12 13.75H17.72V16.75C17.72 18.699 17.3348 20.2584 16.2816 21.3116C15.2283 22.3648 13.6689 22.75 11.72 22.75H7.21997C5.271 22.75 3.71161 22.3648 2.65839 21.3116C1.60517 20.2584 1.21997 18.699 1.21997 16.75V12.25C1.21997 10.301 1.60517 8.74164 2.65839 7.68842C3.71161 6.6352 5.271 6.25 7.21997 6.25H10.22ZM10.97 7.75H7.21997C5.41894 7.75 4.35333 8.1148 3.71905 8.74908C3.08477 9.38336 2.71997 10.449 2.71997 12.25V16.75C2.71997 18.551 3.08477 19.6166 3.71905 20.2509C4.35333 20.8852 5.41894 21.25 7.21997 21.25H11.72C13.521 21.25 14.5866 20.8852 15.2209 20.2509C15.8552 19.6166 16.22 18.551 16.22 16.75V13V12.25C16.22 10.449 15.8552 9.38336 15.2209 8.74908C14.5866 8.1148 13.521 7.75 11.72 7.75H10.97Z" fill="#424B5A"/>
</svg>
