<svg width="24" height="24" viewBox="0 0 24 24" fill="none" xmlns="http://www.w3.org/2000/svg">
<path fill-rule="evenodd" clip-rule="evenodd" d="M5.75 6C5.75 5.07002 6.06575 4.26154 6.60672 3.69107C7.14187 3.12672 7.9397 2.75 9 2.75H15C16.0603 2.75 16.8581 3.12672 17.3933 3.69107C17.9342 4.26154 18.25 5.07002 18.25 6V15.26H5.75V6ZM4.25 16.01V6C4.25 4.72998 4.68425 3.53846 5.51828 2.65893C6.35813 1.77327 7.5603 1.25 9 1.25H15C16.4397 1.25 17.6419 1.77327 18.4817 2.65893C19.3158 3.53846 19.75 4.72998 19.75 6V16.01V18C19.75 19.27 19.3158 20.4615 18.4817 21.3411C17.6419 22.2267 16.4397 22.75 15 22.75H9C7.5603 22.75 6.35813 22.2267 5.51828 21.3411C4.68425 20.4615 4.25 19.27 4.25 18V16.01ZM18.25 16.76V18C18.25 18.93 17.9342 19.7385 17.3933 20.3089C16.8581 20.8733 16.0603 21.25 15 21.25H9C7.9397 21.25 7.14187 20.8733 6.60672 20.3089C6.06575 19.7385 5.75 18.93 5.75 18V16.76H18.25ZM2 3.25C2.41421 3.25 2.75 3.58579 2.75 4V20C2.75 20.4142 2.41421 20.75 2 20.75C1.58579 20.75 1.25 20.4142 1.25 20V4C1.25 3.58579 1.58579 3.25 2 3.25ZM22.75 4C22.75 3.58579 22.4142 3.25 22 3.25C21.5858 3.25 21.25 3.58579 21.25 4V20C21.25 20.4142 21.5858 20.75 22 20.75C22.4142 20.75 22.75 20.4142 22.75 20V4Z" fill="#424B5A"/>
</svg>
