<svg width="24" height="24" viewBox="0 0 24 24" fill="none" xmlns="http://www.w3.org/2000/svg">
<path fill-rule="evenodd" clip-rule="evenodd" d="M2.73999 4.41995C2.73999 3.81416 3.2342 3.31995 3.83999 3.31995H9.54999V17.3499H6.89999C6.48578 17.3499 6.14999 17.6857 6.14999 18.0999C6.14999 18.5142 6.48578 18.8499 6.89999 18.8499H10.3H12.48C12.8942 18.8499 13.23 18.5142 13.23 18.0999C13.23 17.6857 12.8942 17.3499 12.48 17.3499H11.05V3.31995H16.76C17.3658 3.31995 17.86 3.81416 17.86 4.41995V5.92995C17.86 6.34416 18.1958 6.67995 18.61 6.67995C19.0242 6.67995 19.36 6.34416 19.36 5.92995V4.41995C19.36 2.98573 18.1942 1.81995 16.76 1.81995H3.83999C2.40578 1.81995 1.23999 2.98573 1.23999 4.41995V5.92995C1.23999 6.34416 1.57578 6.67995 1.98999 6.67995C2.4042 6.67995 2.73999 6.34416 2.73999 5.92995V4.41995ZM13.68 9.58995C13.2658 9.58995 12.93 9.92573 12.93 10.3399C12.93 10.7542 13.2658 11.0899 13.68 11.0899H15.33V20.6799H13.94C13.5258 20.6799 13.19 21.0157 13.19 21.4299C13.19 21.8442 13.5258 22.1799 13.94 22.1799H16.08H18.22C18.6342 22.1799 18.97 21.8442 18.97 21.4299C18.97 21.0157 18.6342 20.6799 18.22 20.6799H16.83V11.0899H20.69C21.0058 11.0899 21.26 11.3442 21.26 11.6599V12.4599C21.26 12.8742 21.5958 13.2099 22.01 13.2099C22.4242 13.2099 22.76 12.8742 22.76 12.4599V11.6599C22.76 10.5157 21.8342 9.58995 20.69 9.58995H13.68Z" fill="#424B5A"/>
</svg>
