<svg width="24" height="24" viewBox="0 0 24 24" fill="none" xmlns="http://www.w3.org/2000/svg">
<path fill-rule="evenodd" clip-rule="evenodd" d="M16.7307 1.25558C16.3195 1.2055 15.9456 1.49822 15.8955 1.9094C15.8454 2.32057 16.1382 2.6945 16.5493 2.74457C17.8708 2.90552 19.2853 3.74958 20.2466 5.18702C21.2092 6.62638 21.4524 8.25288 21.0975 9.52908C20.9865 9.92814 21.22 10.3416 21.619 10.4526C22.0181 10.5636 22.4316 10.3301 22.5426 9.93104C23.0276 8.18724 22.6709 6.11381 21.4935 4.35317C20.3147 2.59061 18.5292 1.47463 16.7307 1.25558ZM18.9934 6.02311C18.3696 5.08306 17.3695 4.48591 16.3595 4.50014C15.9453 4.50597 15.6143 4.84645 15.6201 5.26063C15.6259 5.6748 15.9664 6.00582 16.3806 5.99999C16.7895 5.99423 17.3484 6.25588 17.7447 6.85422L17.7447 6.85423L17.7485 6.85981C18.1546 7.46114 18.1811 8.0721 18.0212 8.44334C17.8573 8.82375 18.0329 9.26499 18.4133 9.42886C18.7937 9.59274 19.235 9.41719 19.3988 9.03677C19.7985 8.10892 19.6258 6.96126 18.9934 6.02311ZM6.87002 6.87007C5.81597 6.87007 5.02041 7.13649 4.46634 7.70569C3.93997 8.24644 3.74486 8.95267 3.6253 9.54945L3.37331 10.7501H2.75002C2.33581 10.7501 2.00002 11.0859 2.00002 11.5001C2.00002 11.9143 2.33581 12.2501 2.75002 12.2501H3.05849L2.8156 13.4074C2.61333 13.5283 2.43583 13.6776 2.28374 13.8583C1.80222 14.4304 1.71654 15.173 1.66354 15.7174L1.24349 20.288C1.10881 21.6292 2.1884 22.7501 3.51002 22.7501H4.92002C5.42097 22.7501 5.87843 22.6476 6.22391 22.3226C6.51602 22.0478 6.63155 21.6862 6.69147 21.4987L6.7024 21.4646L6.85089 21.0192C6.95805 20.7036 6.99691 20.6374 7.03635 20.6002C7.04486 20.592 7.13931 20.5001 7.57003 20.5001H11.41C11.6357 20.5001 11.7714 20.5225 11.8502 20.5454C11.9191 20.5655 11.9391 20.5842 11.9424 20.5873C11.9486 20.593 11.9691 20.6136 12.0026 20.684C12.0401 20.7628 12.0741 20.8594 12.1297 21.0208L12.2785 21.4673L12.2837 21.4823L12.2984 21.5242C12.3607 21.7032 12.4819 22.0514 12.7612 22.3165C13.103 22.641 13.555 22.7501 14.06 22.7501H15.47C16.8015 22.7501 17.8577 21.6208 17.7369 20.2922L17.3067 15.7198L17.3065 15.7174C17.2535 15.173 17.1678 14.4304 16.6863 13.8583C16.5488 13.695 16.3905 13.5572 16.2119 13.4429L15.9615 12.2501H16.25C16.6642 12.2501 17 11.9143 17 11.5001C17 11.0859 16.6642 10.7501 16.25 10.7501H15.6467L15.394 9.54604L15.3941 9.54603L15.3929 9.54077C15.2645 8.95029 15.066 8.24482 14.5412 7.70569C13.9875 7.1369 13.1949 6.87007 12.14 6.87007H6.87002ZM4.38268 14.5001H14.5874C15.2256 14.543 15.4462 14.7144 15.5387 14.8243C15.6821 14.9946 15.7564 15.2767 15.8134 15.8614L15.8135 15.8627L16.2431 20.428L16.2432 20.4291C16.2817 20.86 15.9381 21.2501 15.47 21.2501H14.06C13.9033 21.2501 13.825 21.2327 13.7923 21.2218C13.7897 21.217 13.7865 21.2109 13.7828 21.2032C13.76 21.1557 13.7397 21.0992 13.699 20.9853L13.5516 20.5429L13.5492 20.536L13.5313 20.4835C13.4418 20.2201 13.2984 19.7978 12.9601 19.4854C12.5626 19.1182 12.031 19.0001 11.41 19.0001H7.57003C6.92904 19.0001 6.3987 19.1396 6.0066 19.5096C5.66845 19.8286 5.52795 20.247 5.44401 20.4969L5.42978 20.5391L5.2785 20.9929L5.27687 20.9979C5.23873 21.115 5.21913 21.1722 5.19866 21.2163L5.19571 21.2225C5.15977 21.2335 5.07815 21.2501 4.92002 21.2501H3.51002C3.03301 21.2501 2.69354 20.8533 2.73617 20.4364L3.15669 15.8607C3.21367 15.2765 3.28798 14.9946 3.4313 14.8243C3.52381 14.7144 3.74441 14.543 4.38268 14.5001ZM14.5858 12.9977L13.9266 9.85684C13.8051 9.29886 13.6737 8.96502 13.4663 8.75197C13.2875 8.56825 12.9452 8.37007 12.14 8.37007H6.87002C6.06406 8.37007 5.71963 8.56866 5.5412 8.75197C5.33611 8.96265 5.20595 9.2947 5.09546 9.84718L5.09406 9.85415L5.09403 9.85414L4.43475 12.9954C4.52129 12.9918 4.60972 12.9901 4.70002 12.9901H14.27C14.378 12.9901 14.4832 12.9926 14.5858 12.9977ZM13.7727 21.2132C13.773 21.2131 13.7756 21.2142 13.7799 21.2172C13.7746 21.2149 13.7725 21.2134 13.7727 21.2132ZM4.25002 16.7501C4.25002 16.3359 4.58581 16.0001 5.00002 16.0001H7.25002C7.66423 16.0001 8.00002 16.3359 8.00002 16.7501C8.00002 17.1643 7.66423 17.5001 7.25002 17.5001H5.00002C4.58581 17.5001 4.25002 17.1643 4.25002 16.7501ZM11.75 16.0001C11.3358 16.0001 11 16.3359 11 16.7501C11 17.1643 11.3358 17.5001 11.75 17.5001H14C14.4142 17.5001 14.75 17.1643 14.75 16.7501C14.75 16.3359 14.4142 16.0001 14 16.0001H11.75Z" fill="#424B5A"/>
</svg>
