<svg width="24" height="24" viewBox="0 0 24 24" fill="none" xmlns="http://www.w3.org/2000/svg">
<path fill-rule="evenodd" clip-rule="evenodd" d="M21.3303 7.78576L14.3998 2.2453C13.057 1.16665 10.9362 1.16423 9.60079 2.23477L2.67331 7.78281L2.6721 7.78377C2.15258 8.19718 1.76426 8.80333 1.528 9.4226C1.29191 10.0414 1.17777 10.7517 1.29055 11.4055L1.57018 13.0832C1.63828 13.4918 2.0247 13.7678 2.43328 13.6997C2.84185 13.6316 3.11787 13.2452 3.04977 12.8366L2.76978 11.1567L2.76894 11.1518C2.71248 10.8263 2.76336 10.3927 2.92946 9.95729C3.09553 9.52202 3.3468 9.16362 3.60668 8.95705L10.5392 3.40499C11.3235 2.77602 12.663 2.77384 13.4601 3.41447L13.4616 3.4157L20.3896 8.9541L20.3904 8.95477C20.6465 9.1613 20.8963 9.5203 21.063 9.95729C21.2296 10.394 21.2832 10.8298 21.23 11.1578L21.2298 11.1591L19.9006 19.1141L19.9004 19.1152C19.721 20.1655 18.6627 21.06 17.6 21.06H11.4C10.9858 21.06 10.65 21.3958 10.65 21.81C10.65 22.2242 10.9858 22.56 11.4 22.56H17.6C19.3969 22.56 21.0782 21.135 21.3794 19.3658L21.3797 19.3635L22.7097 11.4036L22.7102 11.4008C22.8166 10.7489 22.7001 10.0404 22.4645 9.4226C22.2288 8.80504 21.844 8.19934 21.3303 7.78576ZM2.01702 18.2501C1.60292 18.2407 1.25959 18.5688 1.25018 18.9829C1.24077 19.397 1.56884 19.7403 1.98294 19.7497C2.69236 19.7658 3.24119 20.0118 3.61465 20.3852C3.98812 20.7587 4.23405 21.3075 4.25018 22.017C4.25959 22.4311 4.60292 22.7591 5.01702 22.7497C5.43113 22.7403 5.7592 22.397 5.74979 21.9829C5.72591 20.9323 5.35185 20.0011 4.67531 19.3246C3.99878 18.648 3.0676 18.274 2.01702 18.2501ZM1.25005 15.99C1.2555 15.5759 1.59567 15.2445 2.00985 15.25C2.84997 15.261 3.64127 15.4049 4.37016 15.6629L4.37115 15.6632C6.24217 16.3282 7.67108 17.7448 8.33715 19.6301C8.59499 20.3589 8.73887 21.1501 8.74992 21.99C8.75537 22.4042 8.42403 22.7444 8.00985 22.7498C7.59567 22.7553 7.2555 22.424 7.25005 22.0098C7.2411 21.3299 7.12503 20.7012 6.92295 20.1301L6.92282 20.1298C6.40896 18.6753 5.31804 17.5919 3.86932 17.0768C3.29834 16.8748 2.6698 16.7588 1.99012 16.7498C1.57594 16.7444 1.2446 16.4042 1.25005 15.99ZM1.99548 20.9999C1.4432 20.9999 0.995483 21.4476 0.995483 21.9999C0.995483 22.5522 1.4432 22.9999 1.99548 22.9999H2.00448C2.55677 22.9999 3.00448 22.5522 3.00448 21.9999C3.00448 21.4476 2.55677 20.9999 2.00448 20.9999H1.99548Z" fill="#424B5A"/>
</svg>
