<svg width="24" height="24" viewBox="0 0 24 24" fill="none" xmlns="http://www.w3.org/2000/svg">
<path fill-rule="evenodd" clip-rule="evenodd" d="M2.75 6.19995C2.75 4.77392 3.0398 3.97083 3.50533 3.50531C3.97086 3.03979 4.77397 2.75 6.2 2.75H9.8C11.226 2.75 12.0291 3.03979 12.4947 3.50531C12.9602 3.97083 13.25 4.77392 13.25 6.19995V9.29081C12.1022 9.40179 11.1428 9.74154 10.4422 10.4422C10.3108 10.5735 10.1921 10.714 10.0853 10.8631C9.62215 11.5092 9.38089 12.3174 9.2907 13.25H6.2C4.77397 13.25 3.97086 12.9602 3.50533 12.4947C3.0398 12.0292 2.75 11.2261 2.75 9.80005V6.19995ZM14.75 6.19995V9.25H17.8C19.374 9.25 20.6709 9.56019 21.5553 10.4446C22.4398 11.3291 22.75 12.626 22.75 14.2V17.8C22.75 19.374 22.4398 20.6709 21.5553 21.5554C20.6709 22.4398 19.374 22.75 17.8 22.75H14.2C12.626 22.75 11.3291 22.4398 10.4447 21.5554C9.5602 20.6709 9.25 19.374 9.25 17.8V14.75H6.2C4.62604 14.75 3.32915 14.4398 2.44468 13.5554C1.5602 12.6709 1.25 11.374 1.25 9.80005V6.19995C1.25 4.62598 1.5602 3.3291 2.44468 2.44464C3.32915 1.56019 4.62604 1.25 6.2 1.25H9.8C11.374 1.25 12.6709 1.56019 13.5553 2.44464C14.4398 3.3291 14.75 4.62598 14.75 6.19995ZM14.0069 10.75C13.927 10.7515 13.8493 10.7539 13.7736 10.7573C12.6066 10.8097 11.9194 11.0863 11.5028 11.5028C11.0593 11.9464 10.7744 12.6969 10.75 14.0068V17.8C10.75 19.2261 11.0398 20.0292 11.5053 20.4947C11.9709 20.9602 12.774 21.25 14.2 21.25H17.8C19.226 21.25 20.0291 20.9602 20.4947 20.4947C20.9602 20.0292 21.25 19.2261 21.25 17.8V14.2C21.25 12.7739 20.9602 11.9708 20.4947 11.5053C20.0291 11.0398 19.226 10.75 17.8 10.75H14.0069ZM7.38141 5.24955C6.59588 4.71597 5.55303 4.71401 4.76298 5.28046C4.42636 5.52181 4.34912 5.99036 4.59048 6.32699C4.83184 6.66362 5.30039 6.74086 5.63702 6.4995C5.90697 6.30595 6.26412 6.30394 6.53859 6.49037C6.88123 6.72311 7.34767 6.63401 7.58041 6.29137C7.81315 5.94873 7.72406 5.48229 7.38141 5.24955ZM8.76298 5.28046C9.55303 4.71401 10.5959 4.71597 11.3814 5.24955C11.7241 5.48229 11.8132 5.94873 11.5804 6.29137C11.3477 6.63401 10.8812 6.72311 10.5386 6.49037C10.2641 6.30394 9.90697 6.30595 9.63702 6.4995C9.30039 6.74086 8.83184 6.66362 8.59048 6.32699C8.34912 5.99036 8.42635 5.52181 8.76298 5.28046ZM8 8.93005C6.99513 8.93005 6.16615 9.69276 6.06121 10.67H8.16C8.57421 10.67 8.91 11.0058 8.91 11.42C8.91 11.8343 8.57421 12.17 8.16 12.17H5.84C5.12572 12.17 4.55 11.5941 4.55 10.88C4.55 8.97577 6.0958 7.43005 8 7.43005C8.81377 7.43005 9.56902 7.7102 10.1601 8.18561C10.4828 8.44522 10.534 8.91733 10.2744 9.24009C10.0148 9.56285 9.54269 9.61404 9.21993 9.35443C8.89098 9.08984 8.46623 8.93005 8 8.93005ZM13.637 12.9905C13.3004 12.7491 12.8318 12.8263 12.5905 13.163C12.3491 13.4996 12.4264 13.9681 12.763 14.2095C13.553 14.7759 14.5959 14.774 15.3814 14.2404C15.7241 14.0077 15.8132 13.5412 15.5804 13.1986C15.3477 12.8559 14.8812 12.7668 14.5386 12.9996C14.2641 13.186 13.907 13.184 13.637 12.9905ZM16.5905 13.163C16.8318 12.8263 17.3004 12.7491 17.637 12.9905C17.907 13.184 18.2641 13.186 18.5386 12.9996C18.8812 12.7668 19.3477 12.8559 19.5804 13.1986C19.8132 13.5412 19.7241 14.0077 19.3814 14.2404C18.5959 14.774 17.553 14.7759 16.763 14.2095C16.4264 13.9681 16.3491 13.4996 16.5905 13.163ZM16 18.67C14.9952 18.67 14.1662 17.9073 14.0612 16.9301H17.9388C17.8338 17.9073 17.0048 18.67 16 18.67ZM13.84 15.4301C13.1259 15.4301 12.55 16.0056 12.55 16.72C12.55 18.6242 14.0958 20.17 16 20.17C17.9042 20.17 19.45 18.6242 19.45 16.72C19.45 16.0056 18.8741 15.4301 18.16 15.4301H13.84Z" fill="#424B5A"/>
</svg>
