<svg width="24" height="24" viewBox="0 0 24 24" fill="none" xmlns="http://www.w3.org/2000/svg">
<path fill-rule="evenodd" clip-rule="evenodd" d="M2.75 8.5C2.75 6.89295 3.20538 5.86848 3.88534 5.2371C4.57535 4.59637 5.61497 4.25 7 4.25H17C18.385 4.25 19.4246 4.59637 20.1147 5.2371C20.7946 5.86848 21.25 6.89295 21.25 8.5V11.5C21.25 11.9142 21.5858 12.25 22 12.25C22.4142 12.25 22.75 11.9142 22.75 11.5V8.5C22.75 6.60705 22.2054 5.13152 21.1353 4.1379C20.0754 3.15363 18.615 2.75 17 2.75H7C5.38503 2.75 3.92465 3.15363 2.86466 4.1379C1.79462 5.13152 1.25 6.60705 1.25 8.5V15.5C1.25 17.393 1.79462 18.8685 2.86466 19.8621C3.92465 20.8464 5.38503 21.25 7 21.25H12C12.4142 21.25 12.75 20.9142 12.75 20.5C12.75 20.0858 12.4142 19.75 12 19.75H7C5.61497 19.75 4.57535 19.4036 3.88534 18.7629C3.20538 18.1315 2.75 17.107 2.75 15.5V8.5ZM17.4681 9.58605C17.7917 9.32754 17.8445 8.85561 17.586 8.53196C17.3275 8.20832 16.8556 8.15551 16.532 8.41401L13.4025 10.9135C12.6462 11.5154 11.3446 11.5155 10.588 10.914L7.46901 8.41474C7.14576 8.15573 6.67375 8.2078 6.41474 8.53105C6.15573 8.85429 6.2078 9.3263 6.53105 9.58531L9.65104 12.0853L9.65289 12.0868C10.9563 13.1244 13.0338 13.1244 14.3372 12.0868L17.4681 9.58605ZM18.2 15.75C16.8469 15.75 15.75 16.8469 15.75 18.2C15.75 19.5531 16.8469 20.65 18.2 20.65C19.5531 20.65 20.65 19.5531 20.65 18.2C20.65 16.8469 19.5531 15.75 18.2 15.75ZM14.25 18.2C14.25 16.0185 16.0185 14.25 18.2 14.25C20.3815 14.25 22.15 16.0185 22.15 18.2C22.15 19.0213 21.8994 19.784 21.4704 20.4158C21.4911 20.4325 21.5111 20.4505 21.5303 20.4697L22.5303 21.4697C22.8232 21.7626 22.8232 22.2374 22.5303 22.5303C22.2374 22.8232 21.7626 22.8232 21.4697 22.5303L20.4697 21.5303C20.4505 21.5111 20.4325 21.4911 20.4158 21.4704C19.784 21.8994 19.0213 22.15 18.2 22.15C16.0185 22.15 14.25 20.3815 14.25 18.2Z" fill="#424B5A"/>
</svg>
