<svg width="24" height="24" viewBox="0 0 24 24" fill="none" xmlns="http://www.w3.org/2000/svg">
<path fill-rule="evenodd" clip-rule="evenodd" d="M2.75 8.5C2.75 6.89295 3.20538 5.86848 3.88534 5.2371C4.57535 4.59637 5.61497 4.25 7 4.25H17C18.385 4.25 19.4246 4.59637 20.1147 5.2371C20.7946 5.86848 21.25 6.89295 21.25 8.5V11.5C21.25 11.9142 21.5858 12.25 22 12.25C22.4142 12.25 22.75 11.9142 22.75 11.5V8.5C22.75 6.60705 22.2054 5.13152 21.1353 4.1379C20.0754 3.15363 18.615 2.75 17 2.75H7C5.38503 2.75 3.92465 3.15363 2.86466 4.1379C1.79462 5.13152 1.25 6.60705 1.25 8.5V15.5C1.25 17.393 1.79462 18.8685 2.86466 19.8621C3.92465 20.8464 5.38503 21.25 7 21.25H12C12.4142 21.25 12.75 20.9142 12.75 20.5C12.75 20.0858 12.4142 19.75 12 19.75H7C5.61497 19.75 4.57535 19.4036 3.88534 18.7629C3.20538 18.1315 2.75 17.107 2.75 15.5V8.5ZM17.4681 9.58605C17.7917 9.32754 17.8445 8.85561 17.586 8.53196C17.3275 8.20832 16.8556 8.15551 16.5319 8.41401L13.4025 10.9135C12.6461 11.5154 11.3446 11.5155 10.588 10.914L7.46898 8.41474C7.14573 8.15573 6.67372 8.2078 6.41471 8.53105C6.1557 8.85429 6.20777 9.3263 6.53102 9.58531L9.65101 12.0853L9.65286 12.0868C10.9563 13.1244 13.0337 13.1244 14.3371 12.0868L17.4681 9.58605ZM20.1334 13.4564C20.7966 13.3883 21.4069 13.6861 21.9504 14.2296C22.4969 14.7762 22.7984 15.3878 22.7326 16.0526C22.6708 16.6777 22.298 17.1627 21.9504 17.5103L21.5435 17.9171C21.4885 17.9994 21.4183 18.0689 21.3379 18.1228L18.4179 21.0427C18.2714 21.1963 18.0911 21.308 17.943 21.382C17.7871 21.46 17.5977 21.5307 17.407 21.5608L17.3946 21.5628L16.0461 21.7524C15.6046 21.8153 15.1486 21.6992 14.8197 21.3703C14.4908 21.0414 14.3746 20.5863 14.4374 20.1447L14.6291 18.783C14.6597 18.5893 14.732 18.401 14.8095 18.2476C14.8871 18.0943 14.9974 17.9219 15.1397 17.7796L18.1604 14.7589C18.1668 14.7523 18.1733 14.7458 18.1799 14.7394L18.6797 14.2396C19.0273 13.892 19.5113 13.5203 20.1334 13.4564ZM18.4686 16.572L16.2017 18.839L16.2015 18.8392C16.2002 18.8407 16.1948 18.847 16.1863 18.8595C16.1744 18.8767 16.161 18.8991 16.148 18.9248C16.135 18.9504 16.1249 18.9746 16.118 18.9944C16.1136 19.0068 16.1116 19.0146 16.1108 19.0176L15.937 20.253L17.173 20.079C17.1762 20.0783 17.1853 20.076 17.2001 20.0709C17.2215 20.0636 17.2466 20.0531 17.2721 20.0404C17.2978 20.0276 17.3182 20.0152 17.3318 20.0057L17.339 20.0005L17.3497 19.9896L19.6158 17.7235C19.1575 17.4238 18.7667 17.0316 18.4686 16.572ZM20.7146 16.6247C20.2117 16.383 19.8075 15.9765 19.5688 15.4718L19.7403 15.3003C20.0027 15.0379 20.1788 14.9596 20.2867 14.9485C20.3535 14.9417 20.5432 14.9438 20.8897 15.2903C21.2431 15.6437 21.2466 15.8371 21.2399 15.9049C21.2293 16.0122 21.1521 16.1873 20.8897 16.4496L20.7146 16.6247Z" fill="#424B5A"/>
</svg>
