<svg width="24" height="24" viewBox="0 0 24 24" fill="none" xmlns="http://www.w3.org/2000/svg">
<path fill-rule="evenodd" clip-rule="evenodd" d="M17.9108 3.72535L18.1925 3.15182C18.2937 2.94793 18.3896 2.83905 18.4524 2.78777C18.4745 2.76977 18.4903 2.76035 18.5 2.75559C18.5097 2.76035 18.5255 2.76977 18.5475 2.78777C18.6103 2.83905 18.7062 2.94793 18.8074 3.15182L18.8079 3.15288L19.0868 3.72062L19.0892 3.72534C19.2239 3.99491 19.4352 4.21463 19.647 4.37305C19.8595 4.53196 20.1272 4.6701 20.4174 4.72627C20.4259 4.72792 20.4345 4.72941 20.443 4.73076L20.8196 4.79022C21.1413 4.84434 21.2334 4.94107 21.2536 4.9684C21.2533 5.00227 21.2361 5.13976 20.9979 5.38133L20.6496 5.72959L20.6385 5.741C20.417 5.97208 20.2771 6.26671 20.201 6.5352C20.1249 6.80315 20.0888 7.12763 20.1572 7.44023L20.2092 7.65873C20.2713 7.93715 20.2682 8.11967 20.2492 8.2211C20.2471 8.23241 20.2449 8.24214 20.2428 8.25046C20.2358 8.24993 20.2279 8.24913 20.219 8.24798C20.1203 8.23524 19.9489 8.18251 19.7059 8.03671L19.4366 7.88134L19.4354 7.88068C19.14 7.70947 18.8002 7.64493 18.5 7.64493C18.1998 7.64493 17.86 7.70946 17.5646 7.88065L17.5634 7.88134L17.3052 8.03027L17.2925 8.03775C17.047 8.18588 16.8738 8.23935 16.7744 8.25232C16.766 8.25342 16.7585 8.2542 16.7518 8.25474C16.7498 8.24673 16.7478 8.23745 16.7459 8.22677C16.7273 8.12469 16.7255 7.94096 16.7901 7.66135L16.8397 7.45363L16.8426 7.44021C16.911 7.1276 16.875 6.80315 16.799 6.5352C16.7228 6.26671 16.5829 5.97208 16.3615 5.741L16.3503 5.72959L16.002 5.38133C15.7638 5.13976 15.7466 5.00227 15.7463 4.9684C15.7665 4.94107 15.8586 4.84434 16.1803 4.79022L16.5569 4.73079L16.5633 4.72973C16.8648 4.67948 17.1398 4.53384 17.35 4.37618C17.5614 4.21763 17.7756 3.99576 17.9108 3.72535ZM20.152 2.487C19.8299 1.83671 19.276 1.25244 18.5 1.25244C17.724 1.25244 17.1701 1.83671 16.8479 2.487L16.5689 3.05487C16.5683 3.05606 16.5661 3.05983 16.5619 3.06597C16.5563 3.07394 16.5482 3.08443 16.5372 3.09685C16.5147 3.12226 16.4848 3.15004 16.45 3.17619C16.415 3.20239 16.3811 3.2224 16.3528 3.23571C16.3308 3.24607 16.3181 3.24957 16.3156 3.25026L16.3154 3.25031L15.943 3.30909L15.9367 3.31014C15.2314 3.42768 14.5446 3.79243 14.3153 4.51232C14.0869 5.22968 14.4321 5.92661 14.9364 6.43705L15.2801 6.78068C15.2811 6.78197 15.2828 6.78398 15.2848 6.78678C15.2857 6.78799 15.2867 6.78935 15.2878 6.79087C15.2938 6.79941 15.3013 6.81139 15.3096 6.82704C15.3266 6.85905 15.3431 6.89946 15.3559 6.94466C15.3688 6.98989 15.3758 7.03247 15.3781 7.06766C15.38 7.09694 15.3781 7.1136 15.3775 7.11833L15.3303 7.31627L15.3293 7.32052C15.1549 8.07275 15.1714 8.97946 15.8516 9.48017C16.534 9.98257 17.4005 9.72266 18.0608 9.3261L18.3147 9.17958L18.3166 9.17852C18.3308 9.17023 18.3956 9.14493 18.5 9.14493C18.6044 9.14493 18.6691 9.17023 18.6834 9.17852L18.6852 9.17958L18.9399 9.32653C19.5962 9.71877 20.4582 9.97606 21.1392 9.47765C21.8183 8.98062 21.8409 8.07837 21.6718 7.32554L21.6225 7.11833C21.6218 7.1136 21.62 7.09694 21.6219 7.06766C21.6241 7.03247 21.6312 6.98989 21.644 6.94466C21.6568 6.89946 21.6733 6.85905 21.6903 6.82704C21.6986 6.81139 21.7061 6.79941 21.7121 6.79087C21.7157 6.78585 21.7183 6.78253 21.7199 6.78068L22.0603 6.44029L22.0635 6.43704C22.5678 5.9266 22.9131 5.22968 22.6846 4.51232C22.4553 3.79243 21.7685 3.42765 21.0633 3.31011L20.6964 3.25219C20.6718 3.24572 20.6139 3.22304 20.5454 3.17182C20.5114 3.1464 20.483 3.11988 20.4617 3.09586C20.4513 3.08412 20.4436 3.07416 20.4383 3.0665C20.4372 3.06491 20.4362 3.06347 20.4354 3.06217C20.4342 3.06039 20.4333 3.05888 20.4326 3.05766L20.4311 3.05507L20.1531 2.48926L20.152 2.487ZM3.88534 5.2371C3.20538 5.86848 2.75 6.89295 2.75 8.5V15.5C2.75 17.107 3.20538 18.1315 3.88534 18.7629C4.57535 19.4036 5.61497 19.75 7 19.75H17C18.385 19.75 19.4246 19.4036 20.1147 18.7629C20.7946 18.1315 21.25 17.107 21.25 15.5V11.5C21.25 11.0858 21.5858 10.75 22 10.75C22.4142 10.75 22.75 11.0858 22.75 11.5V15.5C22.75 17.393 22.2054 18.8685 21.1353 19.8621C20.0754 20.8464 18.615 21.25 17 21.25H7C5.38503 21.25 3.92465 20.8464 2.86466 19.8621C1.79462 18.8685 1.25 17.393 1.25 15.5V8.5C1.25 6.60705 1.79462 5.13152 2.86466 4.1379C3.92465 3.15363 5.38503 2.75 7 2.75H12C12.4142 2.75 12.75 3.08579 12.75 3.5C12.75 3.91421 12.4142 4.25 12 4.25H7C5.61497 4.25 4.57535 4.59637 3.88534 5.2371ZM6.41401 8.53196C6.67252 8.20832 7.14444 8.15551 7.46809 8.41401L10.5972 10.9133C11.3538 11.5152 12.6565 11.5155 13.4129 10.9133C13.737 10.6553 14.2088 10.7088 14.4668 11.0329C14.7248 11.357 14.6712 11.8288 14.3472 12.0868C13.0438 13.1244 10.9663 13.1244 9.6629 12.0868L6.53196 9.58605C6.20832 9.32754 6.15551 8.85561 6.41401 8.53196Z" fill="#424B5A"/>
</svg>
