<svg width="24" height="24" viewBox="0 0 24 24" fill="none" xmlns="http://www.w3.org/2000/svg">
<path fill-rule="evenodd" clip-rule="evenodd" d="M2.75 8.5C2.75 6.89295 3.20538 5.86848 3.88534 5.2371C4.57535 4.59637 5.61497 4.25 7 4.25H17C18.385 4.25 19.4246 4.59637 20.1147 5.2371C20.7946 5.86848 21.25 6.89295 21.25 8.5V15.5C21.25 17.107 20.7946 18.1315 20.1147 18.7629C19.4246 19.4036 18.385 19.75 17 19.75H7C6.58579 19.75 6.25 20.0858 6.25 20.5C6.25 20.9142 6.58579 21.25 7 21.25H17C18.615 21.25 20.0754 20.8464 21.1353 19.8621C22.2054 18.8685 22.75 17.393 22.75 15.5V8.5C22.75 6.60705 22.2054 5.13152 21.1353 4.1379C20.0754 3.15363 18.615 2.75 17 2.75H7C5.38503 2.75 3.92465 3.15363 2.86466 4.1379C1.79462 5.13152 1.25 6.60705 1.25 8.5C1.25 8.91421 1.58579 9.25 2 9.25C2.41421 9.25 2.75 8.91421 2.75 8.5ZM17.4681 9.58605C17.7917 9.32754 17.8445 8.85561 17.586 8.53196C17.3275 8.20832 16.8556 8.15551 16.532 8.41401L13.4025 10.9135C12.6462 11.5154 11.3446 11.5155 10.588 10.914L7.46901 8.41474C7.14576 8.15573 6.67375 8.2078 6.41474 8.53105C6.15573 8.85429 6.2078 9.3263 6.53105 9.58531L9.65104 12.0853L9.65289 12.0868C10.9563 13.1244 13.0338 13.1244 14.3372 12.0868L17.4681 9.58605ZM1.25 16.5C1.25 16.0858 1.58579 15.75 2 15.75H8C8.41421 15.75 8.75 16.0858 8.75 16.5C8.75 16.9142 8.41421 17.25 8 17.25H2C1.58579 17.25 1.25 16.9142 1.25 16.5ZM2 11.75C1.58579 11.75 1.25 12.0858 1.25 12.5C1.25 12.9142 1.58579 13.25 2 13.25H5C5.41421 13.25 5.75 12.9142 5.75 12.5C5.75 12.0858 5.41421 11.75 5 11.75H2Z" fill="#424B5A"/>
</svg>
