<svg width="24" height="24" viewBox="0 0 24 24" fill="none" xmlns="http://www.w3.org/2000/svg">
<path fill-rule="evenodd" clip-rule="evenodd" d="M12.75 3.25C12.75 2.83579 12.4142 2.5 12 2.5C11.5858 2.5 11.25 2.83579 11.25 3.25V20.75C11.25 21.1642 11.5858 21.5 12 21.5C12.4142 21.5 12.75 21.1642 12.75 20.75V3.25ZM7.5 5C7.91421 5 8.25 5.33579 8.25 5.75V18.25C8.25 18.6642 7.91421 19 7.5 19C7.08579 19 6.75 18.6642 6.75 18.25V5.75C6.75 5.33579 7.08579 5 7.5 5ZM3 7.5C3.41421 7.5 3.75 7.83579 3.75 8.25V15.75C3.75 16.1642 3.41421 16.5 3 16.5C2.58579 16.5 2.25 16.1642 2.25 15.75V8.25C2.25 7.83579 2.58579 7.5 3 7.5ZM16.5 5C16.9142 5 17.25 5.33579 17.25 5.75V18.25C17.25 18.6642 16.9142 19 16.5 19C16.0858 19 15.75 18.6642 15.75 18.25V5.75C15.75 5.33579 16.0858 5 16.5 5ZM21.75 8.25C21.75 7.83579 21.4142 7.5 21 7.5C20.5858 7.5 20.25 7.83579 20.25 8.25V15.75C20.25 16.1642 20.5858 16.5 21 16.5C21.4142 16.5 21.75 16.1642 21.75 15.75V8.25Z" fill="#424B5A"/>
</svg>
