<svg width="24" height="24" viewBox="0 0 24 24" fill="none" xmlns="http://www.w3.org/2000/svg">
<path fill-rule="evenodd" clip-rule="evenodd" d="M1.25 12.5C1.25 6.56579 6.06579 1.75 12 1.75C17.9342 1.75 22.75 6.56579 22.75 12.5C22.75 15.4235 21.5779 18.0905 19.6748 20.0259C19.3843 20.3212 18.9095 20.3252 18.6141 20.0348C18.3188 19.7443 18.3148 19.2695 18.6052 18.9741C20.2421 17.3095 21.25 15.0165 21.25 12.5C21.25 7.39421 17.1058 3.25 12 3.25C6.89421 3.25 2.75 7.39421 2.75 12.5C2.75 15.0167 3.74813 17.2913 5.3777 18.9671C5.66646 19.2641 5.65981 19.7389 5.36285 20.0277C5.06588 20.3165 4.59105 20.3098 4.30229 20.0129C2.41186 18.0687 1.25 15.4233 1.25 12.5ZM12 15.49C10.5475 15.49 9.37 16.6675 9.37 18.12C9.37 19.5725 10.5475 20.75 12 20.75C13.4525 20.75 14.63 19.5725 14.63 18.12C14.63 16.6675 13.4525 15.49 12 15.49ZM7.87 18.12C7.87 15.8391 9.71906 13.99 12 13.99C14.2809 13.99 16.13 15.8391 16.13 18.12C16.13 20.4009 14.2809 22.25 12 22.25C9.71907 22.25 7.87 20.4009 7.87 18.12ZM16 8.25C14.769 8.25 13.75 9.25254 13.75 10.5V11.25C13.75 12.0742 14.4258 12.75 15.25 12.75H16C17.231 12.75 18.25 11.7475 18.25 10.5C18.25 9.26579 17.2342 8.25 16 8.25ZM15.25 10.5C15.25 10.0875 15.591 9.75 16 9.75C16.4058 9.75 16.75 10.0942 16.75 10.5C16.75 10.9125 16.409 11.25 16 11.25H15.25V10.5Z" fill="#424B5A"/>
</svg>
