<svg width="154" height="44" viewBox="0 0 154 44" fill="none" xmlns="http://www.w3.org/2000/svg">
<rect x="0.5" y="0.5" width="153" height="43" rx="4.5" stroke="#9747FF" stroke-dasharray="10 5"/>
<path fill-rule="evenodd" clip-rule="evenodd" d="M30.9301 13.8467C30.93 13.8469 30.9302 13.8465 30.9301 13.8467L29.1721 17.3628C28.9847 17.7437 28.6718 18.0691 28.3505 18.3074C28.0282 18.5463 27.6277 18.7493 27.2156 18.8193L27.2129 18.8198L24.0233 19.3497C24.0232 19.3497 24.0234 19.3497 24.0233 19.3497C23.1337 19.498 22.8439 19.8484 22.777 20.058C22.7098 20.2684 22.7433 20.7226 23.3803 21.3596L25.8603 23.8396C26.1827 24.162 26.3984 24.5931 26.5173 25.0085C26.6363 25.4243 26.6808 25.9024 26.5818 26.3439L26.5807 26.3489L25.8707 29.4189C25.6063 30.5616 25.8737 30.9787 26.0096 31.0778C26.146 31.1773 26.6264 31.3048 27.6372 30.7049L30.6328 28.9316C31.0488 28.6896 31.5469 28.5899 32.0037 28.5899C32.4599 28.5899 32.9582 28.6893 33.3721 28.9345C33.372 28.9344 33.3722 28.9346 33.3721 28.9345L36.3614 30.7041C36.3612 30.704 36.3616 30.7043 36.3614 30.7041C37.3806 31.306 37.8605 31.179 37.9944 31.0813C38.1271 30.9846 38.3946 30.57 38.1292 29.4183L37.4181 26.3439C37.3192 25.9024 37.3637 25.4243 37.4827 25.0085C37.6016 24.5931 37.8173 24.162 38.1397 23.8396L40.6197 21.3596L40.6215 21.3578C41.2627 20.7209 41.2943 20.268 41.2272 20.0594C41.1596 19.8491 40.8674 19.4982 39.9771 19.3498C39.9769 19.3497 39.9772 19.3498 39.9771 19.3498L36.7871 18.8198C36.3707 18.7504 35.9671 18.5481 35.6422 18.3084C35.3186 18.0696 35.0054 17.7439 34.818 17.3629L33.0585 13.8439C32.6377 12.9979 32.21 12.8274 31.9987 12.8274C31.7861 12.8274 31.3558 13 30.9301 13.8467ZM34.4012 13.1752C33.872 12.1116 33.0447 11.3274 31.9987 11.3274C30.9539 11.3274 30.1241 12.1102 29.5899 13.1731L27.8292 16.6945L27.8265 16.7C27.7736 16.8078 27.6473 16.9613 27.457 17.1024C27.2674 17.243 27.0834 17.32 26.9655 17.3403C26.9651 17.3404 26.9648 17.3404 26.9644 17.3405L23.7771 17.87C22.627 18.0617 21.6611 18.6214 21.348 19.6017C21.0352 20.5814 21.4967 21.5972 22.3197 22.4202L24.7997 24.9002C24.8973 24.9978 25.0066 25.1817 25.0752 25.4213C25.1434 25.6594 25.1491 25.8754 25.1186 26.0139C25.1184 26.0146 25.1183 26.0152 25.1182 26.0159L24.4093 29.0808C24.4093 29.0808 24.4093 29.0808 24.4093 29.0808C24.1138 30.3581 24.2163 31.6261 25.1254 32.2895C26.034 32.9525 27.2736 32.665 28.4028 31.9949L31.3872 30.2282C31.3878 30.2278 31.3884 30.2274 31.389 30.2271C31.5233 30.1496 31.7444 30.0899 32.0037 30.0899C32.265 30.0899 32.4816 30.1504 32.6076 30.2251L35.5979 31.9953C36.7284 32.6631 37.9696 32.9558 38.8781 32.2934C39.7879 31.6302 39.8854 30.3597 39.5908 29.0815L38.8818 26.0159C38.8817 26.0152 38.8815 26.0146 38.8814 26.0139C38.8509 25.8754 38.8566 25.6594 38.9248 25.4213C38.9934 25.1817 39.1027 24.9978 39.2003 24.9002L41.6785 22.422C41.6789 22.4217 41.6792 22.4214 41.6795 22.421C42.5077 21.598 42.9706 20.5814 42.6553 19.6004C42.3404 18.6207 41.3726 18.0617 40.2233 17.8701L37.0333 17.3401C37.0332 17.3401 37.0334 17.3401 37.0333 17.3401M34.4012 13.1752C34.4011 13.175 34.4013 13.1755 34.4012 13.1752V13.1752Z" fill="#424B5A"/>
<path fill-rule="evenodd" clip-rule="evenodd" d="M79.4012 13.1752C78.872 12.1116 78.0447 11.3274 76.9987 11.3274C75.9539 11.3274 75.1241 12.1102 74.5899 13.1731L72.8292 16.6945L72.8265 16.7C72.7736 16.8078 72.6473 16.9613 72.457 17.1024C72.2674 17.243 72.0834 17.32 71.9655 17.3403L71.9644 17.3405L68.7771 17.87C67.627 18.0617 66.6611 18.6214 66.348 19.6017C66.0352 20.5814 66.4967 21.5972 67.3197 22.4202L69.7997 24.9002C69.8973 24.9978 70.0066 25.1817 70.0752 25.4213C70.1434 25.6594 70.1491 25.8754 70.1186 26.0139L70.1182 26.0159L69.4093 29.0808C69.1138 30.3581 69.2163 31.6261 70.1254 32.2895C71.034 32.9525 72.2736 32.665 73.4028 31.9949L76.3872 30.2282L76.389 30.2271C76.5233 30.1496 76.7444 30.0899 77.0037 30.0899C77.265 30.0899 77.4816 30.1504 77.6076 30.2251L80.5979 31.9953C81.7284 32.6631 82.9696 32.9558 83.8781 32.2934C84.7879 31.6302 84.8854 30.3597 84.5908 29.0815L83.8818 26.0159L83.8814 26.0139C83.8509 25.8754 83.8566 25.6594 83.9248 25.4213C83.9934 25.1817 84.1027 24.9978 84.2003 24.9002L86.6785 22.422L86.6795 22.421C87.5077 21.598 87.9706 20.5814 87.6553 19.6004C87.3404 18.6207 86.3726 18.0617 85.2233 17.8701L82.0333 17.3401" fill="#424B5A"/>
<path fill-rule="evenodd" clip-rule="evenodd" d="M122 16V18.5C122 19 122 21 122 21V22V22.5V23V23.5V24V25C122 25.5 122 25.5 122 26V26.5V27.5V28V28.5C122 28 122.004 28.5899 122.004 28.5899C122.46 28.5899 122.958 28.6893 123.372 28.9345L126.361 30.7041C127.381 31.306 127.86 31.179 127.994 31.0813C128.127 30.9846 128.395 30.57 128.129 29.4183L127.418 26.3439C127.319 25.9024 127.364 25.4243 127.483 25.0085C127.602 24.5931 127.817 24.162 128.14 23.8396L130.62 21.3596L130.622 21.3578C131.263 20.7209 131.294 20.268 131.227 20.0594C131.16 19.8491 130.867 19.4982 129.977 19.3498L126.787 18.8198C126.371 18.7504 125.967 18.5481 125.642 18.3084C125.319 18.0696 125.005 17.7439 124.818 17.3629L123.059 13.8439C122.638 12.9979 122.21 12.8274 121.999 12.8274C121.999 12.8274 122 15 122 16ZM124.401 13.1752C123.872 12.1116 123.045 11.3274 121.999 11.3274C120.954 11.3274 120.124 12.1102 119.59 13.1731L117.829 16.6945L117.826 16.7C117.774 16.8078 117.647 16.9613 117.457 17.1024C117.267 17.243 117.083 17.32 116.966 17.3403L116.964 17.3405L113.777 17.87C112.627 18.0617 111.661 18.6214 111.348 19.6017C111.035 20.5814 111.497 21.5972 112.32 22.4202L114.8 24.9002C114.897 24.9978 115.007 25.1817 115.075 25.4213C115.143 25.6594 115.149 25.8754 115.119 26.0139L115.118 26.0159L114.409 29.0808C114.114 30.3581 114.216 31.6261 115.125 32.2895C116.034 32.9525 117.274 32.665 118.403 31.9949L121.387 30.2282L121.389 30.2271C121.523 30.1496 121.744 30.0899 122.004 30.0899C122.265 30.0899 122.482 30.1504 122.608 30.2251L125.598 31.9953C126.728 32.6631 127.97 32.9558 128.878 32.2934C129.788 31.6302 129.885 30.3597 129.591 29.0815L128.882 26.0159L128.881 26.0139C128.851 25.8754 128.857 25.6594 128.925 25.4213C128.993 25.1817 129.103 24.9978 129.2 24.9002L131.679 22.422L131.68 22.421C132.508 21.598 132.971 20.5814 132.655 19.6004C132.34 18.6207 131.373 18.0617 130.223 17.8701L127.033 17.3401" fill="#424B5A"/>
</svg>
