<svg width="24" height="24" viewBox="0 0 24 24" fill="none" xmlns="http://www.w3.org/2000/svg">
<path fill-rule="evenodd" clip-rule="evenodd" d="M13.3035 5.54012C13.6256 4.88288 13.9239 4.8125 14.0025 4.8125C14.0845 4.8125 14.3881 4.88788 14.7201 5.54716L16.1277 8.36244C16.2909 8.6952 16.5602 8.97092 16.8297 9.16976C17.1018 9.37046 17.4401 9.54171 17.7928 9.60734L17.8081 9.61002L20.3581 10.03C21.0431 10.1436 21.2068 10.402 21.2357 10.4925C21.2652 10.5844 21.2812 10.8935 20.7884 11.3909L20.7874 11.3919L18.7997 13.3797C18.522 13.6573 18.3389 14.0261 18.2389 14.3765C18.1386 14.7274 18.0986 15.1411 18.1898 15.5309L18.7594 17.9895C18.969 18.8931 18.7381 19.1421 18.7076 19.1644C18.6774 19.1865 18.3706 19.3309 17.5742 18.8559L15.1852 17.4365C14.8245 17.2193 14.3945 17.135 14.01 17.135C13.6255 17.135 13.1955 17.2193 12.8348 17.4365L10.4478 18.8547C9.65117 19.325 9.34287 19.1828 9.31124 19.1598C9.28221 19.1387 9.05096 18.8933 9.26065 17.9893L9.83015 15.5315C9.92218 15.1437 9.8806 14.732 9.78116 14.384C9.68118 14.034 9.49962 13.6672 9.22826 13.3876L7.23035 11.3897C6.73833 10.8976 6.75505 10.5913 6.7843 10.5C6.81397 10.4073 6.98019 10.1477 7.66458 10.0296L10.2113 9.61011C10.5763 9.55052 10.9211 9.37379 11.1927 9.17175C11.4633 8.97042 11.7305 8.69249 11.8923 8.36244L13.3009 5.54542L13.3035 5.54012ZM16.06 4.87284C15.6222 4.00289 14.9205 3.3125 14.0025 3.3125C13.0821 3.3125 12.3859 4.00564 11.9579 4.87709L10.5492 7.69456L10.5458 7.70151C10.5174 7.75972 10.4356 7.86537 10.2974 7.96823C10.1592 8.07104 10.0342 8.1192 9.9695 8.12973L7.41813 8.54994L7.41305 8.55081C6.46946 8.7129 5.63104 9.18278 5.35575 10.0425C5.08 10.9037 5.49172 11.7723 6.16969 12.4503L8.15457 14.4352C8.21289 14.4968 8.28963 14.6237 8.33887 14.796C8.38918 14.9721 8.38765 15.1142 8.37058 15.1856L8.36938 15.1907L7.79937 17.6507C7.55911 18.6866 7.62285 19.7864 8.42877 20.3727C9.23212 20.9572 10.2986 20.6849 11.2114 20.1458L11.2131 20.1448L13.6031 18.7248L13.6081 18.7218C13.6768 18.6803 13.8205 18.635 14.01 18.635C14.1995 18.635 14.3432 18.6803 14.4119 18.7218L16.8058 20.1441L16.8069 20.1448C17.7203 20.6893 18.788 20.9633 19.5924 20.3756C20.3968 19.788 20.4609 18.6868 20.2206 17.6505L19.6507 15.1907L19.6503 15.1891C19.6316 15.1091 19.6315 14.9625 19.6812 14.7885C19.7311 14.6138 19.808 14.4927 19.8603 14.4403L21.8503 12.4503L21.8526 12.4481C22.5288 11.7661 22.9398 10.8955 22.6643 10.035C22.3883 9.17302 21.5464 8.7064 20.6019 8.54996L18.0617 8.13158C17.9838 8.11576 17.8551 8.06216 17.7203 7.96272C17.5808 7.85985 17.5013 7.75696 17.4743 7.7015L16.0609 4.87459L16.06 4.87284ZM2 4.25C1.58579 4.25 1.25 4.58579 1.25 5C1.25 5.41421 1.58579 5.75 2 5.75H8C8.41421 5.75 8.75 5.41421 8.75 5C8.75 4.58579 8.41421 4.25 8 4.25H2ZM1.25 19C1.25 18.5858 1.58579 18.25 2 18.25H5C5.41421 18.25 5.75 18.5858 5.75 19C5.75 19.4142 5.41421 19.75 5 19.75H2C1.58579 19.75 1.25 19.4142 1.25 19ZM2 11.25C1.58579 11.25 1.25 11.5858 1.25 12C1.25 12.4142 1.58579 12.75 2 12.75H3C3.41421 12.75 3.75 12.4142 3.75 12C3.75 11.5858 3.41421 11.25 3 11.25H2Z" fill="#424B5A"/>
</svg>
