<svg width="24" height="24" viewBox="0 0 24 24" fill="none" xmlns="http://www.w3.org/2000/svg">
<path fill-rule="evenodd" clip-rule="evenodd" d="M22.5304 2.53033C22.8233 2.23744 22.8233 1.76256 22.5304 1.46967C22.2375 1.17678 21.7626 1.17678 21.4697 1.46967L16.1905 6.7489C16.1808 6.73351 16.1729 6.7193 16.1667 6.70636L14.4009 3.17459L14.4001 3.17319C13.8659 2.11035 13.0361 1.3275 11.9913 1.3275C10.9453 1.3275 10.1177 2.11235 9.58851 3.176L7.82919 6.69458L7.82648 6.7001C7.77366 6.80796 7.64737 6.96145 7.45708 7.10254C7.26744 7.24315 7.08346 7.32011 6.96553 7.3404L6.96447 7.34059L3.77673 7.8702C2.62663 8.06189 1.66112 8.62153 1.34807 9.60185C1.03526 10.5815 1.4967 11.5973 2.3197 12.4203L4.7997 14.9003C4.89731 14.9979 5.00666 15.1818 5.07524 15.4214C5.14342 15.6596 5.14917 15.8756 5.11859 16.0141L5.11819 16.016L4.5766 18.3628L1.4697 21.4697C1.17681 21.7626 1.17681 22.2374 1.4697 22.5303C1.76259 22.8232 2.23747 22.8232 2.53036 22.5303L22.5304 2.53033ZM6.57787 16.3615L15.1208 7.81859C15.0045 7.68137 14.8978 7.52815 14.8167 7.36033L13.0599 3.84681C12.6342 3.00014 12.2039 2.8275 11.9913 2.8275C11.78 2.8275 11.3523 2.99798 10.9316 3.844L9.17209 7.36293C8.98475 7.74377 8.67184 8.06918 8.35048 8.30746C8.02819 8.54643 7.6277 8.74943 7.21559 8.81942L7.21295 8.81986L4.02333 9.3498C3.13373 9.49815 2.84393 9.8485 2.77699 10.0581C2.7098 10.2685 2.74336 10.7227 3.38036 11.3597L5.86036 13.8397C6.18275 14.1621 6.3984 14.5932 6.51732 15.0086C6.63633 15.4244 6.68084 15.9025 6.58187 16.344L6.58084 16.3486L6.57787 16.3615ZM19.3602 8.4867C19.4283 8.07812 19.8148 7.80211 20.2233 7.8702C21.3727 8.06176 22.3404 8.62079 22.6553 9.60049C22.9706 10.5815 22.5077 11.5982 21.6795 12.4212L21.6785 12.4221L19.2004 14.9003C19.1028 14.9979 18.9934 15.1818 18.9248 15.4214C18.8567 15.6595 18.8509 15.8755 18.8814 16.014L19.5907 19.081C19.8853 20.3593 19.7879 21.6303 18.8781 22.2936C17.9696 22.9559 16.729 22.6635 15.5986 21.9958L12.608 20.2254C12.4819 20.1507 12.2651 20.09 12.0038 20.09C11.7444 20.09 11.5234 20.1497 11.3892 20.2271L8.40209 21.9954C8.04565 22.2064 7.58564 22.0885 7.37464 21.7321C7.16363 21.3756 7.28153 20.9156 7.63797 20.7046L10.6328 18.9317C11.0488 18.6897 11.5469 18.59 12.0038 18.59C12.46 18.59 12.9584 18.6895 13.3724 18.9348L16.3615 20.7042C17.381 21.3065 17.8605 21.1791 17.9945 21.0815C18.1272 20.9847 18.3946 20.5702 18.1292 19.4184L17.4182 16.344C17.3192 15.9025 17.3637 15.4244 17.4827 15.0086C17.6017 14.5932 17.8173 14.1621 18.1397 13.8397L20.6197 11.3597L20.6215 11.3579C21.2627 10.721 21.2943 10.2681 21.2273 10.0595C21.1597 9.84921 20.8674 9.49824 19.9767 9.3498C19.5682 9.2817 19.2921 8.89528 19.3602 8.4867Z" fill="#424B5A"/>
</svg>
