<svg width="24" height="24" viewBox="0 0 24 24" fill="none" xmlns="http://www.w3.org/2000/svg">
<path fill-rule="evenodd" clip-rule="evenodd" d="M12 2.75C7.20828 2.75 3.26783 6.38518 2.79619 11.0554C2.75457 11.4675 2.38674 11.7678 1.97462 11.7262C1.56251 11.6846 1.26216 11.3168 1.30378 10.9046C1.85214 5.47482 6.43168 1.25 12 1.25C17.5689 1.25 22.1478 5.48538 22.6962 10.9045C22.7379 11.3166 22.4376 11.6845 22.0255 11.7262C21.6134 11.7679 21.2455 11.4676 21.2038 11.0555C20.7322 6.39462 16.7911 2.75 12 2.75ZM2.22722 14.2538C2.62274 14.1308 3.04311 14.3517 3.16613 14.7472C4.15591 17.9293 6.82123 20.3805 10.1298 21.0551C10.5357 21.1379 10.7976 21.534 10.7149 21.9398C10.6321 22.3457 10.236 22.6076 9.83013 22.5249C5.97874 21.7395 2.88405 18.8907 1.73382 15.1928C1.6108 14.7972 1.8317 14.3769 2.22722 14.2538ZM22.2548 15.2471C22.3802 14.8524 22.1619 14.4307 21.7671 14.3052C21.3724 14.1798 20.9507 14.3981 20.8252 14.7929C19.8166 17.9667 17.1606 20.3902 13.8597 21.0652C13.4539 21.1482 13.1922 21.5444 13.2752 21.9503C13.3582 22.3561 13.7544 22.6178 14.1602 22.5348C17.9994 21.7498 21.0833 18.9333 22.2548 15.2471Z" fill="#424B5A"/>
</svg>
