<svg width="24" height="24" viewBox="0 0 24 24" fill="none" xmlns="http://www.w3.org/2000/svg">
<path fill-rule="evenodd" clip-rule="evenodd" d="M11.97 2.75C6.86134 2.75 2.71997 6.89137 2.71997 12C2.71997 17.1086 6.86134 21.25 11.97 21.25C17.0786 21.25 21.22 17.1086 21.22 12C21.22 6.89137 17.0786 2.75 11.97 2.75ZM1.21997 12C1.21997 6.06294 6.03291 1.25 11.97 1.25C17.907 1.25 22.72 6.06294 22.72 12C22.72 17.9371 17.907 22.75 11.97 22.75C6.03291 22.75 1.21997 17.9371 1.21997 12Z" fill="#424B5A"/>
<path fill-rule="evenodd" clip-rule="evenodd" d="M7.92394 7.92912C8.60844 7.24282 9.59571 7.02 10.73 7.02H13.27C14.3982 7.02 15.385 7.23989 16.0709 7.92397C16.7571 8.60847 16.98 9.59574 16.98 10.73V13.27C16.98 14.3983 16.7601 15.385 16.076 16.0709C15.3915 16.7572 14.4042 16.98 13.27 16.98H10.73C9.59971 16.98 8.61356 16.7567 7.92839 16.0716C7.24322 15.3864 7.01997 14.4003 7.01997 13.27V10.73C7.01997 9.60175 7.23987 8.615 7.92394 7.92912ZM8.986 8.98838C8.72008 9.255 8.51997 9.74825 8.51997 10.73V13.27C8.51997 14.2497 8.72172 14.7436 8.98905 15.0109C9.25638 15.2783 9.75024 15.48 10.73 15.48H13.27C14.2557 15.48 14.7484 15.2778 15.0139 15.0116C15.2799 14.745 15.48 14.2517 15.48 13.27V10.73C15.48 9.74426 15.2778 9.25153 15.0116 8.98603C14.745 8.72011 14.2517 8.52 13.27 8.52H10.73C9.74423 8.52 9.2515 8.72218 8.986 8.98838Z" fill="#424B5A"/>
</svg>
