<svg width="24" height="24" viewBox="0 0 24 24" fill="none" xmlns="http://www.w3.org/2000/svg">
<path fill-rule="evenodd" clip-rule="evenodd" d="M12 3.10986C9.85381 3.10986 7.88525 3.83982 6.31213 5.07056C5.98589 5.32579 5.51452 5.26823 5.25929 4.942C5.00406 4.61576 5.06162 4.14439 5.38785 3.88916C7.21473 2.4599 9.50616 1.60986 12 1.60986C14.4429 1.60986 16.691 2.43915 18.4945 3.81328C18.824 4.06431 18.8876 4.5349 18.6366 4.86438C18.3855 5.19386 17.9149 5.25746 17.5855 5.00642C16.029 3.82055 14.0971 3.10986 12 3.10986ZM8.11031 8.4802C10.2574 6.3331 13.7426 6.3331 15.8897 8.4802C18.0368 10.6273 18.0368 14.1124 15.8897 16.2595C13.7426 18.4066 10.2574 18.4066 8.11031 16.2595C5.96321 14.1124 5.96321 10.6273 8.11031 8.4802ZM16.9503 7.41954C14.2174 4.68665 9.78255 4.68665 7.04965 7.41954C4.31676 10.1524 4.31676 14.5873 7.04965 17.3202C9.78255 20.0531 14.2174 20.0531 16.9503 17.3202C19.6832 14.5873 19.6832 10.1524 16.9503 7.41954ZM2.83379 11.226C2.88686 10.8152 2.59687 10.4391 2.18607 10.3861C1.77527 10.333 1.39922 10.623 1.34616 11.0338C1.05608 13.2792 1.46441 15.6358 2.69039 17.7548C3.93723 19.9152 5.82033 21.4758 7.97143 22.3363C8.35602 22.4901 8.7925 22.303 8.94634 21.9184C9.10017 21.5338 8.91311 21.0974 8.52852 20.9435C6.67963 20.204 5.06272 18.8645 3.98956 17.005L3.98912 17.0042C2.93544 15.1834 2.5839 13.1603 2.83379 11.226ZM22.6538 11.0338C22.6007 10.623 22.2247 10.333 21.8139 10.3861C21.4031 10.4391 21.1131 10.8152 21.1662 11.226C21.4161 13.1603 21.0645 15.1834 20.0108 17.0042L20.0104 17.005C18.9372 18.8645 17.3203 20.204 15.4714 20.9435C15.0869 21.0974 14.8998 21.5338 15.0536 21.9184C15.2075 22.303 15.6439 22.4901 16.0285 22.3363C18.1795 21.4759 20.0625 19.9154 21.3094 17.7551C22.5355 15.6361 22.9439 13.2793 22.6538 11.0338Z" fill="#424B5A"/>
</svg>
