<svg width="24" height="24" viewBox="0 0 24 24" fill="none" xmlns="http://www.w3.org/2000/svg">
<path fill-rule="evenodd" clip-rule="evenodd" d="M9 1.25C6.42603 1.25 4.42914 1.7602 3.09467 3.09467C1.7602 4.42914 1.25 6.42603 1.25 9V15C1.25 17.574 1.7602 19.5709 3.09467 20.9053C4.42914 22.2398 6.42603 22.75 9 22.75H15C17.574 22.75 19.5709 22.2398 20.9053 20.9053C22.2398 19.5709 22.75 17.574 22.75 15V9C22.75 6.42603 22.2398 4.42914 20.9053 3.09467C19.5709 1.7602 17.574 1.25 15 1.25H9ZM2.75 9C2.75 6.57397 3.2398 5.07086 4.15533 4.15533C5.07086 3.2398 6.57397 2.75 9 2.75H15C17.426 2.75 18.9291 3.2398 19.8447 4.15533C20.7602 5.07086 21.25 6.57397 21.25 9V15C21.25 17.426 20.7602 18.9291 19.8447 19.8447C18.9291 20.7602 17.426 21.25 15 21.25H9C6.57397 21.25 5.07086 20.7602 4.15533 19.8447C3.2398 18.9291 2.75 17.426 2.75 15V9ZM8 4.25C6.88439 4.25 5.90993 4.52941 5.21967 5.21967C4.52941 5.90993 4.25 6.88439 4.25 8V9.5V14.5V16C4.25 17.1156 4.52941 18.0901 5.21967 18.7803C5.90993 19.4706 6.88439 19.75 8 19.75H16C17.1156 19.75 18.0901 19.4706 18.7803 18.7803C19.4706 18.0901 19.75 17.1156 19.75 16V14V9.98999V8C19.75 6.88439 19.4706 5.90993 18.7803 5.21967C18.0901 4.52941 17.1156 4.25 16 4.25H8ZM16 13.25H18.25V10.74H16C15.5858 10.74 15.25 10.4042 15.25 9.98999C15.25 9.57578 15.5858 9.23999 16 9.23999H18.25V8C18.25 7.11561 18.0294 6.59007 17.7197 6.28033C17.4099 5.97059 16.8844 5.75 16 5.75H8C7.11561 5.75 6.59007 5.97059 6.28033 6.28033C5.97059 6.59007 5.75 7.11561 5.75 8V8.75H7.48C9.27421 8.75 10.73 10.2058 10.73 12C10.73 13.7942 9.27421 15.25 7.48 15.25H5.75V16C5.75 16.8844 5.97059 17.4099 6.28033 17.7197C6.59007 18.0294 7.11561 18.25 8 18.25H16C16.8844 18.25 17.4099 18.0294 17.7197 17.7197C18.0294 17.4099 18.25 16.8844 18.25 16V14.75H16C15.5858 14.75 15.25 14.4142 15.25 14C15.25 13.5858 15.5858 13.25 16 13.25ZM5.75 13.75V10.25H7.48C8.44578 10.25 9.23 11.0342 9.23 12C9.23 12.9658 8.44578 13.75 7.48 13.75H5.75ZM7.2002 11C6.64791 11 6.2002 11.4477 6.2002 12C6.2002 12.5523 6.64791 13 7.2002 13H7.3002C7.85248 13 8.3002 12.5523 8.3002 12C8.3002 11.4477 7.85248 11 7.3002 11H7.2002Z" fill="#424B5A"/>
</svg>
