<svg width="24" height="24" viewBox="0 0 24 24" fill="none" xmlns="http://www.w3.org/2000/svg">
<path fill-rule="evenodd" clip-rule="evenodd" d="M9 1.25C6.42603 1.25 4.42914 1.7602 3.09467 3.09467C1.7602 4.42914 1.25 6.42603 1.25 9V15C1.25 17.574 1.7602 19.5709 3.09467 20.9053C4.42914 22.2398 6.42603 22.75 9 22.75H15C17.574 22.75 19.5709 22.2398 20.9053 20.9053C22.2398 19.5709 22.75 17.574 22.75 15V9C22.75 6.42603 22.2398 4.42914 20.9053 3.09467C19.5709 1.7602 17.574 1.25 15 1.25H9ZM2.75 9C2.75 6.57397 3.2398 5.07086 4.15533 4.15533C5.07086 3.2398 6.57397 2.75 9 2.75H15C17.426 2.75 18.9291 3.2398 19.8447 4.15533C20.7602 5.07086 21.25 6.57397 21.25 9V10.1602H15.1074C15.0901 10.0229 15.0632 9.88469 15.0256 9.74626C14.746 8.68644 13.8928 7.83373 12.8327 7.55499C10.9098 7.04454 9.12878 8.35525 8.89663 10.16H2.75V9ZM2.75 11.66V15C2.75 17.426 3.2398 18.9291 4.15533 19.8447C5.07086 20.7602 6.57397 21.25 9 21.25H15C17.426 21.25 18.9291 20.7602 19.8447 19.8447C20.7602 18.9291 21.25 17.426 21.25 15V11.6602H14.9298C14.737 12.1752 14.4114 12.6208 14.0011 12.9619V14.5601C14.0011 15.6643 13.1053 16.5601 12.0011 16.5601C10.8969 16.5601 10.0011 15.6643 10.0011 14.5601V12.9619C9.59074 12.6208 9.26516 12.1751 9.07238 11.66H2.75ZM10.3711 10.5601C10.3711 9.52557 11.3512 8.71329 12.4484 9.00495L12.4507 9.00554C12.9889 9.14681 13.4344 9.59235 13.5756 10.1306L13.5775 10.1375C13.6375 10.3575 13.6448 10.5791 13.6107 10.7907L13.6095 10.7981L13.6084 10.8055C13.5413 11.2819 13.2584 11.6929 12.8556 11.9429L12.5011 12.1629V14.5601C12.5011 14.8359 12.2769 15.0601 12.0011 15.0601C11.7253 15.0601 11.5011 14.8359 11.5011 14.5601V12.1629L11.1466 11.9429C10.7438 11.6929 10.4609 11.2819 10.3938 10.8055L10.3917 10.7907L10.389 10.776C10.3779 10.7151 10.3711 10.6403 10.3711 10.5601Z" fill="#424B5A"/>
</svg>
