<svg width="24" height="24" viewBox="0 0 24 24" fill="none" xmlns="http://www.w3.org/2000/svg">
<path fill-rule="evenodd" clip-rule="evenodd" d="M3.09467 3.09467C4.42914 1.7602 6.42603 1.25 9 1.25H15C17.574 1.25 19.5709 1.7602 20.9053 3.09467C22.2398 4.42914 22.75 6.42603 22.75 9V15C22.75 17.574 22.2398 19.5709 20.9053 20.9053C19.5709 22.2398 17.574 22.75 15 22.75H9C6.42603 22.75 4.42914 22.2398 3.09467 20.9053C1.7602 19.5709 1.25 17.574 1.25 15V9C1.25 6.42603 1.7602 4.42914 3.09467 3.09467ZM4.15533 4.15533C3.2398 5.07086 2.75 6.57397 2.75 9V15C2.75 17.426 3.2398 18.9291 4.15533 19.8447C5.07086 20.7602 6.57397 21.25 9 21.25H15C17.426 21.25 18.9291 20.7602 19.8447 19.8447C20.7602 18.9291 21.25 17.426 21.25 15V9C21.25 6.57397 20.7602 5.07086 19.8447 4.15533C18.9291 3.2398 17.426 2.75 15 2.75H9C6.57397 2.75 5.07086 3.2398 4.15533 4.15533Z" fill="#424B5A"/>
<path fill-rule="evenodd" clip-rule="evenodd" d="M14.9 17.08C14.9 16.6658 15.2358 16.33 15.65 16.33H17.5C17.9142 16.33 18.25 16.6658 18.25 17.08C18.25 17.4942 17.9142 17.83 17.5 17.83H15.65C15.2358 17.83 14.9 17.4942 14.9 17.08Z" fill="#424B5A"/>
<path fill-rule="evenodd" clip-rule="evenodd" d="M5.75 17.08C5.75 16.6658 6.08579 16.33 6.5 16.33H12.97C13.3842 16.33 13.72 16.6658 13.72 17.08C13.72 17.4942 13.3842 17.83 12.97 17.83H6.5C6.08579 17.83 5.75 17.4942 5.75 17.08Z" fill="#424B5A"/>
<path fill-rule="evenodd" clip-rule="evenodd" d="M11.22 13.32C11.22 12.9058 11.5558 12.57 11.97 12.57H17.5C17.9142 12.57 18.25 12.9058 18.25 13.32C18.25 13.7342 17.9142 14.07 17.5 14.07H11.97C11.5558 14.07 11.22 13.7342 11.22 13.32Z" fill="#424B5A"/>
<path fill-rule="evenodd" clip-rule="evenodd" d="M5.75 13.32C5.75 12.9058 6.08579 12.57 6.5 12.57H9.27C9.68421 12.57 10.02 12.9058 10.02 13.32C10.02 13.7342 9.68421 14.07 9.27 14.07H6.5C6.08579 14.07 5.75 13.7342 5.75 13.32Z" fill="#424B5A"/>
</svg>
