<svg width="24" height="24" viewBox="0 0 24 24" fill="none" xmlns="http://www.w3.org/2000/svg">
<path fill-rule="evenodd" clip-rule="evenodd" d="M9.99996 2.25C9.58575 2.25 9.24996 2.58579 9.24996 3C9.24996 3.41421 9.58575 3.75 9.99996 3.75H11.25V7.81615C10.2564 7.99354 9.38165 8.51719 8.75434 9.25926L5.23471 7.22586L5.85929 6.14534C6.06658 5.78673 5.94391 5.32797 5.5853 5.12068C5.22668 4.91339 4.76793 5.03606 4.56064 5.39467L3.56055 7.12481L2.56064 8.85466C2.35335 9.21327 2.47602 9.67203 2.83463 9.87932C3.19324 10.0866 3.652 9.96394 3.85929 9.60533L4.48404 8.52451L8.00231 10.5571C7.83893 11.0072 7.74996 11.4911 7.74996 12C7.74996 12.5089 7.83893 12.9928 8.00231 13.4429L4.48404 15.4755L3.85929 14.3947C3.652 14.0361 3.19324 13.9134 2.83463 14.1207C2.47602 14.328 2.35335 14.7867 2.56064 15.1453L3.56055 16.8752L4.56064 18.6053C4.76793 18.9639 5.22668 19.0866 5.5853 18.8793C5.94391 18.672 6.06658 18.2133 5.85929 17.8547L5.23471 16.7741L8.75434 14.7407C9.38165 15.4828 10.2564 16.0065 11.25 16.1839V20.25H9.99996C9.58575 20.25 9.24996 20.5858 9.24996 21C9.24996 21.4142 9.58575 21.75 9.99996 21.75H12H14C14.4142 21.75 14.75 21.4142 14.75 21C14.75 20.5858 14.4142 20.25 14 20.25H12.75V16.1839C13.7436 16.0065 14.6183 15.4828 15.2456 14.7407L18.7652 16.7741L18.1406 17.8547C17.9333 18.2133 18.056 18.672 18.4146 18.8793C18.7732 19.0866 19.232 18.9639 19.4393 18.6053L20.4394 16.8752L21.4393 15.1453C21.6466 14.7867 21.5239 14.328 21.1653 14.1207C20.8067 13.9134 20.3479 14.0361 20.1406 14.3947L19.5159 15.4755L15.9976 13.4429C16.161 12.9928 16.25 12.5089 16.25 12C16.25 11.4911 16.161 11.0072 15.9976 10.5571L19.5159 8.52451L20.1406 9.60533C20.3479 9.96394 20.8067 10.0866 21.1653 9.87932C21.5239 9.67203 21.6466 9.21327 21.4393 8.85466L20.4394 7.12492L20.4394 7.12481L20.4391 7.12441L19.4393 5.39467C19.232 5.03606 18.7732 4.91339 18.4146 5.12068C18.056 5.32797 17.9333 5.78673 18.1406 6.14534L18.7652 7.22586L15.2456 9.25926C14.6183 8.51719 13.7436 7.99354 12.75 7.81615V3.75H14C14.4142 3.75 14.75 3.41421 14.75 3C14.75 2.58579 14.4142 2.25 14 2.25H12H9.99996ZM12 14.75C13.0109 14.75 13.8991 14.2027 14.3809 13.3743C14.6176 12.9636 14.75 12.5026 14.75 12C14.75 11.4975 14.6176 11.0364 14.3809 10.6258C13.8992 9.79733 13.0109 9.25 12 9.25C10.989 9.25 10.1008 9.79733 9.61902 10.6258C9.38235 11.0364 9.24996 11.4975 9.24996 12C9.24996 12.5026 9.38236 12.9636 9.61905 13.3743C10.1008 14.2027 10.989 14.75 12 14.75Z" fill="#424B5A"/>
</svg>
