<svg width="24" height="24" viewBox="0 0 24 24" fill="none" xmlns="http://www.w3.org/2000/svg">
<path fill-rule="evenodd" clip-rule="evenodd" d="M6.02459 4.88603C7.11755 3.67847 8.65968 3 10.28 3H17C20.1743 3 22.75 5.57579 22.75 8.75V15.25C22.75 18.4242 20.1743 21 17 21H10.28C8.65964 21 7.11748 20.3215 6.02451 19.1139L2.49528 15.2347C0.825001 13.3986 0.824969 10.6014 2.49524 8.76532L6.02389 4.88681L6.02459 4.88603ZM10.28 4.5C9.08075 4.5 7.94319 5.00124 7.13619 5.89318L7.1348 5.89472L3.60483 9.77468C2.45515 11.0386 2.45512 12.9614 3.6048 14.2253L7.13619 18.1068C7.94319 18.9988 9.08075 19.5 10.28 19.5H17C19.3458 19.5 21.25 17.5958 21.25 15.25V8.75C21.25 6.40421 19.3458 4.5 17 4.5H10.28ZM10.5297 8.99967C10.8226 8.70678 11.2975 8.70678 11.5904 8.99967L13.53 10.9393L15.4697 8.99967C15.7626 8.70678 16.2375 8.70678 16.5304 8.99967C16.8233 9.29256 16.8233 9.76744 16.5304 10.0603L14.5907 12L16.5304 13.9397C16.8233 14.2326 16.8233 14.7074 16.5304 15.0003C16.2375 15.2932 15.7626 15.2932 15.4697 15.0003L13.53 13.0607L11.5904 15.0003C11.2975 15.2932 10.8226 15.2932 10.5297 15.0003C10.2368 14.7074 10.2368 14.2326 10.5297 13.9397L12.4694 12L10.5297 10.0603C10.2368 9.76744 10.2368 9.29256 10.5297 8.99967Z" fill="#424B5A"/>
</svg>
