<svg width="24" height="24" viewBox="0 0 24 24" fill="none" xmlns="http://www.w3.org/2000/svg">
<path fill-rule="evenodd" clip-rule="evenodd" d="M4.21992 3.8501C3.06356 3.8501 2.36133 5.1265 2.96572 6.09221L5.73531 10.5216C5.73518 10.5214 5.73545 10.5218 5.73531 10.5216C6.01135 10.9621 6.12742 11.4964 6.12742 11.9901C6.12742 12.4839 6.01171 13.0176 5.73558 13.4581C5.73549 13.4583 5.73567 13.458 5.73558 13.4581L2.96812 17.8841C2.96779 17.8847 2.96745 17.8852 2.96712 17.8857C2.35381 18.8816 3.06462 20.1501 4.21992 20.1501H14.6699C14.827 20.1501 15.0638 20.0934 15.3145 19.968C15.5645 19.843 15.7539 19.687 15.8509 19.5588C15.8508 19.559 15.8511 19.5586 15.8509 19.5588L21.0302 12.6598L21.0311 12.6585C21.1513 12.4991 21.2407 12.2472 21.2531 11.9533C21.2655 11.6607 21.1986 11.3988 21.0923 11.225C21.0919 11.2244 21.0916 11.2238 21.0912 11.2232L16.9141 4.54794L16.9127 4.54562C16.8169 4.39132 16.6233 4.20892 16.3611 4.06344C16.0989 3.91798 15.8413 3.8501 15.6599 3.8501H4.21992ZM1.69404 6.88772C0.458724 4.91346 1.89638 2.3501 4.21992 2.3501H15.6599C16.1585 2.3501 16.666 2.51722 17.0887 2.75175C17.5112 2.98608 17.9222 3.32828 18.1865 3.75347C18.1867 3.75384 18.1869 3.75421 18.1872 3.75458L22.3687 10.437C22.6618 10.9133 22.7743 11.4856 22.7518 12.0169C22.7293 12.5477 22.5688 13.1104 22.2294 13.5608C22.2292 13.5611 22.229 13.5614 22.2288 13.5617L17.0497 20.4604L17.0485 20.462C16.7754 20.8237 16.3799 21.1124 15.9853 21.3097C15.5911 21.5068 15.1228 21.6501 14.6699 21.6501H4.21992C1.87584 21.6501 0.466884 19.0799 1.69181 17.0961L1.69403 17.0925L4.464 12.6625C4.55768 12.5131 4.62742 12.2712 4.62742 11.9901C4.62742 11.709 4.55821 11.4679 4.46453 11.3186L1.69404 6.88772Z" fill="#424B5A"/>
</svg>
