<svg width="24" height="24" viewBox="0 0 24 24" fill="none" xmlns="http://www.w3.org/2000/svg">
<path fill-rule="evenodd" clip-rule="evenodd" d="M16.0651 3.86603L20.6065 8.38745C22.7567 10.5492 22.7588 14.043 20.6051 16.1967L16.2151 20.5867L16.2137 20.5881C14.0519 22.7383 10.5581 22.7404 8.40443 20.5867L3.87443 16.0567C2.77545 14.9577 2.18616 13.4431 2.2555 11.8831L2.25562 11.8804L2.4957 6.87872C2.61503 4.50397 4.51323 2.60517 6.89986 2.49718L6.90104 2.49712L11.8956 2.25739L11.8973 2.2573C13.4515 2.17658 14.9673 2.76857 16.0651 3.86603ZM15.0044 4.92669C14.2027 4.12493 13.0988 3.69658 11.9739 3.75534L11.9707 3.7555L6.97072 3.9955L6.96847 3.99561C5.35592 4.06817 4.07487 5.34873 3.99385 6.95323L3.75402 11.9497L3.75396 11.9509C3.70367 13.0904 4.13436 14.1953 4.93509 14.996L9.46509 19.526C11.0312 21.0921 13.5769 21.0944 15.1552 19.5253L19.5444 15.136C21.1103 13.5701 21.1128 11.0248 19.5442 9.44649L19.543 9.44527L15.0056 4.92786L15.0044 4.92669ZM9.73476 7.97636C8.76826 7.97636 7.98476 8.75987 7.98476 9.72636C7.98476 10.6929 8.76826 11.4764 9.73476 11.4764C10.7013 11.4764 11.4848 10.6929 11.4848 9.72636C11.4848 8.75987 10.7013 7.97636 9.73476 7.97636ZM6.48476 9.72636C6.48476 7.93144 7.93983 6.47636 9.73476 6.47636C11.5297 6.47636 12.9848 7.93144 12.9848 9.72636C12.9848 11.5213 11.5297 12.9764 9.73476 12.9764C7.93983 12.9764 6.48476 11.5213 6.48476 9.72636ZM17.7651 13.7567C18.058 13.4638 18.058 12.9889 17.7651 12.696C17.4722 12.4031 16.9973 12.4031 16.7044 12.696L12.7044 16.696C12.4115 16.9889 12.4115 17.4638 12.7044 17.7567C12.9973 18.0496 13.4722 18.0496 13.7651 17.7567L17.7651 13.7567Z" fill="#424B5A"/>
</svg>
