<svg width="24" height="24" viewBox="0 0 24 24" fill="none" xmlns="http://www.w3.org/2000/svg">
<path fill-rule="evenodd" clip-rule="evenodd" d="M20.3716 8.16113L15.8302 3.63972C14.7324 2.54226 13.2166 1.95026 11.6624 2.03098L11.6608 2.03107L6.66618 2.2708L6.665 2.27086C4.27836 2.37885 2.38017 4.27766 2.26084 6.65241L2.02076 11.6541L2.02063 11.6567C1.9513 13.2168 2.54058 14.7314 3.63956 15.8304L8.16956 20.3604C10.3232 22.5141 13.817 22.512 15.9788 20.3618L15.9802 20.3604L20.3702 15.9704C22.5239 13.8167 22.5219 10.3229 20.3716 8.16113ZM11.739 3.52903C12.8639 3.47026 13.9678 3.89861 14.7696 4.70038L14.7707 4.70155L19.3081 9.21895L19.3094 9.22017C20.8779 10.7985 20.8755 13.3438 19.3096 14.9097L14.9203 19.299C13.342 20.8681 10.7963 20.8658 9.23022 19.2997L4.70022 14.7697C3.8995 13.969 3.46881 12.8641 3.5191 11.7246L3.51915 11.7233L3.75899 6.72691C3.84001 5.12241 5.12106 3.84185 6.73361 3.76929L6.73585 3.76918L11.7359 3.52918L11.739 3.52903ZM7.74989 9.50005C7.74989 8.53355 8.53339 7.75005 9.49989 7.75005C10.4664 7.75005 11.2499 8.53355 11.2499 9.50005C11.2499 10.4665 10.4664 11.25 9.49989 11.25C8.53339 11.25 7.74989 10.4665 7.74989 9.50005ZM9.49989 6.25005C7.70497 6.25005 6.24989 7.70512 6.24989 9.50005C6.24989 11.295 7.70497 12.75 9.49989 12.75C11.2948 12.75 12.7499 11.295 12.7499 9.50005C12.7499 7.70512 11.2948 6.25005 9.49989 6.25005Z" fill="#424B5A"/>
</svg>
