<svg width="24" height="24" viewBox="0 0 24 24" fill="none" xmlns="http://www.w3.org/2000/svg">
<path fill-rule="evenodd" clip-rule="evenodd" d="M7.53033 4.03033C7.82322 3.73744 7.82322 3.26256 7.53033 2.96967C7.23744 2.67678 6.76256 2.67678 6.46967 2.96967L4 5.43934L3.53033 4.96967C3.23744 4.67678 2.76256 4.67678 2.46967 4.96967C2.17678 5.26256 2.17678 5.73744 2.46967 6.03033L3.46967 7.03033C3.76256 7.32322 4.23744 7.32322 4.53033 7.03033L7.53033 4.03033ZM10.25 5.5C10.25 5.08579 10.5858 4.75 11 4.75H21C21.4142 4.75 21.75 5.08579 21.75 5.5C21.75 5.91421 21.4142 6.25 21 6.25H11C10.5858 6.25 10.25 5.91421 10.25 5.5ZM11 11.75C10.5858 11.75 10.25 12.0858 10.25 12.5C10.25 12.9142 10.5858 13.25 11 13.25H21C21.4142 13.25 21.75 12.9142 21.75 12.5C21.75 12.0858 21.4142 11.75 21 11.75H11ZM11 18.75C10.5858 18.75 10.25 19.0858 10.25 19.5C10.25 19.9142 10.5858 20.25 11 20.25H21C21.4142 20.25 21.75 19.9142 21.75 19.5C21.75 19.0858 21.4142 18.75 21 18.75H11ZM7.53033 9.96967C7.82322 10.2626 7.82322 10.7374 7.53033 11.0303L4.53033 14.0303C4.23744 14.3232 3.76256 14.3232 3.46967 14.0303L2.46967 13.0303C2.17678 12.7374 2.17678 12.2626 2.46967 11.9697C2.76256 11.6768 3.23744 11.6768 3.53033 11.9697L4 12.4393L6.46967 9.96967C6.76256 9.67678 7.23744 9.67678 7.53033 9.96967ZM7.53033 18.0303C7.82322 17.7374 7.82322 17.2626 7.53033 16.9697C7.23744 16.6768 6.76256 16.6768 6.46967 16.9697L4 19.4393L3.53033 18.9697C3.23744 18.6768 2.76256 18.6768 2.46967 18.9697C2.17678 19.2626 2.17678 19.7374 2.46967 20.0303L3.46967 21.0303C3.76256 21.3232 4.23744 21.3232 4.53033 21.0303L7.53033 18.0303Z" fill="#424B5A"/>
</svg>
