<svg width="24" height="24" viewBox="0 0 24 24" fill="none" xmlns="http://www.w3.org/2000/svg">
<path fill-rule="evenodd" clip-rule="evenodd" d="M9 1.25C6.42603 1.25 4.42914 1.7602 3.09467 3.09467C1.7602 4.42914 1.25 6.42603 1.25 9V15C1.25 17.574 1.7602 19.5709 3.09467 20.9053C4.42914 22.2398 6.42603 22.75 9 22.75H15C17.574 22.75 19.5709 22.2398 20.9053 20.9053C22.2398 19.5709 22.75 17.574 22.75 15V9C22.75 6.42603 22.2398 4.42914 20.9053 3.09467C19.5709 1.7602 17.574 1.25 15 1.25H9ZM2.75 9C2.75 6.57397 3.2398 5.07086 4.15533 4.15533C5.07086 3.2398 6.57397 2.75 9 2.75H15C17.426 2.75 18.9291 3.2398 19.8447 4.15533C20.7602 5.07086 21.25 6.57397 21.25 9V15C21.25 17.426 20.7602 18.9291 19.8447 19.8447C18.9291 20.7602 17.426 21.25 15 21.25H9C6.57397 21.25 5.07086 20.7602 4.15533 19.8447C3.2398 18.9291 2.75 17.426 2.75 15V9ZM9.91033 6.84967C10.2032 7.14256 10.2032 7.61744 9.91033 7.91033L7.66033 10.1603C7.36744 10.4532 6.89256 10.4532 6.59967 10.1603L5.84967 9.41033C5.55678 9.11744 5.55678 8.64256 5.84967 8.34967C6.14256 8.05678 6.61744 8.05678 6.91033 8.34967L7.13 8.56934L8.84967 6.84967C9.14256 6.55678 9.61744 6.55678 9.91033 6.84967ZM11.62 8.88C11.62 8.46579 11.9558 8.13 12.37 8.13H17.62C18.0342 8.13 18.37 8.46579 18.37 8.88C18.37 9.29421 18.0342 9.63 17.62 9.63H12.37C11.9558 9.63 11.62 9.29421 11.62 8.88ZM12.37 15.13C11.9558 15.13 11.62 15.4658 11.62 15.88C11.62 16.2942 11.9558 16.63 12.37 16.63H17.62C18.0342 16.63 18.37 16.2942 18.37 15.88C18.37 15.4658 18.0342 15.13 17.62 15.13H12.37ZM9.91033 13.8497C10.2032 14.1426 10.2032 14.6174 9.91033 14.9103L7.66033 17.1603C7.36744 17.4532 6.89256 17.4532 6.59967 17.1603L5.84967 16.4103C5.55678 16.1174 5.55678 15.6426 5.84967 15.3497C6.14256 15.0568 6.61744 15.0568 6.91033 15.3497L7.13 15.5693L8.84967 13.8497C9.14256 13.5568 9.61744 13.5568 9.91033 13.8497Z" fill="#424B5A"/>
</svg>
