<svg width="24" height="24" viewBox="0 0 24 24" fill="none" xmlns="http://www.w3.org/2000/svg">
<path fill-rule="evenodd" clip-rule="evenodd" d="M14.4036 1.91462L14.406 1.91624L20.3914 5.8432C21.7028 6.70375 22.289 8.15005 22.15 9.53428V15.0003C22.15 15.4145 21.8142 15.7503 21.4 15.7503C20.9858 15.7503 20.65 15.4145 20.65 15.0003V12.243C20.5672 12.307 20.4811 12.3685 20.3915 12.4273L19.13 13.255V17.7703C19.13 18.5911 18.8174 19.3986 18.3487 20.0497C17.8802 20.7006 17.2141 21.2528 16.4372 21.5118L13.2395 22.5743C12.8625 22.6955 12.412 22.7453 11.9963 22.7453C11.5812 22.7453 11.1313 22.6957 10.7567 22.5731L10.7535 22.572L7.56351 21.512C6.78657 21.253 6.11987 20.7006 5.65131 20.0497C5.18267 19.3986 4.87001 18.5911 4.87001 17.7703L4.87002 17.7687L4.87965 13.2506L3.62003 12.4283C1.23669 10.8723 1.23668 7.38823 3.62002 5.83227L9.63801 1.90358L9.63904 1.9029C10.3279 1.45041 11.1949 1.24759 12.0213 1.24903C12.8473 1.25048 13.7145 1.45608 14.4036 1.91462ZM20.6579 8.89114C20.6527 8.92677 20.65 8.96321 20.65 9.00028V9.44878C20.5645 10.1174 20.204 10.7562 19.5685 11.1732L13.578 15.1036C13.187 15.3606 12.6241 15.5128 12.02 15.5128C11.4159 15.5128 10.853 15.3606 10.462 15.1036L4.44 11.1723C2.96335 10.2082 2.96336 8.05233 4.44001 7.08829L10.46 3.1583L10.462 3.15698C10.853 2.89995 11.4156 2.74797 12.0187 2.74903C12.6218 2.75008 13.1835 2.90401 13.574 3.16433L19.5686 7.09736C20.226 7.52879 20.5891 8.19753 20.6579 8.89114ZM14.402 16.357L17.63 14.2391V17.7703C17.63 18.2195 17.4527 18.7269 17.1313 19.1734C16.8099 19.6199 16.3858 19.9477 15.9628 20.0888L12.7775 21.1472C12.5945 21.2055 12.3113 21.2453 11.9963 21.2453C11.6796 21.2453 11.4001 21.2051 11.2246 21.1479L11.2233 21.1475L8.03692 20.0887C7.61395 19.9476 7.19009 19.6198 6.86872 19.1734C6.54753 18.7272 6.3702 18.2193 6.37001 17.7703L6.37757 14.2285L9.63801 16.357L9.63902 16.3576C10.3278 16.8101 11.1945 17.0128 12.02 17.0128C12.8458 17.0128 13.7131 16.8098 14.402 16.357Z" fill="#424B5A"/>
</svg>
