<svg width="24" height="24" viewBox="0 0 24 24" fill="none" xmlns="http://www.w3.org/2000/svg">
<path fill-rule="evenodd" clip-rule="evenodd" d="M9.69701 14.2665L9.49533 17.1817C8.99899 15.598 8.27017 13.1674 8.26145 13.1378C8.25913 13.1291 8.25157 13.1244 8.24866 13.1163L8.24692 13.0994L16.6115 7.653C16.6115 7.653 17.1817 7.26185 17.3985 7.21478C17.6902 7.15026 17.7606 7.2665 17.7082 7.33683C17.506 7.60825 16.5464 8.43588 16.5464 8.43588L9.87834 13.9573L9.87892 13.9613C9.77547 14.0299 9.70573 14.1409 9.69701 14.2665ZM20.7776 5.12537C20.5968 4.72202 20.2179 4.5 19.7111 4.5C19.342 4.5 19.0183 4.61682 18.9805 4.63135C18.8724 4.67262 8.17369 8.76077 3.78622 10.5613C3.40147 10.7188 3.15271 10.9408 3.04577 11.221C2.88188 11.6551 3.18875 12.1021 3.48167 12.2317C4.57142 12.7112 6.83926 13.3778 7.55006 13.5824C7.78429 14.3618 8.60261 17.0777 8.98446 18.2413C9.08443 18.5447 9.37677 18.7254 9.76792 18.7254C9.82604 18.7254 9.86207 18.7219 9.86207 18.7219C9.96785 18.7097 10.0585 18.6557 10.1254 18.5795C10.1806 18.5156 10.2195 18.436 10.2259 18.3471L10.4526 15.065C10.8815 15.387 11.5063 15.8555 12.1962 16.3716C13.5608 17.391 15.1876 18.601 16.0972 19.259C16.4203 19.4932 16.733 19.6112 17.0271 19.6112C17.6856 19.6112 18.0645 19.0468 18.1883 18.5638C18.9421 15.6294 20.0476 10.0842 20.709 6.77074L20.8537 6.04541C20.9449 5.588 20.8665 5.32356 20.7776 5.12537Z" fill="#424B5A"/>
</svg>
