<svg width="24" height="24" viewBox="0 0 24 24" fill="none" xmlns="http://www.w3.org/2000/svg">
<path fill-rule="evenodd" clip-rule="evenodd" d="M4.74004 4.03003C4.01189 4.03003 3.42004 4.6166 3.42004 5.35003V7.17003C3.42004 7.58424 3.08426 7.92003 2.67004 7.92003C2.25583 7.92003 1.92004 7.58424 1.92004 7.17003V5.35003C1.92004 3.78346 3.18819 2.53003 4.74004 2.53003H19.26C20.8266 2.53003 22.08 3.79818 22.08 5.35003V7.17003C22.08 7.58424 21.7443 7.92003 21.33 7.92003C20.9158 7.92003 20.58 7.58424 20.58 7.17003V5.35003C20.58 4.62188 19.9935 4.03003 19.26 4.03003H12.7458C12.7486 4.05631 12.75 4.08301 12.75 4.11003V19.97H15.94C16.3543 19.97 16.69 20.3058 16.69 20.72C16.69 21.1342 16.3543 21.47 15.94 21.47H12H8.06004C7.64583 21.47 7.31004 21.1342 7.31004 20.72C7.31004 20.3058 7.64583 19.97 8.06004 19.97H11.25V4.11003C11.25 4.08301 11.2515 4.05631 11.2543 4.03003H4.74004Z" fill="#424B5A"/>
</svg>
