<svg width="24" height="24" viewBox="0 0 24 24" fill="none" xmlns="http://www.w3.org/2000/svg">
<path fill-rule="evenodd" clip-rule="evenodd" d="M14.2657 2.25006H18.87C19.2842 2.25006 19.62 2.58584 19.62 3.00006C19.62 3.41427 19.2842 3.75006 18.87 3.75006H14.8356L10.7106 20.2501H14.37C14.7842 20.2501 15.12 20.5858 15.12 21.0001C15.12 21.4143 14.7842 21.7501 14.37 21.7501H9.76683C9.75601 21.7503 9.74517 21.7503 9.73429 21.7501H5.12C4.70578 21.7501 4.37 21.4143 4.37 21.0001C4.37 20.5858 4.70578 20.2501 5.12 20.2501H9.16441L13.2894 3.75006H9.62C9.20578 3.75006 8.87 3.41427 8.87 3.00006C8.87 2.58584 9.20578 2.25006 9.62 2.25006H14.2332C14.244 2.24982 14.2548 2.24982 14.2657 2.25006Z" fill="#424B5A"/>
</svg>
