<svg width="24" height="24" viewBox="0 0 24 24" fill="none" xmlns="http://www.w3.org/2000/svg">
<path fill-rule="evenodd" clip-rule="evenodd" d="M12 3.75C11.5858 3.75 11.25 4.08579 11.25 4.5C11.25 4.91421 11.5858 5.25 12 5.25H21C21.4142 5.25 21.75 4.91421 21.75 4.5C21.75 4.08579 21.4142 3.75 21 3.75H12ZM12 8.75C11.5858 8.75 11.25 9.08579 11.25 9.5C11.25 9.91421 11.5858 10.25 12 10.25H21C21.4142 10.25 21.75 9.91421 21.75 9.5C21.75 9.08579 21.4142 8.75 21 8.75H12ZM2.25 14.5C2.25 14.0858 2.58579 13.75 3 13.75H21C21.4142 13.75 21.75 14.0858 21.75 14.5C21.75 14.9142 21.4142 15.25 21 15.25H3C2.58579 15.25 2.25 14.9142 2.25 14.5ZM3 18.75C2.58579 18.75 2.25 19.0858 2.25 19.5C2.25 19.9142 2.58579 20.25 3 20.25H21C21.4142 20.25 21.75 19.9142 21.75 19.5C21.75 19.0858 21.4142 18.75 21 18.75H3Z" fill="#424B5A"/>
</svg>
