<svg width="24" height="24" viewBox="0 0 24 24" fill="none" xmlns="http://www.w3.org/2000/svg">
<path fill-rule="evenodd" clip-rule="evenodd" d="M3 3.75C2.58579 3.75 2.25 4.08579 2.25 4.5C2.25 4.91421 2.58579 5.25 3 5.25H21C21.4142 5.25 21.75 4.91421 21.75 4.5C21.75 4.08579 21.4142 3.75 21 3.75H3ZM3 8.75C2.58579 8.75 2.25 9.08579 2.25 9.5C2.25 9.91421 2.58579 10.25 3 10.25H12.47C12.8842 10.25 13.22 9.91421 13.22 9.5C13.22 9.08579 12.8842 8.75 12.47 8.75H3ZM2.25 14.5C2.25 14.0858 2.58579 13.75 3 13.75H21C21.4142 13.75 21.75 14.0858 21.75 14.5C21.75 14.9142 21.4142 15.25 21 15.25H3C2.58579 15.25 2.25 14.9142 2.25 14.5ZM3 18.75C2.58579 18.75 2.25 19.0858 2.25 19.5C2.25 19.9142 2.58579 20.25 3 20.25H12.47C12.8842 20.25 13.22 19.9142 13.22 19.5C13.22 19.0858 12.8842 18.75 12.47 18.75H3Z" fill="#424B5A"/>
</svg>
