<svg width="24" height="24" viewBox="0 0 24 24" fill="none" xmlns="http://www.w3.org/2000/svg">
<path fill-rule="evenodd" clip-rule="evenodd" d="M3 3.75C2.58579 3.75 2.25 4.08579 2.25 4.5C2.25 4.91421 2.58579 5.25 3 5.25H21C21.4142 5.25 21.75 4.91421 21.75 4.5C21.75 4.08579 21.4142 3.75 21 3.75H3ZM7.26 8.75C6.84579 8.75 6.51 9.08579 6.51 9.5C6.51 9.91421 6.84579 10.25 7.26 10.25H16.74C17.1542 10.25 17.49 9.91421 17.49 9.5C17.49 9.08579 17.1542 8.75 16.74 8.75H7.26ZM2.25 14.5C2.25 14.0858 2.58579 13.75 3 13.75H21C21.4142 13.75 21.75 14.0858 21.75 14.5C21.75 14.9142 21.4142 15.25 21 15.25H3C2.58579 15.25 2.25 14.9142 2.25 14.5ZM7.26 18.75C6.84579 18.75 6.51 19.0858 6.51 19.5C6.51 19.9142 6.84579 20.25 7.26 20.25H16.74C17.1542 20.25 17.49 19.9142 17.49 19.5C17.49 19.0858 17.1542 18.75 16.74 18.75H7.26Z" fill="#424B5A"/>
</svg>
