<svg width="24" height="24" viewBox="0 0 24 24" fill="none" xmlns="http://www.w3.org/2000/svg">
<path fill-rule="evenodd" clip-rule="evenodd" d="M5.63 4.5C5.63 3.81421 6.19422 3.25 6.88 3.25H12C14.2058 3.25 16 5.04421 16 7.25C16 9.45579 14.2058 11.25 12 11.25H5.63V4.5ZM4.13 12V4.5C4.13 2.98579 5.36579 1.75 6.88 1.75H12C15.0342 1.75 17.5 4.21579 17.5 7.25C17.5 8.89983 16.771 10.3816 15.618 11.3903C18.0574 11.9529 19.88 14.1414 19.88 16.75C19.88 19.7842 17.4142 22.25 14.38 22.25H6.88C5.36579 22.25 4.13 21.0142 4.13 19.5V12ZM5.63 19.5V12.75H12H14.38C16.5858 12.75 18.38 14.5442 18.38 16.75C18.38 18.9558 16.5858 20.75 14.38 20.75H6.88C6.19422 20.75 5.63 20.1858 5.63 19.5Z" fill="#424B5A"/>
</svg>
