<svg width="24" height="24" viewBox="0 0 24 24" fill="none" xmlns="http://www.w3.org/2000/svg">
<path fill-rule="evenodd" clip-rule="evenodd" d="M5.75 3C5.75 2.58579 5.41421 2.25 5 2.25C4.58579 2.25 4.25 2.58579 4.25 3V10C4.25 14.2842 7.71579 17.75 12 17.75C16.2842 17.75 19.75 14.2842 19.75 10V3C19.75 2.58579 19.4142 2.25 19 2.25C18.5858 2.25 18.25 2.58579 18.25 3V10C18.25 13.4558 15.4558 16.25 12 16.25C8.54421 16.25 5.75 13.4558 5.75 10V3ZM5 20.25C4.58579 20.25 4.25 20.5858 4.25 21C4.25 21.4142 4.58579 21.75 5 21.75H19C19.4142 21.75 19.75 21.4142 19.75 21C19.75 20.5858 19.4142 20.25 19 20.25H5Z" fill="#424B5A"/>
</svg>
