<svg width="24" height="24" viewBox="0 0 24 24" fill="none" xmlns="http://www.w3.org/2000/svg">
<path fill-rule="evenodd" clip-rule="evenodd" d="M7.68959 3.30579C8.07216 3.14929 8.50924 3.33181 8.66688 3.71391L10.2423 7.53258V5.08003C10.2423 4.66582 10.5781 4.33003 10.9923 4.33003H17.3723C19.2162 4.33003 20.6689 4.54094 21.6002 5.4722C22.5314 6.40347 22.7423 7.85622 22.7423 9.70003V10.62C22.7423 11.0342 22.4066 11.37 21.9923 11.37C21.1308 11.37 20.4323 12.07 20.4323 12.94C20.4323 13.7979 21.1287 14.5 21.9923 14.5C22.4066 14.5 22.7423 14.8358 22.7423 15.25C22.7423 17.0938 22.5314 18.5466 21.6002 19.4779C20.6689 20.4091 19.2162 20.62 17.3723 20.62H10.9023L10.891 20.6199H8.22357C8.21042 20.6199 8.1973 20.6199 8.18422 20.6198C8.1769 20.62 8.16956 20.6201 8.16219 20.6201H7.99219C7.92806 20.6201 7.86581 20.612 7.8064 20.5969C7.04302 20.5101 6.39481 20.1782 5.83337 19.5952C5.20926 18.9472 4.70845 18.0058 4.22056 16.8267L4.21716 16.8185L4.21721 16.8185L4.03721 16.3685C3.9632 16.1835 3.96587 15.9766 4.04463 15.7935C4.12339 15.6105 4.27177 15.4663 4.45701 15.3928C5.2754 15.0682 5.67948 14.1146 5.33245 13.2912L5.32834 13.2815L5.32841 13.2815C4.99641 12.4616 4.0487 12.0594 3.20799 12.4039C3.02243 12.48 2.81415 12.4785 2.62966 12.4C2.44517 12.3214 2.29983 12.1722 2.2261 11.9857L2.05772 11.5598C1.34185 9.80901 0.97725 8.35521 1.49074 7.1165C2.00536 5.87506 3.29378 5.10906 5.04791 4.38648L5.04959 4.38579L5.04959 4.38579L7.68959 3.30579ZM10.2436 13.87V11.9133C10.2428 11.8989 10.2423 11.8845 10.2423 11.87V11.4656L7.56545 4.97724L5.61923 5.77342L5.61838 5.77377C3.85313 6.50102 3.13174 7.07494 2.8764 7.6909C2.62924 8.28714 2.71786 9.1647 3.37421 10.8138C4.76278 10.6087 6.16511 11.3579 6.71673 12.7135C7.2849 14.0679 6.81168 15.6008 5.67707 16.4214C6.12018 17.4658 6.51395 18.1396 6.91376 18.5547C7.29776 18.9534 7.69147 19.12 8.22357 19.12H10.2436V16.87C10.2436 16.4557 10.5794 16.12 10.9936 16.12C11.4078 16.12 11.7436 16.4557 11.7436 16.87V19.12H17.3723C19.2285 19.12 20.0858 18.8709 20.5395 18.4172C20.9361 18.0206 21.1764 17.3156 21.2306 15.9045C19.9057 15.5651 18.9323 14.3611 18.9323 12.94C18.9323 11.5078 19.9102 10.2982 21.2423 9.96255V9.70003C21.2423 7.84385 20.9932 6.9866 20.5395 6.53286C20.0858 6.07913 19.2285 5.83003 17.3723 5.83003H11.7423V11.2771C11.7432 11.2914 11.7436 11.3056 11.7436 11.32V13.87C11.7436 14.2842 11.4078 14.62 10.9936 14.62C10.5794 14.62 10.2436 14.2842 10.2436 13.87Z" fill="#424B5A"/>
</svg>
