<svg width="24" height="24" viewBox="0 0 24 24" fill="none" xmlns="http://www.w3.org/2000/svg">
<path fill-rule="evenodd" clip-rule="evenodd" d="M7 3.25C5.00536 3.25 3.45818 3.48116 2.46967 4.46967C1.48116 5.45818 1.25 7.00536 1.25 9V9.5C1.25 9.91421 1.58579 10.25 2 10.25C2.96579 10.25 3.75 11.0342 3.75 12C3.75 12.9658 2.96579 13.75 2 13.75C1.58579 13.75 1.25 14.0858 1.25 14.5V15C1.25 16.9946 1.48116 18.5418 2.46967 19.5303C3.45818 20.5188 5.00536 20.75 7 20.75H10H17C18.9946 20.75 20.5418 20.5188 21.5303 19.5303C22.5188 18.5418 22.75 16.9946 22.75 15C22.75 14.5858 22.4142 14.25 22 14.25C21.0342 14.25 20.25 13.4658 20.25 12.5C20.25 11.5342 21.0342 10.75 22 10.75C22.4142 10.75 22.75 10.4142 22.75 10V9C22.75 7.00536 22.5188 5.45818 21.5303 4.46967C20.5418 3.48116 18.9946 3.25 17 3.25H10H7ZM9.25 4.75V6C9.25 6.41421 9.58579 6.75 10 6.75C10.4142 6.75 10.75 6.41421 10.75 6V4.75H17C19.0054 4.75 19.9582 5.01884 20.4697 5.53033C20.9812 6.04182 21.25 6.99464 21.25 9V9.33706C19.8171 9.67586 18.75 10.9639 18.75 12.5C18.75 14.0322 19.8116 15.3176 21.239 15.6603C21.1839 17.2218 20.9214 18.0179 20.4697 18.4697C19.9582 18.9812 19.0054 19.25 17 19.25H10.75V18C10.75 17.5858 10.4142 17.25 10 17.25C9.58579 17.25 9.25 17.5858 9.25 18V19.25H7C4.99464 19.25 4.04182 18.9812 3.53033 18.4697C3.03288 17.9722 2.76494 17.0573 2.75061 15.1628C4.18324 14.8238 5.25 13.5359 5.25 12C5.25 10.4641 4.18324 9.17623 2.75061 8.8372C2.76494 6.94266 3.03288 6.02778 3.53033 5.53033C4.04182 5.01884 4.99464 4.75 7 4.75H9.25ZM10.75 10C10.75 9.58579 10.4142 9.25 10 9.25C9.58579 9.25 9.25 9.58579 9.25 10V14C9.25 14.4142 9.58579 14.75 10 14.75C10.4142 14.75 10.75 14.4142 10.75 14V10Z" fill="#424B5A"/>
</svg>
