<svg width="24" height="24" viewBox="0 0 24 24" fill="none" xmlns="http://www.w3.org/2000/svg">
<path fill-rule="evenodd" clip-rule="evenodd" d="M7 3.25C5.00536 3.25 3.45818 3.48116 2.46967 4.46967C1.48116 5.45818 1.25 7.00536 1.25 9V9.5C1.25 9.91421 1.58579 10.25 2 10.25C2.96579 10.25 3.75 11.0342 3.75 12C3.75 12.9658 2.96579 13.75 2 13.75C1.58579 13.75 1.25 14.0858 1.25 14.5V15C1.25 16.9946 1.48116 18.5418 2.46967 19.5303C3.45818 20.5188 5.00536 20.75 7 20.75H17C18.9946 20.75 20.5418 20.5188 21.5303 19.5303C22.5188 18.5418 22.75 16.9946 22.75 15C22.75 14.5858 22.4142 14.25 22 14.25C21.0342 14.25 20.25 13.4658 20.25 12.5C20.25 11.5342 21.0342 10.75 22 10.75C22.4142 10.75 22.75 10.4142 22.75 10V9C22.75 7.00536 22.5188 5.45818 21.5303 4.46967C20.5418 3.48116 18.9946 3.25 17 3.25H7ZM5.25 12C5.25 10.4641 4.18324 9.17623 2.75061 8.8372C2.76494 6.94266 3.03288 6.02778 3.53033 5.53033C4.04182 5.01884 4.99464 4.75 7 4.75H17C19.0054 4.75 19.9582 5.01884 20.4697 5.53033C20.9812 6.04182 21.25 6.99464 21.25 9V9.33706C19.8171 9.67586 18.75 10.9639 18.75 12.5C18.75 14.0322 19.8116 15.3176 21.239 15.6603C21.1839 17.2218 20.9214 18.0179 20.4697 18.4697C19.9582 18.9812 19.0054 19.25 17 19.25H7C4.99464 19.25 4.04182 18.9812 3.53033 18.4697C3.03288 17.9722 2.76494 17.0573 2.75061 15.1628C4.18324 14.8238 5.25 13.5359 5.25 12ZM15.5303 9.28033C15.8232 8.98744 15.8232 8.51256 15.5303 8.21967C15.2374 7.92678 14.7626 7.92678 14.4697 8.21967L8.46967 14.2197C8.17678 14.5126 8.17678 14.9874 8.46967 15.2803C8.76256 15.5732 9.23744 15.5732 9.53033 15.2803L15.5303 9.28033ZM13.9945 14.75C13.9945 14.1977 14.4422 13.75 14.9945 13.75H15.0035C15.5558 13.75 16.0035 14.1977 16.0035 14.75C16.0035 15.3023 15.5558 15.75 15.0035 15.75H14.9945C14.4422 15.75 13.9945 15.3023 13.9945 14.75ZM8.99451 8.25C8.44222 8.25 7.99451 8.69772 7.99451 9.25C7.99451 9.80228 8.44222 10.25 8.99451 10.25H9.00349C9.55577 10.25 10.0035 9.80228 10.0035 9.25C10.0035 8.69772 9.55577 8.25 9.00349 8.25H8.99451Z" fill="#424B5A"/>
</svg>
