<svg width="24" height="24" viewBox="0 0 24 24" fill="none" xmlns="http://www.w3.org/2000/svg">
<path fill-rule="evenodd" clip-rule="evenodd" d="M13.0411 2.75C12.4806 2.75 11.7798 3.12449 10.5814 4.32283L8.93176 5.9725H15.2715C15.2502 5.4509 15.3752 4.92693 15.6409 4.46291L15.5008 4.32283C14.3024 3.12449 13.6016 2.75 13.0411 2.75ZM13.0411 1.25C14.2756 1.25 15.3698 2.07051 16.5614 3.26217L17.1614 3.86217C17.3021 4.00282 17.3811 4.19359 17.3811 4.3925C17.3811 4.59141 17.3021 4.78218 17.1614 4.92283C16.8705 5.2138 16.7409 5.59964 16.7743 5.9735C18.5425 5.99024 19.9357 6.22509 20.8416 7.13092C21.7837 8.07305 22 9.54246 22 11.4125V12.3525C22 12.7667 21.6642 13.1025 21.25 13.1025C20.3721 13.1025 19.66 13.8088 19.66 14.6925C19.66 15.5641 20.38 16.2825 21.26 16.2825C21.6742 16.2825 22.01 16.6183 22.01 17.0325C22.01 18.9025 21.7937 20.372 20.8516 21.3141C19.9095 22.2562 18.44 22.4725 16.57 22.4725H9.89419C9.88911 22.4726 9.88401 22.4727 9.87891 22.4727C9.8738 22.4727 9.86871 22.4726 9.86363 22.4725H7.19C5.31995 22.4725 3.85055 22.2562 2.90842 21.3141C1.96629 20.372 1.75 18.9025 1.75 17.0325V16.5725C1.75 16.1583 2.08579 15.8225 2.5 15.8225C3.37579 15.8225 4.1 15.0983 4.1 14.2225C4.1 13.3467 3.37579 12.6225 2.5 12.6225C2.08579 12.6225 1.75 12.2867 1.75 11.8725V11.4125L1.75 11.4105C1.75499 9.54165 1.9718 8.07297 2.9117 7.13139C3.78746 6.25408 5.11916 6.00596 6.80715 5.97579L9.52077 3.26217C10.7124 2.07051 11.8066 1.25 13.0411 1.25ZM10.6289 20.9725V19.8477C10.6289 19.4334 10.2931 19.0977 9.87891 19.0977C9.46469 19.0977 9.12891 19.4334 9.12891 19.8477V20.9725H7.19C5.31005 20.9725 4.43445 20.7188 3.96908 20.2534C3.5203 19.8046 3.26836 18.9744 3.25097 17.2298C4.59581 16.8916 5.6 15.668 5.6 14.2225C5.6 12.7772 4.59607 11.5537 3.2515 11.2153C3.27351 9.47083 3.52494 8.64027 3.9733 8.19111C4.43735 7.72624 5.31005 7.4725 7.19 7.4725H9.12891V8.59766C9.12891 9.01187 9.46469 9.34766 9.87891 9.34766C10.2931 9.34766 10.6289 9.01187 10.6289 8.59766V7.4725H16.56C18.44 7.4725 19.3155 7.72621 19.7809 8.19158C20.2463 8.65696 20.5 9.53255 20.5 11.4125V11.6939C19.1583 12.0277 18.16 13.2369 18.16 14.6925C18.16 16.1372 19.1612 17.3482 20.4983 17.6876C20.4437 19.1236 20.1985 19.8459 19.7909 20.2534C19.3255 20.7188 18.45 20.9725 16.57 20.9725H10.6289ZM10.6289 12.3477C10.6289 11.9334 10.2931 11.5977 9.87891 11.5977C9.46469 11.5977 9.12891 11.9334 9.12891 12.3477V16.0977C9.12891 16.5119 9.46469 16.8477 9.87891 16.8477C10.2931 16.8477 10.6289 16.5119 10.6289 16.0977V12.3477Z" fill="#424B5A"/>
</svg>
