<svg width="24" height="24" viewBox="0 0 24 24" fill="none" xmlns="http://www.w3.org/2000/svg">
<path d="M18.1755 6.27729C18.0406 6.20752 17.9091 6.13104 17.7818 6.04813C17.4115 5.80333 17.072 5.51489 16.7706 5.18901C16.0165 4.32613 15.7348 3.45076 15.6311 2.83787H15.6352C15.5486 2.32915 15.5844 2 15.5898 2H12.155V15.2818C12.155 15.4602 12.155 15.6364 12.1475 15.8106C12.1475 15.8322 12.1454 15.8522 12.1442 15.8756C12.1442 15.8851 12.1442 15.8951 12.1421 15.9051C12.1421 15.9076 12.1421 15.9101 12.1421 15.9126C12.1059 16.3892 11.9531 16.8495 11.6972 17.2532C11.4414 17.6568 11.0902 17.9914 10.6747 18.2275C10.2416 18.4739 9.75175 18.6032 9.25348 18.6025C7.65315 18.6025 6.35613 17.2976 6.35613 15.686C6.35613 14.0744 7.65315 12.7695 9.25348 12.7695C9.55642 12.7692 9.85749 12.8169 10.1455 12.9107L10.1497 9.41338C9.2753 9.30043 8.38699 9.36992 7.54081 9.61747C6.69462 9.86502 5.90892 10.2852 5.23327 10.8516C4.64124 11.366 4.14352 11.9798 3.76251 12.6653C3.61752 12.9153 3.07046 13.9198 3.00421 15.5502C2.96255 16.4755 3.24045 17.4342 3.37294 17.8305V17.8388C3.45627 18.0721 3.77917 18.8683 4.3054 19.5395C4.72973 20.078 5.23105 20.5509 5.79324 20.9432V20.9349L5.80157 20.9432C7.46441 22.0732 9.30806 21.999 9.30806 21.999C9.62722 21.9861 10.6963 21.999 11.9104 21.4236C13.257 20.7857 14.0237 19.8354 14.0237 19.8354C14.5134 19.2675 14.9029 18.6204 15.1753 17.9217C15.4861 17.1047 15.5898 16.1247 15.5898 15.7331V8.68675C15.6315 8.71175 16.1865 9.07881 16.1865 9.07881C16.1865 9.07881 16.986 9.59129 18.2335 9.92502C19.1284 10.1625 20.3342 10.2125 20.3342 10.2125V6.80268C19.9117 6.84851 19.0538 6.71518 18.1755 6.27729Z" fill="#424B5A"/>
</svg>
