<svg width="24" height="24" viewBox="0 0 24 24" fill="none" xmlns="http://www.w3.org/2000/svg">
<path fill-rule="evenodd" clip-rule="evenodd" d="M8.25 2C8.25 1.58579 8.58579 1.25 9 1.25H15C15.4142 1.25 15.75 1.58579 15.75 2C15.75 2.41421 15.4142 2.75 15 2.75H9C8.58579 2.75 8.25 2.41421 8.25 2ZM4 13.25C4 8.83421 7.58421 5.25 12 5.25C16.4158 5.25 20 8.83421 20 13.25C20 13.6642 20.3358 14 20.75 14C21.1642 14 21.5 13.6642 21.5 13.25C21.5 8.00579 17.2442 3.75 12 3.75C6.75579 3.75 2.5 8.00579 2.5 13.25C2.5 18.4942 6.75579 22.75 12 22.75C12.4142 22.75 12.75 22.4142 12.75 22C12.75 21.5858 12.4142 21.25 12 21.25C7.58421 21.25 4 17.6658 4 13.25ZM12.75 8C12.75 7.58579 12.4142 7.25 12 7.25C11.5858 7.25 11.25 7.58579 11.25 8V13C11.25 13.4142 11.5858 13.75 12 13.75C12.4142 13.75 12.75 13.4142 12.75 13V8ZM15.65 17.34C15.65 16.7874 15.8409 16.5904 15.9394 16.5336C16.0377 16.4769 16.3042 16.4103 16.7837 16.6888L18.7834 17.8486C19.2652 18.1284 19.34 18.3922 19.34 18.505C19.34 18.6178 19.2652 18.8816 18.7834 19.1614L16.7834 20.3214C16.3039 20.5998 16.0377 20.5331 15.9394 20.4764C15.8409 20.4196 15.65 20.2226 15.65 19.67V17.34ZM15.1906 15.2339C15.9122 14.8181 16.7759 14.9498 17.5363 15.3912L19.5366 16.5514C20.2948 16.9916 20.84 17.6728 20.84 18.505C20.84 19.3372 20.2945 20.0185 19.5363 20.4588L17.5366 21.6186C16.7761 22.0602 15.9123 22.1919 15.1906 21.7761C14.4691 21.3604 14.15 20.5474 14.15 19.67V17.34C14.15 16.4626 14.4691 15.6496 15.1906 15.2339Z" fill="#424B5A"/>
</svg>
