<svg width="24" height="24" viewBox="0 0 24 24" fill="none" xmlns="http://www.w3.org/2000/svg">
<path fill-rule="evenodd" clip-rule="evenodd" d="M6.15982 1.93072C6.83407 1.48618 7.71006 1.25 8.76 1.25H15.24C16.2899 1.25 17.1659 1.48618 17.8402 1.93072C18.521 2.3796 18.9547 3.01492 19.1456 3.72544C19.5212 5.12387 18.9442 6.70561 17.7638 7.77557L13.1152 12L17.7637 16.2243C18.9439 17.2943 19.5212 18.8762 19.1456 20.2746C18.9547 20.9851 18.521 21.6204 17.8402 22.0693C17.1659 22.5138 16.2899 22.75 15.24 22.75H8.76C7.71006 22.75 6.83407 22.5138 6.15982 22.0693C5.479 21.6204 5.04527 20.9851 4.85442 20.2746C4.47886 18.8764 5.05563 17.2949 6.2356 16.2249L10.8848 12L6.23631 7.7757C5.05612 6.70573 4.47883 5.12377 4.85442 3.72544C5.04527 3.01492 5.479 2.3796 6.15982 1.93072ZM12 10.9866L16.7556 6.66495C17.6051 5.89492 17.8988 4.86608 17.6969 4.11456C17.599 3.75008 17.3821 3.4254 17.0145 3.18303C16.6403 2.93632 16.0701 2.75 15.24 2.75H8.76C7.92994 2.75 7.35968 2.93632 6.98549 3.18303C6.61787 3.4254 6.40097 3.75008 6.30307 4.11456C6.10121 4.86608 6.39414 5.89427 7.24368 6.6643L12 10.9866ZM12 13.0134L7.2444 17.3351C6.39485 18.1051 6.10121 19.1339 6.30307 19.8854C6.40097 20.2499 6.61787 20.5746 6.98549 20.817C7.35968 21.0637 7.92994 21.25 8.76 21.25H15.24C16.0701 21.25 16.6403 21.0637 17.0145 20.817C17.3821 20.5746 17.599 20.2499 17.6969 19.8854C17.8988 19.1339 17.6059 18.1057 16.7563 17.3357L12 13.0134Z" fill="#424B5A"/>
</svg>
