<svg width="24" height="24" viewBox="0 0 24 24" fill="none" xmlns="http://www.w3.org/2000/svg">
<path fill-rule="evenodd" clip-rule="evenodd" d="M2.75 5.01001C2.75 4.11967 2.97105 3.5926 3.28217 3.28224C3.59364 2.97155 4.12373 2.75 5.02 2.75H8.94C9.86749 2.75 10.4064 2.97458 10.7147 3.28284C11.0193 3.58751 11.2324 4.10807 11.2102 5.00146L11.21 5.02002V8.94L11.2102 8.95811C11.2326 9.88302 11.0163 10.413 10.7147 10.7147C10.413 11.0164 9.88302 11.2326 8.95811 11.2102L8.94 11.21H5.02L5.00516 11.2102C4.11121 11.2279 3.58934 11.0132 3.28349 10.7066C2.97443 10.3968 2.75 9.85715 2.75 8.92999V5.01001ZM5.02 1.25C3.89628 1.25 2.91636 1.52846 2.22283 2.22027C1.52896 2.91242 1.25 3.89035 1.25 5.01001V8.92999C1.25 10.0728 1.52557 11.0682 2.22151 11.7659C2.91909 12.4652 3.90433 12.731 5.02722 12.71H8.93119C10.0724 12.7361 11.0739 12.4768 11.7753 11.7753C12.4768 11.0739 12.736 10.0724 12.71 8.93119V5.02901C12.7362 3.90637 12.4737 2.92054 11.7753 2.22218C11.0786 1.52543 10.0825 1.25 8.94 1.25H5.02ZM16.92 12.59C14.5251 12.59 12.59 14.5332 12.59 16.92C12.59 19.3148 14.5332 21.25 16.92 21.25C19.3158 21.25 21.25 19.3158 21.25 16.92C21.25 14.5252 19.3067 12.59 16.92 12.59ZM11.09 16.92C11.09 13.7067 13.6948 11.09 16.92 11.09C20.1332 11.09 22.75 13.6948 22.75 16.92C22.75 20.1442 20.1442 22.75 16.92 22.75C13.7067 22.75 11.09 20.1452 11.09 16.92ZM17.5905 14.064C17.4633 13.8102 17.2038 13.65 16.9199 13.65C16.6361 13.65 16.3766 13.8102 16.2494 14.064L14.1094 18.3339C13.9239 18.7043 14.0736 19.1549 14.4439 19.3405C14.8142 19.5261 15.2649 19.3763 15.4505 19.006L15.6239 18.66H18.216L18.3894 19.006C18.575 19.3763 19.0257 19.5261 19.396 19.3405C19.7663 19.1549 19.916 18.7043 19.7305 18.3339L19.4066 17.6877C19.3821 17.6087 19.3449 17.5353 19.2974 17.4698L17.5905 14.064ZM17.4642 17.16L16.9199 16.0739L16.3756 17.16H17.4642ZM4.19994 5.84998C4.19994 5.43576 4.53572 5.09998 4.94994 5.09998H6.22316C6.25847 4.71859 6.57933 4.41998 6.96994 4.41998C7.36055 4.41998 7.68141 4.71859 7.71672 5.09998H7.86748C7.90733 5.09343 7.94824 5.09003 7.98994 5.09003C8.03165 5.09003 8.07256 5.09343 8.11241 5.09998H9.00993C9.42415 5.09998 9.75993 5.43576 9.75993 5.84998C9.75993 6.26419 9.42415 6.59998 9.00993 6.59998H8.66795C8.57482 7.08551 8.39424 7.54085 8.14313 7.94646C8.41297 8.15488 8.7127 8.26001 9.00993 8.26001C9.42415 8.26001 9.75993 8.5958 9.75993 9.01001C9.75993 9.42422 9.42415 9.76001 9.00993 9.76001C8.28888 9.76001 7.64162 9.48527 7.12219 9.04894C6.50725 9.49583 5.75629 9.76001 4.93994 9.76001C4.52573 9.76001 4.18994 9.42422 4.18994 9.01001C4.18994 8.5958 4.52573 8.26001 4.93994 8.26001C5.55401 8.26001 6.1242 8.00046 6.54325 7.57281C6.57917 7.52096 6.62218 7.47297 6.67203 7.43036C6.87112 7.19158 7.02686 6.91059 7.12449 6.59998H6.96994H4.94994C4.53572 6.59998 4.19994 6.26419 4.19994 5.84998ZM2 14.25C2.41421 14.25 2.75 14.5858 2.75 15C2.75 17.9666 4.8091 20.4456 7.57819 21.0881L7.30688 20.6359C7.09377 20.2807 7.20894 19.82 7.56412 19.6069C7.91931 19.3938 8.38 19.5089 8.59312 19.8641L9.64312 21.6141C9.78214 21.8458 9.78578 22.1344 9.65265 22.3695C9.51952 22.6047 9.2702 22.75 9 22.75C4.71579 22.75 1.25 19.2842 1.25 15C1.25 14.5858 1.58579 14.25 2 14.25ZM15 1.25C14.7298 1.25 14.4805 1.39534 14.3474 1.63048C14.2142 1.86561 14.2179 2.15417 14.3569 2.38587L15.4069 4.13587C15.62 4.49106 16.0807 4.60623 16.4359 4.39312C16.7911 4.18001 16.9062 3.71931 16.6931 3.36413L16.4218 2.91194C19.1909 3.55437 21.25 6.03342 21.25 9C21.25 9.41421 21.5858 9.75 22 9.75C22.4142 9.75 22.75 9.41421 22.75 9C22.75 4.71579 19.2842 1.25 15 1.25Z" fill="#424B5A"/>
</svg>
