<svg width="24" height="24" viewBox="0 0 24 24" fill="none" xmlns="http://www.w3.org/2000/svg">
<path fill-rule="evenodd" clip-rule="evenodd" d="M8.20828 1.25C6.31678 1.25 4.82923 1.48504 3.88309 2.49637C2.9536 3.48991 2.73828 5.03644 2.73828 7.04V18.3L2.73829 18.3028C2.74101 19.0304 2.8416 19.6736 3.05607 20.1959C3.27158 20.7206 3.62553 21.1727 4.15213 21.3991C4.68408 21.6277 5.25338 21.5665 5.77296 21.3431C6.28521 21.1228 6.7903 20.731 7.2757 20.2127L7.27698 20.2113C7.54598 19.9226 7.85202 19.8193 8.12 19.8339C8.38819 19.8485 8.68193 19.9851 8.91828 20.3L9.92774 21.6493L9.93029 21.6527C10.4556 22.3466 11.195 22.7525 11.9933 22.7525C12.7916 22.7525 13.531 22.3466 14.0563 21.6527L14.0588 21.6493L15.0684 20.2998C15.3048 19.9847 15.5983 19.8485 15.8666 19.8339C16.1345 19.8193 16.4406 19.9226 16.7096 20.2113L16.7109 20.2128C17.1985 20.7332 17.7046 21.1262 18.2169 21.3471C18.7365 21.5712 19.3061 21.6332 19.838 21.4036C20.3644 21.1764 20.7161 20.7228 20.9288 20.1986C21.1406 19.6769 21.2383 19.0349 21.2383 18.31V7.04C21.2383 5.03644 21.023 3.48991 20.0935 2.49637C19.1473 1.48504 17.6598 1.25 15.7683 1.25H8.20828ZM4.23828 7.04C4.23828 5.01356 4.49296 4.0401 4.97847 3.52113C5.44734 3.01996 6.31978 2.75 8.20828 2.75H15.7683C17.6568 2.75 18.5292 3.01996 18.9981 3.52113C19.4836 4.0401 19.7383 5.01356 19.7383 7.04V18.31C19.7383 18.9151 19.6547 19.3494 19.539 19.6345C19.4242 19.9172 19.3021 20.0011 19.2436 20.0264C19.1904 20.0493 19.0638 20.0788 18.8109 19.9697C18.5508 19.8576 18.2083 19.617 17.8061 19.1877C17.2552 18.5971 16.5266 18.2957 15.785 18.3361C15.0433 18.3765 14.3513 18.7559 13.8677 19.4007L12.8603 20.7473L12.8591 20.7489C12.5747 21.1237 12.2546 21.2525 11.9933 21.2525C11.7319 21.2525 11.4118 21.1238 11.1275 20.7489L11.1263 20.7473L10.1183 19.4C9.63468 18.7552 8.94325 18.3765 8.20156 18.3361C7.45991 18.2957 6.73131 18.5971 6.18041 19.1878C5.781 19.6142 5.43999 19.8535 5.18046 19.9651C4.92817 20.0735 4.79997 20.0448 4.74442 20.0209C4.68352 19.9948 4.55997 19.9094 4.44362 19.626C4.3263 19.3404 4.24068 18.9053 4.23828 18.2986V7.04ZM6.18041 19.1878C6.18013 19.1881 6.17985 19.1884 6.17957 19.1887L6.72827 19.7L6.18085 19.1873C6.1807 19.1875 6.18056 19.1876 6.18041 19.1878ZM9.25 9.25C8.83579 9.25 8.5 9.58579 8.5 10C8.5 10.4142 8.83579 10.75 9.25 10.75H14.75C15.1642 10.75 15.5 10.4142 15.5 10C15.5 9.58579 15.1642 9.25 14.75 9.25H9.25Z" fill="#424B5A"/>
</svg>
