<svg width="24" height="24" viewBox="0 0 24 24" fill="none" xmlns="http://www.w3.org/2000/svg">
<path fill-rule="evenodd" clip-rule="evenodd" d="M9.45958 3.78456L9.29681 4.75377C9.85786 4.73791 10.4189 4.72998 10.98 4.72998C12.2227 4.72998 13.4667 4.75334 14.7105 4.79954L14.5398 3.79069C14.4561 3.27767 14.4032 3.09352 14.306 2.98155C14.2523 2.9196 14.0649 2.75 13.31 2.75H10.69C9.9239 2.75 9.7422 2.91488 9.69376 2.96981C9.60165 3.07427 9.54966 3.24976 9.45958 3.78456ZM7.98035 3.53579L7.76523 4.81675C6.83202 4.86712 5.89884 4.93943 4.96572 5.03367L2.92681 5.23356C2.51458 5.27397 2.21316 5.64092 2.25357 6.05316C2.29399 6.4654 2.66093 6.76682 3.07317 6.7264L5.11317 6.5264L5.11537 6.52618C7.07045 6.3287 9.02529 6.22998 10.98 6.22998C14.2946 6.22998 17.6199 6.39869 20.926 6.72632C21.3382 6.76717 21.7055 6.46614 21.7463 6.05394C21.7872 5.64175 21.4861 5.27448 21.074 5.23364C19.4673 5.07442 17.8559 4.95217 16.243 4.868C16.242 4.8603 16.2408 4.85258 16.2395 4.84486L16.0199 3.54711L16.0105 3.48891C15.9447 3.08006 15.8462 2.46776 15.439 1.99845C14.9677 1.4554 14.2451 1.25 13.31 1.25H10.69C9.76609 1.25 9.04279 1.44012 8.56873 1.97769C8.16203 2.43887 8.06102 3.04899 7.99216 3.46487L7.98035 3.53579ZM19.5984 9.18847C19.6251 8.77512 19.3117 8.4184 18.8983 8.39172C18.4849 8.36504 18.1282 8.6785 18.1016 9.09185L17.4518 19.1577L17.4517 19.1598C17.4235 19.5625 17.3996 19.882 17.3435 20.1604C17.2889 20.4315 17.2131 20.6096 17.1152 20.7371C16.9464 20.9569 16.5294 21.2502 15.21 21.2502H8.78999C7.47055 21.2502 7.05362 20.9569 6.88479 20.7371C6.78689 20.6096 6.71109 20.4315 6.65648 20.1604C6.60041 19.882 6.57652 19.5625 6.5483 19.1598L6.54816 19.1577L5.89843 9.09185C5.87175 8.6785 5.51503 8.36504 5.10168 8.39172C4.68833 8.4184 4.37487 8.77512 4.40155 9.18847L5.05154 19.2585L5.05315 19.2816C5.0795 19.6578 5.10847 20.0716 5.186 20.4565C5.2664 20.8557 5.40809 21.277 5.69519 21.6508C6.29636 22.4335 7.31943 22.7502 8.78999 22.7502H15.21C16.6806 22.7502 17.7036 22.4335 18.3048 21.6508C18.5919 21.277 18.7336 20.8557 18.814 20.4565C18.8915 20.0716 18.9205 19.6578 18.9468 19.2816L18.9482 19.2626L19.5984 9.18847ZM9.57999 16.5C9.57999 16.0858 9.91577 15.75 10.33 15.75H13.66C14.0742 15.75 14.41 16.0858 14.41 16.5C14.41 16.9142 14.0742 17.25 13.66 17.25H10.33C9.91577 17.25 9.57999 16.9142 9.57999 16.5ZM9.5 11.75C9.08579 11.75 8.75 12.0858 8.75 12.5C8.75 12.9142 9.08579 13.25 9.5 13.25H14.5C14.9142 13.25 15.25 12.9142 15.25 12.5C15.25 12.0858 14.9142 11.75 14.5 11.75H9.5Z" fill="#424B5A"/>
</svg>
