<svg width="24" height="24" viewBox="0 0 24 24" fill="none" xmlns="http://www.w3.org/2000/svg">
<path fill-rule="evenodd" clip-rule="evenodd" d="M11.9987 2.69482C11.9592 2.69482 11.845 2.71338 11.7144 2.89992L11.7104 2.90567L7.53897 8.74755C7.33886 9.02597 7.34208 9.16549 7.34716 9.20022C7.37219 9.2244 7.48421 9.30982 7.82995 9.30982H16.17C16.5106 9.30982 16.6236 9.22704 16.6501 9.20217C16.6547 9.16562 16.6541 9.02622 16.454 8.7517L16.4496 8.74567L12.2796 2.90565L12.2714 2.89397C12.1466 2.71185 12.0369 2.69482 11.9987 2.69482ZM13.5041 2.03921C13.1489 1.52503 12.6105 1.19482 11.9987 1.19482C11.387 1.19482 10.8472 1.52491 10.4878 2.03658L6.32095 7.87209L6.32019 7.87315C5.89803 8.46101 5.66292 9.21148 6.01214 9.8886C6.35064 10.5449 7.06461 10.7951 7.76666 10.8092L4.62088 15.2322C4.08123 15.9765 3.81439 16.8717 4.21611 17.6565C4.61782 18.4414 5.50105 18.7498 6.41999 18.7498H11.25V21.9998C11.25 22.414 11.5858 22.7498 12 22.7498C12.4142 22.7498 12.75 22.414 12.75 21.9998V18.7498H17.59C18.5089 18.7498 19.3921 18.4414 19.7938 17.6565C20.1956 16.8717 19.9287 15.9765 19.3891 15.2322L16.2431 10.809C16.9412 10.7928 17.652 10.5422 17.9876 9.88652C18.3352 9.20733 18.0945 8.4572 17.6683 7.87116L13.5041 2.03921ZM12 17.2498H17.59C18.251 17.2498 18.4278 17.0333 18.4586 16.9731C18.4888 16.9141 18.562 16.6458 18.1732 16.1107L18.1688 16.1045L14.4031 10.8098H9.6069L5.83677 16.1107C5.448 16.6458 5.52116 16.9141 5.55137 16.9731C5.58215 17.0333 5.75893 17.2498 6.41999 17.2498H12Z" fill="#424B5A"/>
</svg>
