<svg width="24" height="24" viewBox="0 0 24 24" fill="none" xmlns="http://www.w3.org/2000/svg">
<path fill-rule="evenodd" clip-rule="evenodd" d="M9 1.25C6.42603 1.25 4.42914 1.7602 3.09467 3.09467C1.7602 4.42914 1.25 6.42603 1.25 9V15C1.25 17.574 1.7602 19.5709 3.09467 20.9053C4.42914 22.2398 6.42603 22.75 9 22.75H15C17.574 22.75 19.5709 22.2398 20.9053 20.9053C22.2398 19.5709 22.75 17.574 22.75 15V9C22.75 6.42603 22.2398 4.42914 20.9053 3.09467C19.5709 1.7602 17.574 1.25 15 1.25H9ZM2.75 9C2.75 6.57397 3.2398 5.07086 4.15533 4.15533C5.07086 3.2398 6.57397 2.75 9 2.75H15C17.426 2.75 18.9291 3.2398 19.8447 4.15533C20.7602 5.07086 21.25 6.57397 21.25 9V15C21.25 17.426 20.7602 18.9291 19.8447 19.8447C18.9291 20.7602 17.426 21.25 15 21.25H9C6.57397 21.25 5.07086 20.7602 4.15533 19.8447C3.2398 18.9291 2.75 17.426 2.75 15V9ZM6.96967 8.96967C7.26256 8.67678 7.73744 8.67678 8.03033 8.96967L10.5834 11.5228L11.676 9.88398C11.8006 9.69702 12.0025 9.57579 12.2261 9.55365C12.4497 9.53151 12.6714 9.61079 12.8303 9.76967L15.75 12.6893V12.5C15.75 12.0858 16.0858 11.75 16.5 11.75C16.9142 11.75 17.25 12.0858 17.25 12.5V14.5C17.25 14.6017 17.2298 14.6987 17.1931 14.7871C17.1565 14.8755 17.1022 14.9584 17.0303 15.0303C16.9584 15.1022 16.8755 15.1565 16.7871 15.1931C16.6987 15.2298 16.6017 15.25 16.5 15.25H14.5C14.0858 15.25 13.75 14.9142 13.75 14.5C13.75 14.0858 14.0858 13.75 14.5 13.75H14.6893L12.4166 11.4772L11.324 13.116C11.1994 13.303 10.9975 13.4242 10.7739 13.4464C10.5503 13.4685 10.3286 13.3892 10.1697 13.2303L6.96967 10.0303C6.67678 9.73744 6.67678 9.26256 6.96967 8.96967Z" fill="#424B5A"/>
</svg>
