<svg width="24" height="24" viewBox="0 0 24 24" fill="none" xmlns="http://www.w3.org/2000/svg">
<path fill-rule="evenodd" clip-rule="evenodd" d="M9 1.25C6.42603 1.25 4.42914 1.7602 3.09467 3.09467C1.7602 4.42914 1.25 6.42603 1.25 9V15C1.25 17.574 1.7602 19.5709 3.09467 20.9053C4.42914 22.2398 6.42603 22.75 9 22.75H15C17.574 22.75 19.5709 22.2398 20.9053 20.9053C22.2398 19.5709 22.75 17.574 22.75 15V9C22.75 6.42603 22.2398 4.42914 20.9053 3.09467C19.5709 1.7602 17.574 1.25 15 1.25H9ZM2.75 9C2.75 6.57397 3.2398 5.07086 4.15533 4.15533C5.07086 3.2398 6.57397 2.75 9 2.75H15C17.426 2.75 18.9291 3.2398 19.8447 4.15533C20.7602 5.07086 21.25 6.57397 21.25 9V15C21.25 17.426 20.7602 18.9291 19.8447 19.8447C18.9291 20.7602 17.426 21.25 15 21.25H9C6.57397 21.25 5.07086 20.7602 4.15533 19.8447C3.2398 18.9291 2.75 17.426 2.75 15V9ZM17.0319 8.97126C17.103 9.0428 17.1568 9.12511 17.1931 9.21291C17.2298 9.30134 17.25 9.39831 17.25 9.5V11.5C17.25 11.9142 16.9142 12.25 16.5 12.25C16.0858 12.25 15.75 11.9142 15.75 11.5V11.3107L12.8303 14.2303C12.6714 14.3892 12.4497 14.4685 12.2261 14.4464C12.0025 14.4242 11.8006 14.303 11.676 14.116L10.5834 12.4772L8.03033 15.0303C7.73744 15.3232 7.26256 15.3232 6.96967 15.0303C6.67678 14.7374 6.67678 14.2626 6.96967 13.9697L10.1697 10.7697C10.3286 10.6108 10.5503 10.5315 10.7739 10.5536C10.9975 10.5758 11.1994 10.697 11.324 10.884L12.4166 12.5228L14.6893 10.25H14.5C14.0858 10.25 13.75 9.91421 13.75 9.5C13.75 9.08579 14.0858 8.75 14.5 8.75H16.5C16.6017 8.75 16.6987 8.77024 16.7871 8.80691C16.8749 8.84324 16.9572 8.89696 17.0287 8.96808L17.0303 8.96967L17.0319 8.97126Z" fill="#424B5A"/>
</svg>
