<svg width="24" height="24" viewBox="0 0 24 24" fill="none" xmlns="http://www.w3.org/2000/svg">
<path fill-rule="evenodd" clip-rule="evenodd" d="M11.25 3.49787C10.6377 3.75057 9.98944 4.32916 9.41588 5.3635L3.3559 16.2635C2.76259 17.3335 2.65195 18.2273 2.82553 18.8983L11.25 12.9994V3.49787ZM12.75 3.49797V12.9994L21.1742 18.8981C21.3454 18.228 21.2342 17.3378 20.644 16.2735L14.5844 5.36412C14.0108 4.32975 13.3624 3.75084 12.75 3.49797ZM5.93997 20.6598C4.95491 20.6598 4.22298 20.4415 3.71373 20.1075L12 14.3054L20.2914 20.1111C19.7817 20.4489 19.0477 20.6698 18.06 20.6698H12.1227C12.0828 20.6632 12.0418 20.6598 12 20.6598H5.93997ZM11.8772 22.1598H5.93997C4.04021 22.1598 2.50723 21.4745 1.74192 20.1707C0.977026 18.8676 1.12454 17.1945 2.04405 15.5361L8.10407 4.63607C9.06762 2.89878 10.45 1.84229 12 1.84229C13.5499 1.84229 14.932 2.89814 15.8955 4.63545L18.8355 9.92545L21.9557 15.5458C22.8758 17.2052 23.0201 18.8787 22.2539 20.1813C21.4876 21.4841 19.9555 22.1698 18.06 22.1698H12C11.9582 22.1698 11.9171 22.1664 11.8772 22.1598Z" fill="#424B5A"/>
</svg>
