<svg width="24" height="24" viewBox="0 0 24 24" fill="none" xmlns="http://www.w3.org/2000/svg">
<path fill-rule="evenodd" clip-rule="evenodd" d="M2.96748 2.46648C3.53157 2.01685 4.23847 1.75 5 1.75C5.79723 1.75 6.52714 2.03661 7.09238 2.51247C7.10916 2.53038 7.12692 2.54759 7.14564 2.564C7.72925 3.07556 8.1271 3.78988 8.22684 4.60973C8.24213 4.73767 8.25 4.86791 8.25 5C8.25 5.36448 8.18899 5.71627 8.07622 6.04353C8.00725 6.24138 7.91914 6.43084 7.81412 6.6088L7.8044 6.62576C7.79559 6.64162 7.78665 6.65738 7.77759 6.67303L7.77215 6.68209C7.6856 6.83047 7.58639 6.96994 7.47709 7.09825C7.39256 7.1965 7.30251 7.28613 7.20804 7.36536C7.1956 7.37579 7.1835 7.38663 7.17177 7.39785C7.07251 7.49272 6.96708 7.58079 6.85604 7.66148C6.33453 8.0351 5.69624 8.25 5 8.25C4.43802 8.25 3.9111 8.108 3.45265 7.85843C3.11545 7.67268 2.81768 7.42768 2.57454 7.13791C2.54478 7.10245 2.51224 7.07027 2.47742 7.04153C2.38503 6.92609 2.3005 6.80417 2.2246 6.67658L2.22469 6.67653L2.2184 6.66633C1.92053 6.1833 1.75 5.60937 1.75 5C1.75 3.97454 2.221 3.0588 2.96618 2.46752L2.96748 2.46648ZM1.25 7.90693C1.13745 7.76065 1.03338 7.60761 0.938497 7.44856C0.498325 6.73268 0.25 5.88852 0.25 5C0.25 3.50575 0.938723 2.16174 2.03317 1.29301C2.84898 0.642947 3.88183 0.25 5 0.25C6.0996 0.25 7.11169 0.623242 7.91653 1.25H15C15.4142 1.25 15.75 1.58579 15.75 2V4.25H16.84C17.8339 4.25 18.7377 4.788 19.2286 5.63341L19.2311 5.63767L19.2311 5.63768L20.9406 8.62699L20.941 8.62767L20.9416 8.62859L22.6516 11.6286C22.7161 11.7417 22.75 11.8698 22.75 12V14V17C22.75 19.0742 21.0742 20.75 19 20.75H18.6465C18.32 21.9043 17.2588 22.75 16 22.75C14.7412 22.75 13.68 21.9043 13.3535 20.75H10.6465C10.32 21.9043 9.25878 22.75 8 22.75C6.74122 22.75 5.67998 21.9043 5.35352 20.75H5C2.92579 20.75 1.25 19.0742 1.25 17V14V7.90693ZM2.75 9.18379V13.25H13C13.6858 13.25 14.25 12.6858 14.25 12V5V2.75H9.18472C9.46905 3.27791 9.6564 3.86584 9.72297 4.48998C9.73727 4.62175 9.74627 4.75525 9.74974 4.89028C9.7649 5.45999 9.67386 6.01445 9.49531 6.52952C9.38519 6.84971 9.24116 7.15496 9.06677 7.43998C8.9368 7.66236 8.78567 7.87722 8.61395 8.07681C8.46271 8.2537 8.29801 8.41763 8.12204 8.56616C7.99849 8.67673 7.86926 8.7805 7.73488 8.87706C6.99144 9.41637 6.08532 9.73011 5.1065 9.74982C4.25475 9.77013 3.44834 9.56367 2.75072 9.18418L2.75 9.18379ZM19 14.75H21.25V17C21.25 18.2458 20.2458 19.25 19 19.25H18.6465C18.32 18.0957 17.2588 17.25 16 17.25C14.7412 17.25 13.68 18.0957 13.3535 19.25H10.6465C10.32 18.0957 9.25878 17.25 8 17.25C6.74122 17.25 5.67998 18.0957 5.35352 19.25H5C3.75421 19.25 2.75 18.2458 2.75 17V14.75H13C14.5142 14.75 15.75 13.5142 15.75 12V5.75H16.84C17.2855 5.75 17.701 5.99126 17.9303 6.38475L17.9314 6.38661L18.9971 8.25C18.0342 8.25159 17.25 9.03676 17.25 10V13C17.25 13.9642 18.0358 14.75 19 14.75ZM21.25 12.1987V13.25H19C18.8642 13.25 18.75 13.1358 18.75 13V10C18.75 9.86421 18.8642 9.75 19 9.75H19.8542L21.25 12.1987ZM16 18.75C16.6858 18.75 17.25 19.3142 17.25 20C17.25 20.6904 16.6904 21.25 16 21.25C15.3096 21.25 14.75 20.6904 14.75 20C14.75 19.3142 15.3142 18.75 16 18.75ZM8 21.25C7.30964 21.25 6.75 20.6904 6.75 20C6.75 19.3142 7.31421 18.75 8 18.75C8.68579 18.75 9.25 19.3142 9.25 20C9.25 20.6904 8.69036 21.25 8 21.25ZM3.42969 3.39966C3.72259 3.10677 4.19746 3.10677 4.49035 3.39966L5.01501 3.92432L5.50965 3.42969C5.80254 3.1368 6.27741 3.1368 6.57031 3.42969C6.8632 3.72259 6.8632 4.19746 6.57031 4.49035L6.07568 4.98499L6.60034 5.50965C6.89323 5.80254 6.89323 6.27741 6.60034 6.57031C6.30744 6.8632 5.83257 6.8632 5.53968 6.57031L5.01501 6.04565L4.46032 6.60034C4.16743 6.89323 3.69256 6.89323 3.39966 6.60034C3.10677 6.30744 3.10677 5.83257 3.39966 5.53968L3.95435 4.98499L3.42969 4.46032C3.1368 4.16743 3.1368 3.69256 3.42969 3.39966Z" fill="#424B5A"/>
</svg>
