<svg width="24" height="24" viewBox="0 0 24 24" fill="none" xmlns="http://www.w3.org/2000/svg">
<path fill-rule="evenodd" clip-rule="evenodd" d="M5 1.75C4.23847 1.75 3.53157 2.01685 2.96748 2.46648L2.96618 2.46752C2.221 3.0588 1.75 3.97454 1.75 5C1.75 5.76645 2.0149 6.47068 2.45821 7.02619C2.50031 7.05868 2.53937 7.096 2.57454 7.13791C2.83765 7.45149 3.16474 7.71263 3.53654 7.903C3.9763 8.12498 4.47347 8.25 5 8.25C5.67214 8.25 6.29705 8.04263 6.8217 7.68607C6.94539 7.59878 7.06233 7.50245 7.17177 7.39785C7.1835 7.38663 7.1956 7.37579 7.20804 7.36536C7.43845 7.17212 7.64261 6.91698 7.8044 6.62576L7.81412 6.6088C7.9663 6.35093 8.08296 6.06893 8.15735 5.77223C8.21788 5.52499 8.25 5.26644 8.25 5C8.25 4.86791 8.24213 4.73767 8.22684 4.60973C8.1271 3.78988 7.72925 3.07556 7.14564 2.564C7.12692 2.54759 7.10916 2.53038 7.09238 2.51247C6.52714 2.03661 5.79723 1.75 5 1.75ZM0.25 5C0.25 6.0996 0.623242 7.11169 1.25 7.91653V14V17C1.25 19.0742 2.92579 20.75 5 20.75H5.35352C5.67998 21.9043 6.74122 22.75 8 22.75C9.25878 22.75 10.32 21.9043 10.6465 20.75H13.3535C13.68 21.9043 14.7412 22.75 16 22.75C17.2588 22.75 18.32 21.9043 18.6465 20.75H19C21.0742 20.75 22.75 19.0742 22.75 17V14V12C22.75 11.8698 22.7161 11.7417 22.6516 11.6286L20.9416 8.62859L20.941 8.62767L20.9406 8.62699L19.2311 5.63768L19.2311 5.63767L19.2286 5.63341C18.7377 4.788 17.8339 4.25 16.84 4.25H15.75V2C15.75 1.58579 15.4142 1.25 15 1.25H7.91653C7.11169 0.623242 6.0996 0.25 5 0.25C3.88183 0.25 2.84898 0.642947 2.03317 1.29301C0.938723 2.16174 0.25 3.50575 0.25 5ZM2.75 13.25V9.18472C2.81351 9.21893 2.8779 9.25174 2.94311 9.2831C3.59494 9.59924 4.33197 9.76829 5.1065 9.74982C6.06109 9.7306 6.94654 9.43172 7.67937 8.9167C7.83774 8.80825 7.9893 8.6907 8.13333 8.56493L8.13533 8.56317C8.85806 7.92752 9.3905 7.07231 9.62206 6.09745C9.7158 5.70925 9.76074 5.30378 9.74974 4.89028C9.74627 4.75525 9.73727 4.62175 9.72297 4.48998C9.6564 3.86584 9.46905 3.27791 9.18472 2.75H14.25V5V12C14.25 12.6858 13.6858 13.25 13 13.25H2.75ZM21.25 14.75H19C18.0358 14.75 17.25 13.9642 17.25 13V10C17.25 9.03676 18.0342 8.25159 18.9971 8.25L17.9314 6.38661L17.9303 6.38475C17.701 5.99126 17.2855 5.75 16.84 5.75H15.75V12C15.75 13.5142 14.5142 14.75 13 14.75H2.75V17C2.75 18.2458 3.75421 19.25 5 19.25H5.35352C5.67998 18.0957 6.74122 17.25 8 17.25C9.25878 17.25 10.32 18.0957 10.6465 19.25H13.3535C13.68 18.0957 14.7412 17.25 16 17.25C17.2588 17.25 18.32 18.0957 18.6465 19.25H19C20.2458 19.25 21.25 18.2458 21.25 17V14.75ZM21.25 13.25V12.1987L19.8542 9.75H19C18.8642 9.75 18.75 9.86421 18.75 10V13C18.75 13.1358 18.8642 13.25 19 13.25H21.25ZM17.25 20C17.25 19.3142 16.6858 18.75 16 18.75C15.3142 18.75 14.75 19.3142 14.75 20C14.75 20.6904 15.3096 21.25 16 21.25C16.6904 21.25 17.25 20.6904 17.25 20ZM6.75 20C6.75 20.6904 7.30964 21.25 8 21.25C8.69036 21.25 9.25 20.6904 9.25 20C9.25 19.3142 8.68579 18.75 8 18.75C7.31421 18.75 6.75 19.3142 6.75 20ZM7.06115 4.509C7.35898 4.22114 7.36706 3.74633 7.0792 3.4485C6.79133 3.15066 6.31652 3.14258 6.01869 3.43045L4.4456 4.95089L3.95663 4.48616C3.6564 4.2008 3.18167 4.21286 2.89631 4.5131C2.61095 4.81333 2.62302 5.28805 2.92325 5.57341L3.93326 6.53337C4.22453 6.81021 4.68224 6.80829 4.97118 6.52902L7.06115 4.509Z" fill="#424B5A"/>
</svg>
