<svg width="24" height="24" viewBox="0 0 24 24" fill="none" xmlns="http://www.w3.org/2000/svg">
<path fill-rule="evenodd" clip-rule="evenodd" d="M3.03033 4.53033C3.16562 4.39504 3.29453 4.25376 3.42339 4.11253C4.04556 3.43066 4.66662 2.75 6 2.75H14.25V5V11.5C14.25 12.3863 14.031 12.7267 13.8 12.9C13.5106 13.117 12.9815 13.25 12 13.25C11.5858 13.25 11.25 13.5858 11.25 14C11.25 14.4142 11.5858 14.75 12 14.75H13C14.5142 14.75 15.75 13.5142 15.75 12V11.5V5.75H16.84C16.9156 5.75 16.9903 5.75694 17.0634 5.77039L17.9546 6.42709L18.9971 8.25C18.0342 8.25159 17.25 9.03676 17.25 10V13C17.25 13.9642 18.0358 14.75 19 14.75H21.25V17C21.25 18.2458 20.2458 19.25 19 19.25H18.6465C18.32 18.0957 17.2588 17.25 16 17.25C14.7412 17.25 13.68 18.0957 13.3535 19.25H10.6465C10.32 18.0957 9.25878 17.25 8 17.25C6.74122 17.25 5.67998 18.0957 5.35352 19.25H5C3.75421 19.25 2.75 18.2458 2.75 17C2.75 16.5858 2.41421 16.25 2 16.25C1.58579 16.25 1.25 16.5858 1.25 17C1.25 19.0742 2.92579 20.75 5 20.75H5.35352C5.67998 21.9043 6.74122 22.75 8 22.75C9.25878 22.75 10.32 21.9043 10.6465 20.75H13.3535C13.68 21.9043 14.7412 22.75 16 22.75C17.2588 22.75 18.32 21.9043 18.6465 20.75H19C21.0742 20.75 22.75 19.0742 22.75 17V14V12C22.75 11.8698 22.7161 11.7417 22.6516 11.6286L20.9416 8.62859L20.941 8.62767L17.9546 6.42709L17.9543 6.42666L20.9405 8.62682L19.2311 5.63768L19.2311 5.63767L19.2286 5.63341C18.7377 4.788 17.8339 4.25 16.84 4.25H15.75V2C15.75 1.58579 15.4142 1.25 15 1.25H6C3.94269 1.25 2.84487 2.49056 2.23153 3.18363C2.13221 3.29587 2.0456 3.39374 1.96967 3.46967C1.67678 3.76256 1.67678 4.23744 1.96967 4.53033C2.26256 4.82322 2.73744 4.82322 3.03033 4.53033ZM15.75 4.80258L17.0637 5.77045L17.0634 5.77039L15.75 4.80264V4.80258ZM17.0637 5.77045L17.9543 6.42666L17.9314 6.38661L17.9303 6.38475C17.74 6.0581 17.4213 5.83636 17.0637 5.77045ZM19.8542 9.75H19C18.8642 9.75 18.75 9.86421 18.75 10V13C18.75 13.1358 18.8642 13.25 19 13.25H21.25V12.1987L19.8542 9.75ZM16 21.25C15.3096 21.25 14.75 20.6904 14.75 20C14.75 19.3142 15.3142 18.75 16 18.75C16.6858 18.75 17.25 19.3142 17.25 20C17.25 20.6904 16.6904 21.25 16 21.25ZM8 18.75C8.68579 18.75 9.25 19.3142 9.25 20C9.25 20.6904 8.69036 21.25 8 21.25C7.30964 21.25 6.75 20.6904 6.75 20C6.75 19.3142 7.31421 18.75 8 18.75ZM1.25 8C1.25 7.58579 1.58579 7.25 2 7.25H8C8.41421 7.25 8.75 7.58579 8.75 8C8.75 8.41421 8.41421 8.75 8 8.75H2C1.58579 8.75 1.25 8.41421 1.25 8ZM1.25 11C1.25 10.5858 1.58579 10.25 2 10.25H6C6.41421 10.25 6.75 10.5858 6.75 11C6.75 11.4142 6.41421 11.75 6 11.75H2C1.58579 11.75 1.25 11.4142 1.25 11ZM2 13.25C1.58579 13.25 1.25 13.5858 1.25 14C1.25 14.4142 1.58579 14.75 2 14.75H4C4.41421 14.75 4.75 14.4142 4.75 14C4.75 13.5858 4.41421 13.25 4 13.25H2Z" fill="#424B5A"/>
</svg>
