<svg width="24" height="24" viewBox="0 0 24 24" fill="none" xmlns="http://www.w3.org/2000/svg">
<path fill-rule="evenodd" clip-rule="evenodd" d="M9 1.25C6.42603 1.25 4.42914 1.7602 3.09467 3.09467C1.7602 4.42914 1.25 6.42603 1.25 9V15C1.25 17.574 1.7602 19.5709 3.09467 20.9053C4.42914 22.2398 6.42603 22.75 9 22.75H15C17.574 22.75 19.5709 22.2398 20.9053 20.9053C22.2398 19.5709 22.75 17.574 22.75 15V9C22.75 6.42603 22.2398 4.42914 20.9053 3.09467C19.5709 1.7602 17.574 1.25 15 1.25H9ZM2.75 9C2.75 6.57397 3.2398 5.07086 4.15533 4.15533C5.07086 3.2398 6.57397 2.75 9 2.75H15C17.426 2.75 18.9291 3.2398 19.8447 4.15533C20.7602 5.07086 21.25 6.57397 21.25 9V15C21.25 17.426 20.7602 18.9291 19.8447 19.8447C18.9291 20.7602 17.426 21.25 15 21.25H9C6.57397 21.25 5.07086 20.7602 4.15533 19.8447C3.2398 18.9291 2.75 17.426 2.75 15V9ZM11.33 7.97C11.0655 7.97 10.8011 7.97284 10.5369 7.97843L10.5904 7.64942C10.6171 7.48435 10.634 7.388 10.6567 7.31128C10.6661 7.27958 10.6739 7.26117 10.6785 7.25166C10.7138 7.23345 10.8335 7.19 11.14 7.19H12.86C13.1692 7.19 13.2861 7.23629 13.3186 7.25465C13.3233 7.26342 13.3324 7.28325 13.3437 7.32112C13.3666 7.39784 13.3834 7.4926 13.4102 7.6533L13.468 8.00449C12.755 7.9815 12.042 7.97 11.33 7.97ZM9.10958 7.41057L9.00693 8.04113C8.45845 8.0743 7.9113 8.11872 7.3662 8.17364L6.02758 8.30351C5.6153 8.34351 5.31351 8.71015 5.35351 9.12243C5.39351 9.53471 5.76015 9.8365 6.17243 9.7965L6.78794 9.73678L7.18158 15.7788L7.18172 15.7808L7.18279 15.7966C7.19931 16.04 7.21881 16.3272 7.27306 16.5979C7.33001 16.882 7.43422 17.2004 7.65519 17.4881C8.12393 18.0984 8.89961 18.31 9.89 18.31H14.1C15.0904 18.31 15.8661 18.0984 16.3348 17.4881C16.5558 17.2004 16.66 16.882 16.7169 16.5979C16.7712 16.3272 16.7907 16.04 16.8072 15.7966L16.8083 15.7808L16.8084 15.7788L17.2021 9.73645C17.4098 9.75537 17.6173 9.77529 17.8247 9.79621C18.2368 9.8378 18.6046 9.53743 18.6462 9.12531C18.6878 8.71319 18.3874 8.34538 17.9753 8.30379C16.9864 8.204 15.9935 8.12658 14.9993 8.07154L14.89 7.40811L14.8898 7.4067L14.8815 7.35593C14.84 7.09815 14.7647 6.63115 14.4504 6.26867C14.0699 5.82981 13.5039 5.69 12.86 5.69H11.14C10.505 5.69 9.93645 5.82065 9.55272 6.2576C9.23305 6.6216 9.15903 7.09485 9.11748 7.36053L9.10958 7.41057ZM15.7066 9.61784C14.2494 9.51929 12.7875 9.47 11.33 9.47C10.3134 9.47 9.29575 9.51371 8.28197 9.59632L8.67827 15.6791L8.67834 15.6802C8.69654 15.9479 8.71114 16.1401 8.74381 16.3031C8.77498 16.4586 8.81327 16.5334 8.8448 16.5744C8.88107 16.6216 9.05039 16.81 9.89 16.81H14.1C14.9396 16.81 15.1089 16.6216 15.1452 16.5744C15.1767 16.5334 15.215 16.4586 15.2462 16.3031C15.2789 16.1401 15.2935 15.9479 15.3117 15.6802L15.3117 15.6791L15.7066 9.61784ZM10.6662 7.25953C10.666 7.25938 10.6678 7.25773 10.6724 7.25503C10.6687 7.25833 10.6665 7.25968 10.6662 7.25953ZM13.329 7.26202C13.3287 7.2622 13.3262 7.26064 13.3222 7.25679C13.3272 7.2599 13.3292 7.26183 13.329 7.26202Z" fill="#424B5A"/>
</svg>
