<svg width="24" height="24" viewBox="0 0 24 24" fill="none" xmlns="http://www.w3.org/2000/svg">
<path fill-rule="evenodd" clip-rule="evenodd" d="M6.96033 6.22027C7.25322 5.92738 7.25322 5.4525 6.96033 5.15961C6.66743 4.86672 6.19256 4.86672 5.89966 5.15961L3.33967 7.71961C3.04677 8.0125 3.04677 8.48738 3.33966 8.78027L5.89966 11.3403C6.19256 11.6332 6.66743 11.6332 6.96033 11.3403C7.25322 11.0474 7.25322 10.5725 6.96033 10.2796L5.74066 9.05994H15.13C17.4758 9.05994 19.38 10.9642 19.38 13.3099C19.38 15.6557 17.4758 17.5599 15.13 17.5599H7.13C6.71578 17.5599 6.38 17.8957 6.38 18.3099C6.38 18.7242 6.71578 19.0599 7.13 19.0599H15.13C18.3042 19.0599 20.88 16.4842 20.88 13.3099C20.88 10.1357 18.3042 7.55994 15.13 7.55994H5.62065L6.96033 6.22027Z" fill="#424B5A"/>
</svg>
