<svg width="24" height="24" viewBox="0 0 24 24" fill="none" xmlns="http://www.w3.org/2000/svg">
<path fill-rule="evenodd" clip-rule="evenodd" d="M1.23999 11.9999C1.23999 9.07572 3.6158 6.69995 6.54001 6.69995C8.30541 6.69995 9.83507 7.56764 10.787 8.87946C11.0303 9.2147 10.9557 9.68369 10.6205 9.92696C10.2852 10.1702 9.81625 10.0957 9.57298 9.76044C8.88492 8.81225 7.7946 8.19995 6.54001 8.19995C4.44422 8.19995 2.73999 9.90416 2.73999 11.9999C2.73999 14.0957 4.44422 15.7999 6.54001 15.7999C7.96616 15.7999 9.29223 15.0485 10.0269 13.8241L11.3561 11.6154L11.3574 11.6132L12.6769 9.40405C13.6822 7.72849 15.4962 6.69995 17.45 6.69995C20.3742 6.69995 22.75 9.07573 22.75 11.9999C22.75 14.9242 20.3742 17.2999 17.45 17.2999C15.693 17.2999 14.1657 16.4311 13.2055 15.1239C12.9603 14.7901 13.0322 14.3207 13.366 14.0755C13.6998 13.8303 14.1693 13.9021 14.4145 14.2359C15.1143 15.1888 16.207 15.7999 17.45 15.7999C19.5458 15.7999 21.25 14.0957 21.25 11.9999C21.25 9.90415 19.5458 8.19995 17.45 8.19995C16.0241 8.19995 14.6982 8.95112 13.9635 10.1752C13.9634 10.1754 13.9636 10.175 13.9635 10.1752L12.6439 12.3845L12.6426 12.3867L11.3131 14.5958C11.313 14.596 11.3132 14.5957 11.3131 14.5958C10.3077 16.2711 8.49367 17.2999 6.54001 17.2999C3.6158 17.2999 1.23999 14.9242 1.23999 11.9999Z" fill="#424B5A"/>
</svg>
