<svg width="24" height="24" viewBox="0 0 24 24" fill="none" xmlns="http://www.w3.org/2000/svg">
<path fill-rule="evenodd" clip-rule="evenodd" d="M13.1965 3.07041C12.4461 2.64226 11.5313 2.64443 10.795 3.06953L4.85769 6.49794C4.11576 6.93499 3.65997 7.72968 3.65997 8.58003V15.42C3.65997 16.2836 4.11835 17.0753 4.85496 17.5005L10.7921 20.9289L10.7935 20.9297C11.5438 21.3578 12.4586 21.3556 13.1949 20.9305L19.13 17.5034L19.1323 17.5021C19.8742 17.065 20.33 16.2703 20.33 15.42V8.58003C20.33 7.721 19.8753 6.93563 19.1322 6.49794L19.13 6.49661L13.1979 3.07118L13.1965 3.07041ZM10.045 1.77047C11.2482 1.07583 12.7327 1.07774 13.9421 1.76882L13.945 1.7705L19.89 5.20335C21.0856 5.90592 21.83 7.17994 21.83 8.58003V15.42C21.83 16.8088 21.0867 18.0934 19.8899 18.7967L19.885 18.7996L13.945 22.2295C12.7418 22.9242 11.2573 22.9223 10.0479 22.2312L10.0449 22.2295L4.10499 18.7996C2.90159 18.1048 2.15997 16.8164 2.15997 15.42V8.58003C2.15997 7.19125 2.90326 5.90661 4.1 5.20337L4.10492 5.20048L10.045 1.77047ZM12 7.09003C11.1273 7.09003 10.42 7.79739 10.42 8.66998C10.42 9.5426 11.1274 10.25 12 10.25C12.8726 10.25 13.58 9.5426 13.58 8.66998C13.58 7.79739 12.8726 7.09003 12 7.09003ZM8.91997 8.66998C8.91997 6.96893 10.299 5.59003 12 5.59003C13.701 5.59003 15.08 6.96893 15.08 8.66998C15.08 10.371 13.701 11.75 12 11.75C10.2989 11.75 8.91997 10.371 8.91997 8.66998ZM12 12.65C9.52629 12.65 7.24997 14.3098 7.24997 16.66C7.24997 17.0742 7.58576 17.41 7.99997 17.41C8.41419 17.41 8.74997 17.0742 8.74997 16.66C8.74997 15.4102 10.0537 14.15 12 14.15C13.9463 14.15 15.25 15.4102 15.25 16.66C15.25 17.0742 15.5858 17.41 16 17.41C16.4142 17.41 16.75 17.0742 16.75 16.66C16.75 14.3098 14.4737 12.65 12 12.65Z" fill="#424B5A"/>
</svg>
