<svg width="24" height="24" viewBox="0 0 24 24" fill="none" xmlns="http://www.w3.org/2000/svg">
<path fill-rule="evenodd" clip-rule="evenodd" d="M7.75 7C7.75 4.65279 9.65279 2.75 12 2.75C14.3472 2.75 16.25 4.65279 16.25 7C16.25 9.34721 14.3472 11.25 12 11.25C9.65279 11.25 7.75 9.34721 7.75 7ZM12 1.25C8.82436 1.25 6.25 3.82436 6.25 7C6.25 10.1756 8.82436 12.75 12 12.75C15.1756 12.75 17.75 10.1756 17.75 7C17.75 3.82436 15.1756 1.25 12 1.25ZM21.9503 15.1997C21.4068 14.6562 20.7965 14.3583 20.1333 14.4264C19.5112 14.4904 19.0273 14.862 18.6797 15.2097L18.1803 15.7091C18.1734 15.7157 18.1667 15.7224 18.1601 15.7293L15.1396 18.7497C14.9973 18.892 14.8871 19.0644 14.8095 19.2177C14.7319 19.3711 14.6596 19.5593 14.629 19.753L14.4374 21.1148C14.3745 21.5563 14.4907 22.0114 14.8196 22.3403C15.1486 22.6693 15.6045 22.7853 16.046 22.7225L17.3945 22.5328L17.4069 22.5308C17.5976 22.5007 17.787 22.43 17.9428 22.3521C18.091 22.2781 18.2713 22.1664 18.4179 22.0127L21.3379 19.0928C21.4183 19.0389 21.4885 18.9694 21.5435 18.8872L21.9503 18.4804C22.2979 18.1327 22.6707 17.6478 22.7326 17.0226C22.7984 16.3578 22.4969 15.7463 21.9503 15.1997ZM16.2016 19.8091L18.4686 17.5421C18.7667 18.0016 19.1575 18.3938 19.6158 18.6935L17.3497 20.9597L17.339 20.9705L17.3318 20.9757C17.3182 20.9852 17.2978 20.9976 17.2721 21.0104C17.2466 21.0232 17.2215 21.0336 17.2001 21.0409C17.1853 21.046 17.1762 21.0483 17.173 21.0491L15.9369 21.223L16.1108 19.9877C16.1116 19.9847 16.1136 19.9769 16.1179 19.9645C16.1248 19.9447 16.135 19.9205 16.148 19.8949C16.1609 19.8692 16.1744 19.8468 16.1862 19.8296C16.1948 19.8171 16.2002 19.8107 16.2014 19.8093L16.2016 19.8091ZM19.5688 16.4419C19.8075 16.9465 20.2117 17.3531 20.7146 17.5948L20.8896 17.4197C21.152 17.1573 21.2292 16.9823 21.2399 16.8749C21.2466 16.8072 21.243 16.6137 20.8896 16.2603C20.5431 15.9138 20.3534 15.9117 20.2866 15.9186C20.1788 15.9297 20.0027 16.008 19.7403 16.2703L19.5688 16.4419ZM4.15997 22C4.15997 18.6809 7.52287 15.75 12 15.75C12.9679 15.75 13.895 15.8896 14.7538 16.1481C15.1504 16.2676 15.5687 16.0428 15.6881 15.6462C15.8075 15.2496 15.5828 14.8313 15.1862 14.7118C14.1849 14.4104 13.1121 14.25 12 14.25C6.99713 14.25 2.65997 17.5791 2.65997 22C2.65997 22.4142 2.99576 22.75 3.40997 22.75C3.82419 22.75 4.15997 22.4142 4.15997 22Z" fill="#424B5A"/>
</svg>
