<svg width="24" height="24" viewBox="0 0 24 24" fill="none" xmlns="http://www.w3.org/2000/svg">
<path fill-rule="evenodd" clip-rule="evenodd" d="M2.72994 4.58C2.72994 2.74768 4.21383 1.25 6.05994 1.25C7.90416 1.25 9.38994 2.73579 9.38994 4.58C9.38994 6.38403 7.97009 7.84491 6.18709 7.90951C6.14628 7.91099 6.10542 7.90913 6.06494 7.90396C6.02446 7.90913 5.9836 7.91099 5.94278 7.90951C4.15885 7.84488 2.74281 6.38429 2.72996 4.58536L2.72994 4.58ZM4.22994 4.57733C4.23832 5.559 4.99372 6.34613 5.94419 6.40782C6.02405 6.40073 6.10584 6.40073 6.1857 6.40782C7.13781 6.34607 7.88994 5.55792 7.88994 4.58C7.88994 3.56421 7.07573 2.75 6.05994 2.75C5.04694 2.75 4.23138 3.57087 4.22994 4.57733ZM16.0799 4.58C16.0799 3.56421 16.8942 2.75 17.9099 2.75C18.9229 2.75 19.7385 3.57086 19.7399 4.57733C19.7316 5.559 18.9762 6.34613 18.0257 6.40782C17.9458 6.40073 17.864 6.40073 17.7842 6.40782C16.8321 6.34607 16.0799 5.55792 16.0799 4.58ZM17.9099 1.25C16.0657 1.25 14.5799 2.73579 14.5799 4.58C14.5799 6.38403 15.9998 7.84491 17.7828 7.90951C17.8236 7.91099 17.8645 7.90913 17.9049 7.90396C17.9454 7.90913 17.9863 7.91099 18.0271 7.90951C19.811 7.84488 21.2271 6.38428 21.2399 4.58536H21.2399V4.58C21.2399 2.74768 19.756 1.25 17.9099 1.25ZM21.3246 9.67507C20.0644 8.83884 18.3308 8.58492 16.8105 8.85125C16.4025 8.92273 16.1297 9.31142 16.2012 9.71942C16.2727 10.1274 16.6614 10.4002 17.0694 10.3288C18.2887 10.1151 19.6149 10.3411 20.4946 10.9245C21.0427 11.2901 21.2174 11.6978 21.2174 12.01C21.2174 12.3223 21.0425 12.7302 20.4939 13.096L20.4926 13.0969C19.6236 13.6789 18.3171 13.9057 17.0941 13.7004C16.6856 13.6318 16.2989 13.9073 16.2303 14.3158C16.1617 14.7243 16.4373 15.1111 16.8458 15.1797C18.3623 15.4343 20.0751 15.1813 21.326 14.344C22.1874 13.7698 22.7174 12.9377 22.7174 12.01C22.7174 11.0823 22.1874 10.2502 21.326 9.67597L21.3246 9.67507ZM6.90052 10.3288C5.68115 10.1151 4.35505 10.3411 3.47529 10.9245C2.92721 11.2901 2.75244 11.6978 2.75244 12.01C2.75244 12.3223 2.92735 12.7302 3.47597 13.096L3.47732 13.0969C4.3463 13.6789 5.6528 13.9057 6.87577 13.7004C7.28426 13.6318 7.67101 13.9073 7.73959 14.3158C7.80817 14.7243 7.53261 15.1111 7.12411 15.1797C5.60735 15.4343 3.8942 15.1812 2.64324 14.3436C1.78225 13.7694 1.25244 12.9374 1.25244 12.01C1.25244 11.0823 1.78253 10.2502 2.64392 9.67597L2.64526 9.67507C3.90551 8.83884 5.63904 8.58492 7.15935 8.85125C7.56736 8.92273 7.84016 9.31142 7.76869 9.71942C7.69721 10.1274 7.30852 10.4002 6.90052 10.3288ZM11.9099 10.22C10.8942 10.22 10.0799 11.0342 10.0799 12.05C10.0799 13.0279 10.8321 13.8161 11.7842 13.8778C11.8652 13.8706 11.9481 13.8707 12.0291 13.8781C12.9718 13.8241 13.7315 13.0343 13.7399 12.0473C13.7385 11.0409 12.9229 10.22 11.9099 10.22ZM8.57994 12.05C8.57994 10.2058 10.0657 8.72 11.9099 8.72C13.756 8.72 15.2399 10.2177 15.2399 12.05V12.0554H15.2399C15.2271 13.8495 13.8147 15.3277 12.0217 15.3797C11.9827 15.3808 11.9436 15.3789 11.9049 15.374C11.8645 15.3791 11.8236 15.381 11.7828 15.3795C9.99979 15.3149 8.57994 13.854 8.57994 12.05ZM15.326 17.156C14.381 16.526 13.1722 16.235 12.0037 16.235C10.835 16.235 9.6247 16.5261 8.67572 17.1548L8.67391 17.156C7.81253 17.7302 7.28244 18.5623 7.28244 19.49C7.28244 20.4176 7.8124 21.2496 8.67359 21.8238C9.62255 22.4582 10.8309 22.7525 11.9999 22.7525C13.1689 22.7525 14.3773 22.4582 15.3263 21.8238C16.1875 21.2496 16.7174 20.4175 16.7174 19.49C16.7174 18.5623 16.1874 17.7302 15.326 17.156ZM8.78244 19.49C8.78244 19.1778 8.95716 18.7702 9.50508 18.4046C10.156 17.9737 11.0603 17.735 12.0037 17.735C12.9477 17.735 13.8489 17.974 14.4939 18.404C15.0425 18.7698 15.2174 19.1777 15.2174 19.49C15.2174 19.8023 15.0425 20.2102 14.4939 20.576L14.493 20.5766C13.8421 21.0119 12.9407 21.2525 11.9999 21.2525C11.0592 21.2525 10.1578 21.0119 9.50686 20.5766L9.50597 20.576C8.95735 20.2102 8.78244 19.8023 8.78244 19.49Z" fill="#424B5A"/>
</svg>
