<svg width="24" height="24" viewBox="0 0 24 24" fill="none" xmlns="http://www.w3.org/2000/svg">
<path fill-rule="evenodd" clip-rule="evenodd" d="M7.75 7C7.75 4.65279 9.65279 2.75 12 2.75C14.3472 2.75 16.25 4.65279 16.25 7C16.25 9.34721 14.3472 11.25 12 11.25C9.65279 11.25 7.75 9.34721 7.75 7ZM12 1.25C8.82436 1.25 6.25 3.82436 6.25 7C6.25 10.1756 8.82436 12.75 12 12.75C15.1756 12.75 17.75 10.1756 17.75 7C17.75 3.82436 15.1756 1.25 12 1.25ZM12 14.25C6.99713 14.25 2.66 17.5791 2.66 22C2.66 22.4142 2.99579 22.75 3.41 22.75C3.82422 22.75 4.16 22.4142 4.16 22C4.16 18.6809 7.52287 15.75 12 15.75C16.4771 15.75 19.84 18.6809 19.84 22C19.84 22.4142 20.1758 22.75 20.59 22.75C21.0042 22.75 21.34 22.4142 21.34 22C21.34 17.5791 17.0029 14.25 12 14.25Z" fill="#424B5A"/>
</svg>
