<svg width="24" height="24" viewBox="0 0 24 24" fill="none" xmlns="http://www.w3.org/2000/svg">
<path fill-rule="evenodd" clip-rule="evenodd" d="M5.30997 6.44C5.30997 4.40311 6.95528 2.75 8.99997 2.75C11.0352 2.75 12.6891 4.40339 12.69 6.43847C12.6809 8.42308 11.1309 10.031 9.17697 10.1188C9.05877 10.1102 8.93346 10.1106 8.81486 10.1189C6.85905 10.032 5.30997 8.42302 5.30997 6.44ZM8.99997 1.25C6.12466 1.25 3.80997 3.57689 3.80997 6.44C3.80997 9.24337 6.01957 11.526 8.80477 11.6196C8.83583 11.6206 8.86693 11.6197 8.89787 11.6169C8.96506 11.6108 9.03712 11.6115 9.08534 11.6163C9.11851 11.6196 9.15186 11.6207 9.18517 11.6196C11.9709 11.5259 14.1783 9.24352 14.19 6.44313L14.19 6.44C14.19 3.57579 11.8642 1.25 8.99997 1.25ZM16.41 3.25C15.9958 3.25 15.66 3.58579 15.66 4C15.66 4.41421 15.9958 4.75 16.41 4.75C17.9344 4.75 19.16 5.98282 19.16 7.5C19.16 8.9683 18.0067 10.169 16.56 10.2483C16.4383 10.2385 16.3149 10.2415 16.1971 10.2546C15.7855 10.3003 15.4888 10.6711 15.5346 11.0828C15.5803 11.4945 15.9511 11.7912 16.3628 11.7454C16.4014 11.7411 16.432 11.7423 16.4469 11.7442C16.4871 11.7492 16.5276 11.751 16.568 11.7495C18.8389 11.6645 20.66 9.79545 20.66 7.5C20.66 5.15718 18.7656 3.25 16.41 3.25ZM9.17247 12.4375C11.1007 12.4375 13.067 12.9214 14.5865 13.9363C15.9524 14.8454 16.735 16.1198 16.735 17.4912C16.735 18.8626 15.9525 20.1393 14.5872 21.0532L14.587 21.0533C13.0628 22.0732 11.0941 22.56 9.16497 22.56C7.23626 22.56 5.26788 22.0734 3.74379 21.0539C2.37768 20.1448 1.59497 18.8703 1.59497 17.4987C1.59497 16.1274 2.37741 14.8507 3.74276 13.9368L3.74551 13.9349L3.74551 13.9349C5.27395 12.9215 7.24403 12.4375 9.17247 12.4375ZM4.5758 15.1842C3.52216 15.89 3.09497 16.7429 3.09497 17.4987C3.09497 18.2544 3.52198 19.1047 4.5754 19.8056L4.57704 19.8067C5.80283 20.6268 7.46405 21.06 9.16497 21.06C10.8658 21.06 12.527 20.6269 13.7528 19.8068C14.8074 19.1007 15.235 18.2474 15.235 17.4912C15.235 16.7355 14.808 15.8853 13.7545 15.1844L13.7534 15.1837C12.533 14.3686 10.8743 13.9375 9.17247 13.9375C7.47154 13.9375 5.80724 14.3682 4.5758 15.1842ZM18.5349 13.2683C18.1308 13.1773 17.7294 13.431 17.6383 13.8351C17.5473 14.2392 17.801 14.6406 18.2051 14.7317C18.8346 14.8735 19.3989 15.1156 19.8448 15.4561L19.8448 15.4561L19.85 15.46C20.4673 15.923 20.72 16.487 20.72 16.995C20.72 17.503 20.4673 18.067 19.85 18.53L19.8499 18.53L19.8432 18.5351C19.3853 18.8867 18.8133 19.1353 18.187 19.2658C17.7815 19.3502 17.5213 19.7475 17.6057 20.153C17.6902 20.5585 18.0874 20.8187 18.4929 20.7342C19.3053 20.565 20.0919 20.2344 20.7534 19.7274C21.6939 19.0206 22.22 18.0357 22.22 16.995C22.22 15.954 21.6936 14.9688 20.7526 14.262C20.099 13.7636 19.3243 13.4462 18.5349 13.2683Z" fill="#424B5A"/>
</svg>
