<svg width="24" height="24" viewBox="0 0 24 24" fill="none" xmlns="http://www.w3.org/2000/svg">
<path fill-rule="evenodd" clip-rule="evenodd" d="M11.99 2.75C9.95366 2.75 8.30174 4.40413 8.31003 6.43694L8.31005 6.44C8.31004 8.42302 9.85911 10.032 11.8149 10.1189C11.9335 10.1106 12.0588 10.1102 12.177 10.1188C14.1234 10.0308 15.68 8.42113 15.68 6.44C15.68 4.40421 14.0258 2.75 11.99 2.75ZM6.81004 6.44153C6.79917 3.57504 9.12693 1.25 11.99 1.25C14.8543 1.25 17.18 3.57579 17.18 6.44C17.18 9.24456 14.9593 11.5259 12.1853 11.6196C12.152 11.6207 12.1186 11.6196 12.0854 11.6163C12.0372 11.6115 11.9651 11.6108 11.8979 11.6169C11.867 11.6197 11.8359 11.6206 11.8048 11.6196C9.02014 11.526 6.81084 9.2442 6.81004 6.44153ZM17.25 17.5C17.25 17.0858 16.9143 16.75 16.5 16.75C16.0858 16.75 15.75 17.0858 15.75 17.5V18.75H14.5C14.0858 18.75 13.75 19.0858 13.75 19.5C13.75 19.9142 14.0858 20.25 14.5 20.25H15.75V21.5C15.75 21.9142 16.0858 22.25 16.5 22.25C16.9143 22.25 17.25 21.9142 17.25 21.5V20.25H18.5C18.9143 20.25 19.25 19.9142 19.25 19.5C19.25 19.0858 18.9143 18.75 18.5 18.75H17.25V17.5ZM7.39711 15.1833C8.62289 14.3632 10.2841 13.93 11.985 13.93C13.686 13.93 15.3472 14.3632 16.573 15.1833C16.9172 15.4137 17.383 15.3213 17.6134 14.9771C17.8437 14.6328 17.7514 14.167 17.4071 13.9367C15.8829 12.9168 13.9141 12.43 11.985 12.43C10.0563 12.43 8.08789 12.9166 6.56379 13.9361C5.19772 14.8452 4.41504 16.1197 4.41504 17.4913C4.41504 18.8626 5.19748 20.1393 6.56283 21.0532L6.56401 21.054C8.09238 22.0729 10.0554 22.56 11.99 22.56C12.4043 22.56 12.74 22.2242 12.74 21.81C12.74 21.3958 12.4043 21.06 11.99 21.06C10.2849 21.06 8.62825 20.6272 7.39668 19.8064C6.34244 19.1004 5.91504 18.2473 5.91504 17.4913C5.91504 16.7355 6.34204 15.8853 7.39547 15.1844L7.39711 15.1833Z" fill="#424B5A"/>
</svg>
