<svg width="24" height="24" viewBox="0 0 24 24" fill="none" xmlns="http://www.w3.org/2000/svg">
<path fill-rule="evenodd" clip-rule="evenodd" d="M11.99 2.75C9.94535 2.75 8.30004 4.40311 8.30004 6.44C8.30004 8.42302 9.84911 10.032 11.8049 10.1189C11.9235 10.1106 12.0488 10.1102 12.167 10.1188C14.1209 10.031 15.6709 8.42308 15.68 6.43847C15.6792 4.40339 14.0253 2.75 11.99 2.75ZM6.80004 6.44C6.80004 3.57689 9.11473 1.25 11.99 1.25C14.8543 1.25 17.18 3.57579 17.18 6.44L17.18 6.44313C17.1684 9.24352 14.961 11.5259 12.1752 11.6196C12.1419 11.6207 12.1086 11.6196 12.0754 11.6163C12.0272 11.6115 11.9551 11.6108 11.8879 11.6169C11.857 11.6197 11.8259 11.6206 11.7948 11.6196C9.00963 11.526 6.80004 9.24337 6.80004 6.44ZM14.75 19C14.75 18.5858 15.0858 18.25 15.5 18.25H19.5C19.9143 18.25 20.25 18.5858 20.25 19C20.25 19.4142 19.9143 19.75 19.5 19.75H15.5C15.0858 19.75 14.75 19.4142 14.75 19ZM7.39711 15.1833C8.62289 14.3632 10.2841 13.93 11.985 13.93C13.686 13.93 15.3472 14.3632 16.573 15.1833C16.9172 15.4137 17.383 15.3213 17.6134 14.9771C17.8437 14.6328 17.7514 14.167 17.4071 13.9367C15.8829 12.9168 13.9141 12.43 11.985 12.43C10.0563 12.43 8.08789 12.9166 6.56379 13.9361C5.19772 14.8452 4.41504 16.1197 4.41504 17.4913C4.41504 18.8626 5.19748 20.1393 6.56283 21.0532L6.56401 21.054C8.09238 22.0729 10.0554 22.56 11.99 22.56C12.4043 22.56 12.74 22.2242 12.74 21.81C12.74 21.3958 12.4043 21.06 11.99 21.06C10.2849 21.06 8.62825 20.6272 7.39668 19.8064C6.34244 19.1004 5.91504 18.2473 5.91504 17.4913C5.91504 16.7355 6.34204 15.8853 7.39547 15.1844L7.39711 15.1833Z" fill="#424B5A"/>
</svg>
