<svg width="24" height="24" viewBox="0 0 24 24" fill="none" xmlns="http://www.w3.org/2000/svg">
<path fill-rule="evenodd" clip-rule="evenodd" d="M16.6674 2.73314C17.2609 2.12344 18.089 1.75 19 1.75C19.9617 1.75 20.8272 2.16518 21.4064 2.82487L21.4064 2.82491L21.4129 2.83217C21.9345 3.41081 22.25 4.17393 22.25 5C22.25 5.25676 22.218 5.50169 22.1553 5.73675L22.1519 5.75013L22.1483 5.76536C22.0765 6.08422 21.9482 6.39666 21.7819 6.66588L21.7818 6.66581L21.7748 6.67765C21.3864 7.33306 20.7646 7.84037 20.0282 8.07352C20.0176 8.0768 20.0071 8.08032 19.9966 8.08408C19.6937 8.19282 19.36 8.25 19 8.25C18.1641 8.25 17.4129 7.93469 16.8461 7.41645L16.8312 7.4032C16.5911 7.19509 16.3841 6.94768 16.2265 6.67973L16.2184 6.66633C15.9205 6.18331 15.75 5.60938 15.75 5C15.75 4.64127 15.8068 4.29969 15.913 3.97264C16.0665 3.50444 16.3251 3.0836 16.6665 2.73408L16.6674 2.73314ZM14.7929 2.78472C15.0056 2.38076 15.2755 2.01158 15.593 1.68644C16.4595 0.796408 17.6713 0.25 19 0.25C20.3965 0.25 21.6696 0.853341 22.5303 1.83148C23.2868 2.67243 23.75 3.78781 23.75 5C23.75 5.37825 23.7032 5.74852 23.6085 6.10897C23.5002 6.58277 23.3111 7.04296 23.0617 7.44824C22.6227 8.18653 21.9805 8.80022 21.2076 9.20213C21.5576 10.2385 21.75 11.3513 21.75 12.5C21.75 18.1642 17.1642 22.75 11.5 22.75C5.83579 22.75 1.25 18.1642 1.25 12.5C1.25 6.83579 5.83579 2.25 11.5 2.25C12.6482 2.25 13.7559 2.43566 14.7929 2.78472ZM14.3156 4.20674C13.432 3.90922 12.4856 3.75 11.5 3.75C6.66421 3.75 2.75 7.66421 2.75 12.5C2.75 15.0997 3.88121 17.433 5.67868 19.035C6.31343 16.7647 8.76588 15.22 11.46 15.22C14.1766 15.22 16.6458 16.7976 17.2561 19.0925C19.0914 17.4891 20.25 15.1309 20.25 12.5C20.25 11.5196 20.0858 10.5694 19.7871 9.68389C19.5297 9.72821 19.2666 9.75 19 9.75C17.7795 9.75 16.6736 9.28797 15.8413 8.53018C15.4865 8.22135 15.1777 7.85352 14.9375 7.44703L14.9375 7.44702C14.4979 6.73146 14.25 5.88787 14.25 5C14.25 4.73952 14.2708 4.48474 14.3108 4.23599L14.3156 4.20674ZM11.5 21.25C9.86469 21.25 8.33478 20.8024 7.02598 20.0229C7.1421 18.3005 8.93964 16.72 11.46 16.72C14.001 16.72 15.809 18.3366 15.8967 20.0684C14.6051 20.8198 13.1032 21.25 11.5 21.25ZM9.4 10.92C9.4 9.78228 10.3223 8.85999 11.46 8.85999C12.5977 8.85999 13.52 9.78228 13.52 10.92C13.52 12.0577 12.5977 12.98 11.46 12.98C10.3223 12.98 9.4 12.0577 9.4 10.92ZM11.46 7.35999C9.49387 7.35999 7.9 8.95385 7.9 10.92C7.9 12.8861 9.49387 14.48 11.46 14.48C13.4261 14.48 15.02 12.8861 15.02 10.92C15.02 8.95385 13.4261 7.35999 11.46 7.35999ZM16.76 4.97998C16.76 4.56577 17.0958 4.22998 17.51 4.22998H18.25V3.52002C18.25 3.10581 18.5858 2.77002 19 2.77002C19.4142 2.77002 19.75 3.10581 19.75 3.52002V4.22998H20.49C20.9042 4.22998 21.24 4.56577 21.24 4.97998C21.24 5.39419 20.9042 5.72998 20.49 5.72998H19.75V6.51001C19.75 6.92422 19.4142 7.26001 19 7.26001C18.5858 7.26001 18.25 6.92422 18.25 6.51001V5.72998H17.51C17.0958 5.72998 16.76 5.39419 16.76 4.97998Z" fill="#424B5A"/>
</svg>
