<svg width="24" height="24" viewBox="0 0 24 24" fill="none" xmlns="http://www.w3.org/2000/svg">
<path fill-rule="evenodd" clip-rule="evenodd" d="M6 2.75977C4.74764 2.75977 3.75 3.76049 3.75 4.97974V15.8898C3.75 17.109 4.74764 18.1097 6 18.1097H6.75C7.73267 18.1097 8.69438 18.4943 9.39874 19.1978L9.40033 19.1994L11.1069 20.886C11.5948 21.3673 12.3949 21.3676 12.8828 20.8863L14.5897 19.1994L14.5913 19.1977C15.2948 18.4952 16.246 18.1097 17.24 18.1097H18C19.2507 18.1097 20.25 17.1007 20.25 15.8898V4.97974C20.25 3.76049 19.2524 2.75977 18 2.75977H6ZM2.25 4.97974C2.25 2.91898 3.93236 1.25977 6 1.25977H18C20.0676 1.25977 21.75 2.91898 21.75 4.97974V15.8898C21.75 17.9389 20.0693 19.6097 18 19.6097H17.24C16.6347 19.6097 16.0667 19.8436 15.6503 20.2601L15.6472 20.2632L13.9372 21.9532C12.8651 23.0115 11.1252 23.0118 10.0531 21.9535L8.3428 20.2632L8.33966 20.2601C7.92416 19.8446 7.34659 19.6097 6.75 19.6097H6C3.93236 19.6097 2.25 17.9505 2.25 15.8898V4.97974ZM12 6.08978C11.1274 6.08978 10.42 6.79715 10.42 7.66974C10.42 8.54235 11.1274 9.24976 12 9.24976C12.8726 9.24976 13.58 8.54235 13.58 7.66974C13.58 6.79715 12.8726 6.08978 12 6.08978ZM8.91998 7.66974C8.91998 5.96868 10.299 4.58978 12 4.58978C13.701 4.58978 15.08 5.96868 15.08 7.66974C15.08 9.37078 13.701 10.7498 12 10.7498C10.299 10.7498 8.91998 9.37078 8.91998 7.66974ZM12 11.6498C9.52631 11.6498 7.25 13.3095 7.25 15.6597C7.25 16.0739 7.58579 16.4097 8 16.4097C8.41421 16.4097 8.75 16.0739 8.75 15.6597C8.75 14.4099 10.0537 13.1498 12 13.1498C13.9463 13.1498 15.25 14.4099 15.25 15.6597C15.25 16.0739 15.5858 16.4097 16 16.4097C16.4142 16.4097 16.75 16.0739 16.75 15.6597C16.75 13.3095 14.4737 11.6498 12 11.6498Z" fill="#424B5A"/>
</svg>
