<svg width="24" height="24" viewBox="0 0 24 24" fill="none" xmlns="http://www.w3.org/2000/svg">
<path fill-rule="evenodd" clip-rule="evenodd" d="M2.75 12C2.75 6.89137 6.89137 2.75 12 2.75C17.1086 2.75 21.25 6.89137 21.25 12C21.25 14.2736 20.4297 16.3556 19.069 17.9662C18.7067 17.2869 18.131 16.6773 17.3887 16.1778L17.3871 16.1767C15.8774 15.1665 13.9234 14.685 12.0075 14.685C10.0914 14.685 8.13359 15.1666 6.61503 16.1753L6.61502 16.1753L6.61129 16.1778C5.86898 16.6773 5.29334 17.2869 4.93102 17.9662C3.57027 16.3556 2.75 14.2736 2.75 12ZM12 21.25C11.1255 21.25 10.2794 21.1286 9.47746 20.9019C8.21389 20.544 7.06131 19.9231 6.07838 19.1C6.24613 18.5359 6.67665 17.9422 7.44684 17.4235C8.66809 16.613 10.3195 16.185 12.0075 16.185C13.6963 16.185 15.3419 16.6133 16.5521 17.4228C17.323 17.9417 17.7538 18.5356 17.9216 19.1C16.9387 19.9231 15.7861 20.544 14.5225 20.9019C13.7206 21.1286 12.8745 21.25 12 21.25ZM10.3629 22.6261C5.20281 21.8377 1.25 17.3805 1.25 12C1.25 6.06294 6.06294 1.25 12 1.25C17.9371 1.25 22.75 6.06294 22.75 12C22.75 17.9371 17.9371 22.75 12 22.75C11.8145 22.75 11.63 22.7453 11.4468 22.736C11.165 22.7217 10.8861 22.6966 10.6104 22.661C10.5276 22.6503 10.4451 22.6387 10.3629 22.6261ZM12 6.98C10.5957 6.98 9.47 8.11272 9.47 9.51C9.47 10.8588 10.5236 11.9585 11.8587 12.0284C11.9506 12.0209 12.0487 12.0202 12.1439 12.0283C13.4732 11.9572 14.5213 10.8618 14.53 9.50788C14.5289 8.11307 13.3951 6.98 12 6.98ZM7.97 9.51C7.97 7.28728 9.7643 5.48 12 5.48C14.2242 5.48 16.03 7.28579 16.03 9.51V9.51424H16.03C16.0177 11.6826 14.3122 13.4557 12.1456 13.5296C12.1016 13.5311 12.0575 13.5287 12.0139 13.5225C12.0182 13.5231 12.0191 13.523 12.0163 13.5228C12.0153 13.5228 12.0141 13.5227 12.0126 13.5227C12.0102 13.5226 12.0073 13.5225 12.0037 13.5225C11.9915 13.5225 11.9801 13.5233 11.973 13.5242C11.9337 13.5291 11.8941 13.5309 11.8544 13.5296C9.69161 13.4558 7.97 11.6855 7.97 9.51Z" fill="#424B5A"/>
</svg>
