<svg width="24" height="24" viewBox="0 0 24 24" fill="none" xmlns="http://www.w3.org/2000/svg">
<path fill-rule="evenodd" clip-rule="evenodd" d="M7.75 7C7.75 4.65279 9.65279 2.75 12 2.75C14.3472 2.75 16.25 4.65279 16.25 7C16.25 9.34721 14.3472 11.25 12 11.25C9.65279 11.25 7.75 9.34721 7.75 7ZM12 1.25C8.82436 1.25 6.25 3.82436 6.25 7C6.25 10.1756 8.82436 12.75 12 12.75C15.1756 12.75 17.75 10.1756 17.75 7C17.75 3.82436 15.1756 1.25 12 1.25ZM4.16 22C4.16 18.6809 7.52287 15.75 12 15.75C12.5941 15.75 13.1751 15.8036 13.7346 15.9049C13.4235 16.538 13.25 17.2501 13.25 18C13.25 18.8885 13.4983 19.7327 13.9385 20.4486C14.7594 21.8246 16.268 22.75 18 22.75C19.1927 22.75 20.2871 22.3134 21.122 21.5662C21.4925 21.2535 21.8131 20.8725 22.0632 20.4459C22.5023 19.7305 22.75 18.8874 22.75 18C22.75 15.3758 20.6242 13.25 18 13.25C16.8818 13.25 15.849 13.6429 15.0332 14.293C14.919 14.3836 14.8093 14.4794 14.7043 14.58C13.844 14.3651 12.9346 14.25 12 14.25C6.99713 14.25 2.66 17.5791 2.66 22C2.66 22.4142 2.99579 22.75 3.41 22.75C3.82422 22.75 4.16 22.4142 4.16 22ZM18.75 16.5195C18.75 16.1053 18.4142 15.7695 18 15.7695C17.5858 15.7695 17.25 16.1053 17.25 16.5195V17.2305H16.51C16.0958 17.2305 15.76 17.5663 15.76 17.9805C15.76 18.3947 16.0958 18.7305 16.51 18.7305H17.25V19.5095C17.25 19.9237 17.5858 20.2595 18 20.2595C18.4142 20.2595 18.75 19.9237 18.75 19.5095V18.7305H19.49C19.9042 18.7305 20.24 18.3947 20.24 17.9805C20.24 17.5663 19.9042 17.2305 19.49 17.2305H18.75V16.5195ZM15.9675 15.4665C16.5316 15.0169 17.2385 14.75 18 14.75C19.7958 14.75 21.25 16.2042 21.25 18C21.25 18.6094 21.0795 19.1833 20.7816 19.6663L20.7722 19.6821C20.6052 19.9684 20.391 20.2216 20.148 20.4254C20.1414 20.431 20.1348 20.4367 20.1283 20.4425C19.5645 20.9499 18.8227 21.25 18 21.25C16.8141 21.25 15.7844 20.6177 15.2246 19.6766L15.2247 19.6765L15.2184 19.6663C14.9205 19.1833 14.75 18.6094 14.75 18C14.75 16.9745 15.221 16.0588 15.9662 15.4675L15.9675 15.4665Z" fill="#424B5A"/>
</svg>
