<svg width="24" height="24" viewBox="0 0 24 24" fill="none" xmlns="http://www.w3.org/2000/svg">
<path fill-rule="evenodd" clip-rule="evenodd" d="M12 2.75C9.95536 2.75 8.31005 4.40311 8.31005 6.44C8.31005 8.42302 9.85913 10.032 11.8149 10.1189C11.9335 10.1106 12.0588 10.1102 12.1771 10.1188C14.1309 10.031 15.681 8.42308 15.6901 6.43847C15.6892 4.40339 14.0353 2.75 12 2.75ZM6.81005 6.44C6.81005 3.57689 9.12474 1.25 12 1.25C14.8643 1.25 17.1901 3.57579 17.1901 6.44L17.19 6.44313C17.1784 9.24352 14.971 11.5259 12.1852 11.6196C12.1519 11.6207 12.1186 11.6196 12.0854 11.6163C12.0372 11.6115 11.9651 11.6108 11.898 11.6169C11.867 11.6197 11.8359 11.6206 11.8049 11.6196C9.01964 11.526 6.81005 9.24337 6.81005 6.44ZM18.9404 18.6203C19.2333 18.3274 19.2333 17.8526 18.9404 17.5597C18.6475 17.2668 18.1726 17.2668 17.8797 17.5597L17 18.4393L16.1204 17.5597C15.8275 17.2668 15.3526 17.2668 15.0597 17.5597C14.7668 17.8526 14.7668 18.3274 15.0597 18.6203L15.9394 19.5L15.0597 20.3797C14.7668 20.6726 14.7668 21.1474 15.0597 21.4403C15.3526 21.7332 15.8275 21.7332 16.1204 21.4403L17 20.5607L17.8797 21.4403C18.1726 21.7332 18.6475 21.7332 18.9404 21.4403C19.2333 21.1474 19.2333 20.6726 18.9404 20.3797L18.0607 19.5L18.9404 18.6203ZM7.40712 15.1833C8.6329 14.3632 10.2941 13.93 11.995 13.93C13.696 13.93 15.3572 14.3632 16.583 15.1833C16.9272 15.4137 17.393 15.3213 17.6234 14.9771C17.8537 14.6328 17.7614 14.167 17.4171 13.9367C15.8929 12.9168 13.9241 12.43 11.995 12.43C10.0663 12.43 8.0979 12.9166 6.5738 13.9361C5.20773 14.8452 4.42505 16.1197 4.42505 17.4913C4.42505 18.8626 5.20749 20.1393 6.57284 21.0532L6.57402 21.054C8.10239 22.0729 10.0654 22.56 12 22.56C12.4143 22.56 12.75 22.2242 12.75 21.81C12.75 21.3958 12.4143 21.06 12 21.06C10.295 21.06 8.63826 20.6272 7.40669 19.8064C6.35245 19.1004 5.92505 18.2473 5.92505 17.4913C5.92505 16.7355 6.35205 15.8853 7.40548 15.1844L7.40712 15.1833Z" fill="#424B5A"/>
</svg>
