<svg width="24" height="24" viewBox="0 0 24 24" fill="none" xmlns="http://www.w3.org/2000/svg">
<path fill-rule="evenodd" clip-rule="evenodd" d="M7.75003 7C7.75003 4.65279 9.65282 2.75 12 2.75C14.3472 2.75 16.25 4.65279 16.25 7C16.25 9.34721 14.3472 11.25 12 11.25C9.65282 11.25 7.75003 9.34721 7.75003 7ZM12 1.25C8.82439 1.25 6.25003 3.82436 6.25003 7C6.25003 10.1756 8.82439 12.75 12 12.75C15.1757 12.75 17.75 10.1756 17.75 7C17.75 3.82436 15.1757 1.25 12 1.25ZM4.16003 22C4.16003 18.6809 7.52291 15.75 12 15.75C12.5941 15.75 13.1751 15.8036 13.7347 15.9049C13.4235 16.538 13.25 17.2501 13.25 18C13.25 18.8885 13.4983 19.7327 13.9385 20.4486C14.7594 21.8246 16.2681 22.75 18 22.75C19.1927 22.75 20.2871 22.3134 21.1221 21.5662C21.4925 21.2535 21.8132 20.8725 22.0632 20.4459C22.5024 19.7305 22.75 18.8874 22.75 18C22.75 15.3758 20.6242 13.25 18 13.25C16.8819 13.25 15.849 13.6429 15.0332 14.293C14.9191 14.3836 14.8093 14.4794 14.7043 14.58C13.844 14.3651 12.9346 14.25 12 14.25C6.99716 14.25 2.66003 17.5791 2.66003 22C2.66003 22.4142 2.99582 22.75 3.41003 22.75C3.82425 22.75 4.16003 22.4142 4.16003 22ZM18 14.75C17.2385 14.75 16.5316 15.0169 15.9675 15.4665L15.9662 15.4675C15.221 16.0588 14.75 16.9745 14.75 18C14.75 18.6094 14.9205 19.1833 15.2184 19.6663L15.2247 19.6765L15.2246 19.6766C15.7844 20.6177 16.8142 21.25 18 21.25C18.8227 21.25 19.5645 20.9499 20.1283 20.4425C20.1348 20.4367 20.1414 20.431 20.1481 20.4254C20.391 20.2216 20.6052 19.9684 20.7722 19.6821L20.7817 19.6663C21.0795 19.1833 21.25 18.6094 21.25 18C21.25 16.2042 19.7958 14.75 18 14.75ZM20.0693 17.5706C20.3734 17.2894 20.3919 16.8149 20.1106 16.5108C19.8294 16.2067 19.3549 16.1882 19.0508 16.4694L17.4503 17.9496L16.9704 17.4697C16.6775 17.1768 16.2026 17.1768 15.9097 17.4697C15.6168 17.7626 15.6168 18.2374 15.9097 18.5303L16.8997 19.5203C17.1845 19.8052 17.6435 19.8141 17.9393 19.5406L20.0693 17.5706Z" fill="#424B5A"/>
</svg>
