<svg width="24" height="24" viewBox="0 0 24 24" fill="none" xmlns="http://www.w3.org/2000/svg">
<path fill-rule="evenodd" clip-rule="evenodd" d="M11.2374 3.01985C11.644 2.67223 12.361 2.66698 12.7841 3.02113L14.3588 4.37659L14.36 4.37764C14.5968 4.58251 14.8974 4.73928 15.18 4.84489C15.4632 4.95069 15.7945 5.02982 16.11 5.02982H17.81C18.4558 5.02982 18.99 5.56404 18.99 6.20982V7.90982C18.99 8.22137 19.0696 8.55268 19.1745 8.83481C19.2792 9.11654 19.4357 9.42106 19.6421 9.65974L19.6432 9.66102L21 11.2372L21.0009 11.2383C21.3476 11.645 21.3526 12.3611 20.9987 12.7839L19.6432 14.3586L19.6421 14.36C19.4373 14.5968 19.2805 14.8972 19.1749 15.1798C19.0691 15.463 18.99 15.7943 18.99 16.1098V17.8098C18.99 18.4556 18.4558 18.9898 17.81 18.9898H16.11C15.7985 18.9898 15.4672 19.0695 15.185 19.1743C14.9033 19.279 14.5989 19.4354 14.3602 19.6419L14.3588 19.6431L12.7826 20.9998L12.7816 21.0007C12.3748 21.3474 11.6587 21.3524 11.236 20.9985L9.66121 19.6431L9.65993 19.642C9.42314 19.4371 9.12263 19.2804 8.84 19.1748C8.55682 19.069 8.22554 18.9898 7.91001 18.9898H6.18001C5.53422 18.9898 5.00001 18.4556 5.00001 17.8098V16.0998C5.00001 15.7878 4.92013 15.459 4.81712 15.1807C4.71373 14.9014 4.56153 14.6041 4.3662 14.3697L3.01412 12.7772L3.01308 12.776C2.66899 12.3652 2.66899 11.6544 3.01308 11.2437L3.01412 11.2424L4.36175 9.65527L4.36617 9.64996C4.56151 9.41556 4.71373 9.11824 4.81712 8.83893C4.92013 8.56065 5.00001 8.23187 5.00001 7.91982V6.19982C5.00001 5.55404 5.53422 5.01982 6.18001 5.01982H7.91001C8.22155 5.01982 8.55286 4.94019 8.83499 4.83536C9.11635 4.73081 9.42044 4.57459 9.65898 4.36852L11.2374 3.01985ZM13.7534 1.87635C12.7762 1.05275 11.2355 1.04812 10.2628 1.87962L8.6828 3.2296L8.67881 3.23306C8.61768 3.28604 8.48779 3.36417 8.31252 3.42929C8.13716 3.49445 7.98846 3.51982 7.91001 3.51982H6.18001C4.70579 3.51982 3.50001 4.72561 3.50001 6.19982V7.91982C3.50001 7.99778 3.47489 8.14399 3.4104 8.31822C3.34694 8.48965 3.27009 8.62139 3.21551 8.68767L1.86828 10.2744L1.86589 10.2772C1.05138 11.2462 1.05137 12.7734 1.86589 13.7424L3.21552 15.332C3.27009 15.3983 3.34694 15.53 3.4104 15.7014C3.47489 15.8757 3.50001 16.0219 3.50001 16.0998V17.8098C3.50001 19.284 4.70579 20.4898 6.18001 20.4898H7.91001C7.99447 20.4898 8.1432 20.5157 8.31501 20.5799C8.48687 20.6441 8.61579 20.722 8.67881 20.7766L8.68073 20.7782L10.2607 22.1383L10.2667 22.1433C11.2439 22.967 12.7848 22.9715 13.7574 22.1398L13.7593 22.1383L15.3393 20.7782L15.3412 20.7766C15.4023 20.7236 15.5322 20.6455 15.7075 20.5804C15.8829 20.5152 16.0316 20.4898 16.11 20.4898H17.81C19.2842 20.4898 20.49 19.284 20.49 17.8098V16.1098C20.49 16.0254 20.5159 15.8766 20.5801 15.7048C20.6443 15.533 20.7222 15.404 20.7768 15.341L20.7784 15.3391L22.1385 13.7591L22.1435 13.7532C22.9671 12.776 22.9717 11.2351 22.14 10.2624L20.7784 8.68054L20.7768 8.67863C20.7238 8.6175 20.6457 8.4876 20.5805 8.31234C20.5154 8.13697 20.49 7.98828 20.49 7.90982V6.20982C20.49 4.73561 19.2842 3.52982 17.81 3.52982H16.11C16.0255 3.52982 15.8768 3.50396 15.705 3.43976C15.5331 3.37555 15.4042 3.29767 15.3412 3.24305L13.7593 1.88137L13.7534 1.87635ZM16.1509 10.1096C16.4435 9.81641 16.443 9.34154 16.1498 9.04895C15.8566 8.75636 15.3817 8.75685 15.0891 9.05004L10.7906 13.3575L8.91144 11.4706C8.61915 11.1771 8.14428 11.1761 7.85078 11.4684C7.55728 11.7607 7.55629 12.2356 7.84858 12.5291L10.2586 14.9491C10.3992 15.0903 10.5903 15.1697 10.7896 15.1698C10.9889 15.1699 11.1801 15.0907 11.3209 14.9496L16.1509 10.1096Z" fill="#424B5A"/>
</svg>
