<svg width="24" height="24" viewBox="0 0 24 24" fill="none" xmlns="http://www.w3.org/2000/svg">
<path fill-rule="evenodd" clip-rule="evenodd" d="M13.1966 3.07041C12.4462 2.64226 11.5314 2.64443 10.795 3.06953L4.85776 6.49794C4.11583 6.93498 3.66003 7.72968 3.66003 8.58003V15.42C3.66003 16.2836 4.11842 17.0753 4.85503 17.5005L10.7921 20.9289C10.7926 20.9291 10.7931 20.9294 10.7936 20.9297C11.5439 21.3578 12.4587 21.3556 13.195 20.9305C13.195 20.9306 13.195 20.9305 13.195 20.9305L19.1301 17.5034C19.1308 17.503 19.1316 17.5025 19.1324 17.5021C19.8743 17.065 20.33 16.2703 20.33 15.42V8.58003C20.33 7.72099 19.8754 6.93562 19.1323 6.49794C19.1316 6.4975 19.1308 6.49706 19.1301 6.49661L13.1979 3.07118C13.1975 3.07092 13.197 3.07066 13.1966 3.07041ZM10.0451 1.77047C11.2483 1.07583 12.7328 1.07774 13.9421 1.76882L13.9451 1.7705L19.89 5.20335C21.0856 5.90592 21.83 7.17995 21.83 8.58003V15.42C21.83 16.8088 21.0868 18.0934 19.89 18.7967L19.8851 18.7996L13.9451 22.2295C12.7419 22.9242 11.2573 22.9223 10.0479 22.2312L10.045 22.2295L4.10506 18.7996C2.90166 18.1048 2.16003 16.8164 2.16003 15.42V8.58003C2.16003 7.19125 2.90333 5.90661 4.10007 5.20337L4.10499 5.20048L10.0451 1.77047Z" fill="#424B5A"/>
<path fill-rule="evenodd" clip-rule="evenodd" d="M10.8368 9.88303C10.7098 9.95642 10.5 10.1902 10.5 10.8V13.2C10.5 13.8098 10.7098 14.0436 10.8368 14.117C10.9631 14.1901 11.2687 14.2552 11.7943 13.9509L13.8743 12.751C13.8741 12.7511 13.8744 12.7509 13.8743 12.751C14.3992 12.4469 14.4975 12.1482 14.4975 12C14.4975 11.8518 14.3998 11.5535 13.8748 11.2494C13.8746 11.2493 13.8749 11.2495 13.8748 11.2494L11.7943 10.0491C11.2687 9.74485 10.9631 9.80994 10.8368 9.88303ZM12.5453 8.75069C11.741 8.28519 10.8368 8.15023 10.0858 8.58454C9.33522 9.01862 9.00003 9.86978 9.00003 10.8V13.2C9.00003 14.1303 9.33522 14.9814 10.0858 15.4155C10.8368 15.8498 11.741 15.7149 12.5453 15.2494C12.5451 15.2495 12.5455 15.2493 12.5453 15.2494L14.6258 14.0491C15.4304 13.5833 15.9975 12.8668 15.9975 12C15.9975 11.1333 15.4304 10.4167 14.6258 9.95093L12.5453 8.75069C12.5455 8.75078 12.5451 8.75059 12.5453 8.75069Z" fill="#424B5A"/>
</svg>
