<svg width="24" height="24" viewBox="0 0 24 24" fill="none" xmlns="http://www.w3.org/2000/svg">
<path fill-rule="evenodd" clip-rule="evenodd" d="M4.15533 4.15533C3.2398 5.07086 2.75 6.57397 2.75 9V15C2.75 17.426 3.2398 18.9291 4.15533 19.8447C5.07086 20.7602 6.57397 21.25 9 21.25H14.0246C13.5326 20.4519 13.25 19.5103 13.25 18.5C13.25 16.8476 14.0072 15.3632 15.2226 14.4034C16.1208 13.6813 17.2644 13.25 18.5 13.25C19.5103 13.25 20.4519 13.5326 21.25 14.0246V9C21.25 6.57397 20.7602 5.07086 19.8447 4.15533C18.9291 3.2398 17.426 2.75 15 2.75H9C6.57397 2.75 5.07086 3.2398 4.15533 4.15533ZM3.09467 3.09467C4.42914 1.7602 6.42603 1.25 9 1.25H15C17.574 1.25 19.5709 1.7602 20.9053 3.09467C22.2398 4.42914 22.75 6.42603 22.75 9V15.0155C22.75 15.2252 22.75 15.4754 22.7266 15.7211C22.6978 16.0243 22.4885 16.2799 22.197 16.368C21.9055 16.456 21.5897 16.3592 21.3977 16.1228C20.7156 15.2826 19.6769 14.75 18.5 14.75C17.617 14.75 16.8017 15.0577 16.1604 15.5742L16.1544 15.579C15.2915 16.2593 14.75 17.3138 14.75 18.5C14.75 19.677 15.2825 20.7156 16.1227 21.3977C16.3591 21.5897 16.456 21.9055 16.3679 22.197C16.2798 22.4884 16.0242 22.6977 15.7211 22.7266C15.4751 22.75 15.2247 22.75 15.0146 22.75H9C6.42603 22.75 4.42914 22.2398 3.09467 20.9053C1.7602 19.5709 1.25 17.574 1.25 15V9C1.25 6.42603 1.7602 4.42914 3.09467 3.09467Z" fill="#424B5A"/>
<path fill-rule="evenodd" clip-rule="evenodd" d="M1.76999 7.10999C1.76999 6.69577 2.10578 6.35999 2.51999 6.35999H21.48C21.8942 6.35999 22.23 6.69577 22.23 7.10999C22.23 7.5242 21.8942 7.85999 21.48 7.85999H2.51999C2.10578 7.85999 1.76999 7.5242 1.76999 7.10999Z" fill="#424B5A"/>
<path fill-rule="evenodd" clip-rule="evenodd" d="M8.51999 1.35999C8.9342 1.35999 9.26999 1.69577 9.26999 2.10999V6.96997C9.26999 7.38418 8.9342 7.71997 8.51999 7.71997C8.10578 7.71997 7.76999 7.38418 7.76999 6.96997V2.10999C7.76999 1.69577 8.10578 1.35999 8.51999 1.35999Z" fill="#424B5A"/>
<path fill-rule="evenodd" clip-rule="evenodd" d="M15.48 1.35999C15.8942 1.35999 16.23 1.69577 16.23 2.10999V6.52002C16.23 6.93423 15.8942 7.27002 15.48 7.27002C15.0658 7.27002 14.73 6.93423 14.73 6.52002V2.10999C14.73 1.69577 15.0658 1.35999 15.48 1.35999Z" fill="#424B5A"/>
<path fill-rule="evenodd" clip-rule="evenodd" d="M18.5 14.75C17.617 14.75 16.8017 15.0577 16.1604 15.5742L16.1544 15.579C15.2915 16.2593 14.75 17.3138 14.75 18.5C14.75 19.677 15.2825 20.7156 16.1227 21.3977L16.1294 21.4032C16.7664 21.9326 17.5973 22.25 18.5 22.25C19.4435 22.25 20.3009 21.8961 20.9754 21.3162C21.755 20.6181 22.25 19.6187 22.25 18.5C22.25 17.5973 21.9327 16.7664 21.4032 16.1294L21.3977 16.1228C20.7156 15.2826 19.6769 14.75 18.5 14.75ZM15.2226 14.4034C16.1208 13.6813 17.2644 13.25 18.5 13.25C20.1415 13.25 21.6017 13.9961 22.5596 15.174C23.3084 16.0765 23.75 17.2443 23.75 18.5C23.75 20.0791 23.047 21.4778 21.9694 22.4396L21.9599 22.448C21.0351 23.2457 19.8343 23.75 18.5 23.75C17.2443 23.75 16.0765 23.3084 15.1739 22.5595C13.996 21.6016 13.25 20.1415 13.25 18.5C13.25 16.8476 14.0072 15.3632 15.2226 14.4034Z" fill="#424B5A"/>
<path fill-rule="evenodd" clip-rule="evenodd" d="M18.78 16.34C19.1942 16.34 19.53 16.6758 19.53 17.09V18.78C19.53 19.0435 19.3918 19.2876 19.1659 19.4232L17.7659 20.2631C17.4107 20.4762 16.95 20.361 16.7369 20.0059C16.5238 19.6507 16.639 19.19 16.9941 18.9769L18.03 18.3554V17.09C18.03 16.6758 18.3658 16.34 18.78 16.34Z" fill="#424B5A"/>
</svg>
