<svg width="24" height="24" viewBox="0 0 24 24" fill="none" xmlns="http://www.w3.org/2000/svg">
<path fill-rule="evenodd" clip-rule="evenodd" d="M3.45033 5.03041C3.01546 5.46528 2.75 6.25108 2.75 7.79008V16.2101C2.75 17.1543 2.98641 18.0147 3.49609 18.6261C3.98571 19.2135 4.8096 19.6701 6.21 19.6701H12.53C14.0633 19.6701 14.8499 19.4049 15.2864 18.9692C15.7226 18.5339 15.99 17.7476 15.99 16.2101V7.79008C15.99 6.25108 15.7245 5.46528 15.2897 5.03041C14.8548 4.59553 14.069 4.33008 12.53 4.33008H6.21C4.671 4.33008 3.8852 4.59553 3.45033 5.03041ZM2.38967 3.96975C3.2698 3.08962 4.589 2.83008 6.21 2.83008H12.53C14.151 2.83008 15.4702 3.08962 16.3503 3.96975C17.2305 4.84987 17.49 6.16908 17.49 7.79008V16.2101C17.49 17.8325 17.2274 19.1512 16.3461 20.0309C15.4651 20.9103 14.1467 21.1701 12.53 21.1701H6.21C4.4504 21.1701 3.16929 20.5767 2.34391 19.5866C1.53859 18.6205 1.25 17.3758 1.25 16.2101V7.79008C1.25 6.16908 1.50954 4.84987 2.38967 3.96975Z" fill="#424B5A"/>
<path fill-rule="evenodd" clip-rule="evenodd" d="M19.9495 7.50493C19.9493 7.50506 19.9497 7.5048 19.9495 7.50493L17.49 9.23011V14.76L19.9507 16.4861L19.9525 16.4874C20.5227 16.8898 20.8305 16.8245 20.9243 16.7758C21.0185 16.7268 21.25 16.5113 21.25 15.8101V8.19008C21.25 7.48954 21.0188 7.27253 20.9228 7.22239C20.827 7.17234 20.5183 7.10781 19.9495 7.50493ZM21.6172 5.89277C22.4212 6.31263 22.75 7.22061 22.75 8.19008V15.8101C22.75 16.7789 22.4215 17.6884 21.6157 18.1069C20.8099 18.5255 19.8781 18.2706 19.0885 17.7135C19.0881 17.7133 19.0878 17.713 19.0875 17.7128L16.3093 15.7641C16.1092 15.6237 15.99 15.3946 15.99 15.1501V8.84008C15.99 8.5956 16.1092 8.36646 16.3093 8.22607L19.0905 6.27523C19.8814 5.72278 20.813 5.47283 21.6172 5.89277Z" fill="#424B5A"/>
<path fill-rule="evenodd" clip-rule="evenodd" d="M11.5 8.75008C11.0858 8.75008 10.75 9.08586 10.75 9.50008C10.75 9.91429 11.0858 10.2501 11.5 10.2501C11.9142 10.2501 12.25 9.91429 12.25 9.50008C12.25 9.08586 11.9142 8.75008 11.5 8.75008ZM9.25 9.50008C9.25 8.25744 10.2574 7.25008 11.5 7.25008C12.7426 7.25008 13.75 8.25744 13.75 9.50008C13.75 10.7427 12.7426 11.7501 11.5 11.7501C10.2574 11.7501 9.25 10.7427 9.25 9.50008Z" fill="#424B5A"/>
</svg>
