<svg width="24" height="24" viewBox="0 0 24 24" fill="none" xmlns="http://www.w3.org/2000/svg">
<path fill-rule="evenodd" clip-rule="evenodd" d="M3.09467 3.09467C4.42914 1.7602 6.42603 1.25 9 1.25H15C17.574 1.25 19.5709 1.7602 20.9053 3.09467C22.2398 4.42914 22.75 6.42603 22.75 9V15C22.75 17.574 22.2398 19.5709 20.9053 20.9053C19.5709 22.2398 17.574 22.75 15 22.75H9C6.42603 22.75 4.42914 22.2398 3.09467 20.9053C1.7602 19.5709 1.25 17.574 1.25 15V9C1.25 6.42603 1.7602 4.42914 3.09467 3.09467ZM4.15533 4.15533C3.2398 5.07086 2.75 6.57397 2.75 9V15C2.75 17.426 3.2398 18.9291 4.15533 19.8447C5.07086 20.7602 6.57397 21.25 9 21.25H15C17.426 21.25 18.9291 20.7602 19.8447 19.8447C20.7602 18.9291 21.25 17.426 21.25 15V9C21.25 6.57397 20.7602 5.07086 19.8447 4.15533C18.9291 3.2398 17.426 2.75 15 2.75H9C6.57397 2.75 5.07086 3.2398 4.15533 4.15533Z" fill="#424B5A"/>
<path fill-rule="evenodd" clip-rule="evenodd" d="M6.89 1.77C7.30421 1.77 7.64 2.10579 7.64 2.52V21.48C7.64 21.8942 7.30421 22.23 6.89 22.23C6.47579 22.23 6.14 21.8942 6.14 21.48V2.52C6.14 2.10579 6.47579 1.77 6.89 1.77Z" fill="#424B5A"/>
<path fill-rule="evenodd" clip-rule="evenodd" d="M16.89 1.77C17.3042 1.77 17.64 2.10579 17.64 2.52V21.48C17.64 21.8942 17.3042 22.23 16.89 22.23C16.4758 22.23 16.14 21.8942 16.14 21.48V2.52C16.14 2.10579 16.4758 1.77 16.89 1.77Z" fill="#424B5A"/>
<path fill-rule="evenodd" clip-rule="evenodd" d="M1.79 6.97C1.79 6.55579 2.12579 6.22 2.54 6.22H6.89C7.30421 6.22 7.64 6.55579 7.64 6.97C7.64 7.38421 7.30421 7.72 6.89 7.72H2.54C2.12579 7.72 1.79 7.38421 1.79 6.97Z" fill="#424B5A"/>
<path fill-rule="evenodd" clip-rule="evenodd" d="M1.28 12C1.28 11.5858 1.61579 11.25 2.03 11.25H6.89C7.30421 11.25 7.64 11.5858 7.64 12C7.64 12.4142 7.30421 12.75 6.89 12.75H2.03C1.61579 12.75 1.28 12.4142 1.28 12Z" fill="#424B5A"/>
<path fill-rule="evenodd" clip-rule="evenodd" d="M1.73 16.97C1.73 16.5558 2.06579 16.22 2.48 16.22H6.89C7.30421 16.22 7.64 16.5558 7.64 16.97C7.64 17.3842 7.30421 17.72 6.89 17.72H2.48C2.06579 17.72 1.73 17.3842 1.73 16.97Z" fill="#424B5A"/>
<path fill-rule="evenodd" clip-rule="evenodd" d="M16.79 6.97C16.79 6.55579 17.1258 6.22 17.54 6.22H21.89C22.3042 6.22 22.64 6.55579 22.64 6.97C22.64 7.38421 22.3042 7.72 21.89 7.72H17.54C17.1258 7.72 16.79 7.38421 16.79 6.97Z" fill="#424B5A"/>
<path fill-rule="evenodd" clip-rule="evenodd" d="M16.28 12C16.28 11.5858 16.6158 11.25 17.03 11.25H21.89C22.3042 11.25 22.64 11.5858 22.64 12C22.64 12.4142 22.3042 12.75 21.89 12.75H17.03C16.6158 12.75 16.28 12.4142 16.28 12Z" fill="#424B5A"/>
<path fill-rule="evenodd" clip-rule="evenodd" d="M5.22 12C5.22 11.5858 5.55579 11.25 5.97 11.25H16.97C17.3842 11.25 17.72 11.5858 17.72 12C17.72 12.4142 17.3842 12.75 16.97 12.75H5.97C5.55579 12.75 5.22 12.4142 5.22 12Z" fill="#424B5A"/>
<path fill-rule="evenodd" clip-rule="evenodd" d="M16.73 16.97C16.73 16.5558 17.0658 16.22 17.48 16.22H21.89C22.3042 16.22 22.64 16.5558 22.64 16.97C22.64 17.3842 22.3042 17.72 21.89 17.72H17.48C17.0658 17.72 16.73 17.3842 16.73 16.97Z" fill="#424B5A"/>
</svg>
