<svg width="24" height="24" viewBox="0 0 24 24" fill="none" xmlns="http://www.w3.org/2000/svg">
<path fill-rule="evenodd" clip-rule="evenodd" d="M3.09467 3.09467C4.42914 1.7602 6.42603 1.25 9 1.25H15C17.574 1.25 19.5709 1.7602 20.9053 3.09467C22.2398 4.42914 22.75 6.42603 22.75 9V15C22.75 17.574 22.2398 19.5709 20.9053 20.9053C19.5709 22.2398 17.574 22.75 15 22.75H9C6.42603 22.75 4.42914 22.2398 3.09467 20.9053C1.7602 19.5709 1.25 17.574 1.25 15V9C1.25 6.42603 1.7602 4.42914 3.09467 3.09467ZM4.15533 4.15533C3.2398 5.07086 2.75 6.57397 2.75 9V15C2.75 17.426 3.2398 18.9291 4.15533 19.8447C5.07086 20.7602 6.57397 21.25 9 21.25H15C17.426 21.25 18.9291 20.7602 19.8447 19.8447C20.7602 18.9291 21.25 17.426 21.25 15V9C21.25 6.57397 20.7602 5.07086 19.8447 4.15533C18.9291 3.2398 17.426 2.75 15 2.75H9C6.57397 2.75 5.07086 3.2398 4.15533 4.15533Z" fill="#424B5A"/>
<path fill-rule="evenodd" clip-rule="evenodd" d="M10.355 9.23276C10.1248 9.36505 9.85 9.72507 9.85 10.52V13.48C9.85 14.2685 10.1239 14.6302 10.3561 14.7641C10.5885 14.8982 11.04 14.9547 11.7252 14.5604C11.725 14.5605 11.7254 14.5603 11.7252 14.5604L14.2846 13.0807L14.2858 13.08C14.9712 12.6854 15.1475 12.2669 15.1475 12C15.1475 11.7331 14.9712 11.3146 14.2858 10.92L11.7258 9.43997C11.7256 9.43986 11.726 9.44007 11.7258 9.43997C11.0387 9.04451 10.5864 9.09975 10.355 9.23276ZM9.60754 7.93224C10.4635 7.44029 11.5117 7.58582 12.4742 8.14003L12.4754 8.1407L15.0342 9.62003C15.034 9.61991 15.0344 9.62016 15.0342 9.62003C15.9984 10.1754 16.6475 11.0122 16.6475 12C16.6475 12.9878 15.9992 13.8242 15.035 14.3795C15.0347 14.3797 15.0353 14.3794 15.035 14.3795L12.4742 15.86C11.5098 16.4152 10.4615 16.5567 9.60641 16.0634C8.75106 15.5698 8.35 14.5915 8.35 13.48V10.52C8.35 9.40494 8.75022 8.42495 9.60754 7.93224Z" fill="#424B5A"/>
</svg>
