<svg width="24" height="24" viewBox="0 0 24 24" fill="none" xmlns="http://www.w3.org/2000/svg">
<path fill-rule="evenodd" clip-rule="evenodd" d="M2.38967 3.96961C3.2698 3.08949 4.589 2.82994 6.21 2.82994H12.52C13.8626 2.82994 15.0258 3.00404 15.8908 3.55105C16.815 4.13541 17.2768 5.06192 17.377 6.25313C17.3963 6.45855 17.3947 6.81447 17.3912 7.07637C17.3893 7.21814 17.3864 7.34956 17.384 7.44537L17.3809 7.56L17.38 7.59183L17.3797 7.60268C17.3666 8.01668 17.0203 8.34264 16.6063 8.32957C16.1923 8.31649 15.8673 7.97029 15.8804 7.55629C15.8804 7.55628 15.8804 7.55629 15.8804 7.55629L15.8807 7.54656L15.8815 7.51703L15.8845 7.40795C15.8867 7.31595 15.8895 7.19049 15.8913 7.05601C15.8952 6.76774 15.8937 6.49766 15.8835 6.39218L15.8825 6.38223C15.812 5.53562 15.5239 5.09373 15.0892 4.81884C14.5942 4.50585 13.7874 4.32994 12.52 4.32994H6.21C4.671 4.32994 3.8852 4.5954 3.45033 5.03027C3.01546 5.46515 2.75 6.25094 2.75 7.78994V16.2099C2.75 17.3316 3.08615 18.3371 3.82722 18.9549L4.43593 19.3896C4.77299 19.6304 4.85106 20.0988 4.6103 20.4359C4.36954 20.7729 3.90113 20.851 3.56407 20.6102L2.93407 20.1602C2.92075 20.1507 2.90774 20.1408 2.89507 20.1304C1.6685 19.1269 1.25 17.5993 1.25 16.2099V7.78994C1.25 6.16894 1.50954 4.84974 2.38967 3.96961Z" fill="#424B5A"/>
<path fill-rule="evenodd" clip-rule="evenodd" d="M16.74 10.1999C17.1542 10.1999 17.49 10.5357 17.49 10.9499V16.2099C17.49 17.8309 17.2305 19.1501 16.3503 20.0303C15.4702 20.9104 14.151 21.1699 12.53 21.1699H7.26C6.84579 21.1699 6.51 20.8342 6.51 20.4199C6.51 20.0057 6.84579 19.6699 7.26 19.6699H12.53C14.069 19.6699 14.8548 19.4045 15.2897 18.9696C15.7245 18.5347 15.99 17.7489 15.99 16.2099V10.9499C15.99 10.5357 16.3258 10.1999 16.74 10.1999Z" fill="#424B5A"/>
<path fill-rule="evenodd" clip-rule="evenodd" d="M22 5.98994C22.4142 5.98994 22.75 6.32573 22.75 6.73994V15.8099C22.75 16.7787 22.4215 17.6882 21.6157 18.1068C20.8099 18.5254 19.8781 18.2704 19.0885 17.7134C19.0881 17.7131 19.0878 17.7129 19.0875 17.7127L16.3093 15.764C15.9702 15.5261 15.8881 15.0584 16.126 14.7193C16.3639 14.3801 16.8316 14.2981 17.1707 14.5359L19.9507 16.4859L19.9525 16.4872C20.5227 16.8897 20.8305 16.8244 20.9243 16.7756C21.0185 16.7267 21.25 16.5112 21.25 15.8099V6.73994C21.25 6.32573 21.5858 5.98994 22 5.98994Z" fill="#424B5A"/>
<path fill-rule="evenodd" clip-rule="evenodd" d="M22.5503 1.65961C22.8432 1.9525 22.8432 2.42738 22.5503 2.72027L2.55033 22.7203C2.25744 23.0132 1.78256 23.0132 1.48967 22.7203C1.19678 22.4274 1.19678 21.9525 1.48967 21.6596L21.4897 1.65961C21.7826 1.36672 22.2574 1.36672 22.5503 1.65961Z" fill="#424B5A"/>
</svg>
