<svg width="24" height="24" viewBox="0 0 24 24" fill="none" xmlns="http://www.w3.org/2000/svg">
<path fill-rule="evenodd" clip-rule="evenodd" d="M4.15533 4.15533C3.2398 5.07086 2.75 6.57397 2.75 9V15C2.75 17.426 3.2398 18.9291 4.15533 19.8447C5.07086 20.7602 6.57397 21.25 9 21.25H14.0338C14.0253 21.2362 14.0168 21.2223 14.0084 21.2084L14.0077 21.2073C13.5308 20.4163 13.25 19.4832 13.25 18.5C13.25 17.0799 13.8096 15.7832 14.7331 14.8363C15.6891 13.857 17.0307 13.25 18.5 13.25C19.5049 13.25 20.4501 13.5301 21.25 14.0258V9C21.25 6.57397 20.7602 5.07086 19.8447 4.15533C18.9291 3.2398 17.426 2.75 15 2.75H9C6.57397 2.75 5.07086 3.2398 4.15533 4.15533ZM3.09467 3.09467C4.42914 1.7602 6.42603 1.25 9 1.25H15C17.574 1.25 19.5709 1.7602 20.9053 3.09467C22.2398 4.42914 22.75 6.42603 22.75 9V15.0141C22.75 15.2347 22.75 15.4837 22.7269 15.7379C22.6981 16.0546 22.4728 16.3187 22.1646 16.3969C21.8564 16.4752 21.5323 16.3506 21.356 16.086C21.3454 16.0702 21.3275 16.0482 21.3097 16.0303C21.2975 16.0182 21.2857 16.0056 21.2744 15.9926C20.6064 15.2256 19.6124 14.75 18.5 14.75C17.4494 14.75 16.4909 15.1831 15.8069 15.8836C15.1504 16.5568 14.75 17.4801 14.75 18.5C14.75 19.1965 14.949 19.8633 15.2919 20.4322C15.4836 20.7487 15.7225 21.0356 15.9967 21.2694C16.0118 21.2823 16.0263 21.2957 16.0403 21.3097C16.0567 21.3261 16.0699 21.337 16.1191 21.378C16.1281 21.3855 16.1384 21.394 16.1501 21.4038C16.3827 21.5976 16.476 21.9123 16.3865 22.2015C16.2971 22.4908 16.0425 22.6979 15.7411 22.7266C15.4951 22.75 15.2347 22.75 15.0161 22.75H9C6.42603 22.75 4.42914 22.2398 3.09467 20.9053C1.7602 19.5709 1.25 17.574 1.25 15V9C1.25 6.42603 1.7602 4.42914 3.09467 3.09467Z" fill="#424B5A"/>
<path fill-rule="evenodd" clip-rule="evenodd" d="M1.77 7.10999C1.77 6.69577 2.10579 6.35999 2.52 6.35999H21.48C21.8942 6.35999 22.23 6.69577 22.23 7.10999C22.23 7.5242 21.8942 7.85999 21.48 7.85999H2.52C2.10579 7.85999 1.77 7.5242 1.77 7.10999Z" fill="#424B5A"/>
<path fill-rule="evenodd" clip-rule="evenodd" d="M8.52 1.35999C8.93422 1.35999 9.27 1.69577 9.27 2.10999V6.96997C9.27 7.38418 8.93422 7.71997 8.52 7.71997C8.10579 7.71997 7.77 7.38418 7.77 6.96997V2.10999C7.77 1.69577 8.10579 1.35999 8.52 1.35999Z" fill="#424B5A"/>
<path fill-rule="evenodd" clip-rule="evenodd" d="M15.48 1.35999C15.8942 1.35999 16.23 1.69577 16.23 2.10999V6.52002C16.23 6.93423 15.8942 7.27002 15.48 7.27002C15.0658 7.27002 14.73 6.93423 14.73 6.52002V2.10999C14.73 1.69577 15.0658 1.35999 15.48 1.35999Z" fill="#424B5A"/>
<path fill-rule="evenodd" clip-rule="evenodd" d="M18.5 14.75C17.4494 14.75 16.4909 15.1831 15.8069 15.8836L18.5 14.75ZM14.7331 14.8363C15.6891 13.857 17.0307 13.25 18.5 13.25C20.0393 13.25 21.4384 13.9073 22.3901 14.9898C22.4561 15.0578 22.5213 15.1354 22.5793 15.2179C23.3145 16.1149 23.75 17.2627 23.75 18.5C23.75 18.9135 23.7043 19.3266 23.5969 19.735C23.4683 20.2579 23.2599 20.7535 22.996 21.201L22.9931 21.2059C22.0836 22.7218 20.4149 23.75 18.5 23.75C17.24 23.75 16.0896 23.3054 15.1969 22.5537L15.67 21.9918V21.98L15.1899 22.5561C15.1839 22.5512 15.1772 22.5457 15.1699 22.5396C15.1279 22.5049 15.0654 22.4534 15.003 22.3933C14.6062 22.0508 14.2722 21.6442 14.0084 21.2084L14.0077 21.2073C13.5308 20.4163 13.25 19.4832 13.25 18.5C13.25 17.0799 13.8096 15.7832 14.7331 14.8363ZM16.081 21.3462C16.0609 21.3293 16.0513 21.3207 16.0403 21.3097C16.0263 21.2957 16.0118 21.2823 15.9967 21.2694C15.7225 21.0356 15.4836 20.7487 15.2919 20.4322C14.949 19.8633 14.75 19.1965 14.75 18.5C14.75 17.4801 15.1504 16.5568 15.8069 15.8836M16.081 21.3462C16.1096 21.3643 16.137 21.3843 16.1631 21.4063C16.7904 21.9345 17.6 22.25 18.5 22.25C19.8641 22.25 21.0547 21.5193 21.7055 20.4365C21.8997 20.1066 22.0501 19.7455 22.1414 19.3719L22.145 19.3581C22.2163 19.0887 22.25 18.8041 22.25 18.5C22.25 17.6099 21.9344 16.7885 21.4032 16.1494C21.3864 16.1291 21.3706 16.1079 21.356 16.086C21.3454 16.0702 21.3275 16.0482 21.3097 16.0303C21.2975 16.0182 21.2857 16.0056 21.2744 15.9926C20.6064 15.2256 19.6124 14.75 18.5 14.75" fill="#424B5A"/>
<path fill-rule="evenodd" clip-rule="evenodd" d="M16.7897 16.7697C17.0826 16.4768 17.5574 16.4768 17.8503 16.7697L20.2303 19.1497C20.5232 19.4426 20.5232 19.9174 20.2303 20.2103C19.9374 20.5032 19.4626 20.5032 19.1697 20.2103L16.7897 17.8303C16.4968 17.5374 16.4968 17.0625 16.7897 16.7697Z" fill="#424B5A"/>
<path fill-rule="evenodd" clip-rule="evenodd" d="M20.2103 16.7897C20.5032 17.0826 20.5032 17.5574 20.2103 17.8503L17.8303 20.2303C17.5374 20.5232 17.0626 20.5232 16.7697 20.2303C16.4768 19.9375 16.4768 19.4626 16.7697 19.1697L19.1497 16.7897C19.4426 16.4968 19.9174 16.4968 20.2103 16.7897Z" fill="#424B5A"/>
</svg>
