<svg width="24" height="24" viewBox="0 0 24 24" fill="none" xmlns="http://www.w3.org/2000/svg">
<path fill-rule="evenodd" clip-rule="evenodd" d="M4.15533 4.15533C3.2398 5.07086 2.75 6.57397 2.75 9V15C2.75 17.426 3.2398 18.9291 4.15533 19.8447C5.07086 20.7602 6.57397 21.25 9 21.25H14.0336C14.0247 21.2353 14.0157 21.2206 14.0069 21.2059C13.5305 20.4152 13.25 19.4827 13.25 18.5C13.25 16.8476 14.0072 15.3632 15.2226 14.4034C16.1208 13.6813 17.2644 13.25 18.5 13.25C19.5103 13.25 20.4519 13.5326 21.25 14.0246V9C21.25 6.57397 20.7602 5.07086 19.8447 4.15533C18.9291 3.2398 17.426 2.75 15 2.75H9C6.57397 2.75 5.07086 3.2398 4.15533 4.15533ZM3.09467 3.09467C4.42914 1.7602 6.42603 1.25 9 1.25H15C17.574 1.25 19.5709 1.7602 20.9053 3.09467C22.2398 4.42914 22.75 6.42603 22.75 9V15.0151C22.75 15.225 22.75 15.4753 22.7266 15.7211C22.6977 16.0243 22.4885 16.2799 22.197 16.368C21.9055 16.456 21.5897 16.3592 21.3977 16.1228C20.7156 15.2826 19.6769 14.75 18.5 14.75C17.617 14.75 16.8017 15.0577 16.1604 15.5742L16.1544 15.579C15.2915 16.2593 14.75 17.3138 14.75 18.5C14.75 19.1968 14.9492 19.8637 15.2923 20.4327L15.2931 20.4341C15.5181 20.8092 15.7995 21.1311 16.1285 21.3943C16.3671 21.5852 16.466 21.9016 16.3787 22.1944C16.2914 22.4871 16.0352 22.6976 15.7311 22.7266C15.4851 22.75 15.2345 22.75 15.0156 22.75H9C6.42603 22.75 4.42914 22.2398 3.09467 20.9053C1.7602 19.5709 1.25 17.574 1.25 15V9C1.25 6.42603 1.7602 4.42914 3.09467 3.09467Z" fill="#424B5A"/>
<path fill-rule="evenodd" clip-rule="evenodd" d="M1.77 7.10999C1.77 6.69577 2.10579 6.35999 2.52 6.35999H21.48C21.8942 6.35999 22.23 6.69577 22.23 7.10999C22.23 7.5242 21.8942 7.85999 21.48 7.85999H2.52C2.10579 7.85999 1.77 7.5242 1.77 7.10999Z" fill="#424B5A"/>
<path fill-rule="evenodd" clip-rule="evenodd" d="M8.52 1.35999C8.93422 1.35999 9.27 1.69577 9.27 2.10999V6.96997C9.27 7.38418 8.93422 7.71997 8.52 7.71997C8.10579 7.71997 7.77 7.38418 7.77 6.96997V2.10999C7.77 1.69577 8.10579 1.35999 8.52 1.35999Z" fill="#424B5A"/>
<path fill-rule="evenodd" clip-rule="evenodd" d="M15.48 1.35999C15.8942 1.35999 16.23 1.69577 16.23 2.10999V6.52002C16.23 6.93423 15.8942 7.27002 15.48 7.27002C15.0658 7.27002 14.73 6.93423 14.73 6.52002V2.10999C14.73 1.69577 15.0658 1.35999 15.48 1.35999Z" fill="#424B5A"/>
<path fill-rule="evenodd" clip-rule="evenodd" d="M18.5 14.75C17.617 14.75 16.8017 15.0577 16.1604 15.5742L16.1544 15.579C15.2915 16.2593 14.75 17.3138 14.75 18.5C14.75 19.1968 14.9492 19.8637 15.2923 20.4327L15.2931 20.4341C15.5037 20.7851 15.7635 21.0895 16.0657 21.3428C16.0948 21.3609 16.1228 21.3811 16.1494 21.4032C16.7885 21.9344 17.61 22.25 18.5 22.25C19.4506 22.25 20.3051 21.9013 20.9626 21.3187L20.9718 21.3105C21.2578 21.0654 21.5064 20.7683 21.7069 20.4341L21.7077 20.4327C22.0508 19.8637 22.25 19.1968 22.25 18.5C22.25 17.5973 21.9327 16.7664 21.4032 16.1294L21.3977 16.1228C20.7156 15.2826 19.6769 14.75 18.5 14.75ZM15.2226 14.4034C16.1208 13.6813 17.2644 13.25 18.5 13.25C20.1415 13.25 21.6016 13.9961 22.5596 15.174C23.3084 16.0765 23.75 17.2443 23.75 18.5C23.75 19.4829 23.4694 20.4156 22.9928 21.2064C22.7145 21.6702 22.3647 22.0914 21.9528 22.4454C21.0309 23.2604 19.8272 23.75 18.5 23.75C17.2844 23.75 16.1553 23.3297 15.2655 22.6179C15.2399 22.602 15.2152 22.5846 15.1915 22.5656C14.7206 22.1889 14.3219 21.7309 14.0069 21.2059L14.65 20.82L14.0077 21.2073C13.5308 20.4163 13.25 19.4832 13.25 18.5C13.25 16.8476 14.0072 15.3632 15.2226 14.4034Z" fill="#424B5A"/>
<path fill-rule="evenodd" clip-rule="evenodd" d="M20.8106 16.8807C21.0918 17.1848 21.0733 17.6593 20.7693 17.9406L18.3693 20.1606C18.0735 20.4341 17.6145 20.4252 17.3297 20.1403L16.2197 19.0303C15.9268 18.7374 15.9268 18.2626 16.2197 17.9697C16.5126 17.6768 16.9874 17.6768 17.2803 17.9697L17.8803 18.5696L19.7507 16.8394C20.0548 16.5582 20.5293 16.5767 20.8106 16.8807Z" fill="#424B5A"/>
</svg>
