<svg width="24" height="24" viewBox="0 0 24 24" fill="none" xmlns="http://www.w3.org/2000/svg">
<path fill-rule="evenodd" clip-rule="evenodd" d="M3.09467 3.09467C4.42914 1.7602 6.42603 1.25 9 1.25H15C17.574 1.25 19.5709 1.7602 20.9053 3.09467C22.2398 4.42914 22.75 6.42603 22.75 9V15C22.75 17.574 22.2398 19.5709 20.9053 20.9053C19.5709 22.2398 17.574 22.75 15 22.75H9C6.42603 22.75 4.42914 22.2398 3.09467 20.9053C1.7602 19.5709 1.25 17.574 1.25 15V9C1.25 6.42603 1.7602 4.42914 3.09467 3.09467ZM4.15533 4.15533C3.2398 5.07086 2.75 6.57397 2.75 9V15C2.75 17.426 3.2398 18.9291 4.15533 19.8447C5.07086 20.7602 6.57397 21.25 9 21.25H15C17.426 21.25 18.9291 20.7602 19.8447 19.8447C20.7602 18.9291 21.25 17.426 21.25 15V9C21.25 6.57397 20.7602 5.07086 19.8447 4.15533C18.9291 3.2398 17.426 2.75 15 2.75H9C6.57397 2.75 5.07086 3.2398 4.15533 4.15533Z" fill="#424B5A"/>
<path fill-rule="evenodd" clip-rule="evenodd" d="M1.77 7.11C1.77 6.69579 2.10579 6.36 2.52 6.36H21.48C21.8942 6.36 22.23 6.69579 22.23 7.11C22.23 7.52421 21.8942 7.86 21.48 7.86H2.52C2.10579 7.86 1.77 7.52421 1.77 7.11Z" fill="#424B5A"/>
<path fill-rule="evenodd" clip-rule="evenodd" d="M8.52 1.36C8.93421 1.36 9.27 1.69579 9.27 2.11V6.97C9.27 7.38421 8.93421 7.72 8.52 7.72C8.10579 7.72 7.77 7.38421 7.77 6.97V2.11C7.77 1.69579 8.10579 1.36 8.52 1.36Z" fill="#424B5A"/>
<path fill-rule="evenodd" clip-rule="evenodd" d="M15.48 1.36C15.8942 1.36 16.23 1.69579 16.23 2.11V6.52C16.23 6.93421 15.8942 7.27 15.48 7.27C15.0658 7.27 14.73 6.93421 14.73 6.52V2.11C14.73 1.69579 15.0658 1.36 15.48 1.36Z" fill="#424B5A"/>
<path fill-rule="evenodd" clip-rule="evenodd" d="M10.8367 12.333C10.7098 12.4064 10.5 12.6402 10.5 13.25V15.65C10.5 16.2598 10.7098 16.4936 10.8367 16.567C10.9631 16.6401 11.2687 16.7052 11.7942 16.4009L13.8742 15.2009C13.8741 15.201 13.8744 15.2008 13.8742 15.2009C14.3993 14.8968 14.4975 14.5982 14.4975 14.45C14.4975 14.3018 14.3997 14.0035 13.8747 13.6993C13.8745 13.6992 13.8748 13.6994 13.8747 13.6993L11.7942 12.4991C11.2687 12.1948 10.9631 12.2599 10.8367 12.333ZM12.5453 11.2006C11.7409 10.7351 10.8367 10.6002 10.0858 11.0345C9.33519 11.4686 9 12.3198 9 13.25V15.65C9 16.5802 9.33519 17.4314 10.0858 17.8655C10.8367 18.2998 11.741 18.1649 12.5453 17.6993C12.5451 17.6994 12.5455 17.6993 12.5453 17.6993L14.6258 16.4991C15.4303 16.0333 15.9975 15.3168 15.9975 14.45C15.9975 13.5832 15.4303 12.8667 14.6258 12.4009L12.5453 11.2006C12.5454 11.2007 12.5451 11.2005 12.5453 11.2006Z" fill="#424B5A"/>
</svg>
