<svg width="24" height="24" viewBox="0 0 24 24" fill="none" xmlns="http://www.w3.org/2000/svg">
<path fill-rule="evenodd" clip-rule="evenodd" d="M3.09467 3.09467C4.42914 1.7602 6.42603 1.25 9 1.25H15C17.574 1.25 19.5709 1.7602 20.9053 3.09467C22.2398 4.42914 22.75 6.42603 22.75 9V15C22.75 17.574 22.2398 19.5709 20.9053 20.9053C19.5709 22.2398 17.574 22.75 15 22.75H9C6.42603 22.75 4.42914 22.2398 3.09467 20.9053C1.7602 19.5709 1.25 17.574 1.25 15V9C1.25 6.42603 1.7602 4.42914 3.09467 3.09467ZM4.15533 4.15533C3.2398 5.07086 2.75 6.57397 2.75 9V15C2.75 17.426 3.2398 18.9291 4.15533 19.8447C5.07086 20.7602 6.57397 21.25 9 21.25H15C17.426 21.25 18.9291 20.7602 19.8447 19.8447C20.7602 18.9291 21.25 17.426 21.25 15V9C21.25 6.57397 20.7602 5.07086 19.8447 4.15533C18.9291 3.2398 17.426 2.75 15 2.75H9C6.57397 2.75 5.07086 3.2398 4.15533 4.15533Z" fill="#424B5A"/>
<path fill-rule="evenodd" clip-rule="evenodd" d="M1.77 17.11C1.77 16.6958 2.10579 16.36 2.52 16.36H21.48C21.8942 16.36 22.23 16.6958 22.23 17.11C22.23 17.5242 21.8942 17.86 21.48 17.86H2.52C2.10579 17.86 1.77 17.5242 1.77 17.11Z" fill="#424B5A"/>
<path fill-rule="evenodd" clip-rule="evenodd" d="M1.77 7.11C1.77 6.69579 2.10579 6.36 2.52 6.36H21.48C21.8942 6.36 22.23 6.69579 22.23 7.11C22.23 7.52421 21.8942 7.86 21.48 7.86H2.52C2.10579 7.86 1.77 7.52421 1.77 7.11Z" fill="#424B5A"/>
<path fill-rule="evenodd" clip-rule="evenodd" d="M6.97 16.36C7.38421 16.36 7.72 16.6958 7.72 17.11V21.46C7.72 21.8742 7.38421 22.21 6.97 22.21C6.55579 22.21 6.22 21.8742 6.22 21.46V17.11C6.22 16.6958 6.55579 16.36 6.97 16.36Z" fill="#424B5A"/>
<path fill-rule="evenodd" clip-rule="evenodd" d="M12 16.36C12.4142 16.36 12.75 16.6958 12.75 17.11V21.97C12.75 22.3842 12.4142 22.72 12 22.72C11.5858 22.72 11.25 22.3842 11.25 21.97V17.11C11.25 16.6958 11.5858 16.36 12 16.36Z" fill="#424B5A"/>
<path fill-rule="evenodd" clip-rule="evenodd" d="M16.97 16.36C17.3842 16.36 17.72 16.6958 17.72 17.11V21.52C17.72 21.9342 17.3842 22.27 16.97 22.27C16.5558 22.27 16.22 21.9342 16.22 21.52V17.11C16.22 16.6958 16.5558 16.36 16.97 16.36Z" fill="#424B5A"/>
<path fill-rule="evenodd" clip-rule="evenodd" d="M6.97 1.36C7.38421 1.36 7.72 1.69579 7.72 2.11V6.46C7.72 6.87421 7.38421 7.21 6.97 7.21C6.55579 7.21 6.22 6.87421 6.22 6.46V2.11C6.22 1.69579 6.55579 1.36 6.97 1.36Z" fill="#424B5A"/>
<path fill-rule="evenodd" clip-rule="evenodd" d="M12 1.36C12.4142 1.36 12.75 1.69579 12.75 2.11V6.97C12.75 7.38421 12.4142 7.72 12 7.72C11.5858 7.72 11.25 7.38421 11.25 6.97V2.11C11.25 1.69579 11.5858 1.36 12 1.36Z" fill="#424B5A"/>
<path fill-rule="evenodd" clip-rule="evenodd" d="M12 6.28C12.4142 6.28 12.75 6.61579 12.75 7.03V18.03C12.75 18.4442 12.4142 18.78 12 18.78C11.5858 18.78 11.25 18.4442 11.25 18.03V7.03C11.25 6.61579 11.5858 6.28 12 6.28Z" fill="#424B5A"/>
<path fill-rule="evenodd" clip-rule="evenodd" d="M16.97 1.36C17.3842 1.36 17.72 1.69579 17.72 2.11V6.52C17.72 6.93421 17.3842 7.27 16.97 7.27C16.5558 7.27 16.22 6.93421 16.22 6.52V2.11C16.22 1.69579 16.5558 1.36 16.97 1.36Z" fill="#424B5A"/>
</svg>
