<svg width="24" height="24" viewBox="0 0 24 24" fill="none" xmlns="http://www.w3.org/2000/svg">
<path fill-rule="evenodd" clip-rule="evenodd" d="M6 9.10999C6.41421 9.10999 6.75 9.44577 6.75 9.85999V14.15C6.75 14.5642 6.41421 14.9 6 14.9C5.58579 14.9 5.25 14.5642 5.25 14.15V9.85999C5.25 9.44577 5.58579 9.10999 6 9.10999Z" fill="#424B5A"/>
<path fill-rule="evenodd" clip-rule="evenodd" d="M9 7.67999C9.41421 7.67999 9.75 8.01578 9.75 8.42999V15.57C9.75 15.9842 9.41421 16.32 9 16.32C8.58579 16.32 8.25 15.9842 8.25 15.57V8.42999C8.25 8.01578 8.58579 7.67999 9 7.67999Z" fill="#424B5A"/>
<path fill-rule="evenodd" clip-rule="evenodd" d="M12 6.25C12.4142 6.25 12.75 6.58579 12.75 7V17C12.75 17.4142 12.4142 17.75 12 17.75C11.5858 17.75 11.25 17.4142 11.25 17V7C11.25 6.58579 11.5858 6.25 12 6.25Z" fill="#424B5A"/>
<path fill-rule="evenodd" clip-rule="evenodd" d="M15 7.67999C15.4142 7.67999 15.75 8.01578 15.75 8.42999V15.57C15.75 15.9842 15.4142 16.32 15 16.32C14.5858 16.32 14.25 15.9842 14.25 15.57V8.42999C14.25 8.01578 14.5858 7.67999 15 7.67999Z" fill="#424B5A"/>
<path fill-rule="evenodd" clip-rule="evenodd" d="M18 9.10999C18.4142 9.10999 18.75 9.44577 18.75 9.85999V14.15C18.75 14.5642 18.4142 14.9 18 14.9C17.5858 14.9 17.25 14.5642 17.25 14.15V9.85999C17.25 9.44577 17.5858 9.10999 18 9.10999Z" fill="#424B5A"/>
<path fill-rule="evenodd" clip-rule="evenodd" d="M12 2.75C6.89137 2.75 2.75 6.89137 2.75 12C2.75 17.1086 6.89137 21.25 12 21.25C17.1086 21.25 21.25 17.1086 21.25 12C21.25 6.89137 17.1086 2.75 12 2.75ZM1.25 12C1.25 6.06294 6.06294 1.25 12 1.25C17.9371 1.25 22.75 6.06294 22.75 12C22.75 17.9371 17.9371 22.75 12 22.75C6.06294 22.75 1.25 17.9371 1.25 12Z" fill="#424B5A"/>
</svg>
