<svg width="24" height="24" viewBox="0 0 24 24" fill="none" xmlns="http://www.w3.org/2000/svg">
<path fill-rule="evenodd" clip-rule="evenodd" d="M14.2478 3.6205C15.4248 4.27401 16.01 5.64905 16.01 7.31996V16.67C16.01 18.3394 15.4283 19.7151 14.252 20.3692C13.0752 21.0236 11.6002 20.7907 10.1829 19.9062L7.20288 18.0462C7.00137 17.9202 6.7586 17.85 6.52 17.85H5.06C3.92439 17.85 2.93493 17.5655 2.23467 16.8653C1.53441 16.165 1.25 15.1756 1.25 14.04V9.95996C1.25 8.82435 1.53441 7.83489 2.23467 7.13463C2.93493 6.43437 3.92439 6.14996 5.06 6.14996H6.52C6.75165 6.14996 6.9867 6.08363 7.20678 5.95127L10.1814 4.08468C11.595 3.19911 13.0703 2.96668 14.2478 3.6205ZM10.9786 5.35523C12.1348 4.6311 12.9998 4.64327 13.5197 4.93191C14.0402 5.2209 14.51 5.95086 14.51 7.31996V16.67C14.51 18.0405 14.0417 18.7698 13.523 19.0582C13.0048 19.3464 12.1398 19.3593 10.9771 18.6337C10.9771 18.6337 10.9771 18.6337 10.9771 18.6337L7.9975 16.774C7.55901 16.4999 7.0414 16.35 6.52 16.35H5.06C4.15561 16.35 3.61507 16.1244 3.29533 15.8046C2.97559 15.4849 2.75 14.9443 2.75 14.04V9.95996C2.75 9.05556 2.97559 8.51503 3.29533 8.19529C3.61507 7.87555 4.15561 7.64996 5.06 7.64996H6.52C7.04677 7.64996 7.55009 7.49719 7.98873 7.23135L10.9786 5.35523Z" fill="#424B5A"/>
<path fill-rule="evenodd" clip-rule="evenodd" d="M17.25 12C17.25 11.5857 17.5858 11.25 18 11.25H22C22.4142 11.25 22.75 11.5857 22.75 12C22.75 12.4142 22.4142 12.75 22 12.75H18C17.5858 12.75 17.25 12.4142 17.25 12Z" fill="#424B5A"/>
</svg>
