<svg width="24" height="24" viewBox="0 0 24 24" fill="none" xmlns="http://www.w3.org/2000/svg">
<path fill-rule="evenodd" clip-rule="evenodd" d="M17.5127 3.77365C18.6746 4.41566 19.25 5.76902 19.25 7.4101V16.5901C19.25 18.2272 18.6741 19.5794 17.5135 20.2224C16.3526 20.8656 14.9007 20.6364 13.5117 19.7656C13.5117 19.7656 13.5118 19.7656 13.5117 19.7656L10.6001 17.9409C10.3875 17.8162 10.1513 17.7501 9.93 17.7501H8.5C7.38439 17.7501 6.40993 17.4707 5.71967 16.7804C5.02941 16.0902 4.75 15.1157 4.75 14.0001V10.0001C4.75 8.8845 5.02941 7.91003 5.71967 7.21977C6.40993 6.52951 7.38439 6.2501 8.5 6.2501H9.93C10.1513 6.2501 10.3875 6.18398 10.6001 6.05932L13.5116 4.23467C13.5116 4.2347 13.5116 4.23465 13.5116 4.23467C14.8994 3.36459 16.3512 3.13187 17.5127 3.77365ZM16.7873 5.08656C16.2838 4.80836 15.4406 4.79569 14.3084 5.50554L11.3806 7.3404L11.3729 7.345C10.9473 7.59768 10.4463 7.7501 9.93 7.7501H8.5C7.61561 7.7501 7.09007 7.97069 6.78033 8.28043C6.47059 8.59017 6.25 9.11571 6.25 10.0001V14.0001C6.25 14.8845 6.47059 15.41 6.78033 15.7198C7.09007 16.0295 7.61561 16.2501 8.5 16.2501H9.93C10.4463 16.2501 10.9473 16.4025 11.3729 16.6552L11.3806 16.6598L14.3083 18.4946C15.4393 19.2037 16.2825 19.1896 16.7865 18.9103C17.2909 18.6308 17.75 17.923 17.75 16.5901V7.4101C17.75 6.07119 17.2904 5.36455 16.7873 5.08656Z" fill="#424B5A"/>
</svg>
