<svg width="24" height="24" viewBox="0 0 24 24" fill="none" xmlns="http://www.w3.org/2000/svg">
<path fill-rule="evenodd" clip-rule="evenodd" d="M14.0127 3.93308C15.1746 4.57508 15.75 5.92844 15.75 7.56953V16.7495C15.75 18.3866 15.1741 19.7388 14.0135 20.3818C12.8526 21.025 11.4007 20.7959 10.0117 19.925L7.10012 18.1003C6.8875 17.9756 6.65132 17.9095 6.43 17.9095H5C3.88439 17.9095 2.90993 17.6301 2.21967 16.9399C1.52941 16.2496 1.25 15.2751 1.25 14.1595V10.1595C1.25 9.04392 1.52941 8.06946 2.21967 7.3792C2.90993 6.68894 3.88439 6.40953 5 6.40953H6.43C6.65133 6.40953 6.88751 6.3434 7.10014 6.21874L10.0116 4.3941C11.3994 3.52401 12.8512 3.29129 14.0127 3.93308ZM13.2873 5.24598C12.7838 4.96779 11.9406 4.95511 10.8084 5.66496L7.88065 7.49982L7.8729 7.50442C7.44733 7.7571 6.94625 7.90953 6.43 7.90953H5C4.11561 7.90953 3.59007 8.13012 3.28033 8.43986C2.97059 8.7496 2.75 9.27514 2.75 10.1595V14.1595C2.75 15.0439 2.97059 15.5695 3.28033 15.8792C3.59007 16.1889 4.11561 16.4095 5 16.4095H6.43C6.94625 16.4095 7.44733 16.562 7.8729 16.8146L7.88065 16.8192L10.8083 18.654C11.9393 19.3631 12.7825 19.349 13.2865 19.0697C13.7909 18.7903 14.25 18.0825 14.25 16.7495V7.56953C14.25 6.23061 13.7904 5.52397 13.2873 5.24598ZM17.5096 9.6292C17.8025 9.33631 18.2774 9.33631 18.5703 9.6292L20.02 11.0789L21.4297 9.66921C21.7226 9.37632 22.1974 9.37632 22.4903 9.66921C22.7832 9.9621 22.7832 10.437 22.4903 10.7299L21.0807 12.1395L22.5303 13.5892C22.8232 13.8821 22.8232 14.357 22.5303 14.6499C22.2374 14.9428 21.7625 14.9428 21.4696 14.6499L20.02 13.2002L18.5303 14.6899C18.2374 14.9828 17.7626 14.9828 17.4697 14.6899C17.1768 14.397 17.1768 13.9221 17.4697 13.6292L18.9593 12.1395L17.5096 10.6899C17.2168 10.397 17.2168 9.92209 17.5096 9.6292Z" fill="#424B5A"/>
</svg>
