<svg width="24" height="24" viewBox="0 0 24 24" fill="none" xmlns="http://www.w3.org/2000/svg">
<path fill-rule="evenodd" clip-rule="evenodd" d="M14.0127 3.77365C15.1746 4.41566 15.75 5.76902 15.75 7.4101V16.5901C15.75 18.2272 15.1741 19.5794 14.0135 20.2224C12.8526 20.8656 11.4007 20.6364 10.0117 19.7656C10.0117 19.7656 10.0118 19.7656 10.0117 19.7656L7.10012 17.9409C6.8875 17.8162 6.65132 17.7501 6.43 17.7501H5C3.88439 17.7501 2.90993 17.4707 2.21967 16.7804C1.52941 16.0902 1.25 15.1157 1.25 14.0001V10.0001C1.25 8.8845 1.52941 7.91003 2.21967 7.21977C2.90993 6.52951 3.88439 6.2501 5 6.2501H6.43C6.65133 6.2501 6.88751 6.18398 7.10014 6.05932L10.0116 4.23467C10.0116 4.2347 10.0116 4.23465 10.0116 4.23467C11.3994 3.36459 12.8512 3.13187 14.0127 3.77365ZM13.2873 5.08656C12.7838 4.80836 11.9406 4.79569 10.8084 5.50554L7.88065 7.3404L7.8729 7.345C7.44733 7.59768 6.94625 7.7501 6.43 7.7501H5C4.11561 7.7501 3.59007 7.97069 3.28033 8.28043C2.97059 8.59017 2.75 9.11571 2.75 10.0001V14.0001C2.75 14.8845 2.97059 15.41 3.28033 15.7198C3.59007 16.0295 4.11561 16.2501 5 16.2501H6.43C6.94625 16.2501 7.44733 16.4025 7.8729 16.6552L7.88065 16.6598L10.8083 18.4946C11.9393 19.2037 12.7825 19.1896 13.2865 18.9103C13.7909 18.6308 14.25 17.923 14.25 16.5901V7.4101C14.25 6.07119 13.7904 5.36455 13.2873 5.08656Z" fill="#424B5A"/>
<path fill-rule="evenodd" clip-rule="evenodd" d="M17.5496 7.40041C17.8808 7.15166 18.3509 7.2185 18.5997 7.5497C20.5801 10.1865 20.5801 13.8137 18.5997 16.4505C18.3509 16.7817 17.8808 16.8486 17.5496 16.5998C17.2184 16.351 17.1516 15.8809 17.4003 15.5497C18.9799 13.4465 18.9799 10.5537 17.4003 8.45051C17.1516 8.11931 17.2184 7.64916 17.5496 7.40041Z" fill="#424B5A"/>
<path fill-rule="evenodd" clip-rule="evenodd" d="M19.3798 4.90029C19.711 4.65163 20.1811 4.71859 20.4298 5.04986C23.5201 9.16662 23.5201 14.8336 20.4298 18.9504C20.1811 19.2816 19.711 19.3486 19.3798 19.0999C19.0485 18.8513 18.9815 18.3811 19.2302 18.0499C21.9199 14.4666 21.9199 9.53359 19.2302 5.95035C18.9815 5.61909 19.0485 5.14896 19.3798 4.90029Z" fill="#424B5A"/>
</svg>
