<svg width="24" height="24" viewBox="0 0 24 24" fill="none" xmlns="http://www.w3.org/2000/svg">
<path fill-rule="evenodd" clip-rule="evenodd" d="M14.0127 3.77355C15.1746 4.41556 15.75 5.76891 15.75 7.41V8.37C15.75 8.78421 15.4142 9.12 15 9.12C14.5858 9.12 14.25 8.78421 14.25 8.37V7.41C14.25 6.07109 13.7904 5.36444 13.2873 5.08645C12.7838 4.80826 11.9406 4.79558 10.8084 5.50543L7.88828 7.33551L7.8729 7.34489C7.44733 7.59758 6.94625 7.75 6.43 7.75H5C4.11561 7.75 3.59007 7.97059 3.28033 8.28033C2.97059 8.59007 2.75 9.11561 2.75 10V14C2.75 14.8844 2.97059 15.4099 3.28033 15.7197C3.59007 16.0294 4.11561 16.25 5 16.25H7C7.41421 16.25 7.75 16.5858 7.75 17C7.75 17.4142 7.41421 17.75 7 17.75H5C3.88439 17.75 2.90993 17.4706 2.21967 16.7803C1.52941 16.0901 1.25 15.1156 1.25 14V10C1.25 8.88439 1.52941 7.90993 2.21967 7.21967C2.90993 6.52941 3.88439 6.25 5 6.25H6.43C6.65133 6.25 6.88751 6.18388 7.10014 6.05921L10.0116 4.23457C10.0116 4.23459 10.0116 4.23454 10.0116 4.23457C11.3994 3.36448 12.8512 3.13176 14.0127 3.77355Z" fill="#424B5A"/>
<path fill-rule="evenodd" clip-rule="evenodd" d="M15 12.2C15.4142 12.2 15.75 12.5358 15.75 12.95V16.59C15.75 18.2271 15.1741 19.5793 14.0135 20.2223C12.8525 20.8655 11.4006 20.6363 10.0116 19.7654C9.66066 19.5454 9.55453 19.0825 9.77457 18.7316C9.9946 18.3807 10.4575 18.2745 10.8084 18.4946C11.9394 19.2037 12.7825 19.1895 13.2865 18.9102C13.7909 18.6307 14.25 17.9229 14.25 16.59V12.95C14.25 12.5358 14.5858 12.2 15 12.2Z" fill="#424B5A"/>
<path fill-rule="evenodd" clip-rule="evenodd" d="M18.5204 8.72817C18.9025 8.56823 19.3419 8.74831 19.5018 9.1304C20.5022 11.5201 20.2032 14.3124 18.6 16.45C18.3515 16.7814 17.8814 16.8485 17.55 16.6C17.2186 16.3515 17.1515 15.8814 17.4 15.55C18.6768 13.8476 18.9178 11.6199 18.1182 9.7096C17.9582 9.32752 18.1383 8.88811 18.5204 8.72817Z" fill="#424B5A"/>
<path fill-rule="evenodd" clip-rule="evenodd" d="M20.8589 7.10881C21.2406 6.94802 21.6804 7.12714 21.8412 7.50887C23.4129 11.2403 22.9428 15.6032 20.4298 18.9503C20.1811 19.2815 19.7109 19.3485 19.3797 19.0998C19.0485 18.8511 18.9815 18.3809 19.2302 18.0497C21.4172 15.1368 21.8271 11.3397 20.4588 8.09113C20.298 7.7094 20.4771 7.2696 20.8589 7.10881Z" fill="#424B5A"/>
<path fill-rule="evenodd" clip-rule="evenodd" d="M22.5303 1.46967C22.8232 1.76256 22.8232 2.23744 22.5303 2.53033L2.53033 22.5303C2.23744 22.8232 1.76256 22.8232 1.46967 22.5303C1.17678 22.2374 1.17678 21.7626 1.46967 21.4697L21.4697 1.46967C21.7626 1.17678 22.2374 1.17678 22.5303 1.46967Z" fill="#424B5A"/>
</svg>
