<svg width="24" height="24" viewBox="0 0 24 24" fill="none" xmlns="http://www.w3.org/2000/svg">
<path fill-rule="evenodd" clip-rule="evenodd" d="M15.3427 3.77365C16.5046 4.41566 17.08 5.76902 17.08 7.4101V16.5901C17.08 18.2272 16.5041 19.5794 15.3435 20.2224C14.1826 20.8656 12.7307 20.6364 11.3417 19.7656C11.3417 19.7656 11.3418 19.7656 11.3417 19.7656L8.43014 17.9409C8.21752 17.8162 7.98134 17.7501 7.76002 17.7501H6.33002C5.21441 17.7501 4.23995 17.4707 3.54969 16.7804C2.85943 16.0902 2.58002 15.1157 2.58002 14.0001V10.0001C2.58002 8.8845 2.85943 7.91003 3.54969 7.21977C4.23995 6.52951 5.21441 6.2501 6.33002 6.2501H7.76002C7.98135 6.2501 8.21753 6.18398 8.43015 6.05932L11.3416 4.23467C11.3416 4.2347 11.3417 4.23465 11.3416 4.23467C12.7294 3.36459 14.1812 3.13187 15.3427 3.77365ZM14.6173 5.08656C14.1138 4.80836 13.2706 4.79569 12.1384 5.50554L9.21067 7.3404L9.20292 7.345C8.77735 7.59768 8.27627 7.7501 7.76002 7.7501H6.33002C5.44563 7.7501 4.92009 7.97069 4.61035 8.28043C4.30061 8.59017 4.08002 9.11571 4.08002 10.0001V14.0001C4.08002 14.8845 4.30061 15.41 4.61035 15.7198C4.92009 16.0295 5.44563 16.2501 6.33002 16.2501H7.76002C8.27627 16.2501 8.77735 16.4025 9.20292 16.6552L9.21067 16.6598L12.1383 18.4946C13.2693 19.2037 14.1125 19.1896 14.6165 18.9103C15.1209 18.6308 15.58 17.923 15.58 16.5901V7.4101C15.58 6.07119 15.1204 5.36455 14.6173 5.08656Z" fill="#424B5A"/>
<path fill-rule="evenodd" clip-rule="evenodd" d="M18.8796 7.40041C19.2108 7.15166 19.681 7.2185 19.9297 7.5497C21.9101 10.1865 21.9101 13.8137 19.9297 16.4505C19.681 16.7817 19.2108 16.8486 18.8796 16.5998C18.5484 16.351 18.4816 15.8809 18.7303 15.5497C20.3099 13.4465 20.3099 10.5537 18.7303 8.45051C18.4816 8.11931 18.5484 7.64916 18.8796 7.40041Z" fill="#424B5A"/>
</svg>
