<svg width="24" height="24" viewBox="0 0 24 24" fill="none" xmlns="http://www.w3.org/2000/svg">
<path fill-rule="evenodd" clip-rule="evenodd" d="M10.5342 3.52647L7.8932 6.24997H16.851C16.7177 5.90053 16.5261 5.58673 16.2697 5.3303L14.4697 3.53031C13.3639 2.42449 11.6414 2.42321 10.5342 3.52647ZM6.22564 5.81356C6.0555 5.98305 5.86372 6.17408 5.7068 6.41473C4.41824 6.64589 3.33441 7.24872 2.55437 8.16325C1.69602 9.1696 1.25 10.5007 1.25 12V13C1.25 13.4142 1.58579 13.75 2 13.75C2.41421 13.75 2.75 13.4142 2.75 13V12C2.75 10.7993 3.10398 9.83033 3.69563 9.13667C4.28352 8.4474 5.15024 7.97756 6.27905 7.84581C6.33219 7.84017 6.38519 7.8288 6.43717 7.81147C6.61297 7.75287 6.70689 7.74998 7.00001 7.74998H17.7535C19.7459 8.0084 21.1462 9.54477 21.2445 11.75H19C17.4858 11.75 16.25 12.9858 16.25 14.5C16.25 16.0142 17.4858 17.25 19 17.25H21.2447C21.193 18.4616 20.7646 19.4247 20.0947 20.0946C19.3793 20.8101 18.3296 21.25 17 21.25H12C11.5858 21.25 11.25 21.5858 11.25 22C11.25 22.4142 11.5858 22.75 12 22.75H17C18.6704 22.75 20.1207 22.1899 21.1553 21.1553C22.1899 20.1207 22.75 18.6704 22.75 17V16.5V12.5V12C22.75 9.15282 21.045 6.91327 18.4449 6.34853C18.2725 5.60908 17.9289 4.86824 17.3303 4.26964L15.5303 2.46965C13.8374 0.776759 11.1625 0.776696 9.46961 2.46959L6.26565 5.77366L6.22564 5.81356ZM21.25 13.25H19C18.3142 13.25 17.75 13.8142 17.75 14.5C17.75 15.1858 18.3142 15.75 19 15.75H21.25V13.25ZM1.85156 18.2C1.85156 16.0158 3.61735 14.25 5.80157 14.25C7.98579 14.25 9.75156 16.0158 9.75156 18.2C9.75156 20.3842 7.98579 22.15 5.80157 22.15C4.97904 22.15 4.21584 21.8996 3.58394 21.4707C3.56732 21.4913 3.54945 21.5112 3.53033 21.5303L2.53033 22.5303C2.23744 22.8232 1.76256 22.8232 1.46967 22.5303C1.17678 22.2374 1.17678 21.7625 1.46967 21.4696L2.46967 20.4696C2.48889 20.4504 2.5089 20.4325 2.52959 20.4158C2.10148 19.7842 1.85156 19.0217 1.85156 18.2ZM5.80157 15.75C4.44578 15.75 3.35156 16.8442 3.35156 18.2C3.35156 19.5558 4.44578 20.65 5.80157 20.65C7.15735 20.65 8.25156 19.5558 8.25156 18.2C8.25156 16.8442 7.15735 15.75 5.80157 15.75Z" fill="#424B5A"/>
</svg>
