<svg width="24" height="24" viewBox="0 0 24 24" fill="none" xmlns="http://www.w3.org/2000/svg">
<path fill-rule="evenodd" clip-rule="evenodd" d="M7.57843 5.39566C8.215 3.92329 8.81628 3.217 9.45713 2.92795C9.96878 2.69718 10.6438 2.67162 11.6504 2.96609L9.23653 8.56803H6.88001C6.66211 8.56803 6.44685 8.58051 6.235 8.60473L7.40192 5.8177L7.44193 5.71768L7.50713 5.56864C7.51622 5.54787 7.52436 5.5267 7.53153 5.5052L7.54364 5.46928L7.54701 5.45976C7.55849 5.43891 7.56898 5.41752 7.57843 5.39566ZM1.26172 16.1483V14.3308C1.25402 14.2877 1.25 14.2434 1.25 14.198V11.268C1.25 8.20756 3.32939 5.63118 6.16128 4.88504C6.17634 4.84844 6.19449 4.8082 6.2159 4.76742C6.88627 3.22648 7.67703 2.08532 8.8404 1.5606C10.0213 1.02796 11.3725 1.22431 12.9148 1.81251C13.0366 1.85453 13.1963 1.92352 13.2969 1.96692L13.2969 1.96693L13.2969 1.96694L13.2969 1.96695C13.3336 1.98279 13.3624 1.99522 13.3786 2.00167L13.391 2.00664L15.5991 2.93599C16.8609 3.45935 17.8599 4.04668 18.4991 4.83142C18.6122 4.96735 18.7192 5.11125 18.8162 5.28644C18.869 5.37027 18.9203 5.46065 18.9665 5.55807C20.942 6.68432 22.2686 8.83575 22.2686 11.2676V14.0089C22.2707 14.0717 22.2717 14.1349 22.2717 14.1983V16.1483C22.2717 16.367 22.2609 16.5828 22.2512 16.7775L22.2512 16.7776V16.7776V16.7777L22.2508 16.7857L22.2506 16.789C22.1485 18.6638 21.565 20.1908 20.3997 21.2395C19.2409 22.2822 17.6216 22.7483 15.6617 22.7483H7.86172C7.58995 22.7483 7.32483 22.7264 7.07859 22.695C5.37794 22.5788 3.9723 22.057 2.96264 21.0473C1.95297 20.0377 1.4312 18.632 1.31494 16.9314C1.28359 16.6852 1.26172 16.42 1.26172 16.1483ZM17.7505 10.2114C17.7804 10.2248 17.8113 10.2364 17.8431 10.2459C19.5322 10.7527 20.7686 12.3353 20.7686 14.1976C20.7686 14.2208 20.7697 14.2438 20.7717 14.2665V16.1483C20.7717 16.3258 20.7629 16.5064 20.7528 16.7088C20.6646 18.3233 20.1782 19.4209 19.3963 20.1245C18.6075 20.8343 17.4018 21.2483 15.6617 21.2483H7.86172C7.66229 21.2483 7.45578 21.2316 7.24872 21.2046C7.23292 21.2025 7.21705 21.2009 7.20114 21.1999C5.73243 21.1029 4.70644 20.6698 4.0233 19.9867C3.34015 19.3035 2.90708 18.2775 2.81009 16.8088C2.80904 16.7929 2.80748 16.7771 2.80542 16.7612C2.77841 16.5542 2.76172 16.3477 2.76172 16.1483V14.1983C2.76172 12.5009 3.7908 11.0359 5.26442 10.3988C5.77821 10.1853 6.31908 10.0683 6.89172 10.0683H16.6517C16.9913 10.0683 17.3234 10.1076 17.6334 10.1804C17.6729 10.1901 17.7119 10.2004 17.7505 10.2114ZM20.6689 10.2616C20.4718 9.27998 19.9924 8.39715 19.3204 7.70942C19.2744 8.1496 19.1696 8.6076 19.0163 9.08458C19.6356 9.37502 20.1953 9.7756 20.6689 10.2616ZM10.8699 8.56803L13.0565 3.49344L15.0191 4.31933L15.0228 4.32084C16.2181 4.81647 16.9373 5.28797 17.3379 5.78101L17.3438 5.78817C17.4242 5.88454 17.4712 5.95221 17.5097 6.02361C17.5188 6.04064 17.5287 6.05732 17.5391 6.0736C17.6027 6.1725 17.6317 6.24014 17.6453 6.29128C17.6555 6.32937 17.6686 6.36661 17.6847 6.40263C17.7065 6.45184 17.7226 6.5007 17.7324 6.53993C17.7364 6.55595 17.7409 6.57182 17.746 6.58754C17.9024 7.07422 17.8734 7.72497 17.5739 8.63966C17.262 8.58994 16.9483 8.56803 16.64 8.56803H10.8699ZM11.7617 12.2479C12.1759 12.2479 12.5117 12.5837 12.5117 12.9979V14.6884H14.2617C14.6759 14.6884 15.0117 15.0242 15.0117 15.4384C15.0117 15.8526 14.6759 16.1884 14.2617 16.1884H12.5117V17.9979C12.5117 18.4122 12.1759 18.7479 11.7617 18.7479C11.3475 18.7479 11.0117 18.4122 11.0117 17.9979V16.1884H9.26172C8.84751 16.1884 8.51172 15.8526 8.51172 15.4384C8.51172 15.0242 8.84751 14.6884 9.26172 14.6884H11.0117V12.9979C11.0117 12.5837 11.3475 12.2479 11.7617 12.2479ZM2.8472 10.2711C3.28938 9.81659 3.80734 9.43627 4.38028 9.15064L5.35814 6.81495C4.0781 7.53236 3.14089 8.78617 2.8472 10.2711Z" fill="#424B5A"/>
</svg>
