<svg width="24" height="24" viewBox="0 0 24 24" fill="none" xmlns="http://www.w3.org/2000/svg">
<path fill-rule="evenodd" clip-rule="evenodd" d="M10.5511 3.55098L7.86036 6.25H16.8232C16.6906 5.91449 16.4853 5.60014 16.2053 5.32451L16.198 5.31738L14.4507 3.54997C13.3734 2.48301 11.628 2.48335 10.5511 3.55098ZM6.24108 5.74968C6.05211 5.9387 5.87589 6.1464 5.72482 6.37342C4.44345 6.61046 3.3544 7.2208 2.56795 8.14349C1.70803 9.15239 1.25 10.4871 1.25 12V17C1.25 18.6704 1.81009 20.1208 2.84467 21.1553C3.87925 22.1899 5.32956 22.75 7 22.75H17C18.6704 22.75 20.1207 22.1899 21.1553 21.1553C22.1899 20.1208 22.75 18.6704 22.75 17V16.5V12.5V12C22.75 10.4753 22.2833 9.13163 21.4103 8.12C20.6561 7.246 19.629 6.65552 18.4251 6.40091C18.2673 5.61108 17.8776 4.86739 17.2613 4.25925L15.5148 2.49268L15.5098 2.48773C13.8474 0.837427 11.1555 0.837419 9.49302 2.48773L6.24108 5.74968ZM21.2447 11.75C21.1976 10.6496 20.8395 9.75448 20.2747 9.1C19.6691 8.39822 18.7851 7.92541 17.6634 7.79497C17.6511 7.79355 17.6389 7.79182 17.6267 7.78979C17.4727 7.76412 17.3023 7.75323 17.103 7.75064L17.0468 7.75013L17.0014 7.75001H7.00141C6.75716 7.75001 6.52538 7.76746 6.30545 7.80129C6.29329 7.80316 6.28112 7.80473 6.26896 7.806C5.1685 7.94725 4.30299 8.42025 3.70955 9.11651C3.11197 9.81761 2.75 10.7929 2.75 12V17C2.75 18.3296 3.18991 19.3793 3.90533 20.0947C4.62075 20.8101 5.67044 21.25 7 21.25H17C18.3296 21.25 19.3793 20.8101 20.0947 20.0947C20.7646 19.4247 21.193 18.4616 21.2447 17.25H19C17.4858 17.25 16.25 16.0142 16.25 14.5C16.25 12.9858 17.4858 11.75 19 11.75H21.2447ZM21.25 15.75H19C18.3142 15.75 17.75 15.1858 17.75 14.5C17.75 13.8142 18.3142 13.25 19 13.25H21.25V15.75Z" fill="#424B5A"/>
</svg>
