<svg width="24" height="24" viewBox="0 0 24 24" fill="none" xmlns="http://www.w3.org/2000/svg">
<path fill-rule="evenodd" clip-rule="evenodd" d="M6.30405 4.30128C6.52398 4.26744 6.75575 4.25 7 4.25H16C16.2446 4.25 16.4468 4.2598 16.6267 4.28978C16.6389 4.29181 16.6511 4.29354 16.6634 4.29497C17.7851 4.42541 18.6691 4.89822 19.2747 5.59999C19.8817 6.30336 20.25 7.2847 20.25 8.5V9.20001H18.92C18.92 9.20001 18.92 9.20001 18.92 9.20001C18.4937 9.20001 18.0852 9.29439 17.7183 9.46988C17.4331 9.6063 17.1731 9.79173 16.9493 10.02C16.3805 10.579 16.0522 11.3845 16.133 12.2467C16.2138 13.1983 16.7786 13.9578 17.5349 14.3936C17.9886 14.655 18.5114 14.8 19.04 14.8C19.04 14.8 19.04 14.8 19.04 14.8H20.25V15.5C20.25 16.8296 19.8101 17.8793 19.0947 18.5947C18.3793 19.3101 17.3296 19.75 16 19.75H7C5.67044 19.75 4.62075 19.3101 3.90533 18.5947C3.18991 17.8793 2.75 16.8296 2.75 15.5V8.5C2.75 7.29287 3.11197 6.31761 3.70955 5.61651C4.30559 4.91721 5.17606 4.44312 6.28339 4.30416L6.30405 4.30128ZM21.75 14.6201V15.5C21.75 17.1704 21.1899 18.6207 20.1553 19.6553C19.1207 20.6899 17.6704 21.25 16 21.25H7C5.32956 21.25 3.87925 20.6899 2.84467 19.6553C1.81009 18.6207 1.25 17.1704 1.25 15.5V8.5C1.25 6.98713 1.70803 5.65239 2.56796 4.64349C3.42737 3.63519 4.64812 2.9999 6.08633 2.81713C6.38313 2.77204 6.68789 2.75 7 2.75H16C16.2697 2.75 16.5608 2.75975 16.8545 2.80711C18.305 2.97974 19.5395 3.6109 20.4103 4.62C21.2833 5.63163 21.75 6.9753 21.75 8.5V9.37992C22.3409 9.66694 22.75 10.2672 22.75 10.97V13.03C22.75 13.7328 22.3409 14.3331 21.75 14.6201ZM20.9828 13.3C21.1444 13.2896 21.25 13.1632 21.25 13.03V10.97C21.25 10.8368 21.1444 10.7104 20.9828 10.7H18.92C18.92 10.7 18.92 10.7 18.92 10.7C18.7405 10.7 18.5717 10.7348 18.4194 10.7989C18.2672 10.8629 18.1313 10.9562 18.0174 11.0732H18.0173L18.0039 11.0867C17.7379 11.3464 17.5893 11.7162 17.6267 12.1089L17.6275 12.1177H17.6275L17.6274 12.1177C17.6647 12.5651 17.9788 12.969 18.4232 13.1686C18.6095 13.2522 18.8187 13.3 19.04 13.3C19.04 13.3 19.04 13.3 19.04 13.3H20.9828ZM6.25 9C6.25 8.58579 6.58579 8.25 7 8.25H13C13.4142 8.25 13.75 8.58579 13.75 9C13.75 9.41421 13.4142 9.75 13 9.75H7C6.58579 9.75 6.25 9.41421 6.25 9Z" fill="#424B5A"/>
</svg>
