<svg width="24" height="24" viewBox="0 0 24 24" fill="none" xmlns="http://www.w3.org/2000/svg">
<path fill-rule="evenodd" clip-rule="evenodd" d="M6.30405 4.30128C6.52398 4.26744 6.75575 4.25 7 4.25H16C16.2446 4.25 16.4468 4.2598 16.6267 4.28978C16.6389 4.29181 16.6511 4.29354 16.6634 4.29497C17.7851 4.42541 18.6691 4.89822 19.2747 5.59999C19.8817 6.30336 20.25 7.2847 20.25 8.5V9.20001H18.92C18.92 9.20001 18.92 9.20001 18.92 9.20001C18.4937 9.20001 18.0852 9.29439 17.7183 9.46988C17.4331 9.6063 17.1731 9.79173 16.9493 10.02C16.3805 10.579 16.0522 11.3845 16.133 12.2467C16.2138 13.1983 16.7786 13.9578 17.5349 14.3936C17.9886 14.655 18.5114 14.8 19.04 14.8C19.04 14.8 19.04 14.8 19.04 14.8H20.25V15.5C20.25 16.8296 19.8101 17.8793 19.0947 18.5947C18.3793 19.3101 17.3296 19.75 16 19.75H13.5C13.0858 19.75 12.75 20.0858 12.75 20.5C12.75 20.9142 13.0858 21.25 13.5 21.25H16C17.6704 21.25 19.1207 20.6899 20.1553 19.6553C21.1899 18.6207 21.75 17.1704 21.75 15.5V14.6201C22.3409 14.3331 22.75 13.7328 22.75 13.03V10.97C22.75 10.2672 22.3409 9.66694 21.75 9.37992V8.5C21.75 6.9753 21.2833 5.63163 20.4103 4.62C19.5395 3.6109 18.305 2.97974 16.8545 2.80711C16.5608 2.75975 16.2697 2.75 16 2.75H7C6.68789 2.75 6.38313 2.77204 6.08633 2.81713C4.64812 2.9999 3.42737 3.63519 2.56796 4.64349C1.70803 5.65239 1.25 6.98713 1.25 8.5V10.5C1.25 10.9142 1.58579 11.25 2 11.25C2.41421 11.25 2.75 10.9142 2.75 10.5V8.5C2.75 7.29287 3.11197 6.31761 3.70955 5.61651C4.30559 4.91721 5.17606 4.44312 6.28339 4.30416L6.30405 4.30128ZM20.9828 10.7H18.92C18.92 10.7 18.92 10.7 18.92 10.7C18.7405 10.7 18.5717 10.7348 18.4194 10.7989C18.2672 10.8629 18.1313 10.9562 18.0174 11.0732H18.0173L18.0039 11.0867C17.7379 11.3464 17.5893 11.7162 17.6267 12.1089L17.6275 12.1177H17.6275L17.6274 12.1177C17.6647 12.5651 17.9788 12.969 18.4232 13.1686C18.6095 13.2522 18.8187 13.3 19.04 13.3C19.04 13.3 19.04 13.3 19.04 13.3H20.9828C21.1444 13.2896 21.25 13.1632 21.25 13.03V10.97C21.25 10.8368 21.1444 10.7104 20.9828 10.7ZM7.7431 19.0113C9.09726 18.8178 9.95593 17.9303 9.99982 16.9401C9.22231 17.4987 8.22099 17.8 7.16998 17.8C6.12261 17.8 5.12777 17.4969 4.3536 16.9453C4.40705 18.0617 5.50679 19.05 7.18158 19.05C7.37693 19.05 7.56435 19.0367 7.7431 19.0113ZM4.35156 14.319C4.38213 14.5934 4.47248 14.8487 4.61103 15.0807C5.03848 15.7729 5.97629 16.3 7.16998 16.3C8.36848 16.3 9.3027 15.7796 9.72804 15.0821C9.90177 14.7919 10 14.465 10 14.11C10 13.493 9.71519 12.9173 9.20986 12.4961L9.2004 12.4883L9.20047 12.4882C8.6887 12.0473 7.97308 11.76 7.15997 11.76C6.59706 11.76 6.08474 11.8927 5.6552 12.1198C4.84689 12.5553 4.35156 13.3198 4.35156 14.11V14.319ZM2.85156 14.3902C2.84393 14.298 2.84003 14.2045 2.84003 14.11C2.84003 13.0052 3.35615 12.038 4.13613 11.3556L4.13551 11.3561L4.13876 11.3598L2.85156 14.3902ZM2.85156 16.8602V16.86V14.3902C2.89591 14.9263 3.06612 15.4213 3.32685 15.8558L3.32681 15.8559L3.331 15.8627C3.38468 15.95 3.44205 16.0347 3.50289 16.1168C3.13535 16.1651 2.85162 16.4795 2.85156 16.8602ZM2.85156 16.8602C2.85172 19.1292 4.95898 20.55 7.18158 20.55C7.45199 20.55 7.72051 20.5291 7.98361 20.4883C7.72055 20.5293 7.45204 20.5504 7.18158 20.5504C6.2522 20.5504 5.34616 20.3059 4.60511 19.856C5.03545 20.6474 5.98028 21.2504 7.18158 21.2504C8.38159 21.2504 9.32257 20.6479 9.75029 19.8555C10.7872 19.2246 11.5015 18.19 11.5016 16.8602V16.8604V18.8904C11.5016 21.119 9.46465 22.7504 7.18158 22.7504C4.9014 22.7504 2.85156 21.1215 2.85156 18.8904V16.8604V16.8602ZM4.13613 11.3556C4.63011 10.9225 5.23003 10.6044 5.8924 10.4257C5.23268 10.6095 4.63058 10.9309 4.13938 11.3593L4.13613 11.3556Z" fill="#424B5A"/>
</svg>
