<svg width="24" height="24" viewBox="0 0 24 24" fill="none" xmlns="http://www.w3.org/2000/svg">
<path fill-rule="evenodd" clip-rule="evenodd" d="M7.86038 6.24998L10.5511 3.55094C11.628 2.48336 13.3734 2.48302 14.4507 3.54995L16.198 5.31733L16.2053 5.32445C16.4853 5.60009 16.6907 5.91445 16.8232 6.24998H7.86038ZM9.49302 2.48773L6.24108 5.74968C6.05212 5.93869 5.87589 6.14639 5.72481 6.37342C4.44344 6.61046 3.3544 7.22079 2.56795 8.14349C1.70803 9.15239 1.25 10.4871 1.25 12V16.0835C0.623242 16.8883 0.25 17.9004 0.25 19C0.25 19.8885 0.498304 20.7327 0.938481 21.4486C1.75937 22.8246 3.26803 23.75 5 23.75C6.10105 23.75 7.11185 23.376 7.91307 22.75H17C18.6704 22.75 20.1207 22.1899 21.1553 21.1553C22.1899 20.1207 22.75 18.6704 22.75 17V16.5V12.5V12C22.75 10.4753 22.2833 9.13163 21.4103 8.12C20.6561 7.246 19.629 6.65552 18.4251 6.40091C18.2673 5.61107 17.8777 4.86736 17.2613 4.25921L15.5148 2.49267L15.5098 2.48773C13.8474 0.837427 11.1555 0.837419 9.49302 2.48773ZM21.2447 11.75C21.1976 10.6496 20.8395 9.75448 20.2747 9.09999C19.6691 8.39822 18.7851 7.92541 17.6634 7.79497C17.6511 7.79354 17.6389 7.79181 17.6267 7.78978C17.4468 7.7598 17.2446 7.75 17 7.75H7C6.98128 7.75 6.96263 7.7501 6.94405 7.75031C6.7208 7.75283 6.5081 7.77008 6.30545 7.80126C6.29366 7.80307 6.28188 7.8046 6.27009 7.80585C5.16909 7.94692 4.3032 8.42001 3.70954 9.11651C3.11197 9.81761 2.75 10.7929 2.75 12V14.8153C3.38677 14.4723 4.11087 14.2705 4.88051 14.2515C4.92022 14.2505 4.96005 14.25 5 14.25C7.62421 14.25 9.75 16.3758 9.75 19C9.75 19.7775 9.55989 20.5209 9.21747 21.1743C9.20417 21.1996 9.19064 21.2249 9.17688 21.25H17C18.3296 21.25 19.3793 20.8101 20.0947 20.0947C20.7646 19.4247 21.193 18.4616 21.2447 17.25H19C17.4858 17.25 16.25 16.0142 16.25 14.5C16.25 12.9858 17.4858 11.75 19 11.75H21.2447ZM21.25 15.75H19C18.3142 15.75 17.75 15.1858 17.75 14.5C17.75 13.8142 18.3142 13.25 19 13.25H21.25V15.75ZM1.75 19C1.75 18.2028 2.03661 17.4729 2.51247 16.9076C2.53008 16.8911 2.54701 16.8737 2.56317 16.8553C3.14098 16.1983 3.97665 15.7749 4.91608 15.7511C4.94397 15.7504 4.97194 15.75 5 15.75C6.79579 15.75 8.25 17.2042 8.25 19C8.25 19.6094 8.07948 20.1833 7.78162 20.6663L7.78154 20.6663L7.77541 20.6766C7.67395 20.8472 7.55705 21.0076 7.42659 21.1559C7.33922 21.2531 7.24597 21.3432 7.14804 21.4254C7.11709 21.4513 7.08864 21.4794 7.06278 21.5093C6.50506 21.9716 5.78691 22.25 5 22.25C3.81412 22.25 2.7844 21.6177 2.22459 20.6766L2.22467 20.6765L2.21838 20.6663C1.92052 20.1833 1.75 19.6094 1.75 19ZM7.11202 17.5103C7.39327 17.8144 7.37475 18.2889 7.07065 18.5701L4.94065 20.5401C4.64491 20.8136 4.18593 20.8047 3.90108 20.5198L2.91108 19.5298C2.61818 19.237 2.61818 18.7621 2.91107 18.4692C3.20396 18.1763 3.67884 18.1763 3.97173 18.4692L4.4517 18.9491L6.05217 17.4689C6.35626 17.1877 6.83077 17.2062 7.11202 17.5103Z" fill="#424B5A"/>
</svg>
