<svg width="24" height="24" viewBox="0 0 24 24" fill="none" xmlns="http://www.w3.org/2000/svg">
<path fill-rule="evenodd" clip-rule="evenodd" d="M2.75 6.53009C2.75 4.9043 4.06422 3.59009 5.69 3.59009H11.31C12.1785 3.59009 12.9198 3.86031 13.4317 4.29938C13.7635 4.58396 14.0146 4.95162 14.1464 5.40009H6C4.74254 5.40009 3.59952 5.88819 2.75 6.68534V6.53009ZM14.4083 3.16079C15.0675 3.72621 15.5231 4.49195 15.6849 5.40009H16C18.6142 5.40009 20.75 7.53587 20.75 10.1501V10.85H20.97C21.9494 10.85 22.75 11.6411 22.75 12.6201V14.6801C22.75 15.659 21.9494 16.4501 20.97 16.4501H20.75V17.1501C20.75 19.7743 18.6242 21.9001 16 21.9001H6C3.37579 21.9001 1.25 19.7743 1.25 17.1501V11.1501V10.1501V6.53009C1.25 4.07588 3.23579 2.09009 5.69 2.09009H11.31C12.4814 2.09009 13.5852 2.45486 14.4083 3.16079ZM19.25 16.4501H19.07H19.04C18.5647 16.4501 18.0942 16.3329 17.6742 16.1192C16.9903 15.7771 16.4322 15.18 16.2157 14.3748L16.2147 14.3709L16.2147 14.3709C15.9451 13.3466 16.2656 12.3325 16.9515 11.6678C17.1838 11.4314 17.4551 11.241 17.753 11.1036C18.1109 10.9386 18.5071 10.85 18.92 10.85C18.92 10.85 18.92 10.85 18.92 10.85H19.25V10.1501C19.25 8.3643 17.7858 6.90009 16 6.90009H15H6C4.20421 6.90009 2.75 8.3543 2.75 10.1501V11.1501V17.1501C2.75 18.9459 4.20421 20.4001 6 20.4001H16C17.7958 20.4001 19.25 18.9459 19.25 17.1501V16.4501ZM20 12.35H18.92C18.92 12.35 18.92 12.35 18.92 12.35C18.7226 12.35 18.5382 12.3921 18.3743 12.469C18.2403 12.5318 18.1199 12.618 18.0174 12.7233H18.0173C18.0168 12.7238 18.0163 12.7243 18.0158 12.7248C18.0124 12.7283 18.009 12.7318 18.0055 12.7352L18.0039 12.7368C17.7379 12.9965 17.5893 13.3662 17.6267 13.759L17.6275 13.7678L17.6274 13.7678C17.6602 14.1607 17.9064 14.52 18.2668 14.7369C18.4965 14.871 18.773 14.9501 19.07 14.9501H20H20.97C21.1306 14.9501 21.25 14.8211 21.25 14.6801V12.6201C21.25 12.479 21.1306 12.35 20.97 12.35H20ZM7 10.4001C6.58579 10.4001 6.25 10.7359 6.25 11.1501C6.25 11.5643 6.58579 11.9001 7 11.9001H13C13.4142 11.9001 13.75 11.5643 13.75 11.1501C13.75 10.7359 13.4142 10.4001 13 10.4001H7Z" fill="#424B5A"/>
</svg>
