<svg width="24" height="24" viewBox="0 0 24 24" fill="none" xmlns="http://www.w3.org/2000/svg">
<path fill-rule="evenodd" clip-rule="evenodd" d="M7.8604 6.24998L10.5512 3.55094C11.628 2.48336 13.3734 2.48302 14.4507 3.54995L16.198 5.31733L16.2052 5.32445C16.4853 5.60009 16.6906 5.91445 16.8232 6.24998H7.8604ZM9.49304 2.48773L6.2411 5.74968C6.05214 5.93868 5.8759 6.14638 5.72481 6.37343C4.44344 6.61047 3.3544 7.2208 2.56796 8.14349C1.70803 9.15239 1.25 10.4871 1.25 12V16.0918C0.627804 16.896 0.25 17.9021 0.25 19C0.25 19.8885 0.498325 20.7327 0.938497 21.4486C1.75938 22.8246 3.26803 23.75 5 23.75C6.09126 23.75 7.1002 23.3845 7.90348 22.75H17C18.6704 22.75 20.1207 22.1899 21.1553 21.1553C22.1899 20.1208 22.75 18.6704 22.75 17V16.5V12.5V12C22.75 10.4753 22.2833 9.13163 21.4103 8.12C20.6561 7.24601 19.629 6.65552 18.4251 6.40091C18.2673 5.61107 17.8776 4.86736 17.2613 4.25921L15.5147 2.49267L15.5098 2.48773C13.8473 0.837427 11.1555 0.837419 9.49304 2.48773ZM7.12661 21.444C6.56302 21.9505 5.82187 22.25 5 22.25C3.81413 22.25 2.78441 21.6177 2.2246 20.6766L2.22469 20.6765L2.2184 20.6663C1.92053 20.1833 1.75 19.6094 1.75 19C1.75 18.1834 2.05612 17.4364 2.56402 16.8543C2.63814 16.7701 2.7165 16.6898 2.79877 16.6136C3.37686 16.0783 4.14818 15.75 5 15.75C6.79579 15.75 8.25 17.2042 8.25 19C8.25 19.6094 8.07947 20.1833 7.7816 20.6663L7.77215 20.6821C7.60513 20.9684 7.39098 21.2216 7.14805 21.4254C7.14076 21.4315 7.13361 21.4377 7.12661 21.444ZM9.17686 21.25H17C18.3296 21.25 19.3793 20.8101 20.0947 20.0947C20.7646 19.4247 21.193 18.4616 21.2447 17.25H19C17.4858 17.25 16.25 16.0142 16.25 14.5C16.25 12.9858 17.4858 11.75 19 11.75H21.2447C21.1976 10.6496 20.8395 9.75448 20.2747 9.1C19.6691 8.39822 18.7851 7.92541 17.6634 7.79497C17.6511 7.79355 17.6389 7.79182 17.6267 7.78979C17.4468 7.75981 17.2446 7.75 17 7.75H7C6.97543 7.75 6.95099 7.75018 6.92667 7.75053C6.70975 7.75373 6.50283 7.77089 6.30545 7.80126C6.29369 7.80307 6.28193 7.80459 6.27018 7.80584C5.16914 7.9469 4.30322 8.42 3.70955 9.11651C3.11197 9.81761 2.75 10.7929 2.75 12V14.818C3.4178 14.4568 4.18354 14.25 5 14.25C7.62421 14.25 9.75 16.3758 9.75 19C9.75 19.8077 9.54482 20.5787 9.17686 21.25ZM19 13.25H21.25V15.75H19C18.3142 15.75 17.75 15.1858 17.75 14.5C17.75 13.8142 18.3142 13.25 19 13.25ZM3.43091 17.3997C3.72381 17.1068 4.19868 17.1068 4.49157 17.3997L5.01562 17.9237L5.50965 17.4297C5.80254 17.1368 6.27741 17.1368 6.57031 17.4297C6.8632 17.7226 6.8632 18.1975 6.57031 18.4904L6.07629 18.9844L6.60156 19.5097C6.89445 19.8025 6.89445 20.2774 6.60156 20.5703C6.30866 20.8632 5.83379 20.8632 5.5409 20.5703L5.01562 20.045L4.46032 20.6003C4.16743 20.8932 3.69256 20.8932 3.39966 20.6003C3.10677 20.3074 3.10677 19.8326 3.39966 19.5397L3.95496 18.9844L3.43091 18.4603C3.13802 18.1674 3.13802 17.6926 3.43091 17.3997Z" fill="#424B5A"/>
</svg>
