<svg width="24" height="24" viewBox="0 0 24 24" fill="none" xmlns="http://www.w3.org/2000/svg">
<path fill-rule="evenodd" clip-rule="evenodd" d="M7.86038 6.24998L10.5511 3.55098C11.628 2.48336 13.3734 2.48301 14.4507 3.54995L16.198 5.31733L16.2053 5.32445C16.4853 5.60009 16.6906 5.91445 16.8232 6.24998H7.86038ZM9.49302 2.48773L6.24108 5.74968C6.05212 5.93869 5.87588 6.14639 5.7248 6.37342C4.44344 6.61046 3.3544 7.2208 2.56795 8.14349C1.70803 9.15239 1.25 10.4871 1.25 12V16.0835C0.623242 16.8883 0.25 17.9004 0.25 19C0.25 19.8885 0.498301 20.7327 0.93848 21.4486C1.75936 22.8246 3.26803 23.75 5 23.75C6.10105 23.75 7.11185 23.376 7.91307 22.75H17C18.6704 22.75 20.1207 22.1899 21.1553 21.1553C22.1899 20.1207 22.75 18.6704 22.75 17V16.5V12.5V12C22.75 10.4753 22.2833 9.13163 21.4103 8.12C20.6561 7.246 19.629 6.65552 18.4251 6.40091C18.2673 5.61107 17.8776 4.86736 17.2613 4.25921L15.5148 2.49267L15.5098 2.48773C13.8474 0.837427 11.1555 0.837419 9.49302 2.48773ZM21.2447 11.75C21.1976 10.6496 20.8395 9.75448 20.2747 9.09999C19.6691 8.39822 18.7851 7.92541 17.6634 7.79497C17.6511 7.79354 17.6389 7.79181 17.6267 7.78978C17.4468 7.7598 17.2446 7.75 17 7.75H7C6.98125 7.75 6.96258 7.7501 6.94397 7.75031C6.72075 7.75283 6.50808 7.77009 6.30545 7.80126C6.29367 7.80307 6.28188 7.8046 6.2701 7.80585C5.1691 7.94692 4.3032 8.42001 3.70955 9.11651C3.11197 9.81761 2.75 10.7929 2.75 12V14.8153C3.39433 14.4682 4.12808 14.2657 4.90795 14.2509C4.93856 14.2503 4.96925 14.25 5 14.25C7.62421 14.25 9.75 16.3758 9.75 19C9.75 19.8076 9.54483 20.5787 9.17688 21.25H17C18.3296 21.25 19.3793 20.8101 20.0947 20.0947C20.7646 19.4247 21.193 18.4616 21.2447 17.25H19C17.4858 17.25 16.25 16.0142 16.25 14.5C16.25 12.9858 17.4858 11.75 19 11.75H21.2447ZM21.25 15.75H19C18.3142 15.75 17.75 15.1858 17.75 14.5C17.75 13.8142 18.3142 13.25 19 13.25H21.25V15.75ZM1.75 19C1.75 18.2028 2.03661 17.4729 2.51247 16.9076C2.53008 16.8911 2.54701 16.8737 2.56317 16.8553C3.13512 16.205 3.95973 15.7835 4.88753 15.7519C4.92486 15.7506 4.96236 15.75 5 15.75C6.79579 15.75 8.25 17.2042 8.25 19C8.25 19.6094 8.07948 20.1833 7.78162 20.6663L7.78154 20.6663L7.77541 20.6766C7.67398 20.8471 7.55712 21.0075 7.42669 21.1558C7.33929 21.253 7.24601 21.3432 7.14804 21.4254C7.11708 21.4513 7.08863 21.4794 7.06278 21.5093C6.50506 21.9716 5.78691 22.25 5 22.25C3.81412 22.25 2.7844 21.6177 2.22459 20.6766L2.22467 20.6765L2.21838 20.6663C1.92052 20.1833 1.75 19.6094 1.75 19ZM2.76172 18.9795C2.76172 18.5653 3.09751 18.2295 3.51172 18.2295H4.25V17.5195C4.25 17.1053 4.58579 16.7695 5 16.7695C5.41421 16.7695 5.75 17.1053 5.75 17.5195V18.2295H6.49172C6.90593 18.2295 7.24172 18.5653 7.24172 18.9795C7.24172 19.3937 6.90593 19.7295 6.49172 19.7295H5.75V20.5095C5.75 20.9237 5.41421 21.2595 5 21.2595C4.58579 21.2595 4.25 20.9237 4.25 20.5095V19.7295H3.51172C3.09751 19.7295 2.76172 19.3937 2.76172 18.9795Z" fill="#424B5A"/>
</svg>
