<svg width="24" height="24" viewBox="0 0 24 24" fill="none" xmlns="http://www.w3.org/2000/svg">
<path fill-rule="evenodd" clip-rule="evenodd" d="M13.1965 3.07041C12.4461 2.64226 11.5312 2.64443 10.7949 3.06953L4.85764 6.49794C4.11571 6.93498 3.65991 7.72968 3.65991 8.58003V15.42C3.65991 16.2836 4.1183 17.0753 4.8549 17.5005L10.792 20.9289L10.7935 20.9297C11.5438 21.3578 12.4586 21.3556 13.1949 20.9305L19.13 17.5034L19.1323 17.5021C19.8742 17.065 20.33 16.2703 20.33 15.42V8.58003C20.33 7.721 19.8753 6.93563 19.1322 6.49794L19.13 6.49661L13.1978 3.07118L13.1965 3.07041ZM10.0449 1.77047C11.2482 1.07583 12.7327 1.07774 13.9421 1.76882L13.945 1.7705L19.8899 5.20335C21.0855 5.90592 21.83 7.17993 21.83 8.58003V15.42C21.83 16.8088 21.0867 18.0934 19.8899 18.7967L19.885 18.7996L13.945 22.2295C12.7418 22.9242 11.2572 22.9223 10.0478 22.2312L10.0449 22.2295L4.10493 18.7996C2.90154 18.1048 2.15991 16.8164 2.15991 15.42V8.58003C2.15991 7.19125 2.90321 5.90661 4.09995 5.20337L4.10487 5.20048L10.0449 1.77047ZM11.9999 7C12.4142 7 12.7499 7.33579 12.7499 7.75V13C12.7499 13.4142 12.4142 13.75 11.9999 13.75C11.5857 13.75 11.2499 13.4142 11.2499 13V7.75C11.2499 7.33579 11.5857 7 11.9999 7ZM12.9999 16.2C12.9999 15.6477 12.5522 15.2 11.9999 15.2C11.4477 15.2 10.9999 15.6477 10.9999 16.2V16.3C10.9999 16.8523 11.4477 17.3 11.9999 17.3C12.5522 17.3 12.9999 16.8523 12.9999 16.3V16.2Z" fill="#424B5A"/>
</svg>
