<svg width="24" height="24" viewBox="0 0 24 24" fill="none" xmlns="http://www.w3.org/2000/svg">
<path fill-rule="evenodd" clip-rule="evenodd" d="M8 1.25C7.58579 1.25 7.25 1.58579 7.25 2C7.25 2.41421 7.58579 2.75 8 2.75H16C16.4142 2.75 16.75 2.41421 16.75 2C16.75 1.58579 16.4142 1.25 16 1.25H8ZM8.5 4.25C7.21858 4.25 6.11952 4.57232 5.34592 5.34592C4.57232 6.11952 4.25 7.21858 4.25 8.5V15.5C4.25 16.7814 4.57232 17.8805 5.34592 18.6541C6.11952 19.4277 7.21858 19.75 8.5 19.75H15.5C16.7814 19.75 17.8805 19.4277 18.6541 18.6541C19.4277 17.8805 19.75 16.7814 19.75 15.5V8.5C19.75 7.21858 19.4277 6.11952 18.6541 5.34592C17.8805 4.57232 16.7814 4.25 15.5 4.25H8.5ZM5.75 8.5C5.75 7.45142 6.01268 6.80048 6.40658 6.40658C6.80048 6.01268 7.45142 5.75 8.5 5.75H15.5C16.5486 5.75 17.1995 6.01268 17.5934 6.40658C17.9873 6.80048 18.25 7.45142 18.25 8.5V15.5C18.25 16.5486 17.9873 17.1995 17.5934 17.5934C17.1995 17.9873 16.5486 18.25 15.5 18.25H8.5C7.45142 18.25 6.80048 17.9873 6.40658 17.5934C6.01268 17.1995 5.75 16.5486 5.75 15.5V8.5ZM7.25 22C7.25 21.5858 7.58579 21.25 8 21.25H16C16.4142 21.25 16.75 21.5858 16.75 22C16.75 22.4142 16.4142 22.75 16 22.75H8C7.58579 22.75 7.25 22.4142 7.25 22ZM12.75 10C12.75 9.58579 12.4142 9.25 12 9.25C11.5858 9.25 11.25 9.58579 11.25 10V14C11.25 14.4142 11.5858 14.75 12 14.75C12.4142 14.75 12.75 14.4142 12.75 14V10ZM15 11.25C15.4142 11.25 15.75 11.5858 15.75 12V14C15.75 14.4142 15.4142 14.75 15 14.75C14.5858 14.75 14.25 14.4142 14.25 14V12C14.25 11.5858 14.5858 11.25 15 11.25ZM9.75 13C9.75 12.5858 9.41421 12.25 9 12.25C8.58579 12.25 8.25 12.5858 8.25 13V14C8.25 14.4142 8.58579 14.75 9 14.75C9.41421 14.75 9.75 14.4142 9.75 14V13Z" fill="#424B5A"/>
</svg>
