<svg width="24" height="24" viewBox="0 0 24 24" fill="none" xmlns="http://www.w3.org/2000/svg">
<path fill-rule="evenodd" clip-rule="evenodd" d="M10 1.25C7.42603 1.25 5.42914 1.7602 4.09467 3.09467C2.7602 4.42914 2.25 6.42603 2.25 9V15C2.25 17.574 2.7602 19.5709 4.09467 20.9053C5.42914 22.2398 7.42603 22.75 10 22.75H14C16.574 22.75 18.5709 22.2398 19.9053 20.9053C21.2398 19.5709 21.75 17.574 21.75 15V9C21.75 6.42603 21.2398 4.42914 19.9053 3.09467C18.5709 1.7602 16.574 1.25 14 1.25H10ZM3.75 9C3.75 6.57397 4.2398 5.07086 5.15533 4.15533C6.07086 3.2398 7.57397 2.75 10 2.75H14C16.426 2.75 17.9291 3.2398 18.8447 4.15533C19.7602 5.07086 20.25 6.57397 20.25 9V15C20.25 17.426 19.7602 18.9291 18.8447 19.8447C17.9291 20.7602 16.426 21.25 14 21.25H10C7.57397 21.25 6.07086 20.7602 5.15533 19.8447C4.2398 18.9291 3.75 17.426 3.75 15V9ZM17.7485 7.72957C14.4743 4.81671 9.52576 4.81671 6.25152 7.72957C5.97863 7.97235 5.92031 8.37641 6.11342 8.68644L8.29342 12.1864C8.41038 12.3742 8.60428 12.5008 8.82326 12.5323C9.04224 12.5638 9.26395 12.497 9.42909 12.3498C10.8947 11.0433 13.1054 11.0433 14.571 12.3498C14.7361 12.497 14.9578 12.5638 15.1768 12.5323C15.3958 12.5008 15.5897 12.3742 15.7066 12.1864L17.8866 8.68644C18.0797 8.37641 18.0214 7.97235 17.7485 7.72957ZM9.13428 10.6992L7.73558 8.45364C10.2602 6.57535 13.7399 6.57535 16.2645 8.45364L14.8658 10.6992C13.1195 9.59348 10.8805 9.59348 9.13428 10.6992Z" fill="#424B5A"/>
</svg>
