<svg width="24" height="24" viewBox="0 0 24 24" fill="none" xmlns="http://www.w3.org/2000/svg">
<path fill-rule="evenodd" clip-rule="evenodd" d="M11.9995 1.5C14.7953 1.50112 17.4222 2.58419 19.3968 4.54958C21.3989 6.54252 22.5008 9.15678 22.5 11.9108C22.4987 14.6843 21.4007 17.2966 19.4077 19.2665C17.4198 21.2316 14.7887 22.3138 11.9997 22.3138C10.3572 22.3132 8.73275 21.9267 7.2769 21.1937L1.52871 22.5L2.77896 16.8227C1.9415 15.2779 1.50032 13.5855 1.5 11.9079V11.9027C1.50257 9.13099 2.60015 6.51528 4.59132 4.54701C6.57896 2.58211 9.21002 1.5 11.9995 1.5ZM11.9992 3.13902C7.11733 3.13902 3.14365 7.07444 3.1406 11.9061C3.1406 13.3989 3.56109 14.9123 4.35686 16.2832L4.51691 16.559L3.68666 20.3286L7.50896 19.46L7.78079 19.6074C9.06713 20.3052 10.5247 20.6742 11.9958 20.6748C16.8828 20.6748 20.8573 16.7431 20.8592 11.9103C20.86 9.5953 19.9294 7.39359 18.2389 5.71067C16.5736 4.05338 14.3576 3.13998 11.9992 3.13902ZM9.10163 7.1875C9.27035 7.19468 9.4571 7.2084 9.63451 7.61434C9.70762 7.782 9.81038 8.03715 9.91575 8.30379L9.99485 8.50473C10.1655 8.93962 10.3252 9.35463 10.3587 9.42357C10.4179 9.54538 10.4574 9.68777 10.3785 9.85041C10.2994 10.013 10.2658 10.1146 10.1475 10.257C10.029 10.3992 9.8853 10.5485 9.77888 10.6575C9.66013 10.7792 9.53679 10.9111 9.67484 11.1549C9.81304 11.3989 10.3017 12.2228 11.0058 12.869C11.9104 13.6991 12.6653 13.961 12.9022 14.0833C13.1391 14.2053 13.2773 14.1849 13.4153 14.0221C13.5535 13.8595 14.0186 13.2958 14.1766 13.0522C14.3345 12.8081 14.4923 12.8487 14.7094 12.9299C14.9265 13.0113 16.0872 13.6109 16.3241 13.7329C16.5608 13.8547 16.7188 13.9156 16.7781 14.0172C16.8372 14.1191 16.8372 14.607 16.6399 15.1761C16.4425 15.7451 15.4756 16.2941 15.0413 16.3346C15.0191 16.3367 14.9969 16.3391 14.9746 16.3417L14.9069 16.3497C14.507 16.3981 13.9949 16.4535 12.1996 15.7249C9.79264 14.7479 8.27288 12.2085 8.15445 12.0458C8.03617 11.883 7.1875 10.7243 7.1875 9.52514C7.1875 8.32595 7.79929 7.73631 8.0164 7.49236C8.23335 7.24857 8.48983 7.1875 8.6478 7.1875H9.10163Z" fill="#424B5A"/>
</svg>
