<svg width="24" height="24" viewBox="0 0 24 24" fill="none" xmlns="http://www.w3.org/2000/svg">
<path fill-rule="evenodd" clip-rule="evenodd" d="M2.45839 8.95369C8.24836 4.48223 15.7516 4.48223 21.5416 8.95369C21.8694 9.20687 22.3404 9.14635 22.5936 8.81852C22.8467 8.49068 22.7862 8.01968 22.4584 7.7665C16.1284 2.87796 7.87159 2.87796 1.54156 7.7665C1.21372 8.01968 1.1532 8.49068 1.40638 8.81852C1.65956 9.14635 2.13056 9.20687 2.45839 8.95369ZM5.36833 12.4338C9.39832 9.32225 14.6116 9.32225 18.6416 12.4338C18.9695 12.6869 19.4405 12.6263 19.6936 12.2985C19.9468 11.9706 19.8862 11.4996 19.5583 11.2465C14.9883 7.71801 9.02164 7.71801 4.45163 11.2465C4.12377 11.4996 4.06319 11.9706 4.31633 12.2985C4.56947 12.6263 5.04047 12.6869 5.36833 12.4338ZM16.7407 16.0831C13.8611 13.8525 10.1289 13.8525 7.24925 16.0831C6.92179 16.3367 6.4507 16.2769 6.19704 15.9494C5.94339 15.6219 6.00322 15.1509 6.33069 14.8972C9.75106 12.2478 14.2389 12.2478 17.6593 14.8972C17.9867 15.1509 18.0466 15.6219 17.7929 15.9494C17.5392 16.2769 17.0682 16.3367 16.7407 16.0831ZM9.85834 19.7437C11.1683 18.7322 12.8416 18.7322 14.1516 19.7437C14.4795 19.9969 14.9505 19.9363 15.2036 19.6085C15.4568 19.2806 15.3962 18.8096 15.0683 18.5565C13.2183 17.128 10.7916 17.128 8.9416 18.5565C8.61375 18.8096 8.55319 19.2806 8.80634 19.6085C9.05949 19.9363 9.53049 19.9969 9.85834 19.7437Z" fill="#424B5A"/>
</svg>
