<svg width="24" height="24" viewBox="0 0 24 24" fill="none" xmlns="http://www.w3.org/2000/svg">
<path fill-rule="evenodd" clip-rule="evenodd" d="M1.35687 3.51414C1.56998 3.15896 2.03068 3.04378 2.38586 3.2569L4.88463 4.75616C6.18763 5.53426 7.81246 5.53451 9.11535 4.75616C10.8923 3.69463 13.1077 3.69463 14.8846 4.75616C16.1875 5.53452 17.8118 5.53463 19.1148 4.7565L21.6141 3.2569C21.9693 3.04378 22.43 3.15896 22.6431 3.51414C22.8562 3.86933 22.741 4.33002 22.3859 4.54314L19.8846 6.04387C18.1077 7.1054 15.8923 7.1054 14.1153 6.04387C12.8123 5.2654 11.1877 5.2654 9.88463 6.04387C8.10773 7.1054 5.89225 7.1054 4.11535 6.04387L4.11412 6.04314L1.61412 4.54314C1.25893 4.33002 1.14376 3.86933 1.35687 3.51414ZM4.88463 12.2439L2.38586 13.7431C2.03068 13.9562 1.56998 13.8411 1.35687 13.4859C1.14376 13.1307 1.25893 12.67 1.61412 12.4569L4.11535 10.9562C5.89225 9.89463 8.10773 9.89463 9.88463 10.9562C11.1877 11.7346 12.8123 11.7346 14.1153 10.9562C15.8923 9.89463 18.1077 9.89463 19.8846 10.9562L19.8859 10.9569L22.3859 12.4569C22.741 12.67 22.8562 13.1307 22.6431 13.4859C22.43 13.8411 21.9693 13.9562 21.6141 13.7431L19.1153 12.2439C17.8123 11.4657 16.1876 11.4655 14.8846 12.2439C13.1077 13.3054 10.8923 13.3054 9.11535 12.2439C7.81244 11.4655 6.18763 11.4657 4.88463 12.2439ZM2.38586 20.7431L4.88463 19.2439C6.18763 18.4657 7.81244 18.4655 9.11535 19.2439C10.8923 20.3054 13.1077 20.3054 14.8846 19.2439C16.1876 18.4655 17.8123 18.4657 19.1153 19.2439L21.6141 20.7431C21.9693 20.9562 22.43 20.8411 22.6431 20.4859C22.8562 20.1307 22.741 19.67 22.3859 19.4569L19.8859 17.9569L19.8846 17.9562C18.1077 16.8946 15.8923 16.8946 14.1153 17.9562C12.8123 18.7346 11.1877 18.7346 9.88463 17.9562C8.10773 16.8946 5.89225 16.8946 4.11535 17.9562L1.61412 19.4569C1.25893 19.67 1.14376 20.1307 1.35687 20.4859C1.56998 20.8411 2.03068 20.9562 2.38586 20.7431Z" fill="#424B5A"/>
</svg>
