<svg width="24" height="24" viewBox="0 0 24 24" fill="none" xmlns="http://www.w3.org/2000/svg">
<path fill-rule="evenodd" clip-rule="evenodd" d="M10.0401 14.9969V9.35937L14.9946 12.1784L10.0401 14.9969ZM21.0617 7.58552C20.844 6.76456 20.2011 6.11789 19.3856 5.89908C17.9071 5.5 11.9785 5.5 11.9785 5.5C11.9785 5.5 6.05043 5.5 4.57248 5.89908C3.75696 6.11789 3.11409 6.76456 2.89636 7.58552C2.5 9.07323 2.5 12.1779 2.5 12.1779C2.5 12.1779 2.5 15.2831 2.89636 16.7708C3.11409 17.5918 3.75696 18.2384 4.57248 18.4578C6.05043 18.8563 11.9785 18.8563 11.9785 18.8563C11.9785 18.8563 17.9071 18.8563 19.3856 18.4578C20.2011 18.2384 20.844 17.5918 21.0617 16.7708C21.4575 15.2831 21.4575 12.1779 21.4575 12.1779C21.4575 12.1779 21.4575 9.07323 21.0617 7.58552Z" fill="#424B5A"/>
</svg>
